<svg height="16.296875" width="19.8037109375" xmlns="http://www.w3.org/2000/svg" ><path d="M6.05 9.15L4.80 9.15Q3.27 9.15 2.69 9.50Q2.10 9.84 2.10 10.68L2.10 10.68Q2.10 11.35 2.54 11.75Q2.98 12.14 3.74 12.14L3.74 12.14Q4.79 12.14 5.42 11.40Q6.05 10.66 6.05 9.43L6.05 9.43L6.05 9.15ZM7.31 8.63L7.31 8.63L7.31 13.00L6.05 13.00L6.05 11.83Q5.62 12.53 4.98 12.86Q4.33 13.19 3.40 13.19L3.40 13.19Q2.23 13.19 1.53 12.53Q0.84 11.87 0.84 10.77L0.84 10.77Q0.84 9.47 1.71 8.82Q2.57 8.16 4.29 8.16L4.29 8.16L6.05 8.16L6.05 8.04Q6.05 7.17 5.48 6.70Q4.91 6.22 3.88 6.22L3.88 6.22Q3.22 6.22 2.60 6.38Q1.98 6.54 1.40 6.85L1.40 6.85L1.40 5.69Q2.09 5.42 2.74 5.29Q3.39 5.15 4.01 5.15L4.01 5.15Q5.67 5.15 6.49 6.02Q7.31 6.88 7.31 8.63ZM5.04 3.63L5.04 3.63L4.65 3.25Q4.50 3.12 4.39 3.05Q4.27 2.99 4.18 2.99L4.18 2.99Q3.92 2.99 3.80 3.24Q3.68 3.49 3.66 4.05L3.66 4.05L2.81 4.05Q2.82 3.12 3.17 2.62Q3.52 2.12 4.14 2.12L4.14 2.12Q4.40 2.12 4.62 2.21Q4.84 2.31 5.09 2.54L5.09 2.54L5.48 2.91Q5.63 3.05 5.75 3.11Q5.86 3.18 5.95 3.18L5.95 3.18Q6.21 3.18 6.33 2.93Q6.45 2.68 6.47 2.12L6.47 2.12L7.32 2.12Q7.31 3.04 6.96 3.54Q6.61 4.05 5.99 4.05L5.99 4.05Q5.73 4.05 5.51 3.95Q5.29 3.86 5.04 3.63ZM9.55 5.58L9.55 2.72L13.04 2.72L13.04 3.37L10.36 3.37L10.36 4.76Q10.55 4.70 10.75 4.68L10.75 4.68Q10.94 4.65 11.14 4.65L11.14 4.65Q12.24 4.65 12.88 5.17L12.88 5.17Q13.52 5.69 13.52 6.59L13.52 6.59Q13.52 7.51 12.86 8.03L12.86 8.03Q12.20 8.53 11.00 8.53L11.00 8.53Q10.59 8.53 10.16 8.47Q9.73 8.41 9.28 8.29L9.28 8.29L9.28 7.51Q9.67 7.70 10.09 7.79L10.09 7.79Q10.51 7.88 10.99 7.88L10.99 7.88Q11.74 7.88 12.19 7.53Q12.63 7.18 12.63 6.59Q12.63 6.00 12.19 5.65Q11.74 5.30 10.99 5.30L10.99 5.30Q10.63 5.30 10.27 5.37Q9.92 5.43 9.55 5.58L9.55 5.58ZM17.77 5.34L17.77 5.34Q18.40 5.46 18.75 5.83Q19.09 6.21 19.09 6.77L19.09 6.77Q19.09 7.62 18.44 8.07Q17.79 8.53 16.58 8.53L16.58 8.53Q16.19 8.53 15.77 8.46Q15.34 8.39 14.86 8.25L14.86 8.25L14.86 7.42Q15.22 7.61 15.62 7.70Q16.03 7.79 16.49 7.79L16.49 7.79Q17.23 7.79 17.64 7.52Q18.05 7.25 18.05 6.77L18.05 6.77Q18.05 6.26 17.67 6.00Q17.29 5.74 16.56 5.74L16.56 5.74L15.97 5.74L15.97 5.00L16.61 5.00Q17.25 5.00 17.59 4.79Q17.92 4.57 17.92 4.16L17.92 4.16Q17.92 3.77 17.58 3.56Q17.23 3.35 16.58 3.35L16.58 3.35Q16.31 3.35 15.96 3.41Q15.61 3.47 15.06 3.63L15.06 3.63L15.06 2.84Q15.56 2.73 16.00 2.67Q16.43 2.60 16.81 2.60L16.81 2.60Q17.79 2.60 18.37 3.01Q18.95 3.41 18.95 4.09L18.95 4.09Q18.95 4.56 18.64 4.89Q18.33 5.22 17.77 5.34Z"></path></svg>