<svg height="16.296875" width="20.111328125" xmlns="http://www.w3.org/2000/svg" ><path d="M6.36 6.50L6.36 6.50L6.36 5.34L7.62 5.34L7.62 13.00L6.36 13.00L6.36 11.85Q5.96 12.53 5.36 12.86Q4.75 13.19 3.90 13.19L3.90 13.19Q2.52 13.19 1.64 12.09Q0.77 10.98 0.77 9.17L0.77 9.17Q0.77 7.37 1.64 6.26Q2.52 5.15 3.90 5.15L3.90 5.15Q4.75 5.15 5.36 5.49Q5.96 5.82 6.36 6.50ZM2.07 9.17L2.07 9.17Q2.07 10.56 2.64 11.35Q3.21 12.14 4.21 12.14L4.21 12.14Q5.21 12.14 5.78 11.35Q6.36 10.56 6.36 9.17L6.36 9.17Q6.36 7.79 5.78 7.00Q5.21 6.21 4.21 6.21L4.21 6.21Q3.21 6.21 2.64 7.00Q2.07 7.79 2.07 9.17ZM5.35 3.63L5.35 3.63L4.96 3.25Q4.81 3.12 4.69 3.05Q4.58 2.99 4.49 2.99L4.49 2.99Q4.23 2.99 4.11 3.24Q3.99 3.49 3.97 4.05L3.97 4.05L3.12 4.05Q3.13 3.12 3.48 2.62Q3.83 2.12 4.45 2.12L4.45 2.12Q4.71 2.12 4.93 2.21Q5.15 2.31 5.40 2.54L5.40 2.54L5.79 2.91Q5.94 3.05 6.05 3.11Q6.17 3.18 6.25 3.18L6.25 3.18Q6.51 3.18 6.64 2.93Q6.76 2.68 6.77 2.12L6.77 2.12L7.63 2.12Q7.62 3.04 7.27 3.54Q6.92 4.05 6.30 4.05L6.30 4.05Q6.04 4.05 5.82 3.95Q5.60 3.86 5.35 3.63ZM9.86 5.58L9.86 2.72L13.34 2.72L13.34 3.37L10.67 3.37L10.67 4.76Q10.86 4.70 11.06 4.68L11.06 4.68Q11.25 4.65 11.44 4.65L11.44 4.65Q12.54 4.65 13.19 5.17L13.19 5.17Q13.83 5.69 13.83 6.59L13.83 6.59Q13.83 7.51 13.17 8.03L13.17 8.03Q12.51 8.53 11.31 8.53L11.31 8.53Q10.90 8.53 10.47 8.47Q10.04 8.41 9.58 8.29L9.58 8.29L9.58 7.51Q9.97 7.70 10.40 7.79L10.40 7.79Q10.82 7.88 11.29 7.88L11.29 7.88Q12.05 7.88 12.50 7.53Q12.94 7.18 12.94 6.59Q12.94 6.00 12.50 5.65Q12.05 5.30 11.29 5.30L11.29 5.30Q10.94 5.30 10.58 5.37Q10.23 5.43 9.86 5.58L9.86 5.58ZM18.08 5.34L18.08 5.34Q18.71 5.46 19.06 5.83Q19.40 6.21 19.40 6.77L19.40 6.77Q19.40 7.62 18.75 8.07Q18.10 8.53 16.89 8.53L16.89 8.53Q16.50 8.53 16.07 8.46Q15.65 8.39 15.17 8.25L15.17 8.25L15.17 7.42Q15.52 7.61 15.93 7.70Q16.34 7.79 16.80 7.79L16.80 7.79Q17.54 7.79 17.95 7.52Q18.36 7.25 18.36 6.77L18.36 6.77Q18.36 6.26 17.98 6.00Q17.60 5.74 16.86 5.74L16.86 5.74L16.28 5.74L16.28 5.00L16.92 5.00Q17.56 5.00 17.89 4.79Q18.22 4.57 18.22 4.16L18.22 4.16Q18.22 3.77 17.88 3.56Q17.54 3.35 16.89 3.35L16.89 3.35Q16.62 3.35 16.27 3.41Q15.92 3.47 15.37 3.63L15.37 3.63L15.37 2.84Q15.87 2.73 16.30 2.67Q16.74 2.60 17.12 2.60L17.12 2.60Q18.10 2.60 18.68 3.01Q19.26 3.41 19.26 4.09L19.26 4.09Q19.26 4.56 18.95 4.89Q18.64 5.22 18.08 5.34Z"></path></svg>