<svg height="16.296875" width="26.6533203125" xmlns="http://www.w3.org/2000/svg" ><path d="M5.00 5.34L7.87 13.00L6.54 13.00L5.84 11.12L2.45 11.12L1.75 13.00L0.42 13.00L3.29 5.34L5.00 5.34ZM4.14 6.57L2.83 10.10L5.46 10.10L4.14 6.57ZM10.62 13.00L10.61 7.54L11.04 7.54Q12.35 7.54 12.94 6.76L12.94 6.76Q13.34 6.24 13.34 5.57L13.34 5.57Q13.33 4.66 12.94 4.22L12.94 4.22Q12.26 3.44 11.04 3.44L11.04 3.44Q10.49 3.44 9.95 3.59L9.95 3.59Q9.42 3.73 8.89 4.03L8.89 4.03L8.89 2.85Q9.41 2.61 9.96 2.50L9.96 2.50Q10.51 2.37 11.09 2.37L11.09 2.37Q12.97 2.37 13.92 3.45L13.92 3.45Q14.66 4.30 14.66 5.57L14.66 5.57Q14.66 6.73 13.92 7.52L13.92 7.52Q13.16 8.33 12.00 8.54L12.00 8.54L12.00 13.00L10.62 13.00ZM16.40 5.58L16.40 2.72L19.89 2.72L19.89 3.37L17.21 3.37L17.21 4.76Q17.40 4.70 17.60 4.68L17.60 4.68Q17.79 4.65 17.99 4.65L17.99 4.65Q19.09 4.65 19.73 5.17L19.73 5.17Q20.37 5.69 20.37 6.59L20.37 6.59Q20.37 7.51 19.71 8.03L19.71 8.03Q19.05 8.53 17.85 8.53L17.85 8.53Q17.44 8.53 17.01 8.47Q16.58 8.41 16.13 8.29L16.13 8.29L16.13 7.51Q16.52 7.70 16.94 7.79L16.94 7.79Q17.36 7.88 17.83 7.88L17.83 7.88Q18.59 7.88 19.04 7.53Q19.48 7.18 19.48 6.59Q19.48 6.00 19.04 5.65Q18.59 5.30 17.83 5.30L17.83 5.30Q17.48 5.30 17.12 5.37Q16.77 5.43 16.40 5.58L16.40 5.58ZM22.01 5.58L22.01 2.72L25.50 2.72L25.50 3.37L22.83 3.37L22.83 4.76Q23.02 4.70 23.21 4.68L23.21 4.68Q23.41 4.65 23.60 4.65L23.60 4.65Q24.70 4.65 25.34 5.17L25.34 5.17Q25.98 5.69 25.98 6.59L25.98 6.59Q25.98 7.51 25.32 8.03L25.32 8.03Q24.66 8.53 23.46 8.53L23.46 8.53Q23.05 8.53 22.62 8.47Q22.19 8.41 21.74 8.29L21.74 8.29L21.74 7.51Q22.13 7.70 22.55 7.79L22.55 7.79Q22.98 7.88 23.45 7.88L23.45 7.88Q24.21 7.88 24.65 7.53Q25.09 7.18 25.09 6.59Q25.09 6.00 24.65 5.65Q24.21 5.30 23.45 5.30L23.45 5.30Q23.09 5.30 22.74 5.37Q22.38 5.43 22.01 5.58L22.01 5.58Z"></path></svg>