<svg height="16.296875" width="18.9150390625" xmlns="http://www.w3.org/2000/svg" ><path d="M0.87 6.81L0.87 5.65Q1.39 5.40 1.96 5.28Q2.52 5.15 3.16 5.15L3.16 5.15Q4.89 5.15 5.91 6.24Q6.92 7.33 6.92 9.17L6.92 9.17Q6.92 11.05 5.90 12.12Q4.87 13.19 3.08 13.19L3.08 13.19Q2.50 13.19 1.94 13.07Q1.39 12.95 0.87 12.71L0.87 12.71L0.87 11.54Q1.40 11.83 1.94 11.98Q2.47 12.13 3.02 12.13L3.02 12.13Q4.25 12.13 4.92 11.35Q5.60 10.58 5.60 9.17L5.60 9.17Q5.60 7.77 4.92 7.00Q4.25 6.22 3.02 6.22L3.02 6.22Q2.47 6.22 1.94 6.37Q1.40 6.51 0.87 6.81L0.87 6.81ZM8.66 5.58L8.66 2.72L12.15 2.72L12.15 3.37L9.47 3.37L9.47 4.76Q9.67 4.70 9.86 4.68L9.86 4.68Q10.06 4.65 10.25 4.65L10.25 4.65Q11.35 4.65 11.99 5.17L11.99 5.17Q12.63 5.69 12.63 6.59L12.63 6.59Q12.63 7.51 11.97 8.03L11.97 8.03Q11.31 8.53 10.11 8.53L10.11 8.53Q9.70 8.53 9.27 8.47Q8.84 8.41 8.39 8.29L8.39 8.29L8.39 7.51Q8.78 7.70 9.20 7.79L9.20 7.79Q9.63 7.88 10.10 7.88L10.10 7.88Q10.86 7.88 11.30 7.53Q11.74 7.18 11.74 6.59Q11.74 6.00 11.30 5.65Q10.86 5.30 10.10 5.30L10.10 5.30Q9.74 5.30 9.39 5.37Q9.03 5.43 8.66 5.58L8.66 5.58ZM16.88 5.34L16.88 5.34Q17.51 5.46 17.86 5.83Q18.20 6.21 18.20 6.77L18.20 6.77Q18.20 7.62 17.55 8.07Q16.91 8.53 15.70 8.53L15.70 8.53Q15.31 8.53 14.88 8.46Q14.45 8.39 13.97 8.25L13.97 8.25L13.97 7.42Q14.33 7.61 14.73 7.70Q15.14 7.79 15.60 7.79L15.60 7.79Q16.34 7.79 16.75 7.52Q17.17 7.25 17.17 6.77L17.17 6.77Q17.17 6.26 16.79 6.00Q16.41 5.74 15.67 5.74L15.67 5.74L15.08 5.74L15.08 5.00L15.72 5.00Q16.37 5.00 16.70 4.79Q17.03 4.57 17.03 4.16L17.03 4.16Q17.03 3.77 16.69 3.56Q16.34 3.35 15.70 3.35L15.70 3.35Q15.42 3.35 15.07 3.41Q14.72 3.47 14.17 3.63L14.17 3.63L14.17 2.84Q14.67 2.73 15.11 2.67Q15.54 2.60 15.92 2.60L15.92 2.60Q16.91 2.60 17.48 3.01Q18.06 3.41 18.06 4.09L18.06 4.09Q18.06 4.56 17.75 4.89Q17.45 5.22 16.88 5.34Z"></path></svg>