<svg height="16.296875" width="34.302734375" xmlns="http://www.w3.org/2000/svg" ><path d="M6.82 9.17L6.82 9.17Q6.82 7.79 6.24 7.00Q5.67 6.21 4.68 6.21L4.68 6.21Q3.68 6.21 3.11 7.00Q2.54 7.79 2.54 9.17L2.54 9.17Q2.54 10.56 3.11 11.35Q3.68 12.14 4.68 12.14L4.68 12.14Q5.67 12.14 6.24 11.35Q6.82 10.56 6.82 9.17ZM2.54 2.36L2.54 6.50Q2.93 5.82 3.54 5.49Q4.14 5.15 4.98 5.15L4.98 5.15Q6.38 5.15 7.25 6.26Q8.12 7.37 8.12 9.17L8.12 9.17Q8.12 10.98 7.25 12.09Q6.38 13.19 4.98 13.19L4.98 13.19Q4.14 13.19 3.54 12.86Q2.93 12.53 2.54 11.85L2.54 11.85L2.54 13.00L1.27 13.00L1.27 2.36L2.54 2.36ZM14.94 9.15L13.69 9.15Q12.16 9.15 11.57 9.50Q10.99 9.84 10.99 10.68L10.99 10.68Q10.99 11.35 11.43 11.75Q11.87 12.14 12.63 12.14L12.63 12.14Q13.67 12.14 14.30 11.40Q14.94 10.66 14.94 9.43L14.94 9.43L14.94 9.15ZM16.19 8.63L16.19 8.63L16.19 13.00L14.94 13.00L14.94 11.83Q14.51 12.53 13.86 12.86Q13.22 13.19 12.29 13.19L12.29 13.19Q11.12 13.19 10.42 12.53Q9.73 11.87 9.73 10.77L9.73 10.77Q9.73 9.47 10.59 8.82Q11.46 8.16 13.17 8.16L13.17 8.16L14.94 8.16L14.94 8.04Q14.94 7.17 14.37 6.70Q13.79 6.22 12.76 6.22L12.76 6.22Q12.11 6.22 11.48 6.38Q10.86 6.54 10.29 6.85L10.29 6.85L10.29 5.69Q10.98 5.42 11.63 5.29Q12.28 5.15 12.89 5.15L12.89 5.15Q14.55 5.15 15.37 6.02Q16.19 6.88 16.19 8.63ZM13.92 3.63L13.92 3.63L13.54 3.25Q13.38 3.12 13.27 3.05Q13.16 2.99 13.07 2.99L13.07 2.99Q12.81 2.99 12.69 3.24Q12.56 3.49 12.55 4.05L12.55 4.05L11.70 4.05Q11.71 3.12 12.06 2.62Q12.41 2.12 13.03 2.12L13.03 2.12Q13.29 2.12 13.51 2.21Q13.73 2.31 13.98 2.54L13.98 2.54L14.37 2.91Q14.52 3.05 14.63 3.11Q14.75 3.18 14.83 3.18L14.83 3.18Q15.09 3.18 15.22 2.93Q15.34 2.68 15.35 2.12L15.35 2.12L16.21 2.12Q16.19 3.04 15.85 3.54Q15.50 4.05 14.88 4.05L14.88 4.05Q14.62 4.05 14.40 3.95Q14.18 3.86 13.92 3.63ZM18.53 8.43L18.53 7.68L19.93 7.68L19.93 3.50L18.40 3.78L18.40 2.99L19.97 2.72L20.91 2.72L20.91 7.68L22.31 7.68L22.31 8.43L18.53 8.43ZM24.14 8.43L24.14 7.68L25.54 7.68L25.54 3.50L24.01 3.78L24.01 2.99L25.59 2.72L26.52 2.72L26.52 7.68L27.92 7.68L27.92 8.43L24.14 8.43ZM32.27 5.34L32.27 5.34Q32.90 5.46 33.25 5.83Q33.59 6.21 33.59 6.77L33.59 6.77Q33.59 7.62 32.94 8.07Q32.29 8.53 31.08 8.53L31.08 8.53Q30.69 8.53 30.27 8.46Q29.84 8.39 29.36 8.25L29.36 8.25L29.36 7.42Q29.72 7.61 30.12 7.70Q30.53 7.79 30.99 7.79L30.99 7.79Q31.73 7.79 32.14 7.52Q32.55 7.25 32.55 6.77L32.55 6.77Q32.55 6.26 32.17 6.00Q31.79 5.74 31.06 5.74L31.06 5.74L30.47 5.74L30.47 5.00L31.11 5.00Q31.75 5.00 32.08 4.79Q32.42 4.57 32.42 4.16L32.42 4.16Q32.42 3.77 32.07 3.56Q31.73 3.35 31.08 3.35L31.08 3.35Q30.81 3.35 30.46 3.41Q30.11 3.47 29.56 3.63L29.56 3.63L29.56 2.84Q30.06 2.73 30.50 2.67Q30.93 2.60 31.31 2.60L31.31 2.60Q32.29 2.60 32.87 3.01Q33.45 3.41 33.45 4.09L33.45 4.09Q33.45 4.56 33.14 4.89Q32.83 5.22 32.27 5.34Z"></path></svg>