<svg height="16.296875" width="32.59375" xmlns="http://www.w3.org/2000/svg" ><path d="M6.82 9.17L6.82 9.17Q6.82 7.79 6.24 7.00Q5.67 6.21 4.68 6.21L4.68 6.21Q3.68 6.21 3.11 7.00Q2.54 7.79 2.54 9.17L2.54 9.17Q2.54 10.56 3.11 11.35Q3.68 12.14 4.68 12.14L4.68 12.14Q5.67 12.14 6.24 11.35Q6.82 10.56 6.82 9.17ZM2.54 2.36L2.54 6.50Q2.93 5.82 3.54 5.49Q4.14 5.15 4.98 5.15L4.98 5.15Q6.38 5.15 7.25 6.26Q8.12 7.37 8.12 9.17L8.12 9.17Q8.12 10.98 7.25 12.09Q6.38 13.19 4.98 13.19L4.98 13.19Q4.14 13.19 3.54 12.86Q2.93 12.53 2.54 11.85L2.54 11.85L2.54 13.00L1.27 13.00L1.27 2.36L2.54 2.36ZM10.16 13.00L10.16 5.34L15.00 5.34L15.00 6.35L11.43 6.35L11.43 8.41L14.84 8.41L14.84 9.42L11.43 9.42L11.43 11.99L15.09 11.99L15.09 13.00L10.16 13.00ZM16.82 8.43L16.82 7.68L18.22 7.68L18.22 3.50L16.69 3.78L16.69 2.99L18.27 2.72L19.20 2.72L19.20 7.68L20.60 7.68L20.60 8.43L16.82 8.43ZM22.44 8.43L22.44 7.68L23.83 7.68L23.83 3.50L22.31 3.78L22.31 2.99L23.88 2.72L24.81 2.72L24.81 7.68L26.22 7.68L26.22 8.43L22.44 8.43ZM30.56 5.34L30.56 5.34Q31.19 5.46 31.54 5.83Q31.88 6.21 31.88 6.77L31.88 6.77Q31.88 7.62 31.23 8.07Q30.58 8.53 29.37 8.53L29.37 8.53Q28.98 8.53 28.56 8.46Q28.13 8.39 27.65 8.25L27.65 8.25L27.65 7.42Q28.01 7.61 28.41 7.70Q28.82 7.79 29.28 7.79L29.28 7.79Q30.02 7.79 30.43 7.52Q30.84 7.25 30.84 6.77L30.84 6.77Q30.84 6.26 30.46 6.00Q30.08 5.74 29.35 5.74L29.35 5.74L28.76 5.74L28.76 5.00L29.40 5.00Q30.04 5.00 30.38 4.79Q30.71 4.57 30.71 4.16L30.71 4.16Q30.71 3.77 30.37 3.56Q30.02 3.35 29.37 3.35L29.37 3.35Q29.10 3.35 28.75 3.41Q28.40 3.47 27.85 3.63L27.85 3.63L27.85 2.84Q28.35 2.73 28.79 2.67Q29.22 2.60 29.60 2.60L29.60 2.60Q30.58 2.60 31.16 3.01Q31.74 3.41 31.74 4.09L31.74 4.09Q31.74 4.56 31.43 4.89Q31.12 5.22 30.56 5.34Z"></path></svg>