<svg height="16.296875" width="43.2099609375" xmlns="http://www.w3.org/2000/svg" ><path d="M6.82 9.17L6.82 9.17Q6.82 7.79 6.24 7.00Q5.67 6.21 4.68 6.21L4.68 6.21Q3.68 6.21 3.11 7.00Q2.54 7.79 2.54 9.17L2.54 9.17Q2.54 10.56 3.11 11.35Q3.68 12.14 4.68 12.14L4.68 12.14Q5.67 12.14 6.24 11.35Q6.82 10.56 6.82 9.17ZM2.54 2.36L2.54 6.50Q2.93 5.82 3.54 5.49Q4.14 5.15 4.98 5.15L4.98 5.15Q6.38 5.15 7.25 6.26Q8.12 7.37 8.12 9.17L8.12 9.17Q8.12 10.98 7.25 12.09Q6.38 13.19 4.98 13.19L4.98 13.19Q4.14 13.19 3.54 12.86Q2.93 12.53 2.54 11.85L2.54 11.85L2.54 13.00L1.27 13.00L1.27 2.36L2.54 2.36ZM9.66 9.50L9.66 9.50L9.66 8.88L15.44 8.88Q15.36 7.58 14.66 6.90Q13.96 6.22 12.71 6.22L12.71 6.22Q11.98 6.22 11.30 6.40Q10.62 6.58 9.95 6.93L9.95 6.93L9.95 5.74Q10.63 5.46 11.34 5.30Q12.05 5.15 12.78 5.15L12.78 5.15Q14.62 5.15 15.69 6.22Q16.75 7.29 16.75 9.11L16.75 9.11Q16.75 10.99 15.74 12.09Q14.72 13.19 13.00 13.19L13.00 13.19Q11.46 13.19 10.56 12.20Q9.66 11.20 9.66 9.50ZM15.40 9.86L10.92 9.86Q10.93 10.90 11.49 11.51Q12.06 12.13 12.99 12.13L12.99 12.13Q14.04 12.13 14.67 11.53Q15.31 10.94 15.40 9.86L15.40 9.86ZM25.18 8.37L25.18 8.37L25.18 13.00L23.93 13.00L23.93 8.42Q23.93 7.33 23.50 6.79Q23.08 6.25 22.23 6.25L22.23 6.25Q21.21 6.25 20.62 6.90Q20.04 7.55 20.04 8.67L20.04 8.67L20.04 13.00L18.77 13.00L18.77 5.34L20.04 5.34L20.04 6.53Q20.49 5.84 21.10 5.50Q21.71 5.15 22.51 5.15L22.51 5.15Q23.83 5.15 24.51 5.97Q25.18 6.79 25.18 8.37ZM27.44 8.43L27.44 7.68L28.83 7.68L28.83 3.50L27.31 3.78L27.31 2.99L28.88 2.72L29.82 2.72L29.82 7.68L31.22 7.68L31.22 8.43L27.44 8.43ZM33.05 8.43L33.05 7.68L34.45 7.68L34.45 3.50L32.92 3.78L32.92 2.99L34.49 2.72L35.43 2.72L35.43 7.68L36.83 7.68L36.83 8.43L33.05 8.43ZM41.18 5.34L41.18 5.34Q41.81 5.46 42.15 5.83Q42.50 6.21 42.50 6.77L42.50 6.77Q42.50 7.62 41.85 8.07Q41.20 8.53 39.99 8.53L39.99 8.53Q39.60 8.53 39.17 8.46Q38.75 8.39 38.27 8.25L38.27 8.25L38.27 7.42Q38.62 7.61 39.03 7.70Q39.44 7.79 39.89 7.79L39.89 7.79Q40.64 7.79 41.05 7.52Q41.46 7.25 41.46 6.77L41.46 6.77Q41.46 6.26 41.08 6.00Q40.70 5.74 39.96 5.74L39.96 5.74L39.38 5.74L39.38 5.00L40.02 5.00Q40.66 5.00 40.99 4.79Q41.32 4.57 41.32 4.16L41.32 4.16Q41.32 3.77 40.98 3.56Q40.64 3.35 39.99 3.35L39.99 3.35Q39.72 3.35 39.37 3.41Q39.02 3.47 38.47 3.63L38.47 3.63L38.47 2.84Q38.96 2.73 39.40 2.67Q39.84 2.60 40.22 2.60L40.22 2.60Q41.20 2.60 41.78 3.01Q42.36 3.41 42.36 4.09L42.36 4.09Q42.36 4.56 42.05 4.89Q41.74 5.22 41.18 5.34Z"></path></svg>