<svg height="16.296875" width="35.8681640625" xmlns="http://www.w3.org/2000/svg" ><path d="M6.82 9.17L6.82 9.17Q6.82 7.79 6.24 7.00Q5.67 6.21 4.68 6.21L4.68 6.21Q3.68 6.21 3.11 7.00Q2.54 7.79 2.54 9.17L2.54 9.17Q2.54 10.56 3.11 11.35Q3.68 12.14 4.68 12.14L4.68 12.14Q5.67 12.14 6.24 11.35Q6.82 10.56 6.82 9.17ZM2.54 2.36L2.54 6.50Q2.93 5.82 3.54 5.49Q4.14 5.15 4.98 5.15L4.98 5.15Q6.38 5.15 7.25 6.26Q8.12 7.37 8.12 9.17L8.12 9.17Q8.12 10.98 7.25 12.09Q6.38 13.19 4.98 13.19L4.98 13.19Q4.14 13.19 3.54 12.86Q2.93 12.53 2.54 11.85L2.54 11.85L2.54 13.00L1.27 13.00L1.27 2.36L2.54 2.36ZM9.66 9.50L9.66 9.50L9.66 8.88L15.44 8.88Q15.36 7.58 14.66 6.90Q13.96 6.22 12.71 6.22L12.71 6.22Q11.98 6.22 11.30 6.40Q10.62 6.58 9.95 6.93L9.95 6.93L9.95 5.74Q10.63 5.46 11.34 5.30Q12.05 5.15 12.78 5.15L12.78 5.15Q14.62 5.15 15.69 6.22Q16.75 7.29 16.75 9.11L16.75 9.11Q16.75 10.99 15.74 12.09Q14.72 13.19 13.00 13.19L13.00 13.19Q11.46 13.19 10.56 12.20Q9.66 11.20 9.66 9.50ZM15.40 9.86L10.92 9.86Q10.93 10.90 11.49 11.51Q12.06 12.13 12.99 12.13L12.99 12.13Q14.04 12.13 14.67 11.53Q15.31 10.94 15.40 9.86L15.40 9.86ZM19.83 13.00L19.82 7.54L20.25 7.54Q21.57 7.54 22.16 6.76L22.16 6.76Q22.55 6.24 22.55 5.57L22.55 5.57Q22.54 4.66 22.16 4.22L22.16 4.22Q21.48 3.44 20.25 3.44L20.25 3.44Q19.71 3.44 19.17 3.59L19.17 3.59Q18.63 3.73 18.10 4.03L18.10 4.03L18.10 2.85Q18.62 2.61 19.17 2.50L19.17 2.50Q19.73 2.37 20.31 2.37L20.31 2.37Q22.19 2.37 23.13 3.45L23.13 3.45Q23.88 4.30 23.88 5.57L23.88 5.57Q23.88 6.73 23.14 7.52L23.14 7.52Q22.37 8.33 21.21 8.54L21.21 8.54L21.21 13.00L19.83 13.00ZM25.71 8.43L25.71 7.68L27.10 7.68L27.10 3.50L25.58 3.78L25.58 2.99L27.15 2.72L28.09 2.72L28.09 7.68L29.49 7.68L29.49 8.43L25.71 8.43ZM32.09 7.65L32.09 7.65L34.99 7.65L34.99 8.43L30.90 8.43L30.90 7.68Q31.13 7.46 31.56 7.08L31.56 7.08Q33.91 5.00 33.91 4.35L33.91 4.35Q33.91 3.90 33.56 3.63Q33.20 3.35 32.62 3.35L32.62 3.35Q32.27 3.35 31.85 3.47Q31.43 3.59 30.94 3.83L30.94 3.83L30.94 2.99Q31.47 2.80 31.92 2.70Q32.38 2.60 32.76 2.60L32.76 2.60Q33.76 2.60 34.35 3.06Q34.95 3.51 34.95 4.25L34.95 4.25Q34.95 5.20 32.68 7.14L32.68 7.14Q32.30 7.46 32.09 7.65Z"></path></svg>