<svg height="16.296875" width="37.3037109375" xmlns="http://www.w3.org/2000/svg" ><path d="M6.82 9.17L6.82 9.17Q6.82 7.79 6.24 7.00Q5.67 6.21 4.68 6.21L4.68 6.21Q3.68 6.21 3.11 7.00Q2.54 7.79 2.54 9.17L2.54 9.17Q2.54 10.56 3.11 11.35Q3.68 12.14 4.68 12.14L4.68 12.14Q5.67 12.14 6.24 11.35Q6.82 10.56 6.82 9.17ZM2.54 2.36L2.54 6.50Q2.93 5.82 3.54 5.49Q4.14 5.15 4.98 5.15L4.98 5.15Q6.38 5.15 7.25 6.26Q8.12 7.37 8.12 9.17L8.12 9.17Q8.12 10.98 7.25 12.09Q6.38 13.19 4.98 13.19L4.98 13.19Q4.14 13.19 3.54 12.86Q2.93 12.53 2.54 11.85L2.54 11.85L2.54 13.00L1.27 13.00L1.27 2.36L2.54 2.36ZM10.21 13.00L10.21 5.34L11.46 5.34L11.46 13.00L10.21 13.00ZM10.21 3.95L10.21 2.36L11.46 2.36L11.46 3.95L10.21 3.95ZM13.64 6.81L13.64 5.65Q14.17 5.40 14.73 5.28Q15.30 5.15 15.93 5.15L15.93 5.15Q17.66 5.15 18.68 6.24Q19.70 7.33 19.70 9.17L19.70 9.17Q19.70 11.05 18.67 12.12Q17.64 13.19 15.85 13.19L15.85 13.19Q15.27 13.19 14.72 13.07Q14.16 12.95 13.64 12.71L13.64 12.71L13.64 11.54Q14.18 11.83 14.71 11.98Q15.25 12.13 15.80 12.13L15.80 12.13Q17.02 12.13 17.70 11.35Q18.38 10.58 18.38 9.17L18.38 9.17Q18.38 7.77 17.70 7.00Q17.02 6.22 15.80 6.22L15.80 6.22Q15.25 6.22 14.71 6.37Q14.18 6.51 13.64 6.81L13.64 6.81ZM21.53 8.43L21.53 7.68L22.93 7.68L22.93 3.50L21.40 3.78L21.40 2.99L22.98 2.72L23.91 2.72L23.91 7.68L25.31 7.68L25.31 8.43L21.53 8.43ZM27.15 8.43L27.15 7.68L28.54 7.68L28.54 3.50L27.02 3.78L27.02 2.99L28.59 2.72L29.52 2.72L29.52 7.68L30.93 7.68L30.93 8.43L27.15 8.43ZM35.27 5.34L35.27 5.34Q35.90 5.46 36.25 5.83Q36.59 6.21 36.59 6.77L36.59 6.77Q36.59 7.62 35.94 8.07Q35.29 8.53 34.08 8.53L34.08 8.53Q33.69 8.53 33.27 8.46Q32.84 8.39 32.36 8.25L32.36 8.25L32.36 7.42Q32.72 7.61 33.12 7.70Q33.53 7.79 33.99 7.79L33.99 7.79Q34.73 7.79 35.14 7.52Q35.55 7.25 35.55 6.77L35.55 6.77Q35.55 6.26 35.17 6.00Q34.79 5.74 34.06 5.74L34.06 5.74L33.47 5.74L33.47 5.00L34.11 5.00Q34.75 5.00 35.09 4.79Q35.42 4.57 35.42 4.16L35.42 4.16Q35.42 3.77 35.08 3.56Q34.73 3.35 34.08 3.35L34.08 3.35Q33.81 3.35 33.46 3.41Q33.11 3.47 32.56 3.63L32.56 3.63L32.56 2.84Q33.06 2.73 33.50 2.67Q33.93 2.60 34.31 2.60L34.31 2.60Q35.29 2.60 35.87 3.01Q36.45 3.41 36.45 4.09L36.45 4.09Q36.45 4.56 36.14 4.89Q35.83 5.22 35.27 5.34Z"></path></svg>