<svg height="16.296875" width="34.2890625" xmlns="http://www.w3.org/2000/svg" ><path d="M6.82 9.17L6.82 9.17Q6.82 7.79 6.24 7.00Q5.67 6.21 4.68 6.21L4.68 6.21Q3.68 6.21 3.11 7.00Q2.54 7.79 2.54 9.17L2.54 9.17Q2.54 10.56 3.11 11.35Q3.68 12.14 4.68 12.14L4.68 12.14Q5.67 12.14 6.24 11.35Q6.82 10.56 6.82 9.17ZM2.54 2.36L2.54 6.50Q2.93 5.82 3.54 5.49Q4.14 5.15 4.98 5.15L4.98 5.15Q6.38 5.15 7.25 6.26Q8.12 7.37 8.12 9.17L8.12 9.17Q8.12 10.98 7.25 12.09Q6.38 13.19 4.98 13.19L4.98 13.19Q4.14 13.19 3.54 12.86Q2.93 12.53 2.54 11.85L2.54 11.85L2.54 13.00L1.27 13.00L1.27 2.36L2.54 2.36ZM13.17 6.22L13.17 6.22Q12.16 6.22 11.57 7.01Q10.99 7.80 10.99 9.17L10.99 9.17Q10.99 10.55 11.57 11.34Q12.15 12.13 13.17 12.13L13.17 12.13Q14.18 12.13 14.77 11.33Q15.35 10.54 15.35 9.17L15.35 9.17Q15.35 7.81 14.77 7.02Q14.18 6.22 13.17 6.22ZM13.17 5.15L13.17 5.15Q14.81 5.15 15.75 6.22Q16.69 7.29 16.69 9.17L16.69 9.17Q16.69 11.05 15.75 12.12Q14.81 13.19 13.17 13.19L13.17 13.19Q11.53 13.19 10.59 12.12Q9.66 11.05 9.66 9.17L9.66 9.17Q9.66 7.29 10.59 6.22Q11.53 5.15 13.17 5.15ZM18.52 8.43L18.52 7.68L19.91 7.68L19.91 3.50L18.39 3.78L18.39 2.99L19.96 2.72L20.90 2.72L20.90 7.68L22.30 7.68L22.30 8.43L18.52 8.43ZM24.13 8.43L24.13 7.68L25.53 7.68L25.53 3.50L24.00 3.78L24.00 2.99L25.57 2.72L26.51 2.72L26.51 7.68L27.91 7.68L27.91 8.43L24.13 8.43ZM32.26 5.34L32.26 5.34Q32.89 5.46 33.23 5.83Q33.58 6.21 33.58 6.77L33.58 6.77Q33.58 7.62 32.93 8.07Q32.28 8.53 31.07 8.53L31.07 8.53Q30.68 8.53 30.25 8.46Q29.83 8.39 29.35 8.25L29.35 8.25L29.35 7.42Q29.70 7.61 30.11 7.70Q30.52 7.79 30.97 7.79L30.97 7.79Q31.72 7.79 32.13 7.52Q32.54 7.25 32.54 6.77L32.54 6.77Q32.54 6.26 32.16 6.00Q31.78 5.74 31.04 5.74L31.04 5.74L30.45 5.74L30.45 5.00L31.10 5.00Q31.74 5.00 32.07 4.79Q32.40 4.57 32.40 4.16L32.40 4.16Q32.40 3.77 32.06 3.56Q31.72 3.35 31.07 3.35L31.07 3.35Q30.80 3.35 30.45 3.41Q30.10 3.47 29.54 3.63L29.54 3.63L29.54 2.84Q30.04 2.73 30.48 2.67Q30.92 2.60 31.29 2.60L31.29 2.60Q32.28 2.60 32.86 3.01Q33.43 3.41 33.43 4.09L33.43 4.09Q33.43 4.56 33.13 4.89Q32.82 5.22 32.26 5.34Z"></path></svg>