<svg height="16.296875" width="43.162109375" xmlns="http://www.w3.org/2000/svg" ><path d="M6.82 9.17L6.82 9.17Q6.82 7.79 6.24 7.00Q5.67 6.21 4.68 6.21L4.68 6.21Q3.68 6.21 3.11 7.00Q2.54 7.79 2.54 9.17L2.54 9.17Q2.54 10.56 3.11 11.35Q3.68 12.14 4.68 12.14L4.68 12.14Q5.67 12.14 6.24 11.35Q6.82 10.56 6.82 9.17ZM2.54 2.36L2.54 6.50Q2.93 5.82 3.54 5.49Q4.14 5.15 4.98 5.15L4.98 5.15Q6.38 5.15 7.25 6.26Q8.12 7.37 8.12 9.17L8.12 9.17Q8.12 10.98 7.25 12.09Q6.38 13.19 4.98 13.19L4.98 13.19Q4.14 13.19 3.54 12.86Q2.93 12.53 2.54 11.85L2.54 11.85L2.54 13.00L1.27 13.00L1.27 2.36L2.54 2.36ZM13.17 6.22L13.17 6.22Q12.16 6.22 11.57 7.01Q10.99 7.80 10.99 9.17L10.99 9.17Q10.99 10.55 11.57 11.34Q12.15 12.13 13.17 12.13L13.17 12.13Q14.18 12.13 14.77 11.33Q15.35 10.54 15.35 9.17L15.35 9.17Q15.35 7.81 14.77 7.02Q14.18 6.22 13.17 6.22ZM13.17 5.15L13.17 5.15Q14.81 5.15 15.75 6.22Q16.69 7.29 16.69 9.17L16.69 9.17Q16.69 11.05 15.75 12.12Q14.81 13.19 13.17 13.19L13.17 13.19Q11.53 13.19 10.59 12.12Q9.66 11.05 9.66 9.17L9.66 9.17Q9.66 7.29 10.59 6.22Q11.53 5.15 13.17 5.15ZM25.14 8.37L25.14 8.37L25.14 13.13Q25.14 14.59 24.58 15.25L24.58 15.25Q24.02 15.91 22.78 15.91L22.78 15.91L21.05 15.91L21.05 14.84L22.64 14.84Q23.36 14.84 23.62 14.51L23.62 14.51Q23.88 14.18 23.88 13.13L23.88 13.13L23.88 8.42Q23.88 7.33 23.45 6.79Q23.03 6.25 22.18 6.25L22.18 6.25Q21.16 6.25 20.58 6.90Q19.99 7.55 19.99 8.67L19.99 8.67L19.99 13.00L18.72 13.00L18.72 5.34L19.99 5.34L19.99 6.53Q20.44 5.84 21.05 5.50L21.05 5.50Q21.66 5.15 22.46 5.15L22.46 5.15Q23.78 5.15 24.46 5.97L24.46 5.97Q25.14 6.79 25.14 8.37ZM27.39 8.43L27.39 7.68L28.79 7.68L28.79 3.50L27.26 3.78L27.26 2.99L28.83 2.72L29.77 2.72L29.77 7.68L31.17 7.68L31.17 8.43L27.39 8.43ZM33.00 8.43L33.00 7.68L34.40 7.68L34.40 3.50L32.87 3.78L32.87 2.99L34.45 2.72L35.38 2.72L35.38 7.68L36.78 7.68L36.78 8.43L33.00 8.43ZM41.13 5.34L41.13 5.34Q41.76 5.46 42.11 5.83Q42.45 6.21 42.45 6.77L42.45 6.77Q42.45 7.62 41.80 8.07Q41.15 8.53 39.94 8.53L39.94 8.53Q39.55 8.53 39.13 8.46Q38.70 8.39 38.22 8.25L38.22 8.25L38.22 7.42Q38.58 7.61 38.98 7.70Q39.39 7.79 39.85 7.79L39.85 7.79Q40.59 7.79 41.00 7.52Q41.41 7.25 41.41 6.77L41.41 6.77Q41.41 6.26 41.03 6.00Q40.65 5.74 39.92 5.74L39.92 5.74L39.33 5.74L39.33 5.00L39.97 5.00Q40.61 5.00 40.94 4.79Q41.28 4.57 41.28 4.16L41.28 4.16Q41.28 3.77 40.93 3.56Q40.59 3.35 39.94 3.35L39.94 3.35Q39.67 3.35 39.32 3.41Q38.97 3.47 38.42 3.63L38.42 3.63L38.42 2.84Q38.92 2.73 39.35 2.67Q39.79 2.60 40.17 2.60L40.17 2.60Q41.15 2.60 41.73 3.01Q42.31 3.41 42.31 4.09L42.31 4.09Q42.31 4.56 42 4.89Q41.69 5.22 41.13 5.34Z"></path></svg>