<svg height="16.296875" width="34.5966796875" xmlns="http://www.w3.org/2000/svg" ><path d="M6.82 9.17L6.82 9.17Q6.82 7.79 6.24 7.00Q5.67 6.21 4.68 6.21L4.68 6.21Q3.68 6.21 3.11 7.00Q2.54 7.79 2.54 9.17L2.54 9.17Q2.54 10.56 3.11 11.35Q3.68 12.14 4.68 12.14L4.68 12.14Q5.67 12.14 6.24 11.35Q6.82 10.56 6.82 9.17ZM2.54 2.36L2.54 6.50Q2.93 5.82 3.54 5.49Q4.14 5.15 4.98 5.15L4.98 5.15Q6.38 5.15 7.25 6.26Q8.12 7.37 8.12 9.17L8.12 9.17Q8.12 10.98 7.25 12.09Q6.38 13.19 4.98 13.19L4.98 13.19Q4.14 13.19 3.54 12.86Q2.93 12.53 2.54 11.85L2.54 11.85L2.54 13.00L1.27 13.00L1.27 2.36L2.54 2.36ZM10.08 9.97L10.08 9.97L10.08 5.34L11.33 5.34L11.33 9.93Q11.33 11.01 11.76 11.56Q12.18 12.10 13.03 12.10L13.03 12.10Q14.05 12.10 14.64 11.45Q15.23 10.80 15.23 9.68L15.23 9.68L15.23 5.34L16.49 5.34L16.49 13.00L15.23 13.00L15.23 11.82Q14.77 12.52 14.17 12.85Q13.56 13.19 12.76 13.19L12.76 13.19Q11.44 13.19 10.76 12.37Q10.08 11.55 10.08 9.97ZM13.24 5.15L13.24 5.15ZM18.83 8.43L18.83 7.68L20.22 7.68L20.22 3.50L18.70 3.78L18.70 2.99L20.27 2.72L21.21 2.72L21.21 7.68L22.61 7.68L22.61 8.43L18.83 8.43ZM24.44 8.43L24.44 7.68L25.83 7.68L25.83 3.50L24.31 3.78L24.31 2.99L25.88 2.72L26.82 2.72L26.82 7.68L28.22 7.68L28.22 8.43L24.44 8.43ZM32.57 5.34L32.57 5.34Q33.20 5.46 33.54 5.83Q33.89 6.21 33.89 6.77L33.89 6.77Q33.89 7.62 33.24 8.07Q32.59 8.53 31.38 8.53L31.38 8.53Q30.99 8.53 30.56 8.46Q30.13 8.39 29.65 8.25L29.65 8.25L29.65 7.42Q30.01 7.61 30.42 7.70Q30.82 7.79 31.28 7.79L31.28 7.79Q32.03 7.79 32.44 7.52Q32.85 7.25 32.85 6.77L32.85 6.77Q32.85 6.26 32.47 6.00Q32.09 5.74 31.35 5.74L31.35 5.74L30.76 5.74L30.76 5.00L31.40 5.00Q32.05 5.00 32.38 4.79Q32.71 4.57 32.71 4.16L32.71 4.16Q32.71 3.77 32.37 3.56Q32.03 3.35 31.38 3.35L31.38 3.35Q31.10 3.35 30.75 3.41Q30.41 3.47 29.85 3.63L29.85 3.63L29.85 2.84Q30.35 2.73 30.79 2.67Q31.23 2.60 31.60 2.60L31.60 2.60Q32.59 2.60 33.16 3.01Q33.74 3.41 33.74 4.09L33.74 4.09Q33.74 4.56 33.43 4.89Q33.13 5.22 32.57 5.34Z"></path></svg>