<svg height="16.296875" width="39.5732421875" xmlns="http://www.w3.org/2000/svg" ><path d="M1.30 3.17L2.56 3.17L2.56 5.34L5.15 5.34L5.15 6.32L2.56 6.32L2.56 10.47Q2.56 11.41 2.82 11.68Q3.08 11.94 3.86 11.94L3.86 11.94L5.15 11.94L5.15 13.00L3.86 13.00Q2.41 13.00 1.85 12.45Q1.30 11.91 1.30 10.47L1.30 10.47L1.30 6.32L0.38 6.32L0.38 5.34L1.30 5.34L1.30 3.17ZM12.32 5.63L12.32 5.63L12.32 6.81Q11.79 6.51 11.25 6.37Q10.71 6.22 10.17 6.22L10.17 6.22Q8.94 6.22 8.26 7.00Q7.59 7.77 7.59 9.17L7.59 9.17Q7.59 10.58 8.26 11.35L8.26 11.35Q8.31 11.41 8.35 11.45L8.35 11.45Q8.62 10.90 9.04 10.60L9.04 10.60Q9.54 10.25 10.27 10.25L10.27 10.25Q11.38 10.25 11.89 10.74L11.89 10.74Q12.32 11.16 12.32 11.76L12.32 11.76Q12.32 12.62 11.67 12.94L11.67 12.94Q11.10 13.22 10.04 13.22L10.04 13.22Q9.50 13.22 9.00 13.10L9.00 13.10Q8.96 13.49 8.96 13.96L8.96 13.96L7.91 13.96Q7.91 13.25 7.99 12.69L7.99 12.69Q7.60 12.46 7.28 12.11L7.28 12.11Q6.26 11.01 6.26 9.17L6.26 9.17Q6.26 7.30 7.29 6.23Q8.32 5.15 10.11 5.15L10.11 5.15Q10.69 5.15 11.25 5.27Q11.80 5.39 12.32 5.63ZM9.24 12.00L9.24 12.00Q9.64 12.13 10.17 12.13L10.17 12.13Q11.16 12.13 11.16 11.74L11.16 11.74Q11.16 11.22 10.26 11.22L10.26 11.22Q9.57 11.22 9.24 12.00ZM18.03 5.84L18.03 5.84L18.03 8.43L17.23 8.43L17.23 5.87Q17.23 5.26 16.97 4.95Q16.70 4.65 16.17 4.65L16.17 4.65Q15.52 4.65 15.16 5.01Q14.79 5.38 14.79 6.01L14.79 6.01L14.79 8.43L13.99 8.43L13.99 2.47L14.79 2.47L14.79 4.81Q15.07 4.42 15.45 4.23Q15.84 4.04 16.34 4.04L16.34 4.04Q17.17 4.04 17.60 4.50Q18.03 4.96 18.03 5.84ZM20.17 13.00L20.17 5.34L21.42 5.34L21.42 13.00L20.17 13.00ZM20.17 3.95L20.17 2.36L21.42 2.36L21.42 3.95L20.17 3.95ZM26.32 5.34L26.32 5.34Q26.95 5.46 27.29 5.83Q27.64 6.21 27.64 6.77L27.64 6.77Q27.64 7.62 26.99 8.07Q26.34 8.53 25.13 8.53L25.13 8.53Q24.74 8.53 24.31 8.46Q23.88 8.39 23.41 8.25L23.41 8.25L23.41 7.42Q23.76 7.61 24.17 7.70Q24.58 7.79 25.03 7.79L25.03 7.79Q25.78 7.79 26.19 7.52Q26.60 7.25 26.60 6.77L26.60 6.77Q26.60 6.26 26.22 6.00Q25.84 5.74 25.10 5.74L25.10 5.74L24.51 5.74L24.51 5.00L25.16 5.00Q25.80 5.00 26.13 4.79Q26.46 4.57 26.46 4.16L26.46 4.16Q26.46 3.77 26.12 3.56Q25.78 3.35 25.13 3.35L25.13 3.35Q24.86 3.35 24.51 3.41Q24.16 3.47 23.60 3.63L23.60 3.63L23.60 2.84Q24.10 2.73 24.54 2.67Q24.98 2.60 25.35 2.60L25.35 2.60Q26.34 2.60 26.92 3.01Q27.49 3.41 27.49 4.09L27.49 4.09Q27.49 4.56 27.19 4.89Q26.88 5.22 26.32 5.34ZM31.93 5.34L31.93 5.34Q32.56 5.46 32.90 5.83Q33.25 6.21 33.25 6.77L33.25 6.77Q33.25 7.62 32.60 8.07Q31.95 8.53 30.74 8.53L30.74 8.53Q30.35 8.53 29.92 8.46Q29.50 8.39 29.02 8.25L29.02 8.25L29.02 7.42Q29.37 7.61 29.78 7.70Q30.19 7.79 30.65 7.79L30.65 7.79Q31.39 7.79 31.80 7.52Q32.21 7.25 32.21 6.77L32.21 6.77Q32.21 6.26 31.83 6.00Q31.45 5.74 30.71 5.74L30.71 5.74L30.13 5.74L30.13 5.00L30.77 5.00Q31.41 5.00 31.74 4.79Q32.07 4.57 32.07 4.16L32.07 4.16Q32.07 3.77 31.73 3.56Q31.39 3.35 30.74 3.35L30.74 3.35Q30.47 3.35 30.12 3.41Q29.77 3.47 29.22 3.63L29.22 3.63L29.22 2.84Q29.72 2.73 30.15 2.67Q30.59 2.60 30.97 2.60L30.97 2.60Q31.95 2.60 32.53 3.01Q33.11 3.41 33.11 4.09L33.11 4.09Q33.11 4.56 32.80 4.89Q32.49 5.22 31.93 5.34ZM37.22 6.41L37.22 3.55L35.11 6.41L37.22 6.41ZM34.39 6.33L37.07 2.72L38.21 2.72L38.21 6.41L39.13 6.41L39.13 7.16L38.21 7.16L38.21 8.43L37.22 8.43L37.22 7.16L34.39 7.16L34.39 6.33Z"></path></svg>