<svg height="16.296875" width="48.15234375" xmlns="http://www.w3.org/2000/svg" ><path d="M1.30 3.17L2.56 3.17L2.56 5.34L5.15 5.34L5.15 6.32L2.56 6.32L2.56 10.47Q2.56 11.41 2.82 11.68Q3.08 11.94 3.86 11.94L3.86 11.94L5.15 11.94L5.15 13.00L3.86 13.00Q2.41 13.00 1.85 12.45Q1.30 11.91 1.30 10.47L1.30 10.47L1.30 6.32L0.38 6.32L0.38 5.34L1.30 5.34L1.30 3.17ZM12.32 5.63L12.32 5.63L12.32 6.81Q11.79 6.51 11.25 6.37Q10.71 6.22 10.17 6.22L10.17 6.22Q8.94 6.22 8.26 7.00Q7.59 7.77 7.59 9.17L7.59 9.17Q7.59 10.58 8.26 11.35L8.26 11.35Q8.31 11.41 8.35 11.45L8.35 11.45Q8.62 10.90 9.04 10.60L9.04 10.60Q9.54 10.25 10.27 10.25L10.27 10.25Q11.38 10.25 11.89 10.74L11.89 10.74Q12.32 11.16 12.32 11.76L12.32 11.76Q12.32 12.62 11.67 12.94L11.67 12.94Q11.10 13.22 10.04 13.22L10.04 13.22Q9.50 13.22 9.00 13.10L9.00 13.10Q8.96 13.49 8.96 13.96L8.96 13.96L7.91 13.96Q7.91 13.25 7.99 12.69L7.99 12.69Q7.60 12.46 7.28 12.11L7.28 12.11Q6.26 11.01 6.26 9.17L6.26 9.17Q6.26 7.30 7.29 6.23Q8.32 5.15 10.11 5.15L10.11 5.15Q10.69 5.15 11.25 5.27Q11.80 5.39 12.32 5.63ZM9.24 12.00L9.24 12.00Q9.64 12.13 10.17 12.13L10.17 12.13Q11.16 12.13 11.16 11.74L11.16 11.74Q11.16 11.22 10.26 11.22L10.26 11.22Q9.57 11.22 9.24 12.00ZM18.03 5.84L18.03 5.84L18.03 8.43L17.23 8.43L17.23 5.87Q17.23 5.26 16.97 4.95Q16.70 4.65 16.17 4.65L16.17 4.65Q15.52 4.65 15.16 5.01Q14.79 5.38 14.79 6.01L14.79 6.01L14.79 8.43L13.99 8.43L13.99 2.47L14.79 2.47L14.79 4.81Q15.07 4.42 15.45 4.23Q15.84 4.04 16.34 4.04L16.34 4.04Q17.17 4.04 17.60 4.50Q18.03 4.96 18.03 5.84ZM20.17 13.00L20.17 5.34L21.42 5.34L21.42 13.00L20.17 13.00ZM20.17 3.95L20.17 2.36L21.42 2.36L21.42 3.95L20.17 3.95ZM28.79 9.15L27.54 9.15Q26.01 9.15 25.42 9.50Q24.83 9.84 24.83 10.68L24.83 10.68Q24.83 11.35 25.28 11.75Q25.72 12.14 26.48 12.14L26.48 12.14Q27.52 12.14 28.15 11.40Q28.79 10.66 28.79 9.43L28.79 9.43L28.79 9.15ZM30.04 8.63L30.04 8.63L30.04 13.00L28.79 13.00L28.79 11.83Q28.36 12.53 27.71 12.86Q27.07 13.19 26.14 13.19L26.14 13.19Q24.96 13.19 24.27 12.53Q23.58 11.87 23.58 10.77L23.58 10.77Q23.58 9.47 24.44 8.82Q25.31 8.16 27.02 8.16L27.02 8.16L28.79 8.16L28.79 8.04Q28.79 7.17 28.22 6.70Q27.64 6.22 26.61 6.22L26.61 6.22Q25.96 6.22 25.33 6.38Q24.71 6.54 24.14 6.85L24.14 6.85L24.14 5.69Q24.83 5.42 25.48 5.29Q26.13 5.15 26.74 5.15L26.74 5.15Q28.40 5.15 29.22 6.02Q30.04 6.88 30.04 8.63ZM27.77 3.63L27.77 3.63L27.38 3.25Q27.23 3.12 27.12 3.05Q27.01 2.99 26.92 2.99L26.92 2.99Q26.66 2.99 26.54 3.24Q26.41 3.49 26.40 4.05L26.40 4.05L25.55 4.05Q25.56 3.12 25.91 2.62Q26.26 2.12 26.88 2.12L26.88 2.12Q27.14 2.12 27.36 2.21Q27.58 2.31 27.83 2.54L27.83 2.54L28.22 2.91Q28.37 3.05 28.48 3.11Q28.59 3.18 28.68 3.18L28.68 3.18Q28.94 3.18 29.07 2.93Q29.19 2.68 29.20 2.12L29.20 2.12L30.06 2.12Q30.04 3.04 29.70 3.54Q29.35 4.05 28.72 4.05L28.72 4.05Q28.46 4.05 28.25 3.95Q28.03 3.86 27.77 3.63ZM34.90 5.34L34.90 5.34Q35.53 5.46 35.87 5.83Q36.22 6.21 36.22 6.77L36.22 6.77Q36.22 7.62 35.57 8.07Q34.92 8.53 33.71 8.53L33.71 8.53Q33.32 8.53 32.89 8.46Q32.46 8.39 31.99 8.25L31.99 8.25L31.99 7.42Q32.34 7.61 32.75 7.70Q33.15 7.79 33.61 7.79L33.61 7.79Q34.36 7.79 34.77 7.52Q35.18 7.25 35.18 6.77L35.18 6.77Q35.18 6.26 34.80 6.00Q34.42 5.74 33.68 5.74L33.68 5.74L33.09 5.74L33.09 5.00L33.74 5.00Q34.38 5.00 34.71 4.79Q35.04 4.57 35.04 4.16L35.04 4.16Q35.04 3.77 34.70 3.56Q34.36 3.35 33.71 3.35L33.71 3.35Q33.43 3.35 33.09 3.41Q32.74 3.47 32.18 3.63L32.18 3.63L32.18 2.84Q32.68 2.73 33.12 2.67Q33.56 2.60 33.93 2.60L33.93 2.60Q34.92 2.60 35.50 3.01Q36.07 3.41 36.07 4.09L36.07 4.09Q36.07 4.56 35.77 4.89Q35.46 5.22 34.90 5.34ZM40.51 5.34L40.51 5.34Q41.14 5.46 41.48 5.83Q41.83 6.21 41.83 6.77L41.83 6.77Q41.83 7.62 41.18 8.07Q40.53 8.53 39.32 8.53L39.32 8.53Q38.93 8.53 38.50 8.46Q38.08 8.39 37.60 8.25L37.60 8.25L37.60 7.42Q37.95 7.61 38.36 7.70Q38.77 7.79 39.22 7.79L39.22 7.79Q39.97 7.79 40.38 7.52Q40.79 7.25 40.79 6.77L40.79 6.77Q40.79 6.26 40.41 6.00Q40.03 5.74 39.29 5.74L39.29 5.74L38.71 5.74L38.71 5.00L39.35 5.00Q39.99 5.00 40.32 4.79Q40.65 4.57 40.65 4.16L40.65 4.16Q40.65 3.77 40.31 3.56Q39.97 3.35 39.32 3.35L39.32 3.35Q39.05 3.35 38.70 3.41Q38.35 3.47 37.80 3.63L37.80 3.63L37.80 2.84Q38.29 2.73 38.73 2.67Q39.17 2.60 39.55 2.60L39.55 2.60Q40.53 2.60 41.11 3.01Q41.69 3.41 41.69 4.09L41.69 4.09Q41.69 4.56 41.38 4.89Q41.07 5.22 40.51 5.34ZM45.80 6.41L45.80 3.55L43.69 6.41L45.80 6.41ZM42.97 6.33L45.65 2.72L46.79 2.72L46.79 6.41L47.71 6.41L47.71 7.16L46.79 7.16L46.79 8.43L45.80 8.43L45.80 7.16L42.97 7.16L42.97 6.33Z"></path></svg>