<svg height="16.296875" width="49.3896484375" xmlns="http://www.w3.org/2000/svg" ><path d="M1.30 3.17L2.56 3.17L2.56 5.34L5.15 5.34L5.15 6.32L2.56 6.32L2.56 10.47Q2.56 11.41 2.82 11.68Q3.08 11.94 3.86 11.94L3.86 11.94L5.15 11.94L5.15 13.00L3.86 13.00Q2.41 13.00 1.85 12.45Q1.30 11.91 1.30 10.47L1.30 10.47L1.30 6.32L0.38 6.32L0.38 5.34L1.30 5.34L1.30 3.17ZM12.32 5.63L12.32 5.63L12.32 6.81Q11.79 6.51 11.25 6.37Q10.71 6.22 10.17 6.22L10.17 6.22Q8.94 6.22 8.26 7.00Q7.59 7.77 7.59 9.17L7.59 9.17Q7.59 10.58 8.26 11.35L8.26 11.35Q8.31 11.41 8.35 11.45L8.35 11.45Q8.62 10.90 9.04 10.60L9.04 10.60Q9.54 10.25 10.27 10.25L10.27 10.25Q11.38 10.25 11.89 10.74L11.89 10.74Q12.32 11.16 12.32 11.76L12.32 11.76Q12.32 12.62 11.67 12.94L11.67 12.94Q11.10 13.22 10.04 13.22L10.04 13.22Q9.50 13.22 9.00 13.10L9.00 13.10Q8.96 13.49 8.96 13.96L8.96 13.96L7.91 13.96Q7.91 13.25 7.99 12.69L7.99 12.69Q7.60 12.46 7.28 12.11L7.28 12.11Q6.26 11.01 6.26 9.17L6.26 9.17Q6.26 7.30 7.29 6.23Q8.32 5.15 10.11 5.15L10.11 5.15Q10.69 5.15 11.25 5.27Q11.80 5.39 12.32 5.63ZM9.24 12.00L9.24 12.00Q9.64 12.13 10.17 12.13L10.17 12.13Q11.16 12.13 11.16 11.74L11.16 11.74Q11.16 11.22 10.26 11.22L10.26 11.22Q9.57 11.22 9.24 12.00ZM18.03 5.84L18.03 5.84L18.03 8.43L17.23 8.43L17.23 5.87Q17.23 5.26 16.97 4.95Q16.70 4.65 16.17 4.65L16.17 4.65Q15.52 4.65 15.16 5.01Q14.79 5.38 14.79 6.01L14.79 6.01L14.79 8.43L13.99 8.43L13.99 2.47L14.79 2.47L14.79 4.81Q15.07 4.42 15.45 4.23Q15.84 4.04 16.34 4.04L16.34 4.04Q17.17 4.04 17.60 4.50Q18.03 4.96 18.03 5.84ZM20.17 13.00L20.17 5.34L21.42 5.34L21.42 13.00L20.17 13.00ZM20.17 3.95L20.17 2.36L21.42 2.36L21.42 3.95L20.17 3.95ZM27.73 5.34L30.60 13.00L29.27 13.00L28.57 11.12L25.18 11.12L24.49 13.00L23.15 13.00L26.02 5.34L27.73 5.34ZM26.88 6.57L25.57 10.10L28.19 10.10L26.88 6.57ZM33.35 13.00L33.35 7.54L33.78 7.54Q35.09 7.54 35.68 6.76L35.68 6.76Q36.07 6.24 36.07 5.57L36.07 5.57Q36.07 4.66 35.68 4.22L35.68 4.22Q35 3.44 33.78 3.44L33.78 3.44Q33.23 3.44 32.69 3.59L32.69 3.59Q32.16 3.73 31.62 4.03L31.62 4.03L31.62 2.85Q32.14 2.61 32.70 2.50L32.70 2.50Q33.25 2.37 33.83 2.37L33.83 2.37Q35.71 2.37 36.65 3.45L36.65 3.45Q37.40 4.30 37.40 5.57L37.40 5.57Q37.40 6.73 36.66 7.52L36.66 7.52Q35.90 8.33 34.73 8.54L34.73 8.54L34.73 13.00L33.35 13.00ZM39.14 5.58L39.14 2.72L42.62 2.72L42.62 3.37L39.95 3.37L39.95 4.76Q40.14 4.70 40.34 4.68L40.34 4.68Q40.53 4.65 40.72 4.65L40.72 4.65Q41.82 4.65 42.46 5.17L42.46 5.17Q43.11 5.69 43.11 6.59L43.11 6.59Q43.11 7.51 42.44 8.03L42.44 8.03Q41.79 8.53 40.58 8.53L40.58 8.53Q40.17 8.53 39.74 8.47Q39.31 8.41 38.86 8.29L38.86 8.29L38.86 7.51Q39.25 7.70 39.68 7.79L39.68 7.79Q40.10 7.88 40.57 7.88L40.57 7.88Q41.33 7.88 41.77 7.53Q42.22 7.18 42.22 6.59Q42.22 6.00 41.77 5.65Q41.33 5.30 40.57 5.30L40.57 5.30Q40.22 5.30 39.86 5.37Q39.50 5.43 39.14 5.58L39.14 5.58ZM44.75 5.58L44.75 2.72L48.23 2.72L48.23 3.37L45.56 3.37L45.56 4.76Q45.75 4.70 45.95 4.68L45.95 4.68Q46.14 4.65 46.33 4.65L46.33 4.65Q47.43 4.65 48.08 5.17L48.08 5.17Q48.72 5.69 48.72 6.59L48.72 6.59Q48.72 7.51 48.06 8.03L48.06 8.03Q47.40 8.53 46.20 8.53L46.20 8.53Q45.79 8.53 45.36 8.47Q44.93 8.41 44.47 8.29L44.47 8.29L44.47 7.51Q44.86 7.70 45.29 7.79L45.29 7.79Q45.71 7.88 46.18 7.88L46.18 7.88Q46.94 7.88 47.39 7.53Q47.83 7.18 47.83 6.59Q47.83 6.00 47.39 5.65Q46.94 5.30 46.18 5.30L46.18 5.30Q45.83 5.30 45.47 5.37Q45.12 5.43 44.75 5.58L44.75 5.58Z"></path></svg>