<svg height="16.296875" width="47.263671875" xmlns="http://www.w3.org/2000/svg" ><path d="M1.30 3.17L2.56 3.17L2.56 5.34L5.15 5.34L5.15 6.32L2.56 6.32L2.56 10.47Q2.56 11.41 2.82 11.68Q3.08 11.94 3.86 11.94L3.86 11.94L5.15 11.94L5.15 13.00L3.86 13.00Q2.41 13.00 1.85 12.45Q1.30 11.91 1.30 10.47L1.30 10.47L1.30 6.32L0.38 6.32L0.38 5.34L1.30 5.34L1.30 3.17ZM12.32 5.63L12.32 5.63L12.32 6.81Q11.79 6.51 11.25 6.37Q10.71 6.22 10.17 6.22L10.17 6.22Q8.94 6.22 8.26 7.00Q7.59 7.77 7.59 9.17L7.59 9.17Q7.59 10.58 8.26 11.35L8.26 11.35Q8.31 11.41 8.35 11.45L8.35 11.45Q8.62 10.90 9.04 10.60L9.04 10.60Q9.54 10.25 10.27 10.25L10.27 10.25Q11.38 10.25 11.89 10.74L11.89 10.74Q12.32 11.16 12.32 11.76L12.32 11.76Q12.32 12.62 11.67 12.94L11.67 12.94Q11.10 13.22 10.04 13.22L10.04 13.22Q9.50 13.22 9.00 13.10L9.00 13.10Q8.96 13.49 8.96 13.96L8.96 13.96L7.91 13.96Q7.91 13.25 7.99 12.69L7.99 12.69Q7.60 12.46 7.28 12.11L7.28 12.11Q6.26 11.01 6.26 9.17L6.26 9.17Q6.26 7.30 7.29 6.23Q8.32 5.15 10.11 5.15L10.11 5.15Q10.69 5.15 11.25 5.27Q11.80 5.39 12.32 5.63ZM9.24 12.00L9.24 12.00Q9.64 12.13 10.17 12.13L10.17 12.13Q11.16 12.13 11.16 11.74L11.16 11.74Q11.16 11.22 10.26 11.22L10.26 11.22Q9.57 11.22 9.24 12.00ZM18.03 5.84L18.03 5.84L18.03 8.43L17.23 8.43L17.23 5.87Q17.23 5.26 16.97 4.95Q16.70 4.65 16.17 4.65L16.17 4.65Q15.52 4.65 15.16 5.01Q14.79 5.38 14.79 6.01L14.79 6.01L14.79 8.43L13.99 8.43L13.99 2.47L14.79 2.47L14.79 4.81Q15.07 4.42 15.45 4.23Q15.84 4.04 16.34 4.04L16.34 4.04Q17.17 4.04 17.60 4.50Q18.03 4.96 18.03 5.84ZM20.17 13.00L20.17 5.34L21.42 5.34L21.42 13.00L20.17 13.00ZM20.17 3.95L20.17 2.36L21.42 2.36L21.42 3.95L20.17 3.95ZM23.60 6.81L23.60 5.65Q24.13 5.40 24.69 5.28Q25.26 5.15 25.89 5.15L25.89 5.15Q27.62 5.15 28.64 6.24Q29.66 7.33 29.66 9.17L29.66 9.17Q29.66 11.05 28.63 12.12Q27.60 13.19 25.81 13.19L25.81 13.19Q25.23 13.19 24.68 13.07Q24.12 12.95 23.60 12.71L23.60 12.71L23.60 11.54Q24.14 11.83 24.67 11.98Q25.21 12.13 25.76 12.13L25.76 12.13Q26.98 12.13 27.66 11.35Q28.33 10.58 28.33 9.17L28.33 9.17Q28.33 7.77 27.66 7.00Q26.98 6.22 25.76 6.22L25.76 6.22Q25.21 6.22 24.67 6.37Q24.14 6.51 23.60 6.81L23.60 6.81ZM34.01 5.34L34.01 5.34Q34.64 5.46 34.98 5.83Q35.33 6.21 35.33 6.77L35.33 6.77Q35.33 7.62 34.68 8.07Q34.03 8.53 32.82 8.53L32.82 8.53Q32.43 8.53 32.00 8.46Q31.58 8.39 31.10 8.25L31.10 8.25L31.10 7.42Q31.45 7.61 31.86 7.70Q32.27 7.79 32.72 7.79L32.72 7.79Q33.47 7.79 33.88 7.52Q34.29 7.25 34.29 6.77L34.29 6.77Q34.29 6.26 33.91 6.00Q33.53 5.74 32.79 5.74L32.79 5.74L32.20 5.74L32.20 5.00L32.85 5.00Q33.49 5.00 33.82 4.79Q34.15 4.57 34.15 4.16L34.15 4.16Q34.15 3.77 33.81 3.56Q33.47 3.35 32.82 3.35L32.82 3.35Q32.55 3.35 32.20 3.41Q31.85 3.47 31.29 3.63L31.29 3.63L31.29 2.84Q31.79 2.73 32.23 2.67Q32.67 2.60 33.04 2.60L33.04 2.60Q34.03 2.60 34.61 3.01Q35.18 3.41 35.18 4.09L35.18 4.09Q35.18 4.56 34.88 4.89Q34.57 5.22 34.01 5.34ZM39.62 5.34L39.62 5.34Q40.25 5.46 40.60 5.83Q40.94 6.21 40.94 6.77L40.94 6.77Q40.94 7.62 40.29 8.07Q39.64 8.53 38.43 8.53L38.43 8.53Q38.04 8.53 37.61 8.46Q37.19 8.39 36.71 8.25L36.71 8.25L36.71 7.42Q37.06 7.61 37.47 7.70Q37.88 7.79 38.34 7.79L38.34 7.79Q39.08 7.79 39.49 7.52Q39.90 7.25 39.90 6.77L39.90 6.77Q39.90 6.26 39.52 6.00Q39.14 5.74 38.40 5.74L38.40 5.74L37.82 5.74L37.82 5.00L38.46 5.00Q39.10 5.00 39.43 4.79Q39.76 4.57 39.76 4.16L39.76 4.16Q39.76 3.77 39.42 3.56Q39.08 3.35 38.43 3.35L38.43 3.35Q38.16 3.35 37.81 3.41Q37.46 3.47 36.91 3.63L36.91 3.63L36.91 2.84Q37.41 2.73 37.84 2.67Q38.28 2.60 38.66 2.60L38.66 2.60Q39.64 2.60 40.22 3.01Q40.80 3.41 40.80 4.09L40.80 4.09Q40.80 4.56 40.49 4.89Q40.18 5.22 39.62 5.34ZM44.91 6.41L44.91 3.55L42.80 6.41L44.91 6.41ZM42.08 6.33L44.76 2.72L45.90 2.72L45.90 6.41L46.82 6.41L46.82 7.16L45.90 7.16L45.90 8.43L44.91 8.43L44.91 7.16L42.08 7.16L42.08 6.33Z"></path></svg>