<svg height="16.296875" width="47.8583984375" xmlns="http://www.w3.org/2000/svg" ><path d="M1.30 3.17L2.56 3.17L2.56 5.34L5.15 5.34L5.15 6.32L2.56 6.32L2.56 10.47Q2.56 11.41 2.82 11.68Q3.08 11.94 3.86 11.94L3.86 11.94L5.15 11.94L5.15 13.00L3.86 13.00Q2.41 13.00 1.85 12.45Q1.30 11.91 1.30 10.47L1.30 10.47L1.30 6.32L0.38 6.32L0.38 5.34L1.30 5.34L1.30 3.17ZM12.32 5.63L12.32 5.63L12.32 6.81Q11.79 6.51 11.25 6.37Q10.71 6.22 10.17 6.22L10.17 6.22Q8.94 6.22 8.26 7.00Q7.59 7.77 7.59 9.17L7.59 9.17Q7.59 10.58 8.26 11.35L8.26 11.35Q8.31 11.41 8.35 11.45L8.35 11.45Q8.62 10.90 9.04 10.60L9.04 10.60Q9.54 10.25 10.27 10.25L10.27 10.25Q11.38 10.25 11.89 10.74L11.89 10.74Q12.32 11.16 12.32 11.76L12.32 11.76Q12.32 12.62 11.67 12.94L11.67 12.94Q11.10 13.22 10.04 13.22L10.04 13.22Q9.50 13.22 9.00 13.10L9.00 13.10Q8.96 13.49 8.96 13.96L8.96 13.96L7.91 13.96Q7.91 13.25 7.99 12.69L7.99 12.69Q7.60 12.46 7.28 12.11L7.28 12.11Q6.26 11.01 6.26 9.17L6.26 9.17Q6.26 7.30 7.29 6.23Q8.32 5.15 10.11 5.15L10.11 5.15Q10.69 5.15 11.25 5.27Q11.80 5.39 12.32 5.63ZM9.24 12.00L9.24 12.00Q9.64 12.13 10.17 12.13L10.17 12.13Q11.16 12.13 11.16 11.74L11.16 11.74Q11.16 11.22 10.26 11.22L10.26 11.22Q9.57 11.22 9.24 12.00ZM18.03 5.84L18.03 5.84L18.03 8.43L17.23 8.43L17.23 5.87Q17.23 5.26 16.97 4.95Q16.70 4.65 16.17 4.65L16.17 4.65Q15.52 4.65 15.16 5.01Q14.79 5.38 14.79 6.01L14.79 6.01L14.79 8.43L13.99 8.43L13.99 2.47L14.79 2.47L14.79 4.81Q15.07 4.42 15.45 4.23Q15.84 4.04 16.34 4.04L16.34 4.04Q17.17 4.04 17.60 4.50Q18.03 4.96 18.03 5.84ZM20.17 13.00L20.17 5.34L21.42 5.34L21.42 13.00L20.17 13.00ZM20.17 3.95L20.17 2.36L21.42 2.36L21.42 3.95L20.17 3.95ZM27.73 5.34L30.60 13.00L29.27 13.00L28.57 11.12L25.18 11.12L24.49 13.00L23.15 13.00L26.02 5.34L27.73 5.34ZM26.88 6.57L25.57 10.10L28.19 10.10L26.88 6.57ZM34.60 5.34L34.60 5.34Q35.23 5.46 35.58 5.83Q35.92 6.21 35.92 6.77L35.92 6.77Q35.92 7.62 35.27 8.07Q34.62 8.53 33.41 8.53L33.41 8.53Q33.02 8.53 32.60 8.46Q32.17 8.39 31.69 8.25L31.69 8.25L31.69 7.42Q32.05 7.61 32.45 7.70Q32.86 7.79 33.32 7.79L33.32 7.79Q34.06 7.79 34.47 7.52Q34.88 7.25 34.88 6.77L34.88 6.77Q34.88 6.26 34.50 6.00Q34.13 5.74 33.39 5.74L33.39 5.74L32.80 5.74L32.80 5.00L33.44 5.00Q34.08 5.00 34.42 4.79Q34.75 4.57 34.75 4.16L34.75 4.16Q34.75 3.77 34.41 3.56Q34.06 3.35 33.41 3.35L33.41 3.35Q33.14 3.35 32.79 3.41Q32.44 3.47 31.89 3.63L31.89 3.63L31.89 2.84Q32.39 2.73 32.83 2.67Q33.26 2.60 33.64 2.60L33.64 2.60Q34.62 2.60 35.20 3.01Q35.78 3.41 35.78 4.09L35.78 4.09Q35.78 4.56 35.47 4.89Q35.16 5.22 34.60 5.34ZM40.22 5.34L40.22 5.34Q40.84 5.46 41.19 5.83Q41.54 6.21 41.54 6.77L41.54 6.77Q41.54 7.62 40.89 8.07Q40.24 8.53 39.03 8.53L39.03 8.53Q38.64 8.53 38.21 8.46Q37.78 8.39 37.30 8.25L37.30 8.25L37.30 7.42Q37.66 7.61 38.07 7.70Q38.47 7.79 38.93 7.79L38.93 7.79Q39.68 7.79 40.09 7.52Q40.50 7.25 40.50 6.77L40.50 6.77Q40.50 6.26 40.12 6.00Q39.74 5.74 39.00 5.74L39.00 5.74L38.41 5.74L38.41 5.00L39.05 5.00Q39.70 5.00 40.03 4.79Q40.36 4.57 40.36 4.16L40.36 4.16Q40.36 3.77 40.02 3.56Q39.68 3.35 39.03 3.35L39.03 3.35Q38.75 3.35 38.40 3.41Q38.06 3.47 37.50 3.63L37.50 3.63L37.50 2.84Q38.00 2.73 38.44 2.67Q38.88 2.60 39.25 2.60L39.25 2.60Q40.24 2.60 40.81 3.01Q41.39 3.41 41.39 4.09L41.39 4.09Q41.39 4.56 41.08 4.89Q40.78 5.22 40.22 5.34ZM45.51 6.41L45.51 3.55L43.39 6.41L45.51 6.41ZM42.68 6.33L45.36 2.72L46.49 2.72L46.49 6.41L47.41 6.41L47.41 7.16L46.49 7.16L46.49 8.43L45.51 8.43L45.51 7.16L42.68 7.16L42.68 6.33Z"></path></svg>