<svg height="16.296875" width="42.30078125" xmlns="http://www.w3.org/2000/svg" ><path d="M1.30 3.17L2.56 3.17L2.56 5.34L5.15 5.34L5.15 6.32L2.56 6.32L2.56 10.47Q2.56 11.41 2.82 11.68Q3.08 11.94 3.86 11.94L3.86 11.94L5.15 11.94L5.15 13.00L3.86 13.00Q2.41 13.00 1.85 12.45Q1.30 11.91 1.30 10.47L1.30 10.47L1.30 6.32L0.38 6.32L0.38 5.34L1.30 5.34L1.30 3.17ZM12.32 5.63L12.32 5.63L12.32 6.81Q11.79 6.51 11.25 6.37Q10.71 6.22 10.17 6.22L10.17 6.22Q8.94 6.22 8.26 7.00Q7.59 7.77 7.59 9.17L7.59 9.17Q7.59 10.58 8.26 11.35L8.26 11.35Q8.31 11.41 8.35 11.45L8.35 11.45Q8.62 10.90 9.04 10.60L9.04 10.60Q9.54 10.25 10.27 10.25L10.27 10.25Q11.38 10.25 11.89 10.74L11.89 10.74Q12.32 11.16 12.32 11.76L12.32 11.76Q12.32 12.62 11.67 12.94L11.67 12.94Q11.10 13.22 10.04 13.22L10.04 13.22Q9.50 13.22 9.00 13.10L9.00 13.10Q8.96 13.49 8.96 13.96L8.96 13.96L7.91 13.96Q7.91 13.25 7.99 12.69L7.99 12.69Q7.60 12.46 7.28 12.11L7.28 12.11Q6.26 11.01 6.26 9.17L6.26 9.17Q6.26 7.30 7.29 6.23Q8.32 5.15 10.11 5.15L10.11 5.15Q10.69 5.15 11.25 5.27Q11.80 5.39 12.32 5.63ZM9.24 12.00L9.24 12.00Q9.64 12.13 10.17 12.13L10.17 12.13Q11.16 12.13 11.16 11.74L11.16 11.74Q11.16 11.22 10.26 11.22L10.26 11.22Q9.57 11.22 9.24 12.00ZM18.03 5.84L18.03 5.84L18.03 8.43L17.23 8.43L17.23 5.87Q17.23 5.26 16.97 4.95Q16.70 4.65 16.17 4.65L16.17 4.65Q15.52 4.65 15.16 5.01Q14.79 5.38 14.79 6.01L14.79 6.01L14.79 8.43L13.99 8.43L13.99 2.47L14.79 2.47L14.79 4.81Q15.07 4.42 15.45 4.23Q15.84 4.04 16.34 4.04L16.34 4.04Q17.17 4.04 17.60 4.50Q18.03 4.96 18.03 5.84ZM20.17 13.00L20.17 5.34L21.42 5.34L21.42 13.00L20.17 13.00ZM20.17 3.95L20.17 2.36L21.42 2.36L21.42 3.95L20.17 3.95ZM24.88 5.34L26.91 8.07L28.94 5.34L30.42 5.34L27.70 8.99Q28.18 9.66 28.49 10.18L28.49 10.18Q28.96 11.00 28.96 11.42L28.96 11.42Q28.96 12.31 28.44 12.75Q27.93 13.19 26.91 13.19L26.91 13.19Q25.88 13.19 25.37 12.75Q24.86 12.31 24.86 11.42L24.86 11.42Q24.86 11.00 25.33 10.18L25.33 10.18Q25.63 9.66 26.11 8.99L26.11 8.99L23.39 5.34L24.88 5.34ZM26.91 12.13L26.91 12.13Q27.36 12.13 27.58 11.94L27.58 11.94Q27.77 11.78 27.77 11.47L27.77 11.47Q27.77 11.25 27.50 10.81L27.50 10.81Q27.29 10.47 26.91 9.99L26.91 9.99Q26.52 10.47 26.31 10.81L26.31 10.81Q26.04 11.25 26.04 11.47L26.04 11.47Q26.04 11.78 26.24 11.94L26.24 11.94Q26.45 12.13 26.91 12.13ZM32.05 5.58L32.05 2.72L35.53 2.72L35.53 3.37L32.86 3.37L32.86 4.76Q33.05 4.70 33.25 4.68L33.25 4.68Q33.44 4.65 33.63 4.65L33.63 4.65Q34.73 4.65 35.38 5.17L35.38 5.17Q36.02 5.69 36.02 6.59L36.02 6.59Q36.02 7.51 35.36 8.03L35.36 8.03Q34.70 8.53 33.50 8.53L33.50 8.53Q33.09 8.53 32.66 8.47Q32.22 8.41 31.77 8.29L31.77 8.29L31.77 7.51Q32.16 7.70 32.59 7.79L32.59 7.79Q33.01 7.88 33.48 7.88L33.48 7.88Q34.24 7.88 34.69 7.53Q35.13 7.18 35.13 6.59Q35.13 6.00 34.69 5.65Q34.24 5.30 33.48 5.30L33.48 5.30Q33.13 5.30 32.77 5.37Q32.42 5.43 32.05 5.58L32.05 5.58ZM40.27 5.34L40.27 5.34Q40.90 5.46 41.24 5.83Q41.59 6.21 41.59 6.77L41.59 6.77Q41.59 7.62 40.94 8.07Q40.29 8.53 39.08 8.53L39.08 8.53Q38.69 8.53 38.26 8.46Q37.84 8.39 37.36 8.25L37.36 8.25L37.36 7.42Q37.71 7.61 38.12 7.70Q38.53 7.79 38.99 7.79L38.99 7.79Q39.73 7.79 40.14 7.52Q40.55 7.25 40.55 6.77L40.55 6.77Q40.55 6.26 40.17 6.00Q39.79 5.74 39.05 5.74L39.05 5.74L38.47 5.74L38.47 5.00L39.11 5.00Q39.75 5.00 40.08 4.79Q40.41 4.57 40.41 4.16L40.41 4.16Q40.41 3.77 40.07 3.56Q39.73 3.35 39.08 3.35L39.08 3.35Q38.81 3.35 38.46 3.41Q38.11 3.47 37.56 3.63L37.56 3.63L37.56 2.84Q38.06 2.73 38.49 2.67Q38.93 2.60 39.31 2.60L39.31 2.60Q40.29 2.60 40.87 3.01Q41.45 3.41 41.45 4.09L41.45 4.09Q41.45 4.56 41.14 4.89Q40.83 5.22 40.27 5.34Z"></path></svg>