<svg height="16.296875" width="42.833984375" xmlns="http://www.w3.org/2000/svg" ><path d="M1.30 3.17L2.56 3.17L2.56 5.34L5.15 5.34L5.15 6.32L2.56 6.32L2.56 10.47Q2.56 11.41 2.82 11.68Q3.08 11.94 3.86 11.94L3.86 11.94L5.15 11.94L5.15 13.00L3.86 13.00Q2.41 13.00 1.85 12.45Q1.30 11.91 1.30 10.47L1.30 10.47L1.30 6.32L0.38 6.32L0.38 5.34L1.30 5.34L1.30 3.17ZM12.32 5.63L12.32 5.63L12.32 6.81Q11.79 6.51 11.25 6.37Q10.71 6.22 10.17 6.22L10.17 6.22Q8.94 6.22 8.26 7.00Q7.59 7.77 7.59 9.17L7.59 9.17Q7.59 10.58 8.26 11.35L8.26 11.35Q8.31 11.41 8.35 11.45L8.35 11.45Q8.62 10.90 9.04 10.60L9.04 10.60Q9.54 10.25 10.27 10.25L10.27 10.25Q11.38 10.25 11.89 10.74L11.89 10.74Q12.32 11.16 12.32 11.76L12.32 11.76Q12.32 12.62 11.67 12.94L11.67 12.94Q11.10 13.22 10.04 13.22L10.04 13.22Q9.50 13.22 9.00 13.10L9.00 13.10Q8.96 13.49 8.96 13.96L8.96 13.96L7.91 13.96Q7.91 13.25 7.99 12.69L7.99 12.69Q7.60 12.46 7.28 12.11L7.28 12.11Q6.26 11.01 6.26 9.17L6.26 9.17Q6.26 7.30 7.29 6.23Q8.32 5.15 10.11 5.15L10.11 5.15Q10.69 5.15 11.25 5.27Q11.80 5.39 12.32 5.63ZM9.24 12.00L9.24 12.00Q9.64 12.13 10.17 12.13L10.17 12.13Q11.16 12.13 11.16 11.74L11.16 11.74Q11.16 11.22 10.26 11.22L10.26 11.22Q9.57 11.22 9.24 12.00ZM18.03 5.84L18.03 5.84L18.03 8.43L17.23 8.43L17.23 5.87Q17.23 5.26 16.97 4.95Q16.70 4.65 16.17 4.65L16.17 4.65Q15.52 4.65 15.16 5.01Q14.79 5.38 14.79 6.01L14.79 6.01L14.79 8.43L13.99 8.43L13.99 2.47L14.79 2.47L14.79 4.81Q15.07 4.42 15.45 4.23Q15.84 4.04 16.34 4.04L16.34 4.04Q17.17 4.04 17.60 4.50Q18.03 4.96 18.03 5.84ZM20.17 13.00L20.17 5.34L21.42 5.34L21.42 13.00L20.17 13.00ZM20.17 3.95L20.17 2.36L21.42 2.36L21.42 3.95L20.17 3.95ZM30.42 8.37L30.42 8.37L30.42 13.00L29.16 13.00L29.16 8.42Q29.16 7.33 28.74 6.79Q28.31 6.25 27.47 6.25L27.47 6.25Q26.45 6.25 25.86 6.90Q25.27 7.55 25.27 8.67L25.27 8.67L25.27 13.00L24.01 13.00L24.01 5.34L25.27 5.34L25.27 6.53Q25.72 5.84 26.34 5.50Q26.95 5.15 27.75 5.15L27.75 5.15Q29.07 5.15 29.74 5.97Q30.42 6.79 30.42 8.37ZM32.58 5.58L32.58 2.72L36.07 2.72L36.07 3.37L33.39 3.37L33.39 4.76Q33.58 4.70 33.78 4.68L33.78 4.68Q33.97 4.65 34.17 4.65L34.17 4.65Q35.27 4.65 35.91 5.17L35.91 5.17Q36.55 5.69 36.55 6.59L36.55 6.59Q36.55 7.51 35.89 8.03L35.89 8.03Q35.23 8.53 34.03 8.53L34.03 8.53Q33.62 8.53 33.19 8.47Q32.76 8.41 32.31 8.29L32.31 8.29L32.31 7.51Q32.70 7.70 33.12 7.79L33.12 7.79Q33.54 7.88 34.02 7.88L34.02 7.88Q34.77 7.88 35.22 7.53Q35.66 7.18 35.66 6.59Q35.66 6.00 35.22 5.65Q34.77 5.30 34.02 5.30L34.02 5.30Q33.66 5.30 33.30 5.37Q32.95 5.43 32.58 5.58L32.58 5.58ZM40.80 5.34L40.80 5.34Q41.43 5.46 41.78 5.83Q42.12 6.21 42.12 6.77L42.12 6.77Q42.12 7.62 41.47 8.07Q40.82 8.53 39.61 8.53L39.61 8.53Q39.22 8.53 38.80 8.46Q38.37 8.39 37.89 8.25L37.89 8.25L37.89 7.42Q38.25 7.61 38.65 7.70Q39.06 7.79 39.52 7.79L39.52 7.79Q40.26 7.79 40.67 7.52Q41.08 7.25 41.08 6.77L41.08 6.77Q41.08 6.26 40.70 6.00Q40.33 5.74 39.59 5.74L39.59 5.74L39.00 5.74L39.00 5.00L39.64 5.00Q40.28 5.00 40.62 4.79Q40.95 4.57 40.95 4.16L40.95 4.16Q40.95 3.77 40.61 3.56Q40.26 3.35 39.61 3.35L39.61 3.35Q39.34 3.35 38.99 3.41Q38.64 3.47 38.09 3.63L38.09 3.63L38.09 2.84Q38.59 2.73 39.03 2.67Q39.46 2.60 39.84 2.60L39.84 2.60Q40.82 2.60 41.40 3.01Q41.98 3.41 41.98 4.09L41.98 4.09Q41.98 4.56 41.67 4.89Q41.36 5.22 40.80 5.34Z"></path></svg>