<svg height="16.296875" width="49.669921875" xmlns="http://www.w3.org/2000/svg" ><path d="M1.30 3.17L2.56 3.17L2.56 5.34L5.15 5.34L5.15 6.32L2.56 6.32L2.56 10.47Q2.56 11.41 2.82 11.68Q3.08 11.94 3.86 11.94L3.86 11.94L5.15 11.94L5.15 13.00L3.86 13.00Q2.41 13.00 1.85 12.45Q1.30 11.91 1.30 10.47L1.30 10.47L1.30 6.32L0.38 6.32L0.38 5.34L1.30 5.34L1.30 3.17ZM12.32 5.63L12.32 5.63L12.32 6.81Q11.79 6.51 11.25 6.37Q10.71 6.22 10.17 6.22L10.17 6.22Q8.94 6.22 8.26 7.00Q7.59 7.77 7.59 9.17L7.59 9.17Q7.59 10.58 8.26 11.35L8.26 11.35Q8.31 11.41 8.35 11.45L8.35 11.45Q8.62 10.90 9.04 10.60L9.04 10.60Q9.54 10.25 10.27 10.25L10.27 10.25Q11.38 10.25 11.89 10.74L11.89 10.74Q12.32 11.16 12.32 11.76L12.32 11.76Q12.32 12.62 11.67 12.94L11.67 12.94Q11.10 13.22 10.04 13.22L10.04 13.22Q9.50 13.22 9.00 13.10L9.00 13.10Q8.96 13.49 8.96 13.96L8.96 13.96L7.91 13.96Q7.91 13.25 7.99 12.69L7.99 12.69Q7.60 12.46 7.28 12.11L7.28 12.11Q6.26 11.01 6.26 9.17L6.26 9.17Q6.26 7.30 7.29 6.23Q8.32 5.15 10.11 5.15L10.11 5.15Q10.69 5.15 11.25 5.27Q11.80 5.39 12.32 5.63ZM9.24 12.00L9.24 12.00Q9.64 12.13 10.17 12.13L10.17 12.13Q11.16 12.13 11.16 11.74L11.16 11.74Q11.16 11.22 10.26 11.22L10.26 11.22Q9.57 11.22 9.24 12.00ZM18.03 5.84L18.03 5.84L18.03 8.43L17.23 8.43L17.23 5.87Q17.23 5.26 16.97 4.95Q16.70 4.65 16.17 4.65L16.17 4.65Q15.52 4.65 15.16 5.01Q14.79 5.38 14.79 6.01L14.79 6.01L14.79 8.43L13.99 8.43L13.99 2.47L14.79 2.47L14.79 4.81Q15.07 4.42 15.45 4.23Q15.84 4.04 16.34 4.04L16.34 4.04Q17.17 4.04 17.60 4.50Q18.03 4.96 18.03 5.84ZM20.17 13.00L20.17 5.34L21.42 5.34L21.42 13.00L20.17 13.00ZM20.17 3.95L20.17 2.36L21.42 2.36L21.42 3.95L20.17 3.95ZM27.02 6.22L27.02 6.22Q26.01 6.22 25.42 7.01Q24.83 7.80 24.83 9.17L24.83 9.17Q24.83 10.55 25.42 11.34Q26.00 12.13 27.02 12.13L27.02 12.13Q28.03 12.13 28.62 11.33Q29.20 10.54 29.20 9.17L29.20 9.17Q29.20 7.81 28.62 7.02Q28.03 6.22 27.02 6.22ZM27.02 5.15L27.02 5.15Q28.66 5.15 29.60 6.22Q30.54 7.29 30.54 9.17L30.54 9.17Q30.54 11.05 29.60 12.12Q28.66 13.19 27.02 13.19L27.02 13.19Q25.38 13.19 24.44 12.12Q23.51 11.05 23.51 9.17L23.51 9.17Q23.51 7.29 24.44 6.22Q25.38 5.15 27.02 5.15ZM33.63 13.00L33.63 7.54L34.06 7.54Q35.37 7.54 35.96 6.76L35.96 6.76Q36.35 6.24 36.35 5.57L36.35 5.57Q36.35 4.66 35.96 4.22L35.96 4.22Q35.28 3.44 34.06 3.44L34.06 3.44Q33.51 3.44 32.97 3.59L32.97 3.59Q32.44 3.73 31.90 4.03L31.90 4.03L31.90 2.85Q32.42 2.61 32.98 2.50L32.98 2.50Q33.53 2.37 34.11 2.37L34.11 2.37Q35.99 2.37 36.93 3.45L36.93 3.45Q37.68 4.30 37.68 5.57L37.68 5.57Q37.68 6.73 36.94 7.52L36.94 7.52Q36.18 8.33 35.01 8.54L35.01 8.54L35.01 13.00L33.63 13.00ZM39.42 5.58L39.42 2.72L42.90 2.72L42.90 3.37L40.23 3.37L40.23 4.76Q40.42 4.70 40.62 4.68L40.62 4.68Q40.81 4.65 41.00 4.65L41.00 4.65Q42.10 4.65 42.75 5.17L42.75 5.17Q43.39 5.69 43.39 6.59L43.39 6.59Q43.39 7.51 42.72 8.03L42.72 8.03Q42.07 8.53 40.87 8.53L40.87 8.53Q40.46 8.53 40.02 8.47Q39.59 8.41 39.14 8.29L39.14 8.29L39.14 7.51Q39.53 7.70 39.96 7.79L39.96 7.79Q40.38 7.88 40.85 7.88L40.85 7.88Q41.61 7.88 42.05 7.53Q42.50 7.18 42.50 6.59Q42.50 6.00 42.05 5.65Q41.61 5.30 40.85 5.30L40.85 5.30Q40.50 5.30 40.14 5.37Q39.79 5.43 39.42 5.58L39.42 5.58ZM45.03 5.58L45.03 2.72L48.51 2.72L48.51 3.37L45.84 3.37L45.84 4.76Q46.03 4.70 46.23 4.68L46.23 4.68Q46.42 4.65 46.61 4.65L46.61 4.65Q47.71 4.65 48.36 5.17L48.36 5.17Q49 5.69 49 6.59L49 6.59Q49 7.51 48.34 8.03L48.34 8.03Q47.68 8.53 46.48 8.53L46.48 8.53Q46.07 8.53 45.64 8.47Q45.21 8.41 44.75 8.29L44.75 8.29L44.75 7.51Q45.14 7.70 45.57 7.79L45.57 7.79Q45.99 7.88 46.46 7.88L46.46 7.88Q47.22 7.88 47.67 7.53Q48.11 7.18 48.11 6.59Q48.11 6.00 47.67 5.65Q47.22 5.30 46.46 5.30L46.46 5.30Q46.11 5.30 45.75 5.37Q45.40 5.43 45.03 5.58L45.03 5.58Z"></path></svg>