<svg height="16.296875" width="52.5341796875" xmlns="http://www.w3.org/2000/svg" ><path d="M1.30 3.17L2.56 3.17L2.56 5.34L5.15 5.34L5.15 6.32L2.56 6.32L2.56 10.47Q2.56 11.41 2.82 11.68Q3.08 11.94 3.86 11.94L3.86 11.94L5.15 11.94L5.15 13.00L3.86 13.00Q2.41 13.00 1.85 12.45Q1.30 11.91 1.30 10.47L1.30 10.47L1.30 6.32L0.38 6.32L0.38 5.34L1.30 5.34L1.30 3.17ZM12.32 5.63L12.32 5.63L12.32 6.81Q11.79 6.51 11.25 6.37Q10.71 6.22 10.17 6.22L10.17 6.22Q8.94 6.22 8.26 7.00Q7.59 7.77 7.59 9.17L7.59 9.17Q7.59 10.58 8.26 11.35L8.26 11.35Q8.31 11.41 8.35 11.45L8.35 11.45Q8.62 10.90 9.04 10.60L9.04 10.60Q9.54 10.25 10.27 10.25L10.27 10.25Q11.38 10.25 11.89 10.74L11.89 10.74Q12.32 11.16 12.32 11.76L12.32 11.76Q12.32 12.62 11.67 12.94L11.67 12.94Q11.10 13.22 10.04 13.22L10.04 13.22Q9.50 13.22 9.00 13.10L9.00 13.10Q8.96 13.49 8.96 13.96L8.96 13.96L7.91 13.96Q7.91 13.25 7.99 12.69L7.99 12.69Q7.60 12.46 7.28 12.11L7.28 12.11Q6.26 11.01 6.26 9.17L6.26 9.17Q6.26 7.30 7.29 6.23Q8.32 5.15 10.11 5.15L10.11 5.15Q10.69 5.15 11.25 5.27Q11.80 5.39 12.32 5.63ZM9.24 12.00L9.24 12.00Q9.64 12.13 10.17 12.13L10.17 12.13Q11.16 12.13 11.16 11.74L11.16 11.74Q11.16 11.22 10.26 11.22L10.26 11.22Q9.57 11.22 9.24 12.00ZM18.03 5.84L18.03 5.84L18.03 8.43L17.23 8.43L17.23 5.87Q17.23 5.26 16.97 4.95Q16.70 4.65 16.17 4.65L16.17 4.65Q15.52 4.65 15.16 5.01Q14.79 5.38 14.79 6.01L14.79 6.01L14.79 8.43L13.99 8.43L13.99 2.47L14.79 2.47L14.79 4.81Q15.07 4.42 15.45 4.23Q15.84 4.04 16.34 4.04L16.34 4.04Q17.17 4.04 17.60 4.50Q18.03 4.96 18.03 5.84ZM26.71 5.34L23.35 13.71Q22.82 15.07 22.31 15.49Q21.81 15.91 20.96 15.91L20.96 15.91L19.95 15.91L19.95 14.85L20.69 14.85Q21.21 14.85 21.50 14.61Q21.79 14.36 22.13 13.45L22.13 13.45L22.36 12.87L19.26 5.34L20.60 5.34L22.99 11.33L25.38 5.34L26.71 5.34ZM33.32 7.52L33.32 7.52L29.99 11.57Q30.27 11.85 30.62 11.99Q30.97 12.13 31.42 12.13L31.42 12.13Q32.42 12.13 33.01 11.33Q33.60 10.54 33.60 9.17L33.60 9.17Q33.60 8.63 33.53 8.23Q33.46 7.83 33.32 7.52ZM29.50 10.83L32.83 6.78Q32.55 6.50 32.19 6.36Q31.84 6.22 31.42 6.22L31.42 6.22Q30.39 6.22 29.81 7.02Q29.23 7.83 29.23 9.27L29.23 9.27Q29.23 9.76 29.30 10.14Q29.36 10.51 29.50 10.83L29.50 10.83ZM27.62 13.10L28.64 11.86Q28.27 11.33 28.09 10.66Q27.90 9.99 27.90 9.17L27.90 9.17Q27.90 7.29 28.84 6.22Q29.77 5.15 31.42 5.15L31.42 5.15Q32.05 5.15 32.60 5.33Q33.14 5.50 33.60 5.86L33.60 5.86L34.55 4.71L35.20 5.25L34.20 6.47Q34.56 7 34.75 7.68Q34.93 8.35 34.93 9.17L34.93 9.17Q34.93 11.05 34.00 12.12Q33.06 13.19 31.42 13.19L31.42 13.19Q30.76 13.19 30.21 13.02Q29.66 12.84 29.23 12.49L29.23 12.49L28.28 13.64L27.62 13.10ZM39.28 5.34L39.28 5.34Q39.91 5.46 40.25 5.83Q40.60 6.21 40.60 6.77L40.60 6.77Q40.60 7.62 39.95 8.07Q39.30 8.53 38.09 8.53L38.09 8.53Q37.70 8.53 37.27 8.46Q36.85 8.39 36.37 8.25L36.37 8.25L36.37 7.42Q36.72 7.61 37.13 7.70Q37.54 7.79 37.99 7.79L37.99 7.79Q38.74 7.79 39.15 7.52Q39.56 7.25 39.56 6.77L39.56 6.77Q39.56 6.26 39.18 6.00Q38.80 5.74 38.06 5.74L38.06 5.74L37.47 5.74L37.47 5.00L38.12 5.00Q38.76 5.00 39.09 4.79Q39.42 4.57 39.42 4.16L39.42 4.16Q39.42 3.77 39.08 3.56Q38.74 3.35 38.09 3.35L38.09 3.35Q37.82 3.35 37.47 3.41Q37.12 3.47 36.57 3.63L36.57 3.63L36.57 2.84Q37.06 2.73 37.50 2.67Q37.94 2.60 38.32 2.60L38.32 2.60Q39.30 2.60 39.88 3.01Q40.46 3.41 40.46 4.09L40.46 4.09Q40.46 4.56 40.15 4.89Q39.84 5.22 39.28 5.34ZM44.89 5.34L44.89 5.34Q45.52 5.46 45.87 5.83Q46.21 6.21 46.21 6.77L46.21 6.77Q46.21 7.62 45.56 8.07Q44.91 8.53 43.70 8.53L43.70 8.53Q43.31 8.53 42.89 8.46Q42.46 8.39 41.98 8.25L41.98 8.25L41.98 7.42Q42.33 7.61 42.74 7.70Q43.15 7.79 43.61 7.79L43.61 7.79Q44.35 7.79 44.76 7.52Q45.17 7.25 45.17 6.77L45.17 6.77Q45.17 6.26 44.79 6.00Q44.41 5.74 43.67 5.74L43.67 5.74L43.09 5.74L43.09 5.00L43.73 5.00Q44.37 5.00 44.70 4.79Q45.04 4.57 45.04 4.16L45.04 4.16Q45.04 3.77 44.69 3.56Q44.35 3.35 43.70 3.35L43.70 3.35Q43.43 3.35 43.08 3.41Q42.73 3.47 42.18 3.63L42.18 3.63L42.18 2.84Q42.68 2.73 43.11 2.67Q43.55 2.60 43.93 2.60L43.93 2.60Q44.91 2.60 45.49 3.01Q46.07 3.41 46.07 4.09L46.07 4.09Q46.07 4.56 45.76 4.89Q45.45 5.22 44.89 5.34ZM50.18 6.41L50.18 3.55L48.07 6.41L50.18 6.41ZM47.35 6.33L50.03 2.72L51.17 2.72L51.17 6.41L52.09 6.41L52.09 7.16L51.17 7.16L51.17 8.43L50.18 8.43L50.18 7.16L47.35 7.16L47.35 6.33Z"></path></svg>