<svg height="16.296875" width="51.3994140625" xmlns="http://www.w3.org/2000/svg" ><path d="M1.30 3.17L2.56 3.17L2.56 5.34L5.15 5.34L5.15 6.32L2.56 6.32L2.56 10.47Q2.56 11.41 2.82 11.68Q3.08 11.94 3.86 11.94L3.86 11.94L5.15 11.94L5.15 13.00L3.86 13.00Q2.41 13.00 1.85 12.45Q1.30 11.91 1.30 10.47L1.30 10.47L1.30 6.32L0.38 6.32L0.38 5.34L1.30 5.34L1.30 3.17ZM12.32 5.63L12.32 5.63L12.32 6.81Q11.79 6.51 11.25 6.37Q10.71 6.22 10.17 6.22L10.17 6.22Q8.94 6.22 8.26 7.00Q7.59 7.77 7.59 9.17L7.59 9.17Q7.59 10.58 8.26 11.35L8.26 11.35Q8.31 11.41 8.35 11.45L8.35 11.45Q8.62 10.90 9.04 10.60L9.04 10.60Q9.54 10.25 10.27 10.25L10.27 10.25Q11.38 10.25 11.89 10.74L11.89 10.74Q12.32 11.16 12.32 11.76L12.32 11.76Q12.32 12.62 11.67 12.94L11.67 12.94Q11.10 13.22 10.04 13.22L10.04 13.22Q9.50 13.22 9.00 13.10L9.00 13.10Q8.96 13.49 8.96 13.96L8.96 13.96L7.91 13.96Q7.91 13.25 7.99 12.69L7.99 12.69Q7.60 12.46 7.28 12.11L7.28 12.11Q6.26 11.01 6.26 9.17L6.26 9.17Q6.26 7.30 7.29 6.23Q8.32 5.15 10.11 5.15L10.11 5.15Q10.69 5.15 11.25 5.27Q11.80 5.39 12.32 5.63ZM9.24 12.00L9.24 12.00Q9.64 12.13 10.17 12.13L10.17 12.13Q11.16 12.13 11.16 11.74L11.16 11.74Q11.16 11.22 10.26 11.22L10.26 11.22Q9.57 11.22 9.24 12.00ZM18.03 5.84L18.03 5.84L18.03 8.43L17.23 8.43L17.23 5.87Q17.23 5.26 16.97 4.95Q16.70 4.65 16.17 4.65L16.17 4.65Q15.52 4.65 15.16 5.01Q14.79 5.38 14.79 6.01L14.79 6.01L14.79 8.43L13.99 8.43L13.99 2.47L14.79 2.47L14.79 4.81Q15.07 4.42 15.45 4.23Q15.84 4.04 16.34 4.04L16.34 4.04Q17.17 4.04 17.60 4.50Q18.03 4.96 18.03 5.84ZM20.17 13.00L20.17 5.34L21.42 5.34L21.42 13.00L20.17 13.00ZM20.17 3.95L20.17 2.36L21.42 2.36L21.42 3.95L20.17 3.95ZM27.02 6.22L27.02 6.22Q26.01 6.22 25.42 7.01Q24.83 7.80 24.83 9.17L24.83 9.17Q24.83 10.55 25.42 11.34Q26.00 12.13 27.02 12.13L27.02 12.13Q28.03 12.13 28.62 11.33Q29.20 10.54 29.20 9.17L29.20 9.17Q29.20 7.81 28.62 7.02Q28.03 6.22 27.02 6.22ZM27.02 5.15L27.02 5.15Q28.66 5.15 29.60 6.22Q30.54 7.29 30.54 9.17L30.54 9.17Q30.54 11.05 29.60 12.12Q28.66 13.19 27.02 13.19L27.02 13.19Q25.38 13.19 24.44 12.12Q23.51 11.05 23.51 9.17L23.51 9.17Q23.51 7.29 24.44 6.22Q25.38 5.15 27.02 5.15ZM38.99 8.37L38.99 8.37L38.99 13.13Q38.99 14.59 38.42 15.25L38.42 15.25Q37.87 15.91 36.63 15.91L36.63 15.91L34.90 15.91L34.90 14.84L36.49 14.84Q37.21 14.84 37.47 14.51L37.47 14.51Q37.73 14.18 37.73 13.13L37.73 13.13L37.73 8.42Q37.73 7.33 37.30 6.79Q36.88 6.25 36.03 6.25L36.03 6.25Q35.01 6.25 34.43 6.90Q33.84 7.55 33.84 8.67L33.84 8.67L33.84 13.00L32.57 13.00L32.57 5.34L33.84 5.34L33.84 6.53Q34.29 5.84 34.90 5.50L34.90 5.50Q35.51 5.15 36.31 5.15L36.31 5.15Q37.63 5.15 38.31 5.97L38.31 5.97Q38.99 6.79 38.99 8.37ZM41.15 5.58L41.15 2.72L44.63 2.72L44.63 3.37L41.96 3.37L41.96 4.76Q42.15 4.70 42.35 4.68L42.35 4.68Q42.54 4.65 42.73 4.65L42.73 4.65Q43.83 4.65 44.47 5.17L44.47 5.17Q45.12 5.69 45.12 6.59L45.12 6.59Q45.12 7.51 44.45 8.03L44.45 8.03Q43.80 8.53 42.59 8.53L42.59 8.53Q42.18 8.53 41.75 8.47Q41.32 8.41 40.87 8.29L40.87 8.29L40.87 7.51Q41.26 7.70 41.69 7.79L41.69 7.79Q42.11 7.88 42.58 7.88L42.58 7.88Q43.34 7.88 43.78 7.53Q44.23 7.18 44.23 6.59Q44.23 6.00 43.78 5.65Q43.34 5.30 42.58 5.30L42.58 5.30Q42.23 5.30 41.87 5.37Q41.51 5.43 41.15 5.58L41.15 5.58ZM49.37 5.34L49.37 5.34Q50.00 5.46 50.34 5.83Q50.69 6.21 50.69 6.77L50.69 6.77Q50.69 7.62 50.04 8.07Q49.39 8.53 48.18 8.53L48.18 8.53Q47.79 8.53 47.36 8.46Q46.94 8.39 46.46 8.25L46.46 8.25L46.46 7.42Q46.81 7.61 47.22 7.70Q47.63 7.79 48.08 7.79L48.08 7.79Q48.83 7.79 49.24 7.52Q49.65 7.25 49.65 6.77L49.65 6.77Q49.65 6.26 49.27 6.00Q48.89 5.74 48.15 5.74L48.15 5.74L47.56 5.74L47.56 5.00L48.21 5.00Q48.85 5.00 49.18 4.79Q49.51 4.57 49.51 4.16L49.51 4.16Q49.51 3.77 49.17 3.56Q48.83 3.35 48.18 3.35L48.18 3.35Q47.91 3.35 47.56 3.41Q47.21 3.47 46.66 3.63L46.66 3.63L46.66 2.84Q47.15 2.73 47.59 2.67Q48.03 2.60 48.41 2.60L48.41 2.60Q49.39 2.60 49.97 3.01Q50.54 3.41 50.54 4.09L50.54 4.09Q50.54 4.56 50.24 4.89Q49.93 5.22 49.37 5.34Z"></path></svg>