<svg height="16.296875" width="46.306640625" xmlns="http://www.w3.org/2000/svg" ><path d="M1.30 3.17L2.56 3.17L2.56 5.34L5.15 5.34L5.15 6.32L2.56 6.32L2.56 10.47Q2.56 11.41 2.82 11.68Q3.08 11.94 3.86 11.94L3.86 11.94L5.15 11.94L5.15 13.00L3.86 13.00Q2.41 13.00 1.85 12.45Q1.30 11.91 1.30 10.47L1.30 10.47L1.30 6.32L0.38 6.32L0.38 5.34L1.30 5.34L1.30 3.17ZM12.32 5.63L12.32 5.63L12.32 6.81Q11.79 6.51 11.25 6.37Q10.71 6.22 10.17 6.22L10.17 6.22Q8.94 6.22 8.26 7.00Q7.59 7.77 7.59 9.17L7.59 9.17Q7.59 10.58 8.26 11.35L8.26 11.35Q8.31 11.41 8.35 11.45L8.35 11.45Q8.62 10.90 9.04 10.60L9.04 10.60Q9.54 10.25 10.27 10.25L10.27 10.25Q11.38 10.25 11.89 10.74L11.89 10.74Q12.32 11.16 12.32 11.76L12.32 11.76Q12.32 12.62 11.67 12.94L11.67 12.94Q11.10 13.22 10.04 13.22L10.04 13.22Q9.50 13.22 9.00 13.10L9.00 13.10Q8.96 13.49 8.96 13.96L8.96 13.96L7.91 13.96Q7.91 13.25 7.99 12.69L7.99 12.69Q7.60 12.46 7.28 12.11L7.28 12.11Q6.26 11.01 6.26 9.17L6.26 9.17Q6.26 7.30 7.29 6.23Q8.32 5.15 10.11 5.15L10.11 5.15Q10.69 5.15 11.25 5.27Q11.80 5.39 12.32 5.63ZM9.24 12.00L9.24 12.00Q9.64 12.13 10.17 12.13L10.17 12.13Q11.16 12.13 11.16 11.74L11.16 11.74Q11.16 11.22 10.26 11.22L10.26 11.22Q9.57 11.22 9.24 12.00ZM18.03 5.84L18.03 5.84L18.03 8.43L17.23 8.43L17.23 5.87Q17.23 5.26 16.97 4.95Q16.70 4.65 16.17 4.65L16.17 4.65Q15.52 4.65 15.16 5.01Q14.79 5.38 14.79 6.01L14.79 6.01L14.79 8.43L13.99 8.43L13.99 2.47L14.79 2.47L14.79 4.81Q15.07 4.42 15.45 4.23Q15.84 4.04 16.34 4.04L16.34 4.04Q17.17 4.04 17.60 4.50Q18.03 4.96 18.03 5.84ZM20.17 13.00L20.17 5.34L21.42 5.34L21.42 13.00L20.17 13.00ZM20.17 3.95L20.17 2.36L21.42 2.36L21.42 3.95L20.17 3.95ZM24.73 6.46L23.53 6.46L23.53 5.34L27.14 5.34L27.14 6.46L25.99 6.46L25.99 11.87L27.14 11.87L27.14 13.00L23.53 13.00L23.53 11.87L24.73 11.87L24.73 6.46ZM30.27 13.00L30.26 7.54L30.69 7.54Q32.01 7.54 32.59 6.76L32.59 6.76Q32.99 6.24 32.99 5.57L32.99 5.57Q32.98 4.66 32.59 4.22L32.59 4.22Q31.92 3.44 30.69 3.44L30.69 3.44Q30.15 3.44 29.61 3.59L29.61 3.59Q29.07 3.73 28.54 4.03L28.54 4.03L28.54 2.85Q29.06 2.61 29.61 2.50L29.61 2.50Q30.17 2.37 30.75 2.37L30.75 2.37Q32.63 2.37 33.57 3.45L33.57 3.45Q34.32 4.30 34.32 5.57L34.32 5.57Q34.32 6.73 33.58 7.52L33.58 7.52Q32.81 8.33 31.65 8.54L31.65 8.54L31.65 13.00L30.27 13.00ZM36.05 5.58L36.05 2.72L39.54 2.72L39.54 3.37L36.87 3.37L36.87 4.76Q37.06 4.70 37.26 4.68L37.26 4.68Q37.45 4.65 37.64 4.65L37.64 4.65Q38.74 4.65 39.38 5.17L39.38 5.17Q40.02 5.69 40.02 6.59L40.02 6.59Q40.02 7.51 39.36 8.03L39.36 8.03Q38.71 8.53 37.50 8.53L37.50 8.53Q37.09 8.53 36.66 8.47Q36.23 8.41 35.78 8.29L35.78 8.29L35.78 7.51Q36.17 7.70 36.59 7.79L36.59 7.79Q37.02 7.88 37.49 7.88L37.49 7.88Q38.25 7.88 38.69 7.53Q39.14 7.18 39.14 6.59Q39.14 6.00 38.69 5.65Q38.25 5.30 37.49 5.30L37.49 5.30Q37.13 5.30 36.78 5.37Q36.42 5.43 36.05 5.58L36.05 5.58ZM41.67 5.58L41.67 2.72L45.15 2.72L45.15 3.37L42.48 3.37L42.48 4.76Q42.67 4.70 42.87 4.68L42.87 4.68Q43.06 4.65 43.25 4.65L43.25 4.65Q44.35 4.65 44.99 5.17L44.99 5.17Q45.64 5.69 45.64 6.59L45.64 6.59Q45.64 7.51 44.97 8.03L44.97 8.03Q44.32 8.53 43.11 8.53L43.11 8.53Q42.70 8.53 42.27 8.47Q41.84 8.41 41.39 8.29L41.39 8.29L41.39 7.51Q41.78 7.70 42.21 7.79L42.21 7.79Q42.63 7.88 43.10 7.88L43.10 7.88Q43.86 7.88 44.30 7.53Q44.75 7.18 44.75 6.59Q44.75 6.00 44.30 5.65Q43.86 5.30 43.10 5.30L43.10 5.30Q42.75 5.30 42.39 5.37Q42.03 5.43 41.67 5.58L41.67 5.58Z"></path></svg>