<svg height="16.296875" width="47.2294921875" xmlns="http://www.w3.org/2000/svg" ><path d="M1.30 3.17L2.56 3.17L2.56 5.34L5.15 5.34L5.15 6.32L2.56 6.32L2.56 10.47Q2.56 11.41 2.82 11.68Q3.08 11.94 3.86 11.94L3.86 11.94L5.15 11.94L5.15 13.00L3.86 13.00Q2.41 13.00 1.85 12.45Q1.30 11.91 1.30 10.47L1.30 10.47L1.30 6.32L0.38 6.32L0.38 5.34L1.30 5.34L1.30 3.17ZM12.32 5.63L12.32 5.63L12.32 6.81Q11.79 6.51 11.25 6.37Q10.71 6.22 10.17 6.22L10.17 6.22Q8.94 6.22 8.26 7.00Q7.59 7.77 7.59 9.17L7.59 9.17Q7.59 10.58 8.26 11.35L8.26 11.35Q8.31 11.41 8.35 11.45L8.35 11.45Q8.62 10.90 9.04 10.60L9.04 10.60Q9.54 10.25 10.27 10.25L10.27 10.25Q11.38 10.25 11.89 10.74L11.89 10.74Q12.32 11.16 12.32 11.76L12.32 11.76Q12.32 12.62 11.67 12.94L11.67 12.94Q11.10 13.22 10.04 13.22L10.04 13.22Q9.50 13.22 9.00 13.10L9.00 13.10Q8.96 13.49 8.96 13.96L8.96 13.96L7.91 13.96Q7.91 13.25 7.99 12.69L7.99 12.69Q7.60 12.46 7.28 12.11L7.28 12.11Q6.26 11.01 6.26 9.17L6.26 9.17Q6.26 7.30 7.29 6.23Q8.32 5.15 10.11 5.15L10.11 5.15Q10.69 5.15 11.25 5.27Q11.80 5.39 12.32 5.63ZM9.24 12.00L9.24 12.00Q9.64 12.13 10.17 12.13L10.17 12.13Q11.16 12.13 11.16 11.74L11.16 11.74Q11.16 11.22 10.26 11.22L10.26 11.22Q9.57 11.22 9.24 12.00ZM18.03 5.84L18.03 5.84L18.03 8.43L17.23 8.43L17.23 5.87Q17.23 5.26 16.97 4.95Q16.70 4.65 16.17 4.65L16.17 4.65Q15.52 4.65 15.16 5.01Q14.79 5.38 14.79 6.01L14.79 6.01L14.79 8.43L13.99 8.43L13.99 2.47L14.79 2.47L14.79 4.81Q15.07 4.42 15.45 4.23Q15.84 4.04 16.34 4.04L16.34 4.04Q17.17 4.04 17.60 4.50Q18.03 4.96 18.03 5.84ZM26.71 5.34L23.35 13.71Q22.82 15.07 22.31 15.49Q21.81 15.91 20.96 15.91L20.96 15.91L19.95 15.91L19.95 14.85L20.69 14.85Q21.21 14.85 21.50 14.61Q21.79 14.36 22.13 13.45L22.13 13.45L22.36 12.87L19.26 5.34L20.60 5.34L22.99 11.33L25.38 5.34L26.71 5.34ZM34.82 8.37L34.82 8.37L34.82 13.00L33.56 13.00L33.56 8.42Q33.56 7.33 33.13 6.79Q32.71 6.25 31.86 6.25L31.86 6.25Q30.84 6.25 30.26 6.90Q29.67 7.55 29.67 8.67L29.67 8.67L29.67 13.00L28.40 13.00L28.40 5.34L29.67 5.34L29.67 6.53Q30.12 5.84 30.73 5.50Q31.34 5.15 32.14 5.15L32.14 5.15Q33.46 5.15 34.14 5.97Q34.82 6.79 34.82 8.37ZM36.98 5.58L36.98 2.72L40.46 2.72L40.46 3.37L37.79 3.37L37.79 4.76Q37.98 4.70 38.18 4.68L38.18 4.68Q38.37 4.65 38.56 4.65L38.56 4.65Q39.66 4.65 40.30 5.17L40.30 5.17Q40.95 5.69 40.95 6.59L40.95 6.59Q40.95 7.51 40.28 8.03L40.28 8.03Q39.63 8.53 38.42 8.53L38.42 8.53Q38.01 8.53 37.58 8.47Q37.15 8.41 36.70 8.29L36.70 8.29L36.70 7.51Q37.09 7.70 37.52 7.79L37.52 7.79Q37.94 7.88 38.41 7.88L38.41 7.88Q39.17 7.88 39.61 7.53Q40.06 7.18 40.06 6.59Q40.06 6.00 39.61 5.65Q39.17 5.30 38.41 5.30L38.41 5.30Q38.06 5.30 37.70 5.37Q37.34 5.43 36.98 5.58L36.98 5.58ZM45.20 5.34L45.20 5.34Q45.83 5.46 46.17 5.83Q46.52 6.21 46.52 6.77L46.52 6.77Q46.52 7.62 45.87 8.07Q45.22 8.53 44.01 8.53L44.01 8.53Q43.62 8.53 43.19 8.46Q42.77 8.39 42.29 8.25L42.29 8.25L42.29 7.42Q42.64 7.61 43.05 7.70Q43.46 7.79 43.91 7.79L43.91 7.79Q44.66 7.79 45.07 7.52Q45.48 7.25 45.48 6.77L45.48 6.77Q45.48 6.26 45.10 6.00Q44.72 5.74 43.98 5.74L43.98 5.74L43.39 5.74L43.39 5.00L44.04 5.00Q44.68 5.00 45.01 4.79Q45.34 4.57 45.34 4.16L45.34 4.16Q45.34 3.77 45.00 3.56Q44.66 3.35 44.01 3.35L44.01 3.35Q43.74 3.35 43.39 3.41Q43.04 3.47 42.49 3.63L42.49 3.63L42.49 2.84Q42.98 2.73 43.42 2.67Q43.86 2.60 44.24 2.60L44.24 2.60Q45.22 2.60 45.80 3.01Q46.38 3.41 46.38 4.09L46.38 4.09Q46.38 4.56 46.07 4.89Q45.76 5.22 45.20 5.34Z"></path></svg>