<svg height="16.296875" width="50.7021484375" xmlns="http://www.w3.org/2000/svg" ><path d="M1.30 3.17L2.56 3.17L2.56 5.34L5.15 5.34L5.15 6.32L2.56 6.32L2.56 10.47Q2.56 11.41 2.82 11.68Q3.08 11.94 3.86 11.94L3.86 11.94L5.15 11.94L5.15 13.00L3.86 13.00Q2.41 13.00 1.85 12.45Q1.30 11.91 1.30 10.47L1.30 10.47L1.30 6.32L0.38 6.32L0.38 5.34L1.30 5.34L1.30 3.17ZM12.32 5.63L12.32 5.63L12.32 6.81Q11.79 6.51 11.25 6.37Q10.71 6.22 10.17 6.22L10.17 6.22Q8.94 6.22 8.26 7.00Q7.59 7.77 7.59 9.17L7.59 9.17Q7.59 10.58 8.26 11.35L8.26 11.35Q8.31 11.41 8.35 11.45L8.35 11.45Q8.62 10.90 9.04 10.60L9.04 10.60Q9.54 10.25 10.27 10.25L10.27 10.25Q11.38 10.25 11.89 10.74L11.89 10.74Q12.32 11.16 12.32 11.76L12.32 11.76Q12.32 12.62 11.67 12.94L11.67 12.94Q11.10 13.22 10.04 13.22L10.04 13.22Q9.50 13.22 9.00 13.10L9.00 13.10Q8.96 13.49 8.96 13.96L8.96 13.96L7.91 13.96Q7.91 13.25 7.99 12.69L7.99 12.69Q7.60 12.46 7.28 12.11L7.28 12.11Q6.26 11.01 6.26 9.17L6.26 9.17Q6.26 7.30 7.29 6.23Q8.32 5.15 10.11 5.15L10.11 5.15Q10.69 5.15 11.25 5.27Q11.80 5.39 12.32 5.63ZM9.24 12.00L9.24 12.00Q9.64 12.13 10.17 12.13L10.17 12.13Q11.16 12.13 11.16 11.74L11.16 11.74Q11.16 11.22 10.26 11.22L10.26 11.22Q9.57 11.22 9.24 12.00ZM18.03 5.84L18.03 5.84L18.03 8.43L17.23 8.43L17.23 5.87Q17.23 5.26 16.97 4.95Q16.70 4.65 16.17 4.65L16.17 4.65Q15.52 4.65 15.16 5.01Q14.79 5.38 14.79 6.01L14.79 6.01L14.79 8.43L13.99 8.43L13.99 2.47L14.79 2.47L14.79 4.81Q15.07 4.42 15.45 4.23Q15.84 4.04 16.34 4.04L16.34 4.04Q17.17 4.04 17.60 4.50Q18.03 4.96 18.03 5.84ZM26.71 5.34L23.35 13.71Q22.82 15.07 22.31 15.49Q21.81 15.91 20.96 15.91L20.96 15.91L19.95 15.91L19.95 14.85L20.69 14.85Q21.21 14.85 21.50 14.61Q21.79 14.36 22.13 13.45L22.13 13.45L22.36 12.87L19.26 5.34L20.60 5.34L22.99 11.33L25.38 5.34L26.71 5.34ZM29.13 6.46L27.92 6.46L27.92 5.34L31.53 5.34L31.53 6.46L30.39 6.46L30.39 11.87L31.53 11.87L31.53 13.00L27.92 13.00L27.92 11.87L29.13 11.87L29.13 6.46ZM34.67 13.00L34.66 7.54L35.09 7.54Q36.40 7.54 36.99 6.76L36.99 6.76Q37.39 6.24 37.39 5.57L37.39 5.57Q37.38 4.66 36.99 4.22L36.99 4.22Q36.31 3.44 35.09 3.44L35.09 3.44Q34.54 3.44 34.00 3.59L34.00 3.59Q33.47 3.73 32.94 4.03L32.94 4.03L32.94 2.85Q33.46 2.61 34.01 2.50L34.01 2.50Q34.56 2.37 35.14 2.37L35.14 2.37Q37.02 2.37 37.97 3.45L37.97 3.45Q38.71 4.30 38.71 5.57L38.71 5.57Q38.71 6.73 37.97 7.52L37.97 7.52Q37.21 8.33 36.05 8.54L36.05 8.54L36.05 13.00L34.67 13.00ZM40.45 5.58L40.45 2.72L43.93 2.72L43.93 3.37L41.26 3.37L41.26 4.76Q41.45 4.70 41.65 4.68L41.65 4.68Q41.84 4.65 42.03 4.65L42.03 4.65Q43.13 4.65 43.78 5.17L43.78 5.17Q44.42 5.69 44.42 6.59L44.42 6.59Q44.42 7.51 43.76 8.03L43.76 8.03Q43.10 8.53 41.90 8.53L41.90 8.53Q41.49 8.53 41.06 8.47Q40.63 8.41 40.17 8.29L40.17 8.29L40.17 7.51Q40.56 7.70 40.99 7.79L40.99 7.79Q41.41 7.88 41.88 7.88L41.88 7.88Q42.64 7.88 43.09 7.53Q43.53 7.18 43.53 6.59Q43.53 6.00 43.09 5.65Q42.64 5.30 41.88 5.30L41.88 5.30Q41.53 5.30 41.17 5.37Q40.82 5.43 40.45 5.58L40.45 5.58ZM46.06 5.58L46.06 2.72L49.55 2.72L49.55 3.37L46.87 3.37L46.87 4.76Q47.07 4.70 47.26 4.68L47.26 4.68Q47.46 4.65 47.65 4.65L47.65 4.65Q48.75 4.65 49.39 5.17L49.39 5.17Q50.03 5.69 50.03 6.59L50.03 6.59Q50.03 7.51 49.37 8.03L49.37 8.03Q48.71 8.53 47.51 8.53L47.51 8.53Q47.10 8.53 46.67 8.47Q46.24 8.41 45.79 8.29L45.79 8.29L45.79 7.51Q46.18 7.70 46.60 7.79L46.60 7.79Q47.02 7.88 47.50 7.88L47.50 7.88Q48.25 7.88 48.70 7.53Q49.14 7.18 49.14 6.59Q49.14 6.00 48.70 5.65Q48.25 5.30 47.50 5.30L47.50 5.30Q47.14 5.30 46.79 5.37Q46.43 5.43 46.06 5.58L46.06 5.58Z"></path></svg>