<svg height="16.296875" width="38.3564453125" xmlns="http://www.w3.org/2000/svg" ><path d="M1.30 3.17L2.56 3.17L2.56 5.34L5.15 5.34L5.15 6.32L2.56 6.32L2.56 10.47Q2.56 11.41 2.82 11.68Q3.08 11.94 3.86 11.94L3.86 11.94L5.15 11.94L5.15 13.00L3.86 13.00Q2.41 13.00 1.85 12.45Q1.30 11.91 1.30 10.47L1.30 10.47L1.30 6.32L0.38 6.32L0.38 5.34L1.30 5.34L1.30 3.17ZM12.32 5.63L12.32 5.63L12.32 6.81Q11.79 6.51 11.25 6.37Q10.71 6.22 10.17 6.22L10.17 6.22Q8.94 6.22 8.26 7.00Q7.59 7.77 7.59 9.17L7.59 9.17Q7.59 10.58 8.26 11.35L8.26 11.35Q8.31 11.41 8.35 11.45L8.35 11.45Q8.62 10.90 9.04 10.60L9.04 10.60Q9.54 10.25 10.27 10.25L10.27 10.25Q11.38 10.25 11.89 10.74L11.89 10.74Q12.32 11.16 12.32 11.76L12.32 11.76Q12.32 12.62 11.67 12.94L11.67 12.94Q11.10 13.22 10.04 13.22L10.04 13.22Q9.50 13.22 9.00 13.10L9.00 13.10Q8.96 13.49 8.96 13.96L8.96 13.96L7.91 13.96Q7.91 13.25 7.99 12.69L7.99 12.69Q7.60 12.46 7.28 12.11L7.28 12.11Q6.26 11.01 6.26 9.17L6.26 9.17Q6.26 7.30 7.29 6.23Q8.32 5.15 10.11 5.15L10.11 5.15Q10.69 5.15 11.25 5.27Q11.80 5.39 12.32 5.63ZM9.24 12.00L9.24 12.00Q9.64 12.13 10.17 12.13L10.17 12.13Q11.16 12.13 11.16 11.74L11.16 11.74Q11.16 11.22 10.26 11.22L10.26 11.22Q9.57 11.22 9.24 12.00ZM18.03 5.84L18.03 5.84L18.03 8.43L17.23 8.43L17.23 5.87Q17.23 5.26 16.97 4.95Q16.70 4.65 16.17 4.65L16.17 4.65Q15.52 4.65 15.16 5.01Q14.79 5.38 14.79 6.01L14.79 6.01L14.79 8.43L13.99 8.43L13.99 2.47L14.79 2.47L14.79 4.81Q15.07 4.42 15.45 4.23Q15.84 4.04 16.34 4.04L16.34 4.04Q17.17 4.04 17.60 4.50Q18.03 4.96 18.03 5.84ZM26.71 5.34L23.35 13.71Q22.82 15.07 22.31 15.49Q21.81 15.91 20.96 15.91L20.96 15.91L19.95 15.91L19.95 14.85L20.69 14.85Q21.21 14.85 21.50 14.61Q21.79 14.36 22.13 13.45L22.13 13.45L22.36 12.87L19.26 5.34L20.60 5.34L22.99 11.33L25.38 5.34L26.71 5.34ZM28.10 5.58L28.10 2.72L31.59 2.72L31.59 3.37L28.92 3.37L28.92 4.76Q29.11 4.70 29.31 4.68L29.31 4.68Q29.50 4.65 29.69 4.65L29.69 4.65Q30.79 4.65 31.43 5.17L31.43 5.17Q32.07 5.69 32.07 6.59L32.07 6.59Q32.07 7.51 31.41 8.03L31.41 8.03Q30.75 8.53 29.55 8.53L29.55 8.53Q29.14 8.53 28.71 8.47Q28.28 8.41 27.83 8.29L27.83 8.29L27.83 7.51Q28.22 7.70 28.64 7.79L28.64 7.79Q29.07 7.88 29.54 7.88L29.54 7.88Q30.30 7.88 30.74 7.53Q31.19 7.18 31.19 6.59Q31.19 6.00 30.74 5.65Q30.30 5.30 29.54 5.30L29.54 5.30Q29.18 5.30 28.83 5.37Q28.47 5.43 28.10 5.58L28.10 5.58ZM36.33 5.34L36.33 5.34Q36.96 5.46 37.30 5.83Q37.65 6.21 37.65 6.77L37.65 6.77Q37.65 7.62 37.00 8.07Q36.35 8.53 35.14 8.53L35.14 8.53Q34.75 8.53 34.32 8.46Q33.89 8.39 33.41 8.25L33.41 8.25L33.41 7.42Q33.77 7.61 34.18 7.70Q34.58 7.79 35.04 7.79L35.04 7.79Q35.79 7.79 36.20 7.52Q36.61 7.25 36.61 6.77L36.61 6.77Q36.61 6.26 36.23 6.00Q35.85 5.74 35.11 5.74L35.11 5.74L34.52 5.74L34.52 5.00L35.16 5.00Q35.81 5.00 36.14 4.79Q36.47 4.57 36.47 4.16L36.47 4.16Q36.47 3.77 36.13 3.56Q35.79 3.35 35.14 3.35L35.14 3.35Q34.86 3.35 34.51 3.41Q34.17 3.47 33.61 3.63L33.61 3.63L33.61 2.84Q34.11 2.73 34.55 2.67Q34.99 2.60 35.36 2.60L35.36 2.60Q36.35 2.60 36.92 3.01Q37.50 3.41 37.50 4.09L37.50 4.09Q37.50 4.56 37.19 4.89Q36.89 5.22 36.33 5.34Z"></path></svg>