<svg height="16.296875" width="28.30078125" xmlns="http://www.w3.org/2000/svg" ><path d="M1.30 3.17L2.56 3.17L2.56 5.34L5.15 5.34L5.15 6.32L2.56 6.32L2.56 10.47Q2.56 11.41 2.82 11.68Q3.08 11.94 3.86 11.94L3.86 11.94L5.15 11.94L5.15 13.00L3.86 13.00Q2.41 13.00 1.85 12.45Q1.30 11.91 1.30 10.47L1.30 10.47L1.30 6.32L0.38 6.32L0.38 5.34L1.30 5.34L1.30 3.17ZM12.32 5.63L12.32 5.63L12.32 6.81Q11.79 6.51 11.25 6.37Q10.71 6.22 10.17 6.22L10.17 6.22Q8.94 6.22 8.26 7.00Q7.59 7.77 7.59 9.17L7.59 9.17Q7.59 10.58 8.26 11.35L8.26 11.35Q8.31 11.41 8.35 11.45L8.35 11.45Q8.62 10.90 9.04 10.60L9.04 10.60Q9.54 10.25 10.27 10.25L10.27 10.25Q11.38 10.25 11.89 10.74L11.89 10.74Q12.32 11.16 12.32 11.76L12.32 11.76Q12.32 12.62 11.67 12.94L11.67 12.94Q11.10 13.22 10.04 13.22L10.04 13.22Q9.50 13.22 9.00 13.10L9.00 13.10Q8.96 13.49 8.96 13.96L8.96 13.96L7.91 13.96Q7.91 13.25 7.99 12.69L7.99 12.69Q7.60 12.46 7.28 12.11L7.28 12.11Q6.26 11.01 6.26 9.17L6.26 9.17Q6.26 7.30 7.29 6.23Q8.32 5.15 10.11 5.15L10.11 5.15Q10.69 5.15 11.25 5.27Q11.80 5.39 12.32 5.63ZM9.24 12.00L9.24 12.00Q9.64 12.13 10.17 12.13L10.17 12.13Q11.16 12.13 11.16 11.74L11.16 11.74Q11.16 11.22 10.26 11.22L10.26 11.22Q9.57 11.22 9.24 12.00ZM14.51 13.00L14.51 5.34L15.76 5.34L15.76 13.00L14.51 13.00ZM14.51 3.95L14.51 2.36L15.76 2.36L15.76 3.95L14.51 3.95ZM18.05 5.58L18.05 2.72L21.53 2.72L21.53 3.37L18.86 3.37L18.86 4.76Q19.05 4.70 19.25 4.68L19.25 4.68Q19.44 4.65 19.63 4.65L19.63 4.65Q20.73 4.65 21.38 5.17L21.38 5.17Q22.02 5.69 22.02 6.59L22.02 6.59Q22.02 7.51 21.36 8.03L21.36 8.03Q20.70 8.53 19.50 8.53L19.50 8.53Q19.09 8.53 18.66 8.47Q18.22 8.41 17.77 8.29L17.77 8.29L17.77 7.51Q18.16 7.70 18.59 7.79L18.59 7.79Q19.01 7.88 19.48 7.88L19.48 7.88Q20.24 7.88 20.69 7.53Q21.13 7.18 21.13 6.59Q21.13 6.00 20.69 5.65Q20.24 5.30 19.48 5.30L19.48 5.30Q19.13 5.30 18.77 5.37Q18.42 5.43 18.05 5.58L18.05 5.58ZM26.27 5.34L26.27 5.34Q26.90 5.46 27.24 5.83Q27.59 6.21 27.59 6.77L27.59 6.77Q27.59 7.62 26.94 8.07Q26.29 8.53 25.08 8.53L25.08 8.53Q24.69 8.53 24.26 8.46Q23.84 8.39 23.36 8.25L23.36 8.25L23.36 7.42Q23.71 7.61 24.12 7.70Q24.53 7.79 24.99 7.79L24.99 7.79Q25.73 7.79 26.14 7.52Q26.55 7.25 26.55 6.77L26.55 6.77Q26.55 6.26 26.17 6.00Q25.79 5.74 25.05 5.74L25.05 5.74L24.47 5.74L24.47 5.00L25.11 5.00Q25.75 5.00 26.08 4.79Q26.41 4.57 26.41 4.16L26.41 4.16Q26.41 3.77 26.07 3.56Q25.73 3.35 25.08 3.35L25.08 3.35Q24.81 3.35 24.46 3.41Q24.11 3.47 23.56 3.63L23.56 3.63L23.56 2.84Q24.06 2.73 24.49 2.67Q24.93 2.60 25.31 2.60L25.31 2.60Q26.29 2.60 26.87 3.01Q27.45 3.41 27.45 4.09L27.45 4.09Q27.45 4.56 27.14 4.89Q26.83 5.22 26.27 5.34Z"></path></svg>