<svg height="16.296875" width="33.9130859375" xmlns="http://www.w3.org/2000/svg" ><path d="M1.30 3.17L2.56 3.17L2.56 5.34L5.15 5.34L5.15 6.32L2.56 6.32L2.56 10.47Q2.56 11.41 2.82 11.68Q3.08 11.94 3.86 11.94L3.86 11.94L5.15 11.94L5.15 13.00L3.86 13.00Q2.41 13.00 1.85 12.45Q1.30 11.91 1.30 10.47L1.30 10.47L1.30 6.32L0.38 6.32L0.38 5.34L1.30 5.34L1.30 3.17ZM12.32 5.63L12.32 5.63L12.32 6.81Q11.79 6.51 11.25 6.37Q10.71 6.22 10.17 6.22L10.17 6.22Q8.94 6.22 8.26 7.00Q7.59 7.77 7.59 9.17L7.59 9.17Q7.59 10.58 8.26 11.35L8.26 11.35Q8.31 11.41 8.35 11.45L8.35 11.45Q8.62 10.90 9.04 10.60L9.04 10.60Q9.54 10.25 10.27 10.25L10.27 10.25Q11.38 10.25 11.89 10.74L11.89 10.74Q12.32 11.16 12.32 11.76L12.32 11.76Q12.32 12.62 11.67 12.94L11.67 12.94Q11.10 13.22 10.04 13.22L10.04 13.22Q9.50 13.22 9.00 13.10L9.00 13.10Q8.96 13.49 8.96 13.96L8.96 13.96L7.91 13.96Q7.91 13.25 7.99 12.69L7.99 12.69Q7.60 12.46 7.28 12.11L7.28 12.11Q6.26 11.01 6.26 9.17L6.26 9.17Q6.26 7.30 7.29 6.23Q8.32 5.15 10.11 5.15L10.11 5.15Q10.69 5.15 11.25 5.27Q11.80 5.39 12.32 5.63ZM9.24 12.00L9.24 12.00Q9.64 12.13 10.17 12.13L10.17 12.13Q11.16 12.13 11.16 11.74L11.16 11.74Q11.16 11.22 10.26 11.22L10.26 11.22Q9.57 11.22 9.24 12.00ZM14.51 13.00L14.51 5.34L15.76 5.34L15.76 13.00L14.51 13.00ZM14.51 3.95L14.51 2.36L15.76 2.36L15.76 3.95L14.51 3.95ZM20.66 5.34L20.66 5.34Q21.29 5.46 21.63 5.83Q21.98 6.21 21.98 6.77L21.98 6.77Q21.98 7.62 21.33 8.07Q20.68 8.53 19.47 8.53L19.47 8.53Q19.08 8.53 18.65 8.46Q18.22 8.39 17.75 8.25L17.75 8.25L17.75 7.42Q18.10 7.61 18.51 7.70Q18.92 7.79 19.37 7.79L19.37 7.79Q20.12 7.79 20.53 7.52Q20.94 7.25 20.94 6.77L20.94 6.77Q20.94 6.26 20.56 6.00Q20.18 5.74 19.44 5.74L19.44 5.74L18.85 5.74L18.85 5.00L19.50 5.00Q20.14 5.00 20.47 4.79Q20.80 4.57 20.80 4.16L20.80 4.16Q20.80 3.77 20.46 3.56Q20.12 3.35 19.47 3.35L19.47 3.35Q19.20 3.35 18.85 3.41Q18.50 3.47 17.94 3.63L17.94 3.63L17.94 2.84Q18.44 2.73 18.88 2.67Q19.32 2.60 19.69 2.60L19.69 2.60Q20.68 2.60 21.26 3.01Q21.83 3.41 21.83 4.09L21.83 4.09Q21.83 4.56 21.53 4.89Q21.22 5.22 20.66 5.34ZM26.27 5.34L26.27 5.34Q26.90 5.46 27.24 5.83Q27.59 6.21 27.59 6.77L27.59 6.77Q27.59 7.62 26.94 8.07Q26.29 8.53 25.08 8.53L25.08 8.53Q24.69 8.53 24.26 8.46Q23.84 8.39 23.36 8.25L23.36 8.25L23.36 7.42Q23.71 7.61 24.12 7.70Q24.53 7.79 24.99 7.79L24.99 7.79Q25.73 7.79 26.14 7.52Q26.55 7.25 26.55 6.77L26.55 6.77Q26.55 6.26 26.17 6.00Q25.79 5.74 25.05 5.74L25.05 5.74L24.47 5.74L24.47 5.00L25.11 5.00Q25.75 5.00 26.08 4.79Q26.41 4.57 26.41 4.16L26.41 4.16Q26.41 3.77 26.07 3.56Q25.73 3.35 25.08 3.35L25.08 3.35Q24.81 3.35 24.46 3.41Q24.11 3.47 23.56 3.63L23.56 3.63L23.56 2.84Q24.06 2.73 24.49 2.67Q24.93 2.60 25.31 2.60L25.31 2.60Q26.29 2.60 26.87 3.01Q27.45 3.41 27.45 4.09L27.45 4.09Q27.45 4.56 27.14 4.89Q26.83 5.22 26.27 5.34ZM31.56 6.41L31.56 3.55L29.45 6.41L31.56 6.41ZM28.73 6.33L31.41 2.72L32.55 2.72L32.55 6.41L33.47 6.41L33.47 7.16L32.55 7.16L32.55 8.43L31.56 8.43L31.56 7.16L28.73 7.16L28.73 6.33Z"></path></svg>