<svg height="16.296875" width="42.1982421875" xmlns="http://www.w3.org/2000/svg" ><path d="M1.30 3.17L2.56 3.17L2.56 5.34L5.15 5.34L5.15 6.32L2.56 6.32L2.56 10.47Q2.56 11.41 2.82 11.68Q3.08 11.94 3.86 11.94L3.86 11.94L5.15 11.94L5.15 13.00L3.86 13.00Q2.41 13.00 1.85 12.45Q1.30 11.91 1.30 10.47L1.30 10.47L1.30 6.32L0.38 6.32L0.38 5.34L1.30 5.34L1.30 3.17ZM12.32 5.63L12.32 5.63L12.32 6.81Q11.79 6.51 11.25 6.37Q10.71 6.22 10.17 6.22L10.17 6.22Q8.94 6.22 8.26 7.00Q7.59 7.77 7.59 9.17L7.59 9.17Q7.59 10.58 8.26 11.35L8.26 11.35Q8.31 11.41 8.35 11.45L8.35 11.45Q8.62 10.90 9.04 10.60L9.04 10.60Q9.54 10.25 10.27 10.25L10.27 10.25Q11.38 10.25 11.89 10.74L11.89 10.74Q12.32 11.16 12.32 11.76L12.32 11.76Q12.32 12.62 11.67 12.94L11.67 12.94Q11.10 13.22 10.04 13.22L10.04 13.22Q9.50 13.22 9.00 13.10L9.00 13.10Q8.96 13.49 8.96 13.96L8.96 13.96L7.91 13.96Q7.91 13.25 7.99 12.69L7.99 12.69Q7.60 12.46 7.28 12.11L7.28 12.11Q6.26 11.01 6.26 9.17L6.26 9.17Q6.26 7.30 7.29 6.23Q8.32 5.15 10.11 5.15L10.11 5.15Q10.69 5.15 11.25 5.27Q11.80 5.39 12.32 5.63ZM9.24 12.00L9.24 12.00Q9.64 12.13 10.17 12.13L10.17 12.13Q11.16 12.13 11.16 11.74L11.16 11.74Q11.16 11.22 10.26 11.22L10.26 11.22Q9.57 11.22 9.24 12.00ZM14.51 13.00L14.51 5.34L15.76 5.34L15.76 13.00L14.51 13.00ZM14.51 3.95L14.51 2.36L15.76 2.36L15.76 3.95L14.51 3.95ZM22.07 5.34L24.94 13.00L23.61 13.00L22.91 11.12L19.52 11.12L18.83 13.00L17.49 13.00L20.36 5.34L22.07 5.34ZM21.22 6.57L19.91 10.10L22.53 10.10L21.22 6.57ZM28.94 5.34L28.94 5.34Q29.57 5.46 29.92 5.83Q30.26 6.21 30.26 6.77L30.26 6.77Q30.26 7.62 29.61 8.07Q28.96 8.53 27.75 8.53L27.75 8.53Q27.36 8.53 26.94 8.46Q26.51 8.39 26.03 8.25L26.03 8.25L26.03 7.42Q26.39 7.61 26.79 7.70Q27.20 7.79 27.66 7.79L27.66 7.79Q28.40 7.79 28.81 7.52Q29.22 7.25 29.22 6.77L29.22 6.77Q29.22 6.26 28.84 6.00Q28.46 5.74 27.73 5.74L27.73 5.74L27.14 5.74L27.14 5.00L27.78 5.00Q28.42 5.00 28.76 4.79Q29.09 4.57 29.09 4.16L29.09 4.16Q29.09 3.77 28.75 3.56Q28.40 3.35 27.75 3.35L27.75 3.35Q27.48 3.35 27.13 3.41Q26.78 3.47 26.23 3.63L26.23 3.63L26.23 2.84Q26.73 2.73 27.17 2.67Q27.60 2.60 27.98 2.60L27.98 2.60Q28.96 2.60 29.54 3.01Q30.12 3.41 30.12 4.09L30.12 4.09Q30.12 4.56 29.81 4.89Q29.50 5.22 28.94 5.34ZM34.56 5.34L34.56 5.34Q35.18 5.46 35.53 5.83Q35.88 6.21 35.88 6.77L35.88 6.77Q35.88 7.62 35.23 8.07Q34.58 8.53 33.37 8.53L33.37 8.53Q32.98 8.53 32.55 8.46Q32.12 8.39 31.64 8.25L31.64 8.25L31.64 7.42Q32.00 7.61 32.41 7.70Q32.81 7.79 33.27 7.79L33.27 7.79Q34.02 7.79 34.43 7.52Q34.84 7.25 34.84 6.77L34.84 6.77Q34.84 6.26 34.46 6.00Q34.08 5.74 33.34 5.74L33.34 5.74L32.75 5.74L32.75 5.00L33.39 5.00Q34.04 5.00 34.37 4.79Q34.70 4.57 34.70 4.16L34.70 4.16Q34.70 3.77 34.36 3.56Q34.02 3.35 33.37 3.35L33.37 3.35Q33.09 3.35 32.74 3.41Q32.40 3.47 31.84 3.63L31.84 3.63L31.84 2.84Q32.34 2.73 32.78 2.67Q33.22 2.60 33.59 2.60L33.59 2.60Q34.58 2.60 35.15 3.01Q35.73 3.41 35.73 4.09L35.73 4.09Q35.73 4.56 35.42 4.89Q35.12 5.22 34.56 5.34ZM39.85 6.41L39.85 3.55L37.73 6.41L39.85 6.41ZM37.02 6.33L39.70 2.72L40.83 2.72L40.83 6.41L41.75 6.41L41.75 7.16L40.83 7.16L40.83 8.43L39.85 8.43L39.85 7.16L37.02 7.16L37.02 6.33Z"></path></svg>