<svg height="16.296875" width="36.8798828125" xmlns="http://www.w3.org/2000/svg" ><path d="M1.30 3.17L2.56 3.17L2.56 5.34L5.15 5.34L5.15 6.32L2.56 6.32L2.56 10.47Q2.56 11.41 2.82 11.68Q3.08 11.94 3.86 11.94L3.86 11.94L5.15 11.94L5.15 13.00L3.86 13.00Q2.41 13.00 1.85 12.45Q1.30 11.91 1.30 10.47L1.30 10.47L1.30 6.32L0.38 6.32L0.38 5.34L1.30 5.34L1.30 3.17ZM12.32 5.63L12.32 5.63L12.32 6.81Q11.79 6.51 11.25 6.37Q10.71 6.22 10.17 6.22L10.17 6.22Q8.94 6.22 8.26 7.00Q7.59 7.77 7.59 9.17L7.59 9.17Q7.59 10.58 8.26 11.35L8.26 11.35Q8.31 11.41 8.35 11.45L8.35 11.45Q8.62 10.90 9.04 10.60L9.04 10.60Q9.54 10.25 10.27 10.25L10.27 10.25Q11.38 10.25 11.89 10.74L11.89 10.74Q12.32 11.16 12.32 11.76L12.32 11.76Q12.32 12.62 11.67 12.94L11.67 12.94Q11.10 13.22 10.04 13.22L10.04 13.22Q9.50 13.22 9.00 13.10L9.00 13.10Q8.96 13.49 8.96 13.96L8.96 13.96L7.91 13.96Q7.91 13.25 7.99 12.69L7.99 12.69Q7.60 12.46 7.28 12.11L7.28 12.11Q6.26 11.01 6.26 9.17L6.26 9.17Q6.26 7.30 7.29 6.23Q8.32 5.15 10.11 5.15L10.11 5.15Q10.69 5.15 11.25 5.27Q11.80 5.39 12.32 5.63ZM9.24 12.00L9.24 12.00Q9.64 12.13 10.17 12.13L10.17 12.13Q11.16 12.13 11.16 11.74L11.16 11.74Q11.16 11.22 10.26 11.22L10.26 11.22Q9.57 11.22 9.24 12.00ZM14.51 13.00L14.51 5.34L15.76 5.34L15.76 13.00L14.51 13.00ZM14.51 3.95L14.51 2.36L15.76 2.36L15.76 3.95L14.51 3.95ZM23.13 9.15L21.88 9.15Q20.35 9.15 19.76 9.50Q19.17 9.84 19.17 10.68L19.17 10.68Q19.17 11.35 19.62 11.75Q20.06 12.14 20.82 12.14L20.82 12.14Q21.86 12.14 22.49 11.40Q23.13 10.66 23.13 9.43L23.13 9.43L23.13 9.15ZM24.38 8.63L24.38 8.63L24.38 13.00L23.13 13.00L23.13 11.83Q22.70 12.53 22.05 12.86Q21.41 13.19 20.48 13.19L20.48 13.19Q19.30 13.19 18.61 12.53Q17.92 11.87 17.92 10.77L17.92 10.77Q17.92 9.47 18.78 8.82Q19.65 8.16 21.36 8.16L21.36 8.16L23.13 8.16L23.13 8.04Q23.13 7.17 22.56 6.70Q21.98 6.22 20.95 6.22L20.95 6.22Q20.30 6.22 19.67 6.38Q19.05 6.54 18.48 6.85L18.48 6.85L18.48 5.69Q19.17 5.42 19.82 5.29Q20.47 5.15 21.08 5.15L21.08 5.15Q22.74 5.15 23.56 6.02Q24.38 6.88 24.38 8.63ZM22.11 3.63L22.11 3.63L21.72 3.25Q21.57 3.12 21.46 3.05Q21.35 2.99 21.26 2.99L21.26 2.99Q21 2.99 20.88 3.24Q20.75 3.49 20.74 4.05L20.74 4.05L19.89 4.05Q19.90 3.12 20.25 2.62Q20.60 2.12 21.22 2.12L21.22 2.12Q21.48 2.12 21.70 2.21Q21.92 2.31 22.17 2.54L22.17 2.54L22.56 2.91Q22.71 3.05 22.82 3.11Q22.93 3.18 23.02 3.18L23.02 3.18Q23.28 3.18 23.41 2.93Q23.53 2.68 23.54 2.12L23.54 2.12L24.40 2.12Q24.38 3.04 24.04 3.54Q23.69 4.05 23.06 4.05L23.06 4.05Q22.80 4.05 22.59 3.95Q22.37 3.86 22.11 3.63ZM26.63 5.58L26.63 2.72L30.11 2.72L30.11 3.37L27.44 3.37L27.44 4.76Q27.63 4.70 27.83 4.68L27.83 4.68Q28.02 4.65 28.21 4.65L28.21 4.65Q29.31 4.65 29.96 5.17L29.96 5.17Q30.60 5.69 30.60 6.59L30.60 6.59Q30.60 7.51 29.93 8.03L29.93 8.03Q29.28 8.53 28.08 8.53L28.08 8.53Q27.67 8.53 27.23 8.47Q26.80 8.41 26.35 8.29L26.35 8.29L26.35 7.51Q26.74 7.70 27.17 7.79L27.17 7.79Q27.59 7.88 28.06 7.88L28.06 7.88Q28.82 7.88 29.26 7.53Q29.71 7.18 29.71 6.59Q29.71 6.00 29.26 5.65Q28.82 5.30 28.06 5.30L28.06 5.30Q27.71 5.30 27.35 5.37Q27.00 5.43 26.63 5.58L26.63 5.58ZM34.85 5.34L34.85 5.34Q35.48 5.46 35.82 5.83Q36.17 6.21 36.17 6.77L36.17 6.77Q36.17 7.62 35.52 8.07Q34.87 8.53 33.66 8.53L33.66 8.53Q33.27 8.53 32.84 8.46Q32.42 8.39 31.94 8.25L31.94 8.25L31.94 7.42Q32.29 7.61 32.70 7.70Q33.11 7.79 33.56 7.79L33.56 7.79Q34.31 7.79 34.72 7.52Q35.13 7.25 35.13 6.77L35.13 6.77Q35.13 6.26 34.75 6.00Q34.37 5.74 33.63 5.74L33.63 5.74L33.04 5.74L33.04 5.00L33.69 5.00Q34.33 5.00 34.66 4.79Q34.99 4.57 34.99 4.16L34.99 4.16Q34.99 3.77 34.65 3.56Q34.31 3.35 33.66 3.35L33.66 3.35Q33.39 3.35 33.04 3.41Q32.69 3.47 32.14 3.63L32.14 3.63L32.14 2.84Q32.63 2.73 33.07 2.67Q33.51 2.60 33.89 2.60L33.89 2.60Q34.87 2.60 35.45 3.01Q36.03 3.41 36.03 4.09L36.03 4.09Q36.03 4.56 35.72 4.89Q35.41 5.22 34.85 5.34Z"></path></svg>