<svg height="16.296875" width="43.7294921875" xmlns="http://www.w3.org/2000/svg" ><path d="M1.30 3.17L2.56 3.17L2.56 5.34L5.15 5.34L5.15 6.32L2.56 6.32L2.56 10.47Q2.56 11.41 2.82 11.68Q3.08 11.94 3.86 11.94L3.86 11.94L5.15 11.94L5.15 13.00L3.86 13.00Q2.41 13.00 1.85 12.45Q1.30 11.91 1.30 10.47L1.30 10.47L1.30 6.32L0.38 6.32L0.38 5.34L1.30 5.34L1.30 3.17ZM12.32 5.63L12.32 5.63L12.32 6.81Q11.79 6.51 11.25 6.37Q10.71 6.22 10.17 6.22L10.17 6.22Q8.94 6.22 8.26 7.00Q7.59 7.77 7.59 9.17L7.59 9.17Q7.59 10.58 8.26 11.35L8.26 11.35Q8.31 11.41 8.35 11.45L8.35 11.45Q8.62 10.90 9.04 10.60L9.04 10.60Q9.54 10.25 10.27 10.25L10.27 10.25Q11.38 10.25 11.89 10.74L11.89 10.74Q12.32 11.16 12.32 11.76L12.32 11.76Q12.32 12.62 11.67 12.94L11.67 12.94Q11.10 13.22 10.04 13.22L10.04 13.22Q9.50 13.22 9.00 13.10L9.00 13.10Q8.96 13.49 8.96 13.96L8.96 13.96L7.91 13.96Q7.91 13.25 7.99 12.69L7.99 12.69Q7.60 12.46 7.28 12.11L7.28 12.11Q6.26 11.01 6.26 9.17L6.26 9.17Q6.26 7.30 7.29 6.23Q8.32 5.15 10.11 5.15L10.11 5.15Q10.69 5.15 11.25 5.27Q11.80 5.39 12.32 5.63ZM9.24 12.00L9.24 12.00Q9.64 12.13 10.17 12.13L10.17 12.13Q11.16 12.13 11.16 11.74L11.16 11.74Q11.16 11.22 10.26 11.22L10.26 11.22Q9.57 11.22 9.24 12.00ZM14.51 13.00L14.51 5.34L15.76 5.34L15.76 13.00L14.51 13.00ZM14.51 3.95L14.51 2.36L15.76 2.36L15.76 3.95L14.51 3.95ZM22.07 5.34L24.94 13.00L23.61 13.00L22.91 11.12L19.52 11.12L18.83 13.00L17.49 13.00L20.36 5.34L22.07 5.34ZM21.22 6.57L19.91 10.10L22.53 10.10L21.22 6.57ZM27.69 13.00L27.69 7.54L28.12 7.54Q29.43 7.54 30.02 6.76L30.02 6.76Q30.41 6.24 30.41 5.57L30.41 5.57Q30.41 4.66 30.02 4.22L30.02 4.22Q29.34 3.44 28.12 3.44L28.12 3.44Q27.57 3.44 27.03 3.59L27.03 3.59Q26.50 3.73 25.96 4.03L25.96 4.03L25.96 2.85Q26.48 2.61 27.04 2.50L27.04 2.50Q27.59 2.37 28.17 2.37L28.17 2.37Q30.05 2.37 30.99 3.45L30.99 3.45Q31.74 4.30 31.74 5.57L31.74 5.57Q31.74 6.73 31.00 7.52L31.00 7.52Q30.24 8.33 29.07 8.54L29.07 8.54L29.07 13.00L27.69 13.00ZM33.48 5.58L33.48 2.72L36.96 2.72L36.96 3.37L34.29 3.37L34.29 4.76Q34.48 4.70 34.68 4.68L34.68 4.68Q34.87 4.65 35.06 4.65L35.06 4.65Q36.16 4.65 36.80 5.17L36.80 5.17Q37.45 5.69 37.45 6.59L37.45 6.59Q37.45 7.51 36.78 8.03L36.78 8.03Q36.13 8.53 34.92 8.53L34.92 8.53Q34.51 8.53 34.08 8.47Q33.65 8.41 33.20 8.29L33.20 8.29L33.20 7.51Q33.59 7.70 34.02 7.79L34.02 7.79Q34.44 7.88 34.91 7.88L34.91 7.88Q35.67 7.88 36.11 7.53Q36.56 7.18 36.56 6.59Q36.56 6.00 36.11 5.65Q35.67 5.30 34.91 5.30L34.91 5.30Q34.56 5.30 34.20 5.37Q33.84 5.43 33.48 5.58L33.48 5.58ZM39.09 5.58L39.09 2.72L42.57 2.72L42.57 3.37L39.90 3.37L39.90 4.76Q40.09 4.70 40.29 4.68L40.29 4.68Q40.48 4.65 40.67 4.65L40.67 4.65Q41.77 4.65 42.42 5.17L42.42 5.17Q43.06 5.69 43.06 6.59L43.06 6.59Q43.06 7.51 42.40 8.03L42.40 8.03Q41.74 8.53 40.54 8.53L40.54 8.53Q40.13 8.53 39.70 8.47Q39.27 8.41 38.81 8.29L38.81 8.29L38.81 7.51Q39.20 7.70 39.63 7.79L39.63 7.79Q40.05 7.88 40.52 7.88L40.52 7.88Q41.28 7.88 41.73 7.53Q42.17 7.18 42.17 6.59Q42.17 6.00 41.73 5.65Q41.28 5.30 40.52 5.30L40.52 5.30Q40.17 5.30 39.81 5.37Q39.46 5.43 39.09 5.58L39.09 5.58Z"></path></svg>