<svg height="16.296875" width="41.603515625" xmlns="http://www.w3.org/2000/svg" ><path d="M1.30 3.17L2.56 3.17L2.56 5.34L5.15 5.34L5.15 6.32L2.56 6.32L2.56 10.47Q2.56 11.41 2.82 11.68Q3.08 11.94 3.86 11.94L3.86 11.94L5.15 11.94L5.15 13.00L3.86 13.00Q2.41 13.00 1.85 12.45Q1.30 11.91 1.30 10.47L1.30 10.47L1.30 6.32L0.38 6.32L0.38 5.34L1.30 5.34L1.30 3.17ZM12.32 5.63L12.32 5.63L12.32 6.81Q11.79 6.51 11.25 6.37Q10.71 6.22 10.17 6.22L10.17 6.22Q8.94 6.22 8.26 7.00Q7.59 7.77 7.59 9.17L7.59 9.17Q7.59 10.58 8.26 11.35L8.26 11.35Q8.31 11.41 8.35 11.45L8.35 11.45Q8.62 10.90 9.04 10.60L9.04 10.60Q9.54 10.25 10.27 10.25L10.27 10.25Q11.38 10.25 11.89 10.74L11.89 10.74Q12.32 11.16 12.32 11.76L12.32 11.76Q12.32 12.62 11.67 12.94L11.67 12.94Q11.10 13.22 10.04 13.22L10.04 13.22Q9.50 13.22 9.00 13.10L9.00 13.10Q8.96 13.49 8.96 13.96L8.96 13.96L7.91 13.96Q7.91 13.25 7.99 12.69L7.99 12.69Q7.60 12.46 7.28 12.11L7.28 12.11Q6.26 11.01 6.26 9.17L6.26 9.17Q6.26 7.30 7.29 6.23Q8.32 5.15 10.11 5.15L10.11 5.15Q10.69 5.15 11.25 5.27Q11.80 5.39 12.32 5.63ZM9.24 12.00L9.24 12.00Q9.64 12.13 10.17 12.13L10.17 12.13Q11.16 12.13 11.16 11.74L11.16 11.74Q11.16 11.22 10.26 11.22L10.26 11.22Q9.57 11.22 9.24 12.00ZM14.51 13.00L14.51 5.34L15.76 5.34L15.76 13.00L14.51 13.00ZM14.51 3.95L14.51 2.36L15.76 2.36L15.76 3.95L14.51 3.95ZM17.94 6.81L17.94 5.65Q18.47 5.40 19.03 5.28Q19.60 5.15 20.23 5.15L20.23 5.15Q21.96 5.15 22.98 6.24Q24.00 7.33 24.00 9.17L24.00 9.17Q24.00 11.05 22.97 12.12Q21.94 13.19 20.15 13.19L20.15 13.19Q19.57 13.19 19.02 13.07Q18.46 12.95 17.94 12.71L17.94 12.71L17.94 11.54Q18.48 11.83 19.01 11.98Q19.55 12.13 20.10 12.13L20.10 12.13Q21.32 12.13 22.00 11.35Q22.67 10.58 22.67 9.17L22.67 9.17Q22.67 7.77 22.00 7.00Q21.32 6.22 20.10 6.22L20.10 6.22Q19.55 6.22 19.01 6.37Q18.48 6.51 17.94 6.81L17.94 6.81ZM28.35 5.34L28.35 5.34Q28.98 5.46 29.32 5.83Q29.67 6.21 29.67 6.77L29.67 6.77Q29.67 7.62 29.02 8.07Q28.37 8.53 27.16 8.53L27.16 8.53Q26.77 8.53 26.34 8.46Q25.92 8.39 25.44 8.25L25.44 8.25L25.44 7.42Q25.79 7.61 26.20 7.70Q26.61 7.79 27.06 7.79L27.06 7.79Q27.81 7.79 28.22 7.52Q28.63 7.25 28.63 6.77L28.63 6.77Q28.63 6.26 28.25 6.00Q27.87 5.74 27.13 5.74L27.13 5.74L26.54 5.74L26.54 5.00L27.19 5.00Q27.83 5.00 28.16 4.79Q28.49 4.57 28.49 4.16L28.49 4.16Q28.49 3.77 28.15 3.56Q27.81 3.35 27.16 3.35L27.16 3.35Q26.89 3.35 26.54 3.41Q26.19 3.47 25.63 3.63L25.63 3.63L25.63 2.84Q26.13 2.73 26.57 2.67Q27.01 2.60 27.38 2.60L27.38 2.60Q28.37 2.60 28.95 3.01Q29.52 3.41 29.52 4.09L29.52 4.09Q29.52 4.56 29.22 4.89Q28.91 5.22 28.35 5.34ZM33.96 5.34L33.96 5.34Q34.59 5.46 34.94 5.83Q35.28 6.21 35.28 6.77L35.28 6.77Q35.28 7.62 34.63 8.07Q33.98 8.53 32.77 8.53L32.77 8.53Q32.38 8.53 31.95 8.46Q31.53 8.39 31.05 8.25L31.05 8.25L31.05 7.42Q31.40 7.61 31.81 7.70Q32.22 7.79 32.68 7.79L32.68 7.79Q33.42 7.79 33.83 7.52Q34.24 7.25 34.24 6.77L34.24 6.77Q34.24 6.26 33.86 6.00Q33.48 5.74 32.74 5.74L32.74 5.74L32.16 5.74L32.16 5.00L32.80 5.00Q33.44 5.00 33.77 4.79Q34.10 4.57 34.10 4.16L34.10 4.16Q34.10 3.77 33.76 3.56Q33.42 3.35 32.77 3.35L32.77 3.35Q32.50 3.35 32.15 3.41Q31.80 3.47 31.25 3.63L31.25 3.63L31.25 2.84Q31.75 2.73 32.18 2.67Q32.62 2.60 33.00 2.60L33.00 2.60Q33.98 2.60 34.56 3.01Q35.14 3.41 35.14 4.09L35.14 4.09Q35.14 4.56 34.83 4.89Q34.52 5.22 33.96 5.34ZM39.25 6.41L39.25 3.55L37.14 6.41L39.25 6.41ZM36.42 6.33L39.10 2.72L40.24 2.72L40.24 6.41L41.16 6.41L41.16 7.16L40.24 7.16L40.24 8.43L39.25 8.43L39.25 7.16L36.42 7.16L36.42 6.33Z"></path></svg>