<svg height="16.296875" width="35.1708984375" xmlns="http://www.w3.org/2000/svg" ><path d="M1.30 3.17L2.56 3.17L2.56 5.34L5.15 5.34L5.15 6.32L2.56 6.32L2.56 10.47Q2.56 11.41 2.82 11.68Q3.08 11.94 3.86 11.94L3.86 11.94L5.15 11.94L5.15 13.00L3.86 13.00Q2.41 13.00 1.85 12.45Q1.30 11.91 1.30 10.47L1.30 10.47L1.30 6.32L0.38 6.32L0.38 5.34L1.30 5.34L1.30 3.17ZM12.32 5.63L12.32 5.63L12.32 6.81Q11.79 6.51 11.25 6.37Q10.71 6.22 10.17 6.22L10.17 6.22Q8.94 6.22 8.26 7.00Q7.59 7.77 7.59 9.17L7.59 9.17Q7.59 10.58 8.26 11.35L8.26 11.35Q8.31 11.41 8.35 11.45L8.35 11.45Q8.62 10.90 9.04 10.60L9.04 10.60Q9.54 10.25 10.27 10.25L10.27 10.25Q11.38 10.25 11.89 10.74L11.89 10.74Q12.32 11.16 12.32 11.76L12.32 11.76Q12.32 12.62 11.67 12.94L11.67 12.94Q11.10 13.22 10.04 13.22L10.04 13.22Q9.50 13.22 9.00 13.10L9.00 13.10Q8.96 13.49 8.96 13.96L8.96 13.96L7.91 13.96Q7.91 13.25 7.99 12.69L7.99 12.69Q7.60 12.46 7.28 12.11L7.28 12.11Q6.26 11.01 6.26 9.17L6.26 9.17Q6.26 7.30 7.29 6.23Q8.32 5.15 10.11 5.15L10.11 5.15Q10.69 5.15 11.25 5.27Q11.80 5.39 12.32 5.63ZM9.24 12.00L9.24 12.00Q9.64 12.13 10.17 12.13L10.17 12.13Q11.16 12.13 11.16 11.74L11.16 11.74Q11.16 11.22 10.26 11.22L10.26 11.22Q9.57 11.22 9.24 12.00ZM14.51 13.00L14.51 5.34L15.76 5.34L15.76 13.00L14.51 13.00ZM14.51 3.95L14.51 2.36L15.76 2.36L15.76 3.95L14.51 3.95ZM18.35 13.00L18.35 5.34L23.19 5.34L23.19 6.35L19.62 6.35L19.62 8.41L23.03 8.41L23.03 9.42L19.62 9.42L19.62 11.99L23.28 11.99L23.28 13.00L18.35 13.00ZM24.92 5.58L24.92 2.72L28.40 2.72L28.40 3.37L25.73 3.37L25.73 4.76Q25.92 4.70 26.12 4.68L26.12 4.68Q26.31 4.65 26.50 4.65L26.50 4.65Q27.60 4.65 28.25 5.17L28.25 5.17Q28.89 5.69 28.89 6.59L28.89 6.59Q28.89 7.51 28.23 8.03L28.23 8.03Q27.57 8.53 26.37 8.53L26.37 8.53Q25.96 8.53 25.53 8.47Q25.09 8.41 24.64 8.29L24.64 8.29L24.64 7.51Q25.03 7.70 25.46 7.79L25.46 7.79Q25.88 7.88 26.35 7.88L26.35 7.88Q27.11 7.88 27.56 7.53Q28 7.18 28 6.59Q28 6.00 27.56 5.65Q27.11 5.30 26.35 5.30L26.35 5.30Q26.00 5.30 25.64 5.37Q25.29 5.43 24.92 5.58L24.92 5.58ZM33.14 5.34L33.14 5.34Q33.77 5.46 34.11 5.83Q34.46 6.21 34.46 6.77L34.46 6.77Q34.46 7.62 33.81 8.07Q33.16 8.53 31.95 8.53L31.95 8.53Q31.56 8.53 31.13 8.46Q30.71 8.39 30.23 8.25L30.23 8.25L30.23 7.42Q30.58 7.61 30.99 7.70Q31.40 7.79 31.86 7.79L31.86 7.79Q32.60 7.79 33.01 7.52Q33.42 7.25 33.42 6.77L33.42 6.77Q33.42 6.26 33.04 6.00Q32.66 5.74 31.92 5.74L31.92 5.74L31.34 5.74L31.34 5.00L31.98 5.00Q32.62 5.00 32.95 4.79Q33.28 4.57 33.28 4.16L33.28 4.16Q33.28 3.77 32.94 3.56Q32.60 3.35 31.95 3.35L31.95 3.35Q31.68 3.35 31.33 3.41Q30.98 3.47 30.43 3.63L30.43 3.63L30.43 2.84Q30.93 2.73 31.36 2.67Q31.80 2.60 32.18 2.60L32.18 2.60Q33.16 2.60 33.74 3.01Q34.32 3.41 34.32 4.09L34.32 4.09Q34.32 4.56 34.01 4.89Q33.70 5.22 33.14 5.34Z"></path></svg>