<svg height="16.296875" width="42.2529296875" xmlns="http://www.w3.org/2000/svg" ><path d="M1.30 3.17L2.56 3.17L2.56 5.34L5.15 5.34L5.15 6.32L2.56 6.32L2.56 10.47Q2.56 11.41 2.82 11.68Q3.08 11.94 3.86 11.94L3.86 11.94L5.15 11.94L5.15 13.00L3.86 13.00Q2.41 13.00 1.85 12.45Q1.30 11.91 1.30 10.47L1.30 10.47L1.30 6.32L0.38 6.32L0.38 5.34L1.30 5.34L1.30 3.17ZM12.32 5.63L12.32 5.63L12.32 6.81Q11.79 6.51 11.25 6.37Q10.71 6.22 10.17 6.22L10.17 6.22Q8.94 6.22 8.26 7.00Q7.59 7.77 7.59 9.17L7.59 9.17Q7.59 10.58 8.26 11.35L8.26 11.35Q8.31 11.41 8.35 11.45L8.35 11.45Q8.62 10.90 9.04 10.60L9.04 10.60Q9.54 10.25 10.27 10.25L10.27 10.25Q11.38 10.25 11.89 10.74L11.89 10.74Q12.32 11.16 12.32 11.76L12.32 11.76Q12.32 12.62 11.67 12.94L11.67 12.94Q11.10 13.22 10.04 13.22L10.04 13.22Q9.50 13.22 9.00 13.10L9.00 13.10Q8.96 13.49 8.96 13.96L8.96 13.96L7.91 13.96Q7.91 13.25 7.99 12.69L7.99 12.69Q7.60 12.46 7.28 12.11L7.28 12.11Q6.26 11.01 6.26 9.17L6.26 9.17Q6.26 7.30 7.29 6.23Q8.32 5.15 10.11 5.15L10.11 5.15Q10.69 5.15 11.25 5.27Q11.80 5.39 12.32 5.63ZM9.24 12.00L9.24 12.00Q9.64 12.13 10.17 12.13L10.17 12.13Q11.16 12.13 11.16 11.74L11.16 11.74Q11.16 11.22 10.26 11.22L10.26 11.22Q9.57 11.22 9.24 12.00ZM14.51 13.00L14.51 5.34L15.76 5.34L15.76 13.00L14.51 13.00ZM14.51 3.95L14.51 2.36L15.76 2.36L15.76 3.95L14.51 3.95ZM19.22 5.34L21.25 8.07L23.28 5.34L24.76 5.34L22.04 8.99Q22.52 9.66 22.83 10.18L22.83 10.18Q23.30 11.00 23.30 11.42L23.30 11.42Q23.30 12.31 22.78 12.75Q22.27 13.19 21.25 13.19L21.25 13.19Q20.22 13.19 19.71 12.75Q19.20 12.31 19.20 11.42L19.20 11.42Q19.20 11.00 19.67 10.18L19.67 10.18Q19.97 9.66 20.45 8.99L20.45 8.99L17.73 5.34L19.22 5.34ZM21.25 12.13L21.25 12.13Q21.70 12.13 21.92 11.94L21.92 11.94Q22.11 11.78 22.11 11.47L22.11 11.47Q22.11 11.25 21.84 10.81L21.84 10.81Q21.63 10.47 21.25 9.99L21.25 9.99Q20.86 10.47 20.65 10.81L20.65 10.81Q20.38 11.25 20.38 11.47L20.38 11.47Q20.38 11.78 20.58 11.94L20.58 11.94Q20.79 12.13 21.25 12.13ZM29.00 5.34L29.00 5.34Q29.63 5.46 29.97 5.83Q30.32 6.21 30.32 6.77L30.32 6.77Q30.32 7.62 29.67 8.07Q29.02 8.53 27.81 8.53L27.81 8.53Q27.42 8.53 26.99 8.46Q26.56 8.39 26.09 8.25L26.09 8.25L26.09 7.42Q26.44 7.61 26.85 7.70Q27.25 7.79 27.71 7.79L27.71 7.79Q28.46 7.79 28.87 7.52Q29.28 7.25 29.28 6.77L29.28 6.77Q29.28 6.26 28.90 6.00Q28.52 5.74 27.78 5.74L27.78 5.74L27.19 5.74L27.19 5.00L27.84 5.00Q28.48 5.00 28.81 4.79Q29.14 4.57 29.14 4.16L29.14 4.16Q29.14 3.77 28.80 3.56Q28.46 3.35 27.81 3.35L27.81 3.35Q27.54 3.35 27.19 3.41Q26.84 3.47 26.28 3.63L26.28 3.63L26.28 2.84Q26.78 2.73 27.22 2.67Q27.66 2.60 28.03 2.60L28.03 2.60Q29.02 2.60 29.60 3.01Q30.17 3.41 30.17 4.09L30.17 4.09Q30.17 4.56 29.87 4.89Q29.56 5.22 29.00 5.34ZM34.61 5.34L34.61 5.34Q35.24 5.46 35.58 5.83Q35.93 6.21 35.93 6.77L35.93 6.77Q35.93 7.62 35.28 8.07Q34.63 8.53 33.42 8.53L33.42 8.53Q33.03 8.53 32.60 8.46Q32.18 8.39 31.70 8.25L31.70 8.25L31.70 7.42Q32.05 7.61 32.46 7.70Q32.87 7.79 33.33 7.79L33.33 7.79Q34.07 7.79 34.48 7.52Q34.89 7.25 34.89 6.77L34.89 6.77Q34.89 6.26 34.51 6.00Q34.13 5.74 33.39 5.74L33.39 5.74L32.81 5.74L32.81 5.00L33.45 5.00Q34.09 5.00 34.42 4.79Q34.75 4.57 34.75 4.16L34.75 4.16Q34.75 3.77 34.41 3.56Q34.07 3.35 33.42 3.35L33.42 3.35Q33.15 3.35 32.80 3.41Q32.45 3.47 31.90 3.63L31.90 3.63L31.90 2.84Q32.40 2.73 32.83 2.67Q33.27 2.60 33.65 2.60L33.65 2.60Q34.63 2.60 35.21 3.01Q35.79 3.41 35.79 4.09L35.79 4.09Q35.79 4.56 35.48 4.89Q35.17 5.22 34.61 5.34ZM39.90 6.41L39.90 3.55L37.79 6.41L39.90 6.41ZM37.07 6.33L39.75 2.72L40.89 2.72L40.89 6.41L41.81 6.41L41.81 7.16L40.89 7.16L40.89 8.43L39.90 8.43L39.90 7.16L37.07 7.16L37.07 6.33Z"></path></svg>