<svg height="16.296875" width="36.640625" xmlns="http://www.w3.org/2000/svg" ><path d="M1.30 3.17L2.56 3.17L2.56 5.34L5.15 5.34L5.15 6.32L2.56 6.32L2.56 10.47Q2.56 11.41 2.82 11.68Q3.08 11.94 3.86 11.94L3.86 11.94L5.15 11.94L5.15 13.00L3.86 13.00Q2.41 13.00 1.85 12.45Q1.30 11.91 1.30 10.47L1.30 10.47L1.30 6.32L0.38 6.32L0.38 5.34L1.30 5.34L1.30 3.17ZM12.32 5.63L12.32 5.63L12.32 6.81Q11.79 6.51 11.25 6.37Q10.71 6.22 10.17 6.22L10.17 6.22Q8.94 6.22 8.26 7.00Q7.59 7.77 7.59 9.17L7.59 9.17Q7.59 10.58 8.26 11.35L8.26 11.35Q8.31 11.41 8.35 11.45L8.35 11.45Q8.62 10.90 9.04 10.60L9.04 10.60Q9.54 10.25 10.27 10.25L10.27 10.25Q11.38 10.25 11.89 10.74L11.89 10.74Q12.32 11.16 12.32 11.76L12.32 11.76Q12.32 12.62 11.67 12.94L11.67 12.94Q11.10 13.22 10.04 13.22L10.04 13.22Q9.50 13.22 9.00 13.10L9.00 13.10Q8.96 13.49 8.96 13.96L8.96 13.96L7.91 13.96Q7.91 13.25 7.99 12.69L7.99 12.69Q7.60 12.46 7.28 12.11L7.28 12.11Q6.26 11.01 6.26 9.17L6.26 9.17Q6.26 7.30 7.29 6.23Q8.32 5.15 10.11 5.15L10.11 5.15Q10.69 5.15 11.25 5.27Q11.80 5.39 12.32 5.63ZM9.24 12.00L9.24 12.00Q9.64 12.13 10.17 12.13L10.17 12.13Q11.16 12.13 11.16 11.74L11.16 11.74Q11.16 11.22 10.26 11.22L10.26 11.22Q9.57 11.22 9.24 12.00ZM14.51 13.00L14.51 5.34L15.76 5.34L15.76 13.00L14.51 13.00ZM14.51 3.95L14.51 2.36L15.76 2.36L15.76 3.95L14.51 3.95ZM19.22 5.34L21.25 8.07L23.28 5.34L24.76 5.34L22.04 8.99Q22.52 9.66 22.83 10.18L22.83 10.18Q23.30 11.00 23.30 11.42L23.30 11.42Q23.30 12.31 22.78 12.75Q22.27 13.19 21.25 13.19L21.25 13.19Q20.22 13.19 19.71 12.75Q19.20 12.31 19.20 11.42L19.20 11.42Q19.20 11.00 19.67 10.18L19.67 10.18Q19.97 9.66 20.45 8.99L20.45 8.99L17.73 5.34L19.22 5.34ZM21.25 12.13L21.25 12.13Q21.70 12.13 21.92 11.94L21.92 11.94Q22.11 11.78 22.11 11.47L22.11 11.47Q22.11 11.25 21.84 10.81L21.84 10.81Q21.63 10.47 21.25 9.99L21.25 9.99Q20.86 10.47 20.65 10.81L20.65 10.81Q20.38 11.25 20.38 11.47L20.38 11.47Q20.38 11.78 20.58 11.94L20.58 11.94Q20.79 12.13 21.25 12.13ZM26.39 5.58L26.39 2.72L29.87 2.72L29.87 3.37L27.20 3.37L27.20 4.76Q27.39 4.70 27.59 4.68L27.59 4.68Q27.78 4.65 27.97 4.65L27.97 4.65Q29.07 4.65 29.72 5.17L29.72 5.17Q30.36 5.69 30.36 6.59L30.36 6.59Q30.36 7.51 29.70 8.03L29.70 8.03Q29.04 8.53 27.84 8.53L27.84 8.53Q27.43 8.53 27.00 8.47Q26.56 8.41 26.11 8.29L26.11 8.29L26.11 7.51Q26.50 7.70 26.93 7.79L26.93 7.79Q27.35 7.88 27.82 7.88L27.82 7.88Q28.58 7.88 29.03 7.53Q29.47 7.18 29.47 6.59Q29.47 6.00 29.03 5.65Q28.58 5.30 27.82 5.30L27.82 5.30Q27.47 5.30 27.11 5.37Q26.76 5.43 26.39 5.58L26.39 5.58ZM34.61 5.34L34.61 5.34Q35.24 5.46 35.58 5.83Q35.93 6.21 35.93 6.77L35.93 6.77Q35.93 7.62 35.28 8.07Q34.63 8.53 33.42 8.53L33.42 8.53Q33.03 8.53 32.60 8.46Q32.18 8.39 31.70 8.25L31.70 8.25L31.70 7.42Q32.05 7.61 32.46 7.70Q32.87 7.79 33.33 7.79L33.33 7.79Q34.07 7.79 34.48 7.52Q34.89 7.25 34.89 6.77L34.89 6.77Q34.89 6.26 34.51 6.00Q34.13 5.74 33.39 5.74L33.39 5.74L32.81 5.74L32.81 5.00L33.45 5.00Q34.09 5.00 34.42 4.79Q34.75 4.57 34.75 4.16L34.75 4.16Q34.75 3.77 34.41 3.56Q34.07 3.35 33.42 3.35L33.42 3.35Q33.15 3.35 32.80 3.41Q32.45 3.47 31.90 3.63L31.90 3.63L31.90 2.84Q32.40 2.73 32.83 2.67Q33.27 2.60 33.65 2.60L33.65 2.60Q34.63 2.60 35.21 3.01Q35.79 3.41 35.79 4.09L35.79 4.09Q35.79 4.56 35.48 4.89Q35.17 5.22 34.61 5.34Z"></path></svg>