<svg height="16.296875" width="42.7861328125" xmlns="http://www.w3.org/2000/svg" ><path d="M1.30 3.17L2.56 3.17L2.56 5.34L5.15 5.34L5.15 6.32L2.56 6.32L2.56 10.47Q2.56 11.41 2.82 11.68Q3.08 11.94 3.86 11.94L3.86 11.94L5.15 11.94L5.15 13.00L3.86 13.00Q2.41 13.00 1.85 12.45Q1.30 11.91 1.30 10.47L1.30 10.47L1.30 6.32L0.38 6.32L0.38 5.34L1.30 5.34L1.30 3.17ZM12.32 5.63L12.32 5.63L12.32 6.81Q11.79 6.51 11.25 6.37Q10.71 6.22 10.17 6.22L10.17 6.22Q8.94 6.22 8.26 7.00Q7.59 7.77 7.59 9.17L7.59 9.17Q7.59 10.58 8.26 11.35L8.26 11.35Q8.31 11.41 8.35 11.45L8.35 11.45Q8.62 10.90 9.04 10.60L9.04 10.60Q9.54 10.25 10.27 10.25L10.27 10.25Q11.38 10.25 11.89 10.74L11.89 10.74Q12.32 11.16 12.32 11.76L12.32 11.76Q12.32 12.62 11.67 12.94L11.67 12.94Q11.10 13.22 10.04 13.22L10.04 13.22Q9.50 13.22 9.00 13.10L9.00 13.10Q8.96 13.49 8.96 13.96L8.96 13.96L7.91 13.96Q7.91 13.25 7.99 12.69L7.99 12.69Q7.60 12.46 7.28 12.11L7.28 12.11Q6.26 11.01 6.26 9.17L6.26 9.17Q6.26 7.30 7.29 6.23Q8.32 5.15 10.11 5.15L10.11 5.15Q10.69 5.15 11.25 5.27Q11.80 5.39 12.32 5.63ZM9.24 12.00L9.24 12.00Q9.64 12.13 10.17 12.13L10.17 12.13Q11.16 12.13 11.16 11.74L11.16 11.74Q11.16 11.22 10.26 11.22L10.26 11.22Q9.57 11.22 9.24 12.00ZM14.51 13.00L14.51 5.34L15.76 5.34L15.76 13.00L14.51 13.00ZM14.51 3.95L14.51 2.36L15.76 2.36L15.76 3.95L14.51 3.95ZM24.76 8.37L24.76 8.37L24.76 13.00L23.50 13.00L23.50 8.42Q23.50 7.33 23.08 6.79Q22.65 6.25 21.81 6.25L21.81 6.25Q20.79 6.25 20.20 6.90Q19.61 7.55 19.61 8.67L19.61 8.67L19.61 13.00L18.35 13.00L18.35 5.34L19.61 5.34L19.61 6.53Q20.06 5.84 20.68 5.50Q21.29 5.15 22.09 5.15L22.09 5.15Q23.41 5.15 24.08 5.97Q24.76 6.79 24.76 8.37ZM29.53 5.34L29.53 5.34Q30.16 5.46 30.51 5.83Q30.85 6.21 30.85 6.77L30.85 6.77Q30.85 7.62 30.20 8.07Q29.55 8.53 28.34 8.53L28.34 8.53Q27.95 8.53 27.52 8.46Q27.10 8.39 26.62 8.25L26.62 8.25L26.62 7.42Q26.97 7.61 27.38 7.70Q27.79 7.79 28.25 7.79L28.25 7.79Q28.99 7.79 29.40 7.52Q29.81 7.25 29.81 6.77L29.81 6.77Q29.81 6.26 29.43 6.00Q29.05 5.74 28.31 5.74L28.31 5.74L27.73 5.74L27.73 5.00L28.37 5.00Q29.01 5.00 29.34 4.79Q29.67 4.57 29.67 4.16L29.67 4.16Q29.67 3.77 29.33 3.56Q28.99 3.35 28.34 3.35L28.34 3.35Q28.07 3.35 27.72 3.41Q27.37 3.47 26.82 3.63L26.82 3.63L26.82 2.84Q27.32 2.73 27.75 2.67Q28.19 2.60 28.57 2.60L28.57 2.60Q29.55 2.60 30.13 3.01Q30.71 3.41 30.71 4.09L30.71 4.09Q30.71 4.56 30.40 4.89Q30.09 5.22 29.53 5.34ZM35.14 5.34L35.14 5.34Q35.77 5.46 36.12 5.83Q36.46 6.21 36.46 6.77L36.46 6.77Q36.46 7.62 35.81 8.07Q35.16 8.53 33.95 8.53L33.95 8.53Q33.56 8.53 33.14 8.46Q32.71 8.39 32.23 8.25L32.23 8.25L32.23 7.42Q32.59 7.61 32.99 7.70Q33.40 7.79 33.86 7.79L33.86 7.79Q34.60 7.79 35.01 7.52Q35.42 7.25 35.42 6.77L35.42 6.77Q35.42 6.26 35.04 6.00Q34.67 5.74 33.93 5.74L33.93 5.74L33.34 5.74L33.34 5.00L33.98 5.00Q34.62 5.00 34.96 4.79Q35.29 4.57 35.29 4.16L35.29 4.16Q35.29 3.77 34.95 3.56Q34.60 3.35 33.95 3.35L33.95 3.35Q33.68 3.35 33.33 3.41Q32.98 3.47 32.43 3.63L32.43 3.63L32.43 2.84Q32.93 2.73 33.37 2.67Q33.80 2.60 34.18 2.60L34.18 2.60Q35.16 2.60 35.74 3.01Q36.32 3.41 36.32 4.09L36.32 4.09Q36.32 4.56 36.01 4.89Q35.70 5.22 35.14 5.34ZM40.43 6.41L40.43 3.55L38.32 6.41L40.43 6.41ZM37.60 6.33L40.28 2.72L41.42 2.72L41.42 6.41L42.34 6.41L42.34 7.16L41.42 7.16L41.42 8.43L40.43 8.43L40.43 7.16L37.60 7.16L37.60 6.33Z"></path></svg>