<svg height="16.296875" width="41.26171875" xmlns="http://www.w3.org/2000/svg" ><path d="M1.30 3.17L2.56 3.17L2.56 5.34L5.15 5.34L5.15 6.32L2.56 6.32L2.56 10.47Q2.56 11.41 2.82 11.68Q3.08 11.94 3.86 11.94L3.86 11.94L5.15 11.94L5.15 13.00L3.86 13.00Q2.41 13.00 1.85 12.45Q1.30 11.91 1.30 10.47L1.30 10.47L1.30 6.32L0.38 6.32L0.38 5.34L1.30 5.34L1.30 3.17ZM12.32 5.63L12.32 5.63L12.32 6.81Q11.79 6.51 11.25 6.37Q10.71 6.22 10.17 6.22L10.17 6.22Q8.94 6.22 8.26 7.00Q7.59 7.77 7.59 9.17L7.59 9.17Q7.59 10.58 8.26 11.35L8.26 11.35Q8.31 11.41 8.35 11.45L8.35 11.45Q8.62 10.90 9.04 10.60L9.04 10.60Q9.54 10.25 10.27 10.25L10.27 10.25Q11.38 10.25 11.89 10.74L11.89 10.74Q12.32 11.16 12.32 11.76L12.32 11.76Q12.32 12.62 11.67 12.94L11.67 12.94Q11.10 13.22 10.04 13.22L10.04 13.22Q9.50 13.22 9.00 13.10L9.00 13.10Q8.96 13.49 8.96 13.96L8.96 13.96L7.91 13.96Q7.91 13.25 7.99 12.69L7.99 12.69Q7.60 12.46 7.28 12.11L7.28 12.11Q6.26 11.01 6.26 9.17L6.26 9.17Q6.26 7.30 7.29 6.23Q8.32 5.15 10.11 5.15L10.11 5.15Q10.69 5.15 11.25 5.27Q11.80 5.39 12.32 5.63ZM9.24 12.00L9.24 12.00Q9.64 12.13 10.17 12.13L10.17 12.13Q11.16 12.13 11.16 11.74L11.16 11.74Q11.16 11.22 10.26 11.22L10.26 11.22Q9.57 11.22 9.24 12.00ZM21.05 5.34L17.69 13.71Q17.16 15.07 16.65 15.49Q16.15 15.91 15.30 15.91L15.30 15.91L14.29 15.91L14.29 14.85L15.03 14.85Q15.55 14.85 15.84 14.61Q16.13 14.36 16.47 13.45L16.47 13.45L16.70 12.87L13.60 5.34L14.94 5.34L17.33 11.33L19.72 5.34L21.05 5.34ZM27.66 7.52L27.66 7.52L24.33 11.57Q24.61 11.85 24.96 11.99Q25.31 12.13 25.76 12.13L25.76 12.13Q26.76 12.13 27.35 11.33Q27.94 10.54 27.94 9.17L27.94 9.17Q27.94 8.63 27.87 8.23Q27.80 7.83 27.66 7.52ZM23.84 10.83L27.17 6.78Q26.89 6.50 26.53 6.36Q26.18 6.22 25.76 6.22L25.76 6.22Q24.73 6.22 24.15 7.02Q23.57 7.83 23.57 9.27L23.57 9.27Q23.57 9.76 23.64 10.14Q23.70 10.51 23.84 10.83L23.84 10.83ZM21.96 13.10L22.98 11.86Q22.61 11.33 22.43 10.66Q22.24 9.99 22.24 9.17L22.24 9.17Q22.24 7.29 23.18 6.22Q24.11 5.15 25.76 5.15L25.76 5.15Q26.39 5.15 26.94 5.33Q27.48 5.50 27.94 5.86L27.94 5.86L28.89 4.71L29.54 5.25L28.54 6.47Q28.90 7 29.09 7.68Q29.27 8.35 29.27 9.17L29.27 9.17Q29.27 11.05 28.33 12.12Q27.40 13.19 25.76 13.19L25.76 13.19Q25.10 13.19 24.55 13.02Q24.00 12.84 23.57 12.49L23.57 12.49L22.62 13.64L21.96 13.10ZM31.01 5.58L31.01 2.72L34.49 2.72L34.49 3.37L31.82 3.37L31.82 4.76Q32.01 4.70 32.21 4.68L32.21 4.68Q32.40 4.65 32.59 4.65L32.59 4.65Q33.69 4.65 34.34 5.17L34.34 5.17Q34.98 5.69 34.98 6.59L34.98 6.59Q34.98 7.51 34.32 8.03L34.32 8.03Q33.66 8.53 32.46 8.53L32.46 8.53Q32.05 8.53 31.62 8.47Q31.19 8.41 30.73 8.29L30.73 8.29L30.73 7.51Q31.12 7.70 31.55 7.79L31.55 7.79Q31.97 7.88 32.44 7.88L32.44 7.88Q33.20 7.88 33.65 7.53Q34.09 7.18 34.09 6.59Q34.09 6.00 33.65 5.65Q33.20 5.30 32.44 5.30L32.44 5.30Q32.09 5.30 31.73 5.37Q31.38 5.43 31.01 5.58L31.01 5.58ZM39.23 5.34L39.23 5.34Q39.86 5.46 40.21 5.83Q40.55 6.21 40.55 6.77L40.55 6.77Q40.55 7.62 39.90 8.07Q39.25 8.53 38.04 8.53L38.04 8.53Q37.65 8.53 37.23 8.46Q36.80 8.39 36.32 8.25L36.32 8.25L36.32 7.42Q36.67 7.61 37.08 7.70Q37.49 7.79 37.95 7.79L37.95 7.79Q38.69 7.79 39.10 7.52Q39.51 7.25 39.51 6.77L39.51 6.77Q39.51 6.26 39.13 6.00Q38.75 5.74 38.01 5.74L38.01 5.74L37.43 5.74L37.43 5.00L38.07 5.00Q38.71 5.00 39.04 4.79Q39.38 4.57 39.38 4.16L39.38 4.16Q39.38 3.77 39.03 3.56Q38.69 3.35 38.04 3.35L38.04 3.35Q37.77 3.35 37.42 3.41Q37.07 3.47 36.52 3.63L36.52 3.63L36.52 2.84Q37.02 2.73 37.45 2.67Q37.89 2.60 38.27 2.60L38.27 2.60Q39.25 2.60 39.83 3.01Q40.41 3.41 40.41 4.09L40.41 4.09Q40.41 4.56 40.10 4.89Q39.79 5.22 39.23 5.34Z"></path></svg>