<svg height="16.296875" width="45.7392578125" xmlns="http://www.w3.org/2000/svg" ><path d="M1.30 3.17L2.56 3.17L2.56 5.34L5.15 5.34L5.15 6.32L2.56 6.32L2.56 10.47Q2.56 11.41 2.82 11.68Q3.08 11.94 3.86 11.94L3.86 11.94L5.15 11.94L5.15 13.00L3.86 13.00Q2.41 13.00 1.85 12.45Q1.30 11.91 1.30 10.47L1.30 10.47L1.30 6.32L0.38 6.32L0.38 5.34L1.30 5.34L1.30 3.17ZM12.32 5.63L12.32 5.63L12.32 6.81Q11.79 6.51 11.25 6.37Q10.71 6.22 10.17 6.22L10.17 6.22Q8.94 6.22 8.26 7.00Q7.59 7.77 7.59 9.17L7.59 9.17Q7.59 10.58 8.26 11.35L8.26 11.35Q8.31 11.41 8.35 11.45L8.35 11.45Q8.62 10.90 9.04 10.60L9.04 10.60Q9.54 10.25 10.27 10.25L10.27 10.25Q11.38 10.25 11.89 10.74L11.89 10.74Q12.32 11.16 12.32 11.76L12.32 11.76Q12.32 12.62 11.67 12.94L11.67 12.94Q11.10 13.22 10.04 13.22L10.04 13.22Q9.50 13.22 9.00 13.10L9.00 13.10Q8.96 13.49 8.96 13.96L8.96 13.96L7.91 13.96Q7.91 13.25 7.99 12.69L7.99 12.69Q7.60 12.46 7.28 12.11L7.28 12.11Q6.26 11.01 6.26 9.17L6.26 9.17Q6.26 7.30 7.29 6.23Q8.32 5.15 10.11 5.15L10.11 5.15Q10.69 5.15 11.25 5.27Q11.80 5.39 12.32 5.63ZM9.24 12.00L9.24 12.00Q9.64 12.13 10.17 12.13L10.17 12.13Q11.16 12.13 11.16 11.74L11.16 11.74Q11.16 11.22 10.26 11.22L10.26 11.22Q9.57 11.22 9.24 12.00ZM14.51 13.00L14.51 5.34L15.76 5.34L15.76 13.00L14.51 13.00ZM14.51 3.95L14.51 2.36L15.76 2.36L15.76 3.95L14.51 3.95ZM21.36 6.22L21.36 6.22Q20.35 6.22 19.76 7.01Q19.17 7.80 19.17 9.17L19.17 9.17Q19.17 10.55 19.76 11.34Q20.34 12.13 21.36 12.13L21.36 12.13Q22.37 12.13 22.96 11.33Q23.54 10.54 23.54 9.17L23.54 9.17Q23.54 7.81 22.96 7.02Q22.37 6.22 21.36 6.22ZM21.36 5.15L21.36 5.15Q23.00 5.15 23.94 6.22Q24.88 7.29 24.88 9.17L24.88 9.17Q24.88 11.05 23.94 12.12Q23.00 13.19 21.36 13.19L21.36 13.19Q19.71 13.19 18.78 12.12Q17.85 11.05 17.85 9.17L17.85 9.17Q17.85 7.29 18.78 6.22Q19.71 5.15 21.36 5.15ZM33.33 8.37L33.33 8.37L33.33 13.13Q33.33 14.59 32.76 15.25L32.76 15.25Q32.21 15.91 30.97 15.91L30.97 15.91L29.24 15.91L29.24 14.84L30.83 14.84Q31.55 14.84 31.81 14.51L31.81 14.51Q32.07 14.18 32.07 13.13L32.07 13.13L32.07 8.42Q32.07 7.33 31.64 6.79Q31.22 6.25 30.37 6.25L30.37 6.25Q29.35 6.25 28.77 6.90Q28.18 7.55 28.18 8.67L28.18 8.67L28.18 13.00L26.91 13.00L26.91 5.34L28.18 5.34L28.18 6.53Q28.63 5.84 29.24 5.50L29.24 5.50Q29.85 5.15 30.65 5.15L30.65 5.15Q31.97 5.15 32.65 5.97L32.65 5.97Q33.33 6.79 33.33 8.37ZM35.49 5.58L35.49 2.72L38.97 2.72L38.97 3.37L36.30 3.37L36.30 4.76Q36.49 4.70 36.69 4.68L36.69 4.68Q36.88 4.65 37.07 4.65L37.07 4.65Q38.17 4.65 38.81 5.17L38.81 5.17Q39.46 5.69 39.46 6.59L39.46 6.59Q39.46 7.51 38.79 8.03L38.79 8.03Q38.14 8.53 36.93 8.53L36.93 8.53Q36.52 8.53 36.09 8.47Q35.66 8.41 35.21 8.29L35.21 8.29L35.21 7.51Q35.60 7.70 36.03 7.79L36.03 7.79Q36.45 7.88 36.92 7.88L36.92 7.88Q37.68 7.88 38.12 7.53Q38.57 7.18 38.57 6.59Q38.57 6.00 38.12 5.65Q37.68 5.30 36.92 5.30L36.92 5.30Q36.57 5.30 36.21 5.37Q35.85 5.43 35.49 5.58L35.49 5.58ZM43.71 5.34L43.71 5.34Q44.34 5.46 44.68 5.83Q45.03 6.21 45.03 6.77L45.03 6.77Q45.03 7.62 44.38 8.07Q43.73 8.53 42.52 8.53L42.52 8.53Q42.13 8.53 41.70 8.46Q41.28 8.39 40.80 8.25L40.80 8.25L40.80 7.42Q41.15 7.61 41.56 7.70Q41.97 7.79 42.42 7.79L42.42 7.79Q43.17 7.79 43.58 7.52Q43.99 7.25 43.99 6.77L43.99 6.77Q43.99 6.26 43.61 6.00Q43.23 5.74 42.49 5.74L42.49 5.74L41.90 5.74L41.90 5.00L42.55 5.00Q43.19 5.00 43.52 4.79Q43.85 4.57 43.85 4.16L43.85 4.16Q43.85 3.77 43.51 3.56Q43.17 3.35 42.52 3.35L42.52 3.35Q42.25 3.35 41.90 3.41Q41.55 3.47 41.00 3.63L41.00 3.63L41.00 2.84Q41.49 2.73 41.93 2.67Q42.37 2.60 42.75 2.60L42.75 2.60Q43.73 2.60 44.31 3.01Q44.88 3.41 44.88 4.09L44.88 4.09Q44.88 4.56 44.58 4.89Q44.27 5.22 43.71 5.34Z"></path></svg>