<svg height="16.296875" width="44.009765625" xmlns="http://www.w3.org/2000/svg" ><path d="M1.30 3.17L2.56 3.17L2.56 5.34L5.15 5.34L5.15 6.32L2.56 6.32L2.56 10.47Q2.56 11.41 2.82 11.68Q3.08 11.94 3.86 11.94L3.86 11.94L5.15 11.94L5.15 13.00L3.86 13.00Q2.41 13.00 1.85 12.45Q1.30 11.91 1.30 10.47L1.30 10.47L1.30 6.32L0.38 6.32L0.38 5.34L1.30 5.34L1.30 3.17ZM12.32 5.63L12.32 5.63L12.32 6.81Q11.79 6.51 11.25 6.37Q10.71 6.22 10.17 6.22L10.17 6.22Q8.94 6.22 8.26 7.00Q7.59 7.77 7.59 9.17L7.59 9.17Q7.59 10.58 8.26 11.35L8.26 11.35Q8.31 11.41 8.35 11.45L8.35 11.45Q8.62 10.90 9.04 10.60L9.04 10.60Q9.54 10.25 10.27 10.25L10.27 10.25Q11.38 10.25 11.89 10.74L11.89 10.74Q12.32 11.16 12.32 11.76L12.32 11.76Q12.32 12.62 11.67 12.94L11.67 12.94Q11.10 13.22 10.04 13.22L10.04 13.22Q9.50 13.22 9.00 13.10L9.00 13.10Q8.96 13.49 8.96 13.96L8.96 13.96L7.91 13.96Q7.91 13.25 7.99 12.69L7.99 12.69Q7.60 12.46 7.28 12.11L7.28 12.11Q6.26 11.01 6.26 9.17L6.26 9.17Q6.26 7.30 7.29 6.23Q8.32 5.15 10.11 5.15L10.11 5.15Q10.69 5.15 11.25 5.27Q11.80 5.39 12.32 5.63ZM9.24 12.00L9.24 12.00Q9.64 12.13 10.17 12.13L10.17 12.13Q11.16 12.13 11.16 11.74L11.16 11.74Q11.16 11.22 10.26 11.22L10.26 11.22Q9.57 11.22 9.24 12.00ZM14.51 13.00L14.51 5.34L15.76 5.34L15.76 13.00L14.51 13.00ZM14.51 3.95L14.51 2.36L15.76 2.36L15.76 3.95L14.51 3.95ZM21.36 6.22L21.36 6.22Q20.35 6.22 19.76 7.01Q19.17 7.80 19.17 9.17L19.17 9.17Q19.17 10.55 19.76 11.34Q20.34 12.13 21.36 12.13L21.36 12.13Q22.37 12.13 22.96 11.33Q23.54 10.54 23.54 9.17L23.54 9.17Q23.54 7.81 22.96 7.02Q22.37 6.22 21.36 6.22ZM21.36 5.15L21.36 5.15Q23.00 5.15 23.94 6.22Q24.88 7.29 24.88 9.17L24.88 9.17Q24.88 11.05 23.94 12.12Q23.00 13.19 21.36 13.19L21.36 13.19Q19.71 13.19 18.78 12.12Q17.85 11.05 17.85 9.17L17.85 9.17Q17.85 7.29 18.78 6.22Q19.71 5.15 21.36 5.15ZM27.97 13.00L27.97 7.54L28.40 7.54Q29.71 7.54 30.30 6.76L30.30 6.76Q30.69 6.24 30.69 5.57L30.69 5.57Q30.69 4.66 30.30 4.22L30.30 4.22Q29.62 3.44 28.40 3.44L28.40 3.44Q27.85 3.44 27.31 3.59L27.31 3.59Q26.78 3.73 26.24 4.03L26.24 4.03L26.24 2.85Q26.76 2.61 27.32 2.50L27.32 2.50Q27.87 2.37 28.45 2.37L28.45 2.37Q30.33 2.37 31.27 3.45L31.27 3.45Q32.02 4.30 32.02 5.57L32.02 5.57Q32.02 6.73 31.28 7.52L31.28 7.52Q30.52 8.33 29.35 8.54L29.35 8.54L29.35 13.00L27.97 13.00ZM33.76 5.58L33.76 2.72L37.24 2.72L37.24 3.37L34.57 3.37L34.57 4.76Q34.76 4.70 34.96 4.68L34.96 4.68Q35.15 4.65 35.34 4.65L35.34 4.65Q36.44 4.65 37.08 5.17L37.08 5.17Q37.73 5.69 37.73 6.59L37.73 6.59Q37.73 7.51 37.06 8.03L37.06 8.03Q36.41 8.53 35.21 8.53L35.21 8.53Q34.79 8.53 34.36 8.47Q33.93 8.41 33.48 8.29L33.48 8.29L33.48 7.51Q33.87 7.70 34.30 7.79L34.30 7.79Q34.72 7.88 35.19 7.88L35.19 7.88Q35.95 7.88 36.39 7.53Q36.84 7.18 36.84 6.59Q36.84 6.00 36.39 5.65Q35.95 5.30 35.19 5.30L35.19 5.30Q34.84 5.30 34.48 5.37Q34.13 5.43 33.76 5.58L33.76 5.58ZM39.37 5.58L39.37 2.72L42.85 2.72L42.85 3.37L40.18 3.37L40.18 4.76Q40.37 4.70 40.57 4.68L40.57 4.68Q40.76 4.65 40.95 4.65L40.95 4.65Q42.05 4.65 42.70 5.17L42.70 5.17Q43.34 5.69 43.34 6.59L43.34 6.59Q43.34 7.51 42.68 8.03L42.68 8.03Q42.02 8.53 40.82 8.53L40.82 8.53Q40.41 8.53 39.98 8.47Q39.55 8.41 39.09 8.29L39.09 8.29L39.09 7.51Q39.48 7.70 39.91 7.79L39.91 7.79Q40.33 7.88 40.80 7.88L40.80 7.88Q41.56 7.88 42.01 7.53Q42.45 7.18 42.45 6.59Q42.45 6.00 42.01 5.65Q41.56 5.30 40.80 5.30L40.80 5.30Q40.45 5.30 40.09 5.37Q39.74 5.43 39.37 5.58L39.37 5.58Z"></path></svg>