<svg height="16.296875" width="40.646484375" xmlns="http://www.w3.org/2000/svg" ><path d="M1.30 3.17L2.56 3.17L2.56 5.34L5.15 5.34L5.15 6.32L2.56 6.32L2.56 10.47Q2.56 11.41 2.82 11.68Q3.08 11.94 3.86 11.94L3.86 11.94L5.15 11.94L5.15 13.00L3.86 13.00Q2.41 13.00 1.85 12.45Q1.30 11.91 1.30 10.47L1.30 10.47L1.30 6.32L0.38 6.32L0.38 5.34L1.30 5.34L1.30 3.17ZM12.32 5.63L12.32 5.63L12.32 6.81Q11.79 6.51 11.25 6.37Q10.71 6.22 10.17 6.22L10.17 6.22Q8.94 6.22 8.26 7.00Q7.59 7.77 7.59 9.17L7.59 9.17Q7.59 10.58 8.26 11.35L8.26 11.35Q8.31 11.41 8.35 11.45L8.35 11.45Q8.62 10.90 9.04 10.60L9.04 10.60Q9.54 10.25 10.27 10.25L10.27 10.25Q11.38 10.25 11.89 10.74L11.89 10.74Q12.32 11.16 12.32 11.76L12.32 11.76Q12.32 12.62 11.67 12.94L11.67 12.94Q11.10 13.22 10.04 13.22L10.04 13.22Q9.50 13.22 9.00 13.10L9.00 13.10Q8.96 13.49 8.96 13.96L8.96 13.96L7.91 13.96Q7.91 13.25 7.99 12.69L7.99 12.69Q7.60 12.46 7.28 12.11L7.28 12.11Q6.26 11.01 6.26 9.17L6.26 9.17Q6.26 7.30 7.29 6.23Q8.32 5.15 10.11 5.15L10.11 5.15Q10.69 5.15 11.25 5.27Q11.80 5.39 12.32 5.63ZM9.24 12.00L9.24 12.00Q9.64 12.13 10.17 12.13L10.17 12.13Q11.16 12.13 11.16 11.74L11.16 11.74Q11.16 11.22 10.26 11.22L10.26 11.22Q9.57 11.22 9.24 12.00ZM14.51 13.00L14.51 5.34L15.76 5.34L15.76 13.00L14.51 13.00ZM14.51 3.95L14.51 2.36L15.76 2.36L15.76 3.95L14.51 3.95ZM19.07 6.46L17.87 6.46L17.87 5.34L21.48 5.34L21.48 6.46L20.33 6.46L20.33 11.87L21.48 11.87L21.48 13.00L17.87 13.00L17.87 11.87L19.07 11.87L19.07 6.46ZM24.61 13.00L24.60 7.54L25.03 7.54Q26.35 7.54 26.93 6.76L26.93 6.76Q27.33 6.24 27.33 5.57L27.33 5.57Q27.32 4.66 26.93 4.22L26.93 4.22Q26.26 3.44 25.03 3.44L25.03 3.44Q24.49 3.44 23.95 3.59L23.95 3.59Q23.41 3.73 22.88 4.03L22.88 4.03L22.88 2.85Q23.40 2.61 23.95 2.50L23.95 2.50Q24.51 2.37 25.09 2.37L25.09 2.37Q26.97 2.37 27.91 3.45L27.91 3.45Q28.66 4.30 28.66 5.57L28.66 5.57Q28.66 6.73 27.92 7.52L27.92 7.52Q27.15 8.33 25.99 8.54L25.99 8.54L25.99 13.00L24.61 13.00ZM30.39 5.58L30.39 2.72L33.88 2.72L33.88 3.37L31.21 3.37L31.21 4.76Q31.40 4.70 31.60 4.68L31.60 4.68Q31.79 4.65 31.98 4.65L31.98 4.65Q33.08 4.65 33.72 5.17L33.72 5.17Q34.36 5.69 34.36 6.59L34.36 6.59Q34.36 7.51 33.70 8.03L33.70 8.03Q33.04 8.53 31.84 8.53L31.84 8.53Q31.43 8.53 31.00 8.47Q30.57 8.41 30.12 8.29L30.12 8.29L30.12 7.51Q30.51 7.70 30.93 7.79L30.93 7.79Q31.36 7.88 31.83 7.88L31.83 7.88Q32.59 7.88 33.03 7.53Q33.48 7.18 33.48 6.59Q33.48 6.00 33.03 5.65Q32.59 5.30 31.83 5.30L31.83 5.30Q31.47 5.30 31.12 5.37Q30.76 5.43 30.39 5.58L30.39 5.58ZM36.00 5.58L36.00 2.72L39.49 2.72L39.49 3.37L36.82 3.37L36.82 4.76Q37.01 4.70 37.21 4.68L37.21 4.68Q37.40 4.65 37.59 4.65L37.59 4.65Q38.69 4.65 39.33 5.17L39.33 5.17Q39.98 5.69 39.98 6.59L39.98 6.59Q39.98 7.51 39.31 8.03L39.31 8.03Q38.66 8.53 37.45 8.53L37.45 8.53Q37.04 8.53 36.61 8.47Q36.18 8.41 35.73 8.29L35.73 8.29L35.73 7.51Q36.12 7.70 36.54 7.79L36.54 7.79Q36.97 7.88 37.44 7.88L37.44 7.88Q38.20 7.88 38.64 7.53Q39.09 7.18 39.09 6.59Q39.09 6.00 38.64 5.65Q38.20 5.30 37.44 5.30L37.44 5.30Q37.08 5.30 36.73 5.37Q36.37 5.43 36.00 5.58L36.00 5.58Z"></path></svg>