<svg height="16.296875" width="38.30859375" xmlns="http://www.w3.org/2000/svg" ><path d="M1.30 3.17L2.56 3.17L2.56 5.34L5.15 5.34L5.15 6.32L2.56 6.32L2.56 10.47Q2.56 11.41 2.82 11.68Q3.08 11.94 3.86 11.94L3.86 11.94L5.15 11.94L5.15 13.00L3.86 13.00Q2.41 13.00 1.85 12.45Q1.30 11.91 1.30 10.47L1.30 10.47L1.30 6.32L0.38 6.32L0.38 5.34L1.30 5.34L1.30 3.17ZM12.32 5.63L12.32 5.63L12.32 6.81Q11.79 6.51 11.25 6.37Q10.71 6.22 10.17 6.22L10.17 6.22Q8.94 6.22 8.26 7.00Q7.59 7.77 7.59 9.17L7.59 9.17Q7.59 10.58 8.26 11.35L8.26 11.35Q8.31 11.41 8.35 11.45L8.35 11.45Q8.62 10.90 9.04 10.60L9.04 10.60Q9.54 10.25 10.27 10.25L10.27 10.25Q11.38 10.25 11.89 10.74L11.89 10.74Q12.32 11.16 12.32 11.76L12.32 11.76Q12.32 12.62 11.67 12.94L11.67 12.94Q11.10 13.22 10.04 13.22L10.04 13.22Q9.50 13.22 9.00 13.10L9.00 13.10Q8.96 13.49 8.96 13.96L8.96 13.96L7.91 13.96Q7.91 13.25 7.99 12.69L7.99 12.69Q7.60 12.46 7.28 12.11L7.28 12.11Q6.26 11.01 6.26 9.17L6.26 9.17Q6.26 7.30 7.29 6.23Q8.32 5.15 10.11 5.15L10.11 5.15Q10.69 5.15 11.25 5.27Q11.80 5.39 12.32 5.63ZM9.24 12.00L9.24 12.00Q9.64 12.13 10.17 12.13L10.17 12.13Q11.16 12.13 11.16 11.74L11.16 11.74Q11.16 11.22 10.26 11.22L10.26 11.22Q9.57 11.22 9.24 12.00ZM21.05 5.34L17.69 13.71Q17.16 15.07 16.65 15.49Q16.15 15.91 15.30 15.91L15.30 15.91L14.29 15.91L14.29 14.85L15.03 14.85Q15.55 14.85 15.84 14.61Q16.13 14.36 16.47 13.45L16.47 13.45L16.70 12.87L13.60 5.34L14.94 5.34L17.33 11.33L19.72 5.34L21.05 5.34ZM25.05 5.34L25.05 5.34Q25.68 5.46 26.03 5.83Q26.37 6.21 26.37 6.77L26.37 6.77Q26.37 7.62 25.72 8.07Q25.07 8.53 23.86 8.53L23.86 8.53Q23.47 8.53 23.05 8.46Q22.62 8.39 22.14 8.25L22.14 8.25L22.14 7.42Q22.50 7.61 22.90 7.70Q23.31 7.79 23.77 7.79L23.77 7.79Q24.51 7.79 24.92 7.52Q25.33 7.25 25.33 6.77L25.33 6.77Q25.33 6.26 24.95 6.00Q24.58 5.74 23.84 5.74L23.84 5.74L23.25 5.74L23.25 5.00L23.89 5.00Q24.53 5.00 24.87 4.79Q25.20 4.57 25.20 4.16L25.20 4.16Q25.20 3.77 24.86 3.56Q24.51 3.35 23.86 3.35L23.86 3.35Q23.59 3.35 23.24 3.41Q22.89 3.47 22.34 3.63L22.34 3.63L22.34 2.84Q22.84 2.73 23.28 2.67Q23.71 2.60 24.09 2.60L24.09 2.60Q25.07 2.60 25.65 3.01Q26.23 3.41 26.23 4.09L26.23 4.09Q26.23 4.56 25.92 4.89Q25.61 5.22 25.05 5.34ZM30.67 5.34L30.67 5.34Q31.29 5.46 31.64 5.83Q31.99 6.21 31.99 6.77L31.99 6.77Q31.99 7.62 31.34 8.07Q30.69 8.53 29.48 8.53L29.48 8.53Q29.09 8.53 28.66 8.46Q28.23 8.39 27.75 8.25L27.75 8.25L27.75 7.42Q28.11 7.61 28.52 7.70Q28.92 7.79 29.38 7.79L29.38 7.79Q30.13 7.79 30.54 7.52Q30.95 7.25 30.95 6.77L30.95 6.77Q30.95 6.26 30.57 6.00Q30.19 5.74 29.45 5.74L29.45 5.74L28.86 5.74L28.86 5.00L29.50 5.00Q30.15 5.00 30.48 4.79Q30.81 4.57 30.81 4.16L30.81 4.16Q30.81 3.77 30.47 3.56Q30.13 3.35 29.48 3.35L29.48 3.35Q29.20 3.35 28.85 3.41Q28.51 3.47 27.95 3.63L27.95 3.63L27.95 2.84Q28.45 2.73 28.89 2.67Q29.33 2.60 29.70 2.60L29.70 2.60Q30.69 2.60 31.26 3.01Q31.84 3.41 31.84 4.09L31.84 4.09Q31.84 4.56 31.53 4.89Q31.23 5.22 30.67 5.34ZM35.96 6.41L35.96 3.55L33.84 6.41L35.96 6.41ZM33.13 6.33L35.81 2.72L36.94 2.72L36.94 6.41L37.86 6.41L37.86 7.16L36.94 7.16L36.94 8.43L35.96 8.43L35.96 7.16L33.13 7.16L33.13 6.33Z"></path></svg>