<svg height="16.296875" width="47.181640625" xmlns="http://www.w3.org/2000/svg" ><path d="M1.30 3.17L2.56 3.17L2.56 5.34L5.15 5.34L5.15 6.32L2.56 6.32L2.56 10.47Q2.56 11.41 2.82 11.68Q3.08 11.94 3.86 11.94L3.86 11.94L5.15 11.94L5.15 13.00L3.86 13.00Q2.41 13.00 1.85 12.45Q1.30 11.91 1.30 10.47L1.30 10.47L1.30 6.32L0.38 6.32L0.38 5.34L1.30 5.34L1.30 3.17ZM12.32 5.63L12.32 5.63L12.32 6.81Q11.79 6.51 11.25 6.37Q10.71 6.22 10.17 6.22L10.17 6.22Q8.94 6.22 8.26 7.00Q7.59 7.77 7.59 9.17L7.59 9.17Q7.59 10.58 8.26 11.35L8.26 11.35Q8.31 11.41 8.35 11.45L8.35 11.45Q8.62 10.90 9.04 10.60L9.04 10.60Q9.54 10.25 10.27 10.25L10.27 10.25Q11.38 10.25 11.89 10.74L11.89 10.74Q12.32 11.16 12.32 11.76L12.32 11.76Q12.32 12.62 11.67 12.94L11.67 12.94Q11.10 13.22 10.04 13.22L10.04 13.22Q9.50 13.22 9.00 13.10L9.00 13.10Q8.96 13.49 8.96 13.96L8.96 13.96L7.91 13.96Q7.91 13.25 7.99 12.69L7.99 12.69Q7.60 12.46 7.28 12.11L7.28 12.11Q6.26 11.01 6.26 9.17L6.26 9.17Q6.26 7.30 7.29 6.23Q8.32 5.15 10.11 5.15L10.11 5.15Q10.69 5.15 11.25 5.27Q11.80 5.39 12.32 5.63ZM9.24 12.00L9.24 12.00Q9.64 12.13 10.17 12.13L10.17 12.13Q11.16 12.13 11.16 11.74L11.16 11.74Q11.16 11.22 10.26 11.22L10.26 11.22Q9.57 11.22 9.24 12.00ZM21.05 5.34L17.69 13.71Q17.16 15.07 16.65 15.49Q16.15 15.91 15.30 15.91L15.30 15.91L14.29 15.91L14.29 14.85L15.03 14.85Q15.55 14.85 15.84 14.61Q16.13 14.36 16.47 13.45L16.47 13.45L16.70 12.87L13.60 5.34L14.94 5.34L17.33 11.33L19.72 5.34L21.05 5.34ZM29.16 8.37L29.16 8.37L29.16 13.00L27.90 13.00L27.90 8.42Q27.90 7.33 27.47 6.79Q27.05 6.25 26.20 6.25L26.20 6.25Q25.18 6.25 24.60 6.90Q24.01 7.55 24.01 8.67L24.01 8.67L24.01 13.00L22.74 13.00L22.74 5.34L24.01 5.34L24.01 6.53Q24.46 5.84 25.07 5.50Q25.68 5.15 26.48 5.15L26.48 5.15Q27.80 5.15 28.48 5.97Q29.16 6.79 29.16 8.37ZM33.93 5.34L33.93 5.34Q34.56 5.46 34.90 5.83Q35.25 6.21 35.25 6.77L35.25 6.77Q35.25 7.62 34.60 8.07Q33.95 8.53 32.74 8.53L32.74 8.53Q32.35 8.53 31.92 8.46Q31.49 8.39 31.01 8.25L31.01 8.25L31.01 7.42Q31.37 7.61 31.78 7.70Q32.18 7.79 32.64 7.79L32.64 7.79Q33.39 7.79 33.80 7.52Q34.21 7.25 34.21 6.77L34.21 6.77Q34.21 6.26 33.83 6.00Q33.45 5.74 32.71 5.74L32.71 5.74L32.12 5.74L32.12 5.00L32.76 5.00Q33.41 5.00 33.74 4.79Q34.07 4.57 34.07 4.16L34.07 4.16Q34.07 3.77 33.73 3.56Q33.39 3.35 32.74 3.35L32.74 3.35Q32.46 3.35 32.12 3.41Q31.77 3.47 31.21 3.63L31.21 3.63L31.21 2.84Q31.71 2.73 32.15 2.67Q32.59 2.60 32.96 2.60L32.96 2.60Q33.95 2.60 34.52 3.01Q35.10 3.41 35.10 4.09L35.10 4.09Q35.10 4.56 34.79 4.89Q34.49 5.22 33.93 5.34ZM39.54 5.34L39.54 5.34Q40.17 5.46 40.51 5.83Q40.86 6.21 40.86 6.77L40.86 6.77Q40.86 7.62 40.21 8.07Q39.56 8.53 38.35 8.53L38.35 8.53Q37.96 8.53 37.53 8.46Q37.11 8.39 36.63 8.25L36.63 8.25L36.63 7.42Q36.98 7.61 37.39 7.70Q37.80 7.79 38.25 7.79L38.25 7.79Q39.00 7.79 39.41 7.52Q39.82 7.25 39.82 6.77L39.82 6.77Q39.82 6.26 39.44 6.00Q39.06 5.74 38.32 5.74L38.32 5.74L37.73 5.74L37.73 5.00L38.38 5.00Q39.02 5.00 39.35 4.79Q39.68 4.57 39.68 4.16L39.68 4.16Q39.68 3.77 39.34 3.56Q39.00 3.35 38.35 3.35L38.35 3.35Q38.08 3.35 37.73 3.41Q37.38 3.47 36.83 3.63L36.83 3.63L36.83 2.84Q37.32 2.73 37.76 2.67Q38.20 2.60 38.58 2.60L38.58 2.60Q39.56 2.60 40.14 3.01Q40.71 3.41 40.71 4.09L40.71 4.09Q40.71 4.56 40.41 4.89Q40.10 5.22 39.54 5.34ZM44.83 6.41L44.83 3.55L42.72 6.41L44.83 6.41ZM42 6.33L44.68 2.72L45.81 2.72L45.81 6.41L46.74 6.41L46.74 7.16L45.81 7.16L45.81 8.43L44.83 8.43L44.83 7.16L42 7.16L42 6.33Z"></path></svg>