<svg height="16.296875" width="45.0419921875" xmlns="http://www.w3.org/2000/svg" ><path d="M1.30 3.17L2.56 3.17L2.56 5.34L5.15 5.34L5.15 6.32L2.56 6.32L2.56 10.47Q2.56 11.41 2.82 11.68Q3.08 11.94 3.86 11.94L3.86 11.94L5.15 11.94L5.15 13.00L3.86 13.00Q2.41 13.00 1.85 12.45Q1.30 11.91 1.30 10.47L1.30 10.47L1.30 6.32L0.38 6.32L0.38 5.34L1.30 5.34L1.30 3.17ZM12.32 5.63L12.32 5.63L12.32 6.81Q11.79 6.51 11.25 6.37Q10.71 6.22 10.17 6.22L10.17 6.22Q8.94 6.22 8.26 7.00Q7.59 7.77 7.59 9.17L7.59 9.17Q7.59 10.58 8.26 11.35L8.26 11.35Q8.31 11.41 8.35 11.45L8.35 11.45Q8.62 10.90 9.04 10.60L9.04 10.60Q9.54 10.25 10.27 10.25L10.27 10.25Q11.38 10.25 11.89 10.74L11.89 10.74Q12.32 11.16 12.32 11.76L12.32 11.76Q12.32 12.62 11.67 12.94L11.67 12.94Q11.10 13.22 10.04 13.22L10.04 13.22Q9.50 13.22 9.00 13.10L9.00 13.10Q8.96 13.49 8.96 13.96L8.96 13.96L7.91 13.96Q7.91 13.25 7.99 12.69L7.99 12.69Q7.60 12.46 7.28 12.11L7.28 12.11Q6.26 11.01 6.26 9.17L6.26 9.17Q6.26 7.30 7.29 6.23Q8.32 5.15 10.11 5.15L10.11 5.15Q10.69 5.15 11.25 5.27Q11.80 5.39 12.32 5.63ZM9.24 12.00L9.24 12.00Q9.64 12.13 10.17 12.13L10.17 12.13Q11.16 12.13 11.16 11.74L11.16 11.74Q11.16 11.22 10.26 11.22L10.26 11.22Q9.57 11.22 9.24 12.00ZM21.05 5.34L17.69 13.71Q17.16 15.07 16.65 15.49Q16.15 15.91 15.30 15.91L15.30 15.91L14.29 15.91L14.29 14.85L15.03 14.85Q15.55 14.85 15.84 14.61Q16.13 14.36 16.47 13.45L16.47 13.45L16.70 12.87L13.60 5.34L14.94 5.34L17.33 11.33L19.72 5.34L21.05 5.34ZM23.47 6.46L22.26 6.46L22.26 5.34L25.87 5.34L25.87 6.46L24.73 6.46L24.73 11.87L25.87 11.87L25.87 13.00L22.26 13.00L22.26 11.87L23.47 11.87L23.47 6.46ZM29.00 13.00L29.00 7.54L29.43 7.54Q30.74 7.54 31.33 6.76L31.33 6.76Q31.73 6.24 31.73 5.57L31.73 5.57Q31.72 4.66 31.33 4.22L31.33 4.22Q30.65 3.44 29.43 3.44L29.43 3.44Q28.88 3.44 28.34 3.59L28.34 3.59Q27.81 3.73 27.28 4.03L27.28 4.03L27.28 2.85Q27.79 2.61 28.35 2.50L28.35 2.50Q28.90 2.37 29.48 2.37L29.48 2.37Q31.36 2.37 32.31 3.45L32.31 3.45Q33.05 4.30 33.05 5.57L33.05 5.57Q33.05 6.73 32.31 7.52L32.31 7.52Q31.55 8.33 30.39 8.54L30.39 8.54L30.39 13.00L29.00 13.00ZM34.79 5.58L34.79 2.72L38.27 2.72L38.27 3.37L35.60 3.37L35.60 4.76Q35.79 4.70 35.99 4.68L35.99 4.68Q36.18 4.65 36.37 4.65L36.37 4.65Q37.47 4.65 38.12 5.17L38.12 5.17Q38.76 5.69 38.76 6.59L38.76 6.59Q38.76 7.51 38.10 8.03L38.10 8.03Q37.44 8.53 36.24 8.53L36.24 8.53Q35.83 8.53 35.40 8.47Q34.97 8.41 34.51 8.29L34.51 8.29L34.51 7.51Q34.90 7.70 35.33 7.79L35.33 7.79Q35.75 7.88 36.22 7.88L36.22 7.88Q36.98 7.88 37.43 7.53Q37.87 7.18 37.87 6.59Q37.87 6.00 37.43 5.65Q36.98 5.30 36.22 5.30L36.22 5.30Q35.87 5.30 35.51 5.37Q35.16 5.43 34.79 5.58L34.79 5.58ZM40.40 5.58L40.40 2.72L43.89 2.72L43.89 3.37L41.21 3.37L41.21 4.76Q41.41 4.70 41.60 4.68L41.60 4.68Q41.79 4.65 41.99 4.65L41.99 4.65Q43.09 4.65 43.73 5.17L43.73 5.17Q44.37 5.69 44.37 6.59L44.37 6.59Q44.37 7.51 43.71 8.03L43.71 8.03Q43.05 8.53 41.85 8.53L41.85 8.53Q41.44 8.53 41.01 8.47Q40.58 8.41 40.13 8.29L40.13 8.29L40.13 7.51Q40.52 7.70 40.94 7.79L40.94 7.79Q41.36 7.88 41.84 7.88L41.84 7.88Q42.59 7.88 43.04 7.53Q43.48 7.18 43.48 6.59Q43.48 6.00 43.04 5.65Q42.59 5.30 41.84 5.30L41.84 5.30Q41.48 5.30 41.13 5.37Q40.77 5.43 40.40 5.58L40.40 5.58Z"></path></svg>