<svg height="16.296875" width="35.5400390625" xmlns="http://www.w3.org/2000/svg" ><path d="M6.36 6.50L6.36 6.50L6.36 2.36L7.62 2.36L7.62 13.00L6.36 13.00L6.36 11.85Q5.96 12.53 5.36 12.86Q4.75 13.19 3.90 13.19L3.90 13.19Q2.52 13.19 1.64 12.09Q0.77 10.98 0.77 9.17L0.77 9.17Q0.77 7.37 1.64 6.26Q2.52 5.15 3.90 5.15L3.90 5.15Q4.75 5.15 5.36 5.49Q5.96 5.82 6.36 6.50ZM2.07 9.17L2.07 9.17Q2.07 10.56 2.64 11.35Q3.21 12.14 4.21 12.14L4.21 12.14Q5.21 12.14 5.78 11.35Q6.36 10.56 6.36 9.17L6.36 9.17Q6.36 7.79 5.78 7.00Q5.21 6.21 4.21 6.21L4.21 6.21Q3.21 6.21 2.64 7.00Q2.07 7.79 2.07 9.17ZM13.88 5.34L16.75 13.00L15.42 13.00L14.72 11.12L11.33 11.12L10.64 13.00L9.30 13.00L12.17 5.34L13.88 5.34ZM13.03 6.57L11.72 10.10L14.34 10.10L13.03 6.57ZM19.50 13.00L19.50 7.54L19.93 7.54Q21.24 7.54 21.83 6.76L21.83 6.76Q22.22 6.24 22.22 5.57L22.22 5.57Q22.22 4.66 21.83 4.22L21.83 4.22Q21.15 3.44 19.93 3.44L19.93 3.44Q19.38 3.44 18.84 3.59L18.84 3.59Q18.31 3.73 17.77 4.03L17.77 4.03L17.77 2.85Q18.29 2.61 18.85 2.50L18.85 2.50Q19.40 2.37 19.98 2.37L19.98 2.37Q21.86 2.37 22.80 3.45L22.80 3.45Q23.55 4.30 23.55 5.57L23.55 5.57Q23.55 6.73 22.81 7.52L22.81 7.52Q22.05 8.33 20.88 8.54L20.88 8.54L20.88 13.00L19.50 13.00ZM25.38 8.43L25.38 7.68L26.78 7.68L26.78 3.50L25.25 3.78L25.25 2.99L26.82 2.72L27.76 2.72L27.76 7.68L29.16 7.68L29.16 8.43L25.38 8.43ZM31.76 7.65L31.76 7.65L34.66 7.65L34.66 8.43L30.57 8.43L30.57 7.68Q30.80 7.46 31.23 7.08L31.23 7.08Q33.58 5.00 33.58 4.35L33.58 4.35Q33.58 3.90 33.23 3.63Q32.87 3.35 32.29 3.35L32.29 3.35Q31.94 3.35 31.52 3.47Q31.10 3.59 30.61 3.83L30.61 3.83L30.61 2.99Q31.14 2.80 31.59 2.70Q32.05 2.60 32.44 2.60L32.44 2.60Q33.43 2.60 34.02 3.06Q34.62 3.51 34.62 4.25L34.62 4.25Q34.62 5.20 32.35 7.14L32.35 7.14Q31.97 7.46 31.76 7.65Z"></path></svg>