<svg height="16.296875" width="33.4140625" xmlns="http://www.w3.org/2000/svg" ><path d="M6.36 6.50L6.36 6.50L6.36 2.36L7.62 2.36L7.62 13.00L6.36 13.00L6.36 11.85Q5.96 12.53 5.36 12.86Q4.75 13.19 3.90 13.19L3.90 13.19Q2.52 13.19 1.64 12.09Q0.77 10.98 0.77 9.17L0.77 9.17Q0.77 7.37 1.64 6.26Q2.52 5.15 3.90 5.15L3.90 5.15Q4.75 5.15 5.36 5.49Q5.96 5.82 6.36 6.50ZM2.07 9.17L2.07 9.17Q2.07 10.56 2.64 11.35Q3.21 12.14 4.21 12.14L4.21 12.14Q5.21 12.14 5.78 11.35Q6.36 10.56 6.36 9.17L6.36 9.17Q6.36 7.79 5.78 7.00Q5.21 6.21 4.21 6.21L4.21 6.21Q3.21 6.21 2.64 7.00Q2.07 7.79 2.07 9.17ZM9.75 6.81L9.75 5.65Q10.28 5.40 10.85 5.28Q11.41 5.15 12.04 5.15L12.04 5.15Q13.77 5.15 14.79 6.24Q15.81 7.33 15.81 9.17L15.81 9.17Q15.81 11.05 14.78 12.12Q13.75 13.19 11.96 13.19L11.96 13.19Q11.38 13.19 10.83 13.07Q10.27 12.95 9.75 12.71L9.75 12.71L9.75 11.54Q10.29 11.83 10.82 11.98Q11.36 12.13 11.91 12.13L11.91 12.13Q13.13 12.13 13.81 11.35Q14.49 10.58 14.49 9.17L14.49 9.17Q14.49 7.77 13.81 7.00Q13.13 6.22 11.91 6.22L11.91 6.22Q11.36 6.22 10.82 6.37Q10.29 6.51 9.75 6.81L9.75 6.81ZM17.64 8.43L17.64 7.68L19.04 7.68L19.04 3.50L17.51 3.78L17.51 2.99L19.09 2.72L20.02 2.72L20.02 7.68L21.42 7.68L21.42 8.43L17.64 8.43ZM23.26 8.43L23.26 7.68L24.65 7.68L24.65 3.50L23.13 3.78L23.13 2.99L24.70 2.72L25.63 2.72L25.63 7.68L27.04 7.68L27.04 8.43L23.26 8.43ZM31.38 5.34L31.38 5.34Q32.01 5.46 32.36 5.83Q32.70 6.21 32.70 6.77L32.70 6.77Q32.70 7.62 32.05 8.07Q31.40 8.53 30.19 8.53L30.19 8.53Q29.80 8.53 29.38 8.46Q28.95 8.39 28.47 8.25L28.47 8.25L28.47 7.42Q28.83 7.61 29.23 7.70Q29.64 7.79 30.10 7.79L30.10 7.79Q30.84 7.79 31.25 7.52Q31.66 7.25 31.66 6.77L31.66 6.77Q31.66 6.26 31.28 6.00Q30.91 5.74 30.17 5.74L30.17 5.74L29.58 5.74L29.58 5.00L30.22 5.00Q30.86 5.00 31.20 4.79Q31.53 4.57 31.53 4.16L31.53 4.16Q31.53 3.77 31.19 3.56Q30.84 3.35 30.19 3.35L30.19 3.35Q29.92 3.35 29.57 3.41Q29.22 3.47 28.67 3.63L28.67 3.63L28.67 2.84Q29.17 2.73 29.61 2.67Q30.04 2.60 30.42 2.60L30.42 2.60Q31.40 2.60 31.98 3.01Q32.56 3.41 32.56 4.09L32.56 4.09Q32.56 4.56 32.25 4.89Q31.94 5.22 31.38 5.34Z"></path></svg>