<svg height="16.296875" width="32.59375" xmlns="http://www.w3.org/2000/svg" ><path d="M6.36 6.50L6.36 6.50L6.36 2.36L7.62 2.36L7.62 13.00L6.36 13.00L6.36 11.85Q5.96 12.53 5.36 12.86Q4.75 13.19 3.90 13.19L3.90 13.19Q2.52 13.19 1.64 12.09Q0.77 10.98 0.77 9.17L0.77 9.17Q0.77 7.37 1.64 6.26Q2.52 5.15 3.90 5.15L3.90 5.15Q4.75 5.15 5.36 5.49Q5.96 5.82 6.36 6.50ZM2.07 9.17L2.07 9.17Q2.07 10.56 2.64 11.35Q3.21 12.14 4.21 12.14L4.21 12.14Q5.21 12.14 5.78 11.35Q6.36 10.56 6.36 9.17L6.36 9.17Q6.36 7.79 5.78 7.00Q5.21 6.21 4.21 6.21L4.21 6.21Q3.21 6.21 2.64 7.00Q2.07 7.79 2.07 9.17ZM10.16 13.00L10.16 5.34L15.00 5.34L15.00 6.35L11.43 6.35L11.43 8.41L14.84 8.41L14.84 9.42L11.43 9.42L11.43 11.99L15.09 11.99L15.09 13.00L10.16 13.00ZM16.82 8.43L16.82 7.68L18.22 7.68L18.22 3.50L16.69 3.78L16.69 2.99L18.27 2.72L19.20 2.72L19.20 7.68L20.60 7.68L20.60 8.43L16.82 8.43ZM22.44 8.43L22.44 7.68L23.83 7.68L23.83 3.50L22.31 3.78L22.31 2.99L23.88 2.72L24.81 2.72L24.81 7.68L26.22 7.68L26.22 8.43L22.44 8.43ZM30.56 5.34L30.56 5.34Q31.19 5.46 31.54 5.83Q31.88 6.21 31.88 6.77L31.88 6.77Q31.88 7.62 31.23 8.07Q30.58 8.53 29.37 8.53L29.37 8.53Q28.98 8.53 28.56 8.46Q28.13 8.39 27.65 8.25L27.65 8.25L27.65 7.42Q28.01 7.61 28.41 7.70Q28.82 7.79 29.28 7.79L29.28 7.79Q30.02 7.79 30.43 7.52Q30.84 7.25 30.84 6.77L30.84 6.77Q30.84 6.26 30.46 6.00Q30.08 5.74 29.35 5.74L29.35 5.74L28.76 5.74L28.76 5.00L29.40 5.00Q30.04 5.00 30.38 4.79Q30.71 4.57 30.71 4.16L30.71 4.16Q30.71 3.77 30.37 3.56Q30.02 3.35 29.37 3.35L29.37 3.35Q29.10 3.35 28.75 3.41Q28.40 3.47 27.85 3.63L27.85 3.63L27.85 2.84Q28.35 2.73 28.79 2.67Q29.22 2.60 29.60 2.60L29.60 2.60Q30.58 2.60 31.16 3.01Q31.74 3.41 31.74 4.09L31.74 4.09Q31.74 4.56 31.43 4.89Q31.12 5.22 30.56 5.34Z"></path></svg>