<svg height="16.296875" width="34.0634765625" xmlns="http://www.w3.org/2000/svg" ><path d="M6.36 6.50L6.36 6.50L6.36 2.36L7.62 2.36L7.62 13.00L6.36 13.00L6.36 11.85Q5.96 12.53 5.36 12.86Q4.75 13.19 3.90 13.19L3.90 13.19Q2.52 13.19 1.64 12.09Q0.77 10.98 0.77 9.17L0.77 9.17Q0.77 7.37 1.64 6.26Q2.52 5.15 3.90 5.15L3.90 5.15Q4.75 5.15 5.36 5.49Q5.96 5.82 6.36 6.50ZM2.07 9.17L2.07 9.17Q2.07 10.56 2.64 11.35Q3.21 12.14 4.21 12.14L4.21 12.14Q5.21 12.14 5.78 11.35Q6.36 10.56 6.36 9.17L6.36 9.17Q6.36 7.79 5.78 7.00Q5.21 6.21 4.21 6.21L4.21 6.21Q3.21 6.21 2.64 7.00Q2.07 7.79 2.07 9.17ZM11.03 5.34L13.06 8.07L15.09 5.34L16.57 5.34L13.85 8.99Q14.33 9.66 14.64 10.18L14.64 10.18Q15.11 11.00 15.11 11.42L15.11 11.42Q15.11 12.31 14.59 12.75Q14.08 13.19 13.06 13.19L13.06 13.19Q12.03 13.19 11.52 12.75Q11.01 12.31 11.01 11.42L11.01 11.42Q11.01 11.00 11.48 10.18L11.48 10.18Q11.78 9.66 12.26 8.99L12.26 8.99L9.54 5.34L11.03 5.34ZM13.06 12.13L13.06 12.13Q13.51 12.13 13.73 11.94L13.73 11.94Q13.92 11.78 13.92 11.47L13.92 11.47Q13.92 11.25 13.65 10.81L13.65 10.81Q13.44 10.47 13.06 9.99L13.06 9.99Q12.67 10.47 12.46 10.81L12.46 10.81Q12.20 11.25 12.20 11.47L12.20 11.47Q12.20 11.78 12.39 11.94L12.39 11.94Q12.60 12.13 13.06 12.13ZM18.29 8.43L18.29 7.68L19.69 7.68L19.69 3.50L18.16 3.78L18.16 2.99L19.74 2.72L20.67 2.72L20.67 7.68L22.07 7.68L22.07 8.43L18.29 8.43ZM23.91 8.43L23.91 7.68L25.30 7.68L25.30 3.50L23.78 3.78L23.78 2.99L25.35 2.72L26.28 2.72L26.28 7.68L27.69 7.68L27.69 8.43L23.91 8.43ZM32.03 5.34L32.03 5.34Q32.66 5.46 33.01 5.83Q33.35 6.21 33.35 6.77L33.35 6.77Q33.35 7.62 32.70 8.07Q32.05 8.53 30.84 8.53L30.84 8.53Q30.45 8.53 30.03 8.46Q29.60 8.39 29.12 8.25L29.12 8.25L29.12 7.42Q29.48 7.61 29.88 7.70Q30.29 7.79 30.75 7.79L30.75 7.79Q31.49 7.79 31.90 7.52Q32.31 7.25 32.31 6.77L32.31 6.77Q32.31 6.26 31.93 6.00Q31.55 5.74 30.82 5.74L30.82 5.74L30.23 5.74L30.23 5.00L30.87 5.00Q31.51 5.00 31.85 4.79Q32.18 4.57 32.18 4.16L32.18 4.16Q32.18 3.77 31.83 3.56Q31.49 3.35 30.84 3.35L30.84 3.35Q30.57 3.35 30.22 3.41Q29.87 3.47 29.32 3.63L29.32 3.63L29.32 2.84Q29.82 2.73 30.26 2.67Q30.69 2.60 31.07 2.60L31.07 2.60Q32.05 2.60 32.63 3.01Q33.21 3.41 33.21 4.09L33.21 4.09Q33.21 4.56 32.90 4.89Q32.59 5.22 32.03 5.34Z"></path></svg>