<svg height="16.296875" width="29.61328125" xmlns="http://www.w3.org/2000/svg" ><path d="M6.36 6.50L6.36 6.50L6.36 2.36L7.62 2.36L7.62 13.00L6.36 13.00L6.36 11.85Q5.96 12.53 5.36 12.86Q4.75 13.19 3.90 13.19L3.90 13.19Q2.52 13.19 1.64 12.09Q0.77 10.98 0.77 9.17L0.77 9.17Q0.77 7.37 1.64 6.26Q2.52 5.15 3.90 5.15L3.90 5.15Q4.75 5.15 5.36 5.49Q5.96 5.82 6.36 6.50ZM2.07 9.17L2.07 9.17Q2.07 10.56 2.64 11.35Q3.21 12.14 4.21 12.14L4.21 12.14Q5.21 12.14 5.78 11.35Q6.36 10.56 6.36 9.17L6.36 9.17Q6.36 7.79 5.78 7.00Q5.21 6.21 4.21 6.21L4.21 6.21Q3.21 6.21 2.64 7.00Q2.07 7.79 2.07 9.17ZM10.21 13.00L10.21 5.34L11.46 5.34L11.46 13.00L10.21 13.00ZM10.21 3.95L10.21 2.36L11.46 2.36L11.46 3.95L10.21 3.95ZM13.84 8.43L13.84 7.68L15.24 7.68L15.24 3.50L13.71 3.78L13.71 2.99L15.29 2.72L16.22 2.72L16.22 7.68L17.62 7.68L17.62 8.43L13.84 8.43ZM19.46 8.43L19.46 7.68L20.85 7.68L20.85 3.50L19.33 3.78L19.33 2.99L20.90 2.72L21.83 2.72L21.83 7.68L23.24 7.68L23.24 8.43L19.46 8.43ZM27.58 5.34L27.58 5.34Q28.21 5.46 28.56 5.83Q28.90 6.21 28.90 6.77L28.90 6.77Q28.90 7.62 28.25 8.07Q27.60 8.53 26.39 8.53L26.39 8.53Q26.00 8.53 25.58 8.46Q25.15 8.39 24.67 8.25L24.67 8.25L24.67 7.42Q25.03 7.61 25.43 7.70Q25.84 7.79 26.30 7.79L26.30 7.79Q27.04 7.79 27.45 7.52Q27.86 7.25 27.86 6.77L27.86 6.77Q27.86 6.26 27.48 6.00Q27.10 5.74 26.37 5.74L26.37 5.74L25.78 5.74L25.78 5.00L26.42 5.00Q27.06 5.00 27.40 4.79Q27.73 4.57 27.73 4.16L27.73 4.16Q27.73 3.77 27.38 3.56Q27.04 3.35 26.39 3.35L26.39 3.35Q26.12 3.35 25.77 3.41Q25.42 3.47 24.87 3.63L24.87 3.63L24.87 2.84Q25.37 2.73 25.81 2.67Q26.24 2.60 26.62 2.60L26.62 2.60Q27.60 2.60 28.18 3.01Q28.76 3.41 28.76 4.09L28.76 4.09Q28.76 4.56 28.45 4.89Q28.14 5.22 27.58 5.34Z"></path></svg>