<svg height="16.296875" width="38.486328125" xmlns="http://www.w3.org/2000/svg" ><path d="M6.36 6.50L6.36 6.50L6.36 2.36L7.62 2.36L7.62 13.00L6.36 13.00L6.36 11.85Q5.96 12.53 5.36 12.86Q4.75 13.19 3.90 13.19L3.90 13.19Q2.52 13.19 1.64 12.09Q0.77 10.98 0.77 9.17L0.77 9.17Q0.77 7.37 1.64 6.26Q2.52 5.15 3.90 5.15L3.90 5.15Q4.75 5.15 5.36 5.49Q5.96 5.82 6.36 6.50ZM2.07 9.17L2.07 9.17Q2.07 10.56 2.64 11.35Q3.21 12.14 4.21 12.14L4.21 12.14Q5.21 12.14 5.78 11.35Q6.36 10.56 6.36 9.17L6.36 9.17Q6.36 7.79 5.78 7.00Q5.21 6.21 4.21 6.21L4.21 6.21Q3.21 6.21 2.64 7.00Q2.07 7.79 2.07 9.17ZM10.21 13.00L10.21 5.34L11.46 5.34L11.46 13.00L10.21 13.00ZM10.21 3.95L10.21 2.36L11.46 2.36L11.46 3.95L10.21 3.95ZM20.46 8.37L20.46 8.37L20.46 13.00L19.20 13.00L19.20 8.42Q19.20 7.33 18.78 6.79Q18.35 6.25 17.51 6.25L17.51 6.25Q16.49 6.25 15.90 6.90Q15.31 7.55 15.31 8.67L15.31 8.67L15.31 13.00L14.05 13.00L14.05 5.34L15.31 5.34L15.31 6.53Q15.76 5.84 16.38 5.50Q16.99 5.15 17.79 5.15L17.79 5.15Q19.11 5.15 19.78 5.97Q20.46 6.79 20.46 8.37ZM22.72 8.43L22.72 7.68L24.11 7.68L24.11 3.50L22.59 3.78L22.59 2.99L24.16 2.72L25.09 2.72L25.09 7.68L26.50 7.68L26.50 8.43L22.72 8.43ZM28.33 8.43L28.33 7.68L29.72 7.68L29.72 3.50L28.20 3.78L28.20 2.99L29.77 2.72L30.71 2.72L30.71 7.68L32.11 7.68L32.11 8.43L28.33 8.43ZM36.46 5.34L36.46 5.34Q37.08 5.46 37.43 5.83Q37.78 6.21 37.78 6.77L37.78 6.77Q37.78 7.62 37.13 8.07Q36.48 8.53 35.27 8.53L35.27 8.53Q34.88 8.53 34.45 8.46Q34.02 8.39 33.54 8.25L33.54 8.25L33.54 7.42Q33.90 7.61 34.31 7.70Q34.71 7.79 35.17 7.79L35.17 7.79Q35.92 7.79 36.33 7.52Q36.74 7.25 36.74 6.77L36.74 6.77Q36.74 6.26 36.36 6.00Q35.98 5.74 35.24 5.74L35.24 5.74L34.65 5.74L34.65 5.00L35.29 5.00Q35.94 5.00 36.27 4.79Q36.60 4.57 36.60 4.16L36.60 4.16Q36.60 3.77 36.26 3.56Q35.92 3.35 35.27 3.35L35.27 3.35Q34.99 3.35 34.64 3.41Q34.30 3.47 33.74 3.63L33.74 3.63L33.74 2.84Q34.24 2.73 34.68 2.67Q35.12 2.60 35.49 2.60L35.49 2.60Q36.48 2.60 37.05 3.01Q37.63 3.41 37.63 4.09L37.63 4.09Q37.63 4.56 37.32 4.89Q37.02 5.22 36.46 5.34Z"></path></svg>