<svg height="16.296875" width="36.3466796875" xmlns="http://www.w3.org/2000/svg" ><path d="M6.36 6.50L6.36 6.50L6.36 2.36L7.62 2.36L7.62 13.00L6.36 13.00L6.36 11.85Q5.96 12.53 5.36 12.86Q4.75 13.19 3.90 13.19L3.90 13.19Q2.52 13.19 1.64 12.09Q0.77 10.98 0.77 9.17L0.77 9.17Q0.77 7.37 1.64 6.26Q2.52 5.15 3.90 5.15L3.90 5.15Q4.75 5.15 5.36 5.49Q5.96 5.82 6.36 6.50ZM2.07 9.17L2.07 9.17Q2.07 10.56 2.64 11.35Q3.21 12.14 4.21 12.14L4.21 12.14Q5.21 12.14 5.78 11.35Q6.36 10.56 6.36 9.17L6.36 9.17Q6.36 7.79 5.78 7.00Q5.21 6.21 4.21 6.21L4.21 6.21Q3.21 6.21 2.64 7.00Q2.07 7.79 2.07 9.17ZM10.21 13.00L10.21 5.34L11.46 5.34L11.46 13.00L10.21 13.00ZM10.21 3.95L10.21 2.36L11.46 2.36L11.46 3.95L10.21 3.95ZM14.77 6.46L13.57 6.46L13.57 5.34L17.18 5.34L17.18 6.46L16.03 6.46L16.03 11.87L17.18 11.87L17.18 13.00L13.57 13.00L13.57 11.87L14.77 11.87L14.77 6.46ZM20.31 13.00L20.30 7.54L20.73 7.54Q22.05 7.54 22.63 6.76L22.63 6.76Q23.03 6.24 23.03 5.57L23.03 5.57Q23.02 4.66 22.63 4.22L22.63 4.22Q21.96 3.44 20.73 3.44L20.73 3.44Q20.19 3.44 19.65 3.59L19.65 3.59Q19.11 3.73 18.58 4.03L18.58 4.03L18.58 2.85Q19.10 2.61 19.65 2.50L19.65 2.50Q20.21 2.37 20.79 2.37L20.79 2.37Q22.67 2.37 23.61 3.45L23.61 3.45Q24.36 4.30 24.36 5.57L24.36 5.57Q24.36 6.73 23.62 7.52L23.62 7.52Q22.85 8.33 21.69 8.54L21.69 8.54L21.69 13.00L20.31 13.00ZM26.19 8.43L26.19 7.68L27.58 7.68L27.58 3.50L26.06 3.78L26.06 2.99L27.63 2.72L28.57 2.72L28.57 7.68L29.97 7.68L29.97 8.43L26.19 8.43ZM32.57 7.65L32.57 7.65L35.46 7.65L35.46 8.43L31.38 8.43L31.38 7.68Q31.61 7.46 32.04 7.08L32.04 7.08Q34.39 5.00 34.39 4.35L34.39 4.35Q34.39 3.90 34.04 3.63Q33.68 3.35 33.10 3.35L33.10 3.35Q32.74 3.35 32.33 3.47Q31.91 3.59 31.42 3.83L31.42 3.83L31.42 2.99Q31.94 2.80 32.40 2.70Q32.85 2.60 33.24 2.60L33.24 2.60Q34.23 2.60 34.83 3.06Q35.42 3.51 35.42 4.25L35.42 4.25Q35.42 5.20 33.16 7.14L33.16 7.14Q32.78 7.46 32.57 7.65Z"></path></svg>