<svg height="16.296875" width="35.8203125" xmlns="http://www.w3.org/2000/svg" ><path d="M6.36 6.50L6.36 6.50L6.36 2.36L7.62 2.36L7.62 13.00L6.36 13.00L6.36 11.85Q5.96 12.53 5.36 12.86Q4.75 13.19 3.90 13.19L3.90 13.19Q2.52 13.19 1.64 12.09Q0.77 10.98 0.77 9.17L0.77 9.17Q0.77 7.37 1.64 6.26Q2.52 5.15 3.90 5.15L3.90 5.15Q4.75 5.15 5.36 5.49Q5.96 5.82 6.36 6.50ZM2.07 9.17L2.07 9.17Q2.07 10.56 2.64 11.35Q3.21 12.14 4.21 12.14L4.21 12.14Q5.21 12.14 5.78 11.35Q6.36 10.56 6.36 9.17L6.36 9.17Q6.36 7.79 5.78 7.00Q5.21 6.21 4.21 6.21L4.21 6.21Q3.21 6.21 2.64 7.00Q2.07 7.79 2.07 9.17ZM13.17 6.22L13.17 6.22Q12.16 6.22 11.57 7.01Q10.99 7.80 10.99 9.17L10.99 9.17Q10.99 10.55 11.57 11.34Q12.15 12.13 13.17 12.13L13.17 12.13Q14.18 12.13 14.77 11.33Q15.35 10.54 15.35 9.17L15.35 9.17Q15.35 7.81 14.77 7.02Q14.18 6.22 13.17 6.22ZM13.17 5.15L13.17 5.15Q14.81 5.15 15.75 6.22Q16.69 7.29 16.69 9.17L16.69 9.17Q16.69 11.05 15.75 12.12Q14.81 13.19 13.17 13.19L13.17 13.19Q11.53 13.19 10.59 12.12Q9.66 11.05 9.66 9.17L9.66 9.17Q9.66 7.29 10.59 6.22Q11.53 5.15 13.17 5.15ZM19.78 13.00L19.78 7.54L20.21 7.54Q21.52 7.54 22.11 6.76L22.11 6.76Q22.50 6.24 22.50 5.57L22.50 5.57Q22.50 4.66 22.11 4.22L22.11 4.22Q21.43 3.44 20.21 3.44L20.21 3.44Q19.66 3.44 19.12 3.59L19.12 3.59Q18.59 3.73 18.05 4.03L18.05 4.03L18.05 2.85Q18.57 2.61 19.13 2.50L19.13 2.50Q19.68 2.37 20.26 2.37L20.26 2.37Q22.14 2.37 23.08 3.45L23.08 3.45Q23.83 4.30 23.83 5.57L23.83 5.57Q23.83 6.73 23.09 7.52L23.09 7.52Q22.33 8.33 21.16 8.54L21.16 8.54L21.16 13.00L19.78 13.00ZM25.66 8.43L25.66 7.68L27.06 7.68L27.06 3.50L25.53 3.78L25.53 2.99L27.10 2.72L28.04 2.72L28.04 7.68L29.44 7.68L29.44 8.43L25.66 8.43ZM32.04 7.65L32.04 7.65L34.94 7.65L34.94 8.43L30.85 8.43L30.85 7.68Q31.08 7.46 31.51 7.08L31.51 7.08Q33.87 5.00 33.87 4.35L33.87 4.35Q33.87 3.90 33.51 3.63Q33.15 3.35 32.57 3.35L32.57 3.35Q32.22 3.35 31.80 3.47Q31.38 3.59 30.89 3.83L30.89 3.83L30.89 2.99Q31.42 2.80 31.87 2.70Q32.33 2.60 32.72 2.60L32.72 2.60Q33.71 2.60 34.30 3.06Q34.90 3.51 34.90 4.25L34.90 4.25Q34.90 5.20 32.63 7.14L32.63 7.14Q32.25 7.46 32.04 7.65Z"></path></svg>