<svg height="16.296875" width="18.0947265625" xmlns="http://www.w3.org/2000/svg" ><path d="M1.27 13.00L1.27 5.34L6.11 5.34L6.11 6.35L2.54 6.35L2.54 8.41L5.95 8.41L5.95 9.42L2.54 9.42L2.54 11.99L6.20 11.99L6.20 13.00L1.27 13.00ZM7.84 5.58L7.84 2.72L11.33 2.72L11.33 3.37L8.65 3.37L8.65 4.76Q8.85 4.70 9.04 4.68L9.04 4.68Q9.24 4.65 9.43 4.65L9.43 4.65Q10.53 4.65 11.17 5.17L11.17 5.17Q11.81 5.69 11.81 6.59L11.81 6.59Q11.81 7.51 11.15 8.03L11.15 8.03Q10.49 8.53 9.29 8.53L9.29 8.53Q8.88 8.53 8.45 8.47Q8.02 8.41 7.57 8.29L7.57 8.29L7.57 7.51Q7.96 7.70 8.38 7.79L8.38 7.79Q8.80 7.88 9.28 7.88L9.28 7.88Q10.04 7.88 10.48 7.53Q10.92 7.18 10.92 6.59Q10.92 6.00 10.48 5.65Q10.04 5.30 9.28 5.30L9.28 5.30Q8.92 5.30 8.57 5.37Q8.21 5.43 7.84 5.58L7.84 5.58ZM16.06 5.34L16.06 5.34Q16.69 5.46 17.04 5.83Q17.38 6.21 17.38 6.77L17.38 6.77Q17.38 7.62 16.73 8.07Q16.08 8.53 14.88 8.53L14.88 8.53Q14.49 8.53 14.06 8.46Q13.63 8.39 13.15 8.25L13.15 8.25L13.15 7.42Q13.51 7.61 13.91 7.70Q14.32 7.79 14.78 7.79L14.78 7.79Q15.52 7.79 15.93 7.52Q16.34 7.25 16.34 6.77L16.34 6.77Q16.34 6.26 15.97 6.00Q15.59 5.74 14.85 5.74L14.85 5.74L14.26 5.74L14.26 5.00L14.90 5.00Q15.54 5.00 15.88 4.79Q16.21 4.57 16.21 4.16L16.21 4.16Q16.21 3.77 15.87 3.56Q15.52 3.35 14.88 3.35L14.88 3.35Q14.60 3.35 14.25 3.41Q13.90 3.47 13.35 3.63L13.35 3.63L13.35 2.84Q13.85 2.73 14.29 2.67Q14.72 2.60 15.10 2.60L15.10 2.60Q16.08 2.60 16.66 3.01Q17.24 3.41 17.24 4.09L17.24 4.09Q17.24 4.56 16.93 4.89Q16.63 5.22 16.06 5.34Z"></path></svg>