<svg height="16.296875" width="23.70703125" xmlns="http://www.w3.org/2000/svg" ><path d="M1.27 13.00L1.27 5.34L6.11 5.34L6.11 6.35L2.54 6.35L2.54 8.41L5.95 8.41L5.95 9.42L2.54 9.42L2.54 11.99L6.20 11.99L6.20 13.00L1.27 13.00ZM10.45 5.34L10.45 5.34Q11.08 5.46 11.43 5.83Q11.77 6.21 11.77 6.77L11.77 6.77Q11.77 7.62 11.12 8.07Q10.47 8.53 9.26 8.53L9.26 8.53Q8.87 8.53 8.45 8.46Q8.02 8.39 7.54 8.25L7.54 8.25L7.54 7.42Q7.90 7.61 8.30 7.70Q8.71 7.79 9.17 7.79L9.17 7.79Q9.91 7.79 10.32 7.52Q10.73 7.25 10.73 6.77L10.73 6.77Q10.73 6.26 10.35 6.00Q9.97 5.74 9.24 5.74L9.24 5.74L8.65 5.74L8.65 5.00L9.29 5.00Q9.93 5.00 10.26 4.79Q10.60 4.57 10.60 4.16L10.60 4.16Q10.60 3.77 10.25 3.56Q9.91 3.35 9.26 3.35L9.26 3.35Q8.99 3.35 8.64 3.41Q8.29 3.47 7.74 3.63L7.74 3.63L7.74 2.84Q8.24 2.73 8.67 2.67Q9.11 2.60 9.49 2.60L9.49 2.60Q10.47 2.60 11.05 3.01Q11.63 3.41 11.63 4.09L11.63 4.09Q11.63 4.56 11.32 4.89Q11.01 5.22 10.45 5.34ZM16.06 5.34L16.06 5.34Q16.69 5.46 17.04 5.83Q17.38 6.21 17.38 6.77L17.38 6.77Q17.38 7.62 16.73 8.07Q16.08 8.53 14.88 8.53L14.88 8.53Q14.49 8.53 14.06 8.46Q13.63 8.39 13.15 8.25L13.15 8.25L13.15 7.42Q13.51 7.61 13.91 7.70Q14.32 7.79 14.78 7.79L14.78 7.79Q15.52 7.79 15.93 7.52Q16.34 7.25 16.34 6.77L16.34 6.77Q16.34 6.26 15.97 6.00Q15.59 5.74 14.85 5.74L14.85 5.74L14.26 5.74L14.26 5.00L14.90 5.00Q15.54 5.00 15.88 4.79Q16.21 4.57 16.21 4.16L16.21 4.16Q16.21 3.77 15.87 3.56Q15.52 3.35 14.88 3.35L14.88 3.35Q14.60 3.35 14.25 3.41Q13.90 3.47 13.35 3.63L13.35 3.63L13.35 2.84Q13.85 2.73 14.29 2.67Q14.72 2.60 15.10 2.60L15.10 2.60Q16.08 2.60 16.66 3.01Q17.24 3.41 17.24 4.09L17.24 4.09Q17.24 4.56 16.93 4.89Q16.63 5.22 16.06 5.34ZM21.36 6.41L21.36 3.55L19.24 6.41L21.36 6.41ZM18.53 6.33L21.21 2.72L22.34 2.72L22.34 6.41L23.26 6.41L23.26 7.16L22.34 7.16L22.34 8.43L21.36 8.43L21.36 7.16L18.53 7.16L18.53 6.33Z"></path></svg>