<svg height="16.296875" width="28.7109375" xmlns="http://www.w3.org/2000/svg" ><path d="M0.77 9.50L0.77 9.50L0.77 8.88L6.56 8.88Q6.47 7.58 5.77 6.90Q5.07 6.22 3.82 6.22L3.82 6.22Q3.10 6.22 2.42 6.40Q1.74 6.58 1.07 6.93L1.07 6.93L1.07 5.74Q1.74 5.46 2.45 5.30Q3.17 5.15 3.90 5.15L3.90 5.15Q5.73 5.15 6.80 6.22Q7.87 7.29 7.87 9.11L7.87 9.11Q7.87 10.99 6.85 12.09Q5.84 13.19 4.12 13.19L4.12 13.19Q2.57 13.19 1.67 12.20Q0.77 11.20 0.77 9.50ZM6.51 9.86L2.03 9.86Q2.04 10.90 2.61 11.51Q3.17 12.13 4.10 12.13L4.10 12.13Q5.15 12.13 5.79 11.53Q6.42 10.94 6.51 9.86L6.51 9.86ZM16.30 8.37L16.30 8.37L16.30 13.00L15.04 13.00L15.04 8.42Q15.04 7.33 14.62 6.79Q14.19 6.25 13.34 6.25L13.34 6.25Q12.33 6.25 11.74 6.90Q11.15 7.55 11.15 8.67L11.15 8.67L11.15 13.00L9.88 13.00L9.88 5.34L11.15 5.34L11.15 6.53Q11.60 5.84 12.21 5.50Q12.82 5.15 13.62 5.15L13.62 5.15Q14.94 5.15 15.62 5.97Q16.30 6.79 16.30 8.37ZM18.46 5.58L18.46 2.72L21.94 2.72L21.94 3.37L19.27 3.37L19.27 4.76Q19.46 4.70 19.66 4.68L19.66 4.68Q19.85 4.65 20.04 4.65L20.04 4.65Q21.14 4.65 21.79 5.17L21.79 5.17Q22.43 5.69 22.43 6.59L22.43 6.59Q22.43 7.51 21.77 8.03L21.77 8.03Q21.11 8.53 19.91 8.53L19.91 8.53Q19.50 8.53 19.07 8.47Q18.63 8.41 18.18 8.29L18.18 8.29L18.18 7.51Q18.57 7.70 19.00 7.79L19.00 7.79Q19.42 7.88 19.89 7.88L19.89 7.88Q20.65 7.88 21.10 7.53Q21.54 7.18 21.54 6.59Q21.54 6.00 21.10 5.65Q20.65 5.30 19.89 5.30L19.89 5.30Q19.54 5.30 19.18 5.37Q18.83 5.43 18.46 5.58L18.46 5.58ZM26.68 5.34L26.68 5.34Q27.31 5.46 27.65 5.83Q28 6.21 28 6.77L28 6.77Q28 7.62 27.35 8.07Q26.70 8.53 25.49 8.53L25.49 8.53Q25.10 8.53 24.67 8.46Q24.25 8.39 23.77 8.25L23.77 8.25L23.77 7.42Q24.12 7.61 24.53 7.70Q24.94 7.79 25.40 7.79L25.40 7.79Q26.14 7.79 26.55 7.52Q26.96 7.25 26.96 6.77L26.96 6.77Q26.96 6.26 26.58 6.00Q26.20 5.74 25.46 5.74L25.46 5.74L24.88 5.74L24.88 5.00L25.52 5.00Q26.16 5.00 26.49 4.79Q26.82 4.57 26.82 4.16L26.82 4.16Q26.82 3.77 26.48 3.56Q26.14 3.35 25.49 3.35L25.49 3.35Q25.22 3.35 24.87 3.41Q24.52 3.47 23.97 3.63L23.97 3.63L23.97 2.84Q24.47 2.73 24.90 2.67Q25.34 2.60 25.72 2.60L25.72 2.60Q26.70 2.60 27.28 3.01Q27.86 3.41 27.86 4.09L27.86 4.09Q27.86 4.56 27.55 4.89Q27.24 5.22 26.68 5.34Z"></path></svg>