<svg height="16.296875" width="26.9814453125" xmlns="http://www.w3.org/2000/svg" ><path d="M0.77 9.50L0.77 9.50L0.77 8.88L6.56 8.88Q6.47 7.58 5.77 6.90Q5.07 6.22 3.82 6.22L3.82 6.22Q3.10 6.22 2.42 6.40Q1.74 6.58 1.07 6.93L1.07 6.93L1.07 5.74Q1.74 5.46 2.45 5.30Q3.17 5.15 3.90 5.15L3.90 5.15Q5.73 5.15 6.80 6.22Q7.87 7.29 7.87 9.11L7.87 9.11Q7.87 10.99 6.85 12.09Q5.84 13.19 4.12 13.19L4.12 13.19Q2.57 13.19 1.67 12.20Q0.77 11.20 0.77 9.50ZM6.51 9.86L2.03 9.86Q2.04 10.90 2.61 11.51Q3.17 12.13 4.10 12.13L4.10 12.13Q5.15 12.13 5.79 11.53Q6.42 10.94 6.51 9.86L6.51 9.86ZM10.94 13.00L10.94 7.54L11.37 7.54Q12.68 7.54 13.27 6.76L13.27 6.76Q13.67 6.24 13.67 5.57L13.67 5.57Q13.66 4.66 13.27 4.22L13.27 4.22Q12.59 3.44 11.37 3.44L11.37 3.44Q10.82 3.44 10.28 3.59L10.28 3.59Q9.75 3.73 9.21 4.03L9.21 4.03L9.21 2.85Q9.73 2.61 10.29 2.50L10.29 2.50Q10.84 2.37 11.42 2.37L11.42 2.37Q13.30 2.37 14.25 3.45L14.25 3.45Q14.99 4.30 14.99 5.57L14.99 5.57Q14.99 6.73 14.25 7.52L14.25 7.52Q13.49 8.33 12.33 8.54L12.33 8.54L12.33 13.00L10.94 13.00ZM16.73 5.58L16.73 2.72L20.21 2.72L20.21 3.37L17.54 3.37L17.54 4.76Q17.73 4.70 17.93 4.68L17.93 4.68Q18.12 4.65 18.31 4.65L18.31 4.65Q19.41 4.65 20.06 5.17L20.06 5.17Q20.70 5.69 20.70 6.59L20.70 6.59Q20.70 7.51 20.04 8.03L20.04 8.03Q19.38 8.53 18.18 8.53L18.18 8.53Q17.77 8.53 17.34 8.47Q16.91 8.41 16.45 8.29L16.45 8.29L16.45 7.51Q16.84 7.70 17.27 7.79L17.27 7.79Q17.69 7.88 18.16 7.88L18.16 7.88Q18.92 7.88 19.37 7.53Q19.81 7.18 19.81 6.59Q19.81 6.00 19.37 5.65Q18.92 5.30 18.16 5.30L18.16 5.30Q17.81 5.30 17.45 5.37Q17.10 5.43 16.73 5.58L16.73 5.58ZM22.34 5.58L22.34 2.72L25.83 2.72L25.83 3.37L23.15 3.37L23.15 4.76Q23.34 4.70 23.54 4.68L23.54 4.68Q23.73 4.65 23.93 4.65L23.93 4.65Q25.03 4.65 25.67 5.17L25.67 5.17Q26.31 5.69 26.31 6.59L26.31 6.59Q26.31 7.51 25.65 8.03L25.65 8.03Q24.99 8.53 23.79 8.53L23.79 8.53Q23.38 8.53 22.95 8.47Q22.52 8.41 22.07 8.29L22.07 8.29L22.07 7.51Q22.46 7.70 22.88 7.79L22.88 7.79Q23.30 7.88 23.78 7.88L23.78 7.88Q24.53 7.88 24.98 7.53Q25.42 7.18 25.42 6.59Q25.42 6.00 24.98 5.65Q24.53 5.30 23.78 5.30L23.78 5.30Q23.42 5.30 23.06 5.37Q22.71 5.43 22.34 5.58L22.34 5.58Z"></path></svg>