<svg height="16.296875" width="38.212890625" xmlns="http://www.w3.org/2000/svg" ><path d="M7.68 8.37L7.68 8.37L7.68 13.00L6.43 13.00L6.43 8.42Q6.43 7.33 6.00 6.79Q5.58 6.25 4.73 6.25L4.73 6.25Q3.71 6.25 3.12 6.90Q2.54 7.55 2.54 8.67L2.54 8.67L2.54 13.00L1.27 13.00L1.27 5.13Q1.27 3.67 1.83 3.01Q2.39 2.36 3.62 2.36L3.62 2.36L5.36 2.36L5.36 3.42L3.78 3.42Q3.06 3.42 2.80 3.76Q2.54 4.09 2.54 5.13L2.54 5.13L2.54 6.53Q2.99 5.84 3.60 5.50Q4.21 5.15 5.01 5.15L5.01 5.15Q6.33 5.15 7.01 5.97Q7.68 6.79 7.68 8.37ZM9.65 9.50L9.65 9.50L9.65 8.88L15.43 8.88Q15.35 7.58 14.65 6.90Q13.95 6.22 12.69 6.22L12.69 6.22Q11.97 6.22 11.29 6.40Q10.61 6.58 9.94 6.93L9.94 6.93L9.94 5.74Q10.62 5.46 11.33 5.30Q12.04 5.15 12.77 5.15L12.77 5.15Q14.60 5.15 15.67 6.22Q16.74 7.29 16.74 9.11L16.74 9.11Q16.74 10.99 15.73 12.09Q14.71 13.19 12.99 13.19L12.99 13.19Q11.44 13.19 10.54 12.20Q9.65 11.20 9.65 9.50ZM15.39 9.86L10.90 9.86Q10.92 10.90 11.48 11.51Q12.04 12.13 12.97 12.13L12.97 12.13Q14.03 12.13 14.66 11.53Q15.29 10.94 15.39 9.86L15.39 9.86ZM18.81 13.00L18.81 2.36L20.06 2.36L20.06 13.00L18.81 13.00ZM22.44 8.43L22.44 7.68L23.84 7.68L23.84 3.50L22.31 3.78L22.31 2.99L23.88 2.72L24.82 2.72L24.82 7.68L26.22 7.68L26.22 8.43L22.44 8.43ZM28.05 8.43L28.05 7.68L29.45 7.68L29.45 3.50L27.92 3.78L27.92 2.99L29.50 2.72L30.43 2.72L30.43 7.68L31.83 7.68L31.83 8.43L28.05 8.43ZM36.18 5.34L36.18 5.34Q36.81 5.46 37.16 5.83Q37.50 6.21 37.50 6.77L37.50 6.77Q37.50 7.62 36.85 8.07Q36.20 8.53 34.99 8.53L34.99 8.53Q34.60 8.53 34.18 8.46Q33.75 8.39 33.27 8.25L33.27 8.25L33.27 7.42Q33.63 7.61 34.03 7.70Q34.44 7.79 34.90 7.79L34.90 7.79Q35.64 7.79 36.05 7.52Q36.46 7.25 36.46 6.77L36.46 6.77Q36.46 6.26 36.08 6.00Q35.70 5.74 34.97 5.74L34.97 5.74L34.38 5.74L34.38 5.00L35.02 5.00Q35.66 5.00 35.99 4.79Q36.33 4.57 36.33 4.16L36.33 4.16Q36.33 3.77 35.98 3.56Q35.64 3.35 34.99 3.35L34.99 3.35Q34.72 3.35 34.37 3.41Q34.02 3.47 33.47 3.63L33.47 3.63L33.47 2.84Q33.97 2.73 34.41 2.67Q34.84 2.60 35.22 2.60L35.22 2.60Q36.20 2.60 36.78 3.01Q37.36 3.41 37.36 4.09L37.36 4.09Q37.36 4.56 37.05 4.89Q36.74 5.22 36.18 5.34Z"></path></svg>