<svg height="16.296875" width="19.564453125" xmlns="http://www.w3.org/2000/svg" ><path d="M2.14 5.34L4.17 8.07L6.20 5.34L7.68 5.34L4.96 8.99Q5.45 9.66 5.75 10.18L5.75 10.18Q6.22 11.00 6.22 11.42L6.22 11.42Q6.22 12.31 5.71 12.75Q5.20 13.19 4.17 13.19L4.17 13.19Q3.14 13.19 2.63 12.75Q2.12 12.31 2.12 11.42L2.12 11.42Q2.12 11.00 2.59 10.18L2.59 10.18Q2.89 9.66 3.38 8.99L3.38 8.99L0.66 5.34L2.14 5.34ZM4.17 12.13L4.17 12.13Q4.63 12.13 4.84 11.94L4.84 11.94Q5.03 11.78 5.03 11.47L5.03 11.47Q5.03 11.25 4.76 10.81L4.76 10.81Q4.55 10.47 4.17 9.99L4.17 9.99Q3.79 10.47 3.58 10.81L3.58 10.81Q3.31 11.25 3.31 11.47L3.31 11.47Q3.31 11.78 3.50 11.94L3.50 11.94Q3.71 12.13 4.17 12.13ZM9.31 5.58L9.31 2.72L12.80 2.72L12.80 3.37L10.12 3.37L10.12 4.76Q10.32 4.70 10.51 4.68L10.51 4.68Q10.71 4.65 10.90 4.65L10.90 4.65Q12.00 4.65 12.64 5.17L12.64 5.17Q13.28 5.69 13.28 6.59L13.28 6.59Q13.28 7.51 12.62 8.03L12.62 8.03Q11.96 8.53 10.76 8.53L10.76 8.53Q10.35 8.53 9.92 8.47Q9.49 8.41 9.04 8.29L9.04 8.29L9.04 7.51Q9.43 7.70 9.85 7.79L9.85 7.79Q10.27 7.88 10.75 7.88L10.75 7.88Q11.50 7.88 11.95 7.53Q12.39 7.18 12.39 6.59Q12.39 6.00 11.95 5.65Q11.50 5.30 10.75 5.30L10.75 5.30Q10.39 5.30 10.04 5.37Q9.68 5.43 9.31 5.58L9.31 5.58ZM17.53 5.34L17.53 5.34Q18.16 5.46 18.51 5.83Q18.85 6.21 18.85 6.77L18.85 6.77Q18.85 7.62 18.20 8.07Q17.55 8.53 16.34 8.53L16.34 8.53Q15.96 8.53 15.53 8.46Q15.10 8.39 14.62 8.25L14.62 8.25L14.62 7.42Q14.98 7.61 15.38 7.70Q15.79 7.79 16.25 7.79L16.25 7.79Q16.99 7.79 17.40 7.52Q17.81 7.25 17.81 6.77L17.81 6.77Q17.81 6.26 17.44 6.00Q17.06 5.74 16.32 5.74L16.32 5.74L15.73 5.74L15.73 5.00L16.37 5.00Q17.01 5.00 17.35 4.79Q17.68 4.57 17.68 4.16L17.68 4.16Q17.68 3.77 17.34 3.56Q16.99 3.35 16.34 3.35L16.34 3.35Q16.07 3.35 15.72 3.41Q15.37 3.47 14.82 3.63L14.82 3.63L14.82 2.84Q15.32 2.73 15.76 2.67Q16.19 2.60 16.57 2.60L16.57 2.60Q17.55 2.60 18.13 3.01Q18.71 3.41 18.71 4.09L18.71 4.09Q18.71 4.56 18.40 4.89Q18.09 5.22 17.53 5.34Z"></path></svg>