<svg height="16.296875" width="25.1767578125" xmlns="http://www.w3.org/2000/svg" ><path d="M2.14 5.34L4.17 8.07L6.20 5.34L7.68 5.34L4.96 8.99Q5.45 9.66 5.75 10.18L5.75 10.18Q6.22 11.00 6.22 11.42L6.22 11.42Q6.22 12.31 5.71 12.75Q5.20 13.19 4.17 13.19L4.17 13.19Q3.14 13.19 2.63 12.75Q2.12 12.31 2.12 11.42L2.12 11.42Q2.12 11.00 2.59 10.18L2.59 10.18Q2.89 9.66 3.38 8.99L3.38 8.99L0.66 5.34L2.14 5.34ZM4.17 12.13L4.17 12.13Q4.63 12.13 4.84 11.94L4.84 11.94Q5.03 11.78 5.03 11.47L5.03 11.47Q5.03 11.25 4.76 10.81L4.76 10.81Q4.55 10.47 4.17 9.99L4.17 9.99Q3.79 10.47 3.58 10.81L3.58 10.81Q3.31 11.25 3.31 11.47L3.31 11.47Q3.31 11.78 3.50 11.94L3.50 11.94Q3.71 12.13 4.17 12.13ZM11.92 5.34L11.92 5.34Q12.55 5.46 12.90 5.83Q13.24 6.21 13.24 6.77L13.24 6.77Q13.24 7.62 12.59 8.07Q11.94 8.53 10.73 8.53L10.73 8.53Q10.34 8.53 9.92 8.46Q9.49 8.39 9.01 8.25L9.01 8.25L9.01 7.42Q9.37 7.61 9.77 7.70Q10.18 7.79 10.64 7.79L10.64 7.79Q11.38 7.79 11.79 7.52Q12.20 7.25 12.20 6.77L12.20 6.77Q12.20 6.26 11.82 6.00Q11.44 5.74 10.71 5.74L10.71 5.74L10.12 5.74L10.12 5.00L10.76 5.00Q11.40 5.00 11.73 4.79Q12.07 4.57 12.07 4.16L12.07 4.16Q12.07 3.77 11.72 3.56Q11.38 3.35 10.73 3.35L10.73 3.35Q10.46 3.35 10.11 3.41Q9.76 3.47 9.21 3.63L9.21 3.63L9.21 2.84Q9.71 2.73 10.14 2.67Q10.58 2.60 10.96 2.60L10.96 2.60Q11.94 2.60 12.52 3.01Q13.10 3.41 13.10 4.09L13.10 4.09Q13.10 4.56 12.79 4.89Q12.48 5.22 11.92 5.34ZM17.53 5.34L17.53 5.34Q18.16 5.46 18.51 5.83Q18.85 6.21 18.85 6.77L18.85 6.77Q18.85 7.62 18.20 8.07Q17.55 8.53 16.34 8.53L16.34 8.53Q15.96 8.53 15.53 8.46Q15.10 8.39 14.62 8.25L14.62 8.25L14.62 7.42Q14.98 7.61 15.38 7.70Q15.79 7.79 16.25 7.79L16.25 7.79Q16.99 7.79 17.40 7.52Q17.81 7.25 17.81 6.77L17.81 6.77Q17.81 6.26 17.44 6.00Q17.06 5.74 16.32 5.74L16.32 5.74L15.73 5.74L15.73 5.00L16.37 5.00Q17.01 5.00 17.35 4.79Q17.68 4.57 17.68 4.16L17.68 4.16Q17.68 3.77 17.34 3.56Q16.99 3.35 16.34 3.35L16.34 3.35Q16.07 3.35 15.72 3.41Q15.37 3.47 14.82 3.63L14.82 3.63L14.82 2.84Q15.32 2.73 15.76 2.67Q16.19 2.60 16.57 2.60L16.57 2.60Q17.55 2.60 18.13 3.01Q18.71 3.41 18.71 4.09L18.71 4.09Q18.71 4.56 18.40 4.89Q18.09 5.22 17.53 5.34ZM22.83 6.41L22.83 3.55L20.71 6.41L22.83 6.41ZM20.00 6.33L22.67 2.72L23.81 2.72L23.81 6.41L24.73 6.41L24.73 7.16L23.81 7.16L23.81 8.43L22.83 8.43L22.83 7.16L20.00 7.16L20.00 6.33Z"></path></svg>