<svg height="16.296875" width="30.65234375" xmlns="http://www.w3.org/2000/svg" ><path d="M4.01 2.36L5.20 2.36L5.20 3.40L3.99 3.40Q3.32 3.40 3.05 3.68Q2.79 3.95 2.79 4.66L2.79 4.66L2.79 5.34L4.86 5.34L4.86 6.32L2.79 6.32L2.79 13.00L1.52 13.00L1.52 6.32L0.32 6.32L0.32 5.34L1.52 5.34L1.52 4.81Q1.52 3.53 2.12 2.94Q2.71 2.36 4.01 2.36L4.01 2.36ZM11.29 6.50L11.29 6.50L11.29 5.34L12.54 5.34L12.54 13.00L11.29 13.00L11.29 11.85Q10.89 12.53 10.28 12.86Q9.68 13.19 8.83 13.19L8.83 13.19Q7.44 13.19 6.57 12.09Q5.70 10.98 5.70 9.17L5.70 9.17Q5.70 7.37 6.57 6.26Q7.44 5.15 8.83 5.15L8.83 5.15Q9.68 5.15 10.28 5.49Q10.89 5.82 11.29 6.50ZM7 9.17L7 9.17Q7 10.56 7.57 11.35Q8.14 12.14 9.14 12.14L9.14 12.14Q10.14 12.14 10.71 11.35Q11.29 10.56 11.29 9.17L11.29 9.17Q11.29 7.79 10.71 7.00Q10.14 6.21 9.14 6.21L9.14 6.21Q8.14 6.21 7.57 7.00Q7 7.79 7 9.17ZM10.27 3.63L10.27 3.63L9.88 3.25Q9.73 3.12 9.62 3.05Q9.51 2.99 9.42 2.99L9.42 2.99Q9.16 2.99 9.04 3.24Q8.91 3.49 8.90 4.05L8.90 4.05L8.05 4.05Q8.06 3.12 8.41 2.62Q8.76 2.12 9.38 2.12L9.38 2.12Q9.64 2.12 9.86 2.21Q10.08 2.31 10.33 2.54L10.33 2.54L10.72 2.91Q10.87 3.05 10.98 3.11Q11.09 3.18 11.18 3.18L11.18 3.18Q11.44 3.18 11.57 2.93Q11.69 2.68 11.70 2.12L11.70 2.12L12.56 2.12Q12.54 3.04 12.20 3.54Q11.85 4.05 11.22 4.05L11.22 4.05Q10.96 4.05 10.75 3.95Q10.53 3.86 10.27 3.63ZM17.40 5.34L17.40 5.34Q18.03 5.46 18.37 5.83Q18.72 6.21 18.72 6.77L18.72 6.77Q18.72 7.62 18.07 8.07Q17.42 8.53 16.21 8.53L16.21 8.53Q15.82 8.53 15.39 8.46Q14.96 8.39 14.49 8.25L14.49 8.25L14.49 7.42Q14.84 7.61 15.25 7.70Q15.65 7.79 16.11 7.79L16.11 7.79Q16.86 7.79 17.27 7.52Q17.68 7.25 17.68 6.77L17.68 6.77Q17.68 6.26 17.30 6.00Q16.92 5.74 16.18 5.74L16.18 5.74L15.59 5.74L15.59 5.00L16.24 5.00Q16.88 5.00 17.21 4.79Q17.54 4.57 17.54 4.16L17.54 4.16Q17.54 3.77 17.20 3.56Q16.86 3.35 16.21 3.35L16.21 3.35Q15.93 3.35 15.59 3.41Q15.24 3.47 14.68 3.63L14.68 3.63L14.68 2.84Q15.18 2.73 15.62 2.67Q16.06 2.60 16.43 2.60L16.43 2.60Q17.42 2.60 18.00 3.01Q18.57 3.41 18.57 4.09L18.57 4.09Q18.57 4.56 18.27 4.89Q17.96 5.22 17.40 5.34ZM23.01 5.34L23.01 5.34Q23.64 5.46 23.98 5.83Q24.33 6.21 24.33 6.77L24.33 6.77Q24.33 7.62 23.68 8.07Q23.03 8.53 21.82 8.53L21.82 8.53Q21.43 8.53 21.00 8.46Q20.58 8.39 20.10 8.25L20.10 8.25L20.10 7.42Q20.45 7.61 20.86 7.70Q21.27 7.79 21.72 7.79L21.72 7.79Q22.47 7.79 22.88 7.52Q23.29 7.25 23.29 6.77L23.29 6.77Q23.29 6.26 22.91 6.00Q22.53 5.74 21.79 5.74L21.79 5.74L21.21 5.74L21.21 5.00L21.85 5.00Q22.49 5.00 22.82 4.79Q23.15 4.57 23.15 4.16L23.15 4.16Q23.15 3.77 22.81 3.56Q22.47 3.35 21.82 3.35L21.82 3.35Q21.55 3.35 21.20 3.41Q20.85 3.47 20.30 3.63L20.30 3.63L20.30 2.84Q20.79 2.73 21.23 2.67Q21.67 2.60 22.05 2.60L22.05 2.60Q23.03 2.60 23.61 3.01Q24.19 3.41 24.19 4.09L24.19 4.09Q24.19 4.56 23.88 4.89Q23.57 5.22 23.01 5.34ZM28.30 6.41L28.30 3.55L26.19 6.41L28.30 6.41ZM25.47 6.33L28.15 2.72L29.29 2.72L29.29 6.41L30.21 6.41L30.21 7.16L29.29 7.16L29.29 8.43L28.30 8.43L28.30 7.16L25.47 7.16L25.47 6.33Z"></path></svg>