<svg height="16.296875" width="31.58203125" xmlns="http://www.w3.org/2000/svg" ><path d="M4.01 2.36L5.20 2.36L5.20 3.40L3.99 3.40Q3.32 3.40 3.05 3.68Q2.79 3.95 2.79 4.66L2.79 4.66L2.79 5.34L4.86 5.34L4.86 6.32L2.79 6.32L2.79 13.00L1.52 13.00L1.52 6.32L0.32 6.32L0.32 5.34L1.52 5.34L1.52 4.81Q1.52 3.53 2.12 2.94Q2.71 2.36 4.01 2.36L4.01 2.36ZM9.93 5.34L12.80 13.00L11.46 13.00L10.77 11.12L7.38 11.12L6.68 13.00L5.35 13.00L8.22 5.34L9.93 5.34ZM9.07 6.57L7.76 10.10L10.38 10.10L9.07 6.57ZM15.54 13.00L15.54 7.54L15.97 7.54Q17.28 7.54 17.87 6.76L17.87 6.76Q18.27 6.24 18.27 5.57L18.27 5.57Q18.26 4.66 17.87 4.22L17.87 4.22Q17.19 3.44 15.97 3.44L15.97 3.44Q15.42 3.44 14.88 3.59L14.88 3.59Q14.35 3.73 13.82 4.03L13.82 4.03L13.82 2.85Q14.33 2.61 14.89 2.50L14.89 2.50Q15.44 2.37 16.02 2.37L16.02 2.37Q17.90 2.37 18.85 3.45L18.85 3.45Q19.59 4.30 19.59 5.57L19.59 5.57Q19.59 6.73 18.85 7.52L18.85 7.52Q18.09 8.33 16.93 8.54L16.93 8.54L16.93 13.00L15.54 13.00ZM21.33 5.58L21.33 2.72L24.81 2.72L24.81 3.37L22.14 3.37L22.14 4.76Q22.33 4.70 22.53 4.68L22.53 4.68Q22.72 4.65 22.91 4.65L22.91 4.65Q24.01 4.65 24.66 5.17L24.66 5.17Q25.30 5.69 25.30 6.59L25.30 6.59Q25.30 7.51 24.64 8.03L24.64 8.03Q23.98 8.53 22.78 8.53L22.78 8.53Q22.37 8.53 21.94 8.47Q21.51 8.41 21.05 8.29L21.05 8.29L21.05 7.51Q21.44 7.70 21.87 7.79L21.87 7.79Q22.29 7.88 22.76 7.88L22.76 7.88Q23.52 7.88 23.97 7.53Q24.41 7.18 24.41 6.59Q24.41 6.00 23.97 5.65Q23.52 5.30 22.76 5.30L22.76 5.30Q22.41 5.30 22.05 5.37Q21.70 5.43 21.33 5.58L21.33 5.58ZM26.94 5.58L26.94 2.72L30.43 2.72L30.43 3.37L27.75 3.37L27.75 4.76Q27.95 4.70 28.14 4.68L28.14 4.68Q28.33 4.65 28.53 4.65L28.53 4.65Q29.63 4.65 30.27 5.17L30.27 5.17Q30.91 5.69 30.91 6.59L30.91 6.59Q30.91 7.51 30.25 8.03L30.25 8.03Q29.59 8.53 28.39 8.53L28.39 8.53Q27.98 8.53 27.55 8.47Q27.12 8.41 26.67 8.29L26.67 8.29L26.67 7.51Q27.06 7.70 27.48 7.79L27.48 7.79Q27.90 7.88 28.38 7.88L28.38 7.88Q29.13 7.88 29.58 7.53Q30.02 7.18 30.02 6.59Q30.02 6.00 29.58 5.65Q29.13 5.30 28.38 5.30L28.38 5.30Q28.02 5.30 27.67 5.37Q27.31 5.43 26.94 5.58L26.94 5.58Z"></path></svg>