<svg height="16.296875" width="23.0234375" xmlns="http://www.w3.org/2000/svg" ><path d="M4.01 2.36L5.20 2.36L5.20 3.40L3.99 3.40Q3.32 3.40 3.05 3.68Q2.79 3.95 2.79 4.66L2.79 4.66L2.79 5.34L4.86 5.34L4.86 6.32L2.79 6.32L2.79 13.00L1.52 13.00L1.52 6.32L0.32 6.32L0.32 5.34L1.52 5.34L1.52 4.81Q1.52 3.53 2.12 2.94Q2.71 2.36 4.01 2.36L4.01 2.36ZM6.20 13.00L6.20 5.34L11.04 5.34L11.04 6.35L7.47 6.35L7.47 8.41L10.88 8.41L10.88 9.42L7.47 9.42L7.47 11.99L11.13 11.99L11.13 13.00L6.20 13.00ZM12.77 5.58L12.77 2.72L16.26 2.72L16.26 3.37L13.58 3.37L13.58 4.76Q13.77 4.70 13.97 4.68L13.97 4.68Q14.16 4.65 14.36 4.65L14.36 4.65Q15.46 4.65 16.10 5.17L16.10 5.17Q16.74 5.69 16.74 6.59L16.74 6.59Q16.74 7.51 16.08 8.03L16.08 8.03Q15.42 8.53 14.22 8.53L14.22 8.53Q13.81 8.53 13.38 8.47Q12.95 8.41 12.50 8.29L12.50 8.29L12.50 7.51Q12.89 7.70 13.31 7.79L13.31 7.79Q13.73 7.88 14.21 7.88L14.21 7.88Q14.96 7.88 15.41 7.53Q15.85 7.18 15.85 6.59Q15.85 6.00 15.41 5.65Q14.96 5.30 14.21 5.30L14.21 5.30Q13.85 5.30 13.49 5.37Q13.14 5.43 12.77 5.58L12.77 5.58ZM20.99 5.34L20.99 5.34Q21.62 5.46 21.97 5.83Q22.31 6.21 22.31 6.77L22.31 6.77Q22.31 7.62 21.66 8.07Q21.01 8.53 19.80 8.53L19.80 8.53Q19.41 8.53 18.99 8.46Q18.56 8.39 18.08 8.25L18.08 8.25L18.08 7.42Q18.44 7.61 18.84 7.70Q19.25 7.79 19.71 7.79L19.71 7.79Q20.45 7.79 20.86 7.52Q21.27 7.25 21.27 6.77L21.27 6.77Q21.27 6.26 20.89 6.00Q20.51 5.74 19.78 5.74L19.78 5.74L19.19 5.74L19.19 5.00L19.83 5.00Q20.47 5.00 20.81 4.79Q21.14 4.57 21.14 4.16L21.14 4.16Q21.14 3.77 20.79 3.56Q20.45 3.35 19.80 3.35L19.80 3.35Q19.53 3.35 19.18 3.41Q18.83 3.47 18.28 3.63L18.28 3.63L18.28 2.84Q18.78 2.73 19.22 2.67Q19.65 2.60 20.03 2.60L20.03 2.60Q21.01 2.60 21.59 3.01Q22.17 3.41 22.17 4.09L22.17 4.09Q22.17 4.56 21.86 4.89Q21.55 5.22 20.99 5.34Z"></path></svg>