<svg height="16.296875" width="28.6357421875" xmlns="http://www.w3.org/2000/svg" ><path d="M4.01 2.36L5.20 2.36L5.20 3.40L3.99 3.40Q3.32 3.40 3.05 3.68Q2.79 3.95 2.79 4.66L2.79 4.66L2.79 5.34L4.86 5.34L4.86 6.32L2.79 6.32L2.79 13.00L1.52 13.00L1.52 6.32L0.32 6.32L0.32 5.34L1.52 5.34L1.52 4.81Q1.52 3.53 2.12 2.94Q2.71 2.36 4.01 2.36L4.01 2.36ZM6.20 13.00L6.20 5.34L11.04 5.34L11.04 6.35L7.47 6.35L7.47 8.41L10.88 8.41L10.88 9.42L7.47 9.42L7.47 11.99L11.13 11.99L11.13 13.00L6.20 13.00ZM15.38 5.34L15.38 5.34Q16.01 5.46 16.35 5.83Q16.70 6.21 16.70 6.77L16.70 6.77Q16.70 7.62 16.05 8.07Q15.40 8.53 14.19 8.53L14.19 8.53Q13.80 8.53 13.37 8.46Q12.95 8.39 12.47 8.25L12.47 8.25L12.47 7.42Q12.82 7.61 13.23 7.70Q13.64 7.79 14.10 7.79L14.10 7.79Q14.84 7.79 15.25 7.52Q15.66 7.25 15.66 6.77L15.66 6.77Q15.66 6.26 15.28 6.00Q14.90 5.74 14.16 5.74L14.16 5.74L13.58 5.74L13.58 5.00L14.22 5.00Q14.86 5.00 15.19 4.79Q15.52 4.57 15.52 4.16L15.52 4.16Q15.52 3.77 15.18 3.56Q14.84 3.35 14.19 3.35L14.19 3.35Q13.92 3.35 13.57 3.41Q13.22 3.47 12.67 3.63L12.67 3.63L12.67 2.84Q13.17 2.73 13.60 2.67Q14.04 2.60 14.42 2.60L14.42 2.60Q15.40 2.60 15.98 3.01Q16.56 3.41 16.56 4.09L16.56 4.09Q16.56 4.56 16.25 4.89Q15.94 5.22 15.38 5.34ZM20.99 5.34L20.99 5.34Q21.62 5.46 21.97 5.83Q22.31 6.21 22.31 6.77L22.31 6.77Q22.31 7.62 21.66 8.07Q21.01 8.53 19.80 8.53L19.80 8.53Q19.41 8.53 18.99 8.46Q18.56 8.39 18.08 8.25L18.08 8.25L18.08 7.42Q18.44 7.61 18.84 7.70Q19.25 7.79 19.71 7.79L19.71 7.79Q20.45 7.79 20.86 7.52Q21.27 7.25 21.27 6.77L21.27 6.77Q21.27 6.26 20.89 6.00Q20.51 5.74 19.78 5.74L19.78 5.74L19.19 5.74L19.19 5.00L19.83 5.00Q20.47 5.00 20.81 4.79Q21.14 4.57 21.14 4.16L21.14 4.16Q21.14 3.77 20.79 3.56Q20.45 3.35 19.80 3.35L19.80 3.35Q19.53 3.35 19.18 3.41Q18.83 3.47 18.28 3.63L18.28 3.63L18.28 2.84Q18.78 2.73 19.22 2.67Q19.65 2.60 20.03 2.60L20.03 2.60Q21.01 2.60 21.59 3.01Q22.17 3.41 22.17 4.09L22.17 4.09Q22.17 4.56 21.86 4.89Q21.55 5.22 20.99 5.34ZM26.28 6.41L26.28 3.55L24.17 6.41L26.28 6.41ZM23.45 6.33L26.13 2.72L27.27 2.72L27.27 6.41L28.19 6.41L28.19 7.16L27.27 7.16L27.27 8.43L26.28 8.43L26.28 7.16L23.45 7.16L23.45 6.33Z"></path></svg>