<svg height="16.296875" width="39.251953125" xmlns="http://www.w3.org/2000/svg" ><path d="M4.01 2.36L5.20 2.36L5.20 3.40L3.99 3.40Q3.32 3.40 3.05 3.68Q2.79 3.95 2.79 4.66L2.79 4.66L2.79 5.34L4.86 5.34L4.86 6.32L2.79 6.32L2.79 13.00L1.52 13.00L1.52 6.32L0.32 6.32L0.32 5.34L1.52 5.34L1.52 4.81Q1.52 3.53 2.12 2.94Q2.71 2.36 4.01 2.36L4.01 2.36ZM5.70 9.50L5.70 9.50L5.70 8.88L11.48 8.88Q11.40 7.58 10.70 6.90Q10.00 6.22 8.75 6.22L8.75 6.22Q8.03 6.22 7.35 6.40Q6.67 6.58 6.00 6.93L6.00 6.93L6.00 5.74Q6.67 5.46 7.38 5.30Q8.09 5.15 8.83 5.15L8.83 5.15Q10.66 5.15 11.73 6.22Q12.80 7.29 12.80 9.11L12.80 9.11Q12.80 10.99 11.78 12.09Q10.77 13.19 9.04 13.19L9.04 13.19Q7.50 13.19 6.60 12.20Q5.70 11.20 5.70 9.50ZM11.44 9.86L6.96 9.86Q6.97 10.90 7.54 11.51Q8.10 12.13 9.03 12.13L9.03 12.13Q10.08 12.13 10.72 11.53Q11.35 10.94 11.44 9.86L11.44 9.86ZM21.23 8.37L21.23 8.37L21.23 13.00L19.97 13.00L19.97 8.42Q19.97 7.33 19.54 6.79Q19.12 6.25 18.27 6.25L18.27 6.25Q17.25 6.25 16.67 6.90Q16.08 7.55 16.08 8.67L16.08 8.67L16.08 13.00L14.81 13.00L14.81 5.34L16.08 5.34L16.08 6.53Q16.53 5.84 17.14 5.50Q17.75 5.15 18.55 5.15L18.55 5.15Q19.87 5.15 20.55 5.97Q21.23 6.79 21.23 8.37ZM26.00 5.34L26.00 5.34Q26.63 5.46 26.97 5.83Q27.32 6.21 27.32 6.77L27.32 6.77Q27.32 7.62 26.67 8.07Q26.02 8.53 24.81 8.53L24.81 8.53Q24.42 8.53 23.99 8.46Q23.56 8.39 23.08 8.25L23.08 8.25L23.08 7.42Q23.44 7.61 23.85 7.70Q24.25 7.79 24.71 7.79L24.71 7.79Q25.46 7.79 25.87 7.52Q26.28 7.25 26.28 6.77L26.28 6.77Q26.28 6.26 25.90 6.00Q25.52 5.74 24.78 5.74L24.78 5.74L24.19 5.74L24.19 5.00L24.83 5.00Q25.48 5.00 25.81 4.79Q26.14 4.57 26.14 4.16L26.14 4.16Q26.14 3.77 25.80 3.56Q25.46 3.35 24.81 3.35L24.81 3.35Q24.53 3.35 24.19 3.41Q23.84 3.47 23.28 3.63L23.28 3.63L23.28 2.84Q23.78 2.73 24.22 2.67Q24.66 2.60 25.03 2.60L25.03 2.60Q26.02 2.60 26.60 3.01Q27.17 3.41 27.17 4.09L27.17 4.09Q27.17 4.56 26.87 4.89Q26.56 5.22 26.00 5.34ZM31.61 5.34L31.61 5.34Q32.24 5.46 32.58 5.83Q32.93 6.21 32.93 6.77L32.93 6.77Q32.93 7.62 32.28 8.07Q31.63 8.53 30.42 8.53L30.42 8.53Q30.03 8.53 29.60 8.46Q29.18 8.39 28.70 8.25L28.70 8.25L28.70 7.42Q29.05 7.61 29.46 7.70Q29.87 7.79 30.32 7.79L30.32 7.79Q31.07 7.79 31.48 7.52Q31.89 7.25 31.89 6.77L31.89 6.77Q31.89 6.26 31.51 6.00Q31.13 5.74 30.39 5.74L30.39 5.74L29.80 5.74L29.80 5.00L30.45 5.00Q31.09 5.00 31.42 4.79Q31.75 4.57 31.75 4.16L31.75 4.16Q31.75 3.77 31.41 3.56Q31.07 3.35 30.42 3.35L30.42 3.35Q30.15 3.35 29.80 3.41Q29.45 3.47 28.90 3.63L28.90 3.63L28.90 2.84Q29.39 2.73 29.83 2.67Q30.27 2.60 30.65 2.60L30.65 2.60Q31.63 2.60 32.21 3.01Q32.79 3.41 32.79 4.09L32.79 4.09Q32.79 4.56 32.48 4.89Q32.17 5.22 31.61 5.34ZM36.90 6.41L36.90 3.55L34.79 6.41L36.90 6.41ZM34.07 6.33L36.75 2.72L37.88 2.72L37.88 6.41L38.81 6.41L38.81 7.16L37.88 7.16L37.88 8.43L36.90 8.43L36.90 7.16L34.07 7.16L34.07 6.33Z"></path></svg>