<svg height="16.296875" width="31.91015625" xmlns="http://www.w3.org/2000/svg" ><path d="M4.01 2.36L5.20 2.36L5.20 3.40L3.99 3.40Q3.32 3.40 3.05 3.68Q2.79 3.95 2.79 4.66L2.79 4.66L2.79 5.34L4.86 5.34L4.86 6.32L2.79 6.32L2.79 13.00L1.52 13.00L1.52 6.32L0.32 6.32L0.32 5.34L1.52 5.34L1.52 4.81Q1.52 3.53 2.12 2.94Q2.71 2.36 4.01 2.36L4.01 2.36ZM5.70 9.50L5.70 9.50L5.70 8.88L11.48 8.88Q11.40 7.58 10.70 6.90Q10.00 6.22 8.75 6.22L8.75 6.22Q8.03 6.22 7.35 6.40Q6.67 6.58 6.00 6.93L6.00 6.93L6.00 5.74Q6.67 5.46 7.38 5.30Q8.09 5.15 8.83 5.15L8.83 5.15Q10.66 5.15 11.73 6.22Q12.80 7.29 12.80 9.11L12.80 9.11Q12.80 10.99 11.78 12.09Q10.77 13.19 9.04 13.19L9.04 13.19Q7.50 13.19 6.60 12.20Q5.70 11.20 5.70 9.50ZM11.44 9.86L6.96 9.86Q6.97 10.90 7.54 11.51Q8.10 12.13 9.03 12.13L9.03 12.13Q10.08 12.13 10.72 11.53Q11.35 10.94 11.44 9.86L11.44 9.86ZM15.87 13.00L15.87 7.54L16.30 7.54Q17.61 7.54 18.20 6.76L18.20 6.76Q18.59 6.24 18.59 5.57L18.59 5.57Q18.59 4.66 18.20 4.22L18.20 4.22Q17.52 3.44 16.30 3.44L16.30 3.44Q15.75 3.44 15.21 3.59L15.21 3.59Q14.68 3.73 14.14 4.03L14.14 4.03L14.14 2.85Q14.66 2.61 15.22 2.50L15.22 2.50Q15.77 2.37 16.35 2.37L16.35 2.37Q18.23 2.37 19.17 3.45L19.17 3.45Q19.92 4.30 19.92 5.57L19.92 5.57Q19.92 6.73 19.18 7.52L19.18 7.52Q18.42 8.33 17.25 8.54L17.25 8.54L17.25 13.00L15.87 13.00ZM21.66 5.58L21.66 2.72L25.14 2.72L25.14 3.37L22.47 3.37L22.47 4.76Q22.66 4.70 22.86 4.68L22.86 4.68Q23.05 4.65 23.24 4.65L23.24 4.65Q24.34 4.65 24.99 5.17L24.99 5.17Q25.63 5.69 25.63 6.59L25.63 6.59Q25.63 7.51 24.96 8.03L24.96 8.03Q24.31 8.53 23.11 8.53L23.11 8.53Q22.70 8.53 22.26 8.47Q21.83 8.41 21.38 8.29L21.38 8.29L21.38 7.51Q21.77 7.70 22.20 7.79L22.20 7.79Q22.62 7.88 23.09 7.88L23.09 7.88Q23.85 7.88 24.29 7.53Q24.74 7.18 24.74 6.59Q24.74 6.00 24.29 5.65Q23.85 5.30 23.09 5.30L23.09 5.30Q22.74 5.30 22.38 5.37Q22.03 5.43 21.66 5.58L21.66 5.58ZM27.27 5.58L27.27 2.72L30.75 2.72L30.75 3.37L28.08 3.37L28.08 4.76Q28.27 4.70 28.47 4.68L28.47 4.68Q28.66 4.65 28.85 4.65L28.85 4.65Q29.96 4.65 30.60 5.17L30.60 5.17Q31.24 5.69 31.24 6.59L31.24 6.59Q31.24 7.51 30.58 8.03L30.58 8.03Q29.92 8.53 28.72 8.53L28.72 8.53Q28.31 8.53 27.88 8.47Q27.45 8.41 27.00 8.29L27.00 8.29L27.00 7.51Q27.38 7.70 27.81 7.79L27.81 7.79Q28.23 7.88 28.70 7.88L28.70 7.88Q29.46 7.88 29.91 7.53Q30.35 7.18 30.35 6.59Q30.35 6.00 29.91 5.65Q29.46 5.30 28.70 5.30L28.70 5.30Q28.35 5.30 27.99 5.37Q27.64 5.43 27.27 5.58L27.27 5.58Z"></path></svg>