<svg height="16.296875" width="30.10546875" xmlns="http://www.w3.org/2000/svg" ><path d="M4.01 2.36L5.20 2.36L5.20 3.40L3.99 3.40Q3.32 3.40 3.05 3.68Q2.79 3.95 2.79 4.66L2.79 4.66L2.79 5.34L4.86 5.34L4.86 6.32L2.79 6.32L2.79 13.00L1.52 13.00L1.52 6.32L0.32 6.32L0.32 5.34L1.52 5.34L1.52 4.81Q1.52 3.53 2.12 2.94Q2.71 2.36 4.01 2.36L4.01 2.36ZM7.07 5.34L9.10 8.07L11.13 5.34L12.61 5.34L9.89 8.99Q10.38 9.66 10.68 10.18L10.68 10.18Q11.15 11.00 11.15 11.42L11.15 11.42Q11.15 12.31 10.64 12.75Q10.12 13.19 9.10 13.19L9.10 13.19Q8.07 13.19 7.56 12.75Q7.05 12.31 7.05 11.42L7.05 11.42Q7.05 11.00 7.52 10.18L7.52 10.18Q7.82 9.66 8.31 8.99L8.31 8.99L5.58 5.34L7.07 5.34ZM9.10 12.13L9.10 12.13Q9.56 12.13 9.77 11.94L9.77 11.94Q9.96 11.78 9.96 11.47L9.96 11.47Q9.96 11.25 9.69 10.81L9.69 10.81Q9.48 10.47 9.10 9.99L9.10 9.99Q8.72 10.47 8.50 10.81L8.50 10.81Q8.24 11.25 8.24 11.47L8.24 11.47Q8.24 11.78 8.43 11.94L8.43 11.94Q8.64 12.13 9.10 12.13ZM16.85 5.34L16.85 5.34Q17.48 5.46 17.82 5.83Q18.17 6.21 18.17 6.77L18.17 6.77Q18.17 7.62 17.52 8.07Q16.87 8.53 15.66 8.53L15.66 8.53Q15.27 8.53 14.84 8.46Q14.42 8.39 13.94 8.25L13.94 8.25L13.94 7.42Q14.29 7.61 14.70 7.70Q15.11 7.79 15.57 7.79L15.57 7.79Q16.31 7.79 16.72 7.52Q17.13 7.25 17.13 6.77L17.13 6.77Q17.13 6.26 16.75 6.00Q16.37 5.74 15.63 5.74L15.63 5.74L15.05 5.74L15.05 5.00L15.69 5.00Q16.33 5.00 16.66 4.79Q16.99 4.57 16.99 4.16L16.99 4.16Q16.99 3.77 16.65 3.56Q16.31 3.35 15.66 3.35L15.66 3.35Q15.39 3.35 15.04 3.41Q14.69 3.47 14.14 3.63L14.14 3.63L14.14 2.84Q14.64 2.73 15.07 2.67Q15.51 2.60 15.89 2.60L15.89 2.60Q16.87 2.60 17.45 3.01Q18.03 3.41 18.03 4.09L18.03 4.09Q18.03 4.56 17.72 4.89Q17.41 5.22 16.85 5.34ZM22.46 5.34L22.46 5.34Q23.09 5.46 23.44 5.83Q23.78 6.21 23.78 6.77L23.78 6.77Q23.78 7.62 23.13 8.07Q22.48 8.53 21.27 8.53L21.27 8.53Q20.88 8.53 20.46 8.46Q20.03 8.39 19.55 8.25L19.55 8.25L19.55 7.42Q19.91 7.61 20.31 7.70Q20.72 7.79 21.18 7.79L21.18 7.79Q21.92 7.79 22.33 7.52Q22.74 7.25 22.74 6.77L22.74 6.77Q22.74 6.26 22.36 6.00Q21.98 5.74 21.25 5.74L21.25 5.74L20.66 5.74L20.66 5.00L21.30 5.00Q21.94 5.00 22.27 4.79Q22.61 4.57 22.61 4.16L22.61 4.16Q22.61 3.77 22.26 3.56Q21.92 3.35 21.27 3.35L21.27 3.35Q21 3.35 20.65 3.41Q20.30 3.47 19.75 3.63L19.75 3.63L19.75 2.84Q20.25 2.73 20.69 2.67Q21.12 2.60 21.50 2.60L21.50 2.60Q22.48 2.60 23.06 3.01Q23.64 3.41 23.64 4.09L23.64 4.09Q23.64 4.56 23.33 4.89Q23.02 5.22 22.46 5.34ZM27.75 6.41L27.75 3.55L25.64 6.41L27.75 6.41ZM24.92 6.33L27.60 2.72L28.74 2.72L28.74 6.41L29.66 6.41L29.66 7.16L28.74 7.16L28.74 8.43L27.75 8.43L27.75 7.16L24.92 7.16L24.92 6.33Z"></path></svg>