<svg height="16.296875" width="20.04296875" xmlns="http://www.w3.org/2000/svg" ><path d="M4.01 2.36L5.20 2.36L5.20 3.40L3.99 3.40Q3.32 3.40 3.05 3.68Q2.79 3.95 2.79 4.66L2.79 4.66L2.79 5.34L4.86 5.34L4.86 6.32L2.79 6.32L2.79 13.00L1.52 13.00L1.52 6.32L0.32 6.32L0.32 5.34L1.52 5.34L1.52 4.81Q1.52 3.53 2.12 2.94Q2.71 2.36 4.01 2.36L4.01 2.36ZM6.25 13.00L6.25 5.34L7.51 5.34L7.51 13.00L6.25 13.00ZM6.25 3.95L6.25 2.36L7.51 2.36L7.51 3.95L6.25 3.95ZM9.79 5.58L9.79 2.72L13.28 2.72L13.28 3.37L10.60 3.37L10.60 4.76Q10.79 4.70 10.99 4.68L10.99 4.68Q11.18 4.65 11.38 4.65L11.38 4.65Q12.48 4.65 13.12 5.17L13.12 5.17Q13.76 5.69 13.76 6.59L13.76 6.59Q13.76 7.51 13.10 8.03L13.10 8.03Q12.44 8.53 11.24 8.53L11.24 8.53Q10.83 8.53 10.40 8.47Q9.97 8.41 9.52 8.29L9.52 8.29L9.52 7.51Q9.91 7.70 10.33 7.79L10.33 7.79Q10.75 7.88 11.22 7.88L11.22 7.88Q11.98 7.88 12.43 7.53Q12.87 7.18 12.87 6.59Q12.87 6.00 12.43 5.65Q11.98 5.30 11.22 5.30L11.22 5.30Q10.87 5.30 10.51 5.37Q10.16 5.43 9.79 5.58L9.79 5.58ZM18.01 5.34L18.01 5.34Q18.64 5.46 18.99 5.83Q19.33 6.21 19.33 6.77L19.33 6.77Q19.33 7.62 18.68 8.07Q18.03 8.53 16.82 8.53L16.82 8.53Q16.43 8.53 16.01 8.46Q15.58 8.39 15.10 8.25L15.10 8.25L15.10 7.42Q15.46 7.61 15.86 7.70Q16.27 7.79 16.73 7.79L16.73 7.79Q17.47 7.79 17.88 7.52Q18.29 7.25 18.29 6.77L18.29 6.77Q18.29 6.26 17.91 6.00Q17.53 5.74 16.80 5.74L16.80 5.74L16.21 5.74L16.21 5.00L16.85 5.00Q17.49 5.00 17.82 4.79Q18.16 4.57 18.16 4.16L18.16 4.16Q18.16 3.77 17.81 3.56Q17.47 3.35 16.82 3.35L16.82 3.35Q16.55 3.35 16.20 3.41Q15.85 3.47 15.30 3.63L15.30 3.63L15.30 2.84Q15.80 2.73 16.24 2.67Q16.67 2.60 17.05 2.60L17.05 2.60Q18.03 2.60 18.61 3.01Q19.19 3.41 19.19 4.09L19.19 4.09Q19.19 4.56 18.88 4.89Q18.57 5.22 18.01 5.34Z"></path></svg>