<svg height="16.296875" width="25.6552734375" xmlns="http://www.w3.org/2000/svg" ><path d="M4.01 2.36L5.20 2.36L5.20 3.40L3.99 3.40Q3.32 3.40 3.05 3.68Q2.79 3.95 2.79 4.66L2.79 4.66L2.79 5.34L4.86 5.34L4.86 6.32L2.79 6.32L2.79 13.00L1.52 13.00L1.52 6.32L0.32 6.32L0.32 5.34L1.52 5.34L1.52 4.81Q1.52 3.53 2.12 2.94Q2.71 2.36 4.01 2.36L4.01 2.36ZM6.25 13.00L6.25 5.34L7.51 5.34L7.51 13.00L6.25 13.00ZM6.25 3.95L6.25 2.36L7.51 2.36L7.51 3.95L6.25 3.95ZM12.40 5.34L12.40 5.34Q13.03 5.46 13.37 5.83Q13.72 6.21 13.72 6.77L13.72 6.77Q13.72 7.62 13.07 8.07Q12.42 8.53 11.21 8.53L11.21 8.53Q10.82 8.53 10.39 8.46Q9.97 8.39 9.49 8.25L9.49 8.25L9.49 7.42Q9.84 7.61 10.25 7.70Q10.66 7.79 11.12 7.79L11.12 7.79Q11.86 7.79 12.27 7.52Q12.68 7.25 12.68 6.77L12.68 6.77Q12.68 6.26 12.30 6.00Q11.92 5.74 11.18 5.74L11.18 5.74L10.60 5.74L10.60 5.00L11.24 5.00Q11.88 5.00 12.21 4.79Q12.54 4.57 12.54 4.16L12.54 4.16Q12.54 3.77 12.20 3.56Q11.86 3.35 11.21 3.35L11.21 3.35Q10.94 3.35 10.59 3.41Q10.24 3.47 9.69 3.63L9.69 3.63L9.69 2.84Q10.19 2.73 10.62 2.67Q11.06 2.60 11.44 2.60L11.44 2.60Q12.42 2.60 13.00 3.01Q13.58 3.41 13.58 4.09L13.58 4.09Q13.58 4.56 13.27 4.89Q12.96 5.22 12.40 5.34ZM18.01 5.34L18.01 5.34Q18.64 5.46 18.99 5.83Q19.33 6.21 19.33 6.77L19.33 6.77Q19.33 7.62 18.68 8.07Q18.03 8.53 16.82 8.53L16.82 8.53Q16.43 8.53 16.01 8.46Q15.58 8.39 15.10 8.25L15.10 8.25L15.10 7.42Q15.46 7.61 15.86 7.70Q16.27 7.79 16.73 7.79L16.73 7.79Q17.47 7.79 17.88 7.52Q18.29 7.25 18.29 6.77L18.29 6.77Q18.29 6.26 17.91 6.00Q17.53 5.74 16.80 5.74L16.80 5.74L16.21 5.74L16.21 5.00L16.85 5.00Q17.49 5.00 17.82 4.79Q18.16 4.57 18.16 4.16L18.16 4.16Q18.16 3.77 17.81 3.56Q17.47 3.35 16.82 3.35L16.82 3.35Q16.55 3.35 16.20 3.41Q15.85 3.47 15.30 3.63L15.30 3.63L15.30 2.84Q15.80 2.73 16.24 2.67Q16.67 2.60 17.05 2.60L17.05 2.60Q18.03 2.60 18.61 3.01Q19.19 3.41 19.19 4.09L19.19 4.09Q19.19 4.56 18.88 4.89Q18.57 5.22 18.01 5.34ZM23.30 6.41L23.30 3.55L21.19 6.41L23.30 6.41ZM20.47 6.33L23.15 2.72L24.29 2.72L24.29 6.41L25.21 6.41L25.21 7.16L24.29 7.16L24.29 8.43L23.30 8.43L23.30 7.16L20.47 7.16L20.47 6.33Z"></path></svg>