<svg height="16.296875" width="33.591796875" xmlns="http://www.w3.org/2000/svg" ><path d="M4.01 2.36L5.20 2.36L5.20 3.40L3.99 3.40Q3.32 3.40 3.05 3.68Q2.79 3.95 2.79 4.66L2.79 4.66L2.79 5.34L4.86 5.34L4.86 6.32L2.79 6.32L2.79 13.00L1.52 13.00L1.52 6.32L0.32 6.32L0.32 5.34L1.52 5.34L1.52 4.81Q1.52 3.53 2.12 2.94Q2.71 2.36 4.01 2.36L4.01 2.36ZM9.21 6.22L9.21 6.22Q8.20 6.22 7.62 7.01Q7.03 7.80 7.03 9.17L7.03 9.17Q7.03 10.55 7.61 11.34Q8.20 12.13 9.21 12.13L9.21 12.13Q10.22 12.13 10.81 11.33Q11.40 10.54 11.40 9.17L11.40 9.17Q11.40 7.81 10.81 7.02Q10.22 6.22 9.21 6.22ZM9.21 5.15L9.21 5.15Q10.86 5.15 11.79 6.22Q12.73 7.29 12.73 9.17L12.73 9.17Q12.73 11.05 11.79 12.12Q10.86 13.19 9.21 13.19L9.21 13.19Q7.57 13.19 6.63 12.12Q5.70 11.05 5.70 9.17L5.70 9.17Q5.70 7.29 6.63 6.22Q7.57 5.15 9.21 5.15ZM21.18 8.37L21.18 8.37L21.18 13.13Q21.18 14.59 20.62 15.25L20.62 15.25Q20.06 15.91 18.83 15.91L18.83 15.91L17.09 15.91L17.09 14.84L18.68 14.84Q19.40 14.84 19.66 14.51L19.66 14.51Q19.92 14.18 19.92 13.13L19.92 13.13L19.92 8.42Q19.92 7.33 19.50 6.79Q19.07 6.25 18.22 6.25L18.22 6.25Q17.21 6.25 16.62 6.90Q16.03 7.55 16.03 8.67L16.03 8.67L16.03 13.00L14.77 13.00L14.77 5.34L16.03 5.34L16.03 6.53Q16.48 5.84 17.09 5.50L17.09 5.50Q17.71 5.15 18.50 5.15L18.50 5.15Q19.82 5.15 20.50 5.97L20.50 5.97Q21.18 6.79 21.18 8.37ZM23.34 5.58L23.34 2.72L26.82 2.72L26.82 3.37L24.15 3.37L24.15 4.76Q24.34 4.70 24.54 4.68L24.54 4.68Q24.73 4.65 24.92 4.65L24.92 4.65Q26.02 4.65 26.67 5.17L26.67 5.17Q27.31 5.69 27.31 6.59L27.31 6.59Q27.31 7.51 26.65 8.03L26.65 8.03Q25.99 8.53 24.79 8.53L24.79 8.53Q24.38 8.53 23.95 8.47Q23.52 8.41 23.06 8.29L23.06 8.29L23.06 7.51Q23.45 7.70 23.88 7.79L23.88 7.79Q24.30 7.88 24.77 7.88L24.77 7.88Q25.53 7.88 25.98 7.53Q26.42 7.18 26.42 6.59Q26.42 6.00 25.98 5.65Q25.53 5.30 24.77 5.30L24.77 5.30Q24.42 5.30 24.06 5.37Q23.71 5.43 23.34 5.58L23.34 5.58ZM31.56 5.34L31.56 5.34Q32.19 5.46 32.54 5.83Q32.88 6.21 32.88 6.77L32.88 6.77Q32.88 7.62 32.23 8.07Q31.58 8.53 30.37 8.53L30.37 8.53Q29.98 8.53 29.56 8.46Q29.13 8.39 28.65 8.25L28.65 8.25L28.65 7.42Q29.00 7.61 29.41 7.70Q29.82 7.79 30.28 7.79L30.28 7.79Q31.02 7.79 31.43 7.52Q31.84 7.25 31.84 6.77L31.84 6.77Q31.84 6.26 31.46 6.00Q31.08 5.74 30.34 5.74L30.34 5.74L29.76 5.74L29.76 5.00L30.40 5.00Q31.04 5.00 31.37 4.79Q31.71 4.57 31.71 4.16L31.71 4.16Q31.71 3.77 31.36 3.56Q31.02 3.35 30.37 3.35L30.37 3.35Q30.10 3.35 29.75 3.41Q29.40 3.47 28.85 3.63L28.85 3.63L28.85 2.84Q29.35 2.73 29.78 2.67Q30.22 2.60 30.60 2.60L30.60 2.60Q31.58 2.60 32.16 3.01Q32.74 3.41 32.74 4.09L32.74 4.09Q32.74 4.56 32.43 4.89Q32.12 5.22 31.56 5.34Z"></path></svg>