<svg height="16.296875" width="31.8623046875" xmlns="http://www.w3.org/2000/svg" ><path d="M4.01 2.36L5.20 2.36L5.20 3.40L3.99 3.40Q3.32 3.40 3.05 3.68Q2.79 3.95 2.79 4.66L2.79 4.66L2.79 5.34L4.86 5.34L4.86 6.32L2.79 6.32L2.79 13.00L1.52 13.00L1.52 6.32L0.32 6.32L0.32 5.34L1.52 5.34L1.52 4.81Q1.52 3.53 2.12 2.94Q2.71 2.36 4.01 2.36L4.01 2.36ZM9.21 6.22L9.21 6.22Q8.20 6.22 7.62 7.01Q7.03 7.80 7.03 9.17L7.03 9.17Q7.03 10.55 7.61 11.34Q8.20 12.13 9.21 12.13L9.21 12.13Q10.22 12.13 10.81 11.33Q11.40 10.54 11.40 9.17L11.40 9.17Q11.40 7.81 10.81 7.02Q10.22 6.22 9.21 6.22ZM9.21 5.15L9.21 5.15Q10.86 5.15 11.79 6.22Q12.73 7.29 12.73 9.17L12.73 9.17Q12.73 11.05 11.79 12.12Q10.86 13.19 9.21 13.19L9.21 13.19Q7.57 13.19 6.63 12.12Q5.70 11.05 5.70 9.17L5.70 9.17Q5.70 7.29 6.63 6.22Q7.57 5.15 9.21 5.15ZM15.83 13.00L15.82 7.54L16.25 7.54Q17.56 7.54 18.15 6.76L18.15 6.76Q18.55 6.24 18.55 5.57L18.55 5.57Q18.54 4.66 18.15 4.22L18.15 4.22Q17.47 3.44 16.25 3.44L16.25 3.44Q15.70 3.44 15.16 3.59L15.16 3.59Q14.63 3.73 14.10 4.03L14.10 4.03L14.10 2.85Q14.62 2.61 15.17 2.50L15.17 2.50Q15.72 2.37 16.30 2.37L16.30 2.37Q18.18 2.37 19.13 3.45L19.13 3.45Q19.87 4.30 19.87 5.57L19.87 5.57Q19.87 6.73 19.13 7.52L19.13 7.52Q18.37 8.33 17.21 8.54L17.21 8.54L17.21 13.00L15.83 13.00ZM21.61 5.58L21.61 2.72L25.09 2.72L25.09 3.37L22.42 3.37L22.42 4.76Q22.61 4.70 22.81 4.68L22.81 4.68Q23.00 4.65 23.19 4.65L23.19 4.65Q24.29 4.65 24.94 5.17L24.94 5.17Q25.58 5.69 25.58 6.59L25.58 6.59Q25.58 7.51 24.92 8.03L24.92 8.03Q24.26 8.53 23.06 8.53L23.06 8.53Q22.65 8.53 22.22 8.47Q21.79 8.41 21.33 8.29L21.33 8.29L21.33 7.51Q21.72 7.70 22.15 7.79L22.15 7.79Q22.57 7.88 23.04 7.88L23.04 7.88Q23.80 7.88 24.25 7.53Q24.69 7.18 24.69 6.59Q24.69 6.00 24.25 5.65Q23.80 5.30 23.04 5.30L23.04 5.30Q22.69 5.30 22.33 5.37Q21.98 5.43 21.61 5.58L21.61 5.58ZM27.22 5.58L27.22 2.72L30.71 2.72L30.71 3.37L28.03 3.37L28.03 4.76Q28.23 4.70 28.42 4.68L28.42 4.68Q28.62 4.65 28.81 4.65L28.81 4.65Q29.91 4.65 30.55 5.17L30.55 5.17Q31.19 5.69 31.19 6.59L31.19 6.59Q31.19 7.51 30.53 8.03L30.53 8.03Q29.87 8.53 28.67 8.53L28.67 8.53Q28.26 8.53 27.83 8.47Q27.40 8.41 26.95 8.29L26.95 8.29L26.95 7.51Q27.34 7.70 27.76 7.79L27.76 7.79Q28.18 7.88 28.66 7.88L28.66 7.88Q29.42 7.88 29.86 7.53Q30.30 7.18 30.30 6.59Q30.30 6.00 29.86 5.65Q29.42 5.30 28.66 5.30L28.66 5.30Q28.30 5.30 27.95 5.37Q27.59 5.43 27.22 5.58L27.22 5.58Z"></path></svg>