<svg height="16.296875" width="25.0263671875" xmlns="http://www.w3.org/2000/svg" ><path d="M4.01 2.36L5.20 2.36L5.20 3.40L3.99 3.40Q3.32 3.40 3.05 3.68Q2.79 3.95 2.79 4.66L2.79 4.66L2.79 5.34L4.86 5.34L4.86 6.32L2.79 6.32L2.79 13.00L1.52 13.00L1.52 6.32L0.32 6.32L0.32 5.34L1.52 5.34L1.52 4.81Q1.52 3.53 2.12 2.94Q2.71 2.36 4.01 2.36L4.01 2.36ZM6.12 9.97L6.12 9.97L6.12 5.34L7.38 5.34L7.38 9.93Q7.38 11.01 7.80 11.56Q8.22 12.10 9.07 12.10L9.07 12.10Q10.09 12.10 10.68 11.45Q11.27 10.80 11.27 9.68L11.27 9.68L11.27 5.34L12.53 5.34L12.53 13.00L11.27 13.00L11.27 11.82Q10.81 12.52 10.21 12.85Q9.60 13.19 8.80 13.19L8.80 13.19Q7.49 13.19 6.80 12.37Q6.12 11.55 6.12 9.97ZM9.28 5.15L9.28 5.15ZM14.77 5.58L14.77 2.72L18.26 2.72L18.26 3.37L15.59 3.37L15.59 4.76Q15.78 4.70 15.98 4.68L15.98 4.68Q16.17 4.65 16.36 4.65L16.36 4.65Q17.46 4.65 18.10 5.17L18.10 5.17Q18.74 5.69 18.74 6.59L18.74 6.59Q18.74 7.51 18.08 8.03L18.08 8.03Q17.42 8.53 16.22 8.53L16.22 8.53Q15.81 8.53 15.38 8.47Q14.95 8.41 14.50 8.29L14.50 8.29L14.50 7.51Q14.89 7.70 15.31 7.79L15.31 7.79Q15.74 7.88 16.21 7.88L16.21 7.88Q16.97 7.88 17.41 7.53Q17.86 7.18 17.86 6.59Q17.86 6.00 17.41 5.65Q16.97 5.30 16.21 5.30L16.21 5.30Q15.85 5.30 15.50 5.37Q15.14 5.43 14.77 5.58L14.77 5.58ZM23.00 5.34L23.00 5.34Q23.63 5.46 23.97 5.83Q24.32 6.21 24.32 6.77L24.32 6.77Q24.32 7.62 23.67 8.07Q23.02 8.53 21.81 8.53L21.81 8.53Q21.42 8.53 20.99 8.46Q20.56 8.39 20.08 8.25L20.08 8.25L20.08 7.42Q20.44 7.61 20.85 7.70Q21.25 7.79 21.71 7.79L21.71 7.79Q22.46 7.79 22.87 7.52Q23.28 7.25 23.28 6.77L23.28 6.77Q23.28 6.26 22.90 6.00Q22.52 5.74 21.78 5.74L21.78 5.74L21.19 5.74L21.19 5.00L21.83 5.00Q22.48 5.00 22.81 4.79Q23.14 4.57 23.14 4.16L23.14 4.16Q23.14 3.77 22.80 3.56Q22.46 3.35 21.81 3.35L21.81 3.35Q21.53 3.35 21.18 3.41Q20.84 3.47 20.28 3.63L20.28 3.63L20.28 2.84Q20.78 2.73 21.22 2.67Q21.66 2.60 22.03 2.60L22.03 2.60Q23.02 2.60 23.59 3.01Q24.17 3.41 24.17 4.09L24.17 4.09Q24.17 4.56 23.86 4.89Q23.56 5.22 23.00 5.34Z"></path></svg>