<svg height="16.296875" width="34.0087890625" xmlns="http://www.w3.org/2000/svg" ><path d="M6.36 9.08L6.36 9.08Q6.36 7.71 5.79 6.96Q5.23 6.21 4.21 6.21L4.21 6.21Q3.20 6.21 2.64 6.96Q2.07 7.71 2.07 9.08L2.07 9.08Q2.07 10.44 2.64 11.19Q3.20 11.94 4.21 11.94L4.21 11.94Q5.23 11.94 5.79 11.19Q6.36 10.44 6.36 9.08ZM7.62 5.34L7.62 12.04Q7.62 14 6.75 14.95Q5.88 15.91 4.09 15.91L4.09 15.91Q3.42 15.91 2.84 15.81Q2.25 15.71 1.70 15.50L1.70 15.50L1.70 14.28Q2.25 14.58 2.79 14.72Q3.33 14.87 3.89 14.87L3.89 14.87Q5.13 14.87 5.74 14.22Q6.36 13.58 6.36 12.27L6.36 12.27L6.36 11.65Q5.97 12.33 5.36 12.66Q4.75 13.00 3.90 13.00L3.90 13.00Q2.50 13.00 1.63 11.92Q0.77 10.85 0.77 9.08L0.77 9.08Q0.77 7.30 1.63 6.23Q2.50 5.15 3.90 5.15L3.90 5.15Q4.75 5.15 5.36 5.49Q5.97 5.82 6.36 6.50L6.36 6.50L6.36 5.34L7.62 5.34ZM13.88 5.34L16.75 13.00L15.42 13.00L14.72 11.12L11.33 11.12L10.64 13.00L9.30 13.00L12.17 5.34L13.88 5.34ZM13.03 6.57L11.72 10.10L14.34 10.10L13.03 6.57ZM18.24 8.43L18.24 7.68L19.63 7.68L19.63 3.50L18.11 3.78L18.11 2.99L19.68 2.72L20.62 2.72L20.62 7.68L22.02 7.68L22.02 8.43L18.24 8.43ZM23.85 8.43L23.85 7.68L25.25 7.68L25.25 3.50L23.72 3.78L23.72 2.99L25.29 2.72L26.23 2.72L26.23 7.68L27.63 7.68L27.63 8.43L23.85 8.43ZM31.98 5.34L31.98 5.34Q32.61 5.46 32.95 5.83Q33.30 6.21 33.30 6.77L33.30 6.77Q33.30 7.62 32.65 8.07Q32.00 8.53 30.79 8.53L30.79 8.53Q30.40 8.53 29.97 8.46Q29.54 8.39 29.07 8.25L29.07 8.25L29.07 7.42Q29.42 7.61 29.83 7.70Q30.24 7.79 30.69 7.79L30.69 7.79Q31.44 7.79 31.85 7.52Q32.26 7.25 32.26 6.77L32.26 6.77Q32.26 6.26 31.88 6.00Q31.50 5.74 30.76 5.74L30.76 5.74L30.17 5.74L30.17 5.00L30.82 5.00Q31.46 5.00 31.79 4.79Q32.12 4.57 32.12 4.16L32.12 4.16Q32.12 3.77 31.78 3.56Q31.44 3.35 30.79 3.35L30.79 3.35Q30.52 3.35 30.17 3.41Q29.82 3.47 29.26 3.63L29.26 3.63L29.26 2.84Q29.76 2.73 30.20 2.67Q30.64 2.60 31.01 2.60L31.01 2.60Q32.00 2.60 32.58 3.01Q33.15 3.41 33.15 4.09L33.15 4.09Q33.15 4.56 32.85 4.89Q32.54 5.22 31.98 5.34Z"></path></svg>