<svg height="16.296875" width="34.6103515625" xmlns="http://www.w3.org/2000/svg" ><path d="M6.36 9.08L6.36 9.08Q6.36 7.71 5.79 6.96Q5.23 6.21 4.21 6.21L4.21 6.21Q3.20 6.21 2.64 6.96Q2.07 7.71 2.07 9.08L2.07 9.08Q2.07 10.44 2.64 11.19Q3.20 11.94 4.21 11.94L4.21 11.94Q5.23 11.94 5.79 11.19Q6.36 10.44 6.36 9.08ZM7.62 5.34L7.62 12.04Q7.62 14 6.75 14.95Q5.88 15.91 4.09 15.91L4.09 15.91Q3.42 15.91 2.84 15.81Q2.25 15.71 1.70 15.50L1.70 15.50L1.70 14.28Q2.25 14.58 2.79 14.72Q3.33 14.87 3.89 14.87L3.89 14.87Q5.13 14.87 5.74 14.22Q6.36 13.58 6.36 12.27L6.36 12.27L6.36 11.65Q5.97 12.33 5.36 12.66Q4.75 13.00 3.90 13.00L3.90 13.00Q2.50 13.00 1.63 11.92Q0.77 10.85 0.77 9.08L0.77 9.08Q0.77 7.30 1.63 6.23Q2.50 5.15 3.90 5.15L3.90 5.15Q4.75 5.15 5.36 5.49Q5.97 5.82 6.36 6.50L6.36 6.50L6.36 5.34L7.62 5.34ZM15.24 6.50L15.24 6.50L15.24 5.34L16.50 5.34L16.50 13.00L15.24 13.00L15.24 11.85Q14.85 12.53 14.24 12.86Q13.64 13.19 12.79 13.19L12.79 13.19Q11.40 13.19 10.53 12.09Q9.66 10.98 9.66 9.17L9.66 9.17Q9.66 7.37 10.53 6.26Q11.40 5.15 12.79 5.15L12.79 5.15Q13.64 5.15 14.24 5.49Q14.85 5.82 15.24 6.50ZM10.96 9.17L10.96 9.17Q10.96 10.56 11.53 11.35Q12.10 12.14 13.10 12.14L13.10 12.14Q14.10 12.14 14.67 11.35Q15.24 10.56 15.24 9.17L15.24 9.17Q15.24 7.79 14.67 7.00Q14.10 6.21 13.10 6.21L13.10 6.21Q12.10 6.21 11.53 7.00Q10.96 7.79 10.96 9.17ZM14.23 3.63L14.23 3.63L13.84 3.25Q13.69 3.12 13.58 3.05Q13.47 2.99 13.38 2.99L13.38 2.99Q13.12 2.99 13.00 3.24Q12.87 3.49 12.86 4.05L12.86 4.05L12.00 4.05Q12.02 3.12 12.37 2.62Q12.71 2.12 13.34 2.12L13.34 2.12Q13.60 2.12 13.82 2.21Q14.03 2.31 14.29 2.54L14.29 2.54L14.68 2.91Q14.83 3.05 14.94 3.11Q15.05 3.18 15.14 3.18L15.14 3.18Q15.40 3.18 15.52 2.93Q15.65 2.68 15.66 2.12L15.66 2.12L16.52 2.12Q16.50 3.04 16.15 3.54Q15.80 4.05 15.18 4.05L15.18 4.05Q14.92 4.05 14.70 3.95Q14.49 3.86 14.23 3.63ZM18.84 8.43L18.84 7.68L20.23 7.68L20.23 3.50L18.71 3.78L18.71 2.99L20.28 2.72L21.22 2.72L21.22 7.68L22.62 7.68L22.62 8.43L18.84 8.43ZM24.45 8.43L24.45 7.68L25.85 7.68L25.85 3.50L24.32 3.78L24.32 2.99L25.89 2.72L26.83 2.72L26.83 7.68L28.23 7.68L28.23 8.43L24.45 8.43ZM32.58 5.34L32.58 5.34Q33.21 5.46 33.55 5.83Q33.90 6.21 33.90 6.77L33.90 6.77Q33.90 7.62 33.25 8.07Q32.60 8.53 31.39 8.53L31.39 8.53Q31.00 8.53 30.57 8.46Q30.15 8.39 29.67 8.25L29.67 8.25L29.67 7.42Q30.02 7.61 30.43 7.70Q30.84 7.79 31.29 7.79L31.29 7.79Q32.04 7.79 32.45 7.52Q32.86 7.25 32.86 6.77L32.86 6.77Q32.86 6.26 32.48 6.00Q32.10 5.74 31.36 5.74L31.36 5.74L30.78 5.74L30.78 5.00L31.42 5.00Q32.06 5.00 32.39 4.79Q32.72 4.57 32.72 4.16L32.72 4.16Q32.72 3.77 32.38 3.56Q32.04 3.35 31.39 3.35L31.39 3.35Q31.12 3.35 30.77 3.41Q30.42 3.47 29.87 3.63L29.87 3.63L29.87 2.84Q30.37 2.73 30.80 2.67Q31.24 2.60 31.62 2.60L31.62 2.60Q32.60 2.60 33.18 3.01Q33.76 3.41 33.76 4.09L33.76 4.09Q33.76 4.56 33.45 4.89Q33.14 5.22 32.58 5.34Z"></path></svg>