<svg height="16.296875" width="32.59375" xmlns="http://www.w3.org/2000/svg" ><path d="M6.36 9.08L6.36 9.08Q6.36 7.71 5.79 6.96Q5.23 6.21 4.21 6.21L4.21 6.21Q3.20 6.21 2.64 6.96Q2.07 7.71 2.07 9.08L2.07 9.08Q2.07 10.44 2.64 11.19Q3.20 11.94 4.21 11.94L4.21 11.94Q5.23 11.94 5.79 11.19Q6.36 10.44 6.36 9.08ZM7.62 5.34L7.62 12.04Q7.62 14 6.75 14.95Q5.88 15.91 4.09 15.91L4.09 15.91Q3.42 15.91 2.84 15.81Q2.25 15.71 1.70 15.50L1.70 15.50L1.70 14.28Q2.25 14.58 2.79 14.72Q3.33 14.87 3.89 14.87L3.89 14.87Q5.13 14.87 5.74 14.22Q6.36 13.58 6.36 12.27L6.36 12.27L6.36 11.65Q5.97 12.33 5.36 12.66Q4.75 13.00 3.90 13.00L3.90 13.00Q2.50 13.00 1.63 11.92Q0.77 10.85 0.77 9.08L0.77 9.08Q0.77 7.30 1.63 6.23Q2.50 5.15 3.90 5.15L3.90 5.15Q4.75 5.15 5.36 5.49Q5.97 5.82 6.36 6.50L6.36 6.50L6.36 5.34L7.62 5.34ZM10.16 13.00L10.16 5.34L15.00 5.34L15.00 6.35L11.43 6.35L11.43 8.41L14.84 8.41L14.84 9.42L11.43 9.42L11.43 11.99L15.09 11.99L15.09 13.00L10.16 13.00ZM16.82 8.43L16.82 7.68L18.22 7.68L18.22 3.50L16.69 3.78L16.69 2.99L18.27 2.72L19.20 2.72L19.20 7.68L20.60 7.68L20.60 8.43L16.82 8.43ZM22.44 8.43L22.44 7.68L23.83 7.68L23.83 3.50L22.31 3.78L22.31 2.99L23.88 2.72L24.81 2.72L24.81 7.68L26.22 7.68L26.22 8.43L22.44 8.43ZM30.56 5.34L30.56 5.34Q31.19 5.46 31.54 5.83Q31.88 6.21 31.88 6.77L31.88 6.77Q31.88 7.62 31.23 8.07Q30.58 8.53 29.37 8.53L29.37 8.53Q28.98 8.53 28.56 8.46Q28.13 8.39 27.65 8.25L27.65 8.25L27.65 7.42Q28.01 7.61 28.41 7.70Q28.82 7.79 29.28 7.79L29.28 7.79Q30.02 7.79 30.43 7.52Q30.84 7.25 30.84 6.77L30.84 6.77Q30.84 6.26 30.46 6.00Q30.08 5.74 29.35 5.74L29.35 5.74L28.76 5.74L28.76 5.00L29.40 5.00Q30.04 5.00 30.38 4.79Q30.71 4.57 30.71 4.16L30.71 4.16Q30.71 3.77 30.37 3.56Q30.02 3.35 29.37 3.35L29.37 3.35Q29.10 3.35 28.75 3.41Q28.40 3.47 27.85 3.63L27.85 3.63L27.85 2.84Q28.35 2.73 28.79 2.67Q29.22 2.60 29.60 2.60L29.60 2.60Q30.58 2.60 31.16 3.01Q31.74 3.41 31.74 4.09L31.74 4.09Q31.74 4.56 31.43 4.89Q31.12 5.22 30.56 5.34Z"></path></svg>