<svg height="16.296875" width="33.9951171875" xmlns="http://www.w3.org/2000/svg" ><path d="M7.68 8.37L7.68 8.37L7.68 13.00L6.43 13.00L6.43 8.42Q6.43 7.33 6.00 6.79Q5.58 6.25 4.73 6.25L4.73 6.25Q3.71 6.25 3.12 6.90Q2.54 7.55 2.54 8.67L2.54 8.67L2.54 13.00L1.27 13.00L1.27 5.13Q1.27 3.67 1.83 3.01Q2.39 2.36 3.62 2.36L3.62 2.36L5.36 2.36L5.36 3.42L3.78 3.42Q3.06 3.42 2.80 3.76Q2.54 4.09 2.54 5.13L2.54 5.13L2.54 6.53Q2.99 5.84 3.60 5.50Q4.21 5.15 5.01 5.15L5.01 5.15Q6.33 5.15 7.01 5.97Q7.68 6.79 7.68 8.37ZM13.87 5.34L16.74 13.00L15.41 13.00L14.71 11.12L11.32 11.12L10.62 13.00L9.29 13.00L12.16 5.34L13.87 5.34ZM13.02 6.57L11.70 10.10L14.33 10.10L13.02 6.57ZM18.22 8.43L18.22 7.68L19.62 7.68L19.62 3.50L18.09 3.78L18.09 2.99L19.67 2.72L20.60 2.72L20.60 7.68L22.00 7.68L22.00 8.43L18.22 8.43ZM23.84 8.43L23.84 7.68L25.23 7.68L25.23 3.50L23.71 3.78L23.71 2.99L25.28 2.72L26.22 2.72L26.22 7.68L27.62 7.68L27.62 8.43L23.84 8.43ZM31.96 5.34L31.96 5.34Q32.59 5.46 32.94 5.83Q33.28 6.21 33.28 6.77L33.28 6.77Q33.28 7.62 32.63 8.07Q31.99 8.53 30.78 8.53L30.78 8.53Q30.39 8.53 29.96 8.46Q29.53 8.39 29.05 8.25L29.05 8.25L29.05 7.42Q29.41 7.61 29.81 7.70Q30.22 7.79 30.68 7.79L30.68 7.79Q31.42 7.79 31.83 7.52Q32.25 7.25 32.25 6.77L32.25 6.77Q32.25 6.26 31.87 6.00Q31.49 5.74 30.75 5.74L30.75 5.74L30.16 5.74L30.16 5.00L30.80 5.00Q31.45 5.00 31.78 4.79Q32.11 4.57 32.11 4.16L32.11 4.16Q32.11 3.77 31.77 3.56Q31.42 3.35 30.78 3.35L30.78 3.35Q30.50 3.35 30.15 3.41Q29.80 3.47 29.25 3.63L29.25 3.63L29.25 2.84Q29.75 2.73 30.19 2.67Q30.63 2.60 31.00 2.60L31.00 2.60Q31.99 2.60 32.56 3.01Q33.14 3.41 33.14 4.09L33.14 4.09Q33.14 4.56 32.83 4.89Q32.53 5.22 31.96 5.34Z"></path></svg>