<svg height="16.296875" width="34.2890625" xmlns="http://www.w3.org/2000/svg" ><path d="M7.68 8.37L7.68 8.37L7.68 13.00L6.43 13.00L6.43 8.42Q6.43 7.33 6.00 6.79Q5.58 6.25 4.73 6.25L4.73 6.25Q3.71 6.25 3.12 6.90Q2.54 7.55 2.54 8.67L2.54 8.67L2.54 13.00L1.27 13.00L1.27 5.13Q1.27 3.67 1.83 3.01Q2.39 2.36 3.62 2.36L3.62 2.36L5.36 2.36L5.36 3.42L3.78 3.42Q3.06 3.42 2.80 3.76Q2.54 4.09 2.54 5.13L2.54 5.13L2.54 6.53Q2.99 5.84 3.60 5.50Q4.21 5.15 5.01 5.15L5.01 5.15Q6.33 5.15 7.01 5.97Q7.68 6.79 7.68 8.37ZM14.92 9.15L13.67 9.15Q12.15 9.15 11.56 9.50Q10.97 9.84 10.97 10.68L10.97 10.68Q10.97 11.35 11.41 11.75Q11.85 12.14 12.61 12.14L12.61 12.14Q13.66 12.14 14.29 11.40Q14.92 10.66 14.92 9.43L14.92 9.43L14.92 9.15ZM16.18 8.63L16.18 8.63L16.18 13.00L14.92 13.00L14.92 11.83Q14.49 12.53 13.85 12.86Q13.21 13.19 12.28 13.19L12.28 13.19Q11.10 13.19 10.41 12.53Q9.71 11.87 9.71 10.77L9.71 10.77Q9.71 9.47 10.58 8.82Q11.44 8.16 13.16 8.16L13.16 8.16L14.92 8.16L14.92 8.04Q14.92 7.17 14.35 6.70Q13.78 6.22 12.75 6.22L12.75 6.22Q12.09 6.22 11.47 6.38Q10.85 6.54 10.27 6.85L10.27 6.85L10.27 5.69Q10.96 5.42 11.61 5.29Q12.26 5.15 12.88 5.15L12.88 5.15Q14.54 5.15 15.36 6.02Q16.18 6.88 16.18 8.63ZM13.91 3.63L13.91 3.63L13.52 3.25Q13.37 3.12 13.26 3.05Q13.15 2.99 13.06 2.99L13.06 2.99Q12.80 2.99 12.67 3.24Q12.55 3.49 12.54 4.05L12.54 4.05L11.68 4.05Q11.70 3.12 12.04 2.62Q12.39 2.12 13.02 2.12L13.02 2.12Q13.28 2.12 13.49 2.21Q13.71 2.31 13.97 2.54L13.97 2.54L14.36 2.91Q14.51 3.05 14.62 3.11Q14.73 3.18 14.82 3.18L14.82 3.18Q15.08 3.18 15.20 2.93Q15.33 2.68 15.34 2.12L15.34 2.12L16.19 2.12Q16.18 3.04 15.83 3.54Q15.48 4.05 14.86 4.05L14.86 4.05Q14.60 4.05 14.38 3.95Q14.16 3.86 13.91 3.63ZM18.52 8.43L18.52 7.68L19.91 7.68L19.91 3.50L18.39 3.78L18.39 2.99L19.96 2.72L20.90 2.72L20.90 7.68L22.30 7.68L22.30 8.43L18.52 8.43ZM24.13 8.43L24.13 7.68L25.53 7.68L25.53 3.50L24.00 3.78L24.00 2.99L25.57 2.72L26.51 2.72L26.51 7.68L27.91 7.68L27.91 8.43L24.13 8.43ZM32.26 5.34L32.26 5.34Q32.89 5.46 33.23 5.83Q33.58 6.21 33.58 6.77L33.58 6.77Q33.58 7.62 32.93 8.07Q32.28 8.53 31.07 8.53L31.07 8.53Q30.68 8.53 30.25 8.46Q29.83 8.39 29.35 8.25L29.35 8.25L29.35 7.42Q29.70 7.61 30.11 7.70Q30.52 7.79 30.97 7.79L30.97 7.79Q31.72 7.79 32.13 7.52Q32.54 7.25 32.54 6.77L32.54 6.77Q32.54 6.26 32.16 6.00Q31.78 5.74 31.04 5.74L31.04 5.74L30.45 5.74L30.45 5.00L31.10 5.00Q31.74 5.00 32.07 4.79Q32.40 4.57 32.40 4.16L32.40 4.16Q32.40 3.77 32.06 3.56Q31.72 3.35 31.07 3.35L31.07 3.35Q30.80 3.35 30.45 3.41Q30.10 3.47 29.54 3.63L29.54 3.63L29.54 2.84Q30.04 2.73 30.48 2.67Q30.92 2.60 31.29 2.60L31.29 2.60Q32.28 2.60 32.86 3.01Q33.43 3.41 33.43 4.09L33.43 4.09Q33.43 4.56 33.13 4.89Q32.82 5.22 32.26 5.34Z"></path></svg>