<svg height="16.296875" width="33.400390625" xmlns="http://www.w3.org/2000/svg" ><path d="M7.68 8.37L7.68 8.37L7.68 13.00L6.43 13.00L6.43 8.42Q6.43 7.33 6.00 6.79Q5.58 6.25 4.73 6.25L4.73 6.25Q3.71 6.25 3.12 6.90Q2.54 7.55 2.54 8.67L2.54 8.67L2.54 13.00L1.27 13.00L1.27 5.13Q1.27 3.67 1.83 3.01Q2.39 2.36 3.62 2.36L3.62 2.36L5.36 2.36L5.36 3.42L3.78 3.42Q3.06 3.42 2.80 3.76Q2.54 4.09 2.54 5.13L2.54 5.13L2.54 6.53Q2.99 5.84 3.60 5.50Q4.21 5.15 5.01 5.15L5.01 5.15Q6.33 5.15 7.01 5.97Q7.68 6.79 7.68 8.37ZM9.74 6.81L9.74 5.65Q10.27 5.40 10.83 5.28Q11.40 5.15 12.03 5.15L12.03 5.15Q13.76 5.15 14.78 6.24Q15.80 7.33 15.80 9.17L15.80 9.17Q15.80 11.05 14.77 12.12Q13.74 13.19 11.95 13.19L11.95 13.19Q11.37 13.19 10.81 13.07Q10.26 12.95 9.74 12.71L9.74 12.71L9.74 11.54Q10.27 11.83 10.81 11.98Q11.35 12.13 11.89 12.13L11.89 12.13Q13.12 12.13 13.79 11.35Q14.47 10.58 14.47 9.17L14.47 9.17Q14.47 7.77 13.79 7.00Q13.12 6.22 11.89 6.22L11.89 6.22Q11.35 6.22 10.81 6.37Q10.27 6.51 9.74 6.81L9.74 6.81ZM17.63 8.43L17.63 7.68L19.02 7.68L19.02 3.50L17.50 3.78L17.50 2.99L19.07 2.72L20.01 2.72L20.01 7.68L21.41 7.68L21.41 8.43L17.63 8.43ZM23.24 8.43L23.24 7.68L24.64 7.68L24.64 3.50L23.11 3.78L23.11 2.99L24.68 2.72L25.62 2.72L25.62 7.68L27.02 7.68L27.02 8.43L23.24 8.43ZM31.37 5.34L31.37 5.34Q32.00 5.46 32.34 5.83Q32.69 6.21 32.69 6.77L32.69 6.77Q32.69 7.62 32.04 8.07Q31.39 8.53 30.18 8.53L30.18 8.53Q29.79 8.53 29.36 8.46Q28.94 8.39 28.46 8.25L28.46 8.25L28.46 7.42Q28.81 7.61 29.22 7.70Q29.63 7.79 30.08 7.79L30.08 7.79Q30.83 7.79 31.24 7.52Q31.65 7.25 31.65 6.77L31.65 6.77Q31.65 6.26 31.27 6.00Q30.89 5.74 30.15 5.74L30.15 5.74L29.57 5.74L29.57 5.00L30.21 5.00Q30.85 5.00 31.18 4.79Q31.51 4.57 31.51 4.16L31.51 4.16Q31.51 3.77 31.17 3.56Q30.83 3.35 30.18 3.35L30.18 3.35Q29.91 3.35 29.56 3.41Q29.21 3.47 28.66 3.63L28.66 3.63L28.66 2.84Q29.16 2.73 29.59 2.67Q30.03 2.60 30.41 2.60L30.41 2.60Q31.39 2.60 31.97 3.01Q32.55 3.41 32.55 4.09L32.55 4.09Q32.55 4.56 32.24 4.89Q31.93 5.22 31.37 5.34Z"></path></svg>