<svg height="16.296875" width="32.580078125" xmlns="http://www.w3.org/2000/svg" ><path d="M7.68 8.37L7.68 8.37L7.68 13.00L6.43 13.00L6.43 8.42Q6.43 7.33 6.00 6.79Q5.58 6.25 4.73 6.25L4.73 6.25Q3.71 6.25 3.12 6.90Q2.54 7.55 2.54 8.67L2.54 8.67L2.54 13.00L1.27 13.00L1.27 5.13Q1.27 3.67 1.83 3.01Q2.39 2.36 3.62 2.36L3.62 2.36L5.36 2.36L5.36 3.42L3.78 3.42Q3.06 3.42 2.80 3.76Q2.54 4.09 2.54 5.13L2.54 5.13L2.54 6.53Q2.99 5.84 3.60 5.50Q4.21 5.15 5.01 5.15L5.01 5.15Q6.33 5.15 7.01 5.97Q7.68 6.79 7.68 8.37ZM10.14 13.00L10.14 5.34L14.98 5.34L14.98 6.35L11.42 6.35L11.42 8.41L14.83 8.41L14.83 9.42L11.42 9.42L11.42 11.99L15.07 11.99L15.07 13.00L10.14 13.00ZM16.81 8.43L16.81 7.68L18.20 7.68L18.20 3.50L16.68 3.78L16.68 2.99L18.25 2.72L19.19 2.72L19.19 7.68L20.59 7.68L20.59 8.43L16.81 8.43ZM22.42 8.43L22.42 7.68L23.82 7.68L23.82 3.50L22.29 3.78L22.29 2.99L23.86 2.72L24.80 2.72L24.80 7.68L26.20 7.68L26.20 8.43L22.42 8.43ZM30.55 5.34L30.55 5.34Q31.18 5.46 31.52 5.83Q31.87 6.21 31.87 6.77L31.87 6.77Q31.87 7.62 31.22 8.07Q30.57 8.53 29.36 8.53L29.36 8.53Q28.97 8.53 28.54 8.46Q28.12 8.39 27.64 8.25L27.64 8.25L27.64 7.42Q27.99 7.61 28.40 7.70Q28.81 7.79 29.26 7.79L29.26 7.79Q30.01 7.79 30.42 7.52Q30.83 7.25 30.83 6.77L30.83 6.77Q30.83 6.26 30.45 6.00Q30.07 5.74 29.33 5.74L29.33 5.74L28.75 5.74L28.75 5.00L29.39 5.00Q30.03 5.00 30.36 4.79Q30.69 4.57 30.69 4.16L30.69 4.16Q30.69 3.77 30.35 3.56Q30.01 3.35 29.36 3.35L29.36 3.35Q29.09 3.35 28.74 3.41Q28.39 3.47 27.84 3.63L27.84 3.63L27.84 2.84Q28.33 2.73 28.77 2.67Q29.21 2.60 29.59 2.60L29.59 2.60Q30.57 2.60 31.15 3.01Q31.73 3.41 31.73 4.09L31.73 4.09Q31.73 4.56 31.42 4.89Q31.11 5.22 30.55 5.34Z"></path></svg>