<svg height="16.296875" width="43.1484375" xmlns="http://www.w3.org/2000/svg" ><path d="M7.68 8.37L7.68 8.37L7.68 13.00L6.43 13.00L6.43 8.42Q6.43 7.33 6.00 6.79Q5.58 6.25 4.73 6.25L4.73 6.25Q3.71 6.25 3.12 6.90Q2.54 7.55 2.54 8.67L2.54 8.67L2.54 13.00L1.27 13.00L1.27 5.13Q1.27 3.67 1.83 3.01Q2.39 2.36 3.62 2.36L3.62 2.36L5.36 2.36L5.36 3.42L3.78 3.42Q3.06 3.42 2.80 3.76Q2.54 4.09 2.54 5.13L2.54 5.13L2.54 6.53Q2.99 5.84 3.60 5.50Q4.21 5.15 5.01 5.15L5.01 5.15Q6.33 5.15 7.01 5.97Q7.68 6.79 7.68 8.37ZM13.16 6.22L13.16 6.22Q12.15 6.22 11.56 7.01Q10.97 7.80 10.97 9.17L10.97 9.17Q10.97 10.55 11.56 11.34Q12.14 12.13 13.16 12.13L13.16 12.13Q14.16 12.13 14.75 11.33Q15.34 10.54 15.34 9.17L15.34 9.17Q15.34 7.81 14.75 7.02Q14.16 6.22 13.16 6.22ZM13.16 5.15L13.16 5.15Q14.80 5.15 15.74 6.22Q16.67 7.29 16.67 9.17L16.67 9.17Q16.67 11.05 15.74 12.12Q14.80 13.19 13.16 13.19L13.16 13.19Q11.51 13.19 10.58 12.12Q9.65 11.05 9.65 9.17L9.65 9.17Q9.65 7.29 10.58 6.22Q11.51 5.15 13.16 5.15ZM25.12 8.37L25.12 8.37L25.12 13.13Q25.12 14.59 24.56 15.25L24.56 15.25Q24.01 15.91 22.77 15.91L22.77 15.91L21.03 15.91L21.03 14.84L22.63 14.84Q23.34 14.84 23.60 14.51L23.60 14.51Q23.86 14.18 23.86 13.13L23.86 13.13L23.86 8.42Q23.86 7.33 23.44 6.79Q23.02 6.25 22.17 6.25L22.17 6.25Q21.15 6.25 20.56 6.90Q19.97 7.55 19.97 8.67L19.97 8.67L19.97 13.00L18.71 13.00L18.71 5.34L19.97 5.34L19.97 6.53Q20.43 5.84 21.03 5.50L21.03 5.50Q21.65 5.15 22.45 5.15L22.45 5.15Q23.77 5.15 24.45 5.97L24.45 5.97Q25.12 6.79 25.12 8.37ZM27.38 8.43L27.38 7.68L28.77 7.68L28.77 3.50L27.25 3.78L27.25 2.99L28.82 2.72L29.76 2.72L29.76 7.68L31.16 7.68L31.16 8.43L27.38 8.43ZM32.99 8.43L32.99 7.68L34.38 7.68L34.38 3.50L32.86 3.78L32.86 2.99L34.43 2.72L35.37 2.72L35.37 7.68L36.77 7.68L36.77 8.43L32.99 8.43ZM41.12 5.34L41.12 5.34Q41.75 5.46 42.09 5.83Q42.44 6.21 42.44 6.77L42.44 6.77Q42.44 7.62 41.79 8.07Q41.14 8.53 39.93 8.53L39.93 8.53Q39.54 8.53 39.11 8.46Q38.68 8.39 38.21 8.25L38.21 8.25L38.21 7.42Q38.56 7.61 38.97 7.70Q39.38 7.79 39.83 7.79L39.83 7.79Q40.58 7.79 40.99 7.52Q41.40 7.25 41.40 6.77L41.40 6.77Q41.40 6.26 41.02 6.00Q40.64 5.74 39.90 5.74L39.90 5.74L39.31 5.74L39.31 5.00L39.96 5.00Q40.60 5.00 40.93 4.79Q41.26 4.57 41.26 4.16L41.26 4.16Q41.26 3.77 40.92 3.56Q40.58 3.35 39.93 3.35L39.93 3.35Q39.66 3.35 39.31 3.41Q38.96 3.47 38.40 3.63L38.40 3.63L38.40 2.84Q38.90 2.73 39.34 2.67Q39.78 2.60 40.15 2.60L40.15 2.60Q41.14 2.60 41.72 3.01Q42.29 3.41 42.29 4.09L42.29 4.09Q42.29 4.56 41.99 4.89Q41.68 5.22 41.12 5.34Z"></path></svg>