<svg height="16.296875" width="26.9130859375" xmlns="http://www.w3.org/2000/svg" ><path d="M8.31 12.11L8.31 12.11Q8.43 12.14 8.68 12.14L8.68 12.14Q9.78 12.14 9.78 10.94L9.78 10.94Q9.78 10.64 9.42 10.63L9.42 10.63Q9.06 10.63 8.31 12.11ZM7.68 8.37L7.68 10.85Q8.44 9.59 9.37 9.59L9.37 9.59Q11.03 9.59 11.03 11.00L11.03 11.00Q11.03 13.19 8.70 13.19L8.70 13.19Q8.20 13.19 7.83 13.09L7.83 13.09Q7.60 13.58 7.44 13.98L7.44 13.98L6.10 13.98Q6.30 13.51 6.75 12.50L6.75 12.50Q6.42 12.09 6.43 11.48L6.43 11.48L6.43 8.42Q6.43 7.33 6.00 6.79Q5.58 6.25 4.73 6.25L4.73 6.25Q3.71 6.25 3.12 6.90Q2.54 7.55 2.54 8.67L2.54 8.67L2.54 13.00L1.27 13.00L1.27 5.34L2.54 5.34L2.54 6.53Q2.99 5.84 3.60 5.50L3.60 5.50Q4.21 5.15 5.01 5.15L5.01 5.15Q6.33 5.15 7.01 5.97L7.01 5.97Q7.68 6.79 7.68 8.37L7.68 8.37ZM13.12 13.00L13.12 5.34L14.38 5.34L14.38 13.00L13.12 13.00ZM13.12 3.95L13.12 2.36L14.38 2.36L14.38 3.95L13.12 3.95ZM16.66 5.58L16.66 2.72L20.15 2.72L20.15 3.37L17.47 3.37L17.47 4.76Q17.66 4.70 17.86 4.68L17.86 4.68Q18.05 4.65 18.25 4.65L18.25 4.65Q19.35 4.65 19.99 5.17L19.99 5.17Q20.63 5.69 20.63 6.59L20.63 6.59Q20.63 7.51 19.97 8.03L19.97 8.03Q19.31 8.53 18.11 8.53L18.11 8.53Q17.70 8.53 17.27 8.47Q16.84 8.41 16.39 8.29L16.39 8.29L16.39 7.51Q16.78 7.70 17.20 7.79L17.20 7.79Q17.62 7.88 18.09 7.88L18.09 7.88Q18.85 7.88 19.30 7.53Q19.74 7.18 19.74 6.59Q19.74 6.00 19.30 5.65Q18.85 5.30 18.09 5.30L18.09 5.30Q17.74 5.30 17.38 5.37Q17.03 5.43 16.66 5.58L16.66 5.58ZM24.88 5.34L24.88 5.34Q25.51 5.46 25.86 5.83Q26.20 6.21 26.20 6.77L26.20 6.77Q26.20 7.62 25.55 8.07Q24.90 8.53 23.69 8.53L23.69 8.53Q23.30 8.53 22.88 8.46Q22.45 8.39 21.97 8.25L21.97 8.25L21.97 7.42Q22.33 7.61 22.73 7.70Q23.14 7.79 23.60 7.79L23.60 7.79Q24.34 7.79 24.75 7.52Q25.16 7.25 25.16 6.77L25.16 6.77Q25.16 6.26 24.78 6.00Q24.40 5.74 23.67 5.74L23.67 5.74L23.08 5.74L23.08 5.00L23.72 5.00Q24.36 5.00 24.69 4.79Q25.03 4.57 25.03 4.16L25.03 4.16Q25.03 3.77 24.68 3.56Q24.34 3.35 23.69 3.35L23.69 3.35Q23.42 3.35 23.07 3.41Q22.72 3.47 22.17 3.63L22.17 3.63L22.17 2.84Q22.67 2.73 23.11 2.67Q23.54 2.60 23.92 2.60L23.92 2.60Q24.90 2.60 25.48 3.01Q26.06 3.41 26.06 4.09L26.06 4.09Q26.06 4.56 25.75 4.89Q25.44 5.22 24.88 5.34Z"></path></svg>