<svg height="16.296875" width="32.525390625" xmlns="http://www.w3.org/2000/svg" ><path d="M8.31 12.11L8.31 12.11Q8.43 12.14 8.68 12.14L8.68 12.14Q9.78 12.14 9.78 10.94L9.78 10.94Q9.78 10.64 9.42 10.63L9.42 10.63Q9.06 10.63 8.31 12.11ZM7.68 8.37L7.68 10.85Q8.44 9.59 9.37 9.59L9.37 9.59Q11.03 9.59 11.03 11.00L11.03 11.00Q11.03 13.19 8.70 13.19L8.70 13.19Q8.20 13.19 7.83 13.09L7.83 13.09Q7.60 13.58 7.44 13.98L7.44 13.98L6.10 13.98Q6.30 13.51 6.75 12.50L6.75 12.50Q6.42 12.09 6.43 11.48L6.43 11.48L6.43 8.42Q6.43 7.33 6.00 6.79Q5.58 6.25 4.73 6.25L4.73 6.25Q3.71 6.25 3.12 6.90Q2.54 7.55 2.54 8.67L2.54 8.67L2.54 13.00L1.27 13.00L1.27 5.34L2.54 5.34L2.54 6.53Q2.99 5.84 3.60 5.50L3.60 5.50Q4.21 5.15 5.01 5.15L5.01 5.15Q6.33 5.15 7.01 5.97L7.01 5.97Q7.68 6.79 7.68 8.37L7.68 8.37ZM13.12 13.00L13.12 5.34L14.38 5.34L14.38 13.00L13.12 13.00ZM13.12 3.95L13.12 2.36L14.38 2.36L14.38 3.95L13.12 3.95ZM16.75 8.43L16.75 7.68L18.15 7.68L18.15 3.50L16.63 3.78L16.63 2.99L18.20 2.72L19.13 2.72L19.13 7.68L20.54 7.68L20.54 8.43L16.75 8.43ZM22.37 8.43L22.37 7.68L23.76 7.68L23.76 3.50L22.24 3.78L22.24 2.99L23.81 2.72L24.75 2.72L24.75 7.68L26.15 7.68L26.15 8.43L22.37 8.43ZM30.50 5.34L30.50 5.34Q31.12 5.46 31.47 5.83Q31.81 6.21 31.81 6.77L31.81 6.77Q31.81 7.62 31.17 8.07Q30.52 8.53 29.31 8.53L29.31 8.53Q28.92 8.53 28.49 8.46Q28.06 8.39 27.58 8.25L27.58 8.25L27.58 7.42Q27.94 7.61 28.35 7.70Q28.75 7.79 29.21 7.79L29.21 7.79Q29.96 7.79 30.37 7.52Q30.78 7.25 30.78 6.77L30.78 6.77Q30.78 6.26 30.40 6.00Q30.02 5.74 29.28 5.74L29.28 5.74L28.69 5.74L28.69 5.00L29.33 5.00Q29.98 5.00 30.31 4.79Q30.64 4.57 30.64 4.16L30.64 4.16Q30.64 3.77 30.30 3.56Q29.96 3.35 29.31 3.35L29.31 3.35Q29.03 3.35 28.68 3.41Q28.33 3.47 27.78 3.63L27.78 3.63L27.78 2.84Q28.28 2.73 28.72 2.67Q29.16 2.60 29.53 2.60L29.53 2.60Q30.52 2.60 31.09 3.01Q31.67 3.41 31.67 4.09L31.67 4.09Q31.67 4.56 31.36 4.89Q31.06 5.22 30.50 5.34Z"></path></svg>