<svg height="16.296875" width="42.341796875" xmlns="http://www.w3.org/2000/svg" ><path d="M8.31 12.11L8.31 12.11Q8.43 12.14 8.68 12.14L8.68 12.14Q9.78 12.14 9.78 10.94L9.78 10.94Q9.78 10.64 9.42 10.63L9.42 10.63Q9.06 10.63 8.31 12.11ZM7.68 8.37L7.68 10.85Q8.44 9.59 9.37 9.59L9.37 9.59Q11.03 9.59 11.03 11.00L11.03 11.00Q11.03 13.19 8.70 13.19L8.70 13.19Q8.20 13.19 7.83 13.09L7.83 13.09Q7.60 13.58 7.44 13.98L7.44 13.98L6.10 13.98Q6.30 13.51 6.75 12.50L6.75 12.50Q6.42 12.09 6.43 11.48L6.43 11.48L6.43 8.42Q6.43 7.33 6.00 6.79Q5.58 6.25 4.73 6.25L4.73 6.25Q3.71 6.25 3.12 6.90Q2.54 7.55 2.54 8.67L2.54 8.67L2.54 13.00L1.27 13.00L1.27 5.34L2.54 5.34L2.54 6.53Q2.99 5.84 3.60 5.50L3.60 5.50Q4.21 5.15 5.01 5.15L5.01 5.15Q6.33 5.15 7.01 5.97L7.01 5.97Q7.68 6.79 7.68 8.37L7.68 8.37ZM13.12 13.00L13.12 5.34L14.38 5.34L14.38 13.00L13.12 13.00ZM13.12 3.95L13.12 2.36L14.38 2.36L14.38 3.95L13.12 3.95ZM20.69 5.34L23.56 13.00L22.22 13.00L21.53 11.12L18.14 11.12L17.44 13.00L16.11 13.00L18.98 5.34L20.69 5.34ZM19.83 6.57L18.52 10.10L21.14 10.10L19.83 6.57ZM26.30 13.00L26.30 7.54L26.73 7.54Q28.04 7.54 28.63 6.76L28.63 6.76Q29.03 6.24 29.03 5.57L29.03 5.57Q29.02 4.66 28.63 4.22L28.63 4.22Q27.95 3.44 26.73 3.44L26.73 3.44Q26.18 3.44 25.64 3.59L25.64 3.59Q25.11 3.73 24.58 4.03L24.58 4.03L24.58 2.85Q25.09 2.61 25.65 2.50L25.65 2.50Q26.20 2.37 26.78 2.37L26.78 2.37Q28.66 2.37 29.61 3.45L29.61 3.45Q30.35 4.30 30.35 5.57L30.35 5.57Q30.35 6.73 29.61 7.52L29.61 7.52Q28.85 8.33 27.69 8.54L27.69 8.54L27.69 13.00L26.30 13.00ZM32.18 8.43L32.18 7.68L33.58 7.68L33.58 3.50L32.05 3.78L32.05 2.99L33.63 2.72L34.56 2.72L34.56 7.68L35.96 7.68L35.96 8.43L32.18 8.43ZM38.56 7.65L38.56 7.65L41.46 7.65L41.46 8.43L37.37 8.43L37.37 7.68Q37.60 7.46 38.04 7.08L38.04 7.08Q40.39 5.00 40.39 4.35L40.39 4.35Q40.39 3.90 40.03 3.63Q39.68 3.35 39.09 3.35L39.09 3.35Q38.74 3.35 38.32 3.47Q37.91 3.59 37.41 3.83L37.41 3.83L37.41 2.99Q37.94 2.80 38.39 2.70Q38.85 2.60 39.24 2.60L39.24 2.60Q40.23 2.60 40.82 3.06Q41.42 3.51 41.42 4.25L41.42 4.25Q41.42 5.20 39.16 7.14L39.16 7.14Q38.77 7.46 38.56 7.65Z"></path></svg>