<svg height="16.296875" width="40.2158203125" xmlns="http://www.w3.org/2000/svg" ><path d="M8.31 12.11L8.31 12.11Q8.43 12.14 8.68 12.14L8.68 12.14Q9.78 12.14 9.78 10.94L9.78 10.94Q9.78 10.64 9.42 10.63L9.42 10.63Q9.06 10.63 8.31 12.11ZM7.68 8.37L7.68 10.85Q8.44 9.59 9.37 9.59L9.37 9.59Q11.03 9.59 11.03 11.00L11.03 11.00Q11.03 13.19 8.70 13.19L8.70 13.19Q8.20 13.19 7.83 13.09L7.83 13.09Q7.60 13.58 7.44 13.98L7.44 13.98L6.10 13.98Q6.30 13.51 6.75 12.50L6.75 12.50Q6.42 12.09 6.43 11.48L6.43 11.48L6.43 8.42Q6.43 7.33 6.00 6.79Q5.58 6.25 4.73 6.25L4.73 6.25Q3.71 6.25 3.12 6.90Q2.54 7.55 2.54 8.67L2.54 8.67L2.54 13.00L1.27 13.00L1.27 5.34L2.54 5.34L2.54 6.53Q2.99 5.84 3.60 5.50L3.60 5.50Q4.21 5.15 5.01 5.15L5.01 5.15Q6.33 5.15 7.01 5.97L7.01 5.97Q7.68 6.79 7.68 8.37L7.68 8.37ZM13.12 13.00L13.12 5.34L14.38 5.34L14.38 13.00L13.12 13.00ZM13.12 3.95L13.12 2.36L14.38 2.36L14.38 3.95L13.12 3.95ZM16.56 6.81L16.56 5.65Q17.08 5.40 17.65 5.28Q18.21 5.15 18.85 5.15L18.85 5.15Q20.58 5.15 21.59 6.24Q22.61 7.33 22.61 9.17L22.61 9.17Q22.61 11.05 21.58 12.12Q20.56 13.19 18.76 13.19L18.76 13.19Q18.18 13.19 17.63 13.07Q17.08 12.95 16.56 12.71L16.56 12.71L16.56 11.54Q17.09 11.83 17.63 11.98Q18.16 12.13 18.71 12.13L18.71 12.13Q19.93 12.13 20.61 11.35Q21.29 10.58 21.29 9.17L21.29 9.17Q21.29 7.77 20.61 7.00Q19.93 6.22 18.71 6.22L18.71 6.22Q18.16 6.22 17.63 6.37Q17.09 6.51 16.56 6.81L16.56 6.81ZM24.45 8.43L24.45 7.68L25.84 7.68L25.84 3.50L24.32 3.78L24.32 2.99L25.89 2.72L26.82 2.72L26.82 7.68L28.23 7.68L28.23 8.43L24.45 8.43ZM30.06 8.43L30.06 7.68L31.45 7.68L31.45 3.50L29.93 3.78L29.93 2.99L31.50 2.72L32.44 2.72L32.44 7.68L33.84 7.68L33.84 8.43L30.06 8.43ZM38.19 5.34L38.19 5.34Q38.81 5.46 39.16 5.83Q39.50 6.21 39.50 6.77L39.50 6.77Q39.50 7.62 38.86 8.07Q38.21 8.53 37.00 8.53L37.00 8.53Q36.61 8.53 36.18 8.46Q35.75 8.39 35.27 8.25L35.27 8.25L35.27 7.42Q35.63 7.61 36.04 7.70Q36.44 7.79 36.90 7.79L36.90 7.79Q37.65 7.79 38.06 7.52Q38.47 7.25 38.47 6.77L38.47 6.77Q38.47 6.26 38.09 6.00Q37.71 5.74 36.97 5.74L36.97 5.74L36.38 5.74L36.38 5.00L37.02 5.00Q37.67 5.00 38.00 4.79Q38.33 4.57 38.33 4.16L38.33 4.16Q38.33 3.77 37.99 3.56Q37.65 3.35 37.00 3.35L37.00 3.35Q36.72 3.35 36.37 3.41Q36.03 3.47 35.47 3.63L35.47 3.63L35.47 2.84Q35.97 2.73 36.41 2.67Q36.85 2.60 37.22 2.60L37.22 2.60Q38.21 2.60 38.78 3.01Q39.36 3.41 39.36 4.09L39.36 4.09Q39.36 4.56 39.05 4.89Q38.75 5.22 38.19 5.34Z"></path></svg>