<svg height="16.296875" width="41.1044921875" xmlns="http://www.w3.org/2000/svg" ><path d="M8.31 12.11L8.31 12.11Q8.43 12.14 8.68 12.14L8.68 12.14Q9.78 12.14 9.78 10.94L9.78 10.94Q9.78 10.64 9.42 10.63L9.42 10.63Q9.06 10.63 8.31 12.11ZM7.68 8.37L7.68 10.85Q8.44 9.59 9.37 9.59L9.37 9.59Q11.03 9.59 11.03 11.00L11.03 11.00Q11.03 13.19 8.70 13.19L8.70 13.19Q8.20 13.19 7.83 13.09L7.83 13.09Q7.60 13.58 7.44 13.98L7.44 13.98L6.10 13.98Q6.30 13.51 6.75 12.50L6.75 12.50Q6.42 12.09 6.43 11.48L6.43 11.48L6.43 8.42Q6.43 7.33 6.00 6.79Q5.58 6.25 4.73 6.25L4.73 6.25Q3.71 6.25 3.12 6.90Q2.54 7.55 2.54 8.67L2.54 8.67L2.54 13.00L1.27 13.00L1.27 5.34L2.54 5.34L2.54 6.53Q2.99 5.84 3.60 5.50L3.60 5.50Q4.21 5.15 5.01 5.15L5.01 5.15Q6.33 5.15 7.01 5.97L7.01 5.97Q7.68 6.79 7.68 8.37L7.68 8.37ZM13.12 13.00L13.12 5.34L14.38 5.34L14.38 13.00L13.12 13.00ZM13.12 3.95L13.12 2.36L14.38 2.36L14.38 3.95L13.12 3.95ZM21.74 9.15L20.49 9.15Q18.96 9.15 18.38 9.50Q17.79 9.84 17.79 10.68L17.79 10.68Q17.79 11.35 18.23 11.75Q18.67 12.14 19.43 12.14L19.43 12.14Q20.47 12.14 21.11 11.40Q21.74 10.66 21.74 9.43L21.74 9.43L21.74 9.15ZM23.00 8.63L23.00 8.63L23.00 13.00L21.74 13.00L21.74 11.83Q21.31 12.53 20.67 12.86Q20.02 13.19 19.09 13.19L19.09 13.19Q17.92 13.19 17.22 12.53Q16.53 11.87 16.53 10.77L16.53 10.77Q16.53 9.47 17.39 8.82Q18.26 8.16 19.97 8.16L19.97 8.16L21.74 8.16L21.74 8.04Q21.74 7.17 21.17 6.70Q20.60 6.22 19.56 6.22L19.56 6.22Q18.91 6.22 18.29 6.38Q17.66 6.54 17.09 6.85L17.09 6.85L17.09 5.69Q17.78 5.42 18.43 5.29Q19.08 5.15 19.69 5.15L19.69 5.15Q21.36 5.15 22.18 6.02Q23.00 6.88 23.00 8.63ZM20.73 3.63L20.73 3.63L20.34 3.25Q20.19 3.12 20.07 3.05Q19.96 2.99 19.87 2.99L19.87 2.99Q19.61 2.99 19.49 3.24Q19.37 3.49 19.35 4.05L19.35 4.05L18.50 4.05Q18.51 3.12 18.86 2.62Q19.21 2.12 19.83 2.12L19.83 2.12Q20.09 2.12 20.31 2.21Q20.53 2.31 20.78 2.54L20.78 2.54L21.17 2.91Q21.32 3.05 21.43 3.11Q21.55 3.18 21.64 3.18L21.64 3.18Q21.90 3.18 22.02 2.93Q22.14 2.68 22.16 2.12L22.16 2.12L23.01 2.12Q23.00 3.04 22.65 3.54Q22.30 4.05 21.68 4.05L21.68 4.05Q21.42 4.05 21.20 3.95Q20.98 3.86 20.73 3.63ZM27.85 5.34L27.85 5.34Q28.48 5.46 28.82 5.83Q29.17 6.21 29.17 6.77L29.17 6.77Q29.17 7.62 28.52 8.07Q27.87 8.53 26.66 8.53L26.66 8.53Q26.27 8.53 25.84 8.46Q25.42 8.39 24.94 8.25L24.94 8.25L24.94 7.42Q25.29 7.61 25.70 7.70Q26.11 7.79 26.56 7.79L26.56 7.79Q27.31 7.79 27.72 7.52Q28.13 7.25 28.13 6.77L28.13 6.77Q28.13 6.26 27.75 6.00Q27.37 5.74 26.63 5.74L26.63 5.74L26.04 5.74L26.04 5.00L26.69 5.00Q27.33 5.00 27.66 4.79Q27.99 4.57 27.99 4.16L27.99 4.16Q27.99 3.77 27.65 3.56Q27.31 3.35 26.66 3.35L26.66 3.35Q26.39 3.35 26.04 3.41Q25.69 3.47 25.14 3.63L25.14 3.63L25.14 2.84Q25.63 2.73 26.07 2.67Q26.51 2.60 26.89 2.60L26.89 2.60Q27.87 2.60 28.45 3.01Q29.03 3.41 29.03 4.09L29.03 4.09Q29.03 4.56 28.72 4.89Q28.41 5.22 27.85 5.34ZM33.46 5.34L33.46 5.34Q34.09 5.46 34.44 5.83Q34.78 6.21 34.78 6.77L34.78 6.77Q34.78 7.62 34.13 8.07Q33.48 8.53 32.27 8.53L32.27 8.53Q31.88 8.53 31.46 8.46Q31.03 8.39 30.55 8.25L30.55 8.25L30.55 7.42Q30.91 7.61 31.31 7.70Q31.72 7.79 32.18 7.79L32.18 7.79Q32.92 7.79 33.33 7.52Q33.74 7.25 33.74 6.77L33.74 6.77Q33.74 6.26 33.36 6.00Q32.98 5.74 32.25 5.74L32.25 5.74L31.66 5.74L31.66 5.00L32.30 5.00Q32.94 5.00 33.27 4.79Q33.61 4.57 33.61 4.16L33.61 4.16Q33.61 3.77 33.26 3.56Q32.92 3.35 32.27 3.35L32.27 3.35Q32.00 3.35 31.65 3.41Q31.30 3.47 30.75 3.63L30.75 3.63L30.75 2.84Q31.25 2.73 31.68 2.67Q32.12 2.60 32.50 2.60L32.50 2.60Q33.48 2.60 34.06 3.01Q34.64 3.41 34.64 4.09L34.64 4.09Q34.64 4.56 34.33 4.89Q34.02 5.22 33.46 5.34ZM38.75 6.41L38.75 3.55L36.64 6.41L38.75 6.41ZM35.92 6.33L38.60 2.72L39.74 2.72L39.74 6.41L40.66 6.41L40.66 7.16L39.74 7.16L39.74 8.43L38.75 8.43L38.75 7.16L35.92 7.16L35.92 6.33Z"></path></svg>