<svg height="16.296875" width="41.1044921875" xmlns="http://www.w3.org/2000/svg" ><path d="M8.31 12.11L8.31 12.11Q8.43 12.14 8.68 12.14L8.68 12.14Q9.78 12.14 9.78 10.94L9.78 10.94Q9.78 10.64 9.42 10.63L9.42 10.63Q9.06 10.63 8.31 12.11ZM7.68 8.37L7.68 10.85Q8.44 9.59 9.37 9.59L9.37 9.59Q11.03 9.59 11.03 11.00L11.03 11.00Q11.03 13.19 8.70 13.19L8.70 13.19Q8.20 13.19 7.83 13.09L7.83 13.09Q7.60 13.58 7.44 13.98L7.44 13.98L6.10 13.98Q6.30 13.51 6.75 12.50L6.75 12.50Q6.42 12.09 6.43 11.48L6.43 11.48L6.43 8.42Q6.43 7.33 6.00 6.79Q5.58 6.25 4.73 6.25L4.73 6.25Q3.71 6.25 3.12 6.90Q2.54 7.55 2.54 8.67L2.54 8.67L2.54 13.00L1.27 13.00L1.27 5.34L2.54 5.34L2.54 6.53Q2.99 5.84 3.60 5.50L3.60 5.50Q4.21 5.15 5.01 5.15L5.01 5.15Q6.33 5.15 7.01 5.97L7.01 5.97Q7.68 6.79 7.68 8.37L7.68 8.37ZM13.12 13.00L13.12 5.34L14.38 5.34L14.38 13.00L13.12 13.00ZM13.12 3.95L13.12 2.36L14.38 2.36L14.38 3.95L13.12 3.95ZM21.74 9.15L20.49 9.15Q18.96 9.15 18.38 9.50Q17.79 9.84 17.79 10.68L17.79 10.68Q17.79 11.35 18.23 11.75Q18.67 12.14 19.43 12.14L19.43 12.14Q20.47 12.14 21.11 11.40Q21.74 10.66 21.74 9.43L21.74 9.43L21.74 9.15ZM23.00 8.63L23.00 8.63L23.00 13.00L21.74 13.00L21.74 11.83Q21.31 12.53 20.67 12.86Q20.02 13.19 19.09 13.19L19.09 13.19Q17.92 13.19 17.22 12.53Q16.53 11.87 16.53 10.77L16.53 10.77Q16.53 9.47 17.39 8.82Q18.26 8.16 19.97 8.16L19.97 8.16L21.74 8.16L21.74 8.04Q21.74 7.17 21.17 6.70Q20.60 6.22 19.56 6.22L19.56 6.22Q18.91 6.22 18.29 6.38Q17.66 6.54 17.09 6.85L17.09 6.85L17.09 5.69Q17.78 5.42 18.43 5.29Q19.08 5.15 19.69 5.15L19.69 5.15Q21.36 5.15 22.18 6.02Q23.00 6.88 23.00 8.63ZM20.73 3.63L20.73 3.63L20.34 3.25Q20.19 3.12 20.07 3.05Q19.96 2.99 19.87 2.99L19.87 2.99Q19.61 2.99 19.49 3.24Q19.37 3.49 19.35 4.05L19.35 4.05L18.50 4.05Q18.51 3.12 18.86 2.62Q19.21 2.12 19.83 2.12L19.83 2.12Q20.09 2.12 20.31 2.21Q20.53 2.31 20.78 2.54L20.78 2.54L21.17 2.91Q21.32 3.05 21.43 3.11Q21.55 3.18 21.64 3.18L21.64 3.18Q21.90 3.18 22.02 2.93Q22.14 2.68 22.16 2.12L22.16 2.12L23.01 2.12Q23.00 3.04 22.65 3.54Q22.30 4.05 21.68 4.05L21.68 4.05Q21.42 4.05 21.20 3.95Q20.98 3.86 20.73 3.63ZM25.33 8.43L25.33 7.68L26.73 7.68L26.73 3.50L25.20 3.78L25.20 2.99L26.78 2.72L27.71 2.72L27.71 7.68L29.11 7.68L29.11 8.43L25.33 8.43ZM30.95 8.43L30.95 7.68L32.34 7.68L32.34 3.50L30.82 3.78L30.82 2.99L32.39 2.72L33.33 2.72L33.33 7.68L34.73 7.68L34.73 8.43L30.95 8.43ZM39.07 5.34L39.07 5.34Q39.70 5.46 40.05 5.83Q40.39 6.21 40.39 6.77L40.39 6.77Q40.39 7.62 39.74 8.07Q39.09 8.53 37.88 8.53L37.88 8.53Q37.50 8.53 37.07 8.46Q36.64 8.39 36.16 8.25L36.16 8.25L36.16 7.42Q36.52 7.61 36.92 7.70Q37.33 7.79 37.79 7.79L37.79 7.79Q38.53 7.79 38.94 7.52Q39.35 7.25 39.35 6.77L39.35 6.77Q39.35 6.26 38.98 6.00Q38.60 5.74 37.86 5.74L37.86 5.74L37.27 5.74L37.27 5.00L37.91 5.00Q38.55 5.00 38.89 4.79Q39.22 4.57 39.22 4.16L39.22 4.16Q39.22 3.77 38.88 3.56Q38.53 3.35 37.88 3.35L37.88 3.35Q37.61 3.35 37.26 3.41Q36.91 3.47 36.36 3.63L36.36 3.63L36.36 2.84Q36.86 2.73 37.30 2.67Q37.73 2.60 38.11 2.60L38.11 2.60Q39.09 2.60 39.67 3.01Q40.25 3.41 40.25 4.09L40.25 4.09Q40.25 4.56 39.94 4.89Q39.63 5.22 39.07 5.34Z"></path></svg>