<svg height="16.296875" width="34.603515625" xmlns="http://www.w3.org/2000/svg" ><path d="M8.31 12.11L8.31 12.11Q8.43 12.14 8.68 12.14L8.68 12.14Q9.78 12.14 9.78 10.94L9.78 10.94Q9.78 10.64 9.42 10.63L9.42 10.63Q9.06 10.63 8.31 12.11ZM7.68 8.37L7.68 10.85Q8.44 9.59 9.37 9.59L9.37 9.59Q11.03 9.59 11.03 11.00L11.03 11.00Q11.03 13.19 8.70 13.19L8.70 13.19Q8.20 13.19 7.83 13.09L7.83 13.09Q7.60 13.58 7.44 13.98L7.44 13.98L6.10 13.98Q6.30 13.51 6.75 12.50L6.75 12.50Q6.42 12.09 6.43 11.48L6.43 11.48L6.43 8.42Q6.43 7.33 6.00 6.79Q5.58 6.25 4.73 6.25L4.73 6.25Q3.71 6.25 3.12 6.90Q2.54 7.55 2.54 8.67L2.54 8.67L2.54 13.00L1.27 13.00L1.27 5.34L2.54 5.34L2.54 6.53Q2.99 5.84 3.60 5.50L3.60 5.50Q4.21 5.15 5.01 5.15L5.01 5.15Q6.33 5.15 7.01 5.97L7.01 5.97Q7.68 6.79 7.68 8.37L7.68 8.37ZM13.12 13.00L13.12 5.34L14.38 5.34L14.38 13.00L13.12 13.00ZM13.12 3.95L13.12 2.36L14.38 2.36L14.38 3.95L13.12 3.95ZM16.56 6.81L16.56 5.65Q17.08 5.40 17.65 5.28Q18.21 5.15 18.85 5.15L18.85 5.15Q20.58 5.15 21.59 6.24Q22.61 7.33 22.61 9.17L22.61 9.17Q22.61 11.05 21.58 12.12Q20.56 13.19 18.76 13.19L18.76 13.19Q18.18 13.19 17.63 13.07Q17.08 12.95 16.56 12.71L16.56 12.71L16.56 11.54Q17.09 11.83 17.63 11.98Q18.16 12.13 18.71 12.13L18.71 12.13Q19.93 12.13 20.61 11.35Q21.29 10.58 21.29 9.17L21.29 9.17Q21.29 7.77 20.61 7.00Q19.93 6.22 18.71 6.22L18.71 6.22Q18.16 6.22 17.63 6.37Q17.09 6.51 16.56 6.81L16.56 6.81ZM24.35 5.58L24.35 2.72L27.84 2.72L27.84 3.37L25.16 3.37L25.16 4.76Q25.35 4.70 25.55 4.68L25.55 4.68Q25.74 4.65 25.94 4.65L25.94 4.65Q27.04 4.65 27.68 5.17L27.68 5.17Q28.32 5.69 28.32 6.59L28.32 6.59Q28.32 7.51 27.66 8.03L27.66 8.03Q27.00 8.53 25.80 8.53L25.80 8.53Q25.39 8.53 24.96 8.47Q24.53 8.41 24.08 8.29L24.08 8.29L24.08 7.51Q24.47 7.70 24.89 7.79L24.89 7.79Q25.31 7.88 25.79 7.88L25.79 7.88Q26.54 7.88 26.99 7.53Q27.43 7.18 27.43 6.59Q27.43 6.00 26.99 5.65Q26.54 5.30 25.79 5.30L25.79 5.30Q25.43 5.30 25.07 5.37Q24.72 5.43 24.35 5.58L24.35 5.58ZM32.57 5.34L32.57 5.34Q33.20 5.46 33.55 5.83Q33.89 6.21 33.89 6.77L33.89 6.77Q33.89 7.62 33.24 8.07Q32.59 8.53 31.38 8.53L31.38 8.53Q30.99 8.53 30.57 8.46Q30.14 8.39 29.66 8.25L29.66 8.25L29.66 7.42Q30.02 7.61 30.42 7.70Q30.83 7.79 31.29 7.79L31.29 7.79Q32.03 7.79 32.44 7.52Q32.85 7.25 32.85 6.77L32.85 6.77Q32.85 6.26 32.47 6.00Q32.09 5.74 31.36 5.74L31.36 5.74L30.77 5.74L30.77 5.00L31.41 5.00Q32.05 5.00 32.39 4.79Q32.72 4.57 32.72 4.16L32.72 4.16Q32.72 3.77 32.38 3.56Q32.03 3.35 31.38 3.35L31.38 3.35Q31.11 3.35 30.76 3.41Q30.41 3.47 29.86 3.63L29.86 3.63L29.86 2.84Q30.36 2.73 30.80 2.67Q31.23 2.60 31.61 2.60L31.61 2.60Q32.59 2.60 33.17 3.01Q33.75 3.41 33.75 4.09L33.75 4.09Q33.75 4.56 33.44 4.89Q33.13 5.22 32.57 5.34Z"></path></svg>