<svg height="16.296875" width="35.2529296875" xmlns="http://www.w3.org/2000/svg" ><path d="M8.31 12.11L8.31 12.11Q8.43 12.14 8.68 12.14L8.68 12.14Q9.78 12.14 9.78 10.94L9.78 10.94Q9.78 10.64 9.42 10.63L9.42 10.63Q9.06 10.63 8.31 12.11ZM7.68 8.37L7.68 10.85Q8.44 9.59 9.37 9.59L9.37 9.59Q11.03 9.59 11.03 11.00L11.03 11.00Q11.03 13.19 8.70 13.19L8.70 13.19Q8.20 13.19 7.83 13.09L7.83 13.09Q7.60 13.58 7.44 13.98L7.44 13.98L6.10 13.98Q6.30 13.51 6.75 12.50L6.75 12.50Q6.42 12.09 6.43 11.48L6.43 11.48L6.43 8.42Q6.43 7.33 6.00 6.79Q5.58 6.25 4.73 6.25L4.73 6.25Q3.71 6.25 3.12 6.90Q2.54 7.55 2.54 8.67L2.54 8.67L2.54 13.00L1.27 13.00L1.27 5.34L2.54 5.34L2.54 6.53Q2.99 5.84 3.60 5.50L3.60 5.50Q4.21 5.15 5.01 5.15L5.01 5.15Q6.33 5.15 7.01 5.97L7.01 5.97Q7.68 6.79 7.68 8.37L7.68 8.37ZM13.12 13.00L13.12 5.34L14.38 5.34L14.38 13.00L13.12 13.00ZM13.12 3.95L13.12 2.36L14.38 2.36L14.38 3.95L13.12 3.95ZM17.83 5.34L19.86 8.07L21.89 5.34L23.37 5.34L20.65 8.99Q21.14 9.66 21.44 10.18L21.44 10.18Q21.91 11.00 21.91 11.42L21.91 11.42Q21.91 12.31 21.40 12.75Q20.88 13.19 19.86 13.19L19.86 13.19Q18.83 13.19 18.32 12.75Q17.81 12.31 17.81 11.42L17.81 11.42Q17.81 11.00 18.28 10.18L18.28 10.18Q18.58 9.66 19.07 8.99L19.07 8.99L16.34 5.34L17.83 5.34ZM19.86 12.13L19.86 12.13Q20.32 12.13 20.53 11.94L20.53 11.94Q20.72 11.78 20.72 11.47L20.72 11.47Q20.72 11.25 20.45 10.81L20.45 10.81Q20.24 10.47 19.86 9.99L19.86 9.99Q19.48 10.47 19.26 10.81L19.26 10.81Q19.00 11.25 19.00 11.47L19.00 11.47Q19.00 11.78 19.19 11.94L19.19 11.94Q19.40 12.13 19.86 12.13ZM25.00 5.58L25.00 2.72L28.49 2.72L28.49 3.37L25.81 3.37L25.81 4.76Q26.00 4.70 26.20 4.68L26.20 4.68Q26.39 4.65 26.58 4.65L26.58 4.65Q27.69 4.65 28.33 5.17L28.33 5.17Q28.97 5.69 28.97 6.59L28.97 6.59Q28.97 7.51 28.31 8.03L28.31 8.03Q27.65 8.53 26.45 8.53L26.45 8.53Q26.04 8.53 25.61 8.47Q25.18 8.41 24.73 8.29L24.73 8.29L24.73 7.51Q25.12 7.70 25.54 7.79L25.54 7.79Q25.96 7.88 26.43 7.88L26.43 7.88Q27.19 7.88 27.64 7.53Q28.08 7.18 28.08 6.59Q28.08 6.00 27.64 5.65Q27.19 5.30 26.43 5.30L26.43 5.30Q26.08 5.30 25.72 5.37Q25.37 5.43 25.00 5.58L25.00 5.58ZM33.22 5.34L33.22 5.34Q33.85 5.46 34.20 5.83Q34.54 6.21 34.54 6.77L34.54 6.77Q34.54 7.62 33.89 8.07Q33.24 8.53 32.03 8.53L32.03 8.53Q31.64 8.53 31.22 8.46Q30.79 8.39 30.31 8.25L30.31 8.25L30.31 7.42Q30.67 7.61 31.07 7.70Q31.48 7.79 31.94 7.79L31.94 7.79Q32.68 7.79 33.09 7.52Q33.50 7.25 33.50 6.77L33.50 6.77Q33.50 6.26 33.12 6.00Q32.74 5.74 32.01 5.74L32.01 5.74L31.42 5.74L31.42 5.00L32.06 5.00Q32.70 5.00 33.03 4.79Q33.37 4.57 33.37 4.16L33.37 4.16Q33.37 3.77 33.02 3.56Q32.68 3.35 32.03 3.35L32.03 3.35Q31.76 3.35 31.41 3.41Q31.06 3.47 30.51 3.63L30.51 3.63L30.51 2.84Q31.01 2.73 31.45 2.67Q31.88 2.60 32.26 2.60L32.26 2.60Q33.24 2.60 33.82 3.01Q34.40 3.41 34.40 4.09L34.40 4.09Q34.40 4.56 34.09 4.89Q33.78 5.22 33.22 5.34Z"></path></svg>