<svg height="16.296875" width="40.865234375" xmlns="http://www.w3.org/2000/svg" ><path d="M8.31 12.11L8.31 12.11Q8.43 12.14 8.68 12.14L8.68 12.14Q9.78 12.14 9.78 10.94L9.78 10.94Q9.78 10.64 9.42 10.63L9.42 10.63Q9.06 10.63 8.31 12.11ZM7.68 8.37L7.68 10.85Q8.44 9.59 9.37 9.59L9.37 9.59Q11.03 9.59 11.03 11.00L11.03 11.00Q11.03 13.19 8.70 13.19L8.70 13.19Q8.20 13.19 7.83 13.09L7.83 13.09Q7.60 13.58 7.44 13.98L7.44 13.98L6.10 13.98Q6.30 13.51 6.75 12.50L6.75 12.50Q6.42 12.09 6.43 11.48L6.43 11.48L6.43 8.42Q6.43 7.33 6.00 6.79Q5.58 6.25 4.73 6.25L4.73 6.25Q3.71 6.25 3.12 6.90Q2.54 7.55 2.54 8.67L2.54 8.67L2.54 13.00L1.27 13.00L1.27 5.34L2.54 5.34L2.54 6.53Q2.99 5.84 3.60 5.50L3.60 5.50Q4.21 5.15 5.01 5.15L5.01 5.15Q6.33 5.15 7.01 5.97L7.01 5.97Q7.68 6.79 7.68 8.37L7.68 8.37ZM13.12 13.00L13.12 5.34L14.38 5.34L14.38 13.00L13.12 13.00ZM13.12 3.95L13.12 2.36L14.38 2.36L14.38 3.95L13.12 3.95ZM17.83 5.34L19.86 8.07L21.89 5.34L23.37 5.34L20.65 8.99Q21.14 9.66 21.44 10.18L21.44 10.18Q21.91 11.00 21.91 11.42L21.91 11.42Q21.91 12.31 21.40 12.75Q20.88 13.19 19.86 13.19L19.86 13.19Q18.83 13.19 18.32 12.75Q17.81 12.31 17.81 11.42L17.81 11.42Q17.81 11.00 18.28 10.18L18.28 10.18Q18.58 9.66 19.07 8.99L19.07 8.99L16.34 5.34L17.83 5.34ZM19.86 12.13L19.86 12.13Q20.32 12.13 20.53 11.94L20.53 11.94Q20.72 11.78 20.72 11.47L20.72 11.47Q20.72 11.25 20.45 10.81L20.45 10.81Q20.24 10.47 19.86 9.99L19.86 9.99Q19.48 10.47 19.26 10.81L19.26 10.81Q19.00 11.25 19.00 11.47L19.00 11.47Q19.00 11.78 19.19 11.94L19.19 11.94Q19.40 12.13 19.86 12.13ZM25.09 8.43L25.09 7.68L26.49 7.68L26.49 3.50L24.96 3.78L24.96 2.99L26.54 2.72L27.47 2.72L27.47 7.68L28.88 7.68L28.88 8.43L25.09 8.43ZM30.71 8.43L30.71 7.68L32.10 7.68L32.10 3.50L30.58 3.78L30.58 2.99L32.15 2.72L33.09 2.72L33.09 7.68L34.49 7.68L34.49 8.43L30.71 8.43ZM38.83 5.34L38.83 5.34Q39.46 5.46 39.81 5.83Q40.15 6.21 40.15 6.77L40.15 6.77Q40.15 7.62 39.50 8.07Q38.86 8.53 37.65 8.53L37.65 8.53Q37.26 8.53 36.83 8.46Q36.40 8.39 35.92 8.25L35.92 8.25L35.92 7.42Q36.28 7.61 36.69 7.70Q37.09 7.79 37.55 7.79L37.55 7.79Q38.29 7.79 38.71 7.52Q39.12 7.25 39.12 6.77L39.12 6.77Q39.12 6.26 38.74 6.00Q38.36 5.74 37.62 5.74L37.62 5.74L37.03 5.74L37.03 5.00L37.67 5.00Q38.32 5.00 38.65 4.79Q38.98 4.57 38.98 4.16L38.98 4.16Q38.98 3.77 38.64 3.56Q38.29 3.35 37.65 3.35L37.65 3.35Q37.37 3.35 37.02 3.41Q36.67 3.47 36.12 3.63L36.12 3.63L36.12 2.84Q36.62 2.73 37.06 2.67Q37.50 2.60 37.87 2.60L37.87 2.60Q38.86 2.60 39.43 3.01Q40.01 3.41 40.01 4.09L40.01 4.09Q40.01 4.56 39.70 4.89Q39.40 5.22 38.83 5.34Z"></path></svg>