<svg height="16.296875" width="39.3955078125" xmlns="http://www.w3.org/2000/svg" ><path d="M8.31 12.11L8.31 12.11Q8.43 12.14 8.68 12.14L8.68 12.14Q9.78 12.14 9.78 10.94L9.78 10.94Q9.78 10.64 9.42 10.63L9.42 10.63Q9.06 10.63 8.31 12.11ZM7.68 8.37L7.68 10.85Q8.44 9.59 9.37 9.59L9.37 9.59Q11.03 9.59 11.03 11.00L11.03 11.00Q11.03 13.19 8.70 13.19L8.70 13.19Q8.20 13.19 7.83 13.09L7.83 13.09Q7.60 13.58 7.44 13.98L7.44 13.98L6.10 13.98Q6.30 13.51 6.75 12.50L6.75 12.50Q6.42 12.09 6.43 11.48L6.43 11.48L6.43 8.42Q6.43 7.33 6.00 6.79Q5.58 6.25 4.73 6.25L4.73 6.25Q3.71 6.25 3.12 6.90Q2.54 7.55 2.54 8.67L2.54 8.67L2.54 13.00L1.27 13.00L1.27 5.34L2.54 5.34L2.54 6.53Q2.99 5.84 3.60 5.50L3.60 5.50Q4.21 5.15 5.01 5.15L5.01 5.15Q6.33 5.15 7.01 5.97L7.01 5.97Q7.68 6.79 7.68 8.37L7.68 8.37ZM13.12 13.00L13.12 5.34L14.38 5.34L14.38 13.00L13.12 13.00ZM13.12 3.95L13.12 2.36L14.38 2.36L14.38 3.95L13.12 3.95ZM16.96 13.00L16.96 5.34L21.80 5.34L21.80 6.35L18.23 6.35L18.23 8.41L21.64 8.41L21.64 9.42L18.23 9.42L18.23 11.99L21.89 11.99L21.89 13.00L16.96 13.00ZM23.63 8.43L23.63 7.68L25.02 7.68L25.02 3.50L23.50 3.78L23.50 2.99L25.07 2.72L26.00 2.72L26.00 7.68L27.41 7.68L27.41 8.43L23.63 8.43ZM29.24 8.43L29.24 7.68L30.63 7.68L30.63 3.50L29.11 3.78L29.11 2.99L30.68 2.72L31.62 2.72L31.62 7.68L33.02 7.68L33.02 8.43L29.24 8.43ZM37.37 5.34L37.37 5.34Q37.99 5.46 38.34 5.83Q38.68 6.21 38.68 6.77L38.68 6.77Q38.68 7.62 38.04 8.07Q37.39 8.53 36.18 8.53L36.18 8.53Q35.79 8.53 35.36 8.46Q34.93 8.39 34.45 8.25L34.45 8.25L34.45 7.42Q34.81 7.61 35.22 7.70Q35.62 7.79 36.08 7.79L36.08 7.79Q36.83 7.79 37.24 7.52Q37.65 7.25 37.65 6.77L37.65 6.77Q37.65 6.26 37.27 6.00Q36.89 5.74 36.15 5.74L36.15 5.74L35.56 5.74L35.56 5.00L36.20 5.00Q36.85 5.00 37.18 4.79Q37.51 4.57 37.51 4.16L37.51 4.16Q37.51 3.77 37.17 3.56Q36.83 3.35 36.18 3.35L36.18 3.35Q35.90 3.35 35.55 3.41Q35.21 3.47 34.65 3.63L34.65 3.63L34.65 2.84Q35.15 2.73 35.59 2.67Q36.03 2.60 36.40 2.60L36.40 2.60Q37.39 2.60 37.96 3.01Q38.54 3.41 38.54 4.09L38.54 4.09Q38.54 4.56 38.23 4.89Q37.93 5.22 37.37 5.34Z"></path></svg>