<svg height="16.296875" width="41.3984375" xmlns="http://www.w3.org/2000/svg" ><path d="M8.31 12.11L8.31 12.11Q8.43 12.14 8.68 12.14L8.68 12.14Q9.78 12.14 9.78 10.94L9.78 10.94Q9.78 10.64 9.42 10.63L9.42 10.63Q9.06 10.63 8.31 12.11ZM7.68 8.37L7.68 10.85Q8.44 9.59 9.37 9.59L9.37 9.59Q11.03 9.59 11.03 11.00L11.03 11.00Q11.03 13.19 8.70 13.19L8.70 13.19Q8.20 13.19 7.83 13.09L7.83 13.09Q7.60 13.58 7.44 13.98L7.44 13.98L6.10 13.98Q6.30 13.51 6.75 12.50L6.75 12.50Q6.42 12.09 6.43 11.48L6.43 11.48L6.43 8.42Q6.43 7.33 6.00 6.79Q5.58 6.25 4.73 6.25L4.73 6.25Q3.71 6.25 3.12 6.90Q2.54 7.55 2.54 8.67L2.54 8.67L2.54 13.00L1.27 13.00L1.27 5.34L2.54 5.34L2.54 6.53Q2.99 5.84 3.60 5.50L3.60 5.50Q4.21 5.15 5.01 5.15L5.01 5.15Q6.33 5.15 7.01 5.97L7.01 5.97Q7.68 6.79 7.68 8.37L7.68 8.37ZM13.12 13.00L13.12 5.34L14.38 5.34L14.38 13.00L13.12 13.00ZM13.12 3.95L13.12 2.36L14.38 2.36L14.38 3.95L13.12 3.95ZM23.37 8.37L23.37 8.37L23.37 13.00L22.11 13.00L22.11 8.42Q22.11 7.33 21.69 6.79Q21.27 6.25 20.42 6.25L20.42 6.25Q19.40 6.25 18.81 6.90Q18.22 7.55 18.22 8.67L18.22 8.67L18.22 13.00L16.96 13.00L16.96 5.34L18.22 5.34L18.22 6.53Q18.68 5.84 19.29 5.50Q19.90 5.15 20.70 5.15L20.70 5.15Q22.02 5.15 22.70 5.97Q23.37 6.79 23.37 8.37ZM25.63 8.43L25.63 7.68L27.02 7.68L27.02 3.50L25.50 3.78L25.50 2.99L27.07 2.72L28.01 2.72L28.01 7.68L29.41 7.68L29.41 8.43L25.63 8.43ZM31.24 8.43L31.24 7.68L32.63 7.68L32.63 3.50L31.11 3.78L31.11 2.99L32.68 2.72L33.62 2.72L33.62 7.68L35.02 7.68L35.02 8.43L31.24 8.43ZM39.37 5.34L39.37 5.34Q40.00 5.46 40.34 5.83Q40.69 6.21 40.69 6.77L40.69 6.77Q40.69 7.62 40.04 8.07Q39.39 8.53 38.18 8.53L38.18 8.53Q37.79 8.53 37.36 8.46Q36.93 8.39 36.46 8.25L36.46 8.25L36.46 7.42Q36.81 7.61 37.22 7.70Q37.63 7.79 38.08 7.79L38.08 7.79Q38.83 7.79 39.24 7.52Q39.65 7.25 39.65 6.77L39.65 6.77Q39.65 6.26 39.27 6.00Q38.89 5.74 38.15 5.74L38.15 5.74L37.56 5.74L37.56 5.00L38.21 5.00Q38.85 5.00 39.18 4.79Q39.51 4.57 39.51 4.16L39.51 4.16Q39.51 3.77 39.17 3.56Q38.83 3.35 38.18 3.35L38.18 3.35Q37.91 3.35 37.56 3.41Q37.21 3.47 36.65 3.63L36.65 3.63L36.65 2.84Q37.15 2.73 37.59 2.67Q38.03 2.60 38.40 2.60L38.40 2.60Q39.39 2.60 39.97 3.01Q40.54 3.41 40.54 4.09L40.54 4.09Q40.54 4.56 40.24 4.89Q39.93 5.22 39.37 5.34Z"></path></svg>