<svg height="16.296875" width="49.9638671875" xmlns="http://www.w3.org/2000/svg" ><path d="M8.31 12.11L8.31 12.11Q8.43 12.14 8.68 12.14L8.68 12.14Q9.78 12.14 9.78 10.94L9.78 10.94Q9.78 10.64 9.42 10.63L9.42 10.63Q9.06 10.63 8.31 12.11ZM7.68 8.37L7.68 10.85Q8.44 9.59 9.37 9.59L9.37 9.59Q11.03 9.59 11.03 11.00L11.03 11.00Q11.03 13.19 8.70 13.19L8.70 13.19Q8.20 13.19 7.83 13.09L7.83 13.09Q7.60 13.58 7.44 13.98L7.44 13.98L6.10 13.98Q6.30 13.51 6.75 12.50L6.75 12.50Q6.42 12.09 6.43 11.48L6.43 11.48L6.43 8.42Q6.43 7.33 6.00 6.79Q5.58 6.25 4.73 6.25L4.73 6.25Q3.71 6.25 3.12 6.90Q2.54 7.55 2.54 8.67L2.54 8.67L2.54 13.00L1.27 13.00L1.27 5.34L2.54 5.34L2.54 6.53Q2.99 5.84 3.60 5.50L3.60 5.50Q4.21 5.15 5.01 5.15L5.01 5.15Q6.33 5.15 7.01 5.97L7.01 5.97Q7.68 6.79 7.68 8.37L7.68 8.37ZM13.12 13.00L13.12 5.34L14.38 5.34L14.38 13.00L13.12 13.00ZM13.12 3.95L13.12 2.36L14.38 2.36L14.38 3.95L13.12 3.95ZM19.97 6.22L19.97 6.22Q18.96 6.22 18.38 7.01Q17.79 7.80 17.79 9.17L17.79 9.17Q17.79 10.55 18.37 11.34Q18.96 12.13 19.97 12.13L19.97 12.13Q20.98 12.13 21.57 11.33Q22.16 10.54 22.16 9.17L22.16 9.17Q22.16 7.81 21.57 7.02Q20.98 6.22 19.97 6.22ZM19.97 5.15L19.97 5.15Q21.62 5.15 22.55 6.22Q23.49 7.29 23.49 9.17L23.49 9.17Q23.49 11.05 22.55 12.12Q21.62 13.19 19.97 13.19L19.97 13.19Q18.33 13.19 17.39 12.12Q16.46 11.05 16.46 9.17L16.46 9.17Q16.46 7.29 17.39 6.22Q18.33 5.15 19.97 5.15ZM31.94 8.37L31.94 8.37L31.94 13.13Q31.94 14.59 31.38 15.25L31.38 15.25Q30.82 15.91 29.59 15.91L29.59 15.91L27.85 15.91L27.85 14.84L29.44 14.84Q30.16 14.84 30.42 14.51L30.42 14.51Q30.68 14.18 30.68 13.13L30.68 13.13L30.68 8.42Q30.68 7.33 30.26 6.79Q29.83 6.25 28.98 6.25L28.98 6.25Q27.97 6.25 27.38 6.90Q26.79 7.55 26.79 8.67L26.79 8.67L26.79 13.00L25.53 13.00L25.53 5.34L26.79 5.34L26.79 6.53Q27.24 5.84 27.85 5.50L27.85 5.50Q28.46 5.15 29.26 5.15L29.26 5.15Q30.58 5.15 31.26 5.97L31.26 5.97Q31.94 6.79 31.94 8.37ZM34.19 8.43L34.19 7.68L35.59 7.68L35.59 3.50L34.06 3.78L34.06 2.99L35.64 2.72L36.57 2.72L36.57 7.68L37.97 7.68L37.97 8.43L34.19 8.43ZM39.81 8.43L39.81 7.68L41.20 7.68L41.20 3.50L39.68 3.78L39.68 2.99L41.25 2.72L42.18 2.72L42.18 7.68L43.59 7.68L43.59 8.43L39.81 8.43ZM47.93 5.34L47.93 5.34Q48.56 5.46 48.91 5.83Q49.25 6.21 49.25 6.77L49.25 6.77Q49.25 7.62 48.60 8.07Q47.95 8.53 46.74 8.53L46.74 8.53Q46.35 8.53 45.93 8.46Q45.50 8.39 45.02 8.25L45.02 8.25L45.02 7.42Q45.38 7.61 45.78 7.70Q46.19 7.79 46.65 7.79L46.65 7.79Q47.39 7.79 47.80 7.52Q48.21 7.25 48.21 6.77L48.21 6.77Q48.21 6.26 47.83 6.00Q47.46 5.74 46.72 5.74L46.72 5.74L46.13 5.74L46.13 5.00L46.77 5.00Q47.41 5.00 47.75 4.79Q48.08 4.57 48.08 4.16L48.08 4.16Q48.08 3.77 47.74 3.56Q47.39 3.35 46.74 3.35L46.74 3.35Q46.47 3.35 46.12 3.41Q45.77 3.47 45.22 3.63L45.22 3.63L45.22 2.84Q45.72 2.73 46.16 2.67Q46.59 2.60 46.97 2.60L46.97 2.60Q47.95 2.60 48.53 3.01Q49.11 3.41 49.11 4.09L49.11 4.09Q49.11 4.56 48.80 4.89Q48.49 5.22 47.93 5.34Z"></path></svg>