<svg height="16.296875" width="45.486328125" xmlns="http://www.w3.org/2000/svg" ><path d="M8.31 12.11L8.31 12.11Q8.43 12.14 8.68 12.14L8.68 12.14Q9.78 12.14 9.78 10.94L9.78 10.94Q9.78 10.64 9.42 10.63L9.42 10.63Q9.06 10.63 8.31 12.11ZM7.68 8.37L7.68 10.85Q8.44 9.59 9.37 9.59L9.37 9.59Q11.03 9.59 11.03 11.00L11.03 11.00Q11.03 13.19 8.70 13.19L8.70 13.19Q8.20 13.19 7.83 13.09L7.83 13.09Q7.60 13.58 7.44 13.98L7.44 13.98L6.10 13.98Q6.30 13.51 6.75 12.50L6.75 12.50Q6.42 12.09 6.43 11.48L6.43 11.48L6.43 8.42Q6.43 7.33 6.00 6.79Q5.58 6.25 4.73 6.25L4.73 6.25Q3.71 6.25 3.12 6.90Q2.54 7.55 2.54 8.67L2.54 8.67L2.54 13.00L1.27 13.00L1.27 5.34L2.54 5.34L2.54 6.53Q2.99 5.84 3.60 5.50L3.60 5.50Q4.21 5.15 5.01 5.15L5.01 5.15Q6.33 5.15 7.01 5.97L7.01 5.97Q7.68 6.79 7.68 8.37L7.68 8.37ZM19.67 5.34L16.30 13.71Q15.77 15.07 15.26 15.49Q14.76 15.91 13.91 15.91L13.91 15.91L12.91 15.91L12.91 14.85L13.64 14.85Q14.16 14.85 14.45 14.61Q14.74 14.36 15.09 13.45L15.09 13.45L15.31 12.87L12.22 5.34L13.55 5.34L15.94 11.33L18.33 5.34L19.67 5.34ZM26.27 7.52L26.27 7.52L22.94 11.57Q23.22 11.85 23.57 11.99Q23.93 12.13 24.37 12.13L24.37 12.13Q25.38 12.13 25.96 11.33Q26.55 10.54 26.55 9.17L26.55 9.17Q26.55 8.63 26.48 8.23Q26.41 7.83 26.27 7.52ZM22.45 10.83L25.79 6.78Q25.50 6.50 25.15 6.36Q24.79 6.22 24.37 6.22L24.37 6.22Q23.34 6.22 22.76 7.02Q22.18 7.83 22.18 9.27L22.18 9.27Q22.18 9.76 22.25 10.14Q22.31 10.51 22.45 10.83L22.45 10.83ZM20.58 13.10L21.59 11.86Q21.23 11.33 21.04 10.66Q20.86 9.99 20.86 9.17L20.86 9.17Q20.86 7.29 21.79 6.22Q22.72 5.15 24.37 5.15L24.37 5.15Q25.01 5.15 25.55 5.33Q26.09 5.50 26.55 5.86L26.55 5.86L27.50 4.71L28.15 5.25L27.15 6.47Q27.51 7 27.70 7.68Q27.88 8.35 27.88 9.17L27.88 9.17Q27.88 11.05 26.95 12.12Q26.01 13.19 24.37 13.19L24.37 13.19Q23.71 13.19 23.16 13.02Q22.61 12.84 22.18 12.49L22.18 12.49L21.23 13.64L20.58 13.10ZM29.72 8.43L29.72 7.68L31.11 7.68L31.11 3.50L29.59 3.78L29.59 2.99L31.16 2.72L32.09 2.72L32.09 7.68L33.50 7.68L33.50 8.43L29.72 8.43ZM35.33 8.43L35.33 7.68L36.72 7.68L36.72 3.50L35.20 3.78L35.20 2.99L36.77 2.72L37.71 2.72L37.71 7.68L39.11 7.68L39.11 8.43L35.33 8.43ZM43.46 5.34L43.46 5.34Q44.08 5.46 44.43 5.83Q44.78 6.21 44.78 6.77L44.78 6.77Q44.78 7.62 44.13 8.07Q43.48 8.53 42.27 8.53L42.27 8.53Q41.88 8.53 41.45 8.46Q41.02 8.39 40.54 8.25L40.54 8.25L40.54 7.42Q40.90 7.61 41.31 7.70Q41.71 7.79 42.17 7.79L42.17 7.79Q42.92 7.79 43.33 7.52Q43.74 7.25 43.74 6.77L43.74 6.77Q43.74 6.26 43.36 6.00Q42.98 5.74 42.24 5.74L42.24 5.74L41.65 5.74L41.65 5.00L42.29 5.00Q42.94 5.00 43.27 4.79Q43.60 4.57 43.60 4.16L43.60 4.16Q43.60 3.77 43.26 3.56Q42.92 3.35 42.27 3.35L42.27 3.35Q41.99 3.35 41.64 3.41Q41.30 3.47 40.74 3.63L40.74 3.63L40.74 2.84Q41.24 2.73 41.68 2.67Q42.12 2.60 42.49 2.60L42.49 2.60Q43.48 2.60 44.05 3.01Q44.63 3.41 44.63 4.09L44.63 4.09Q44.63 4.56 44.32 4.89Q44.02 5.22 43.46 5.34Z"></path></svg>