<svg height="16.296875" width="42.6220703125" xmlns="http://www.w3.org/2000/svg" ><path d="M8.31 12.11L8.31 12.11Q8.43 12.14 8.68 12.14L8.68 12.14Q9.78 12.14 9.78 10.94L9.78 10.94Q9.78 10.64 9.42 10.63L9.42 10.63Q9.06 10.63 8.31 12.11ZM7.68 8.37L7.68 10.85Q8.44 9.59 9.37 9.59L9.37 9.59Q11.03 9.59 11.03 11.00L11.03 11.00Q11.03 13.19 8.70 13.19L8.70 13.19Q8.20 13.19 7.83 13.09L7.83 13.09Q7.60 13.58 7.44 13.98L7.44 13.98L6.10 13.98Q6.30 13.51 6.75 12.50L6.75 12.50Q6.42 12.09 6.43 11.48L6.43 11.48L6.43 8.42Q6.43 7.33 6.00 6.79Q5.58 6.25 4.73 6.25L4.73 6.25Q3.71 6.25 3.12 6.90Q2.54 7.55 2.54 8.67L2.54 8.67L2.54 13.00L1.27 13.00L1.27 5.34L2.54 5.34L2.54 6.53Q2.99 5.84 3.60 5.50L3.60 5.50Q4.21 5.15 5.01 5.15L5.01 5.15Q6.33 5.15 7.01 5.97L7.01 5.97Q7.68 6.79 7.68 8.37L7.68 8.37ZM13.12 13.00L13.12 5.34L14.38 5.34L14.38 13.00L13.12 13.00ZM13.12 3.95L13.12 2.36L14.38 2.36L14.38 3.95L13.12 3.95ZM19.97 6.22L19.97 6.22Q18.96 6.22 18.38 7.01Q17.79 7.80 17.79 9.17L17.79 9.17Q17.79 10.55 18.37 11.34Q18.96 12.13 19.97 12.13L19.97 12.13Q20.98 12.13 21.57 11.33Q22.16 10.54 22.16 9.17L22.16 9.17Q22.16 7.81 21.57 7.02Q20.98 6.22 19.97 6.22ZM19.97 5.15L19.97 5.15Q21.62 5.15 22.55 6.22Q23.49 7.29 23.49 9.17L23.49 9.17Q23.49 11.05 22.55 12.12Q21.62 13.19 19.97 13.19L19.97 13.19Q18.33 13.19 17.39 12.12Q16.46 11.05 16.46 9.17L16.46 9.17Q16.46 7.29 17.39 6.22Q18.33 5.15 19.97 5.15ZM26.58 13.00L26.58 7.54L27.01 7.54Q28.32 7.54 28.91 6.76L28.91 6.76Q29.31 6.24 29.31 5.57L29.31 5.57Q29.30 4.66 28.91 4.22L28.91 4.22Q28.23 3.44 27.01 3.44L27.01 3.44Q26.46 3.44 25.92 3.59L25.92 3.59Q25.39 3.73 24.86 4.03L24.86 4.03L24.86 2.85Q25.38 2.61 25.93 2.50L25.93 2.50Q26.48 2.37 27.06 2.37L27.06 2.37Q28.94 2.37 29.89 3.45L29.89 3.45Q30.63 4.30 30.63 5.57L30.63 5.57Q30.63 6.73 29.89 7.52L29.89 7.52Q29.13 8.33 27.97 8.54L27.97 8.54L27.97 13.00L26.58 13.00ZM32.46 8.43L32.46 7.68L33.86 7.68L33.86 3.50L32.33 3.78L32.33 2.99L33.91 2.72L34.84 2.72L34.84 7.68L36.24 7.68L36.24 8.43L32.46 8.43ZM38.84 7.65L38.84 7.65L41.74 7.65L41.74 8.43L37.65 8.43L37.65 7.68Q37.88 7.46 38.32 7.08L38.32 7.08Q40.67 5.00 40.67 4.35L40.67 4.35Q40.67 3.90 40.31 3.63Q39.96 3.35 39.38 3.35L39.38 3.35Q39.02 3.35 38.60 3.47Q38.19 3.59 37.69 3.83L37.69 3.83L37.69 2.99Q38.22 2.80 38.67 2.70Q39.13 2.60 39.52 2.60L39.52 2.60Q40.51 2.60 41.10 3.06Q41.70 3.51 41.70 4.25L41.70 4.25Q41.70 5.20 39.44 7.14L39.44 7.14Q39.05 7.46 38.84 7.65Z"></path></svg>