<svg height="16.296875" width="39.2587890625" xmlns="http://www.w3.org/2000/svg" ><path d="M8.31 12.11L8.31 12.11Q8.43 12.14 8.68 12.14L8.68 12.14Q9.78 12.14 9.78 10.94L9.78 10.94Q9.78 10.64 9.42 10.63L9.42 10.63Q9.06 10.63 8.31 12.11ZM7.68 8.37L7.68 10.85Q8.44 9.59 9.37 9.59L9.37 9.59Q11.03 9.59 11.03 11.00L11.03 11.00Q11.03 13.19 8.70 13.19L8.70 13.19Q8.20 13.19 7.83 13.09L7.83 13.09Q7.60 13.58 7.44 13.98L7.44 13.98L6.10 13.98Q6.30 13.51 6.75 12.50L6.75 12.50Q6.42 12.09 6.43 11.48L6.43 11.48L6.43 8.42Q6.43 7.33 6.00 6.79Q5.58 6.25 4.73 6.25L4.73 6.25Q3.71 6.25 3.12 6.90Q2.54 7.55 2.54 8.67L2.54 8.67L2.54 13.00L1.27 13.00L1.27 5.34L2.54 5.34L2.54 6.53Q2.99 5.84 3.60 5.50L3.60 5.50Q4.21 5.15 5.01 5.15L5.01 5.15Q6.33 5.15 7.01 5.97L7.01 5.97Q7.68 6.79 7.68 8.37L7.68 8.37ZM13.12 13.00L13.12 5.34L14.38 5.34L14.38 13.00L13.12 13.00ZM13.12 3.95L13.12 2.36L14.38 2.36L14.38 3.95L13.12 3.95ZM17.68 6.46L16.48 6.46L16.48 5.34L20.09 5.34L20.09 6.46L18.94 6.46L18.94 11.87L20.09 11.87L20.09 13.00L16.48 13.00L16.48 11.87L17.68 11.87L17.68 6.46ZM23.22 13.00L23.21 7.54L23.65 7.54Q24.96 7.54 25.55 6.76L25.55 6.76Q25.94 6.24 25.94 5.57L25.94 5.57Q25.94 4.66 25.55 4.22L25.55 4.22Q24.87 3.44 23.65 3.44L23.65 3.44Q23.10 3.44 22.56 3.59L22.56 3.59Q22.03 3.73 21.49 4.03L21.49 4.03L21.49 2.85Q22.01 2.61 22.57 2.50L22.57 2.50Q23.12 2.37 23.70 2.37L23.70 2.37Q25.58 2.37 26.52 3.45L26.52 3.45Q27.27 4.30 27.27 5.57L27.27 5.57Q27.27 6.73 26.53 7.52L26.53 7.52Q25.76 8.33 24.60 8.54L24.60 8.54L24.60 13.00L23.22 13.00ZM29.10 8.43L29.10 7.68L30.50 7.68L30.50 3.50L28.97 3.78L28.97 2.99L30.54 2.72L31.48 2.72L31.48 7.68L32.88 7.68L32.88 8.43L29.10 8.43ZM35.48 7.65L35.48 7.65L38.38 7.65L38.38 8.43L34.29 8.43L34.29 7.68Q34.52 7.46 34.95 7.08L34.95 7.08Q37.30 5.00 37.30 4.35L37.30 4.35Q37.30 3.90 36.95 3.63Q36.59 3.35 36.01 3.35L36.01 3.35Q35.66 3.35 35.24 3.47Q34.82 3.59 34.33 3.83L34.33 3.83L34.33 2.99Q34.86 2.80 35.31 2.70Q35.77 2.60 36.16 2.60L36.16 2.60Q37.15 2.60 37.74 3.06Q38.34 3.51 38.34 4.25L38.34 4.25Q38.34 5.20 36.07 7.14L36.07 7.14Q35.69 7.46 35.48 7.65Z"></path></svg>