<svg height="16.296875" width="43.654296875" xmlns="http://www.w3.org/2000/svg" ><path d="M8.31 12.11L8.31 12.11Q8.43 12.14 8.68 12.14L8.68 12.14Q9.78 12.14 9.78 10.94L9.78 10.94Q9.78 10.64 9.42 10.63L9.42 10.63Q9.06 10.63 8.31 12.11ZM7.68 8.37L7.68 10.85Q8.44 9.59 9.37 9.59L9.37 9.59Q11.03 9.59 11.03 11.00L11.03 11.00Q11.03 13.19 8.70 13.19L8.70 13.19Q8.20 13.19 7.83 13.09L7.83 13.09Q7.60 13.58 7.44 13.98L7.44 13.98L6.10 13.98Q6.30 13.51 6.75 12.50L6.75 12.50Q6.42 12.09 6.43 11.48L6.43 11.48L6.43 8.42Q6.43 7.33 6.00 6.79Q5.58 6.25 4.73 6.25L4.73 6.25Q3.71 6.25 3.12 6.90Q2.54 7.55 2.54 8.67L2.54 8.67L2.54 13.00L1.27 13.00L1.27 5.34L2.54 5.34L2.54 6.53Q2.99 5.84 3.60 5.50L3.60 5.50Q4.21 5.15 5.01 5.15L5.01 5.15Q6.33 5.15 7.01 5.97L7.01 5.97Q7.68 6.79 7.68 8.37L7.68 8.37ZM19.67 5.34L16.30 13.71Q15.77 15.07 15.26 15.49Q14.76 15.91 13.91 15.91L13.91 15.91L12.91 15.91L12.91 14.85L13.64 14.85Q14.16 14.85 14.45 14.61Q14.74 14.36 15.09 13.45L15.09 13.45L15.31 12.87L12.22 5.34L13.55 5.34L15.94 11.33L18.33 5.34L19.67 5.34ZM22.08 6.46L20.88 6.46L20.88 5.34L24.49 5.34L24.49 6.46L23.34 6.46L23.34 11.87L24.49 11.87L24.49 13.00L20.88 13.00L20.88 11.87L22.08 11.87L22.08 6.46ZM27.62 13.00L27.61 7.54L28.04 7.54Q29.35 7.54 29.94 6.76L29.94 6.76Q30.34 6.24 30.34 5.57L30.34 5.57Q30.33 4.66 29.94 4.22L29.94 4.22Q29.26 3.44 28.04 3.44L28.04 3.44Q27.49 3.44 26.95 3.59L26.95 3.59Q26.42 3.73 25.89 4.03L25.89 4.03L25.89 2.85Q26.41 2.61 26.96 2.50L26.96 2.50Q27.51 2.37 28.10 2.37L28.10 2.37Q29.98 2.37 30.92 3.45L30.92 3.45Q31.66 4.30 31.66 5.57L31.66 5.57Q31.66 6.73 30.93 7.52L30.93 7.52Q30.16 8.33 29.00 8.54L29.00 8.54L29.00 13.00L27.62 13.00ZM33.50 8.43L33.50 7.68L34.89 7.68L34.89 3.50L33.37 3.78L33.37 2.99L34.94 2.72L35.88 2.72L35.88 7.68L37.28 7.68L37.28 8.43L33.50 8.43ZM39.87 7.65L39.87 7.65L42.77 7.65L42.77 8.43L38.68 8.43L38.68 7.68Q38.92 7.46 39.35 7.08L39.35 7.08Q41.70 5.00 41.70 4.35L41.70 4.35Q41.70 3.90 41.34 3.63Q40.99 3.35 40.41 3.35L40.41 3.35Q40.05 3.35 39.63 3.47Q39.22 3.59 38.73 3.83L38.73 3.83L38.73 2.99Q39.25 2.80 39.71 2.70Q40.16 2.60 40.55 2.60L40.55 2.60Q41.54 2.60 42.14 3.06Q42.73 3.51 42.73 4.25L42.73 4.25Q42.73 5.20 40.47 7.14L40.47 7.14Q40.09 7.46 39.87 7.65Z"></path></svg>