<svg height="16.296875" width="36.9208984375" xmlns="http://www.w3.org/2000/svg" ><path d="M8.31 12.11L8.31 12.11Q8.43 12.14 8.68 12.14L8.68 12.14Q9.78 12.14 9.78 10.94L9.78 10.94Q9.78 10.64 9.42 10.63L9.42 10.63Q9.06 10.63 8.31 12.11ZM7.68 8.37L7.68 10.85Q8.44 9.59 9.37 9.59L9.37 9.59Q11.03 9.59 11.03 11.00L11.03 11.00Q11.03 13.19 8.70 13.19L8.70 13.19Q8.20 13.19 7.83 13.09L7.83 13.09Q7.60 13.58 7.44 13.98L7.44 13.98L6.10 13.98Q6.30 13.51 6.75 12.50L6.75 12.50Q6.42 12.09 6.43 11.48L6.43 11.48L6.43 8.42Q6.43 7.33 6.00 6.79Q5.58 6.25 4.73 6.25L4.73 6.25Q3.71 6.25 3.12 6.90Q2.54 7.55 2.54 8.67L2.54 8.67L2.54 13.00L1.27 13.00L1.27 5.34L2.54 5.34L2.54 6.53Q2.99 5.84 3.60 5.50L3.60 5.50Q4.21 5.15 5.01 5.15L5.01 5.15Q6.33 5.15 7.01 5.97L7.01 5.97Q7.68 6.79 7.68 8.37L7.68 8.37ZM19.67 5.34L16.30 13.71Q15.77 15.07 15.26 15.49Q14.76 15.91 13.91 15.91L13.91 15.91L12.91 15.91L12.91 14.85L13.64 14.85Q14.16 14.85 14.45 14.61Q14.74 14.36 15.09 13.45L15.09 13.45L15.31 12.87L12.22 5.34L13.55 5.34L15.94 11.33L18.33 5.34L19.67 5.34ZM21.15 8.43L21.15 7.68L22.54 7.68L22.54 3.50L21.02 3.78L21.02 2.99L22.59 2.72L23.53 2.72L23.53 7.68L24.93 7.68L24.93 8.43L21.15 8.43ZM26.76 8.43L26.76 7.68L28.16 7.68L28.16 3.50L26.63 3.78L26.63 2.99L28.21 2.72L29.14 2.72L29.14 7.68L30.54 7.68L30.54 8.43L26.76 8.43ZM34.89 5.34L34.89 5.34Q35.52 5.46 35.86 5.83Q36.21 6.21 36.21 6.77L36.21 6.77Q36.21 7.62 35.56 8.07Q34.91 8.53 33.70 8.53L33.70 8.53Q33.31 8.53 32.88 8.46Q32.46 8.39 31.98 8.25L31.98 8.25L31.98 7.42Q32.33 7.61 32.74 7.70Q33.15 7.79 33.61 7.79L33.61 7.79Q34.35 7.79 34.76 7.52Q35.17 7.25 35.17 6.77L35.17 6.77Q35.17 6.26 34.79 6.00Q34.41 5.74 33.67 5.74L33.67 5.74L33.09 5.74L33.09 5.00L33.73 5.00Q34.37 5.00 34.70 4.79Q35.03 4.57 35.03 4.16L35.03 4.16Q35.03 3.77 34.69 3.56Q34.35 3.35 33.70 3.35L33.70 3.35Q33.43 3.35 33.08 3.41Q32.73 3.47 32.18 3.63L32.18 3.63L32.18 2.84Q32.68 2.73 33.11 2.67Q33.55 2.60 33.93 2.60L33.93 2.60Q34.91 2.60 35.49 3.01Q36.07 3.41 36.07 4.09L36.07 4.09Q36.07 4.56 35.76 4.89Q35.45 5.22 34.89 5.34Z"></path></svg>