<svg height="16.296875" width="43.4833984375" xmlns="http://www.w3.org/2000/svg" ><path d="M6.36 9.08L6.36 9.08Q6.36 7.71 5.79 6.96Q5.23 6.21 4.21 6.21L4.21 6.21Q3.20 6.21 2.64 6.96Q2.07 7.71 2.07 9.08L2.07 9.08Q2.07 10.44 2.64 11.19Q3.20 11.94 4.21 11.94L4.21 11.94Q5.23 11.94 5.79 11.19Q6.36 10.44 6.36 9.08ZM7.62 5.34L7.62 12.04Q7.62 14 6.75 14.95Q5.88 15.91 4.09 15.91L4.09 15.91Q3.42 15.91 2.84 15.81Q2.25 15.71 1.70 15.50L1.70 15.50L1.70 14.28Q2.25 14.58 2.79 14.72Q3.33 14.87 3.89 14.87L3.89 14.87Q5.13 14.87 5.74 14.22Q6.36 13.58 6.36 12.27L6.36 12.27L6.36 11.65Q5.97 12.33 5.36 12.66Q4.75 13.00 3.90 13.00L3.90 13.00Q2.50 13.00 1.63 11.92Q0.77 10.85 0.77 9.08L0.77 9.08Q0.77 7.30 1.63 6.23Q2.50 5.15 3.90 5.15L3.90 5.15Q4.75 5.15 5.36 5.49Q5.97 5.82 6.36 6.50L6.36 6.50L6.36 5.34L7.62 5.34ZM10.08 9.97L10.08 9.97L10.08 5.34L11.33 5.34L11.33 9.93Q11.33 11.01 11.76 11.56Q12.18 12.10 13.03 12.10L13.03 12.10Q14.05 12.10 14.64 11.45Q15.23 10.80 15.23 9.68L15.23 9.68L15.23 5.34L16.49 5.34L16.49 13.00L15.23 13.00L15.23 11.82Q14.77 12.52 14.17 12.85Q13.56 13.19 12.76 13.19L12.76 13.19Q11.44 13.19 10.76 12.37Q10.08 11.55 10.08 9.97ZM13.24 5.15L13.24 5.15ZM24.12 6.50L24.12 6.50L24.12 5.34L25.38 5.34L25.38 13.00L24.12 13.00L24.12 11.85Q23.72 12.53 23.12 12.86Q22.51 13.19 21.66 13.19L21.66 13.19Q20.28 13.19 19.40 12.09Q18.53 10.98 18.53 9.17L18.53 9.17Q18.53 7.37 19.40 6.26Q20.28 5.15 21.66 5.15L21.66 5.15Q22.51 5.15 23.12 5.49Q23.72 5.82 24.12 6.50ZM19.83 9.17L19.83 9.17Q19.83 10.56 20.40 11.35Q20.97 12.14 21.97 12.14L21.97 12.14Q22.97 12.14 23.54 11.35Q24.12 10.56 24.12 9.17L24.12 9.17Q24.12 7.79 23.54 7.00Q22.97 6.21 21.97 6.21L21.97 6.21Q20.97 6.21 20.40 7.00Q19.83 7.79 19.83 9.17ZM23.11 3.63L23.11 3.63L22.72 3.25Q22.57 3.12 22.45 3.05Q22.34 2.99 22.25 2.99L22.25 2.99Q21.99 2.99 21.87 3.24Q21.75 3.49 21.73 4.05L21.73 4.05L20.88 4.05Q20.89 3.12 21.24 2.62Q21.59 2.12 22.21 2.12L22.21 2.12Q22.47 2.12 22.69 2.21Q22.91 2.31 23.16 2.54L23.16 2.54L23.55 2.91Q23.70 3.05 23.81 3.11Q23.93 3.18 24.01 3.18L24.01 3.18Q24.27 3.18 24.40 2.93Q24.52 2.68 24.53 2.12L24.53 2.12L25.39 2.12Q25.38 3.04 25.03 3.54Q24.68 4.05 24.06 4.05L24.06 4.05Q23.80 4.05 23.58 3.95Q23.36 3.86 23.11 3.63ZM27.71 8.43L27.71 7.68L29.11 7.68L29.11 3.50L27.58 3.78L27.58 2.99L29.16 2.72L30.09 2.72L30.09 7.68L31.49 7.68L31.49 8.43L27.71 8.43ZM33.33 8.43L33.33 7.68L34.72 7.68L34.72 3.50L33.20 3.78L33.20 2.99L34.77 2.72L35.70 2.72L35.70 7.68L37.11 7.68L37.11 8.43L33.33 8.43ZM41.45 5.34L41.45 5.34Q42.08 5.46 42.43 5.83Q42.77 6.21 42.77 6.77L42.77 6.77Q42.77 7.62 42.12 8.07Q41.47 8.53 40.26 8.53L40.26 8.53Q39.87 8.53 39.45 8.46Q39.02 8.39 38.54 8.25L38.54 8.25L38.54 7.42Q38.90 7.61 39.30 7.70Q39.71 7.79 40.17 7.79L40.17 7.79Q40.91 7.79 41.32 7.52Q41.73 7.25 41.73 6.77L41.73 6.77Q41.73 6.26 41.35 6.00Q40.97 5.74 40.24 5.74L40.24 5.74L39.65 5.74L39.65 5.00L40.29 5.00Q40.93 5.00 41.27 4.79Q41.60 4.57 41.60 4.16L41.60 4.16Q41.60 3.77 41.25 3.56Q40.91 3.35 40.26 3.35L40.26 3.35Q39.99 3.35 39.64 3.41Q39.29 3.47 38.74 3.63L38.74 3.63L38.74 2.84Q39.24 2.73 39.68 2.67Q40.11 2.60 40.49 2.60L40.49 2.60Q41.47 2.60 42.05 3.01Q42.63 3.41 42.63 4.09L42.63 4.09Q42.63 4.56 42.32 4.89Q42.01 5.22 41.45 5.34Z"></path></svg>