<svg height="16.296875" width="41.466796875" xmlns="http://www.w3.org/2000/svg" ><path d="M6.36 9.08L6.36 9.08Q6.36 7.71 5.79 6.96Q5.23 6.21 4.21 6.21L4.21 6.21Q3.20 6.21 2.64 6.96Q2.07 7.71 2.07 9.08L2.07 9.08Q2.07 10.44 2.64 11.19Q3.20 11.94 4.21 11.94L4.21 11.94Q5.23 11.94 5.79 11.19Q6.36 10.44 6.36 9.08ZM7.62 5.34L7.62 12.04Q7.62 14 6.75 14.95Q5.88 15.91 4.09 15.91L4.09 15.91Q3.42 15.91 2.84 15.81Q2.25 15.71 1.70 15.50L1.70 15.50L1.70 14.28Q2.25 14.58 2.79 14.72Q3.33 14.87 3.89 14.87L3.89 14.87Q5.13 14.87 5.74 14.22Q6.36 13.58 6.36 12.27L6.36 12.27L6.36 11.65Q5.97 12.33 5.36 12.66Q4.75 13.00 3.90 13.00L3.90 13.00Q2.50 13.00 1.63 11.92Q0.77 10.85 0.77 9.08L0.77 9.08Q0.77 7.30 1.63 6.23Q2.50 5.15 3.90 5.15L3.90 5.15Q4.75 5.15 5.36 5.49Q5.97 5.82 6.36 6.50L6.36 6.50L6.36 5.34L7.62 5.34ZM10.08 9.97L10.08 9.97L10.08 5.34L11.33 5.34L11.33 9.93Q11.33 11.01 11.76 11.56Q12.18 12.10 13.03 12.10L13.03 12.10Q14.05 12.10 14.64 11.45Q15.23 10.80 15.23 9.68L15.23 9.68L15.23 5.34L16.49 5.34L16.49 13.00L15.23 13.00L15.23 11.82Q14.77 12.52 14.17 12.85Q13.56 13.19 12.76 13.19L12.76 13.19Q11.44 13.19 10.76 12.37Q10.08 11.55 10.08 9.97ZM13.24 5.15L13.24 5.15ZM19.03 13.00L19.03 5.34L23.87 5.34L23.87 6.35L20.30 6.35L20.30 8.41L23.71 8.41L23.71 9.42L20.30 9.42L20.30 11.99L23.96 11.99L23.96 13.00L19.03 13.00ZM25.70 8.43L25.70 7.68L27.09 7.68L27.09 3.50L25.57 3.78L25.57 2.99L27.14 2.72L28.08 2.72L28.08 7.68L29.48 7.68L29.48 8.43L25.70 8.43ZM31.31 8.43L31.31 7.68L32.70 7.68L32.70 3.50L31.18 3.78L31.18 2.99L32.75 2.72L33.69 2.72L33.69 7.68L35.09 7.68L35.09 8.43L31.31 8.43ZM39.44 5.34L39.44 5.34Q40.07 5.46 40.41 5.83Q40.76 6.21 40.76 6.77L40.76 6.77Q40.76 7.62 40.11 8.07Q39.46 8.53 38.25 8.53L38.25 8.53Q37.86 8.53 37.43 8.46Q37.00 8.39 36.52 8.25L36.52 8.25L36.52 7.42Q36.88 7.61 37.29 7.70Q37.69 7.79 38.15 7.79L38.15 7.79Q38.90 7.79 39.31 7.52Q39.72 7.25 39.72 6.77L39.72 6.77Q39.72 6.26 39.34 6.00Q38.96 5.74 38.22 5.74L38.22 5.74L37.63 5.74L37.63 5.00L38.27 5.00Q38.92 5.00 39.25 4.79Q39.58 4.57 39.58 4.16L39.58 4.16Q39.58 3.77 39.24 3.56Q38.90 3.35 38.25 3.35L38.25 3.35Q37.97 3.35 37.63 3.41Q37.28 3.47 36.72 3.63L36.72 3.63L36.72 2.84Q37.22 2.73 37.66 2.67Q38.10 2.60 38.47 2.60L38.47 2.60Q39.46 2.60 40.03 3.01Q40.61 3.41 40.61 4.09L40.61 4.09Q40.61 4.56 40.30 4.89Q40.00 5.22 39.44 5.34Z"></path></svg>