<svg height="16.296875" width="28.3828125" xmlns="http://www.w3.org/2000/svg" ><path d="M7.68 8.37L7.68 8.37L7.68 13.00L6.43 13.00L6.43 8.42Q6.43 7.33 6.00 6.79Q5.58 6.25 4.73 6.25L4.73 6.25Q3.71 6.25 3.12 6.90Q2.54 7.55 2.54 8.67L2.54 8.67L2.54 13.00L1.27 13.00L1.27 2.36L2.54 2.36L2.54 6.53Q2.99 5.84 3.60 5.50Q4.21 5.15 5.01 5.15L5.01 5.15Q6.33 5.15 7.01 5.97Q7.68 6.79 7.68 8.37ZM13.87 5.34L16.74 13.00L15.41 13.00L14.71 11.12L11.32 11.12L10.62 13.00L9.29 13.00L12.16 5.34L13.87 5.34ZM13.02 6.57L11.70 10.10L14.33 10.10L13.02 6.57ZM18.13 5.58L18.13 2.72L21.62 2.72L21.62 3.37L18.94 3.37L18.94 4.76Q19.13 4.70 19.33 4.68L19.33 4.68Q19.52 4.65 19.71 4.65L19.71 4.65Q20.82 4.65 21.46 5.17L21.46 5.17Q22.10 5.69 22.10 6.59L22.10 6.59Q22.10 7.51 21.44 8.03L21.44 8.03Q20.78 8.53 19.58 8.53L19.58 8.53Q19.17 8.53 18.74 8.47Q18.31 8.41 17.86 8.29L17.86 8.29L17.86 7.51Q18.25 7.70 18.67 7.79L18.67 7.79Q19.09 7.88 19.56 7.88L19.56 7.88Q20.32 7.88 20.77 7.53Q21.21 7.18 21.21 6.59Q21.21 6.00 20.77 5.65Q20.32 5.30 19.56 5.30L19.56 5.30Q19.21 5.30 18.85 5.37Q18.50 5.43 18.13 5.58L18.13 5.58ZM26.35 5.34L26.35 5.34Q26.98 5.46 27.33 5.83Q27.67 6.21 27.67 6.77L27.67 6.77Q27.67 7.62 27.02 8.07Q26.37 8.53 25.16 8.53L25.16 8.53Q24.77 8.53 24.35 8.46Q23.92 8.39 23.44 8.25L23.44 8.25L23.44 7.42Q23.80 7.61 24.20 7.70Q24.61 7.79 25.07 7.79L25.07 7.79Q25.81 7.79 26.22 7.52Q26.63 7.25 26.63 6.77L26.63 6.77Q26.63 6.26 26.25 6.00Q25.87 5.74 25.14 5.74L25.14 5.74L24.55 5.74L24.55 5.00L25.19 5.00Q25.83 5.00 26.16 4.79Q26.50 4.57 26.50 4.16L26.50 4.16Q26.50 3.77 26.15 3.56Q25.81 3.35 25.16 3.35L25.16 3.35Q24.89 3.35 24.54 3.41Q24.19 3.47 23.64 3.63L23.64 3.63L23.64 2.84Q24.14 2.73 24.58 2.67Q25.01 2.60 25.39 2.60L25.39 2.60Q26.37 2.60 26.95 3.01Q27.53 3.41 27.53 4.09L27.53 4.09Q27.53 4.56 27.22 4.89Q26.91 5.22 26.35 5.34Z"></path></svg>