<svg height="16.296875" width="33.9951171875" xmlns="http://www.w3.org/2000/svg" ><path d="M7.68 8.37L7.68 8.37L7.68 13.00L6.43 13.00L6.43 8.42Q6.43 7.33 6.00 6.79Q5.58 6.25 4.73 6.25L4.73 6.25Q3.71 6.25 3.12 6.90Q2.54 7.55 2.54 8.67L2.54 8.67L2.54 13.00L1.27 13.00L1.27 2.36L2.54 2.36L2.54 6.53Q2.99 5.84 3.60 5.50Q4.21 5.15 5.01 5.15L5.01 5.15Q6.33 5.15 7.01 5.97Q7.68 6.79 7.68 8.37ZM13.87 5.34L16.74 13.00L15.41 13.00L14.71 11.12L11.32 11.12L10.62 13.00L9.29 13.00L12.16 5.34L13.87 5.34ZM13.02 6.57L11.70 10.10L14.33 10.10L13.02 6.57ZM20.74 5.34L20.74 5.34Q21.37 5.46 21.71 5.83Q22.06 6.21 22.06 6.77L22.06 6.77Q22.06 7.62 21.41 8.07Q20.76 8.53 19.55 8.53L19.55 8.53Q19.16 8.53 18.73 8.46Q18.31 8.39 17.83 8.25L17.83 8.25L17.83 7.42Q18.18 7.61 18.59 7.70Q19.00 7.79 19.46 7.79L19.46 7.79Q20.20 7.79 20.61 7.52Q21.02 7.25 21.02 6.77L21.02 6.77Q21.02 6.26 20.64 6.00Q20.26 5.74 19.52 5.74L19.52 5.74L18.94 5.74L18.94 5.00L19.58 5.00Q20.22 5.00 20.55 4.79Q20.88 4.57 20.88 4.16L20.88 4.16Q20.88 3.77 20.54 3.56Q20.20 3.35 19.55 3.35L19.55 3.35Q19.28 3.35 18.93 3.41Q18.58 3.47 18.03 3.63L18.03 3.63L18.03 2.84Q18.53 2.73 18.96 2.67Q19.40 2.60 19.78 2.60L19.78 2.60Q20.76 2.60 21.34 3.01Q21.92 3.41 21.92 4.09L21.92 4.09Q21.92 4.56 21.61 4.89Q21.30 5.22 20.74 5.34ZM26.35 5.34L26.35 5.34Q26.98 5.46 27.33 5.83Q27.67 6.21 27.67 6.77L27.67 6.77Q27.67 7.62 27.02 8.07Q26.37 8.53 25.16 8.53L25.16 8.53Q24.77 8.53 24.35 8.46Q23.92 8.39 23.44 8.25L23.44 8.25L23.44 7.42Q23.80 7.61 24.20 7.70Q24.61 7.79 25.07 7.79L25.07 7.79Q25.81 7.79 26.22 7.52Q26.63 7.25 26.63 6.77L26.63 6.77Q26.63 6.26 26.25 6.00Q25.87 5.74 25.14 5.74L25.14 5.74L24.55 5.74L24.55 5.00L25.19 5.00Q25.83 5.00 26.16 4.79Q26.50 4.57 26.50 4.16L26.50 4.16Q26.50 3.77 26.15 3.56Q25.81 3.35 25.16 3.35L25.16 3.35Q24.89 3.35 24.54 3.41Q24.19 3.47 23.64 3.63L23.64 3.63L23.64 2.84Q24.14 2.73 24.58 2.67Q25.01 2.60 25.39 2.60L25.39 2.60Q26.37 2.60 26.95 3.01Q27.53 3.41 27.53 4.09L27.53 4.09Q27.53 4.56 27.22 4.89Q26.91 5.22 26.35 5.34ZM31.64 6.41L31.64 3.55L29.53 6.41L31.64 6.41ZM28.81 6.33L31.49 2.72L32.63 2.72L32.63 6.41L33.55 6.41L33.55 7.16L32.63 7.16L32.63 8.43L31.64 8.43L31.64 7.16L28.81 7.16L28.81 6.33Z"></path></svg>