<svg height="16.296875" width="35.5263671875" xmlns="http://www.w3.org/2000/svg" ><path d="M7.68 8.37L7.68 8.37L7.68 13.00L6.43 13.00L6.43 8.42Q6.43 7.33 6.00 6.79Q5.58 6.25 4.73 6.25L4.73 6.25Q3.71 6.25 3.12 6.90Q2.54 7.55 2.54 8.67L2.54 8.67L2.54 13.00L1.27 13.00L1.27 2.36L2.54 2.36L2.54 6.53Q2.99 5.84 3.60 5.50Q4.21 5.15 5.01 5.15L5.01 5.15Q6.33 5.15 7.01 5.97Q7.68 6.79 7.68 8.37ZM13.87 5.34L16.74 13.00L15.41 13.00L14.71 11.12L11.32 11.12L10.62 13.00L9.29 13.00L12.16 5.34L13.87 5.34ZM13.02 6.57L11.70 10.10L14.33 10.10L13.02 6.57ZM19.49 13.00L19.48 7.54L19.91 7.54Q21.23 7.54 21.81 6.76L21.81 6.76Q22.21 6.24 22.21 5.57L22.21 5.57Q22.20 4.66 21.81 4.22L21.81 4.22Q21.14 3.44 19.91 3.44L19.91 3.44Q19.37 3.44 18.83 3.59L18.83 3.59Q18.29 3.73 17.76 4.03L17.76 4.03L17.76 2.85Q18.28 2.61 18.83 2.50L18.83 2.50Q19.39 2.37 19.97 2.37L19.97 2.37Q21.85 2.37 22.79 3.45L22.79 3.45Q23.54 4.30 23.54 5.57L23.54 5.57Q23.54 6.73 22.80 7.52L22.80 7.52Q22.03 8.33 20.87 8.54L20.87 8.54L20.87 13.00L19.49 13.00ZM25.27 5.58L25.27 2.72L28.76 2.72L28.76 3.37L26.09 3.37L26.09 4.76Q26.28 4.70 26.48 4.68L26.48 4.68Q26.67 4.65 26.86 4.65L26.86 4.65Q27.96 4.65 28.60 5.17L28.60 5.17Q29.24 5.69 29.24 6.59L29.24 6.59Q29.24 7.51 28.58 8.03L28.58 8.03Q27.92 8.53 26.72 8.53L26.72 8.53Q26.31 8.53 25.88 8.47Q25.45 8.41 25.00 8.29L25.00 8.29L25.00 7.51Q25.39 7.70 25.81 7.79L25.81 7.79Q26.24 7.88 26.71 7.88L26.71 7.88Q27.47 7.88 27.91 7.53Q28.36 7.18 28.36 6.59Q28.36 6.00 27.91 5.65Q27.47 5.30 26.71 5.30L26.71 5.30Q26.35 5.30 26.00 5.37Q25.64 5.43 25.27 5.58L25.27 5.58ZM30.88 5.58L30.88 2.72L34.37 2.72L34.37 3.37L31.70 3.37L31.70 4.76Q31.89 4.70 32.09 4.68L32.09 4.68Q32.28 4.65 32.47 4.65L32.47 4.65Q33.57 4.65 34.21 5.17L34.21 5.17Q34.86 5.69 34.86 6.59L34.86 6.59Q34.86 7.51 34.19 8.03L34.19 8.03Q33.54 8.53 32.33 8.53L32.33 8.53Q31.92 8.53 31.49 8.47Q31.06 8.41 30.61 8.29L30.61 8.29L30.61 7.51Q31.00 7.70 31.42 7.79L31.42 7.79Q31.85 7.88 32.32 7.88L32.32 7.88Q33.08 7.88 33.52 7.53Q33.97 7.18 33.97 6.59Q33.97 6.00 33.52 5.65Q33.08 5.30 32.32 5.30L32.32 5.30Q31.96 5.30 31.61 5.37Q31.25 5.43 30.88 5.58L30.88 5.58Z"></path></svg>