<svg height="16.296875" width="27.7880859375" xmlns="http://www.w3.org/2000/svg" ><path d="M7.68 8.37L7.68 8.37L7.68 13.00L6.43 13.00L6.43 8.42Q6.43 7.33 6.00 6.79Q5.58 6.25 4.73 6.25L4.73 6.25Q3.71 6.25 3.12 6.90Q2.54 7.55 2.54 8.67L2.54 8.67L2.54 13.00L1.27 13.00L1.27 2.36L2.54 2.36L2.54 6.53Q2.99 5.84 3.60 5.50Q4.21 5.15 5.01 5.15L5.01 5.15Q6.33 5.15 7.01 5.97Q7.68 6.79 7.68 8.37ZM9.74 6.81L9.74 5.65Q10.27 5.40 10.83 5.28Q11.40 5.15 12.03 5.15L12.03 5.15Q13.76 5.15 14.78 6.24Q15.80 7.33 15.80 9.17L15.80 9.17Q15.80 11.05 14.77 12.12Q13.74 13.19 11.95 13.19L11.95 13.19Q11.37 13.19 10.81 13.07Q10.26 12.95 9.74 12.71L9.74 12.71L9.74 11.54Q10.27 11.83 10.81 11.98Q11.35 12.13 11.89 12.13L11.89 12.13Q13.12 12.13 13.79 11.35Q14.47 10.58 14.47 9.17L14.47 9.17Q14.47 7.77 13.79 7.00Q13.12 6.22 11.89 6.22L11.89 6.22Q11.35 6.22 10.81 6.37Q10.27 6.51 9.74 6.81L9.74 6.81ZM17.53 5.58L17.53 2.72L21.02 2.72L21.02 3.37L18.35 3.37L18.35 4.76Q18.54 4.70 18.74 4.68L18.74 4.68Q18.93 4.65 19.12 4.65L19.12 4.65Q20.22 4.65 20.86 5.17L20.86 5.17Q21.51 5.69 21.51 6.59L21.51 6.59Q21.51 7.51 20.84 8.03L20.84 8.03Q20.19 8.53 18.98 8.53L18.98 8.53Q18.57 8.53 18.14 8.47Q17.71 8.41 17.26 8.29L17.26 8.29L17.26 7.51Q17.65 7.70 18.07 7.79L18.07 7.79Q18.50 7.88 18.97 7.88L18.97 7.88Q19.73 7.88 20.17 7.53Q20.62 7.18 20.62 6.59Q20.62 6.00 20.17 5.65Q19.73 5.30 18.97 5.30L18.97 5.30Q18.61 5.30 18.26 5.37Q17.90 5.43 17.53 5.58L17.53 5.58ZM25.76 5.34L25.76 5.34Q26.39 5.46 26.73 5.83Q27.08 6.21 27.08 6.77L27.08 6.77Q27.08 7.62 26.43 8.07Q25.78 8.53 24.57 8.53L24.57 8.53Q24.18 8.53 23.75 8.46Q23.32 8.39 22.85 8.25L22.85 8.25L22.85 7.42Q23.20 7.61 23.61 7.70Q24.01 7.79 24.47 7.79L24.47 7.79Q25.22 7.79 25.63 7.52Q26.04 7.25 26.04 6.77L26.04 6.77Q26.04 6.26 25.66 6.00Q25.28 5.74 24.54 5.74L24.54 5.74L23.95 5.74L23.95 5.00L24.60 5.00Q25.24 5.00 25.57 4.79Q25.90 4.57 25.90 4.16L25.90 4.16Q25.90 3.77 25.56 3.56Q25.22 3.35 24.57 3.35L24.57 3.35Q24.29 3.35 23.95 3.41Q23.60 3.47 23.04 3.63L23.04 3.63L23.04 2.84Q23.54 2.73 23.98 2.67Q24.42 2.60 24.79 2.60L24.79 2.60Q25.78 2.60 26.36 3.01Q26.93 3.41 26.93 4.09L26.93 4.09Q26.93 4.56 26.63 4.89Q26.32 5.22 25.76 5.34Z"></path></svg>