<svg height="16.296875" width="33.400390625" xmlns="http://www.w3.org/2000/svg" ><path d="M7.68 8.37L7.68 8.37L7.68 13.00L6.43 13.00L6.43 8.42Q6.43 7.33 6.00 6.79Q5.58 6.25 4.73 6.25L4.73 6.25Q3.71 6.25 3.12 6.90Q2.54 7.55 2.54 8.67L2.54 8.67L2.54 13.00L1.27 13.00L1.27 2.36L2.54 2.36L2.54 6.53Q2.99 5.84 3.60 5.50Q4.21 5.15 5.01 5.15L5.01 5.15Q6.33 5.15 7.01 5.97Q7.68 6.79 7.68 8.37ZM9.74 6.81L9.74 5.65Q10.27 5.40 10.83 5.28Q11.40 5.15 12.03 5.15L12.03 5.15Q13.76 5.15 14.78 6.24Q15.80 7.33 15.80 9.17L15.80 9.17Q15.80 11.05 14.77 12.12Q13.74 13.19 11.95 13.19L11.95 13.19Q11.37 13.19 10.81 13.07Q10.26 12.95 9.74 12.71L9.74 12.71L9.74 11.54Q10.27 11.83 10.81 11.98Q11.35 12.13 11.89 12.13L11.89 12.13Q13.12 12.13 13.79 11.35Q14.47 10.58 14.47 9.17L14.47 9.17Q14.47 7.77 13.79 7.00Q13.12 6.22 11.89 6.22L11.89 6.22Q11.35 6.22 10.81 6.37Q10.27 6.51 9.74 6.81L9.74 6.81ZM20.15 5.34L20.15 5.34Q20.77 5.46 21.12 5.83Q21.46 6.21 21.46 6.77L21.46 6.77Q21.46 7.62 20.82 8.07Q20.17 8.53 18.96 8.53L18.96 8.53Q18.57 8.53 18.14 8.46Q17.71 8.39 17.23 8.25L17.23 8.25L17.23 7.42Q17.59 7.61 18.00 7.70Q18.40 7.79 18.86 7.79L18.86 7.79Q19.61 7.79 20.02 7.52Q20.43 7.25 20.43 6.77L20.43 6.77Q20.43 6.26 20.05 6.00Q19.67 5.74 18.93 5.74L18.93 5.74L18.34 5.74L18.34 5.00L18.98 5.00Q19.63 5.00 19.96 4.79Q20.29 4.57 20.29 4.16L20.29 4.16Q20.29 3.77 19.95 3.56Q19.61 3.35 18.96 3.35L18.96 3.35Q18.68 3.35 18.33 3.41Q17.99 3.47 17.43 3.63L17.43 3.63L17.43 2.84Q17.93 2.73 18.37 2.67Q18.81 2.60 19.18 2.60L19.18 2.60Q20.17 2.60 20.74 3.01Q21.32 3.41 21.32 4.09L21.32 4.09Q21.32 4.56 21.01 4.89Q20.71 5.22 20.15 5.34ZM25.76 5.34L25.76 5.34Q26.39 5.46 26.73 5.83Q27.08 6.21 27.08 6.77L27.08 6.77Q27.08 7.62 26.43 8.07Q25.78 8.53 24.57 8.53L24.57 8.53Q24.18 8.53 23.75 8.46Q23.32 8.39 22.85 8.25L22.85 8.25L22.85 7.42Q23.20 7.61 23.61 7.70Q24.01 7.79 24.47 7.79L24.47 7.79Q25.22 7.79 25.63 7.52Q26.04 7.25 26.04 6.77L26.04 6.77Q26.04 6.26 25.66 6.00Q25.28 5.74 24.54 5.74L24.54 5.74L23.95 5.74L23.95 5.00L24.60 5.00Q25.24 5.00 25.57 4.79Q25.90 4.57 25.90 4.16L25.90 4.16Q25.90 3.77 25.56 3.56Q25.22 3.35 24.57 3.35L24.57 3.35Q24.29 3.35 23.95 3.41Q23.60 3.47 23.04 3.63L23.04 3.63L23.04 2.84Q23.54 2.73 23.98 2.67Q24.42 2.60 24.79 2.60L24.79 2.60Q25.78 2.60 26.36 3.01Q26.93 3.41 26.93 4.09L26.93 4.09Q26.93 4.56 26.63 4.89Q26.32 5.22 25.76 5.34ZM31.05 6.41L31.05 3.55L28.94 6.41L31.05 6.41ZM28.22 6.33L30.90 2.72L32.03 2.72L32.03 6.41L32.96 6.41L32.96 7.16L32.03 7.16L32.03 8.43L31.05 8.43L31.05 7.16L28.22 7.16L28.22 6.33Z"></path></svg>