<svg height="16.296875" width="26.9677734375" xmlns="http://www.w3.org/2000/svg" ><path d="M7.68 8.37L7.68 8.37L7.68 13.00L6.43 13.00L6.43 8.42Q6.43 7.33 6.00 6.79Q5.58 6.25 4.73 6.25L4.73 6.25Q3.71 6.25 3.12 6.90Q2.54 7.55 2.54 8.67L2.54 8.67L2.54 13.00L1.27 13.00L1.27 2.36L2.54 2.36L2.54 6.53Q2.99 5.84 3.60 5.50Q4.21 5.15 5.01 5.15L5.01 5.15Q6.33 5.15 7.01 5.97Q7.68 6.79 7.68 8.37ZM10.14 13.00L10.14 5.34L14.98 5.34L14.98 6.35L11.42 6.35L11.42 8.41L14.83 8.41L14.83 9.42L11.42 9.42L11.42 11.99L15.07 11.99L15.07 13.00L10.14 13.00ZM16.71 5.58L16.71 2.72L20.20 2.72L20.20 3.37L17.53 3.37L17.53 4.76Q17.72 4.70 17.92 4.68L17.92 4.68Q18.11 4.65 18.30 4.65L18.30 4.65Q19.40 4.65 20.04 5.17L20.04 5.17Q20.69 5.69 20.69 6.59L20.69 6.59Q20.69 7.51 20.02 8.03L20.02 8.03Q19.37 8.53 18.16 8.53L18.16 8.53Q17.75 8.53 17.32 8.47Q16.89 8.41 16.44 8.29L16.44 8.29L16.44 7.51Q16.83 7.70 17.25 7.79L17.25 7.79Q17.68 7.88 18.15 7.88L18.15 7.88Q18.91 7.88 19.35 7.53Q19.80 7.18 19.80 6.59Q19.80 6.00 19.35 5.65Q18.91 5.30 18.15 5.30L18.15 5.30Q17.79 5.30 17.44 5.37Q17.08 5.43 16.71 5.58L16.71 5.58ZM24.94 5.34L24.94 5.34Q25.57 5.46 25.91 5.83Q26.26 6.21 26.26 6.77L26.26 6.77Q26.26 7.62 25.61 8.07Q24.96 8.53 23.75 8.53L23.75 8.53Q23.36 8.53 22.93 8.46Q22.50 8.39 22.03 8.25L22.03 8.25L22.03 7.42Q22.38 7.61 22.79 7.70Q23.19 7.79 23.65 7.79L23.65 7.79Q24.40 7.79 24.81 7.52Q25.22 7.25 25.22 6.77L25.22 6.77Q25.22 6.26 24.84 6.00Q24.46 5.74 23.72 5.74L23.72 5.74L23.13 5.74L23.13 5.00L23.78 5.00Q24.42 5.00 24.75 4.79Q25.08 4.57 25.08 4.16L25.08 4.16Q25.08 3.77 24.74 3.56Q24.40 3.35 23.75 3.35L23.75 3.35Q23.47 3.35 23.13 3.41Q22.78 3.47 22.22 3.63L22.22 3.63L22.22 2.84Q22.72 2.73 23.16 2.67Q23.60 2.60 23.97 2.60L23.97 2.60Q24.96 2.60 25.54 3.01Q26.11 3.41 26.11 4.09L26.11 4.09Q26.11 4.56 25.81 4.89Q25.50 5.22 24.94 5.34Z"></path></svg>