<svg height="16.296875" width="28.4375" xmlns="http://www.w3.org/2000/svg" ><path d="M7.68 8.37L7.68 8.37L7.68 13.00L6.43 13.00L6.43 8.42Q6.43 7.33 6.00 6.79Q5.58 6.25 4.73 6.25L4.73 6.25Q3.71 6.25 3.12 6.90Q2.54 7.55 2.54 8.67L2.54 8.67L2.54 13.00L1.27 13.00L1.27 2.36L2.54 2.36L2.54 6.53Q2.99 5.84 3.60 5.50Q4.21 5.15 5.01 5.15L5.01 5.15Q6.33 5.15 7.01 5.97Q7.68 6.79 7.68 8.37ZM11.01 5.34L13.04 8.07L15.07 5.34L16.56 5.34L13.84 8.99Q14.32 9.66 14.62 10.18L14.62 10.18Q15.09 11.00 15.09 11.42L15.09 11.42Q15.09 12.31 14.58 12.75Q14.07 13.19 13.04 13.19L13.04 13.19Q12.02 13.19 11.50 12.75Q10.99 12.31 10.99 11.42L10.99 11.42Q10.99 11.00 11.46 10.18L11.46 10.18Q11.76 9.66 12.25 8.99L12.25 8.99L9.53 5.34L11.01 5.34ZM13.04 12.13L13.04 12.13Q13.50 12.13 13.71 11.94L13.71 11.94Q13.90 11.78 13.90 11.47L13.90 11.47Q13.90 11.25 13.64 10.81L13.64 10.81Q13.43 10.47 13.04 9.99L13.04 9.99Q12.66 10.47 12.45 10.81L12.45 10.81Q12.18 11.25 12.18 11.47L12.18 11.47Q12.18 11.78 12.37 11.94L12.37 11.94Q12.58 12.13 13.04 12.13ZM18.18 5.58L18.18 2.72L21.67 2.72L21.67 3.37L19.00 3.37L19.00 4.76Q19.19 4.70 19.39 4.68L19.39 4.68Q19.58 4.65 19.77 4.65L19.77 4.65Q20.87 4.65 21.51 5.17L21.51 5.17Q22.16 5.69 22.16 6.59L22.16 6.59Q22.16 7.51 21.49 8.03L21.49 8.03Q20.84 8.53 19.63 8.53L19.63 8.53Q19.22 8.53 18.79 8.47Q18.36 8.41 17.91 8.29L17.91 8.29L17.91 7.51Q18.30 7.70 18.72 7.79L18.72 7.79Q19.15 7.88 19.62 7.88L19.62 7.88Q20.38 7.88 20.82 7.53Q21.27 7.18 21.27 6.59Q21.27 6.00 20.82 5.65Q20.38 5.30 19.62 5.30L19.62 5.30Q19.26 5.30 18.91 5.37Q18.55 5.43 18.18 5.58L18.18 5.58ZM26.41 5.34L26.41 5.34Q27.04 5.46 27.38 5.83Q27.73 6.21 27.73 6.77L27.73 6.77Q27.73 7.62 27.08 8.07Q26.43 8.53 25.22 8.53L25.22 8.53Q24.83 8.53 24.40 8.46Q23.97 8.39 23.50 8.25L23.50 8.25L23.50 7.42Q23.85 7.61 24.26 7.70Q24.66 7.79 25.12 7.79L25.12 7.79Q25.87 7.79 26.28 7.52Q26.69 7.25 26.69 6.77L26.69 6.77Q26.69 6.26 26.31 6.00Q25.93 5.74 25.19 5.74L25.19 5.74L24.60 5.74L24.60 5.00L25.25 5.00Q25.89 5.00 26.22 4.79Q26.55 4.57 26.55 4.16L26.55 4.16Q26.55 3.77 26.21 3.56Q25.87 3.35 25.22 3.35L25.22 3.35Q24.94 3.35 24.60 3.41Q24.25 3.47 23.69 3.63L23.69 3.63L23.69 2.84Q24.19 2.73 24.63 2.67Q25.07 2.60 25.44 2.60L25.44 2.60Q26.43 2.60 27.01 3.01Q27.58 3.41 27.58 4.09L27.58 4.09Q27.58 4.56 27.28 4.89Q26.97 5.22 26.41 5.34Z"></path></svg>