<svg height="16.296875" width="34.0498046875" xmlns="http://www.w3.org/2000/svg" ><path d="M7.68 8.37L7.68 8.37L7.68 13.00L6.43 13.00L6.43 8.42Q6.43 7.33 6.00 6.79Q5.58 6.25 4.73 6.25L4.73 6.25Q3.71 6.25 3.12 6.90Q2.54 7.55 2.54 8.67L2.54 8.67L2.54 13.00L1.27 13.00L1.27 2.36L2.54 2.36L2.54 6.53Q2.99 5.84 3.60 5.50Q4.21 5.15 5.01 5.15L5.01 5.15Q6.33 5.15 7.01 5.97Q7.68 6.79 7.68 8.37ZM11.01 5.34L13.04 8.07L15.07 5.34L16.56 5.34L13.84 8.99Q14.32 9.66 14.62 10.18L14.62 10.18Q15.09 11.00 15.09 11.42L15.09 11.42Q15.09 12.31 14.58 12.75Q14.07 13.19 13.04 13.19L13.04 13.19Q12.02 13.19 11.50 12.75Q10.99 12.31 10.99 11.42L10.99 11.42Q10.99 11.00 11.46 10.18L11.46 10.18Q11.76 9.66 12.25 8.99L12.25 8.99L9.53 5.34L11.01 5.34ZM13.04 12.13L13.04 12.13Q13.50 12.13 13.71 11.94L13.71 11.94Q13.90 11.78 13.90 11.47L13.90 11.47Q13.90 11.25 13.64 10.81L13.64 10.81Q13.43 10.47 13.04 9.99L13.04 9.99Q12.66 10.47 12.45 10.81L12.45 10.81Q12.18 11.25 12.18 11.47L12.18 11.47Q12.18 11.78 12.37 11.94L12.37 11.94Q12.58 12.13 13.04 12.13ZM20.79 5.34L20.79 5.34Q21.42 5.46 21.77 5.83Q22.11 6.21 22.11 6.77L22.11 6.77Q22.11 7.62 21.46 8.07Q20.82 8.53 19.61 8.53L19.61 8.53Q19.22 8.53 18.79 8.46Q18.36 8.39 17.88 8.25L17.88 8.25L17.88 7.42Q18.24 7.61 18.65 7.70Q19.05 7.79 19.51 7.79L19.51 7.79Q20.25 7.79 20.67 7.52Q21.08 7.25 21.08 6.77L21.08 6.77Q21.08 6.26 20.70 6.00Q20.32 5.74 19.58 5.74L19.58 5.74L18.99 5.74L18.99 5.00L19.63 5.00Q20.28 5.00 20.61 4.79Q20.94 4.57 20.94 4.16L20.94 4.16Q20.94 3.77 20.60 3.56Q20.25 3.35 19.61 3.35L19.61 3.35Q19.33 3.35 18.98 3.41Q18.63 3.47 18.08 3.63L18.08 3.63L18.08 2.84Q18.58 2.73 19.02 2.67Q19.46 2.60 19.83 2.60L19.83 2.60Q20.82 2.60 21.39 3.01Q21.97 3.41 21.97 4.09L21.97 4.09Q21.97 4.56 21.66 4.89Q21.36 5.22 20.79 5.34ZM26.41 5.34L26.41 5.34Q27.04 5.46 27.38 5.83Q27.73 6.21 27.73 6.77L27.73 6.77Q27.73 7.62 27.08 8.07Q26.43 8.53 25.22 8.53L25.22 8.53Q24.83 8.53 24.40 8.46Q23.97 8.39 23.50 8.25L23.50 8.25L23.50 7.42Q23.85 7.61 24.26 7.70Q24.66 7.79 25.12 7.79L25.12 7.79Q25.87 7.79 26.28 7.52Q26.69 7.25 26.69 6.77L26.69 6.77Q26.69 6.26 26.31 6.00Q25.93 5.74 25.19 5.74L25.19 5.74L24.60 5.74L24.60 5.00L25.25 5.00Q25.89 5.00 26.22 4.79Q26.55 4.57 26.55 4.16L26.55 4.16Q26.55 3.77 26.21 3.56Q25.87 3.35 25.22 3.35L25.22 3.35Q24.94 3.35 24.60 3.41Q24.25 3.47 23.69 3.63L23.69 3.63L23.69 2.84Q24.19 2.73 24.63 2.67Q25.07 2.60 25.44 2.60L25.44 2.60Q26.43 2.60 27.01 3.01Q27.58 3.41 27.58 4.09L27.58 4.09Q27.58 4.56 27.28 4.89Q26.97 5.22 26.41 5.34ZM31.70 6.41L31.70 3.55L29.59 6.41L31.70 6.41ZM28.87 6.33L31.55 2.72L32.68 2.72L32.68 6.41L33.61 6.41L33.61 7.16L32.68 7.16L32.68 8.43L31.70 8.43L31.70 7.16L28.87 7.16L28.87 6.33Z"></path></svg>