<svg height="16.296875" width="28.6630859375" xmlns="http://www.w3.org/2000/svg" ><path d="M7.68 8.37L7.68 8.37L7.68 13.00L6.43 13.00L6.43 8.42Q6.43 7.33 6.00 6.79Q5.58 6.25 4.73 6.25L4.73 6.25Q3.71 6.25 3.12 6.90Q2.54 7.55 2.54 8.67L2.54 8.67L2.54 13.00L1.27 13.00L1.27 2.36L2.54 2.36L2.54 6.53Q2.99 5.84 3.60 5.50Q4.21 5.15 5.01 5.15L5.01 5.15Q6.33 5.15 7.01 5.97Q7.68 6.79 7.68 8.37ZM15.06 7.52L15.06 7.52L11.73 11.57Q12.01 11.85 12.36 11.99Q12.71 12.13 13.16 12.13L13.16 12.13Q14.16 12.13 14.75 11.33Q15.34 10.54 15.34 9.17L15.34 9.17Q15.34 8.63 15.27 8.23Q15.20 7.83 15.06 7.52ZM11.24 10.83L14.57 6.78Q14.29 6.50 13.94 6.36Q13.58 6.22 13.16 6.22L13.16 6.22Q12.13 6.22 11.55 7.02Q10.97 7.83 10.97 9.27L10.97 9.27Q10.97 9.76 11.04 10.14Q11.10 10.51 11.24 10.83L11.24 10.83ZM9.37 13.10L10.38 11.86Q10.01 11.33 9.83 10.66Q9.65 9.99 9.65 9.17L9.65 9.17Q9.65 7.29 10.58 6.22Q11.51 5.15 13.16 5.15L13.16 5.15Q13.79 5.15 14.34 5.33Q14.88 5.50 15.34 5.86L15.34 5.86L16.29 4.71L16.94 5.25L15.94 6.47Q16.30 7 16.49 7.68Q16.67 8.35 16.67 9.17L16.67 9.17Q16.67 11.05 15.74 12.12Q14.80 13.19 13.16 13.19L13.16 13.19Q12.50 13.19 11.95 13.02Q11.40 12.84 10.97 12.49L10.97 12.49L10.02 13.64L9.37 13.10ZM18.41 5.58L18.41 2.72L21.90 2.72L21.90 3.37L19.22 3.37L19.22 4.76Q19.41 4.70 19.61 4.68L19.61 4.68Q19.80 4.65 20.00 4.65L20.00 4.65Q21.10 4.65 21.74 5.17L21.74 5.17Q22.38 5.69 22.38 6.59L22.38 6.59Q22.38 7.51 21.72 8.03L21.72 8.03Q21.06 8.53 19.86 8.53L19.86 8.53Q19.45 8.53 19.02 8.47Q18.59 8.41 18.14 8.29L18.14 8.29L18.14 7.51Q18.53 7.70 18.95 7.79L18.95 7.79Q19.37 7.88 19.84 7.88L19.84 7.88Q20.60 7.88 21.05 7.53Q21.49 7.18 21.49 6.59Q21.49 6.00 21.05 5.65Q20.60 5.30 19.84 5.30L19.84 5.30Q19.49 5.30 19.13 5.37Q18.78 5.43 18.41 5.58L18.41 5.58ZM26.63 5.34L26.63 5.34Q27.26 5.46 27.61 5.83Q27.95 6.21 27.95 6.77L27.95 6.77Q27.95 7.62 27.30 8.07Q26.65 8.53 25.44 8.53L25.44 8.53Q25.05 8.53 24.63 8.46Q24.20 8.39 23.72 8.25L23.72 8.25L23.72 7.42Q24.08 7.61 24.48 7.70Q24.89 7.79 25.35 7.79L25.35 7.79Q26.09 7.79 26.50 7.52Q26.91 7.25 26.91 6.77L26.91 6.77Q26.91 6.26 26.53 6.00Q26.15 5.74 25.42 5.74L25.42 5.74L24.83 5.74L24.83 5.00L25.47 5.00Q26.11 5.00 26.44 4.79Q26.78 4.57 26.78 4.16L26.78 4.16Q26.78 3.77 26.43 3.56Q26.09 3.35 25.44 3.35L25.44 3.35Q25.17 3.35 24.82 3.41Q24.47 3.47 23.92 3.63L23.92 3.63L23.92 2.84Q24.42 2.73 24.86 2.67Q25.29 2.60 25.67 2.60L25.67 2.60Q26.65 2.60 27.23 3.01Q27.81 3.41 27.81 4.09L27.81 4.09Q27.81 4.56 27.50 4.89Q27.19 5.22 26.63 5.34Z"></path></svg>