<svg height="16.296875" width="43.1484375" xmlns="http://www.w3.org/2000/svg" ><path d="M7.68 8.37L7.68 8.37L7.68 13.00L6.43 13.00L6.43 8.42Q6.43 7.33 6.00 6.79Q5.58 6.25 4.73 6.25L4.73 6.25Q3.71 6.25 3.12 6.90Q2.54 7.55 2.54 8.67L2.54 8.67L2.54 13.00L1.27 13.00L1.27 2.36L2.54 2.36L2.54 6.53Q2.99 5.84 3.60 5.50Q4.21 5.15 5.01 5.15L5.01 5.15Q6.33 5.15 7.01 5.97Q7.68 6.79 7.68 8.37ZM13.16 6.22L13.16 6.22Q12.15 6.22 11.56 7.01Q10.97 7.80 10.97 9.17L10.97 9.17Q10.97 10.55 11.56 11.34Q12.14 12.13 13.16 12.13L13.16 12.13Q14.16 12.13 14.75 11.33Q15.34 10.54 15.34 9.17L15.34 9.17Q15.34 7.81 14.75 7.02Q14.16 6.22 13.16 6.22ZM13.16 5.15L13.16 5.15Q14.80 5.15 15.74 6.22Q16.67 7.29 16.67 9.17L16.67 9.17Q16.67 11.05 15.74 12.12Q14.80 13.19 13.16 13.19L13.16 13.19Q11.51 13.19 10.58 12.12Q9.65 11.05 9.65 9.17L9.65 9.17Q9.65 7.29 10.58 6.22Q11.51 5.15 13.16 5.15ZM25.12 8.37L25.12 8.37L25.12 13.13Q25.12 14.59 24.56 15.25L24.56 15.25Q24.01 15.91 22.77 15.91L22.77 15.91L21.03 15.91L21.03 14.84L22.63 14.84Q23.34 14.84 23.60 14.51L23.60 14.51Q23.86 14.18 23.86 13.13L23.86 13.13L23.86 8.42Q23.86 7.33 23.44 6.79Q23.02 6.25 22.17 6.25L22.17 6.25Q21.15 6.25 20.56 6.90Q19.97 7.55 19.97 8.67L19.97 8.67L19.97 13.00L18.71 13.00L18.71 5.34L19.97 5.34L19.97 6.53Q20.43 5.84 21.03 5.50L21.03 5.50Q21.65 5.15 22.45 5.15L22.45 5.15Q23.77 5.15 24.45 5.97L24.45 5.97Q25.12 6.79 25.12 8.37ZM29.89 5.34L29.89 5.34Q30.52 5.46 30.87 5.83Q31.21 6.21 31.21 6.77L31.21 6.77Q31.21 7.62 30.56 8.07Q29.91 8.53 28.70 8.53L28.70 8.53Q28.31 8.53 27.89 8.46Q27.46 8.39 26.98 8.25L26.98 8.25L26.98 7.42Q27.34 7.61 27.74 7.70Q28.15 7.79 28.61 7.79L28.61 7.79Q29.35 7.79 29.76 7.52Q30.17 7.25 30.17 6.77L30.17 6.77Q30.17 6.26 29.79 6.00Q29.42 5.74 28.68 5.74L28.68 5.74L28.09 5.74L28.09 5.00L28.73 5.00Q29.37 5.00 29.71 4.79Q30.04 4.57 30.04 4.16L30.04 4.16Q30.04 3.77 29.70 3.56Q29.35 3.35 28.70 3.35L28.70 3.35Q28.43 3.35 28.08 3.41Q27.73 3.47 27.18 3.63L27.18 3.63L27.18 2.84Q27.68 2.73 28.12 2.67Q28.55 2.60 28.93 2.60L28.93 2.60Q29.91 2.60 30.49 3.01Q31.07 3.41 31.07 4.09L31.07 4.09Q31.07 4.56 30.76 4.89Q30.45 5.22 29.89 5.34ZM35.51 5.34L35.51 5.34Q36.13 5.46 36.48 5.83Q36.83 6.21 36.83 6.77L36.83 6.77Q36.83 7.62 36.18 8.07Q35.53 8.53 34.32 8.53L34.32 8.53Q33.93 8.53 33.50 8.46Q33.07 8.39 32.59 8.25L32.59 8.25L32.59 7.42Q32.95 7.61 33.36 7.70Q33.76 7.79 34.22 7.79L34.22 7.79Q34.97 7.79 35.38 7.52Q35.79 7.25 35.79 6.77L35.79 6.77Q35.79 6.26 35.41 6.00Q35.03 5.74 34.29 5.74L34.29 5.74L33.70 5.74L33.70 5.00L34.34 5.00Q34.99 5.00 35.32 4.79Q35.65 4.57 35.65 4.16L35.65 4.16Q35.65 3.77 35.31 3.56Q34.97 3.35 34.32 3.35L34.32 3.35Q34.04 3.35 33.69 3.41Q33.35 3.47 32.79 3.63L32.79 3.63L32.79 2.84Q33.29 2.73 33.73 2.67Q34.17 2.60 34.54 2.60L34.54 2.60Q35.53 2.60 36.10 3.01Q36.68 3.41 36.68 4.09L36.68 4.09Q36.68 4.56 36.37 4.89Q36.07 5.22 35.51 5.34ZM40.80 6.41L40.80 3.55L38.68 6.41L40.80 6.41ZM37.97 6.33L40.65 2.72L41.78 2.72L41.78 6.41L42.70 6.41L42.70 7.16L41.78 7.16L41.78 8.43L40.80 8.43L40.80 7.16L37.97 7.16L37.97 6.33Z"></path></svg>