<svg height="16.296875" width="35.806640625" xmlns="http://www.w3.org/2000/svg" ><path d="M7.68 8.37L7.68 8.37L7.68 13.00L6.43 13.00L6.43 8.42Q6.43 7.33 6.00 6.79Q5.58 6.25 4.73 6.25L4.73 6.25Q3.71 6.25 3.12 6.90Q2.54 7.55 2.54 8.67L2.54 8.67L2.54 13.00L1.27 13.00L1.27 2.36L2.54 2.36L2.54 6.53Q2.99 5.84 3.60 5.50Q4.21 5.15 5.01 5.15L5.01 5.15Q6.33 5.15 7.01 5.97Q7.68 6.79 7.68 8.37ZM13.16 6.22L13.16 6.22Q12.15 6.22 11.56 7.01Q10.97 7.80 10.97 9.17L10.97 9.17Q10.97 10.55 11.56 11.34Q12.14 12.13 13.16 12.13L13.16 12.13Q14.16 12.13 14.75 11.33Q15.34 10.54 15.34 9.17L15.34 9.17Q15.34 7.81 14.75 7.02Q14.16 6.22 13.16 6.22ZM13.16 5.15L13.16 5.15Q14.80 5.15 15.74 6.22Q16.67 7.29 16.67 9.17L16.67 9.17Q16.67 11.05 15.74 12.12Q14.80 13.19 13.16 13.19L13.16 13.19Q11.51 13.19 10.58 12.12Q9.65 11.05 9.65 9.17L9.65 9.17Q9.65 7.29 10.58 6.22Q11.51 5.15 13.16 5.15ZM19.77 13.00L19.76 7.54L20.19 7.54Q21.51 7.54 22.09 6.76L22.09 6.76Q22.49 6.24 22.49 5.57L22.49 5.57Q22.48 4.66 22.09 4.22L22.09 4.22Q21.42 3.44 20.19 3.44L20.19 3.44Q19.65 3.44 19.11 3.59L19.11 3.59Q18.57 3.73 18.04 4.03L18.04 4.03L18.04 2.85Q18.56 2.61 19.11 2.50L19.11 2.50Q19.67 2.37 20.25 2.37L20.25 2.37Q22.13 2.37 23.07 3.45L23.07 3.45Q23.82 4.30 23.82 5.57L23.82 5.57Q23.82 6.73 23.08 7.52L23.08 7.52Q22.31 8.33 21.15 8.54L21.15 8.54L21.15 13.00L19.77 13.00ZM25.55 5.58L25.55 2.72L29.04 2.72L29.04 3.37L26.37 3.37L26.37 4.76Q26.56 4.70 26.76 4.68L26.76 4.68Q26.95 4.65 27.14 4.65L27.14 4.65Q28.24 4.65 28.88 5.17L28.88 5.17Q29.52 5.69 29.52 6.59L29.52 6.59Q29.52 7.51 28.86 8.03L28.86 8.03Q28.21 8.53 27.00 8.53L27.00 8.53Q26.59 8.53 26.16 8.47Q25.73 8.41 25.28 8.29L25.28 8.29L25.28 7.51Q25.67 7.70 26.09 7.79L26.09 7.79Q26.52 7.88 26.99 7.88L26.99 7.88Q27.75 7.88 28.19 7.53Q28.64 7.18 28.64 6.59Q28.64 6.00 28.19 5.65Q27.75 5.30 26.99 5.30L26.99 5.30Q26.63 5.30 26.28 5.37Q25.92 5.43 25.55 5.58L25.55 5.58ZM31.17 5.58L31.17 2.72L34.65 2.72L34.65 3.37L31.98 3.37L31.98 4.76Q32.17 4.70 32.37 4.68L32.37 4.68Q32.56 4.65 32.75 4.65L32.75 4.65Q33.85 4.65 34.49 5.17L34.49 5.17Q35.14 5.69 35.14 6.59L35.14 6.59Q35.14 7.51 34.47 8.03L34.47 8.03Q33.82 8.53 32.61 8.53L32.61 8.53Q32.20 8.53 31.77 8.47Q31.34 8.41 30.89 8.29L30.89 8.29L30.89 7.51Q31.28 7.70 31.71 7.79L31.71 7.79Q32.13 7.88 32.60 7.88L32.60 7.88Q33.36 7.88 33.80 7.53Q34.25 7.18 34.25 6.59Q34.25 6.00 33.80 5.65Q33.36 5.30 32.60 5.30L32.60 5.30Q32.25 5.30 31.89 5.37Q31.53 5.43 31.17 5.58L31.17 5.58Z"></path></svg>