<svg height="16.296875" width="28.970703125" xmlns="http://www.w3.org/2000/svg" ><path d="M7.68 8.37L7.68 8.37L7.68 13.00L6.43 13.00L6.43 8.42Q6.43 7.33 6.00 6.79Q5.58 6.25 4.73 6.25L4.73 6.25Q3.71 6.25 3.12 6.90Q2.54 7.55 2.54 8.67L2.54 8.67L2.54 13.00L1.27 13.00L1.27 2.36L2.54 2.36L2.54 6.53Q2.99 5.84 3.60 5.50Q4.21 5.15 5.01 5.15L5.01 5.15Q6.33 5.15 7.01 5.97Q7.68 6.79 7.68 8.37ZM10.06 9.97L10.06 9.97L10.06 5.34L11.32 5.34L11.32 9.93Q11.32 11.01 11.74 11.56Q12.17 12.10 13.02 12.10L13.02 12.10Q14.03 12.10 14.63 11.45Q15.22 10.80 15.22 9.68L15.22 9.68L15.22 5.34L16.47 5.34L16.47 13.00L15.22 13.00L15.22 11.82Q14.76 12.52 14.15 12.85Q13.55 13.19 12.75 13.19L12.75 13.19Q11.43 13.19 10.75 12.37Q10.06 11.55 10.06 9.97ZM13.23 5.15L13.23 5.15ZM18.72 5.58L18.72 2.72L22.20 2.72L22.20 3.37L19.53 3.37L19.53 4.76Q19.72 4.70 19.92 4.68L19.92 4.68Q20.11 4.65 20.30 4.65L20.30 4.65Q21.40 4.65 22.05 5.17L22.05 5.17Q22.69 5.69 22.69 6.59L22.69 6.59Q22.69 7.51 22.03 8.03L22.03 8.03Q21.37 8.53 20.17 8.53L20.17 8.53Q19.76 8.53 19.33 8.47Q18.89 8.41 18.44 8.29L18.44 8.29L18.44 7.51Q18.83 7.70 19.26 7.79L19.26 7.79Q19.68 7.88 20.15 7.88L20.15 7.88Q20.91 7.88 21.36 7.53Q21.80 7.18 21.80 6.59Q21.80 6.00 21.36 5.65Q20.91 5.30 20.15 5.30L20.15 5.30Q19.80 5.30 19.44 5.37Q19.09 5.43 18.72 5.58L18.72 5.58ZM26.94 5.34L26.94 5.34Q27.57 5.46 27.91 5.83Q28.26 6.21 28.26 6.77L28.26 6.77Q28.26 7.62 27.61 8.07Q26.96 8.53 25.75 8.53L25.75 8.53Q25.36 8.53 24.93 8.46Q24.51 8.39 24.03 8.25L24.03 8.25L24.03 7.42Q24.38 7.61 24.79 7.70Q25.20 7.79 25.66 7.79L25.66 7.79Q26.40 7.79 26.81 7.52Q27.22 7.25 27.22 6.77L27.22 6.77Q27.22 6.26 26.84 6.00Q26.46 5.74 25.72 5.74L25.72 5.74L25.14 5.74L25.14 5.00L25.78 5.00Q26.42 5.00 26.75 4.79Q27.08 4.57 27.08 4.16L27.08 4.16Q27.08 3.77 26.74 3.56Q26.40 3.35 25.75 3.35L25.75 3.35Q25.48 3.35 25.13 3.41Q24.78 3.47 24.23 3.63L24.23 3.63L24.23 2.84Q24.73 2.73 25.16 2.67Q25.60 2.60 25.98 2.60L25.98 2.60Q26.96 2.60 27.54 3.01Q28.12 3.41 28.12 4.09L28.12 4.09Q28.12 4.56 27.81 4.89Q27.50 5.22 26.94 5.34Z"></path></svg>