<svg height="16.296875" width="34.5830078125" xmlns="http://www.w3.org/2000/svg" ><path d="M7.68 8.37L7.68 8.37L7.68 13.00L6.43 13.00L6.43 8.42Q6.43 7.33 6.00 6.79Q5.58 6.25 4.73 6.25L4.73 6.25Q3.71 6.25 3.12 6.90Q2.54 7.55 2.54 8.67L2.54 8.67L2.54 13.00L1.27 13.00L1.27 2.36L2.54 2.36L2.54 6.53Q2.99 5.84 3.60 5.50Q4.21 5.15 5.01 5.15L5.01 5.15Q6.33 5.15 7.01 5.97Q7.68 6.79 7.68 8.37ZM10.06 9.97L10.06 9.97L10.06 5.34L11.32 5.34L11.32 9.93Q11.32 11.01 11.74 11.56Q12.17 12.10 13.02 12.10L13.02 12.10Q14.03 12.10 14.63 11.45Q15.22 10.80 15.22 9.68L15.22 9.68L15.22 5.34L16.47 5.34L16.47 13.00L15.22 13.00L15.22 11.82Q14.76 12.52 14.15 12.85Q13.55 13.19 12.75 13.19L12.75 13.19Q11.43 13.19 10.75 12.37Q10.06 11.55 10.06 9.97ZM13.23 5.15L13.23 5.15ZM21.33 5.34L21.33 5.34Q21.96 5.46 22.30 5.83Q22.65 6.21 22.65 6.77L22.65 6.77Q22.65 7.62 22.00 8.07Q21.35 8.53 20.14 8.53L20.14 8.53Q19.75 8.53 19.32 8.46Q18.89 8.39 18.42 8.25L18.42 8.25L18.42 7.42Q18.77 7.61 19.18 7.70Q19.58 7.79 20.04 7.79L20.04 7.79Q20.79 7.79 21.20 7.52Q21.61 7.25 21.61 6.77L21.61 6.77Q21.61 6.26 21.23 6.00Q20.85 5.74 20.11 5.74L20.11 5.74L19.52 5.74L19.52 5.00L20.17 5.00Q20.81 5.00 21.14 4.79Q21.47 4.57 21.47 4.16L21.47 4.16Q21.47 3.77 21.13 3.56Q20.79 3.35 20.14 3.35L20.14 3.35Q19.87 3.35 19.52 3.41Q19.17 3.47 18.61 3.63L18.61 3.63L18.61 2.84Q19.11 2.73 19.55 2.67Q19.99 2.60 20.36 2.60L20.36 2.60Q21.35 2.60 21.93 3.01Q22.50 3.41 22.50 4.09L22.50 4.09Q22.50 4.56 22.20 4.89Q21.89 5.22 21.33 5.34ZM26.94 5.34L26.94 5.34Q27.57 5.46 27.91 5.83Q28.26 6.21 28.26 6.77L28.26 6.77Q28.26 7.62 27.61 8.07Q26.96 8.53 25.75 8.53L25.75 8.53Q25.36 8.53 24.93 8.46Q24.51 8.39 24.03 8.25L24.03 8.25L24.03 7.42Q24.38 7.61 24.79 7.70Q25.20 7.79 25.66 7.79L25.66 7.79Q26.40 7.79 26.81 7.52Q27.22 7.25 27.22 6.77L27.22 6.77Q27.22 6.26 26.84 6.00Q26.46 5.74 25.72 5.74L25.72 5.74L25.14 5.74L25.14 5.00L25.78 5.00Q26.42 5.00 26.75 4.79Q27.08 4.57 27.08 4.16L27.08 4.16Q27.08 3.77 26.74 3.56Q26.40 3.35 25.75 3.35L25.75 3.35Q25.48 3.35 25.13 3.41Q24.78 3.47 24.23 3.63L24.23 3.63L24.23 2.84Q24.73 2.73 25.16 2.67Q25.60 2.60 25.98 2.60L25.98 2.60Q26.96 2.60 27.54 3.01Q28.12 3.41 28.12 4.09L28.12 4.09Q28.12 4.56 27.81 4.89Q27.50 5.22 26.94 5.34ZM32.23 6.41L32.23 3.55L30.12 6.41L32.23 6.41ZM29.40 6.33L32.08 2.72L33.22 2.72L33.22 6.41L34.14 6.41L34.14 7.16L33.22 7.16L33.22 8.43L32.23 8.43L32.23 7.16L29.40 7.16L29.40 6.33Z"></path></svg>