<svg height="16.296875" width="37.255859375" xmlns="http://www.w3.org/2000/svg" ><path d="M7.68 8.37L7.68 8.37L7.68 13.00L6.43 13.00L6.43 8.42Q6.43 7.33 6.00 6.79Q5.58 6.25 4.73 6.25L4.73 6.25Q3.71 6.25 3.12 6.90Q2.54 7.55 2.54 8.67L2.54 8.67L2.54 13.00L1.27 13.00L1.27 2.36L2.54 2.36L2.54 6.53Q2.99 5.84 3.60 5.50Q4.21 5.15 5.01 5.15L5.01 5.15Q6.33 5.15 7.01 5.97Q7.68 6.79 7.68 8.37ZM10.06 9.97L10.06 9.97L10.06 5.34L11.32 5.34L11.32 9.93Q11.32 11.01 11.74 11.56Q12.17 12.10 13.02 12.10L13.02 12.10Q14.03 12.10 14.63 11.45Q15.22 10.80 15.22 9.68L15.22 9.68L15.22 5.34L16.47 5.34L16.47 13.00L15.22 13.00L15.22 11.82Q14.76 12.52 14.15 12.85Q13.55 13.19 12.75 13.19L12.75 13.19Q11.43 13.19 10.75 12.37Q10.06 11.55 10.06 9.97ZM13.23 5.15L13.23 5.15ZM22.74 5.34L25.61 13.00L24.28 13.00L23.58 11.12L20.19 11.12L19.50 13.00L18.16 13.00L21.03 5.34L22.74 5.34ZM21.89 6.57L20.58 10.10L23.20 10.10L21.89 6.57ZM27.00 5.58L27.00 2.72L30.49 2.72L30.49 3.37L27.82 3.37L27.82 4.76Q28.01 4.70 28.21 4.68L28.21 4.68Q28.40 4.65 28.59 4.65L28.59 4.65Q29.69 4.65 30.33 5.17L30.33 5.17Q30.97 5.69 30.97 6.59L30.97 6.59Q30.97 7.51 30.31 8.03L30.31 8.03Q29.65 8.53 28.45 8.53L28.45 8.53Q28.04 8.53 27.61 8.47Q27.18 8.41 26.73 8.29L26.73 8.29L26.73 7.51Q27.12 7.70 27.54 7.79L27.54 7.79Q27.97 7.88 28.44 7.88L28.44 7.88Q29.20 7.88 29.64 7.53Q30.08 7.18 30.08 6.59Q30.08 6.00 29.64 5.65Q29.20 5.30 28.44 5.30L28.44 5.30Q28.08 5.30 27.73 5.37Q27.37 5.43 27.00 5.58L27.00 5.58ZM35.23 5.34L35.23 5.34Q35.85 5.46 36.20 5.83Q36.54 6.21 36.54 6.77L36.54 6.77Q36.54 7.62 35.90 8.07Q35.25 8.53 34.04 8.53L34.04 8.53Q33.65 8.53 33.22 8.46Q32.79 8.39 32.31 8.25L32.31 8.25L32.31 7.42Q32.67 7.61 33.08 7.70Q33.48 7.79 33.94 7.79L33.94 7.79Q34.69 7.79 35.10 7.52Q35.51 7.25 35.51 6.77L35.51 6.77Q35.51 6.26 35.13 6.00Q34.75 5.74 34.01 5.74L34.01 5.74L33.42 5.74L33.42 5.00L34.06 5.00Q34.71 5.00 35.04 4.79Q35.37 4.57 35.37 4.16L35.37 4.16Q35.37 3.77 35.03 3.56Q34.69 3.35 34.04 3.35L34.04 3.35Q33.76 3.35 33.41 3.41Q33.07 3.47 32.51 3.63L32.51 3.63L32.51 2.84Q33.01 2.73 33.45 2.67Q33.89 2.60 34.26 2.60L34.26 2.60Q35.25 2.60 35.82 3.01Q36.40 3.41 36.40 4.09L36.40 4.09Q36.40 4.56 36.09 4.89Q35.79 5.22 35.23 5.34Z"></path></svg>