<svg height="16.296875" width="42.8681640625" xmlns="http://www.w3.org/2000/svg" ><path d="M7.68 8.37L7.68 8.37L7.68 13.00L6.43 13.00L6.43 8.42Q6.43 7.33 6.00 6.79Q5.58 6.25 4.73 6.25L4.73 6.25Q3.71 6.25 3.12 6.90Q2.54 7.55 2.54 8.67L2.54 8.67L2.54 13.00L1.27 13.00L1.27 2.36L2.54 2.36L2.54 6.53Q2.99 5.84 3.60 5.50Q4.21 5.15 5.01 5.15L5.01 5.15Q6.33 5.15 7.01 5.97Q7.68 6.79 7.68 8.37ZM10.06 9.97L10.06 9.97L10.06 5.34L11.32 5.34L11.32 9.93Q11.32 11.01 11.74 11.56Q12.17 12.10 13.02 12.10L13.02 12.10Q14.03 12.10 14.63 11.45Q15.22 10.80 15.22 9.68L15.22 9.68L15.22 5.34L16.47 5.34L16.47 13.00L15.22 13.00L15.22 11.82Q14.76 12.52 14.15 12.85Q13.55 13.19 12.75 13.19L12.75 13.19Q11.43 13.19 10.75 12.37Q10.06 11.55 10.06 9.97ZM13.23 5.15L13.23 5.15ZM22.74 5.34L25.61 13.00L24.28 13.00L23.58 11.12L20.19 11.12L19.50 13.00L18.16 13.00L21.03 5.34L22.74 5.34ZM21.89 6.57L20.58 10.10L23.20 10.10L21.89 6.57ZM29.61 5.34L29.61 5.34Q30.24 5.46 30.59 5.83Q30.93 6.21 30.93 6.77L30.93 6.77Q30.93 7.62 30.28 8.07Q29.63 8.53 28.42 8.53L28.42 8.53Q28.03 8.53 27.61 8.46Q27.18 8.39 26.70 8.25L26.70 8.25L26.70 7.42Q27.06 7.61 27.46 7.70Q27.87 7.79 28.33 7.79L28.33 7.79Q29.07 7.79 29.48 7.52Q29.89 7.25 29.89 6.77L29.89 6.77Q29.89 6.26 29.51 6.00Q29.13 5.74 28.40 5.74L28.40 5.74L27.81 5.74L27.81 5.00L28.45 5.00Q29.09 5.00 29.43 4.79Q29.76 4.57 29.76 4.16L29.76 4.16Q29.76 3.77 29.42 3.56Q29.07 3.35 28.42 3.35L28.42 3.35Q28.15 3.35 27.80 3.41Q27.45 3.47 26.90 3.63L26.90 3.63L26.90 2.84Q27.40 2.73 27.84 2.67Q28.27 2.60 28.65 2.60L28.65 2.60Q29.63 2.60 30.21 3.01Q30.79 3.41 30.79 4.09L30.79 4.09Q30.79 4.56 30.48 4.89Q30.17 5.22 29.61 5.34ZM35.23 5.34L35.23 5.34Q35.85 5.46 36.20 5.83Q36.54 6.21 36.54 6.77L36.54 6.77Q36.54 7.62 35.90 8.07Q35.25 8.53 34.04 8.53L34.04 8.53Q33.65 8.53 33.22 8.46Q32.79 8.39 32.31 8.25L32.31 8.25L32.31 7.42Q32.67 7.61 33.08 7.70Q33.48 7.79 33.94 7.79L33.94 7.79Q34.69 7.79 35.10 7.52Q35.51 7.25 35.51 6.77L35.51 6.77Q35.51 6.26 35.13 6.00Q34.75 5.74 34.01 5.74L34.01 5.74L33.42 5.74L33.42 5.00L34.06 5.00Q34.71 5.00 35.04 4.79Q35.37 4.57 35.37 4.16L35.37 4.16Q35.37 3.77 35.03 3.56Q34.69 3.35 34.04 3.35L34.04 3.35Q33.76 3.35 33.41 3.41Q33.07 3.47 32.51 3.63L32.51 3.63L32.51 2.84Q33.01 2.73 33.45 2.67Q33.89 2.60 34.26 2.60L34.26 2.60Q35.25 2.60 35.82 3.01Q36.40 3.41 36.40 4.09L36.40 4.09Q36.40 4.56 36.09 4.89Q35.79 5.22 35.23 5.34ZM40.52 6.41L40.52 3.55L38.40 6.41L40.52 6.41ZM37.69 6.33L40.37 2.72L41.50 2.72L41.50 6.41L42.42 6.41L42.42 7.16L41.50 7.16L41.50 8.43L40.52 8.43L40.52 7.16L37.69 7.16L37.69 6.33Z"></path></svg>