<svg height="16.296875" width="37.857421875" xmlns="http://www.w3.org/2000/svg" ><path d="M7.68 8.37L7.68 8.37L7.68 13.00L6.43 13.00L6.43 8.42Q6.43 7.33 6.00 6.79Q5.58 6.25 4.73 6.25L4.73 6.25Q3.71 6.25 3.12 6.90Q2.54 7.55 2.54 8.67L2.54 8.67L2.54 13.00L1.27 13.00L1.27 2.36L2.54 2.36L2.54 6.53Q2.99 5.84 3.60 5.50Q4.21 5.15 5.01 5.15L5.01 5.15Q6.33 5.15 7.01 5.97Q7.68 6.79 7.68 8.37ZM10.06 9.97L10.06 9.97L10.06 5.34L11.32 5.34L11.32 9.93Q11.32 11.01 11.74 11.56Q12.17 12.10 13.02 12.10L13.02 12.10Q14.03 12.10 14.63 11.45Q15.22 10.80 15.22 9.68L15.22 9.68L15.22 5.34L16.47 5.34L16.47 13.00L15.22 13.00L15.22 11.82Q14.76 12.52 14.15 12.85Q13.55 13.19 12.75 13.19L12.75 13.19Q11.43 13.19 10.75 12.37Q10.06 11.55 10.06 9.97ZM13.23 5.15L13.23 5.15ZM24.10 6.50L24.10 6.50L24.10 5.34L25.36 5.34L25.36 13.00L24.10 13.00L24.10 11.85Q23.71 12.53 23.10 12.86Q22.50 13.19 21.65 13.19L21.65 13.19Q20.26 13.19 19.39 12.09Q18.52 10.98 18.52 9.17L18.52 9.17Q18.52 7.37 19.39 6.26Q20.26 5.15 21.65 5.15L21.65 5.15Q22.50 5.15 23.10 5.49Q23.71 5.82 24.10 6.50ZM19.82 9.17L19.82 9.17Q19.82 10.56 20.39 11.35Q20.96 12.14 21.96 12.14L21.96 12.14Q22.96 12.14 23.53 11.35Q24.10 10.56 24.10 9.17L24.10 9.17Q24.10 7.79 23.53 7.00Q22.96 6.21 21.96 6.21L21.96 6.21Q20.96 6.21 20.39 7.00Q19.82 7.79 19.82 9.17ZM23.09 3.63L23.09 3.63L22.70 3.25Q22.55 3.12 22.44 3.05Q22.33 2.99 22.24 2.99L22.24 2.99Q21.98 2.99 21.85 3.24Q21.73 3.49 21.72 4.05L21.72 4.05L20.86 4.05Q20.88 3.12 21.23 2.62Q21.57 2.12 22.20 2.12L22.20 2.12Q22.46 2.12 22.67 2.21Q22.89 2.31 23.15 2.54L23.15 2.54L23.54 2.91Q23.69 3.05 23.80 3.11Q23.91 3.18 24.00 3.18L24.00 3.18Q24.26 3.18 24.38 2.93Q24.51 2.68 24.52 2.12L24.52 2.12L25.38 2.12Q25.36 3.04 25.01 3.54Q24.66 4.05 24.04 4.05L24.04 4.05Q23.78 4.05 23.56 3.95Q23.34 3.86 23.09 3.63ZM27.60 5.58L27.60 2.72L31.09 2.72L31.09 3.37L28.42 3.37L28.42 4.76Q28.61 4.70 28.81 4.68L28.81 4.68Q29.00 4.65 29.19 4.65L29.19 4.65Q30.29 4.65 30.93 5.17L30.93 5.17Q31.58 5.69 31.58 6.59L31.58 6.59Q31.58 7.51 30.91 8.03L30.91 8.03Q30.26 8.53 29.05 8.53L29.05 8.53Q28.64 8.53 28.21 8.47Q27.78 8.41 27.33 8.29L27.33 8.29L27.33 7.51Q27.72 7.70 28.14 7.79L28.14 7.79Q28.57 7.88 29.04 7.88L29.04 7.88Q29.80 7.88 30.24 7.53Q30.69 7.18 30.69 6.59Q30.69 6.00 30.24 5.65Q29.80 5.30 29.04 5.30L29.04 5.30Q28.68 5.30 28.33 5.37Q27.97 5.43 27.60 5.58L27.60 5.58ZM35.83 5.34L35.83 5.34Q36.46 5.46 36.80 5.83Q37.15 6.21 37.15 6.77L37.15 6.77Q37.15 7.62 36.50 8.07Q35.85 8.53 34.64 8.53L34.64 8.53Q34.25 8.53 33.82 8.46Q33.39 8.39 32.92 8.25L32.92 8.25L32.92 7.42Q33.27 7.61 33.68 7.70Q34.08 7.79 34.54 7.79L34.54 7.79Q35.29 7.79 35.70 7.52Q36.11 7.25 36.11 6.77L36.11 6.77Q36.11 6.26 35.73 6.00Q35.35 5.74 34.61 5.74L34.61 5.74L34.02 5.74L34.02 5.00L34.67 5.00Q35.31 5.00 35.64 4.79Q35.97 4.57 35.97 4.16L35.97 4.16Q35.97 3.77 35.63 3.56Q35.29 3.35 34.64 3.35L34.64 3.35Q34.36 3.35 34.02 3.41Q33.67 3.47 33.11 3.63L33.11 3.63L33.11 2.84Q33.61 2.73 34.05 2.67Q34.49 2.60 34.86 2.60L34.86 2.60Q35.85 2.60 36.43 3.01Q37.00 3.41 37.00 4.09L37.00 4.09Q37.00 4.56 36.70 4.89Q36.39 5.22 35.83 5.34Z"></path></svg>