<svg height="16.296875" width="44.3994140625" xmlns="http://www.w3.org/2000/svg" ><path d="M7.68 8.37L7.68 8.37L7.68 13.00L6.43 13.00L6.43 8.42Q6.43 7.33 6.00 6.79Q5.58 6.25 4.73 6.25L4.73 6.25Q3.71 6.25 3.12 6.90Q2.54 7.55 2.54 8.67L2.54 8.67L2.54 13.00L1.27 13.00L1.27 2.36L2.54 2.36L2.54 6.53Q2.99 5.84 3.60 5.50Q4.21 5.15 5.01 5.15L5.01 5.15Q6.33 5.15 7.01 5.97Q7.68 6.79 7.68 8.37ZM10.06 9.97L10.06 9.97L10.06 5.34L11.32 5.34L11.32 9.93Q11.32 11.01 11.74 11.56Q12.17 12.10 13.02 12.10L13.02 12.10Q14.03 12.10 14.63 11.45Q15.22 10.80 15.22 9.68L15.22 9.68L15.22 5.34L16.47 5.34L16.47 13.00L15.22 13.00L15.22 11.82Q14.76 12.52 14.15 12.85Q13.55 13.19 12.75 13.19L12.75 13.19Q11.43 13.19 10.75 12.37Q10.06 11.55 10.06 9.97ZM13.23 5.15L13.23 5.15ZM22.74 5.34L25.61 13.00L24.28 13.00L23.58 11.12L20.19 11.12L19.50 13.00L18.16 13.00L21.03 5.34L22.74 5.34ZM21.89 6.57L20.58 10.10L23.20 10.10L21.89 6.57ZM28.36 13.00L28.36 7.54L28.79 7.54Q30.10 7.54 30.69 6.76L30.69 6.76Q31.08 6.24 31.08 5.57L31.08 5.57Q31.08 4.66 30.69 4.22L30.69 4.22Q30.01 3.44 28.79 3.44L28.79 3.44Q28.24 3.44 27.70 3.59L27.70 3.59Q27.17 3.73 26.63 4.03L26.63 4.03L26.63 2.85Q27.15 2.61 27.71 2.50L27.71 2.50Q28.26 2.37 28.84 2.37L28.84 2.37Q30.72 2.37 31.66 3.45L31.66 3.45Q32.41 4.30 32.41 5.57L32.41 5.57Q32.41 6.73 31.67 7.52L31.67 7.52Q30.91 8.33 29.74 8.54L29.74 8.54L29.74 13.00L28.36 13.00ZM34.15 5.58L34.15 2.72L37.63 2.72L37.63 3.37L34.96 3.37L34.96 4.76Q35.15 4.70 35.35 4.68L35.35 4.68Q35.54 4.65 35.73 4.65L35.73 4.65Q36.83 4.65 37.47 5.17L37.47 5.17Q38.12 5.69 38.12 6.59L38.12 6.59Q38.12 7.51 37.45 8.03L37.45 8.03Q36.80 8.53 35.59 8.53L35.59 8.53Q35.18 8.53 34.75 8.47Q34.32 8.41 33.87 8.29L33.87 8.29L33.87 7.51Q34.26 7.70 34.69 7.79L34.69 7.79Q35.11 7.88 35.58 7.88L35.58 7.88Q36.34 7.88 36.78 7.53Q37.23 7.18 37.23 6.59Q37.23 6.00 36.78 5.65Q36.34 5.30 35.58 5.30L35.58 5.30Q35.23 5.30 34.87 5.37Q34.51 5.43 34.15 5.58L34.15 5.58ZM39.76 5.58L39.76 2.72L43.24 2.72L43.24 3.37L40.57 3.37L40.57 4.76Q40.76 4.70 40.96 4.68L40.96 4.68Q41.15 4.65 41.34 4.65L41.34 4.65Q42.44 4.65 43.09 5.17L43.09 5.17Q43.73 5.69 43.73 6.59L43.73 6.59Q43.73 7.51 43.07 8.03L43.07 8.03Q42.41 8.53 41.21 8.53L41.21 8.53Q40.80 8.53 40.37 8.47Q39.94 8.41 39.48 8.29L39.48 8.29L39.48 7.51Q39.87 7.70 40.30 7.79L40.30 7.79Q40.72 7.88 41.19 7.88L41.19 7.88Q41.95 7.88 42.40 7.53Q42.84 7.18 42.84 6.59Q42.84 6.00 42.40 5.65Q41.95 5.30 41.19 5.30L41.19 5.30Q40.84 5.30 40.48 5.37Q40.13 5.43 39.76 5.58L39.76 5.58Z"></path></svg>