<svg height="16.296875" width="35.8408203125" xmlns="http://www.w3.org/2000/svg" ><path d="M7.68 8.37L7.68 8.37L7.68 13.00L6.43 13.00L6.43 8.42Q6.43 7.33 6.00 6.79Q5.58 6.25 4.73 6.25L4.73 6.25Q3.71 6.25 3.12 6.90Q2.54 7.55 2.54 8.67L2.54 8.67L2.54 13.00L1.27 13.00L1.27 2.36L2.54 2.36L2.54 6.53Q2.99 5.84 3.60 5.50Q4.21 5.15 5.01 5.15L5.01 5.15Q6.33 5.15 7.01 5.97Q7.68 6.79 7.68 8.37ZM10.06 9.97L10.06 9.97L10.06 5.34L11.32 5.34L11.32 9.93Q11.32 11.01 11.74 11.56Q12.17 12.10 13.02 12.10L13.02 12.10Q14.03 12.10 14.63 11.45Q15.22 10.80 15.22 9.68L15.22 9.68L15.22 5.34L16.47 5.34L16.47 13.00L15.22 13.00L15.22 11.82Q14.76 12.52 14.15 12.85Q13.55 13.19 12.75 13.19L12.75 13.19Q11.43 13.19 10.75 12.37Q10.06 11.55 10.06 9.97ZM13.23 5.15L13.23 5.15ZM19.02 13.00L19.02 5.34L23.86 5.34L23.86 6.35L20.29 6.35L20.29 8.41L23.70 8.41L23.70 9.42L20.29 9.42L20.29 11.99L23.95 11.99L23.95 13.00L19.02 13.00ZM25.59 5.58L25.59 2.72L29.07 2.72L29.07 3.37L26.40 3.37L26.40 4.76Q26.59 4.70 26.79 4.68L26.79 4.68Q26.98 4.65 27.17 4.65L27.17 4.65Q28.27 4.65 28.92 5.17L28.92 5.17Q29.56 5.69 29.56 6.59L29.56 6.59Q29.56 7.51 28.90 8.03L28.90 8.03Q28.24 8.53 27.04 8.53L27.04 8.53Q26.63 8.53 26.20 8.47Q25.76 8.41 25.31 8.29L25.31 8.29L25.31 7.51Q25.70 7.70 26.13 7.79L26.13 7.79Q26.55 7.88 27.02 7.88L27.02 7.88Q27.78 7.88 28.23 7.53Q28.67 7.18 28.67 6.59Q28.67 6.00 28.23 5.65Q27.78 5.30 27.02 5.30L27.02 5.30Q26.67 5.30 26.31 5.37Q25.96 5.43 25.59 5.58L25.59 5.58ZM33.81 5.34L33.81 5.34Q34.44 5.46 34.78 5.83Q35.13 6.21 35.13 6.77L35.13 6.77Q35.13 7.62 34.48 8.07Q33.83 8.53 32.62 8.53L32.62 8.53Q32.23 8.53 31.80 8.46Q31.38 8.39 30.90 8.25L30.90 8.25L30.90 7.42Q31.25 7.61 31.66 7.70Q32.07 7.79 32.53 7.79L32.53 7.79Q33.27 7.79 33.68 7.52Q34.09 7.25 34.09 6.77L34.09 6.77Q34.09 6.26 33.71 6.00Q33.33 5.74 32.59 5.74L32.59 5.74L32.01 5.74L32.01 5.00L32.65 5.00Q33.29 5.00 33.62 4.79Q33.95 4.57 33.95 4.16L33.95 4.16Q33.95 3.77 33.61 3.56Q33.27 3.35 32.62 3.35L32.62 3.35Q32.35 3.35 32.00 3.41Q31.65 3.47 31.10 3.63L31.10 3.63L31.10 2.84Q31.60 2.73 32.03 2.67Q32.47 2.60 32.85 2.60L32.85 2.60Q33.83 2.60 34.41 3.01Q34.99 3.41 34.99 4.09L34.99 4.09Q34.99 4.56 34.68 4.89Q34.37 5.22 33.81 5.34Z"></path></svg>