<svg height="16.296875" width="41.453125" xmlns="http://www.w3.org/2000/svg" ><path d="M7.68 8.37L7.68 8.37L7.68 13.00L6.43 13.00L6.43 8.42Q6.43 7.33 6.00 6.79Q5.58 6.25 4.73 6.25L4.73 6.25Q3.71 6.25 3.12 6.90Q2.54 7.55 2.54 8.67L2.54 8.67L2.54 13.00L1.27 13.00L1.27 2.36L2.54 2.36L2.54 6.53Q2.99 5.84 3.60 5.50Q4.21 5.15 5.01 5.15L5.01 5.15Q6.33 5.15 7.01 5.97Q7.68 6.79 7.68 8.37ZM10.06 9.97L10.06 9.97L10.06 5.34L11.32 5.34L11.32 9.93Q11.32 11.01 11.74 11.56Q12.17 12.10 13.02 12.10L13.02 12.10Q14.03 12.10 14.63 11.45Q15.22 10.80 15.22 9.68L15.22 9.68L15.22 5.34L16.47 5.34L16.47 13.00L15.22 13.00L15.22 11.82Q14.76 12.52 14.15 12.85Q13.55 13.19 12.75 13.19L12.75 13.19Q11.43 13.19 10.75 12.37Q10.06 11.55 10.06 9.97ZM13.23 5.15L13.23 5.15ZM19.02 13.00L19.02 5.34L23.86 5.34L23.86 6.35L20.29 6.35L20.29 8.41L23.70 8.41L23.70 9.42L20.29 9.42L20.29 11.99L23.95 11.99L23.95 13.00L19.02 13.00ZM28.20 5.34L28.20 5.34Q28.83 5.46 29.17 5.83Q29.52 6.21 29.52 6.77L29.52 6.77Q29.52 7.62 28.87 8.07Q28.22 8.53 27.01 8.53L27.01 8.53Q26.62 8.53 26.19 8.46Q25.76 8.39 25.29 8.25L25.29 8.25L25.29 7.42Q25.64 7.61 26.05 7.70Q26.46 7.79 26.91 7.79L26.91 7.79Q27.66 7.79 28.07 7.52Q28.48 7.25 28.48 6.77L28.48 6.77Q28.48 6.26 28.10 6.00Q27.72 5.74 26.98 5.74L26.98 5.74L26.39 5.74L26.39 5.00L27.04 5.00Q27.68 5.00 28.01 4.79Q28.34 4.57 28.34 4.16L28.34 4.16Q28.34 3.77 28 3.56Q27.66 3.35 27.01 3.35L27.01 3.35Q26.74 3.35 26.39 3.41Q26.04 3.47 25.48 3.63L25.48 3.63L25.48 2.84Q25.98 2.73 26.42 2.67Q26.86 2.60 27.23 2.60L27.23 2.60Q28.22 2.60 28.80 3.01Q29.37 3.41 29.37 4.09L29.37 4.09Q29.37 4.56 29.07 4.89Q28.76 5.22 28.20 5.34ZM33.81 5.34L33.81 5.34Q34.44 5.46 34.78 5.83Q35.13 6.21 35.13 6.77L35.13 6.77Q35.13 7.62 34.48 8.07Q33.83 8.53 32.62 8.53L32.62 8.53Q32.23 8.53 31.80 8.46Q31.38 8.39 30.90 8.25L30.90 8.25L30.90 7.42Q31.25 7.61 31.66 7.70Q32.07 7.79 32.53 7.79L32.53 7.79Q33.27 7.79 33.68 7.52Q34.09 7.25 34.09 6.77L34.09 6.77Q34.09 6.26 33.71 6.00Q33.33 5.74 32.59 5.74L32.59 5.74L32.01 5.74L32.01 5.00L32.65 5.00Q33.29 5.00 33.62 4.79Q33.95 4.57 33.95 4.16L33.95 4.16Q33.95 3.77 33.61 3.56Q33.27 3.35 32.62 3.35L32.62 3.35Q32.35 3.35 32.00 3.41Q31.65 3.47 31.10 3.63L31.10 3.63L31.10 2.84Q31.60 2.73 32.03 2.67Q32.47 2.60 32.85 2.60L32.85 2.60Q33.83 2.60 34.41 3.01Q34.99 3.41 34.99 4.09L34.99 4.09Q34.99 4.56 34.68 4.89Q34.37 5.22 33.81 5.34ZM39.10 6.41L39.10 3.55L36.99 6.41L39.10 6.41ZM36.27 6.33L38.95 2.72L40.09 2.72L40.09 6.41L41.01 6.41L41.01 7.16L40.09 7.16L40.09 8.43L39.10 8.43L39.10 7.16L36.27 7.16L36.27 6.33Z"></path></svg>