<svg height="16.296875" width="46.45703125" xmlns="http://www.w3.org/2000/svg" ><path d="M7.68 8.37L7.68 8.37L7.68 13.00L6.43 13.00L6.43 8.42Q6.43 7.33 6.00 6.79Q5.58 6.25 4.73 6.25L4.73 6.25Q3.71 6.25 3.12 6.90Q2.54 7.55 2.54 8.67L2.54 8.67L2.54 13.00L1.27 13.00L1.27 2.36L2.54 2.36L2.54 6.53Q2.99 5.84 3.60 5.50Q4.21 5.15 5.01 5.15L5.01 5.15Q6.33 5.15 7.01 5.97Q7.68 6.79 7.68 8.37ZM10.06 9.97L10.06 9.97L10.06 5.34L11.32 5.34L11.32 9.93Q11.32 11.01 11.74 11.56Q12.17 12.10 13.02 12.10L13.02 12.10Q14.03 12.10 14.63 11.45Q15.22 10.80 15.22 9.68L15.22 9.68L15.22 5.34L16.47 5.34L16.47 13.00L15.22 13.00L15.22 11.82Q14.76 12.52 14.15 12.85Q13.55 13.19 12.75 13.19L12.75 13.19Q11.43 13.19 10.75 12.37Q10.06 11.55 10.06 9.97ZM13.23 5.15L13.23 5.15ZM18.52 9.50L18.52 9.50L18.52 8.88L24.30 8.88Q24.22 7.58 23.52 6.90Q22.82 6.22 21.57 6.22L21.57 6.22Q20.84 6.22 20.16 6.40Q19.48 6.58 18.81 6.93L18.81 6.93L18.81 5.74Q19.49 5.46 20.20 5.30Q20.91 5.15 21.64 5.15L21.64 5.15Q23.47 5.15 24.54 6.22Q25.61 7.29 25.61 9.11L25.61 9.11Q25.61 10.99 24.60 12.09Q23.58 13.19 21.86 13.19L21.86 13.19Q20.32 13.19 19.42 12.20Q18.52 11.20 18.52 9.50ZM24.26 9.86L19.78 9.86Q19.79 10.90 20.35 11.51Q20.92 12.13 21.85 12.13L21.85 12.13Q22.90 12.13 23.53 11.53Q24.17 10.94 24.26 9.86L24.26 9.86ZM34.04 8.37L34.04 8.37L34.04 13.00L32.79 13.00L32.79 8.42Q32.79 7.33 32.36 6.79Q31.94 6.25 31.09 6.25L31.09 6.25Q30.07 6.25 29.48 6.90Q28.90 7.55 28.90 8.67L28.90 8.67L28.90 13.00L27.63 13.00L27.63 5.34L28.90 5.34L28.90 6.53Q29.35 5.84 29.96 5.50Q30.57 5.15 31.37 5.15L31.37 5.15Q32.69 5.15 33.37 5.97Q34.04 6.79 34.04 8.37ZM36.20 5.58L36.20 2.72L39.69 2.72L39.69 3.37L37.02 3.37L37.02 4.76Q37.21 4.70 37.41 4.68L37.41 4.68Q37.60 4.65 37.79 4.65L37.79 4.65Q38.89 4.65 39.53 5.17L39.53 5.17Q40.17 5.69 40.17 6.59L40.17 6.59Q40.17 7.51 39.51 8.03L39.51 8.03Q38.86 8.53 37.65 8.53L37.65 8.53Q37.24 8.53 36.81 8.47Q36.38 8.41 35.93 8.29L35.93 8.29L35.93 7.51Q36.32 7.70 36.74 7.79L36.74 7.79Q37.17 7.88 37.64 7.88L37.64 7.88Q38.40 7.88 38.84 7.53Q39.29 7.18 39.29 6.59Q39.29 6.00 38.84 5.65Q38.40 5.30 37.64 5.30L37.64 5.30Q37.28 5.30 36.93 5.37Q36.57 5.43 36.20 5.58L36.20 5.58ZM44.43 5.34L44.43 5.34Q45.06 5.46 45.40 5.83Q45.75 6.21 45.75 6.77L45.75 6.77Q45.75 7.62 45.10 8.07Q44.45 8.53 43.24 8.53L43.24 8.53Q42.85 8.53 42.42 8.46Q41.99 8.39 41.51 8.25L41.51 8.25L41.51 7.42Q41.87 7.61 42.28 7.70Q42.68 7.79 43.14 7.79L43.14 7.79Q43.89 7.79 44.30 7.52Q44.71 7.25 44.71 6.77L44.71 6.77Q44.71 6.26 44.33 6.00Q43.95 5.74 43.21 5.74L43.21 5.74L42.62 5.74L42.62 5.00L43.26 5.00Q43.91 5.00 44.24 4.79Q44.57 4.57 44.57 4.16L44.57 4.16Q44.57 3.77 44.23 3.56Q43.89 3.35 43.24 3.35L43.24 3.35Q42.96 3.35 42.62 3.41Q42.27 3.47 41.71 3.63L41.71 3.63L41.71 2.84Q42.21 2.73 42.65 2.67Q43.09 2.60 43.46 2.60L43.46 2.60Q44.45 2.60 45.02 3.01Q45.60 3.41 45.60 4.09L45.60 4.09Q45.60 4.56 45.29 4.89Q44.99 5.22 44.43 5.34Z"></path></svg>