<svg height="16.296875" width="44.7275390625" xmlns="http://www.w3.org/2000/svg" ><path d="M7.68 8.37L7.68 8.37L7.68 13.00L6.43 13.00L6.43 8.42Q6.43 7.33 6.00 6.79Q5.58 6.25 4.73 6.25L4.73 6.25Q3.71 6.25 3.12 6.90Q2.54 7.55 2.54 8.67L2.54 8.67L2.54 13.00L1.27 13.00L1.27 2.36L2.54 2.36L2.54 6.53Q2.99 5.84 3.60 5.50Q4.21 5.15 5.01 5.15L5.01 5.15Q6.33 5.15 7.01 5.97Q7.68 6.79 7.68 8.37ZM10.06 9.97L10.06 9.97L10.06 5.34L11.32 5.34L11.32 9.93Q11.32 11.01 11.74 11.56Q12.17 12.10 13.02 12.10L13.02 12.10Q14.03 12.10 14.63 11.45Q15.22 10.80 15.22 9.68L15.22 9.68L15.22 5.34L16.47 5.34L16.47 13.00L15.22 13.00L15.22 11.82Q14.76 12.52 14.15 12.85Q13.55 13.19 12.75 13.19L12.75 13.19Q11.43 13.19 10.75 12.37Q10.06 11.55 10.06 9.97ZM13.23 5.15L13.23 5.15ZM18.52 9.50L18.52 9.50L18.52 8.88L24.30 8.88Q24.22 7.58 23.52 6.90Q22.82 6.22 21.57 6.22L21.57 6.22Q20.84 6.22 20.16 6.40Q19.48 6.58 18.81 6.93L18.81 6.93L18.81 5.74Q19.49 5.46 20.20 5.30Q20.91 5.15 21.64 5.15L21.64 5.15Q23.47 5.15 24.54 6.22Q25.61 7.29 25.61 9.11L25.61 9.11Q25.61 10.99 24.60 12.09Q23.58 13.19 21.86 13.19L21.86 13.19Q20.32 13.19 19.42 12.20Q18.52 11.20 18.52 9.50ZM24.26 9.86L19.78 9.86Q19.79 10.90 20.35 11.51Q20.92 12.13 21.85 12.13L21.85 12.13Q22.90 12.13 23.53 11.53Q24.17 10.94 24.26 9.86L24.26 9.86ZM28.69 13.00L28.68 7.54L29.11 7.54Q30.43 7.54 31.01 6.76L31.01 6.76Q31.41 6.24 31.41 5.57L31.41 5.57Q31.40 4.66 31.01 4.22L31.01 4.22Q30.34 3.44 29.11 3.44L29.11 3.44Q28.57 3.44 28.03 3.59L28.03 3.59Q27.49 3.73 26.96 4.03L26.96 4.03L26.96 2.85Q27.48 2.61 28.03 2.50L28.03 2.50Q28.59 2.37 29.17 2.37L29.17 2.37Q31.05 2.37 31.99 3.45L31.99 3.45Q32.74 4.30 32.74 5.57L32.74 5.57Q32.74 6.73 32.00 7.52L32.00 7.52Q31.23 8.33 30.07 8.54L30.07 8.54L30.07 13.00L28.69 13.00ZM34.47 5.58L34.47 2.72L37.96 2.72L37.96 3.37L35.29 3.37L35.29 4.76Q35.48 4.70 35.68 4.68L35.68 4.68Q35.87 4.65 36.06 4.65L36.06 4.65Q37.16 4.65 37.80 5.17L37.80 5.17Q38.45 5.69 38.45 6.59L38.45 6.59Q38.45 7.51 37.78 8.03L37.78 8.03Q37.13 8.53 35.92 8.53L35.92 8.53Q35.51 8.53 35.08 8.47Q34.65 8.41 34.20 8.29L34.20 8.29L34.20 7.51Q34.59 7.70 35.01 7.79L35.01 7.79Q35.44 7.88 35.91 7.88L35.91 7.88Q36.67 7.88 37.11 7.53Q37.56 7.18 37.56 6.59Q37.56 6.00 37.11 5.65Q36.67 5.30 35.91 5.30L35.91 5.30Q35.55 5.30 35.20 5.37Q34.84 5.43 34.47 5.58L34.47 5.58ZM40.09 5.58L40.09 2.72L43.57 2.72L43.57 3.37L40.90 3.37L40.90 4.76Q41.09 4.70 41.29 4.68L41.29 4.68Q41.48 4.65 41.67 4.65L41.67 4.65Q42.77 4.65 43.42 5.17L43.42 5.17Q44.06 5.69 44.06 6.59L44.06 6.59Q44.06 7.51 43.39 8.03L43.39 8.03Q42.74 8.53 41.54 8.53L41.54 8.53Q41.13 8.53 40.69 8.47Q40.26 8.41 39.81 8.29L39.81 8.29L39.81 7.51Q40.20 7.70 40.63 7.79L40.63 7.79Q41.05 7.88 41.52 7.88L41.52 7.88Q42.28 7.88 42.72 7.53Q43.17 7.18 43.17 6.59Q43.17 6.00 42.72 5.65Q42.28 5.30 41.52 5.30L41.52 5.30Q41.17 5.30 40.81 5.37Q40.46 5.43 40.09 5.58L40.09 5.58Z"></path></svg>