<svg height="16.296875" width="37.5361328125" xmlns="http://www.w3.org/2000/svg" ><path d="M7.68 8.37L7.68 8.37L7.68 13.00L6.43 13.00L6.43 8.42Q6.43 7.33 6.00 6.79Q5.58 6.25 4.73 6.25L4.73 6.25Q3.71 6.25 3.12 6.90Q2.54 7.55 2.54 8.67L2.54 8.67L2.54 13.00L1.27 13.00L1.27 2.36L2.54 2.36L2.54 6.53Q2.99 5.84 3.60 5.50Q4.21 5.15 5.01 5.15L5.01 5.15Q6.33 5.15 7.01 5.97Q7.68 6.79 7.68 8.37ZM10.06 9.97L10.06 9.97L10.06 5.34L11.32 5.34L11.32 9.93Q11.32 11.01 11.74 11.56Q12.17 12.10 13.02 12.10L13.02 12.10Q14.03 12.10 14.63 11.45Q15.22 10.80 15.22 9.68L15.22 9.68L15.22 5.34L16.47 5.34L16.47 13.00L15.22 13.00L15.22 11.82Q14.76 12.52 14.15 12.85Q13.55 13.19 12.75 13.19L12.75 13.19Q11.43 13.19 10.75 12.37Q10.06 11.55 10.06 9.97ZM13.23 5.15L13.23 5.15ZM23.93 7.52L23.93 7.52L20.60 11.57Q20.88 11.85 21.24 11.99Q21.59 12.13 22.03 12.13L22.03 12.13Q23.04 12.13 23.63 11.33Q24.21 10.54 24.21 9.17L24.21 9.17Q24.21 8.63 24.14 8.23Q24.08 7.83 23.93 7.52ZM20.11 10.83L23.45 6.78Q23.16 6.50 22.81 6.36Q22.46 6.22 22.03 6.22L22.03 6.22Q21 6.22 20.42 7.02Q19.84 7.83 19.84 9.27L19.84 9.27Q19.84 9.76 19.91 10.14Q19.97 10.51 20.11 10.83L20.11 10.83ZM18.24 13.10L19.26 11.86Q18.89 11.33 18.70 10.66Q18.52 9.99 18.52 9.17L18.52 9.17Q18.52 7.29 19.45 6.22Q20.38 5.15 22.03 5.15L22.03 5.15Q22.67 5.15 23.21 5.33Q23.75 5.50 24.21 5.86L24.21 5.86L25.16 4.71L25.81 5.25L24.81 6.47Q25.18 7 25.36 7.68Q25.55 8.35 25.55 9.17L25.55 9.17Q25.55 11.05 24.61 12.12Q23.67 13.19 22.03 13.19L22.03 13.19Q21.38 13.19 20.83 13.02Q20.28 12.84 19.84 12.49L19.84 12.49L18.89 13.64L18.24 13.10ZM27.28 5.58L27.28 2.72L30.77 2.72L30.77 3.37L28.10 3.37L28.10 4.76Q28.29 4.70 28.49 4.68L28.49 4.68Q28.68 4.65 28.87 4.65L28.87 4.65Q29.97 4.65 30.61 5.17L30.61 5.17Q31.25 5.69 31.25 6.59L31.25 6.59Q31.25 7.51 30.59 8.03L30.59 8.03Q29.93 8.53 28.73 8.53L28.73 8.53Q28.32 8.53 27.89 8.47Q27.46 8.41 27.01 8.29L27.01 8.29L27.01 7.51Q27.40 7.70 27.82 7.79L27.82 7.79Q28.25 7.88 28.72 7.88L28.72 7.88Q29.48 7.88 29.92 7.53Q30.37 7.18 30.37 6.59Q30.37 6.00 29.92 5.65Q29.48 5.30 28.72 5.30L28.72 5.30Q28.36 5.30 28.01 5.37Q27.65 5.43 27.28 5.58L27.28 5.58ZM35.51 5.34L35.51 5.34Q36.13 5.46 36.48 5.83Q36.83 6.21 36.83 6.77L36.83 6.77Q36.83 7.62 36.18 8.07Q35.53 8.53 34.32 8.53L34.32 8.53Q33.93 8.53 33.50 8.46Q33.07 8.39 32.59 8.25L32.59 8.25L32.59 7.42Q32.95 7.61 33.36 7.70Q33.76 7.79 34.22 7.79L34.22 7.79Q34.97 7.79 35.38 7.52Q35.79 7.25 35.79 6.77L35.79 6.77Q35.79 6.26 35.41 6.00Q35.03 5.74 34.29 5.74L34.29 5.74L33.70 5.74L33.70 5.00L34.34 5.00Q34.99 5.00 35.32 4.79Q35.65 4.57 35.65 4.16L35.65 4.16Q35.65 3.77 35.31 3.56Q34.97 3.35 34.32 3.35L34.32 3.35Q34.04 3.35 33.69 3.41Q33.35 3.47 32.79 3.63L32.79 3.63L32.79 2.84Q33.29 2.73 33.73 2.67Q34.17 2.60 34.54 2.60L34.54 2.60Q35.53 2.60 36.10 3.01Q36.68 3.41 36.68 4.09L36.68 4.09Q36.68 4.56 36.37 4.89Q36.07 5.22 35.51 5.34Z"></path></svg>