<svg height="16.296875" width="15.1142578125" xmlns="http://www.w3.org/2000/svg" ><path d="M1.32 13.00L1.32 5.34L2.58 5.34L2.58 13.00L1.32 13.00ZM1.32 3.95L1.32 2.36L2.58 2.36L2.58 3.95L1.32 3.95ZM4.86 5.58L4.86 2.72L8.35 2.72L8.35 3.37L5.67 3.37L5.67 4.76Q5.87 4.70 6.06 4.68L6.06 4.68Q6.25 4.65 6.45 4.65L6.45 4.65Q7.55 4.65 8.19 5.17L8.19 5.17Q8.83 5.69 8.83 6.59L8.83 6.59Q8.83 7.51 8.17 8.03L8.17 8.03Q7.51 8.53 6.31 8.53L6.31 8.53Q5.90 8.53 5.47 8.47Q5.04 8.41 4.59 8.29L4.59 8.29L4.59 7.51Q4.98 7.70 5.40 7.79L5.40 7.79Q5.82 7.88 6.30 7.88L6.30 7.88Q7.05 7.88 7.50 7.53Q7.94 7.18 7.94 6.59Q7.94 6.00 7.50 5.65Q7.05 5.30 6.30 5.30L6.30 5.30Q5.94 5.30 5.58 5.37Q5.23 5.43 4.86 5.58L4.86 5.58ZM13.08 5.34L13.08 5.34Q13.71 5.46 14.06 5.83Q14.40 6.21 14.40 6.77L14.40 6.77Q14.40 7.62 13.75 8.07Q13.10 8.53 11.89 8.53L11.89 8.53Q11.50 8.53 11.08 8.46Q10.65 8.39 10.17 8.25L10.17 8.25L10.17 7.42Q10.53 7.61 10.93 7.70Q11.34 7.79 11.80 7.79L11.80 7.79Q12.54 7.79 12.95 7.52Q13.36 7.25 13.36 6.77L13.36 6.77Q13.36 6.26 12.98 6.00Q12.61 5.74 11.87 5.74L11.87 5.74L11.28 5.74L11.28 5.00L11.92 5.00Q12.56 5.00 12.90 4.79Q13.23 4.57 13.23 4.16L13.23 4.16Q13.23 3.77 12.89 3.56Q12.54 3.35 11.89 3.35L11.89 3.35Q11.62 3.35 11.27 3.41Q10.92 3.47 10.37 3.63L10.37 3.63L10.37 2.84Q10.87 2.73 11.31 2.67Q11.74 2.60 12.12 2.60L12.12 2.60Q13.10 2.60 13.68 3.01Q14.26 3.41 14.26 4.09L14.26 4.09Q14.26 4.56 13.95 4.89Q13.64 5.22 13.08 5.34Z"></path></svg>