<svg height="16.296875" width="20.7265625" xmlns="http://www.w3.org/2000/svg" ><path d="M1.32 13.00L1.32 5.34L2.58 5.34L2.58 13.00L1.32 13.00ZM1.32 3.95L1.32 2.36L2.58 2.36L2.58 3.95L1.32 3.95ZM7.47 5.34L7.47 5.34Q8.10 5.46 8.45 5.83Q8.79 6.21 8.79 6.77L8.79 6.77Q8.79 7.62 8.14 8.07Q7.49 8.53 6.28 8.53L6.28 8.53Q5.89 8.53 5.47 8.46Q5.04 8.39 4.56 8.25L4.56 8.25L4.56 7.42Q4.92 7.61 5.32 7.70Q5.73 7.79 6.19 7.79L6.19 7.79Q6.93 7.79 7.34 7.52Q7.75 7.25 7.75 6.77L7.75 6.77Q7.75 6.26 7.37 6.00Q6.99 5.74 6.25 5.74L6.25 5.74L5.67 5.74L5.67 5.00L6.31 5.00Q6.95 5.00 7.28 4.79Q7.62 4.57 7.62 4.16L7.62 4.16Q7.62 3.77 7.27 3.56Q6.93 3.35 6.28 3.35L6.28 3.35Q6.01 3.35 5.66 3.41Q5.31 3.47 4.76 3.63L4.76 3.63L4.76 2.84Q5.26 2.73 5.69 2.67Q6.13 2.60 6.51 2.60L6.51 2.60Q7.49 2.60 8.07 3.01Q8.65 3.41 8.65 4.09L8.65 4.09Q8.65 4.56 8.34 4.89Q8.03 5.22 7.47 5.34ZM13.08 5.34L13.08 5.34Q13.71 5.46 14.06 5.83Q14.40 6.21 14.40 6.77L14.40 6.77Q14.40 7.62 13.75 8.07Q13.10 8.53 11.89 8.53L11.89 8.53Q11.50 8.53 11.08 8.46Q10.65 8.39 10.17 8.25L10.17 8.25L10.17 7.42Q10.53 7.61 10.93 7.70Q11.34 7.79 11.80 7.79L11.80 7.79Q12.54 7.79 12.95 7.52Q13.36 7.25 13.36 6.77L13.36 6.77Q13.36 6.26 12.98 6.00Q12.61 5.74 11.87 5.74L11.87 5.74L11.28 5.74L11.28 5.00L11.92 5.00Q12.56 5.00 12.90 4.79Q13.23 4.57 13.23 4.16L13.23 4.16Q13.23 3.77 12.89 3.56Q12.54 3.35 11.89 3.35L11.89 3.35Q11.62 3.35 11.27 3.41Q10.92 3.47 10.37 3.63L10.37 3.63L10.37 2.84Q10.87 2.73 11.31 2.67Q11.74 2.60 12.12 2.60L12.12 2.60Q13.10 2.60 13.68 3.01Q14.26 3.41 14.26 4.09L14.26 4.09Q14.26 4.56 13.95 4.89Q13.64 5.22 13.08 5.34ZM18.38 6.41L18.38 3.55L16.26 6.41L18.38 6.41ZM15.54 6.33L18.22 2.72L19.36 2.72L19.36 6.41L20.28 6.41L20.28 7.16L19.36 7.16L19.36 8.43L18.38 8.43L18.38 7.16L15.54 7.16L15.54 6.33Z"></path></svg>