<svg height="16.296875" width="23.3994140625" xmlns="http://www.w3.org/2000/svg" ><path d="M1.32 13.00L1.32 5.34L2.58 5.34L2.58 13.00L1.32 13.00ZM1.32 3.95L1.32 2.36L2.58 2.36L2.58 3.95L1.32 3.95ZM8.89 5.34L11.76 13.00L10.42 13.00L9.73 11.12L6.34 11.12L5.64 13.00L4.31 13.00L7.18 5.34L8.89 5.34ZM8.03 6.57L6.72 10.10L9.34 10.10L8.03 6.57ZM13.15 5.58L13.15 2.72L16.63 2.72L16.63 3.37L13.96 3.37L13.96 4.76Q14.15 4.70 14.35 4.68L14.35 4.68Q14.54 4.65 14.73 4.65L14.73 4.65Q15.83 4.65 16.47 5.17L16.47 5.17Q17.12 5.69 17.12 6.59L17.12 6.59Q17.12 7.51 16.45 8.03L16.45 8.03Q15.80 8.53 14.59 8.53L14.59 8.53Q14.18 8.53 13.75 8.47Q13.32 8.41 12.87 8.29L12.87 8.29L12.87 7.51Q13.26 7.70 13.69 7.79L13.69 7.79Q14.11 7.88 14.58 7.88L14.58 7.88Q15.34 7.88 15.78 7.53Q16.23 7.18 16.23 6.59Q16.23 6.00 15.78 5.65Q15.34 5.30 14.58 5.30L14.58 5.30Q14.23 5.30 13.87 5.37Q13.51 5.43 13.15 5.58L13.15 5.58ZM21.37 5.34L21.37 5.34Q22.00 5.46 22.34 5.83Q22.69 6.21 22.69 6.77L22.69 6.77Q22.69 7.62 22.04 8.07Q21.39 8.53 20.18 8.53L20.18 8.53Q19.79 8.53 19.36 8.46Q18.94 8.39 18.46 8.25L18.46 8.25L18.46 7.42Q18.81 7.61 19.22 7.70Q19.63 7.79 20.08 7.79L20.08 7.79Q20.83 7.79 21.24 7.52Q21.65 7.25 21.65 6.77L21.65 6.77Q21.65 6.26 21.27 6.00Q20.89 5.74 20.15 5.74L20.15 5.74L19.56 5.74L19.56 5.00L20.21 5.00Q20.85 5.00 21.18 4.79Q21.51 4.57 21.51 4.16L21.51 4.16Q21.51 3.77 21.17 3.56Q20.83 3.35 20.18 3.35L20.18 3.35Q19.91 3.35 19.56 3.41Q19.21 3.47 18.66 3.63L18.66 3.63L18.66 2.84Q19.15 2.73 19.59 2.67Q20.03 2.60 20.41 2.60L20.41 2.60Q21.39 2.60 21.97 3.01Q22.54 3.41 22.54 4.09L22.54 4.09Q22.54 4.56 22.24 4.89Q21.93 5.22 21.37 5.34Z"></path></svg>