<svg height="16.296875" width="29.01171875" xmlns="http://www.w3.org/2000/svg" ><path d="M1.32 13.00L1.32 5.34L2.58 5.34L2.58 13.00L1.32 13.00ZM1.32 3.95L1.32 2.36L2.58 2.36L2.58 3.95L1.32 3.95ZM8.89 5.34L11.76 13.00L10.42 13.00L9.73 11.12L6.34 11.12L5.64 13.00L4.31 13.00L7.18 5.34L8.89 5.34ZM8.03 6.57L6.72 10.10L9.34 10.10L8.03 6.57ZM15.76 5.34L15.76 5.34Q16.39 5.46 16.73 5.83Q17.08 6.21 17.08 6.77L17.08 6.77Q17.08 7.62 16.43 8.07Q15.78 8.53 14.57 8.53L14.57 8.53Q14.18 8.53 13.75 8.46Q13.32 8.39 12.84 8.25L12.84 8.25L12.84 7.42Q13.20 7.61 13.61 7.70Q14.01 7.79 14.47 7.79L14.47 7.79Q15.22 7.79 15.63 7.52Q16.04 7.25 16.04 6.77L16.04 6.77Q16.04 6.26 15.66 6.00Q15.28 5.74 14.54 5.74L14.54 5.74L13.95 5.74L13.95 5.00L14.59 5.00Q15.24 5.00 15.57 4.79Q15.90 4.57 15.90 4.16L15.90 4.16Q15.90 3.77 15.56 3.56Q15.22 3.35 14.57 3.35L14.57 3.35Q14.29 3.35 13.95 3.41Q13.60 3.47 13.04 3.63L13.04 3.63L13.04 2.84Q13.54 2.73 13.98 2.67Q14.42 2.60 14.79 2.60L14.79 2.60Q15.78 2.60 16.35 3.01Q16.93 3.41 16.93 4.09L16.93 4.09Q16.93 4.56 16.63 4.89Q16.32 5.22 15.76 5.34ZM21.37 5.34L21.37 5.34Q22.00 5.46 22.34 5.83Q22.69 6.21 22.69 6.77L22.69 6.77Q22.69 7.62 22.04 8.07Q21.39 8.53 20.18 8.53L20.18 8.53Q19.79 8.53 19.36 8.46Q18.94 8.39 18.46 8.25L18.46 8.25L18.46 7.42Q18.81 7.61 19.22 7.70Q19.63 7.79 20.08 7.79L20.08 7.79Q20.83 7.79 21.24 7.52Q21.65 7.25 21.65 6.77L21.65 6.77Q21.65 6.26 21.27 6.00Q20.89 5.74 20.15 5.74L20.15 5.74L19.56 5.74L19.56 5.00L20.21 5.00Q20.85 5.00 21.18 4.79Q21.51 4.57 21.51 4.16L21.51 4.16Q21.51 3.77 21.17 3.56Q20.83 3.35 20.18 3.35L20.18 3.35Q19.91 3.35 19.56 3.41Q19.21 3.47 18.66 3.63L18.66 3.63L18.66 2.84Q19.15 2.73 19.59 2.67Q20.03 2.60 20.41 2.60L20.41 2.60Q21.39 2.60 21.97 3.01Q22.54 3.41 22.54 4.09L22.54 4.09Q22.54 4.56 22.24 4.89Q21.93 5.22 21.37 5.34ZM26.66 6.41L26.66 3.55L24.55 6.41L26.66 6.41ZM23.83 6.33L26.51 2.72L27.64 2.72L27.64 6.41L28.57 6.41L28.57 7.16L27.64 7.16L27.64 8.43L26.66 8.43L26.66 7.16L23.83 7.16L23.83 6.33Z"></path></svg>