<svg height="16.296875" width="23.693359375" xmlns="http://www.w3.org/2000/svg" ><path d="M1.32 13.00L1.32 5.34L2.58 5.34L2.58 13.00L1.32 13.00ZM1.32 3.95L1.32 2.36L2.58 2.36L2.58 3.95L1.32 3.95ZM9.94 9.15L8.69 9.15Q7.16 9.15 6.58 9.50Q5.99 9.84 5.99 10.68L5.99 10.68Q5.99 11.35 6.43 11.75Q6.87 12.14 7.63 12.14L7.63 12.14Q8.67 12.14 9.31 11.40Q9.94 10.66 9.94 9.43L9.94 9.43L9.94 9.15ZM11.20 8.63L11.20 8.63L11.20 13.00L9.94 13.00L9.94 11.83Q9.51 12.53 8.87 12.86Q8.22 13.19 7.29 13.19L7.29 13.19Q6.12 13.19 5.42 12.53Q4.73 11.87 4.73 10.77L4.73 10.77Q4.73 9.47 5.60 8.82Q6.46 8.16 8.18 8.16L8.18 8.16L9.94 8.16L9.94 8.04Q9.94 7.17 9.37 6.70Q8.80 6.22 7.77 6.22L7.77 6.22Q7.11 6.22 6.49 6.38Q5.87 6.54 5.29 6.85L5.29 6.85L5.29 5.69Q5.98 5.42 6.63 5.29Q7.28 5.15 7.90 5.15L7.90 5.15Q9.56 5.15 10.38 6.02Q11.20 6.88 11.20 8.63ZM8.93 3.63L8.93 3.63L8.54 3.25Q8.39 3.12 8.27 3.05Q8.16 2.99 8.07 2.99L8.07 2.99Q7.81 2.99 7.69 3.24Q7.57 3.49 7.55 4.05L7.55 4.05L6.70 4.05Q6.71 3.12 7.06 2.62Q7.41 2.12 8.03 2.12L8.03 2.12Q8.29 2.12 8.51 2.21Q8.73 2.31 8.98 2.54L8.98 2.54L9.37 2.91Q9.52 3.05 9.64 3.11Q9.75 3.18 9.84 3.18L9.84 3.18Q10.10 3.18 10.22 2.93Q10.34 2.68 10.36 2.12L10.36 2.12L11.21 2.12Q11.20 3.04 10.85 3.54Q10.50 4.05 9.88 4.05L9.88 4.05Q9.62 4.05 9.40 3.95Q9.18 3.86 8.93 3.63ZM13.44 5.58L13.44 2.72L16.93 2.72L16.93 3.37L14.25 3.37L14.25 4.76Q14.44 4.70 14.64 4.68L14.64 4.68Q14.83 4.65 15.03 4.65L15.03 4.65Q16.13 4.65 16.77 5.17L16.77 5.17Q17.41 5.69 17.41 6.59L17.41 6.59Q17.41 7.51 16.75 8.03L16.75 8.03Q16.09 8.53 14.89 8.53L14.89 8.53Q14.48 8.53 14.05 8.47Q13.62 8.41 13.17 8.29L13.17 8.29L13.17 7.51Q13.56 7.70 13.98 7.79L13.98 7.79Q14.40 7.88 14.88 7.88L14.88 7.88Q15.63 7.88 16.08 7.53Q16.52 7.18 16.52 6.59Q16.52 6.00 16.08 5.65Q15.63 5.30 14.88 5.30L14.88 5.30Q14.52 5.30 14.16 5.37Q13.81 5.43 13.44 5.58L13.44 5.58ZM21.66 5.34L21.66 5.34Q22.29 5.46 22.64 5.83Q22.98 6.21 22.98 6.77L22.98 6.77Q22.98 7.62 22.33 8.07Q21.68 8.53 20.47 8.53L20.47 8.53Q20.08 8.53 19.66 8.46Q19.23 8.39 18.75 8.25L18.75 8.25L18.75 7.42Q19.11 7.61 19.51 7.70Q19.92 7.79 20.38 7.79L20.38 7.79Q21.12 7.79 21.53 7.52Q21.94 7.25 21.94 6.77L21.94 6.77Q21.94 6.26 21.56 6.00Q21.18 5.74 20.45 5.74L20.45 5.74L19.86 5.74L19.86 5.00L20.50 5.00Q21.14 5.00 21.48 4.79Q21.81 4.57 21.81 4.16L21.81 4.16Q21.81 3.77 21.46 3.56Q21.12 3.35 20.47 3.35L20.47 3.35Q20.20 3.35 19.85 3.41Q19.50 3.47 18.95 3.63L18.95 3.63L18.95 2.84Q19.45 2.73 19.89 2.67Q20.32 2.60 20.70 2.60L20.70 2.60Q21.68 2.60 22.26 3.01Q22.84 3.41 22.84 4.09L22.84 4.09Q22.84 4.56 22.53 4.89Q22.22 5.22 21.66 5.34Z"></path></svg>