<svg height="16.296875" width="29.3056640625" xmlns="http://www.w3.org/2000/svg" ><path d="M1.32 13.00L1.32 5.34L2.58 5.34L2.58 13.00L1.32 13.00ZM1.32 3.95L1.32 2.36L2.58 2.36L2.58 3.95L1.32 3.95ZM9.94 9.15L8.69 9.15Q7.16 9.15 6.58 9.50Q5.99 9.84 5.99 10.68L5.99 10.68Q5.99 11.35 6.43 11.75Q6.87 12.14 7.63 12.14L7.63 12.14Q8.67 12.14 9.31 11.40Q9.94 10.66 9.94 9.43L9.94 9.43L9.94 9.15ZM11.20 8.63L11.20 8.63L11.20 13.00L9.94 13.00L9.94 11.83Q9.51 12.53 8.87 12.86Q8.22 13.19 7.29 13.19L7.29 13.19Q6.12 13.19 5.42 12.53Q4.73 11.87 4.73 10.77L4.73 10.77Q4.73 9.47 5.60 8.82Q6.46 8.16 8.18 8.16L8.18 8.16L9.94 8.16L9.94 8.04Q9.94 7.17 9.37 6.70Q8.80 6.22 7.77 6.22L7.77 6.22Q7.11 6.22 6.49 6.38Q5.87 6.54 5.29 6.85L5.29 6.85L5.29 5.69Q5.98 5.42 6.63 5.29Q7.28 5.15 7.90 5.15L7.90 5.15Q9.56 5.15 10.38 6.02Q11.20 6.88 11.20 8.63ZM8.93 3.63L8.93 3.63L8.54 3.25Q8.39 3.12 8.27 3.05Q8.16 2.99 8.07 2.99L8.07 2.99Q7.81 2.99 7.69 3.24Q7.57 3.49 7.55 4.05L7.55 4.05L6.70 4.05Q6.71 3.12 7.06 2.62Q7.41 2.12 8.03 2.12L8.03 2.12Q8.29 2.12 8.51 2.21Q8.73 2.31 8.98 2.54L8.98 2.54L9.37 2.91Q9.52 3.05 9.64 3.11Q9.75 3.18 9.84 3.18L9.84 3.18Q10.10 3.18 10.22 2.93Q10.34 2.68 10.36 2.12L10.36 2.12L11.21 2.12Q11.20 3.04 10.85 3.54Q10.50 4.05 9.88 4.05L9.88 4.05Q9.62 4.05 9.40 3.95Q9.18 3.86 8.93 3.63ZM16.05 5.34L16.05 5.34Q16.68 5.46 17.02 5.83Q17.37 6.21 17.37 6.77L17.37 6.77Q17.37 7.62 16.72 8.07Q16.07 8.53 14.86 8.53L14.86 8.53Q14.47 8.53 14.04 8.46Q13.62 8.39 13.14 8.25L13.14 8.25L13.14 7.42Q13.49 7.61 13.90 7.70Q14.31 7.79 14.77 7.79L14.77 7.79Q15.51 7.79 15.92 7.52Q16.33 7.25 16.33 6.77L16.33 6.77Q16.33 6.26 15.95 6.00Q15.57 5.74 14.83 5.74L14.83 5.74L14.25 5.74L14.25 5.00L14.89 5.00Q15.53 5.00 15.86 4.79Q16.19 4.57 16.19 4.16L16.19 4.16Q16.19 3.77 15.85 3.56Q15.51 3.35 14.86 3.35L14.86 3.35Q14.59 3.35 14.24 3.41Q13.89 3.47 13.34 3.63L13.34 3.63L13.34 2.84Q13.84 2.73 14.27 2.67Q14.71 2.60 15.09 2.60L15.09 2.60Q16.07 2.60 16.65 3.01Q17.23 3.41 17.23 4.09L17.23 4.09Q17.23 4.56 16.92 4.89Q16.61 5.22 16.05 5.34ZM21.66 5.34L21.66 5.34Q22.29 5.46 22.64 5.83Q22.98 6.21 22.98 6.77L22.98 6.77Q22.98 7.62 22.33 8.07Q21.68 8.53 20.47 8.53L20.47 8.53Q20.08 8.53 19.66 8.46Q19.23 8.39 18.75 8.25L18.75 8.25L18.75 7.42Q19.11 7.61 19.51 7.70Q19.92 7.79 20.38 7.79L20.38 7.79Q21.12 7.79 21.53 7.52Q21.94 7.25 21.94 6.77L21.94 6.77Q21.94 6.26 21.56 6.00Q21.18 5.74 20.45 5.74L20.45 5.74L19.86 5.74L19.86 5.00L20.50 5.00Q21.14 5.00 21.48 4.79Q21.81 4.57 21.81 4.16L21.81 4.16Q21.81 3.77 21.46 3.56Q21.12 3.35 20.47 3.35L20.47 3.35Q20.20 3.35 19.85 3.41Q19.50 3.47 18.95 3.63L18.95 3.63L18.95 2.84Q19.45 2.73 19.89 2.67Q20.32 2.60 20.70 2.60L20.70 2.60Q21.68 2.60 22.26 3.01Q22.84 3.41 22.84 4.09L22.84 4.09Q22.84 4.56 22.53 4.89Q22.22 5.22 21.66 5.34ZM26.95 6.41L26.95 3.55L24.84 6.41L26.95 6.41ZM24.12 6.33L26.80 2.72L27.94 2.72L27.94 6.41L28.86 6.41L28.86 7.16L27.94 7.16L27.94 8.43L26.95 8.43L26.95 7.16L24.12 7.16L24.12 6.33Z"></path></svg>