<svg height="16.296875" width="30.54296875" xmlns="http://www.w3.org/2000/svg" ><path d="M1.32 13.00L1.32 5.34L2.58 5.34L2.58 13.00L1.32 13.00ZM1.32 3.95L1.32 2.36L2.58 2.36L2.58 3.95L1.32 3.95ZM8.89 5.34L11.76 13.00L10.42 13.00L9.73 11.12L6.34 11.12L5.64 13.00L4.31 13.00L7.18 5.34L8.89 5.34ZM8.03 6.57L6.72 10.10L9.34 10.10L8.03 6.57ZM14.51 13.00L14.50 7.54L14.93 7.54Q16.24 7.54 16.83 6.76L16.83 6.76Q17.23 6.24 17.23 5.57L17.23 5.57Q17.22 4.66 16.83 4.22L16.83 4.22Q16.15 3.44 14.93 3.44L14.93 3.44Q14.38 3.44 13.84 3.59L13.84 3.59Q13.31 3.73 12.78 4.03L12.78 4.03L12.78 2.85Q13.30 2.61 13.85 2.50L13.85 2.50Q14.40 2.37 14.98 2.37L14.98 2.37Q16.86 2.37 17.81 3.45L17.81 3.45Q18.55 4.30 18.55 5.57L18.55 5.57Q18.55 6.73 17.81 7.52L17.81 7.52Q17.05 8.33 15.89 8.54L15.89 8.54L15.89 13.00L14.51 13.00ZM20.29 5.58L20.29 2.72L23.78 2.72L23.78 3.37L21.10 3.37L21.10 4.76Q21.29 4.70 21.49 4.68L21.49 4.68Q21.68 4.65 21.88 4.65L21.88 4.65Q22.98 4.65 23.62 5.17L23.62 5.17Q24.26 5.69 24.26 6.59L24.26 6.59Q24.26 7.51 23.60 8.03L23.60 8.03Q22.94 8.53 21.74 8.53L21.74 8.53Q21.33 8.53 20.90 8.47Q20.47 8.41 20.02 8.29L20.02 8.29L20.02 7.51Q20.41 7.70 20.83 7.79L20.83 7.79Q21.25 7.88 21.72 7.88L21.72 7.88Q22.48 7.88 22.93 7.53Q23.37 7.18 23.37 6.59Q23.37 6.00 22.93 5.65Q22.48 5.30 21.72 5.30L21.72 5.30Q21.37 5.30 21.01 5.37Q20.66 5.43 20.29 5.58L20.29 5.58ZM25.90 5.58L25.90 2.72L29.39 2.72L29.39 3.37L26.71 3.37L26.71 4.76Q26.91 4.70 27.10 4.68L27.10 4.68Q27.30 4.65 27.49 4.65L27.49 4.65Q28.59 4.65 29.23 5.17L29.23 5.17Q29.87 5.69 29.87 6.59L29.87 6.59Q29.87 7.51 29.21 8.03L29.21 8.03Q28.55 8.53 27.35 8.53L27.35 8.53Q26.94 8.53 26.51 8.47Q26.08 8.41 25.63 8.29L25.63 8.29L25.63 7.51Q26.02 7.70 26.44 7.79L26.44 7.79Q26.87 7.88 27.34 7.88L27.34 7.88Q28.10 7.88 28.54 7.53Q28.98 7.18 28.98 6.59Q28.98 6.00 28.54 5.65Q28.10 5.30 27.34 5.30L27.34 5.30Q26.98 5.30 26.63 5.37Q26.27 5.43 25.90 5.58L25.90 5.58Z"></path></svg>