<svg height="16.296875" width="28.4169921875" xmlns="http://www.w3.org/2000/svg" ><path d="M1.32 13.00L1.32 5.34L2.58 5.34L2.58 13.00L1.32 13.00ZM1.32 3.95L1.32 2.36L2.58 2.36L2.58 3.95L1.32 3.95ZM4.76 6.81L4.76 5.65Q5.28 5.40 5.85 5.28Q6.41 5.15 7.05 5.15L7.05 5.15Q8.78 5.15 9.80 6.24Q10.81 7.33 10.81 9.17L10.81 9.17Q10.81 11.05 9.79 12.12Q8.76 13.19 6.97 13.19L6.97 13.19Q6.38 13.19 5.83 13.07Q5.28 12.95 4.76 12.71L4.76 12.71L4.76 11.54Q5.29 11.83 5.83 11.98Q6.36 12.13 6.91 12.13L6.91 12.13Q8.13 12.13 8.81 11.35Q9.49 10.58 9.49 9.17L9.49 9.17Q9.49 7.77 8.81 7.00Q8.13 6.22 6.91 6.22L6.91 6.22Q6.36 6.22 5.83 6.37Q5.29 6.51 4.76 6.81L4.76 6.81ZM15.16 5.34L15.16 5.34Q15.79 5.46 16.14 5.83Q16.48 6.21 16.48 6.77L16.48 6.77Q16.48 7.62 15.83 8.07Q15.18 8.53 13.97 8.53L13.97 8.53Q13.58 8.53 13.16 8.46Q12.73 8.39 12.25 8.25L12.25 8.25L12.25 7.42Q12.61 7.61 13.01 7.70Q13.42 7.79 13.88 7.79L13.88 7.79Q14.62 7.79 15.03 7.52Q15.44 7.25 15.44 6.77L15.44 6.77Q15.44 6.26 15.06 6.00Q14.68 5.74 13.95 5.74L13.95 5.74L13.36 5.74L13.36 5.00L14 5.00Q14.64 5.00 14.97 4.79Q15.31 4.57 15.31 4.16L15.31 4.16Q15.31 3.77 14.96 3.56Q14.62 3.35 13.97 3.35L13.97 3.35Q13.70 3.35 13.35 3.41Q13.00 3.47 12.45 3.63L12.45 3.63L12.45 2.84Q12.95 2.73 13.38 2.67Q13.82 2.60 14.20 2.60L14.20 2.60Q15.18 2.60 15.76 3.01Q16.34 3.41 16.34 4.09L16.34 4.09Q16.34 4.56 16.03 4.89Q15.72 5.22 15.16 5.34ZM20.77 5.34L20.77 5.34Q21.40 5.46 21.75 5.83Q22.09 6.21 22.09 6.77L22.09 6.77Q22.09 7.62 21.44 8.07Q20.79 8.53 19.58 8.53L19.58 8.53Q19.20 8.53 18.77 8.46Q18.34 8.39 17.86 8.25L17.86 8.25L17.86 7.42Q18.22 7.61 18.62 7.70Q19.03 7.79 19.49 7.79L19.49 7.79Q20.23 7.79 20.64 7.52Q21.05 7.25 21.05 6.77L21.05 6.77Q21.05 6.26 20.68 6.00Q20.30 5.74 19.56 5.74L19.56 5.74L18.97 5.74L18.97 5.00L19.61 5.00Q20.25 5.00 20.59 4.79Q20.92 4.57 20.92 4.16L20.92 4.16Q20.92 3.77 20.58 3.56Q20.23 3.35 19.58 3.35L19.58 3.35Q19.31 3.35 18.96 3.41Q18.61 3.47 18.06 3.63L18.06 3.63L18.06 2.84Q18.56 2.73 19.00 2.67Q19.43 2.60 19.81 2.60L19.81 2.60Q20.79 2.60 21.37 3.01Q21.95 3.41 21.95 4.09L21.95 4.09Q21.95 4.56 21.64 4.89Q21.33 5.22 20.77 5.34ZM26.07 6.41L26.07 3.55L23.95 6.41L26.07 6.41ZM23.24 6.33L25.92 2.72L27.05 2.72L27.05 6.41L27.97 6.41L27.97 7.16L27.05 7.16L27.05 8.43L26.07 8.43L26.07 7.16L23.24 7.16L23.24 6.33Z"></path></svg>