<svg height="16.296875" width="29.06640625" xmlns="http://www.w3.org/2000/svg" ><path d="M1.32 13.00L1.32 5.34L2.58 5.34L2.58 13.00L1.32 13.00ZM1.32 3.95L1.32 2.36L2.58 2.36L2.58 3.95L1.32 3.95ZM6.03 5.34L8.06 8.07L10.09 5.34L11.57 5.34L8.85 8.99Q9.34 9.66 9.64 10.18L9.64 10.18Q10.11 11.00 10.11 11.42L10.11 11.42Q10.11 12.31 9.60 12.75Q9.08 13.19 8.06 13.19L8.06 13.19Q7.03 13.19 6.52 12.75Q6.01 12.31 6.01 11.42L6.01 11.42Q6.01 11.00 6.48 10.18L6.48 10.18Q6.78 9.66 7.27 8.99L7.27 8.99L4.55 5.34L6.03 5.34ZM8.06 12.13L8.06 12.13Q8.52 12.13 8.73 11.94L8.73 11.94Q8.92 11.78 8.92 11.47L8.92 11.47Q8.92 11.25 8.65 10.81L8.65 10.81Q8.44 10.47 8.06 9.99L8.06 9.99Q7.68 10.47 7.46 10.81L7.46 10.81Q7.20 11.25 7.20 11.47L7.20 11.47Q7.20 11.78 7.39 11.94L7.39 11.94Q7.60 12.13 8.06 12.13ZM15.81 5.34L15.81 5.34Q16.44 5.46 16.79 5.83Q17.13 6.21 17.13 6.77L17.13 6.77Q17.13 7.62 16.48 8.07Q15.83 8.53 14.62 8.53L14.62 8.53Q14.23 8.53 13.81 8.46Q13.38 8.39 12.90 8.25L12.90 8.25L12.90 7.42Q13.25 7.61 13.66 7.70Q14.07 7.79 14.53 7.79L14.53 7.79Q15.27 7.79 15.68 7.52Q16.09 7.25 16.09 6.77L16.09 6.77Q16.09 6.26 15.71 6.00Q15.33 5.74 14.59 5.74L14.59 5.74L14.01 5.74L14.01 5.00L14.65 5.00Q15.29 5.00 15.62 4.79Q15.96 4.57 15.96 4.16L15.96 4.16Q15.96 3.77 15.61 3.56Q15.27 3.35 14.62 3.35L14.62 3.35Q14.35 3.35 14 3.41Q13.65 3.47 13.10 3.63L13.10 3.63L13.10 2.84Q13.60 2.73 14.03 2.67Q14.47 2.60 14.85 2.60L14.85 2.60Q15.83 2.60 16.41 3.01Q16.99 3.41 16.99 4.09L16.99 4.09Q16.99 4.56 16.68 4.89Q16.37 5.22 15.81 5.34ZM21.42 5.34L21.42 5.34Q22.05 5.46 22.40 5.83Q22.74 6.21 22.74 6.77L22.74 6.77Q22.74 7.62 22.09 8.07Q21.44 8.53 20.23 8.53L20.23 8.53Q19.84 8.53 19.42 8.46Q18.99 8.39 18.51 8.25L18.51 8.25L18.51 7.42Q18.87 7.61 19.27 7.70Q19.68 7.79 20.14 7.79L20.14 7.79Q20.88 7.79 21.29 7.52Q21.70 7.25 21.70 6.77L21.70 6.77Q21.70 6.26 21.32 6.00Q20.95 5.74 20.21 5.74L20.21 5.74L19.62 5.74L19.62 5.00L20.26 5.00Q20.90 5.00 21.24 4.79Q21.57 4.57 21.57 4.16L21.57 4.16Q21.57 3.77 21.23 3.56Q20.88 3.35 20.23 3.35L20.23 3.35Q19.96 3.35 19.61 3.41Q19.26 3.47 18.71 3.63L18.71 3.63L18.71 2.84Q19.21 2.73 19.65 2.67Q20.08 2.60 20.46 2.60L20.46 2.60Q21.44 2.60 22.02 3.01Q22.60 3.41 22.60 4.09L22.60 4.09Q22.60 4.56 22.29 4.89Q21.98 5.22 21.42 5.34ZM26.71 6.41L26.71 3.55L24.60 6.41L26.71 6.41ZM23.88 6.33L26.56 2.72L27.70 2.72L27.70 6.41L28.62 6.41L28.62 7.16L27.70 7.16L27.70 8.43L26.71 8.43L26.71 7.16L23.88 7.16L23.88 6.33Z"></path></svg>