<svg height="16.296875" width="29.599609375" xmlns="http://www.w3.org/2000/svg" ><path d="M1.32 13.00L1.32 5.34L2.58 5.34L2.58 13.00L1.32 13.00ZM1.32 3.95L1.32 2.36L2.58 2.36L2.58 3.95L1.32 3.95ZM11.57 8.37L11.57 8.37L11.57 13.00L10.32 13.00L10.32 8.42Q10.32 7.33 9.89 6.79Q9.47 6.25 8.62 6.25L8.62 6.25Q7.60 6.25 7.01 6.90Q6.43 7.55 6.43 8.67L6.43 8.67L6.43 13.00L5.16 13.00L5.16 5.34L6.43 5.34L6.43 6.53Q6.88 5.84 7.49 5.50Q8.10 5.15 8.90 5.15L8.90 5.15Q10.22 5.15 10.90 5.97Q11.57 6.79 11.57 8.37ZM16.34 5.34L16.34 5.34Q16.97 5.46 17.32 5.83Q17.66 6.21 17.66 6.77L17.66 6.77Q17.66 7.62 17.01 8.07Q16.37 8.53 15.16 8.53L15.16 8.53Q14.77 8.53 14.34 8.46Q13.91 8.39 13.43 8.25L13.43 8.25L13.43 7.42Q13.79 7.61 14.19 7.70Q14.60 7.79 15.06 7.79L15.06 7.79Q15.80 7.79 16.21 7.52Q16.63 7.25 16.63 6.77L16.63 6.77Q16.63 6.26 16.25 6.00Q15.87 5.74 15.13 5.74L15.13 5.74L14.54 5.74L14.54 5.00L15.18 5.00Q15.83 5.00 16.16 4.79Q16.49 4.57 16.49 4.16L16.49 4.16Q16.49 3.77 16.15 3.56Q15.80 3.35 15.16 3.35L15.16 3.35Q14.88 3.35 14.53 3.41Q14.18 3.47 13.63 3.63L13.63 3.63L13.63 2.84Q14.13 2.73 14.57 2.67Q15.00 2.60 15.38 2.60L15.38 2.60Q16.37 2.60 16.94 3.01Q17.52 3.41 17.52 4.09L17.52 4.09Q17.52 4.56 17.21 4.89Q16.91 5.22 16.34 5.34ZM21.96 5.34L21.96 5.34Q22.59 5.46 22.93 5.83Q23.28 6.21 23.28 6.77L23.28 6.77Q23.28 7.62 22.63 8.07Q21.98 8.53 20.77 8.53L20.77 8.53Q20.38 8.53 19.95 8.46Q19.52 8.39 19.04 8.25L19.04 8.25L19.04 7.42Q19.40 7.61 19.81 7.70Q20.21 7.79 20.67 7.79L20.67 7.79Q21.42 7.79 21.83 7.52Q22.24 7.25 22.24 6.77L22.24 6.77Q22.24 6.26 21.86 6.00Q21.48 5.74 20.74 5.74L20.74 5.74L20.15 5.74L20.15 5.00L20.79 5.00Q21.44 5.00 21.77 4.79Q22.10 4.57 22.10 4.16L22.10 4.16Q22.10 3.77 21.76 3.56Q21.42 3.35 20.77 3.35L20.77 3.35Q20.49 3.35 20.15 3.41Q19.80 3.47 19.24 3.63L19.24 3.63L19.24 2.84Q19.74 2.73 20.18 2.67Q20.62 2.60 20.99 2.60L20.99 2.60Q21.98 2.60 22.56 3.01Q23.13 3.41 23.13 4.09L23.13 4.09Q23.13 4.56 22.83 4.89Q22.52 5.22 21.96 5.34ZM27.25 6.41L27.25 3.55L25.14 6.41L27.25 6.41ZM24.42 6.33L27.10 2.72L28.23 2.72L28.23 6.41L29.16 6.41L29.16 7.16L28.23 7.16L28.23 8.43L27.25 8.43L27.25 7.16L24.42 7.16L24.42 6.33Z"></path></svg>