<svg height="16.296875" width="28.0751953125" xmlns="http://www.w3.org/2000/svg" ><path d="M7.87 5.34L4.50 13.71Q3.97 15.07 3.47 15.49Q2.96 15.91 2.11 15.91L2.11 15.91L1.11 15.91L1.11 14.85L1.85 14.85Q2.37 14.85 2.65 14.61Q2.94 14.36 3.29 13.45L3.29 13.45L3.51 12.87L0.42 5.34L1.75 5.34L4.14 11.33L6.54 5.34L7.87 5.34ZM14.47 7.52L14.47 7.52L11.14 11.57Q11.42 11.85 11.77 11.99Q12.13 12.13 12.57 12.13L12.57 12.13Q13.58 12.13 14.16 11.33Q14.75 10.54 14.75 9.17L14.75 9.17Q14.75 8.63 14.68 8.23Q14.62 7.83 14.47 7.52ZM10.65 10.83L13.99 6.78Q13.70 6.50 13.35 6.36Q13.00 6.22 12.57 6.22L12.57 6.22Q11.54 6.22 10.96 7.02Q10.38 7.83 10.38 9.27L10.38 9.27Q10.38 9.76 10.45 10.14Q10.51 10.51 10.65 10.83L10.65 10.83ZM8.78 13.10L9.80 11.86Q9.43 11.33 9.24 10.66Q9.06 9.99 9.06 9.17L9.06 9.17Q9.06 7.29 9.99 6.22Q10.92 5.15 12.57 5.15L12.57 5.15Q13.21 5.15 13.75 5.33Q14.29 5.50 14.75 5.86L14.75 5.86L15.70 4.71L16.35 5.25L15.35 6.47Q15.72 7 15.90 7.68Q16.08 8.35 16.08 9.17L16.08 9.17Q16.08 11.05 15.15 12.12Q14.21 13.19 12.57 13.19L12.57 13.19Q11.92 13.19 11.36 13.02Q10.81 12.84 10.38 12.49L10.38 12.49L9.43 13.64L8.78 13.10ZM17.82 5.58L17.82 2.72L21.31 2.72L21.31 3.37L18.63 3.37L18.63 4.76Q18.83 4.70 19.02 4.68L19.02 4.68Q19.22 4.65 19.41 4.65L19.41 4.65Q20.51 4.65 21.15 5.17L21.15 5.17Q21.79 5.69 21.79 6.59L21.79 6.59Q21.79 7.51 21.13 8.03L21.13 8.03Q20.47 8.53 19.27 8.53L19.27 8.53Q18.86 8.53 18.43 8.47Q18.00 8.41 17.55 8.29L17.55 8.29L17.55 7.51Q17.94 7.70 18.36 7.79L18.36 7.79Q18.79 7.88 19.26 7.88L19.26 7.88Q20.02 7.88 20.46 7.53Q20.90 7.18 20.90 6.59Q20.90 6.00 20.46 5.65Q20.02 5.30 19.26 5.30L19.26 5.30Q18.90 5.30 18.55 5.37Q18.19 5.43 17.82 5.58L17.82 5.58ZM26.04 5.34L26.04 5.34Q26.67 5.46 27.02 5.83Q27.36 6.21 27.36 6.77L27.36 6.77Q27.36 7.62 26.71 8.07Q26.07 8.53 24.86 8.53L24.86 8.53Q24.47 8.53 24.04 8.46Q23.61 8.39 23.13 8.25L23.13 8.25L23.13 7.42Q23.49 7.61 23.90 7.70Q24.30 7.79 24.76 7.79L24.76 7.79Q25.50 7.79 25.92 7.52Q26.33 7.25 26.33 6.77L26.33 6.77Q26.33 6.26 25.95 6.00Q25.57 5.74 24.83 5.74L24.83 5.74L24.24 5.74L24.24 5.00L24.88 5.00Q25.53 5.00 25.86 4.79Q26.19 4.57 26.19 4.16L26.19 4.16Q26.19 3.77 25.85 3.56Q25.50 3.35 24.86 3.35L24.86 3.35Q24.58 3.35 24.23 3.41Q23.88 3.47 23.33 3.63L23.33 3.63L23.33 2.84Q23.83 2.73 24.27 2.67Q24.71 2.60 25.08 2.60L25.08 2.60Q26.07 2.60 26.64 3.01Q27.22 3.41 27.22 4.09L27.22 4.09Q27.22 4.56 26.91 4.89Q26.61 5.22 26.04 5.34Z"></path></svg>