<svg height="16.296875" width="38.1650390625" xmlns="http://www.w3.org/2000/svg" ><path d="M1.32 13.00L1.32 5.34L2.58 5.34L2.58 13.00L1.32 13.00ZM1.32 3.95L1.32 2.36L2.58 2.36L2.58 3.95L1.32 3.95ZM8.18 6.22L8.18 6.22Q7.16 6.22 6.58 7.01Q5.99 7.80 5.99 9.17L5.99 9.17Q5.99 10.55 6.57 11.34Q7.16 12.13 8.18 12.13L8.18 12.13Q9.18 12.13 9.77 11.33Q10.36 10.54 10.36 9.17L10.36 9.17Q10.36 7.81 9.77 7.02Q9.18 6.22 8.18 6.22ZM8.18 5.15L8.18 5.15Q9.82 5.15 10.75 6.22Q11.69 7.29 11.69 9.17L11.69 9.17Q11.69 11.05 10.75 12.12Q9.82 13.19 8.18 13.19L8.18 13.19Q6.53 13.19 5.60 12.12Q4.66 11.05 4.66 9.17L4.66 9.17Q4.66 7.29 5.60 6.22Q6.53 5.15 8.18 5.15ZM20.14 8.37L20.14 8.37L20.14 13.13Q20.14 14.59 19.58 15.25L19.58 15.25Q19.02 15.91 17.79 15.91L17.79 15.91L16.05 15.91L16.05 14.84L17.64 14.84Q18.36 14.84 18.62 14.51L18.62 14.51Q18.88 14.18 18.88 13.13L18.88 13.13L18.88 8.42Q18.88 7.33 18.46 6.79Q18.03 6.25 17.19 6.25L17.19 6.25Q16.17 6.25 15.58 6.90Q14.99 7.55 14.99 8.67L14.99 8.67L14.99 13.00L13.73 13.00L13.73 5.34L14.99 5.34L14.99 6.53Q15.44 5.84 16.05 5.50L16.05 5.50Q16.67 5.15 17.47 5.15L17.47 5.15Q18.79 5.15 19.46 5.97L19.46 5.97Q20.14 6.79 20.14 8.37ZM24.91 5.34L24.91 5.34Q25.54 5.46 25.88 5.83Q26.23 6.21 26.23 6.77L26.23 6.77Q26.23 7.62 25.58 8.07Q24.93 8.53 23.72 8.53L23.72 8.53Q23.33 8.53 22.90 8.46Q22.48 8.39 22.00 8.25L22.00 8.25L22.00 7.42Q22.35 7.61 22.76 7.70Q23.17 7.79 23.63 7.79L23.63 7.79Q24.37 7.79 24.78 7.52Q25.19 7.25 25.19 6.77L25.19 6.77Q25.19 6.26 24.81 6.00Q24.43 5.74 23.69 5.74L23.69 5.74L23.11 5.74L23.11 5.00L23.75 5.00Q24.39 5.00 24.72 4.79Q25.05 4.57 25.05 4.16L25.05 4.16Q25.05 3.77 24.71 3.56Q24.37 3.35 23.72 3.35L23.72 3.35Q23.45 3.35 23.10 3.41Q22.75 3.47 22.20 3.63L22.20 3.63L22.20 2.84Q22.70 2.73 23.13 2.67Q23.57 2.60 23.95 2.60L23.95 2.60Q24.93 2.60 25.51 3.01Q26.09 3.41 26.09 4.09L26.09 4.09Q26.09 4.56 25.78 4.89Q25.47 5.22 24.91 5.34ZM30.52 5.34L30.52 5.34Q31.15 5.46 31.50 5.83Q31.84 6.21 31.84 6.77L31.84 6.77Q31.84 7.62 31.19 8.07Q30.54 8.53 29.33 8.53L29.33 8.53Q28.94 8.53 28.52 8.46Q28.09 8.39 27.61 8.25L27.61 8.25L27.61 7.42Q27.97 7.61 28.37 7.70Q28.78 7.79 29.24 7.79L29.24 7.79Q29.98 7.79 30.39 7.52Q30.80 7.25 30.80 6.77L30.80 6.77Q30.80 6.26 30.42 6.00Q30.04 5.74 29.31 5.74L29.31 5.74L28.72 5.74L28.72 5.00L29.36 5.00Q30.00 5.00 30.33 4.79Q30.67 4.57 30.67 4.16L30.67 4.16Q30.67 3.77 30.32 3.56Q29.98 3.35 29.33 3.35L29.33 3.35Q29.06 3.35 28.71 3.41Q28.36 3.47 27.81 3.63L27.81 3.63L27.81 2.84Q28.31 2.73 28.75 2.67Q29.18 2.60 29.56 2.60L29.56 2.60Q30.54 2.60 31.12 3.01Q31.70 3.41 31.70 4.09L31.70 4.09Q31.70 4.56 31.39 4.89Q31.08 5.22 30.52 5.34ZM35.81 6.41L35.81 3.55L33.70 6.41L35.81 6.41ZM32.98 6.33L35.66 2.72L36.80 2.72L36.80 6.41L37.72 6.41L37.72 7.16L36.80 7.16L36.80 8.43L35.81 8.43L35.81 7.16L32.98 7.16L32.98 6.33Z"></path></svg>