<svg height="16.296875" width="30.8232421875" xmlns="http://www.w3.org/2000/svg" ><path d="M1.32 13.00L1.32 5.34L2.58 5.34L2.58 13.00L1.32 13.00ZM1.32 3.95L1.32 2.36L2.58 2.36L2.58 3.95L1.32 3.95ZM8.18 6.22L8.18 6.22Q7.16 6.22 6.58 7.01Q5.99 7.80 5.99 9.17L5.99 9.17Q5.99 10.55 6.57 11.34Q7.16 12.13 8.18 12.13L8.18 12.13Q9.18 12.13 9.77 11.33Q10.36 10.54 10.36 9.17L10.36 9.17Q10.36 7.81 9.77 7.02Q9.18 6.22 8.18 6.22ZM8.18 5.15L8.18 5.15Q9.82 5.15 10.75 6.22Q11.69 7.29 11.69 9.17L11.69 9.17Q11.69 11.05 10.75 12.12Q9.82 13.19 8.18 13.19L8.18 13.19Q6.53 13.19 5.60 12.12Q4.66 11.05 4.66 9.17L4.66 9.17Q4.66 7.29 5.60 6.22Q6.53 5.15 8.18 5.15ZM14.79 13.00L14.78 7.54L15.21 7.54Q16.52 7.54 17.11 6.76L17.11 6.76Q17.51 6.24 17.51 5.57L17.51 5.57Q17.50 4.66 17.11 4.22L17.11 4.22Q16.43 3.44 15.21 3.44L15.21 3.44Q14.66 3.44 14.12 3.59L14.12 3.59Q13.59 3.73 13.06 4.03L13.06 4.03L13.06 2.85Q13.58 2.61 14.13 2.50L14.13 2.50Q14.68 2.37 15.26 2.37L15.26 2.37Q17.14 2.37 18.09 3.45L18.09 3.45Q18.83 4.30 18.83 5.57L18.83 5.57Q18.83 6.73 18.09 7.52L18.09 7.52Q17.33 8.33 16.17 8.54L16.17 8.54L16.17 13.00L14.79 13.00ZM20.57 5.58L20.57 2.72L24.06 2.72L24.06 3.37L21.38 3.37L21.38 4.76Q21.57 4.70 21.77 4.68L21.77 4.68Q21.96 4.65 22.16 4.65L22.16 4.65Q23.26 4.65 23.90 5.17L23.90 5.17Q24.54 5.69 24.54 6.59L24.54 6.59Q24.54 7.51 23.88 8.03L23.88 8.03Q23.22 8.53 22.02 8.53L22.02 8.53Q21.61 8.53 21.18 8.47Q20.75 8.41 20.30 8.29L20.30 8.29L20.30 7.51Q20.69 7.70 21.11 7.79L21.11 7.79Q21.53 7.88 22.00 7.88L22.00 7.88Q22.76 7.88 23.21 7.53Q23.65 7.18 23.65 6.59Q23.65 6.00 23.21 5.65Q22.76 5.30 22.00 5.30L22.00 5.30Q21.65 5.30 21.29 5.37Q20.94 5.43 20.57 5.58L20.57 5.58ZM26.18 5.58L26.18 2.72L29.67 2.72L29.67 3.37L27.00 3.37L27.00 4.76Q27.19 4.70 27.38 4.68L27.38 4.68Q27.58 4.65 27.77 4.65L27.77 4.65Q28.87 4.65 29.51 5.17L29.51 5.17Q30.15 5.69 30.15 6.59L30.15 6.59Q30.15 7.51 29.49 8.03L29.49 8.03Q28.83 8.53 27.63 8.53L27.63 8.53Q27.22 8.53 26.79 8.47Q26.36 8.41 25.91 8.29L25.91 8.29L25.91 7.51Q26.30 7.70 26.72 7.79L26.72 7.79Q27.15 7.88 27.62 7.88L27.62 7.88Q28.38 7.88 28.82 7.53Q29.26 7.18 29.26 6.59Q29.26 6.00 28.82 5.65Q28.38 5.30 27.62 5.30L27.62 5.30Q27.26 5.30 26.91 5.37Q26.55 5.43 26.18 5.58L26.18 5.58Z"></path></svg>