<svg height="16.296875" width="27.4599609375" xmlns="http://www.w3.org/2000/svg" ><path d="M1.32 13.00L1.32 5.34L2.58 5.34L2.58 13.00L1.32 13.00ZM1.32 3.95L1.32 2.36L2.58 2.36L2.58 3.95L1.32 3.95ZM5.89 6.46L4.68 6.46L4.68 5.34L8.29 5.34L8.29 6.46L7.14 6.46L7.14 11.87L8.29 11.87L8.29 13.00L4.68 13.00L4.68 11.87L5.89 11.87L5.89 6.46ZM11.42 13.00L11.42 7.54L11.85 7.54Q13.16 7.54 13.75 6.76L13.75 6.76Q14.14 6.24 14.14 5.57L14.14 5.57Q14.14 4.66 13.75 4.22L13.75 4.22Q13.07 3.44 11.85 3.44L11.85 3.44Q11.30 3.44 10.76 3.59L10.76 3.59Q10.23 3.73 9.69 4.03L9.69 4.03L9.69 2.85Q10.21 2.61 10.77 2.50L10.77 2.50Q11.32 2.37 11.90 2.37L11.90 2.37Q13.78 2.37 14.72 3.45L14.72 3.45Q15.47 4.30 15.47 5.57L15.47 5.57Q15.47 6.73 14.73 7.52L14.73 7.52Q13.97 8.33 12.80 8.54L12.80 8.54L12.80 13.00L11.42 13.00ZM17.21 5.58L17.21 2.72L20.69 2.72L20.69 3.37L18.02 3.37L18.02 4.76Q18.21 4.70 18.41 4.68L18.41 4.68Q18.60 4.65 18.79 4.65L18.79 4.65Q19.89 4.65 20.54 5.17L20.54 5.17Q21.18 5.69 21.18 6.59L21.18 6.59Q21.18 7.51 20.51 8.03L20.51 8.03Q19.86 8.53 18.66 8.53L18.66 8.53Q18.25 8.53 17.81 8.47Q17.38 8.41 16.93 8.29L16.93 8.29L16.93 7.51Q17.32 7.70 17.75 7.79L17.75 7.79Q18.17 7.88 18.64 7.88L18.64 7.88Q19.40 7.88 19.84 7.53Q20.29 7.18 20.29 6.59Q20.29 6.00 19.84 5.65Q19.40 5.30 18.64 5.30L18.64 5.30Q18.29 5.30 17.93 5.37Q17.58 5.43 17.21 5.58L17.21 5.58ZM22.82 5.58L22.82 2.72L26.30 2.72L26.30 3.37L23.63 3.37L23.63 4.76Q23.82 4.70 24.02 4.68L24.02 4.68Q24.21 4.65 24.40 4.65L24.40 4.65Q25.50 4.65 26.15 5.17L26.15 5.17Q26.79 5.69 26.79 6.59L26.79 6.59Q26.79 7.51 26.13 8.03L26.13 8.03Q25.47 8.53 24.27 8.53L24.27 8.53Q23.86 8.53 23.43 8.47Q23.00 8.41 22.54 8.29L22.54 8.29L22.54 7.51Q22.93 7.70 23.36 7.79L23.36 7.79Q23.78 7.88 24.25 7.88L24.25 7.88Q25.01 7.88 25.46 7.53Q25.90 7.18 25.90 6.59Q25.90 6.00 25.46 5.65Q25.01 5.30 24.25 5.30L24.25 5.30Q23.90 5.30 23.54 5.37Q23.19 5.43 22.82 5.58L22.82 5.58Z"></path></svg>