<svg height="16.296875" width="19.509765625" xmlns="http://www.w3.org/2000/svg" ><path d="M7.87 5.34L4.50 13.71Q3.97 15.07 3.47 15.49Q2.96 15.91 2.11 15.91L2.11 15.91L1.11 15.91L1.11 14.85L1.85 14.85Q2.37 14.85 2.65 14.61Q2.94 14.36 3.29 13.45L3.29 13.45L3.51 12.87L0.42 5.34L1.75 5.34L4.14 11.33L6.54 5.34L7.87 5.34ZM9.26 5.58L9.26 2.72L12.74 2.72L12.74 3.37L10.07 3.37L10.07 4.76Q10.26 4.70 10.46 4.68L10.46 4.68Q10.65 4.65 10.84 4.65L10.84 4.65Q11.94 4.65 12.58 5.17L12.58 5.17Q13.23 5.69 13.23 6.59L13.23 6.59Q13.23 7.51 12.56 8.03L12.56 8.03Q11.91 8.53 10.71 8.53L10.71 8.53Q10.29 8.53 9.86 8.47Q9.43 8.41 8.98 8.29L8.98 8.29L8.98 7.51Q9.37 7.70 9.80 7.79L9.80 7.79Q10.22 7.88 10.69 7.88L10.69 7.88Q11.45 7.88 11.89 7.53Q12.34 7.18 12.34 6.59Q12.34 6.00 11.89 5.65Q11.45 5.30 10.69 5.30L10.69 5.30Q10.34 5.30 9.98 5.37Q9.63 5.43 9.26 5.58L9.26 5.58ZM17.48 5.34L17.48 5.34Q18.11 5.46 18.45 5.83Q18.80 6.21 18.80 6.77L18.80 6.77Q18.80 7.62 18.15 8.07Q17.50 8.53 16.29 8.53L16.29 8.53Q15.90 8.53 15.47 8.46Q15.05 8.39 14.57 8.25L14.57 8.25L14.57 7.42Q14.92 7.61 15.33 7.70Q15.74 7.79 16.19 7.79L16.19 7.79Q16.94 7.79 17.35 7.52Q17.76 7.25 17.76 6.77L17.76 6.77Q17.76 6.26 17.38 6.00Q17.00 5.74 16.26 5.74L16.26 5.74L15.67 5.74L15.67 5.00L16.32 5.00Q16.96 5.00 17.29 4.79Q17.62 4.57 17.62 4.16L17.62 4.16Q17.62 3.77 17.28 3.56Q16.94 3.35 16.29 3.35L16.29 3.35Q16.02 3.35 15.67 3.41Q15.32 3.47 14.77 3.63L14.77 3.63L14.77 2.84Q15.26 2.73 15.70 2.67Q16.14 2.60 16.52 2.60L16.52 2.60Q17.50 2.60 18.08 3.01Q18.66 3.41 18.66 4.09L18.66 4.09Q18.66 4.56 18.35 4.89Q18.04 5.22 17.48 5.34Z"></path></svg>