<svg height="16.296875" width="25.1220703125" xmlns="http://www.w3.org/2000/svg" ><path d="M7.87 5.34L4.50 13.71Q3.97 15.07 3.47 15.49Q2.96 15.91 2.11 15.91L2.11 15.91L1.11 15.91L1.11 14.85L1.85 14.85Q2.37 14.85 2.65 14.61Q2.94 14.36 3.29 13.45L3.29 13.45L3.51 12.87L0.42 5.34L1.75 5.34L4.14 11.33L6.54 5.34L7.87 5.34ZM11.87 5.34L11.87 5.34Q12.50 5.46 12.84 5.83Q13.19 6.21 13.19 6.77L13.19 6.77Q13.19 7.62 12.54 8.07Q11.89 8.53 10.68 8.53L10.68 8.53Q10.29 8.53 9.86 8.46Q9.43 8.39 8.96 8.25L8.96 8.25L8.96 7.42Q9.31 7.61 9.72 7.70Q10.12 7.79 10.58 7.79L10.58 7.79Q11.33 7.79 11.74 7.52Q12.15 7.25 12.15 6.77L12.15 6.77Q12.15 6.26 11.77 6.00Q11.39 5.74 10.65 5.74L10.65 5.74L10.06 5.74L10.06 5.00L10.71 5.00Q11.35 5.00 11.68 4.79Q12.01 4.57 12.01 4.16L12.01 4.16Q12.01 3.77 11.67 3.56Q11.33 3.35 10.68 3.35L10.68 3.35Q10.40 3.35 10.06 3.41Q9.71 3.47 9.15 3.63L9.15 3.63L9.15 2.84Q9.65 2.73 10.09 2.67Q10.53 2.60 10.90 2.60L10.90 2.60Q11.89 2.60 12.47 3.01Q13.04 3.41 13.04 4.09L13.04 4.09Q13.04 4.56 12.74 4.89Q12.43 5.22 11.87 5.34ZM17.48 5.34L17.48 5.34Q18.11 5.46 18.45 5.83Q18.80 6.21 18.80 6.77L18.80 6.77Q18.80 7.62 18.15 8.07Q17.50 8.53 16.29 8.53L16.29 8.53Q15.90 8.53 15.47 8.46Q15.05 8.39 14.57 8.25L14.57 8.25L14.57 7.42Q14.92 7.61 15.33 7.70Q15.74 7.79 16.19 7.79L16.19 7.79Q16.94 7.79 17.35 7.52Q17.76 7.25 17.76 6.77L17.76 6.77Q17.76 6.26 17.38 6.00Q17.00 5.74 16.26 5.74L16.26 5.74L15.67 5.74L15.67 5.00L16.32 5.00Q16.96 5.00 17.29 4.79Q17.62 4.57 17.62 4.16L17.62 4.16Q17.62 3.77 17.28 3.56Q16.94 3.35 16.29 3.35L16.29 3.35Q16.02 3.35 15.67 3.41Q15.32 3.47 14.77 3.63L14.77 3.63L14.77 2.84Q15.26 2.73 15.70 2.67Q16.14 2.60 16.52 2.60L16.52 2.60Q17.50 2.60 18.08 3.01Q18.66 3.41 18.66 4.09L18.66 4.09Q18.66 4.56 18.35 4.89Q18.04 5.22 17.48 5.34ZM22.77 6.41L22.77 3.55L20.66 6.41L22.77 6.41ZM19.94 6.33L22.62 2.72L23.75 2.72L23.75 6.41L24.68 6.41L24.68 7.16L23.75 7.16L23.75 8.43L22.77 8.43L22.77 7.16L19.94 7.16L19.94 6.33Z"></path></svg>