<svg height="16.296875" width="31.85546875" xmlns="http://www.w3.org/2000/svg" ><path d="M7.87 5.34L4.50 13.71Q3.97 15.07 3.47 15.49Q2.96 15.91 2.11 15.91L2.11 15.91L1.11 15.91L1.11 14.85L1.85 14.85Q2.37 14.85 2.65 14.61Q2.94 14.36 3.29 13.45L3.29 13.45L3.51 12.87L0.42 5.34L1.75 5.34L4.14 11.33L6.54 5.34L7.87 5.34ZM10.28 6.46L9.08 6.46L9.08 5.34L12.69 5.34L12.69 6.46L11.54 6.46L11.54 11.87L12.69 11.87L12.69 13.00L9.08 13.00L9.08 11.87L10.28 11.87L10.28 6.46ZM15.82 13.00L15.81 7.54L16.24 7.54Q17.55 7.54 18.14 6.76L18.14 6.76Q18.54 6.24 18.54 5.57L18.54 5.57Q18.53 4.66 18.14 4.22L18.14 4.22Q17.47 3.44 16.24 3.44L16.24 3.44Q15.70 3.44 15.16 3.59L15.16 3.59Q14.62 3.73 14.09 4.03L14.09 4.03L14.09 2.85Q14.61 2.61 15.16 2.50L15.16 2.50Q15.72 2.37 16.30 2.37L16.30 2.37Q18.18 2.37 19.12 3.45L19.12 3.45Q19.87 4.30 19.87 5.57L19.87 5.57Q19.87 6.73 19.13 7.52L19.13 7.52Q18.36 8.33 17.20 8.54L17.20 8.54L17.20 13.00L15.82 13.00ZM21.60 5.58L21.60 2.72L25.09 2.72L25.09 3.37L22.42 3.37L22.42 4.76Q22.61 4.70 22.80 4.68L22.80 4.68Q23.00 4.65 23.19 4.65L23.19 4.65Q24.29 4.65 24.93 5.17L24.93 5.17Q25.57 5.69 25.57 6.59L25.57 6.59Q25.57 7.51 24.91 8.03L24.91 8.03Q24.25 8.53 23.05 8.53L23.05 8.53Q22.64 8.53 22.21 8.47Q21.78 8.41 21.33 8.29L21.33 8.29L21.33 7.51Q21.72 7.70 22.14 7.79L22.14 7.79Q22.57 7.88 23.04 7.88L23.04 7.88Q23.80 7.88 24.24 7.53Q24.68 7.18 24.68 6.59Q24.68 6.00 24.24 5.65Q23.80 5.30 23.04 5.30L23.04 5.30Q22.68 5.30 22.33 5.37Q21.97 5.43 21.60 5.58L21.60 5.58ZM27.21 5.58L27.21 2.72L30.70 2.72L30.70 3.37L28.03 3.37L28.03 4.76Q28.22 4.70 28.42 4.68L28.42 4.68Q28.61 4.65 28.80 4.65L28.80 4.65Q29.90 4.65 30.54 5.17L30.54 5.17Q31.19 5.69 31.19 6.59L31.19 6.59Q31.19 7.51 30.52 8.03L30.52 8.03Q29.87 8.53 28.66 8.53L28.66 8.53Q28.25 8.53 27.82 8.47Q27.39 8.41 26.94 8.29L26.94 8.29L26.94 7.51Q27.33 7.70 27.75 7.79L27.75 7.79Q28.18 7.88 28.65 7.88L28.65 7.88Q29.41 7.88 29.85 7.53Q30.30 7.18 30.30 6.59Q30.30 6.00 29.85 5.65Q29.41 5.30 28.65 5.30L28.65 5.30Q28.29 5.30 27.94 5.37Q27.58 5.43 27.21 5.58L27.21 5.58Z"></path></svg>