<svg height="16.296875" width="36.9619140625" xmlns="http://www.w3.org/2000/svg" ><path d="M6.36 6.50L6.36 6.50L6.36 2.36L7.62 2.36L7.62 13.00L6.36 13.00L6.36 11.85Q5.96 12.53 5.36 12.86Q4.75 13.19 3.90 13.19L3.90 13.19Q2.52 13.19 1.64 12.09Q0.77 10.98 0.77 9.17L0.77 9.17Q0.77 7.37 1.64 6.26Q2.52 5.15 3.90 5.15L3.90 5.15Q4.75 5.15 5.36 5.49Q5.96 5.82 6.36 6.50ZM2.07 9.17L2.07 9.17Q2.07 10.56 2.64 11.35Q3.21 12.14 4.21 12.14L4.21 12.14Q5.21 12.14 5.78 11.35Q6.36 10.56 6.36 9.17L6.36 9.17Q6.36 7.79 5.78 7.00Q5.21 6.21 4.21 6.21L4.21 6.21Q3.21 6.21 2.64 7.00Q2.07 7.79 2.07 9.17ZM9.66 6.34L9.66 5.34L15.63 5.34L15.63 6.49L10.90 11.99L12.10 11.99Q12.33 10.88 12.91 10.40L12.91 10.40Q13.35 10.02 14.01 10.02L14.01 10.02Q14.91 10.02 15.31 10.62L15.31 10.62Q15.57 11.01 15.57 11.60L15.57 11.60Q15.57 12.26 15.15 12.58L15.15 12.58Q14.59 13.00 13.73 13.00L13.73 13.00L13.01 13.00Q12.99 13.34 12.99 13.75L12.99 13.75L11.94 13.75Q11.94 13.35 11.96 13.00L11.96 13.00L9.49 13.00L9.49 11.85L14.22 6.34L9.66 6.34ZM13.15 11.99L13.15 11.99L13.54 11.99Q14.48 11.99 14.48 11.62L14.48 11.62Q14.48 10.99 14 11.00L14 11.00Q13.40 11.01 13.15 11.99ZM17.55 13.00L17.55 5.34L18.81 5.34L18.81 13.00L17.55 13.00ZM17.55 3.95L17.55 2.36L18.81 2.36L18.81 3.95L17.55 3.95ZM21.19 8.43L21.19 7.68L22.59 7.68L22.59 3.50L21.06 3.78L21.06 2.99L22.63 2.72L23.57 2.72L23.57 7.68L24.97 7.68L24.97 8.43L21.19 8.43ZM26.80 8.43L26.80 7.68L28.20 7.68L28.20 3.50L26.67 3.78L26.67 2.99L28.25 2.72L29.18 2.72L29.18 7.68L30.58 7.68L30.58 8.43L26.80 8.43ZM34.93 5.34L34.93 5.34Q35.56 5.46 35.91 5.83Q36.25 6.21 36.25 6.77L36.25 6.77Q36.25 7.62 35.60 8.07Q34.95 8.53 33.74 8.53L33.74 8.53Q33.35 8.53 32.93 8.46Q32.50 8.39 32.02 8.25L32.02 8.25L32.02 7.42Q32.38 7.61 32.78 7.70Q33.19 7.79 33.65 7.79L33.65 7.79Q34.39 7.79 34.80 7.52Q35.21 7.25 35.21 6.77L35.21 6.77Q35.21 6.26 34.83 6.00Q34.45 5.74 33.71 5.74L33.71 5.74L33.13 5.74L33.13 5.00L33.77 5.00Q34.41 5.00 34.74 4.79Q35.08 4.57 35.08 4.16L35.08 4.16Q35.08 3.77 34.73 3.56Q34.39 3.35 33.74 3.35L33.74 3.35Q33.47 3.35 33.12 3.41Q32.77 3.47 32.22 3.63L32.22 3.63L32.22 2.84Q32.72 2.73 33.15 2.67Q33.59 2.60 33.97 2.60L33.97 2.60Q34.95 2.60 35.53 3.01Q36.11 3.41 36.11 4.09L36.11 4.09Q36.11 4.56 35.80 4.89Q35.49 5.22 34.93 5.34Z"></path></svg>