<svg height="16.296875" width="45.2470703125" xmlns="http://www.w3.org/2000/svg" ><path d="M6.36 6.50L6.36 6.50L6.36 2.36L7.62 2.36L7.62 13.00L6.36 13.00L6.36 11.85Q5.96 12.53 5.36 12.86Q4.75 13.19 3.90 13.19L3.90 13.19Q2.52 13.19 1.64 12.09Q0.77 10.98 0.77 9.17L0.77 9.17Q0.77 7.37 1.64 6.26Q2.52 5.15 3.90 5.15L3.90 5.15Q4.75 5.15 5.36 5.49Q5.96 5.82 6.36 6.50ZM2.07 9.17L2.07 9.17Q2.07 10.56 2.64 11.35Q3.21 12.14 4.21 12.14L4.21 12.14Q5.21 12.14 5.78 11.35Q6.36 10.56 6.36 9.17L6.36 9.17Q6.36 7.79 5.78 7.00Q5.21 6.21 4.21 6.21L4.21 6.21Q3.21 6.21 2.64 7.00Q2.07 7.79 2.07 9.17ZM9.66 6.34L9.66 5.34L15.63 5.34L15.63 6.49L10.90 11.99L12.10 11.99Q12.33 10.88 12.91 10.40L12.91 10.40Q13.35 10.02 14.01 10.02L14.01 10.02Q14.91 10.02 15.31 10.62L15.31 10.62Q15.57 11.01 15.57 11.60L15.57 11.60Q15.57 12.26 15.15 12.58L15.15 12.58Q14.59 13.00 13.73 13.00L13.73 13.00L13.01 13.00Q12.99 13.34 12.99 13.75L12.99 13.75L11.94 13.75Q11.94 13.35 11.96 13.00L11.96 13.00L9.49 13.00L9.49 11.85L14.22 6.34L9.66 6.34ZM13.15 11.99L13.15 11.99L13.54 11.99Q14.48 11.99 14.48 11.62L14.48 11.62Q14.48 10.99 14 11.00L14 11.00Q13.40 11.01 13.15 11.99ZM17.55 13.00L17.55 5.34L18.81 5.34L18.81 13.00L17.55 13.00ZM17.55 3.95L17.55 2.36L18.81 2.36L18.81 3.95L17.55 3.95ZM25.12 5.34L27.99 13.00L26.66 13.00L25.96 11.12L22.57 11.12L21.88 13.00L20.54 13.00L23.41 5.34L25.12 5.34ZM24.27 6.57L22.96 10.10L25.58 10.10L24.27 6.57ZM29.48 8.43L29.48 7.68L30.87 7.68L30.87 3.50L29.35 3.78L29.35 2.99L30.92 2.72L31.86 2.72L31.86 7.68L33.26 7.68L33.26 8.43L29.48 8.43ZM35.09 8.43L35.09 7.68L36.48 7.68L36.48 3.50L34.96 3.78L34.96 2.99L36.53 2.72L37.47 2.72L37.47 7.68L38.87 7.68L38.87 8.43L35.09 8.43ZM43.22 5.34L43.22 5.34Q43.85 5.46 44.19 5.83Q44.54 6.21 44.54 6.77L44.54 6.77Q44.54 7.62 43.89 8.07Q43.24 8.53 42.03 8.53L42.03 8.53Q41.64 8.53 41.21 8.46Q40.78 8.39 40.30 8.25L40.30 8.25L40.30 7.42Q40.66 7.61 41.07 7.70Q41.47 7.79 41.93 7.79L41.93 7.79Q42.68 7.79 43.09 7.52Q43.50 7.25 43.50 6.77L43.50 6.77Q43.50 6.26 43.12 6.00Q42.74 5.74 42 5.74L42 5.74L41.41 5.74L41.41 5.00L42.05 5.00Q42.70 5.00 43.03 4.79Q43.36 4.57 43.36 4.16L43.36 4.16Q43.36 3.77 43.02 3.56Q42.68 3.35 42.03 3.35L42.03 3.35Q41.75 3.35 41.41 3.41Q41.06 3.47 40.50 3.63L40.50 3.63L40.50 2.84Q41.00 2.73 41.44 2.67Q41.88 2.60 42.25 2.60L42.25 2.60Q43.24 2.60 43.81 3.01Q44.39 3.41 44.39 4.09L44.39 4.09Q44.39 4.56 44.08 4.89Q43.78 5.22 43.22 5.34Z"></path></svg>