<svg height="16.296875" width="45.541015625" xmlns="http://www.w3.org/2000/svg" ><path d="M6.36 6.50L6.36 6.50L6.36 2.36L7.62 2.36L7.62 13.00L6.36 13.00L6.36 11.85Q5.96 12.53 5.36 12.86Q4.75 13.19 3.90 13.19L3.90 13.19Q2.52 13.19 1.64 12.09Q0.77 10.98 0.77 9.17L0.77 9.17Q0.77 7.37 1.64 6.26Q2.52 5.15 3.90 5.15L3.90 5.15Q4.75 5.15 5.36 5.49Q5.96 5.82 6.36 6.50ZM2.07 9.17L2.07 9.17Q2.07 10.56 2.64 11.35Q3.21 12.14 4.21 12.14L4.21 12.14Q5.21 12.14 5.78 11.35Q6.36 10.56 6.36 9.17L6.36 9.17Q6.36 7.79 5.78 7.00Q5.21 6.21 4.21 6.21L4.21 6.21Q3.21 6.21 2.64 7.00Q2.07 7.79 2.07 9.17ZM9.66 6.34L9.66 5.34L15.63 5.34L15.63 6.49L10.90 11.99L12.10 11.99Q12.33 10.88 12.91 10.40L12.91 10.40Q13.35 10.02 14.01 10.02L14.01 10.02Q14.91 10.02 15.31 10.62L15.31 10.62Q15.57 11.01 15.57 11.60L15.57 11.60Q15.57 12.26 15.15 12.58L15.15 12.58Q14.59 13.00 13.73 13.00L13.73 13.00L13.01 13.00Q12.99 13.34 12.99 13.75L12.99 13.75L11.94 13.75Q11.94 13.35 11.96 13.00L11.96 13.00L9.49 13.00L9.49 11.85L14.22 6.34L9.66 6.34ZM13.15 11.99L13.15 11.99L13.54 11.99Q14.48 11.99 14.48 11.62L14.48 11.62Q14.48 10.99 14 11.00L14 11.00Q13.40 11.01 13.15 11.99ZM17.55 13.00L17.55 5.34L18.81 5.34L18.81 13.00L17.55 13.00ZM17.55 3.95L17.55 2.36L18.81 2.36L18.81 3.95L17.55 3.95ZM26.17 9.15L24.92 9.15Q23.40 9.15 22.81 9.50Q22.22 9.84 22.22 10.68L22.22 10.68Q22.22 11.35 22.66 11.75Q23.11 12.14 23.86 12.14L23.86 12.14Q24.91 12.14 25.54 11.40Q26.17 10.66 26.17 9.43L26.17 9.43L26.17 9.15ZM27.43 8.63L27.43 8.63L27.43 13.00L26.17 13.00L26.17 11.83Q25.74 12.53 25.10 12.86Q24.46 13.19 23.53 13.19L23.53 13.19Q22.35 13.19 21.66 12.53Q20.97 11.87 20.97 10.77L20.97 10.77Q20.97 9.47 21.83 8.82Q22.70 8.16 24.41 8.16L24.41 8.16L26.17 8.16L26.17 8.04Q26.17 7.17 25.60 6.70Q25.03 6.22 24.00 6.22L24.00 6.22Q23.34 6.22 22.72 6.38Q22.10 6.54 21.53 6.85L21.53 6.85L21.53 5.69Q22.22 5.42 22.87 5.29Q23.52 5.15 24.13 5.15L24.13 5.15Q25.79 5.15 26.61 6.02Q27.43 6.88 27.43 8.63ZM25.16 3.63L25.16 3.63L24.77 3.25Q24.62 3.12 24.51 3.05Q24.40 2.99 24.31 2.99L24.31 2.99Q24.05 2.99 23.93 3.24Q23.80 3.49 23.79 4.05L23.79 4.05L22.93 4.05Q22.95 3.12 23.30 2.62Q23.65 2.12 24.27 2.12L24.27 2.12Q24.53 2.12 24.75 2.21Q24.96 2.31 25.22 2.54L25.22 2.54L25.61 2.91Q25.76 3.05 25.87 3.11Q25.98 3.18 26.07 3.18L26.07 3.18Q26.33 3.18 26.46 2.93Q26.58 2.68 26.59 2.12L26.59 2.12L27.45 2.12Q27.43 3.04 27.08 3.54Q26.74 4.05 26.11 4.05L26.11 4.05Q25.85 4.05 25.63 3.95Q25.42 3.86 25.16 3.63ZM29.77 8.43L29.77 7.68L31.17 7.68L31.17 3.50L29.64 3.78L29.64 2.99L31.21 2.72L32.15 2.72L32.15 7.68L33.55 7.68L33.55 8.43L29.77 8.43ZM35.38 8.43L35.38 7.68L36.78 7.68L36.78 3.50L35.25 3.78L35.25 2.99L36.83 2.72L37.76 2.72L37.76 7.68L39.16 7.68L39.16 8.43L35.38 8.43ZM43.51 5.34L43.51 5.34Q44.14 5.46 44.48 5.83Q44.83 6.21 44.83 6.77L44.83 6.77Q44.83 7.62 44.18 8.07Q43.53 8.53 42.32 8.53L42.32 8.53Q41.93 8.53 41.50 8.46Q41.08 8.39 40.60 8.25L40.60 8.25L40.60 7.42Q40.95 7.61 41.36 7.70Q41.77 7.79 42.23 7.79L42.23 7.79Q42.97 7.79 43.38 7.52Q43.79 7.25 43.79 6.77L43.79 6.77Q43.79 6.26 43.41 6.00Q43.03 5.74 42.29 5.74L42.29 5.74L41.71 5.74L41.71 5.00L42.35 5.00Q42.99 5.00 43.32 4.79Q43.65 4.57 43.65 4.16L43.65 4.16Q43.65 3.77 43.31 3.56Q42.97 3.35 42.32 3.35L42.32 3.35Q42.05 3.35 41.70 3.41Q41.35 3.47 40.80 3.63L40.80 3.63L40.80 2.84Q41.30 2.73 41.73 2.67Q42.17 2.60 42.55 2.60L42.55 2.60Q43.53 2.60 44.11 3.01Q44.69 3.41 44.69 4.09L44.69 4.09Q44.69 4.56 44.38 4.89Q44.07 5.22 43.51 5.34Z"></path></svg>