<svg height="16.296875" width="44.65234375" xmlns="http://www.w3.org/2000/svg" ><path d="M6.36 6.50L6.36 6.50L6.36 2.36L7.62 2.36L7.62 13.00L6.36 13.00L6.36 11.85Q5.96 12.53 5.36 12.86Q4.75 13.19 3.90 13.19L3.90 13.19Q2.52 13.19 1.64 12.09Q0.77 10.98 0.77 9.17L0.77 9.17Q0.77 7.37 1.64 6.26Q2.52 5.15 3.90 5.15L3.90 5.15Q4.75 5.15 5.36 5.49Q5.96 5.82 6.36 6.50ZM2.07 9.17L2.07 9.17Q2.07 10.56 2.64 11.35Q3.21 12.14 4.21 12.14L4.21 12.14Q5.21 12.14 5.78 11.35Q6.36 10.56 6.36 9.17L6.36 9.17Q6.36 7.79 5.78 7.00Q5.21 6.21 4.21 6.21L4.21 6.21Q3.21 6.21 2.64 7.00Q2.07 7.79 2.07 9.17ZM9.66 6.34L9.66 5.34L15.63 5.34L15.63 6.49L10.90 11.99L12.10 11.99Q12.33 10.88 12.91 10.40L12.91 10.40Q13.35 10.02 14.01 10.02L14.01 10.02Q14.91 10.02 15.31 10.62L15.31 10.62Q15.57 11.01 15.57 11.60L15.57 11.60Q15.57 12.26 15.15 12.58L15.15 12.58Q14.59 13.00 13.73 13.00L13.73 13.00L13.01 13.00Q12.99 13.34 12.99 13.75L12.99 13.75L11.94 13.75Q11.94 13.35 11.96 13.00L11.96 13.00L9.49 13.00L9.49 11.85L14.22 6.34L9.66 6.34ZM13.15 11.99L13.15 11.99L13.54 11.99Q14.48 11.99 14.48 11.62L14.48 11.62Q14.48 10.99 14 11.00L14 11.00Q13.40 11.01 13.15 11.99ZM17.55 13.00L17.55 5.34L18.81 5.34L18.81 13.00L17.55 13.00ZM17.55 3.95L17.55 2.36L18.81 2.36L18.81 3.95L17.55 3.95ZM20.99 6.81L20.99 5.65Q21.52 5.40 22.08 5.28Q22.65 5.15 23.28 5.15L23.28 5.15Q25.01 5.15 26.03 6.24Q27.05 7.33 27.05 9.17L27.05 9.17Q27.05 11.05 26.02 12.12Q24.99 13.19 23.20 13.19L23.20 13.19Q22.62 13.19 22.07 13.07Q21.51 12.95 20.99 12.71L20.99 12.71L20.99 11.54Q21.53 11.83 22.06 11.98Q22.60 12.13 23.15 12.13L23.15 12.13Q24.37 12.13 25.05 11.35Q25.72 10.58 25.72 9.17L25.72 9.17Q25.72 7.77 25.05 7.00Q24.37 6.22 23.15 6.22L23.15 6.22Q22.60 6.22 22.06 6.37Q21.53 6.51 20.99 6.81L20.99 6.81ZM28.88 8.43L28.88 7.68L30.28 7.68L30.28 3.50L28.75 3.78L28.75 2.99L30.32 2.72L31.26 2.72L31.26 7.68L32.66 7.68L32.66 8.43L28.88 8.43ZM34.49 8.43L34.49 7.68L35.89 7.68L35.89 3.50L34.36 3.78L34.36 2.99L35.94 2.72L36.87 2.72L36.87 7.68L38.27 7.68L38.27 8.43L34.49 8.43ZM42.62 5.34L42.62 5.34Q43.25 5.46 43.60 5.83Q43.94 6.21 43.94 6.77L43.94 6.77Q43.94 7.62 43.29 8.07Q42.64 8.53 41.43 8.53L41.43 8.53Q41.04 8.53 40.62 8.46Q40.19 8.39 39.71 8.25L39.71 8.25L39.71 7.42Q40.07 7.61 40.47 7.70Q40.88 7.79 41.34 7.79L41.34 7.79Q42.08 7.79 42.49 7.52Q42.90 7.25 42.90 6.77L42.90 6.77Q42.90 6.26 42.52 6.00Q42.14 5.74 41.41 5.74L41.41 5.74L40.82 5.74L40.82 5.00L41.46 5.00Q42.10 5.00 42.43 4.79Q42.77 4.57 42.77 4.16L42.77 4.16Q42.77 3.77 42.42 3.56Q42.08 3.35 41.43 3.35L41.43 3.35Q41.16 3.35 40.81 3.41Q40.46 3.47 39.91 3.63L39.91 3.63L39.91 2.84Q40.41 2.73 40.84 2.67Q41.28 2.60 41.66 2.60L41.66 2.60Q42.64 2.60 43.22 3.01Q43.80 3.41 43.80 4.09L43.80 4.09Q43.80 4.56 43.49 4.89Q43.18 5.22 42.62 5.34Z"></path></svg>