<svg height="16.296875" width="45.3017578125" xmlns="http://www.w3.org/2000/svg" ><path d="M6.36 6.50L6.36 6.50L6.36 2.36L7.62 2.36L7.62 13.00L6.36 13.00L6.36 11.85Q5.96 12.53 5.36 12.86Q4.75 13.19 3.90 13.19L3.90 13.19Q2.52 13.19 1.64 12.09Q0.77 10.98 0.77 9.17L0.77 9.17Q0.77 7.37 1.64 6.26Q2.52 5.15 3.90 5.15L3.90 5.15Q4.75 5.15 5.36 5.49Q5.96 5.82 6.36 6.50ZM2.07 9.17L2.07 9.17Q2.07 10.56 2.64 11.35Q3.21 12.14 4.21 12.14L4.21 12.14Q5.21 12.14 5.78 11.35Q6.36 10.56 6.36 9.17L6.36 9.17Q6.36 7.79 5.78 7.00Q5.21 6.21 4.21 6.21L4.21 6.21Q3.21 6.21 2.64 7.00Q2.07 7.79 2.07 9.17ZM9.66 6.34L9.66 5.34L15.63 5.34L15.63 6.49L10.90 11.99L12.10 11.99Q12.33 10.88 12.91 10.40L12.91 10.40Q13.35 10.02 14.01 10.02L14.01 10.02Q14.91 10.02 15.31 10.62L15.31 10.62Q15.57 11.01 15.57 11.60L15.57 11.60Q15.57 12.26 15.15 12.58L15.15 12.58Q14.59 13.00 13.73 13.00L13.73 13.00L13.01 13.00Q12.99 13.34 12.99 13.75L12.99 13.75L11.94 13.75Q11.94 13.35 11.96 13.00L11.96 13.00L9.49 13.00L9.49 11.85L14.22 6.34L9.66 6.34ZM13.15 11.99L13.15 11.99L13.54 11.99Q14.48 11.99 14.48 11.62L14.48 11.62Q14.48 10.99 14 11.00L14 11.00Q13.40 11.01 13.15 11.99ZM17.55 13.00L17.55 5.34L18.81 5.34L18.81 13.00L17.55 13.00ZM17.55 3.95L17.55 2.36L18.81 2.36L18.81 3.95L17.55 3.95ZM22.26 5.34L24.29 8.07L26.33 5.34L27.81 5.34L25.09 8.99Q25.57 9.66 25.87 10.18L25.87 10.18Q26.35 11.00 26.35 11.42L26.35 11.42Q26.35 12.31 25.83 12.75Q25.32 13.19 24.29 13.19L24.29 13.19Q23.27 13.19 22.76 12.75Q22.24 12.31 22.24 11.42L22.24 11.42Q22.24 11.00 22.72 10.18L22.72 10.18Q23.02 9.66 23.50 8.99L23.50 8.99L20.78 5.34L22.26 5.34ZM24.29 12.13L24.29 12.13Q24.75 12.13 24.96 11.94L24.96 11.94Q25.16 11.78 25.16 11.47L25.16 11.47Q25.16 11.25 24.89 10.81L24.89 10.81Q24.68 10.47 24.29 9.99L24.29 9.99Q23.91 10.47 23.70 10.81L23.70 10.81Q23.43 11.25 23.43 11.47L23.43 11.47Q23.43 11.78 23.63 11.94L23.63 11.94Q23.84 12.13 24.29 12.13ZM29.53 8.43L29.53 7.68L30.93 7.68L30.93 3.50L29.40 3.78L29.40 2.99L30.97 2.72L31.91 2.72L31.91 7.68L33.31 7.68L33.31 8.43L29.53 8.43ZM35.14 8.43L35.14 7.68L36.54 7.68L36.54 3.50L35.01 3.78L35.01 2.99L36.59 2.72L37.52 2.72L37.52 7.68L38.92 7.68L38.92 8.43L35.14 8.43ZM43.27 5.34L43.27 5.34Q43.90 5.46 44.25 5.83Q44.59 6.21 44.59 6.77L44.59 6.77Q44.59 7.62 43.94 8.07Q43.29 8.53 42.08 8.53L42.08 8.53Q41.69 8.53 41.27 8.46Q40.84 8.39 40.36 8.25L40.36 8.25L40.36 7.42Q40.71 7.61 41.12 7.70Q41.53 7.79 41.99 7.79L41.99 7.79Q42.73 7.79 43.14 7.52Q43.55 7.25 43.55 6.77L43.55 6.77Q43.55 6.26 43.17 6.00Q42.79 5.74 42.05 5.74L42.05 5.74L41.47 5.74L41.47 5.00L42.11 5.00Q42.75 5.00 43.08 4.79Q43.42 4.57 43.42 4.16L43.42 4.16Q43.42 3.77 43.07 3.56Q42.73 3.35 42.08 3.35L42.08 3.35Q41.81 3.35 41.46 3.41Q41.11 3.47 40.56 3.63L40.56 3.63L40.56 2.84Q41.06 2.73 41.49 2.67Q41.93 2.60 42.31 2.60L42.31 2.60Q43.29 2.60 43.87 3.01Q44.45 3.41 44.45 4.09L44.45 4.09Q44.45 4.56 44.14 4.89Q43.83 5.22 43.27 5.34Z"></path></svg>