<svg height="16.296875" width="45.8349609375" xmlns="http://www.w3.org/2000/svg" ><path d="M6.36 6.50L6.36 6.50L6.36 2.36L7.62 2.36L7.62 13.00L6.36 13.00L6.36 11.85Q5.96 12.53 5.36 12.86Q4.75 13.19 3.90 13.19L3.90 13.19Q2.52 13.19 1.64 12.09Q0.77 10.98 0.77 9.17L0.77 9.17Q0.77 7.37 1.64 6.26Q2.52 5.15 3.90 5.15L3.90 5.15Q4.75 5.15 5.36 5.49Q5.96 5.82 6.36 6.50ZM2.07 9.17L2.07 9.17Q2.07 10.56 2.64 11.35Q3.21 12.14 4.21 12.14L4.21 12.14Q5.21 12.14 5.78 11.35Q6.36 10.56 6.36 9.17L6.36 9.17Q6.36 7.79 5.78 7.00Q5.21 6.21 4.21 6.21L4.21 6.21Q3.21 6.21 2.64 7.00Q2.07 7.79 2.07 9.17ZM9.66 6.34L9.66 5.34L15.63 5.34L15.63 6.49L10.90 11.99L12.10 11.99Q12.33 10.88 12.91 10.40L12.91 10.40Q13.35 10.02 14.01 10.02L14.01 10.02Q14.91 10.02 15.31 10.62L15.31 10.62Q15.57 11.01 15.57 11.60L15.57 11.60Q15.57 12.26 15.15 12.58L15.15 12.58Q14.59 13.00 13.73 13.00L13.73 13.00L13.01 13.00Q12.99 13.34 12.99 13.75L12.99 13.75L11.94 13.75Q11.94 13.35 11.96 13.00L11.96 13.00L9.49 13.00L9.49 11.85L14.22 6.34L9.66 6.34ZM13.15 11.99L13.15 11.99L13.54 11.99Q14.48 11.99 14.48 11.62L14.48 11.62Q14.48 10.99 14 11.00L14 11.00Q13.40 11.01 13.15 11.99ZM17.55 13.00L17.55 5.34L18.81 5.34L18.81 13.00L17.55 13.00ZM17.55 3.95L17.55 2.36L18.81 2.36L18.81 3.95L17.55 3.95ZM27.81 8.37L27.81 8.37L27.81 13.00L26.55 13.00L26.55 8.42Q26.55 7.33 26.13 6.79Q25.70 6.25 24.86 6.25L24.86 6.25Q23.84 6.25 23.25 6.90Q22.66 7.55 22.66 8.67L22.66 8.67L22.66 13.00L21.40 13.00L21.40 5.34L22.66 5.34L22.66 6.53Q23.11 5.84 23.72 5.50Q24.34 5.15 25.14 5.15L25.14 5.15Q26.46 5.15 27.13 5.97Q27.81 6.79 27.81 8.37ZM30.06 8.43L30.06 7.68L31.46 7.68L31.46 3.50L29.93 3.78L29.93 2.99L31.51 2.72L32.44 2.72L32.44 7.68L33.84 7.68L33.84 8.43L30.06 8.43ZM35.68 8.43L35.68 7.68L37.07 7.68L37.07 3.50L35.55 3.78L35.55 2.99L37.12 2.72L38.06 2.72L38.06 7.68L39.46 7.68L39.46 8.43L35.68 8.43ZM43.80 5.34L43.80 5.34Q44.43 5.46 44.78 5.83Q45.12 6.21 45.12 6.77L45.12 6.77Q45.12 7.62 44.47 8.07Q43.83 8.53 42.62 8.53L42.62 8.53Q42.23 8.53 41.80 8.46Q41.37 8.39 40.89 8.25L40.89 8.25L40.89 7.42Q41.25 7.61 41.65 7.70Q42.06 7.79 42.52 7.79L42.52 7.79Q43.26 7.79 43.67 7.52Q44.08 7.25 44.08 6.77L44.08 6.77Q44.08 6.26 43.71 6.00Q43.33 5.74 42.59 5.74L42.59 5.74L42 5.74L42 5.00L42.64 5.00Q43.29 5.00 43.62 4.79Q43.95 4.57 43.95 4.16L43.95 4.16Q43.95 3.77 43.61 3.56Q43.26 3.35 42.62 3.35L42.62 3.35Q42.34 3.35 41.99 3.41Q41.64 3.47 41.09 3.63L41.09 3.63L41.09 2.84Q41.59 2.73 42.03 2.67Q42.46 2.60 42.84 2.60L42.84 2.60Q43.83 2.60 44.40 3.01Q44.98 3.41 44.98 4.09L44.98 4.09Q44.98 4.56 44.67 4.89Q44.37 5.22 43.80 5.34Z"></path></svg>