<svg height="16.296875" width="49.9228515625" xmlns="http://www.w3.org/2000/svg" ><path d="M6.36 6.50L6.36 6.50L6.36 2.36L7.62 2.36L7.62 13.00L6.36 13.00L6.36 11.85Q5.96 12.53 5.36 12.86Q4.75 13.19 3.90 13.19L3.90 13.19Q2.52 13.19 1.64 12.09Q0.77 10.98 0.77 9.17L0.77 9.17Q0.77 7.37 1.64 6.26Q2.52 5.15 3.90 5.15L3.90 5.15Q4.75 5.15 5.36 5.49Q5.96 5.82 6.36 6.50ZM2.07 9.17L2.07 9.17Q2.07 10.56 2.64 11.35Q3.21 12.14 4.21 12.14L4.21 12.14Q5.21 12.14 5.78 11.35Q6.36 10.56 6.36 9.17L6.36 9.17Q6.36 7.79 5.78 7.00Q5.21 6.21 4.21 6.21L4.21 6.21Q3.21 6.21 2.64 7.00Q2.07 7.79 2.07 9.17ZM9.66 6.34L9.66 5.34L15.63 5.34L15.63 6.49L10.90 11.99L12.10 11.99Q12.33 10.88 12.91 10.40L12.91 10.40Q13.35 10.02 14.01 10.02L14.01 10.02Q14.91 10.02 15.31 10.62L15.31 10.62Q15.57 11.01 15.57 11.60L15.57 11.60Q15.57 12.26 15.15 12.58L15.15 12.58Q14.59 13.00 13.73 13.00L13.73 13.00L13.01 13.00Q12.99 13.34 12.99 13.75L12.99 13.75L11.94 13.75Q11.94 13.35 11.96 13.00L11.96 13.00L9.49 13.00L9.49 11.85L14.22 6.34L9.66 6.34ZM13.15 11.99L13.15 11.99L13.54 11.99Q14.48 11.99 14.48 11.62L14.48 11.62Q14.48 10.99 14 11.00L14 11.00Q13.40 11.01 13.15 11.99ZM24.10 5.34L20.74 13.71Q20.21 15.07 19.70 15.49Q19.20 15.91 18.35 15.91L18.35 15.91L17.34 15.91L17.34 14.85L18.08 14.85Q18.60 14.85 18.89 14.61Q19.17 14.36 19.52 13.45L19.52 13.45L19.75 12.87L16.65 5.34L17.99 5.34L20.38 11.33L22.77 5.34L24.10 5.34ZM30.71 7.52L30.71 7.52L27.38 11.57Q27.66 11.85 28.01 11.99Q28.36 12.13 28.81 12.13L28.81 12.13Q29.81 12.13 30.40 11.33Q30.99 10.54 30.99 9.17L30.99 9.17Q30.99 8.63 30.92 8.23Q30.85 7.83 30.71 7.52ZM26.89 10.83L30.22 6.78Q29.93 6.50 29.58 6.36Q29.23 6.22 28.81 6.22L28.81 6.22Q27.77 6.22 27.20 7.02Q26.62 7.83 26.62 9.27L26.62 9.27Q26.62 9.76 26.68 10.14Q26.75 10.51 26.89 10.83L26.89 10.83ZM25.01 13.10L26.03 11.86Q25.66 11.33 25.48 10.66Q25.29 9.99 25.29 9.17L25.29 9.17Q25.29 7.29 26.23 6.22Q27.16 5.15 28.81 5.15L28.81 5.15Q29.44 5.15 29.99 5.33Q30.53 5.50 30.99 5.86L30.99 5.86L31.94 4.71L32.59 5.25L31.59 6.47Q31.95 7 32.14 7.68Q32.32 8.35 32.32 9.17L32.32 9.17Q32.32 11.05 31.38 12.12Q30.45 13.19 28.81 13.19L28.81 13.19Q28.15 13.19 27.60 13.02Q27.05 12.84 26.62 12.49L26.62 12.49L25.67 13.64L25.01 13.10ZM34.15 8.43L34.15 7.68L35.55 7.68L35.55 3.50L34.02 3.78L34.02 2.99L35.59 2.72L36.53 2.72L36.53 7.68L37.93 7.68L37.93 8.43L34.15 8.43ZM39.76 8.43L39.76 7.68L41.16 7.68L41.16 3.50L39.63 3.78L39.63 2.99L41.21 2.72L42.14 2.72L42.14 7.68L43.54 7.68L43.54 8.43L39.76 8.43ZM47.89 5.34L47.89 5.34Q48.52 5.46 48.87 5.83Q49.21 6.21 49.21 6.77L49.21 6.77Q49.21 7.62 48.56 8.07Q47.91 8.53 46.70 8.53L46.70 8.53Q46.31 8.53 45.89 8.46Q45.46 8.39 44.98 8.25L44.98 8.25L44.98 7.42Q45.34 7.61 45.74 7.70Q46.15 7.79 46.61 7.79L46.61 7.79Q47.35 7.79 47.76 7.52Q48.17 7.25 48.17 6.77L48.17 6.77Q48.17 6.26 47.79 6.00Q47.41 5.74 46.68 5.74L46.68 5.74L46.09 5.74L46.09 5.00L46.73 5.00Q47.37 5.00 47.70 4.79Q48.04 4.57 48.04 4.16L48.04 4.16Q48.04 3.77 47.69 3.56Q47.35 3.35 46.70 3.35L46.70 3.35Q46.43 3.35 46.08 3.41Q45.73 3.47 45.18 3.63L45.18 3.63L45.18 2.84Q45.68 2.73 46.12 2.67Q46.55 2.60 46.93 2.60L46.93 2.60Q47.91 2.60 48.49 3.01Q49.07 3.41 49.07 4.09L49.07 4.09Q49.07 4.56 48.76 4.89Q48.45 5.22 47.89 5.34Z"></path></svg>