<svg height="16.296875" width="54.400390625" xmlns="http://www.w3.org/2000/svg" ><path d="M6.36 6.50L6.36 6.50L6.36 2.36L7.62 2.36L7.62 13.00L6.36 13.00L6.36 11.85Q5.96 12.53 5.36 12.86Q4.75 13.19 3.90 13.19L3.90 13.19Q2.52 13.19 1.64 12.09Q0.77 10.98 0.77 9.17L0.77 9.17Q0.77 7.37 1.64 6.26Q2.52 5.15 3.90 5.15L3.90 5.15Q4.75 5.15 5.36 5.49Q5.96 5.82 6.36 6.50ZM2.07 9.17L2.07 9.17Q2.07 10.56 2.64 11.35Q3.21 12.14 4.21 12.14L4.21 12.14Q5.21 12.14 5.78 11.35Q6.36 10.56 6.36 9.17L6.36 9.17Q6.36 7.79 5.78 7.00Q5.21 6.21 4.21 6.21L4.21 6.21Q3.21 6.21 2.64 7.00Q2.07 7.79 2.07 9.17ZM9.66 6.34L9.66 5.34L15.63 5.34L15.63 6.49L10.90 11.99L12.10 11.99Q12.33 10.88 12.91 10.40L12.91 10.40Q13.35 10.02 14.01 10.02L14.01 10.02Q14.91 10.02 15.31 10.62L15.31 10.62Q15.57 11.01 15.57 11.60L15.57 11.60Q15.57 12.26 15.15 12.58L15.15 12.58Q14.59 13.00 13.73 13.00L13.73 13.00L13.01 13.00Q12.99 13.34 12.99 13.75L12.99 13.75L11.94 13.75Q11.94 13.35 11.96 13.00L11.96 13.00L9.49 13.00L9.49 11.85L14.22 6.34L9.66 6.34ZM13.15 11.99L13.15 11.99L13.54 11.99Q14.48 11.99 14.48 11.62L14.48 11.62Q14.48 10.99 14 11.00L14 11.00Q13.40 11.01 13.15 11.99ZM17.55 13.00L17.55 5.34L18.81 5.34L18.81 13.00L17.55 13.00ZM17.55 3.95L17.55 2.36L18.81 2.36L18.81 3.95L17.55 3.95ZM24.41 6.22L24.41 6.22Q23.40 6.22 22.81 7.01Q22.22 7.80 22.22 9.17L22.22 9.17Q22.22 10.55 22.81 11.34Q23.39 12.13 24.41 12.13L24.41 12.13Q25.42 12.13 26.00 11.33Q26.59 10.54 26.59 9.17L26.59 9.17Q26.59 7.81 26.00 7.02Q25.42 6.22 24.41 6.22ZM24.41 5.15L24.41 5.15Q26.05 5.15 26.99 6.22Q27.92 7.29 27.92 9.17L27.92 9.17Q27.92 11.05 26.99 12.12Q26.05 13.19 24.41 13.19L24.41 13.19Q22.76 13.19 21.83 12.12Q20.90 11.05 20.90 9.17L20.90 9.17Q20.90 7.29 21.83 6.22Q22.76 5.15 24.41 5.15ZM36.37 8.37L36.37 8.37L36.37 13.13Q36.37 14.59 35.81 15.25L35.81 15.25Q35.26 15.91 34.02 15.91L34.02 15.91L32.29 15.91L32.29 14.84L33.88 14.84Q34.60 14.84 34.86 14.51L34.86 14.51Q35.12 14.18 35.12 13.13L35.12 13.13L35.12 8.42Q35.12 7.33 34.69 6.79Q34.27 6.25 33.42 6.25L33.42 6.25Q32.40 6.25 31.81 6.90Q31.23 7.55 31.23 8.67L31.23 8.67L31.23 13.00L29.96 13.00L29.96 5.34L31.23 5.34L31.23 6.53Q31.68 5.84 32.29 5.50L32.29 5.50Q32.90 5.15 33.70 5.15L33.70 5.15Q35.02 5.15 35.70 5.97L35.70 5.97Q36.37 6.79 36.37 8.37ZM38.63 8.43L38.63 7.68L40.02 7.68L40.02 3.50L38.50 3.78L38.50 2.99L40.07 2.72L41.01 2.72L41.01 7.68L42.41 7.68L42.41 8.43L38.63 8.43ZM44.24 8.43L44.24 7.68L45.64 7.68L45.64 3.50L44.11 3.78L44.11 2.99L45.68 2.72L46.62 2.72L46.62 7.68L48.02 7.68L48.02 8.43L44.24 8.43ZM52.37 5.34L52.37 5.34Q53.00 5.46 53.34 5.83Q53.69 6.21 53.69 6.77L53.69 6.77Q53.69 7.62 53.04 8.07Q52.39 8.53 51.18 8.53L51.18 8.53Q50.79 8.53 50.36 8.46Q49.94 8.39 49.46 8.25L49.46 8.25L49.46 7.42Q49.81 7.61 50.22 7.70Q50.63 7.79 51.08 7.79L51.08 7.79Q51.83 7.79 52.24 7.52Q52.65 7.25 52.65 6.77L52.65 6.77Q52.65 6.26 52.27 6.00Q51.89 5.74 51.15 5.74L51.15 5.74L50.57 5.74L50.57 5.00L51.21 5.00Q51.85 5.00 52.18 4.79Q52.51 4.57 52.51 4.16L52.51 4.16Q52.51 3.77 52.17 3.56Q51.83 3.35 51.18 3.35L51.18 3.35Q50.91 3.35 50.56 3.41Q50.21 3.47 49.66 3.63L49.66 3.63L49.66 2.84Q50.16 2.73 50.59 2.67Q51.03 2.60 51.41 2.60L51.41 2.60Q52.39 2.60 52.97 3.01Q53.55 3.41 53.55 4.09L53.55 4.09Q53.55 4.56 53.24 4.89Q52.93 5.22 52.37 5.34Z"></path></svg>