<svg height="16.296875" width="47.05859375" xmlns="http://www.w3.org/2000/svg" ><path d="M6.36 6.50L6.36 6.50L6.36 2.36L7.62 2.36L7.62 13.00L6.36 13.00L6.36 11.85Q5.96 12.53 5.36 12.86Q4.75 13.19 3.90 13.19L3.90 13.19Q2.52 13.19 1.64 12.09Q0.77 10.98 0.77 9.17L0.77 9.17Q0.77 7.37 1.64 6.26Q2.52 5.15 3.90 5.15L3.90 5.15Q4.75 5.15 5.36 5.49Q5.96 5.82 6.36 6.50ZM2.07 9.17L2.07 9.17Q2.07 10.56 2.64 11.35Q3.21 12.14 4.21 12.14L4.21 12.14Q5.21 12.14 5.78 11.35Q6.36 10.56 6.36 9.17L6.36 9.17Q6.36 7.79 5.78 7.00Q5.21 6.21 4.21 6.21L4.21 6.21Q3.21 6.21 2.64 7.00Q2.07 7.79 2.07 9.17ZM9.66 6.34L9.66 5.34L15.63 5.34L15.63 6.49L10.90 11.99L12.10 11.99Q12.33 10.88 12.91 10.40L12.91 10.40Q13.35 10.02 14.01 10.02L14.01 10.02Q14.91 10.02 15.31 10.62L15.31 10.62Q15.57 11.01 15.57 11.60L15.57 11.60Q15.57 12.26 15.15 12.58L15.15 12.58Q14.59 13.00 13.73 13.00L13.73 13.00L13.01 13.00Q12.99 13.34 12.99 13.75L12.99 13.75L11.94 13.75Q11.94 13.35 11.96 13.00L11.96 13.00L9.49 13.00L9.49 11.85L14.22 6.34L9.66 6.34ZM13.15 11.99L13.15 11.99L13.54 11.99Q14.48 11.99 14.48 11.62L14.48 11.62Q14.48 10.99 14 11.00L14 11.00Q13.40 11.01 13.15 11.99ZM17.55 13.00L17.55 5.34L18.81 5.34L18.81 13.00L17.55 13.00ZM17.55 3.95L17.55 2.36L18.81 2.36L18.81 3.95L17.55 3.95ZM24.41 6.22L24.41 6.22Q23.40 6.22 22.81 7.01Q22.22 7.80 22.22 9.17L22.22 9.17Q22.22 10.55 22.81 11.34Q23.39 12.13 24.41 12.13L24.41 12.13Q25.42 12.13 26.00 11.33Q26.59 10.54 26.59 9.17L26.59 9.17Q26.59 7.81 26.00 7.02Q25.42 6.22 24.41 6.22ZM24.41 5.15L24.41 5.15Q26.05 5.15 26.99 6.22Q27.92 7.29 27.92 9.17L27.92 9.17Q27.92 11.05 26.99 12.12Q26.05 13.19 24.41 13.19L24.41 13.19Q22.76 13.19 21.83 12.12Q20.90 11.05 20.90 9.17L20.90 9.17Q20.90 7.29 21.83 6.22Q22.76 5.15 24.41 5.15ZM31.02 13.00L31.01 7.54L31.45 7.54Q32.76 7.54 33.35 6.76L33.35 6.76Q33.74 6.24 33.74 5.57L33.74 5.57Q33.74 4.66 33.35 4.22L33.35 4.22Q32.67 3.44 31.45 3.44L31.45 3.44Q30.90 3.44 30.36 3.59L30.36 3.59Q29.83 3.73 29.29 4.03L29.29 4.03L29.29 2.85Q29.81 2.61 30.37 2.50L30.37 2.50Q30.92 2.37 31.50 2.37L31.50 2.37Q33.38 2.37 34.32 3.45L34.32 3.45Q35.07 4.30 35.07 5.57L35.07 5.57Q35.07 6.73 34.33 7.52L34.33 7.52Q33.56 8.33 32.40 8.54L32.40 8.54L32.40 13.00L31.02 13.00ZM36.90 8.43L36.90 7.68L38.29 7.68L38.29 3.50L36.77 3.78L36.77 2.99L38.34 2.72L39.28 2.72L39.28 7.68L40.68 7.68L40.68 8.43L36.90 8.43ZM43.28 7.65L43.28 7.65L46.18 7.65L46.18 8.43L42.09 8.43L42.09 7.68Q42.32 7.46 42.75 7.08L42.75 7.08Q45.10 5.00 45.10 4.35L45.10 4.35Q45.10 3.90 44.75 3.63Q44.39 3.35 43.81 3.35L43.81 3.35Q43.46 3.35 43.04 3.47Q42.62 3.59 42.13 3.83L42.13 3.83L42.13 2.99Q42.66 2.80 43.11 2.70Q43.57 2.60 43.96 2.60L43.96 2.60Q44.95 2.60 45.54 3.06Q46.14 3.51 46.14 4.25L46.14 4.25Q46.14 5.20 43.87 7.14L43.87 7.14Q43.49 7.46 43.28 7.65Z"></path></svg>