<svg height="16.296875" width="43.6953125" xmlns="http://www.w3.org/2000/svg" ><path d="M6.36 6.50L6.36 6.50L6.36 2.36L7.62 2.36L7.62 13.00L6.36 13.00L6.36 11.85Q5.96 12.53 5.36 12.86Q4.75 13.19 3.90 13.19L3.90 13.19Q2.52 13.19 1.64 12.09Q0.77 10.98 0.77 9.17L0.77 9.17Q0.77 7.37 1.64 6.26Q2.52 5.15 3.90 5.15L3.90 5.15Q4.75 5.15 5.36 5.49Q5.96 5.82 6.36 6.50ZM2.07 9.17L2.07 9.17Q2.07 10.56 2.64 11.35Q3.21 12.14 4.21 12.14L4.21 12.14Q5.21 12.14 5.78 11.35Q6.36 10.56 6.36 9.17L6.36 9.17Q6.36 7.79 5.78 7.00Q5.21 6.21 4.21 6.21L4.21 6.21Q3.21 6.21 2.64 7.00Q2.07 7.79 2.07 9.17ZM9.66 6.34L9.66 5.34L15.63 5.34L15.63 6.49L10.90 11.99L12.10 11.99Q12.33 10.88 12.91 10.40L12.91 10.40Q13.35 10.02 14.01 10.02L14.01 10.02Q14.91 10.02 15.31 10.62L15.31 10.62Q15.57 11.01 15.57 11.60L15.57 11.60Q15.57 12.26 15.15 12.58L15.15 12.58Q14.59 13.00 13.73 13.00L13.73 13.00L13.01 13.00Q12.99 13.34 12.99 13.75L12.99 13.75L11.94 13.75Q11.94 13.35 11.96 13.00L11.96 13.00L9.49 13.00L9.49 11.85L14.22 6.34L9.66 6.34ZM13.15 11.99L13.15 11.99L13.54 11.99Q14.48 11.99 14.48 11.62L14.48 11.62Q14.48 10.99 14 11.00L14 11.00Q13.40 11.01 13.15 11.99ZM17.55 13.00L17.55 5.34L18.81 5.34L18.81 13.00L17.55 13.00ZM17.55 3.95L17.55 2.36L18.81 2.36L18.81 3.95L17.55 3.95ZM22.12 6.46L20.92 6.46L20.92 5.34L24.53 5.34L24.53 6.46L23.38 6.46L23.38 11.87L24.53 11.87L24.53 13.00L20.92 13.00L20.92 11.87L22.12 11.87L22.12 6.46ZM27.66 13.00L27.65 7.54L28.08 7.54Q29.39 7.54 29.98 6.76L29.98 6.76Q30.38 6.24 30.38 5.57L30.38 5.57Q30.37 4.66 29.98 4.22L29.98 4.22Q29.31 3.44 28.08 3.44L28.08 3.44Q27.54 3.44 27.00 3.59L27.00 3.59Q26.46 3.73 25.93 4.03L25.93 4.03L25.93 2.85Q26.45 2.61 27.00 2.50L27.00 2.50Q27.56 2.37 28.14 2.37L28.14 2.37Q30.02 2.37 30.96 3.45L30.96 3.45Q31.71 4.30 31.71 5.57L31.71 5.57Q31.71 6.73 30.97 7.52L30.97 7.52Q30.20 8.33 29.04 8.54L29.04 8.54L29.04 13.00L27.66 13.00ZM33.54 8.43L33.54 7.68L34.93 7.68L34.93 3.50L33.41 3.78L33.41 2.99L34.98 2.72L35.92 2.72L35.92 7.68L37.32 7.68L37.32 8.43L33.54 8.43ZM39.92 7.65L39.92 7.65L42.81 7.65L42.81 8.43L38.73 8.43L38.73 7.68Q38.96 7.46 39.39 7.08L39.39 7.08Q41.74 5.00 41.74 4.35L41.74 4.35Q41.74 3.90 41.38 3.63Q41.03 3.35 40.45 3.35L40.45 3.35Q40.09 3.35 39.68 3.47Q39.26 3.59 38.77 3.83L38.77 3.83L38.77 2.99Q39.29 2.80 39.75 2.70Q40.20 2.60 40.59 2.60L40.59 2.60Q41.58 2.60 42.18 3.06Q42.77 3.51 42.77 4.25L42.77 4.25Q42.77 5.20 40.51 7.14L40.51 7.14Q40.13 7.46 39.92 7.65Z"></path></svg>