<svg height="16.296875" width="41.357421875" xmlns="http://www.w3.org/2000/svg" ><path d="M6.36 6.50L6.36 6.50L6.36 2.36L7.62 2.36L7.62 13.00L6.36 13.00L6.36 11.85Q5.96 12.53 5.36 12.86Q4.75 13.19 3.90 13.19L3.90 13.19Q2.52 13.19 1.64 12.09Q0.77 10.98 0.77 9.17L0.77 9.17Q0.77 7.37 1.64 6.26Q2.52 5.15 3.90 5.15L3.90 5.15Q4.75 5.15 5.36 5.49Q5.96 5.82 6.36 6.50ZM2.07 9.17L2.07 9.17Q2.07 10.56 2.64 11.35Q3.21 12.14 4.21 12.14L4.21 12.14Q5.21 12.14 5.78 11.35Q6.36 10.56 6.36 9.17L6.36 9.17Q6.36 7.79 5.78 7.00Q5.21 6.21 4.21 6.21L4.21 6.21Q3.21 6.21 2.64 7.00Q2.07 7.79 2.07 9.17ZM9.66 6.34L9.66 5.34L15.63 5.34L15.63 6.49L10.90 11.99L12.10 11.99Q12.33 10.88 12.91 10.40L12.91 10.40Q13.35 10.02 14.01 10.02L14.01 10.02Q14.91 10.02 15.31 10.62L15.31 10.62Q15.57 11.01 15.57 11.60L15.57 11.60Q15.57 12.26 15.15 12.58L15.15 12.58Q14.59 13.00 13.73 13.00L13.73 13.00L13.01 13.00Q12.99 13.34 12.99 13.75L12.99 13.75L11.94 13.75Q11.94 13.35 11.96 13.00L11.96 13.00L9.49 13.00L9.49 11.85L14.22 6.34L9.66 6.34ZM13.15 11.99L13.15 11.99L13.54 11.99Q14.48 11.99 14.48 11.62L14.48 11.62Q14.48 10.99 14 11.00L14 11.00Q13.40 11.01 13.15 11.99ZM24.10 5.34L20.74 13.71Q20.21 15.07 19.70 15.49Q19.20 15.91 18.35 15.91L18.35 15.91L17.34 15.91L17.34 14.85L18.08 14.85Q18.60 14.85 18.89 14.61Q19.17 14.36 19.52 13.45L19.52 13.45L19.75 12.87L16.65 5.34L17.99 5.34L20.38 11.33L22.77 5.34L24.10 5.34ZM25.59 8.43L25.59 7.68L26.98 7.68L26.98 3.50L25.46 3.78L25.46 2.99L27.03 2.72L27.97 2.72L27.97 7.68L29.37 7.68L29.37 8.43L25.59 8.43ZM31.20 8.43L31.20 7.68L32.59 7.68L32.59 3.50L31.07 3.78L31.07 2.99L32.64 2.72L33.58 2.72L33.58 7.68L34.98 7.68L34.98 8.43L31.20 8.43ZM39.33 5.34L39.33 5.34Q39.96 5.46 40.30 5.83Q40.65 6.21 40.65 6.77L40.65 6.77Q40.65 7.62 40.00 8.07Q39.35 8.53 38.14 8.53L38.14 8.53Q37.75 8.53 37.32 8.46Q36.89 8.39 36.42 8.25L36.42 8.25L36.42 7.42Q36.77 7.61 37.18 7.70Q37.58 7.79 38.04 7.79L38.04 7.79Q38.79 7.79 39.20 7.52Q39.61 7.25 39.61 6.77L39.61 6.77Q39.61 6.26 39.23 6.00Q38.85 5.74 38.11 5.74L38.11 5.74L37.52 5.74L37.52 5.00L38.17 5.00Q38.81 5.00 39.14 4.79Q39.47 4.57 39.47 4.16L39.47 4.16Q39.47 3.77 39.13 3.56Q38.79 3.35 38.14 3.35L38.14 3.35Q37.86 3.35 37.52 3.41Q37.17 3.47 36.61 3.63L36.61 3.63L36.61 2.84Q37.11 2.73 37.55 2.67Q37.99 2.60 38.36 2.60L38.36 2.60Q39.35 2.60 39.93 3.01Q40.50 3.41 40.50 4.09L40.50 4.09Q40.50 4.56 40.20 4.89Q39.89 5.22 39.33 5.34Z"></path></svg>