<svg height="16.296875" width="50.23046875" xmlns="http://www.w3.org/2000/svg" ><path d="M6.36 6.50L6.36 6.50L6.36 2.36L7.62 2.36L7.62 13.00L6.36 13.00L6.36 11.85Q5.96 12.53 5.36 12.86Q4.75 13.19 3.90 13.19L3.90 13.19Q2.52 13.19 1.64 12.09Q0.77 10.98 0.77 9.17L0.77 9.17Q0.77 7.37 1.64 6.26Q2.52 5.15 3.90 5.15L3.90 5.15Q4.75 5.15 5.36 5.49Q5.96 5.82 6.36 6.50ZM2.07 9.17L2.07 9.17Q2.07 10.56 2.64 11.35Q3.21 12.14 4.21 12.14L4.21 12.14Q5.21 12.14 5.78 11.35Q6.36 10.56 6.36 9.17L6.36 9.17Q6.36 7.79 5.78 7.00Q5.21 6.21 4.21 6.21L4.21 6.21Q3.21 6.21 2.64 7.00Q2.07 7.79 2.07 9.17ZM9.66 6.34L9.66 5.34L15.63 5.34L15.63 6.49L10.90 11.99L12.10 11.99Q12.33 10.88 12.91 10.40L12.91 10.40Q13.35 10.02 14.01 10.02L14.01 10.02Q14.91 10.02 15.31 10.62L15.31 10.62Q15.57 11.01 15.57 11.60L15.57 11.60Q15.57 12.26 15.15 12.58L15.15 12.58Q14.59 13.00 13.73 13.00L13.73 13.00L13.01 13.00Q12.99 13.34 12.99 13.75L12.99 13.75L11.94 13.75Q11.94 13.35 11.96 13.00L11.96 13.00L9.49 13.00L9.49 11.85L14.22 6.34L9.66 6.34ZM13.15 11.99L13.15 11.99L13.54 11.99Q14.48 11.99 14.48 11.62L14.48 11.62Q14.48 10.99 14 11.00L14 11.00Q13.40 11.01 13.15 11.99ZM24.10 5.34L20.74 13.71Q20.21 15.07 19.70 15.49Q19.20 15.91 18.35 15.91L18.35 15.91L17.34 15.91L17.34 14.85L18.08 14.85Q18.60 14.85 18.89 14.61Q19.17 14.36 19.52 13.45L19.52 13.45L19.75 12.87L16.65 5.34L17.99 5.34L20.38 11.33L22.77 5.34L24.10 5.34ZM32.20 8.37L32.20 8.37L32.20 13.00L30.95 13.00L30.95 8.42Q30.95 7.33 30.52 6.79Q30.10 6.25 29.25 6.25L29.25 6.25Q28.23 6.25 27.64 6.90Q27.06 7.55 27.06 8.67L27.06 8.67L27.06 13.00L25.79 13.00L25.79 5.34L27.06 5.34L27.06 6.53Q27.51 5.84 28.12 5.50Q28.73 5.15 29.53 5.15L29.53 5.15Q30.85 5.15 31.53 5.97Q32.20 6.79 32.20 8.37ZM34.46 8.43L34.46 7.68L35.85 7.68L35.85 3.50L34.33 3.78L34.33 2.99L35.90 2.72L36.84 2.72L36.84 7.68L38.24 7.68L38.24 8.43L34.46 8.43ZM40.07 8.43L40.07 7.68L41.47 7.68L41.47 3.50L39.94 3.78L39.94 2.99L41.51 2.72L42.45 2.72L42.45 7.68L43.85 7.68L43.85 8.43L40.07 8.43ZM48.20 5.34L48.20 5.34Q48.83 5.46 49.17 5.83Q49.52 6.21 49.52 6.77L49.52 6.77Q49.52 7.62 48.87 8.07Q48.22 8.53 47.01 8.53L47.01 8.53Q46.62 8.53 46.19 8.46Q45.77 8.39 45.29 8.25L45.29 8.25L45.29 7.42Q45.64 7.61 46.05 7.70Q46.46 7.79 46.92 7.79L46.92 7.79Q47.66 7.79 48.07 7.52Q48.48 7.25 48.48 6.77L48.48 6.77Q48.48 6.26 48.10 6.00Q47.72 5.74 46.98 5.74L46.98 5.74L46.40 5.74L46.40 5.00L47.04 5.00Q47.68 5.00 48.01 4.79Q48.34 4.57 48.34 4.16L48.34 4.16Q48.34 3.77 48.00 3.56Q47.66 3.35 47.01 3.35L47.01 3.35Q46.74 3.35 46.39 3.41Q46.04 3.47 45.49 3.63L45.49 3.63L45.49 2.84Q45.99 2.73 46.42 2.67Q46.86 2.60 47.24 2.60L47.24 2.60Q48.22 2.60 48.80 3.01Q49.38 3.41 49.38 4.09L49.38 4.09Q49.38 4.56 49.07 4.89Q48.76 5.22 48.20 5.34Z"></path></svg>