<svg height="16.296875" width="48.0908203125" xmlns="http://www.w3.org/2000/svg" ><path d="M6.36 6.50L6.36 6.50L6.36 2.36L7.62 2.36L7.62 13.00L6.36 13.00L6.36 11.85Q5.96 12.53 5.36 12.86Q4.75 13.19 3.90 13.19L3.90 13.19Q2.52 13.19 1.64 12.09Q0.77 10.98 0.77 9.17L0.77 9.17Q0.77 7.37 1.64 6.26Q2.52 5.15 3.90 5.15L3.90 5.15Q4.75 5.15 5.36 5.49Q5.96 5.82 6.36 6.50ZM2.07 9.17L2.07 9.17Q2.07 10.56 2.64 11.35Q3.21 12.14 4.21 12.14L4.21 12.14Q5.21 12.14 5.78 11.35Q6.36 10.56 6.36 9.17L6.36 9.17Q6.36 7.79 5.78 7.00Q5.21 6.21 4.21 6.21L4.21 6.21Q3.21 6.21 2.64 7.00Q2.07 7.79 2.07 9.17ZM9.66 6.34L9.66 5.34L15.63 5.34L15.63 6.49L10.90 11.99L12.10 11.99Q12.33 10.88 12.91 10.40L12.91 10.40Q13.35 10.02 14.01 10.02L14.01 10.02Q14.91 10.02 15.31 10.62L15.31 10.62Q15.57 11.01 15.57 11.60L15.57 11.60Q15.57 12.26 15.15 12.58L15.15 12.58Q14.59 13.00 13.73 13.00L13.73 13.00L13.01 13.00Q12.99 13.34 12.99 13.75L12.99 13.75L11.94 13.75Q11.94 13.35 11.96 13.00L11.96 13.00L9.49 13.00L9.49 11.85L14.22 6.34L9.66 6.34ZM13.15 11.99L13.15 11.99L13.54 11.99Q14.48 11.99 14.48 11.62L14.48 11.62Q14.48 10.99 14 11.00L14 11.00Q13.40 11.01 13.15 11.99ZM24.10 5.34L20.74 13.71Q20.21 15.07 19.70 15.49Q19.20 15.91 18.35 15.91L18.35 15.91L17.34 15.91L17.34 14.85L18.08 14.85Q18.60 14.85 18.89 14.61Q19.17 14.36 19.52 13.45L19.52 13.45L19.75 12.87L16.65 5.34L17.99 5.34L20.38 11.33L22.77 5.34L24.10 5.34ZM26.52 6.46L25.31 6.46L25.31 5.34L28.92 5.34L28.92 6.46L27.77 6.46L27.77 11.87L28.92 11.87L28.92 13.00L25.31 13.00L25.31 11.87L26.52 11.87L26.52 6.46ZM32.05 13.00L32.05 7.54L32.48 7.54Q33.79 7.54 34.38 6.76L34.38 6.76Q34.77 6.24 34.77 5.57L34.77 5.57Q34.77 4.66 34.38 4.22L34.38 4.22Q33.70 3.44 32.48 3.44L32.48 3.44Q31.93 3.44 31.39 3.59L31.39 3.59Q30.86 3.73 30.32 4.03L30.32 4.03L30.32 2.85Q30.84 2.61 31.40 2.50L31.40 2.50Q31.95 2.37 32.53 2.37L32.53 2.37Q34.41 2.37 35.36 3.45L35.36 3.45Q36.10 4.30 36.10 5.57L36.10 5.57Q36.10 6.73 35.36 7.52L35.36 7.52Q34.60 8.33 33.43 8.54L33.43 8.54L33.43 13.00L32.05 13.00ZM37.93 8.43L37.93 7.68L39.33 7.68L39.33 3.50L37.80 3.78L37.80 2.99L39.38 2.72L40.31 2.72L40.31 7.68L41.71 7.68L41.71 8.43L37.93 8.43ZM44.31 7.65L44.31 7.65L47.21 7.65L47.21 8.43L43.12 8.43L43.12 7.68Q43.35 7.46 43.78 7.08L43.78 7.08Q46.14 5.00 46.14 4.35L46.14 4.35Q46.14 3.90 45.78 3.63Q45.42 3.35 44.84 3.35L44.84 3.35Q44.49 3.35 44.07 3.47Q43.65 3.59 43.16 3.83L43.16 3.83L43.16 2.99Q43.69 2.80 44.14 2.70Q44.60 2.60 44.99 2.60L44.99 2.60Q45.98 2.60 46.57 3.06Q47.17 3.51 47.17 4.25L47.17 4.25Q47.17 5.20 44.91 7.14L44.91 7.14Q44.52 7.46 44.31 7.65Z"></path></svg>