<svg height="16.296875" width="27.6171875" xmlns="http://www.w3.org/2000/svg" ><path d="M1.27 13.00L1.27 2.36L2.54 2.36L2.54 8.64L6.29 5.34L7.90 5.34L3.83 8.92L8.07 13.00L6.43 13.00L2.54 9.26L2.54 13.00L1.27 13.00ZM13.10 5.34L15.98 13.00L14.64 13.00L13.95 11.12L10.55 11.12L9.86 13.00L8.52 13.00L11.40 5.34L13.10 5.34ZM12.25 6.57L10.94 10.10L13.56 10.10L12.25 6.57ZM17.36 5.58L17.36 2.72L20.85 2.72L20.85 3.37L18.18 3.37L18.18 4.76Q18.37 4.70 18.57 4.68L18.57 4.68Q18.76 4.65 18.95 4.65L18.95 4.65Q20.05 4.65 20.69 5.17L20.69 5.17Q21.33 5.69 21.33 6.59L21.33 6.59Q21.33 7.51 20.67 8.03L20.67 8.03Q20.02 8.53 18.81 8.53L18.81 8.53Q18.40 8.53 17.97 8.47Q17.54 8.41 17.09 8.29L17.09 8.29L17.09 7.51Q17.48 7.70 17.90 7.79L17.90 7.79Q18.33 7.88 18.80 7.88L18.80 7.88Q19.56 7.88 20.00 7.53Q20.45 7.18 20.45 6.59Q20.45 6.00 20.00 5.65Q19.56 5.30 18.80 5.30L18.80 5.30Q18.44 5.30 18.09 5.37Q17.73 5.43 17.36 5.58L17.36 5.58ZM25.59 5.34L25.59 5.34Q26.22 5.46 26.56 5.83Q26.91 6.21 26.91 6.77L26.91 6.77Q26.91 7.62 26.26 8.07Q25.61 8.53 24.40 8.53L24.40 8.53Q24.01 8.53 23.58 8.46Q23.15 8.39 22.67 8.25L22.67 8.25L22.67 7.42Q23.03 7.61 23.44 7.70Q23.84 7.79 24.30 7.79L24.30 7.79Q25.05 7.79 25.46 7.52Q25.87 7.25 25.87 6.77L25.87 6.77Q25.87 6.26 25.49 6.00Q25.11 5.74 24.37 5.74L24.37 5.74L23.78 5.74L23.78 5.00L24.42 5.00Q25.07 5.00 25.40 4.79Q25.73 4.57 25.73 4.16L25.73 4.16Q25.73 3.77 25.39 3.56Q25.05 3.35 24.40 3.35L24.40 3.35Q24.12 3.35 23.78 3.41Q23.43 3.47 22.87 3.63L22.87 3.63L22.87 2.84Q23.37 2.73 23.81 2.67Q24.25 2.60 24.62 2.60L24.62 2.60Q25.61 2.60 26.19 3.01Q26.76 3.41 26.76 4.09L26.76 4.09Q26.76 4.56 26.46 4.89Q26.15 5.22 25.59 5.34Z"></path></svg>