<svg height="16.296875" width="33.2294921875" xmlns="http://www.w3.org/2000/svg" ><path d="M1.27 13.00L1.27 2.36L2.54 2.36L2.54 8.64L6.29 5.34L7.90 5.34L3.83 8.92L8.07 13.00L6.43 13.00L2.54 9.26L2.54 13.00L1.27 13.00ZM13.10 5.34L15.98 13.00L14.64 13.00L13.95 11.12L10.55 11.12L9.86 13.00L8.52 13.00L11.40 5.34L13.10 5.34ZM12.25 6.57L10.94 10.10L13.56 10.10L12.25 6.57ZM19.97 5.34L19.97 5.34Q20.60 5.46 20.95 5.83Q21.29 6.21 21.29 6.77L21.29 6.77Q21.29 7.62 20.64 8.07Q20.00 8.53 18.79 8.53L18.79 8.53Q18.40 8.53 17.97 8.46Q17.54 8.39 17.06 8.25L17.06 8.25L17.06 7.42Q17.42 7.61 17.82 7.70Q18.23 7.79 18.69 7.79L18.69 7.79Q19.43 7.79 19.84 7.52Q20.25 7.25 20.25 6.77L20.25 6.77Q20.25 6.26 19.88 6.00Q19.50 5.74 18.76 5.74L18.76 5.74L18.17 5.74L18.17 5.00L18.81 5.00Q19.46 5.00 19.79 4.79Q20.12 4.57 20.12 4.16L20.12 4.16Q20.12 3.77 19.78 3.56Q19.43 3.35 18.79 3.35L18.79 3.35Q18.51 3.35 18.16 3.41Q17.81 3.47 17.26 3.63L17.26 3.63L17.26 2.84Q17.76 2.73 18.20 2.67Q18.63 2.60 19.01 2.60L19.01 2.60Q20.00 2.60 20.57 3.01Q21.15 3.41 21.15 4.09L21.15 4.09Q21.15 4.56 20.84 4.89Q20.54 5.22 19.97 5.34ZM25.59 5.34L25.59 5.34Q26.22 5.46 26.56 5.83Q26.91 6.21 26.91 6.77L26.91 6.77Q26.91 7.62 26.26 8.07Q25.61 8.53 24.40 8.53L24.40 8.53Q24.01 8.53 23.58 8.46Q23.15 8.39 22.67 8.25L22.67 8.25L22.67 7.42Q23.03 7.61 23.44 7.70Q23.84 7.79 24.30 7.79L24.30 7.79Q25.05 7.79 25.46 7.52Q25.87 7.25 25.87 6.77L25.87 6.77Q25.87 6.26 25.49 6.00Q25.11 5.74 24.37 5.74L24.37 5.74L23.78 5.74L23.78 5.00L24.42 5.00Q25.07 5.00 25.40 4.79Q25.73 4.57 25.73 4.16L25.73 4.16Q25.73 3.77 25.39 3.56Q25.05 3.35 24.40 3.35L24.40 3.35Q24.12 3.35 23.78 3.41Q23.43 3.47 22.87 3.63L22.87 3.63L22.87 2.84Q23.37 2.73 23.81 2.67Q24.25 2.60 24.62 2.60L24.62 2.60Q25.61 2.60 26.19 3.01Q26.76 3.41 26.76 4.09L26.76 4.09Q26.76 4.56 26.46 4.89Q26.15 5.22 25.59 5.34ZM30.88 6.41L30.88 3.55L28.77 6.41L30.88 6.41ZM28.05 6.33L30.73 2.72L31.86 2.72L31.86 6.41L32.79 6.41L32.79 7.16L31.86 7.16L31.86 8.43L30.88 8.43L30.88 7.16L28.05 7.16L28.05 6.33Z"></path></svg>