<svg height="16.296875" width="33.5234375" xmlns="http://www.w3.org/2000/svg" ><path d="M1.27 13.00L1.27 2.36L2.54 2.36L2.54 8.64L6.29 5.34L7.90 5.34L3.83 8.92L8.07 13.00L6.43 13.00L2.54 9.26L2.54 13.00L1.27 13.00ZM14.16 9.15L12.91 9.15Q11.38 9.15 10.79 9.50Q10.21 9.84 10.21 10.68L10.21 10.68Q10.21 11.35 10.65 11.75Q11.09 12.14 11.85 12.14L11.85 12.14Q12.89 12.14 13.52 11.40Q14.16 10.66 14.16 9.43L14.16 9.43L14.16 9.15ZM15.42 8.63L15.42 8.63L15.42 13.00L14.16 13.00L14.16 11.83Q13.73 12.53 13.08 12.86Q12.44 13.19 11.51 13.19L11.51 13.19Q10.34 13.19 9.64 12.53Q8.95 11.87 8.95 10.77L8.95 10.77Q8.95 9.47 9.81 8.82Q10.68 8.16 12.39 8.16L12.39 8.16L14.16 8.16L14.16 8.04Q14.16 7.17 13.59 6.70Q13.02 6.22 11.98 6.22L11.98 6.22Q11.33 6.22 10.71 6.38Q10.08 6.54 9.51 6.85L9.51 6.85L9.51 5.69Q10.20 5.42 10.85 5.29Q11.50 5.15 12.11 5.15L12.11 5.15Q13.77 5.15 14.59 6.02Q15.42 6.88 15.42 8.63ZM13.15 3.63L13.15 3.63L12.76 3.25Q12.61 3.12 12.49 3.05Q12.38 2.99 12.29 2.99L12.29 2.99Q12.03 2.99 11.91 3.24Q11.79 3.49 11.77 4.05L11.77 4.05L10.92 4.05Q10.93 3.12 11.28 2.62Q11.63 2.12 12.25 2.12L12.25 2.12Q12.51 2.12 12.73 2.21Q12.95 2.31 13.20 2.54L13.20 2.54L13.59 2.91Q13.74 3.05 13.85 3.11Q13.97 3.18 14.05 3.18L14.05 3.18Q14.31 3.18 14.44 2.93Q14.56 2.68 14.57 2.12L14.57 2.12L15.43 2.12Q15.42 3.04 15.07 3.54Q14.72 4.05 14.10 4.05L14.10 4.05Q13.84 4.05 13.62 3.95Q13.40 3.86 13.15 3.63ZM20.27 5.34L20.27 5.34Q20.90 5.46 21.24 5.83Q21.59 6.21 21.59 6.77L21.59 6.77Q21.59 7.62 20.94 8.07Q20.29 8.53 19.08 8.53L19.08 8.53Q18.69 8.53 18.26 8.46Q17.83 8.39 17.36 8.25L17.36 8.25L17.36 7.42Q17.71 7.61 18.12 7.70Q18.53 7.79 18.98 7.79L18.98 7.79Q19.73 7.79 20.14 7.52Q20.55 7.25 20.55 6.77L20.55 6.77Q20.55 6.26 20.17 6.00Q19.79 5.74 19.05 5.74L19.05 5.74L18.46 5.74L18.46 5.00L19.11 5.00Q19.75 5.00 20.08 4.79Q20.41 4.57 20.41 4.16L20.41 4.16Q20.41 3.77 20.07 3.56Q19.73 3.35 19.08 3.35L19.08 3.35Q18.81 3.35 18.46 3.41Q18.11 3.47 17.55 3.63L17.55 3.63L17.55 2.84Q18.05 2.73 18.49 2.67Q18.93 2.60 19.30 2.60L19.30 2.60Q20.29 2.60 20.87 3.01Q21.44 3.41 21.44 4.09L21.44 4.09Q21.44 4.56 21.14 4.89Q20.83 5.22 20.27 5.34ZM25.88 5.34L25.88 5.34Q26.51 5.46 26.85 5.83Q27.20 6.21 27.20 6.77L27.20 6.77Q27.20 7.62 26.55 8.07Q25.90 8.53 24.69 8.53L24.69 8.53Q24.30 8.53 23.87 8.46Q23.45 8.39 22.97 8.25L22.97 8.25L22.97 7.42Q23.32 7.61 23.73 7.70Q24.14 7.79 24.60 7.79L24.60 7.79Q25.34 7.79 25.75 7.52Q26.16 7.25 26.16 6.77L26.16 6.77Q26.16 6.26 25.78 6.00Q25.40 5.74 24.66 5.74L24.66 5.74L24.08 5.74L24.08 5.00L24.72 5.00Q25.36 5.00 25.69 4.79Q26.02 4.57 26.02 4.16L26.02 4.16Q26.02 3.77 25.68 3.56Q25.34 3.35 24.69 3.35L24.69 3.35Q24.42 3.35 24.07 3.41Q23.72 3.47 23.17 3.63L23.17 3.63L23.17 2.84Q23.67 2.73 24.10 2.67Q24.54 2.60 24.92 2.60L24.92 2.60Q25.90 2.60 26.48 3.01Q27.06 3.41 27.06 4.09L27.06 4.09Q27.06 4.56 26.75 4.89Q26.44 5.22 25.88 5.34ZM31.17 6.41L31.17 3.55L29.06 6.41L31.17 6.41ZM28.34 6.33L31.02 2.72L32.16 2.72L32.16 6.41L33.08 6.41L33.08 7.16L32.16 7.16L32.16 8.43L31.17 8.43L31.17 7.16L28.34 7.16L28.34 6.33Z"></path></svg>