<svg height="16.296875" width="28.21875" xmlns="http://www.w3.org/2000/svg" ><path d="M1.27 13.00L1.27 2.36L2.54 2.36L2.54 8.64L6.29 5.34L7.90 5.34L3.83 8.92L8.07 13.00L6.43 13.00L2.54 9.26L2.54 13.00L1.27 13.00ZM14.46 6.50L14.46 6.50L14.46 5.34L15.72 5.34L15.72 13.00L14.46 13.00L14.46 11.85Q14.07 12.53 13.46 12.86Q12.86 13.19 12.01 13.19L12.01 13.19Q10.62 13.19 9.75 12.09Q8.88 10.98 8.88 9.17L8.88 9.17Q8.88 7.37 9.75 6.26Q10.62 5.15 12.01 5.15L12.01 5.15Q12.86 5.15 13.46 5.49Q14.07 5.82 14.46 6.50ZM10.18 9.17L10.18 9.17Q10.18 10.56 10.75 11.35Q11.32 12.14 12.32 12.14L12.32 12.14Q13.32 12.14 13.89 11.35Q14.46 10.56 14.46 9.17L14.46 9.17Q14.46 7.79 13.89 7.00Q13.32 6.21 12.32 6.21L12.32 6.21Q11.32 6.21 10.75 7.00Q10.18 7.79 10.18 9.17ZM13.45 3.63L13.45 3.63L13.06 3.25Q12.91 3.12 12.80 3.05Q12.69 2.99 12.60 2.99L12.60 2.99Q12.34 2.99 12.22 3.24Q12.09 3.49 12.08 4.05L12.08 4.05L11.22 4.05Q11.24 3.12 11.59 2.62Q11.94 2.12 12.56 2.12L12.56 2.12Q12.82 2.12 13.04 2.21Q13.25 2.31 13.51 2.54L13.51 2.54L13.90 2.91Q14.05 3.05 14.16 3.11Q14.27 3.18 14.36 3.18L14.36 3.18Q14.62 3.18 14.75 2.93Q14.87 2.68 14.88 2.12L14.88 2.12L15.74 2.12Q15.72 3.04 15.37 3.54Q15.03 4.05 14.40 4.05L14.40 4.05Q14.14 4.05 13.92 3.95Q13.71 3.86 13.45 3.63ZM17.96 5.58L17.96 2.72L21.45 2.72L21.45 3.37L18.78 3.37L18.78 4.76Q18.97 4.70 19.17 4.68L19.17 4.68Q19.36 4.65 19.55 4.65L19.55 4.65Q20.65 4.65 21.29 5.17L21.29 5.17Q21.94 5.69 21.94 6.59L21.94 6.59Q21.94 7.51 21.27 8.03L21.27 8.03Q20.62 8.53 19.41 8.53L19.41 8.53Q19.00 8.53 18.57 8.47Q18.14 8.41 17.69 8.29L17.69 8.29L17.69 7.51Q18.08 7.70 18.50 7.79L18.50 7.79Q18.93 7.88 19.40 7.88L19.40 7.88Q20.16 7.88 20.60 7.53Q21.05 7.18 21.05 6.59Q21.05 6.00 20.60 5.65Q20.16 5.30 19.40 5.30L19.40 5.30Q19.04 5.30 18.69 5.37Q18.33 5.43 17.96 5.58L17.96 5.58ZM26.19 5.34L26.19 5.34Q26.82 5.46 27.16 5.83Q27.51 6.21 27.51 6.77L27.51 6.77Q27.51 7.62 26.86 8.07Q26.21 8.53 25.00 8.53L25.00 8.53Q24.61 8.53 24.18 8.46Q23.75 8.39 23.28 8.25L23.28 8.25L23.28 7.42Q23.63 7.61 24.04 7.70Q24.45 7.79 24.90 7.79L24.90 7.79Q25.65 7.79 26.06 7.52Q26.47 7.25 26.47 6.77L26.47 6.77Q26.47 6.26 26.09 6.00Q25.71 5.74 24.97 5.74L24.97 5.74L24.38 5.74L24.38 5.00L25.03 5.00Q25.67 5.00 26.00 4.79Q26.33 4.57 26.33 4.16L26.33 4.16Q26.33 3.77 25.99 3.56Q25.65 3.35 25.00 3.35L25.00 3.35Q24.73 3.35 24.38 3.41Q24.03 3.47 23.47 3.63L23.47 3.63L23.47 2.84Q23.97 2.73 24.41 2.67Q24.85 2.60 25.22 2.60L25.22 2.60Q26.21 2.60 26.79 3.01Q27.36 3.41 27.36 4.09L27.36 4.09Q27.36 4.56 27.06 4.89Q26.75 5.22 26.19 5.34Z"></path></svg>