<svg height="16.296875" width="33.8310546875" xmlns="http://www.w3.org/2000/svg" ><path d="M1.27 13.00L1.27 2.36L2.54 2.36L2.54 8.64L6.29 5.34L7.90 5.34L3.83 8.92L8.07 13.00L6.43 13.00L2.54 9.26L2.54 13.00L1.27 13.00ZM14.46 6.50L14.46 6.50L14.46 5.34L15.72 5.34L15.72 13.00L14.46 13.00L14.46 11.85Q14.07 12.53 13.46 12.86Q12.86 13.19 12.01 13.19L12.01 13.19Q10.62 13.19 9.75 12.09Q8.88 10.98 8.88 9.17L8.88 9.17Q8.88 7.37 9.75 6.26Q10.62 5.15 12.01 5.15L12.01 5.15Q12.86 5.15 13.46 5.49Q14.07 5.82 14.46 6.50ZM10.18 9.17L10.18 9.17Q10.18 10.56 10.75 11.35Q11.32 12.14 12.32 12.14L12.32 12.14Q13.32 12.14 13.89 11.35Q14.46 10.56 14.46 9.17L14.46 9.17Q14.46 7.79 13.89 7.00Q13.32 6.21 12.32 6.21L12.32 6.21Q11.32 6.21 10.75 7.00Q10.18 7.79 10.18 9.17ZM13.45 3.63L13.45 3.63L13.06 3.25Q12.91 3.12 12.80 3.05Q12.69 2.99 12.60 2.99L12.60 2.99Q12.34 2.99 12.22 3.24Q12.09 3.49 12.08 4.05L12.08 4.05L11.22 4.05Q11.24 3.12 11.59 2.62Q11.94 2.12 12.56 2.12L12.56 2.12Q12.82 2.12 13.04 2.21Q13.25 2.31 13.51 2.54L13.51 2.54L13.90 2.91Q14.05 3.05 14.16 3.11Q14.27 3.18 14.36 3.18L14.36 3.18Q14.62 3.18 14.75 2.93Q14.87 2.68 14.88 2.12L14.88 2.12L15.74 2.12Q15.72 3.04 15.37 3.54Q15.03 4.05 14.40 4.05L14.40 4.05Q14.14 4.05 13.92 3.95Q13.71 3.86 13.45 3.63ZM20.58 5.34L20.58 5.34Q21.21 5.46 21.55 5.83Q21.90 6.21 21.90 6.77L21.90 6.77Q21.90 7.62 21.25 8.07Q20.60 8.53 19.39 8.53L19.39 8.53Q19.00 8.53 18.57 8.46Q18.14 8.39 17.66 8.25L17.66 8.25L17.66 7.42Q18.02 7.61 18.43 7.70Q18.83 7.79 19.29 7.79L19.29 7.79Q20.04 7.79 20.45 7.52Q20.86 7.25 20.86 6.77L20.86 6.77Q20.86 6.26 20.48 6.00Q20.10 5.74 19.36 5.74L19.36 5.74L18.77 5.74L18.77 5.00L19.41 5.00Q20.06 5.00 20.39 4.79Q20.72 4.57 20.72 4.16L20.72 4.16Q20.72 3.77 20.38 3.56Q20.04 3.35 19.39 3.35L19.39 3.35Q19.11 3.35 18.76 3.41Q18.42 3.47 17.86 3.63L17.86 3.63L17.86 2.84Q18.36 2.73 18.80 2.67Q19.24 2.60 19.61 2.60L19.61 2.60Q20.60 2.60 21.17 3.01Q21.75 3.41 21.75 4.09L21.75 4.09Q21.75 4.56 21.44 4.89Q21.14 5.22 20.58 5.34ZM26.19 5.34L26.19 5.34Q26.82 5.46 27.16 5.83Q27.51 6.21 27.51 6.77L27.51 6.77Q27.51 7.62 26.86 8.07Q26.21 8.53 25.00 8.53L25.00 8.53Q24.61 8.53 24.18 8.46Q23.75 8.39 23.28 8.25L23.28 8.25L23.28 7.42Q23.63 7.61 24.04 7.70Q24.45 7.79 24.90 7.79L24.90 7.79Q25.65 7.79 26.06 7.52Q26.47 7.25 26.47 6.77L26.47 6.77Q26.47 6.26 26.09 6.00Q25.71 5.74 24.97 5.74L24.97 5.74L24.38 5.74L24.38 5.00L25.03 5.00Q25.67 5.00 26.00 4.79Q26.33 4.57 26.33 4.16L26.33 4.16Q26.33 3.77 25.99 3.56Q25.65 3.35 25.00 3.35L25.00 3.35Q24.73 3.35 24.38 3.41Q24.03 3.47 23.47 3.63L23.47 3.63L23.47 2.84Q23.97 2.73 24.41 2.67Q24.85 2.60 25.22 2.60L25.22 2.60Q26.21 2.60 26.79 3.01Q27.36 3.41 27.36 4.09L27.36 4.09Q27.36 4.56 27.06 4.89Q26.75 5.22 26.19 5.34ZM31.48 6.41L31.48 3.55L29.37 6.41L31.48 6.41ZM28.65 6.33L31.33 2.72L32.46 2.72L32.46 6.41L33.39 6.41L33.39 7.16L32.46 7.16L32.46 8.43L31.48 8.43L31.48 7.16L28.65 7.16L28.65 6.33Z"></path></svg>