<svg height="16.296875" width="34.7607421875" xmlns="http://www.w3.org/2000/svg" ><path d="M1.27 13.00L1.27 2.36L2.54 2.36L2.54 8.64L6.29 5.34L7.90 5.34L3.83 8.92L8.07 13.00L6.43 13.00L2.54 9.26L2.54 13.00L1.27 13.00ZM13.10 5.34L15.98 13.00L14.64 13.00L13.95 11.12L10.55 11.12L9.86 13.00L8.52 13.00L11.40 5.34L13.10 5.34ZM12.25 6.57L10.94 10.10L13.56 10.10L12.25 6.57ZM18.72 13.00L18.72 7.54L19.15 7.54Q20.46 7.54 21.05 6.76L21.05 6.76Q21.44 6.24 21.44 5.57L21.44 5.57Q21.44 4.66 21.05 4.22L21.05 4.22Q20.37 3.44 19.15 3.44L19.15 3.44Q18.60 3.44 18.06 3.59L18.06 3.59Q17.53 3.73 16.99 4.03L16.99 4.03L16.99 2.85Q17.51 2.61 18.07 2.50L18.07 2.50Q18.62 2.37 19.20 2.37L19.20 2.37Q21.08 2.37 22.03 3.45L22.03 3.45Q22.77 4.30 22.77 5.57L22.77 5.57Q22.77 6.73 22.03 7.52L22.03 7.52Q21.27 8.33 20.10 8.54L20.10 8.54L20.10 13.00L18.72 13.00ZM24.51 5.58L24.51 2.72L27.99 2.72L27.99 3.37L25.32 3.37L25.32 4.76Q25.51 4.70 25.71 4.68L25.71 4.68Q25.90 4.65 26.09 4.65L26.09 4.65Q27.19 4.65 27.84 5.17L27.84 5.17Q28.48 5.69 28.48 6.59L28.48 6.59Q28.48 7.51 27.82 8.03L27.82 8.03Q27.16 8.53 25.96 8.53L25.96 8.53Q25.55 8.53 25.12 8.47Q24.68 8.41 24.23 8.29L24.23 8.29L24.23 7.51Q24.62 7.70 25.05 7.79L25.05 7.79Q25.47 7.88 25.94 7.88L25.94 7.88Q26.70 7.88 27.15 7.53Q27.59 7.18 27.59 6.59Q27.59 6.00 27.15 5.65Q26.70 5.30 25.94 5.30L25.94 5.30Q25.59 5.30 25.23 5.37Q24.88 5.43 24.51 5.58L24.51 5.58ZM30.12 5.58L30.12 2.72L33.61 2.72L33.61 3.37L30.93 3.37L30.93 4.76Q31.12 4.70 31.32 4.68L31.32 4.68Q31.51 4.65 31.71 4.65L31.71 4.65Q32.81 4.65 33.45 5.17L33.45 5.17Q34.09 5.69 34.09 6.59L34.09 6.59Q34.09 7.51 33.43 8.03L33.43 8.03Q32.77 8.53 31.57 8.53L31.57 8.53Q31.16 8.53 30.73 8.47Q30.30 8.41 29.85 8.29L29.85 8.29L29.85 7.51Q30.24 7.70 30.66 7.79L30.66 7.79Q31.08 7.88 31.55 7.88L31.55 7.88Q32.31 7.88 32.76 7.53Q33.20 7.18 33.20 6.59Q33.20 6.00 32.76 5.65Q32.31 5.30 31.55 5.30L31.55 5.30Q31.20 5.30 30.84 5.37Q30.49 5.43 30.12 5.58L30.12 5.58Z"></path></svg>