<svg height="16.296875" width="27.0224609375" xmlns="http://www.w3.org/2000/svg" ><path d="M1.27 13.00L1.27 2.36L2.54 2.36L2.54 8.64L6.29 5.34L7.90 5.34L3.83 8.92L8.07 13.00L6.43 13.00L2.54 9.26L2.54 13.00L1.27 13.00ZM8.98 6.81L8.98 5.65Q9.50 5.40 10.07 5.28Q10.63 5.15 11.27 5.15L11.27 5.15Q13.00 5.15 14.01 6.24Q15.03 7.33 15.03 9.17L15.03 9.17Q15.03 11.05 14.00 12.12Q12.97 13.19 11.18 13.19L11.18 13.19Q10.60 13.19 10.05 13.07Q9.50 12.95 8.98 12.71L8.98 12.71L8.98 11.54Q9.51 11.83 10.05 11.98Q10.58 12.13 11.13 12.13L11.13 12.13Q12.35 12.13 13.03 11.35Q13.71 10.58 13.71 9.17L13.71 9.17Q13.71 7.77 13.03 7.00Q12.35 6.22 11.13 6.22L11.13 6.22Q10.58 6.22 10.05 6.37Q9.51 6.51 8.98 6.81L8.98 6.81ZM16.77 5.58L16.77 2.72L20.25 2.72L20.25 3.37L17.58 3.37L17.58 4.76Q17.77 4.70 17.97 4.68L17.97 4.68Q18.16 4.65 18.35 4.65L18.35 4.65Q19.46 4.65 20.10 5.17L20.10 5.17Q20.74 5.69 20.74 6.59L20.74 6.59Q20.74 7.51 20.08 8.03L20.08 8.03Q19.42 8.53 18.22 8.53L18.22 8.53Q17.81 8.53 17.38 8.47Q16.95 8.41 16.50 8.29L16.50 8.29L16.50 7.51Q16.88 7.70 17.31 7.79L17.31 7.79Q17.73 7.88 18.20 7.88L18.20 7.88Q18.96 7.88 19.41 7.53Q19.85 7.18 19.85 6.59Q19.85 6.00 19.41 5.65Q18.96 5.30 18.20 5.30L18.20 5.30Q17.85 5.30 17.49 5.37Q17.14 5.43 16.77 5.58L16.77 5.58ZM24.99 5.34L24.99 5.34Q25.62 5.46 25.97 5.83Q26.31 6.21 26.31 6.77L26.31 6.77Q26.31 7.62 25.66 8.07Q25.01 8.53 23.80 8.53L23.80 8.53Q23.41 8.53 22.99 8.46Q22.56 8.39 22.08 8.25L22.08 8.25L22.08 7.42Q22.44 7.61 22.84 7.70Q23.25 7.79 23.71 7.79L23.71 7.79Q24.45 7.79 24.86 7.52Q25.27 7.25 25.27 6.77L25.27 6.77Q25.27 6.26 24.89 6.00Q24.51 5.74 23.78 5.74L23.78 5.74L23.19 5.74L23.19 5.00L23.83 5.00Q24.47 5.00 24.80 4.79Q25.14 4.57 25.14 4.16L25.14 4.16Q25.14 3.77 24.79 3.56Q24.45 3.35 23.80 3.35L23.80 3.35Q23.53 3.35 23.18 3.41Q22.83 3.47 22.28 3.63L22.28 3.63L22.28 2.84Q22.78 2.73 23.21 2.67Q23.65 2.60 24.03 2.60L24.03 2.60Q25.01 2.60 25.59 3.01Q26.17 3.41 26.17 4.09L26.17 4.09Q26.17 4.56 25.86 4.89Q25.55 5.22 24.99 5.34Z"></path></svg>