<svg height="16.296875" width="26.2021484375" xmlns="http://www.w3.org/2000/svg" ><path d="M1.27 13.00L1.27 2.36L2.54 2.36L2.54 8.64L6.29 5.34L7.90 5.34L3.83 8.92L8.07 13.00L6.43 13.00L2.54 9.26L2.54 13.00L1.27 13.00ZM9.38 13.00L9.38 5.34L14.22 5.34L14.22 6.35L10.65 6.35L10.65 8.41L14.06 8.41L14.06 9.42L10.65 9.42L10.65 11.99L14.31 11.99L14.31 13.00L9.38 13.00ZM15.95 5.58L15.95 2.72L19.43 2.72L19.43 3.37L16.76 3.37L16.76 4.76Q16.95 4.70 17.15 4.68L17.15 4.68Q17.34 4.65 17.53 4.65L17.53 4.65Q18.63 4.65 19.28 5.17L19.28 5.17Q19.92 5.69 19.92 6.59L19.92 6.59Q19.92 7.51 19.26 8.03L19.26 8.03Q18.60 8.53 17.40 8.53L17.40 8.53Q16.99 8.53 16.56 8.47Q16.13 8.41 15.67 8.29L15.67 8.29L15.67 7.51Q16.06 7.70 16.49 7.79L16.49 7.79Q16.91 7.88 17.38 7.88L17.38 7.88Q18.14 7.88 18.59 7.53Q19.03 7.18 19.03 6.59Q19.03 6.00 18.59 5.65Q18.14 5.30 17.38 5.30L17.38 5.30Q17.03 5.30 16.67 5.37Q16.32 5.43 15.95 5.58L15.95 5.58ZM24.17 5.34L24.17 5.34Q24.80 5.46 25.15 5.83Q25.49 6.21 25.49 6.77L25.49 6.77Q25.49 7.62 24.84 8.07Q24.19 8.53 22.98 8.53L22.98 8.53Q22.59 8.53 22.17 8.46Q21.74 8.39 21.26 8.25L21.26 8.25L21.26 7.42Q21.62 7.61 22.02 7.70Q22.43 7.79 22.89 7.79L22.89 7.79Q23.63 7.79 24.04 7.52Q24.45 7.25 24.45 6.77L24.45 6.77Q24.45 6.26 24.07 6.00Q23.69 5.74 22.96 5.74L22.96 5.74L22.37 5.74L22.37 5.00L23.01 5.00Q23.65 5.00 23.98 4.79Q24.32 4.57 24.32 4.16L24.32 4.16Q24.32 3.77 23.97 3.56Q23.63 3.35 22.98 3.35L22.98 3.35Q22.71 3.35 22.36 3.41Q22.01 3.47 21.46 3.63L21.46 3.63L21.46 2.84Q21.96 2.73 22.39 2.67Q22.83 2.60 23.21 2.60L23.21 2.60Q24.19 2.60 24.77 3.01Q25.35 3.41 25.35 4.09L25.35 4.09Q25.35 4.56 25.04 4.89Q24.73 5.22 24.17 5.34Z"></path></svg>