<svg height="16.296875" width="31.814453125" xmlns="http://www.w3.org/2000/svg" ><path d="M1.27 13.00L1.27 2.36L2.54 2.36L2.54 8.64L6.29 5.34L7.90 5.34L3.83 8.92L8.07 13.00L6.43 13.00L2.54 9.26L2.54 13.00L1.27 13.00ZM9.38 13.00L9.38 5.34L14.22 5.34L14.22 6.35L10.65 6.35L10.65 8.41L14.06 8.41L14.06 9.42L10.65 9.42L10.65 11.99L14.31 11.99L14.31 13.00L9.38 13.00ZM18.56 5.34L18.56 5.34Q19.19 5.46 19.53 5.83Q19.88 6.21 19.88 6.77L19.88 6.77Q19.88 7.62 19.23 8.07Q18.58 8.53 17.37 8.53L17.37 8.53Q16.98 8.53 16.55 8.46Q16.13 8.39 15.65 8.25L15.65 8.25L15.65 7.42Q16.00 7.61 16.41 7.70Q16.82 7.79 17.27 7.79L17.27 7.79Q18.02 7.79 18.43 7.52Q18.84 7.25 18.84 6.77L18.84 6.77Q18.84 6.26 18.46 6.00Q18.08 5.74 17.34 5.74L17.34 5.74L16.75 5.74L16.75 5.00L17.40 5.00Q18.04 5.00 18.37 4.79Q18.70 4.57 18.70 4.16L18.70 4.16Q18.70 3.77 18.36 3.56Q18.02 3.35 17.37 3.35L17.37 3.35Q17.10 3.35 16.75 3.41Q16.40 3.47 15.85 3.63L15.85 3.63L15.85 2.84Q16.34 2.73 16.78 2.67Q17.22 2.60 17.60 2.60L17.60 2.60Q18.58 2.60 19.16 3.01Q19.74 3.41 19.74 4.09L19.74 4.09Q19.74 4.56 19.43 4.89Q19.12 5.22 18.56 5.34ZM24.17 5.34L24.17 5.34Q24.80 5.46 25.15 5.83Q25.49 6.21 25.49 6.77L25.49 6.77Q25.49 7.62 24.84 8.07Q24.19 8.53 22.98 8.53L22.98 8.53Q22.59 8.53 22.17 8.46Q21.74 8.39 21.26 8.25L21.26 8.25L21.26 7.42Q21.62 7.61 22.02 7.70Q22.43 7.79 22.89 7.79L22.89 7.79Q23.63 7.79 24.04 7.52Q24.45 7.25 24.45 6.77L24.45 6.77Q24.45 6.26 24.07 6.00Q23.69 5.74 22.96 5.74L22.96 5.74L22.37 5.74L22.37 5.00L23.01 5.00Q23.65 5.00 23.98 4.79Q24.32 4.57 24.32 4.16L24.32 4.16Q24.32 3.77 23.97 3.56Q23.63 3.35 22.98 3.35L22.98 3.35Q22.71 3.35 22.36 3.41Q22.01 3.47 21.46 3.63L21.46 3.63L21.46 2.84Q21.96 2.73 22.39 2.67Q22.83 2.60 23.21 2.60L23.21 2.60Q24.19 2.60 24.77 3.01Q25.35 3.41 25.35 4.09L25.35 4.09Q25.35 4.56 25.04 4.89Q24.73 5.22 24.17 5.34ZM29.46 6.41L29.46 3.55L27.35 6.41L29.46 6.41ZM26.63 6.33L29.31 2.72L30.45 2.72L30.45 6.41L31.37 6.41L31.37 7.16L30.45 7.16L30.45 8.43L29.46 8.43L29.46 7.16L26.63 7.16L26.63 6.33Z"></path></svg>