<svg height="16.296875" width="36.818359375" xmlns="http://www.w3.org/2000/svg" ><path d="M1.27 13.00L1.27 2.36L2.54 2.36L2.54 8.64L6.29 5.34L7.90 5.34L3.83 8.92L8.07 13.00L6.43 13.00L2.54 9.26L2.54 13.00L1.27 13.00ZM8.88 9.50L8.88 9.50L8.88 8.88L14.66 8.88Q14.58 7.58 13.88 6.90Q13.18 6.22 11.93 6.22L11.93 6.22Q11.20 6.22 10.52 6.40Q9.84 6.58 9.17 6.93L9.17 6.93L9.17 5.74Q9.85 5.46 10.56 5.30Q11.27 5.15 12.00 5.15L12.00 5.15Q13.84 5.15 14.91 6.22Q15.98 7.29 15.98 9.11L15.98 9.11Q15.98 10.99 14.96 12.09Q13.95 13.19 12.22 13.19L12.22 13.19Q10.68 13.19 9.78 12.20Q8.88 11.20 8.88 9.50ZM14.62 9.86L10.14 9.86Q10.15 10.90 10.72 11.51Q11.28 12.13 12.21 12.13L12.21 12.13Q13.26 12.13 13.89 11.53Q14.53 10.94 14.62 9.86L14.62 9.86ZM24.40 8.37L24.40 8.37L24.40 13.00L23.15 13.00L23.15 8.42Q23.15 7.33 22.72 6.79Q22.30 6.25 21.45 6.25L21.45 6.25Q20.43 6.25 19.84 6.90Q19.26 7.55 19.26 8.67L19.26 8.67L19.26 13.00L17.99 13.00L17.99 5.34L19.26 5.34L19.26 6.53Q19.71 5.84 20.32 5.50Q20.93 5.15 21.73 5.15L21.73 5.15Q23.05 5.15 23.73 5.97Q24.40 6.79 24.40 8.37ZM26.56 5.58L26.56 2.72L30.05 2.72L30.05 3.37L27.38 3.37L27.38 4.76Q27.57 4.70 27.77 4.68L27.77 4.68Q27.96 4.65 28.15 4.65L28.15 4.65Q29.25 4.65 29.89 5.17L29.89 5.17Q30.54 5.69 30.54 6.59L30.54 6.59Q30.54 7.51 29.87 8.03L29.87 8.03Q29.22 8.53 28.01 8.53L28.01 8.53Q27.60 8.53 27.17 8.47Q26.74 8.41 26.29 8.29L26.29 8.29L26.29 7.51Q26.68 7.70 27.10 7.79L27.10 7.79Q27.53 7.88 28 7.88L28 7.88Q28.76 7.88 29.20 7.53Q29.65 7.18 29.65 6.59Q29.65 6.00 29.20 5.65Q28.76 5.30 28 5.30L28 5.30Q27.64 5.30 27.29 5.37Q26.93 5.43 26.56 5.58L26.56 5.58ZM34.79 5.34L34.79 5.34Q35.42 5.46 35.76 5.83Q36.11 6.21 36.11 6.77L36.11 6.77Q36.11 7.62 35.46 8.07Q34.81 8.53 33.60 8.53L33.60 8.53Q33.21 8.53 32.78 8.46Q32.35 8.39 31.88 8.25L31.88 8.25L31.88 7.42Q32.23 7.61 32.64 7.70Q33.04 7.79 33.50 7.79L33.50 7.79Q34.25 7.79 34.66 7.52Q35.07 7.25 35.07 6.77L35.07 6.77Q35.07 6.26 34.69 6.00Q34.31 5.74 33.57 5.74L33.57 5.74L32.98 5.74L32.98 5.00L33.63 5.00Q34.27 5.00 34.60 4.79Q34.93 4.57 34.93 4.16L34.93 4.16Q34.93 3.77 34.59 3.56Q34.25 3.35 33.60 3.35L33.60 3.35Q33.33 3.35 32.98 3.41Q32.63 3.47 32.07 3.63L32.07 3.63L32.07 2.84Q32.57 2.73 33.01 2.67Q33.45 2.60 33.82 2.60L33.82 2.60Q34.81 2.60 35.39 3.01Q35.96 3.41 35.96 4.09L35.96 4.09Q35.96 4.56 35.66 4.89Q35.35 5.22 34.79 5.34Z"></path></svg>