<svg height="16.296875" width="42.4306640625" xmlns="http://www.w3.org/2000/svg" ><path d="M1.27 13.00L1.27 2.36L2.54 2.36L2.54 8.64L6.29 5.34L7.90 5.34L3.83 8.92L8.07 13.00L6.43 13.00L2.54 9.26L2.54 13.00L1.27 13.00ZM8.88 9.50L8.88 9.50L8.88 8.88L14.66 8.88Q14.58 7.58 13.88 6.90Q13.18 6.22 11.93 6.22L11.93 6.22Q11.20 6.22 10.52 6.40Q9.84 6.58 9.17 6.93L9.17 6.93L9.17 5.74Q9.85 5.46 10.56 5.30Q11.27 5.15 12.00 5.15L12.00 5.15Q13.84 5.15 14.91 6.22Q15.98 7.29 15.98 9.11L15.98 9.11Q15.98 10.99 14.96 12.09Q13.95 13.19 12.22 13.19L12.22 13.19Q10.68 13.19 9.78 12.20Q8.88 11.20 8.88 9.50ZM14.62 9.86L10.14 9.86Q10.15 10.90 10.72 11.51Q11.28 12.13 12.21 12.13L12.21 12.13Q13.26 12.13 13.89 11.53Q14.53 10.94 14.62 9.86L14.62 9.86ZM24.40 8.37L24.40 8.37L24.40 13.00L23.15 13.00L23.15 8.42Q23.15 7.33 22.72 6.79Q22.30 6.25 21.45 6.25L21.45 6.25Q20.43 6.25 19.84 6.90Q19.26 7.55 19.26 8.67L19.26 8.67L19.26 13.00L17.99 13.00L17.99 5.34L19.26 5.34L19.26 6.53Q19.71 5.84 20.32 5.50Q20.93 5.15 21.73 5.15L21.73 5.15Q23.05 5.15 23.73 5.97Q24.40 6.79 24.40 8.37ZM29.18 5.34L29.18 5.34Q29.80 5.46 30.15 5.83Q30.50 6.21 30.50 6.77L30.50 6.77Q30.50 7.62 29.85 8.07Q29.20 8.53 27.99 8.53L27.99 8.53Q27.60 8.53 27.17 8.46Q26.74 8.39 26.26 8.25L26.26 8.25L26.26 7.42Q26.62 7.61 27.03 7.70Q27.43 7.79 27.89 7.79L27.89 7.79Q28.64 7.79 29.05 7.52Q29.46 7.25 29.46 6.77L29.46 6.77Q29.46 6.26 29.08 6.00Q28.70 5.74 27.96 5.74L27.96 5.74L27.37 5.74L27.37 5.00L28.01 5.00Q28.66 5.00 28.99 4.79Q29.32 4.57 29.32 4.16L29.32 4.16Q29.32 3.77 28.98 3.56Q28.64 3.35 27.99 3.35L27.99 3.35Q27.71 3.35 27.36 3.41Q27.02 3.47 26.46 3.63L26.46 3.63L26.46 2.84Q26.96 2.73 27.40 2.67Q27.84 2.60 28.21 2.60L28.21 2.60Q29.20 2.60 29.77 3.01Q30.35 3.41 30.35 4.09L30.35 4.09Q30.35 4.56 30.04 4.89Q29.74 5.22 29.18 5.34ZM34.79 5.34L34.79 5.34Q35.42 5.46 35.76 5.83Q36.11 6.21 36.11 6.77L36.11 6.77Q36.11 7.62 35.46 8.07Q34.81 8.53 33.60 8.53L33.60 8.53Q33.21 8.53 32.78 8.46Q32.35 8.39 31.88 8.25L31.88 8.25L31.88 7.42Q32.23 7.61 32.64 7.70Q33.04 7.79 33.50 7.79L33.50 7.79Q34.25 7.79 34.66 7.52Q35.07 7.25 35.07 6.77L35.07 6.77Q35.07 6.26 34.69 6.00Q34.31 5.74 33.57 5.74L33.57 5.74L32.98 5.74L32.98 5.00L33.63 5.00Q34.27 5.00 34.60 4.79Q34.93 4.57 34.93 4.16L34.93 4.16Q34.93 3.77 34.59 3.56Q34.25 3.35 33.60 3.35L33.60 3.35Q33.33 3.35 32.98 3.41Q32.63 3.47 32.07 3.63L32.07 3.63L32.07 2.84Q32.57 2.73 33.01 2.67Q33.45 2.60 33.82 2.60L33.82 2.60Q34.81 2.60 35.39 3.01Q35.96 3.41 35.96 4.09L35.96 4.09Q35.96 4.56 35.66 4.89Q35.35 5.22 34.79 5.34ZM40.08 6.41L40.08 3.55L37.97 6.41L40.08 6.41ZM37.25 6.33L39.93 2.72L41.06 2.72L41.06 6.41L41.99 6.41L41.99 7.16L41.06 7.16L41.06 8.43L40.08 8.43L40.08 7.16L37.25 7.16L37.25 6.33Z"></path></svg>