<svg height="16.296875" width="35.0888671875" xmlns="http://www.w3.org/2000/svg" ><path d="M1.27 13.00L1.27 2.36L2.54 2.36L2.54 8.64L6.29 5.34L7.90 5.34L3.83 8.92L8.07 13.00L6.43 13.00L2.54 9.26L2.54 13.00L1.27 13.00ZM8.88 9.50L8.88 9.50L8.88 8.88L14.66 8.88Q14.58 7.58 13.88 6.90Q13.18 6.22 11.93 6.22L11.93 6.22Q11.20 6.22 10.52 6.40Q9.84 6.58 9.17 6.93L9.17 6.93L9.17 5.74Q9.85 5.46 10.56 5.30Q11.27 5.15 12.00 5.15L12.00 5.15Q13.84 5.15 14.91 6.22Q15.98 7.29 15.98 9.11L15.98 9.11Q15.98 10.99 14.96 12.09Q13.95 13.19 12.22 13.19L12.22 13.19Q10.68 13.19 9.78 12.20Q8.88 11.20 8.88 9.50ZM14.62 9.86L10.14 9.86Q10.15 10.90 10.72 11.51Q11.28 12.13 12.21 12.13L12.21 12.13Q13.26 12.13 13.89 11.53Q14.53 10.94 14.62 9.86L14.62 9.86ZM19.05 13.00L19.04 7.54L19.48 7.54Q20.79 7.54 21.38 6.76L21.38 6.76Q21.77 6.24 21.77 5.57L21.77 5.57Q21.77 4.66 21.38 4.22L21.38 4.22Q20.70 3.44 19.48 3.44L19.48 3.44Q18.93 3.44 18.39 3.59L18.39 3.59Q17.86 3.73 17.32 4.03L17.32 4.03L17.32 2.85Q17.84 2.61 18.40 2.50L18.40 2.50Q18.95 2.37 19.53 2.37L19.53 2.37Q21.41 2.37 22.35 3.45L22.35 3.45Q23.10 4.30 23.10 5.57L23.10 5.57Q23.10 6.73 22.36 7.52L22.36 7.52Q21.59 8.33 20.43 8.54L20.43 8.54L20.43 13.00L19.05 13.00ZM24.83 5.58L24.83 2.72L28.32 2.72L28.32 3.37L25.65 3.37L25.65 4.76Q25.84 4.70 26.04 4.68L26.04 4.68Q26.23 4.65 26.42 4.65L26.42 4.65Q27.52 4.65 28.16 5.17L28.16 5.17Q28.81 5.69 28.81 6.59L28.81 6.59Q28.81 7.51 28.14 8.03L28.14 8.03Q27.49 8.53 26.28 8.53L26.28 8.53Q25.87 8.53 25.44 8.47Q25.01 8.41 24.56 8.29L24.56 8.29L24.56 7.51Q24.95 7.70 25.38 7.79L25.38 7.79Q25.80 7.88 26.27 7.88L26.27 7.88Q27.03 7.88 27.47 7.53Q27.92 7.18 27.92 6.59Q27.92 6.00 27.47 5.65Q27.03 5.30 26.27 5.30L26.27 5.30Q25.92 5.30 25.56 5.37Q25.20 5.43 24.83 5.58L24.83 5.58ZM30.45 5.58L30.45 2.72L33.93 2.72L33.93 3.37L31.26 3.37L31.26 4.76Q31.45 4.70 31.65 4.68L31.65 4.68Q31.84 4.65 32.03 4.65L32.03 4.65Q33.13 4.65 33.78 5.17L33.78 5.17Q34.42 5.69 34.42 6.59L34.42 6.59Q34.42 7.51 33.76 8.03L33.76 8.03Q33.10 8.53 31.90 8.53L31.90 8.53Q31.49 8.53 31.06 8.47Q30.63 8.41 30.17 8.29L30.17 8.29L30.17 7.51Q30.56 7.70 30.99 7.79L30.99 7.79Q31.41 7.88 31.88 7.88L31.88 7.88Q32.64 7.88 33.09 7.53Q33.53 7.18 33.53 6.59Q33.53 6.00 33.09 5.65Q32.64 5.30 31.88 5.30L31.88 5.30Q31.53 5.30 31.17 5.37Q30.82 5.43 30.45 5.58L30.45 5.58Z"></path></svg>