<svg height="16.296875" width="27.671875" xmlns="http://www.w3.org/2000/svg" ><path d="M1.27 13.00L1.27 2.36L2.54 2.36L2.54 8.64L6.29 5.34L7.90 5.34L3.83 8.92L8.07 13.00L6.43 13.00L2.54 9.26L2.54 13.00L1.27 13.00ZM10.25 5.34L12.28 8.07L14.31 5.34L15.79 5.34L13.07 8.99Q13.56 9.66 13.86 10.18L13.86 10.18Q14.33 11.00 14.33 11.42L14.33 11.42Q14.33 12.31 13.82 12.75Q13.30 13.19 12.28 13.19L12.28 13.19Q11.25 13.19 10.74 12.75Q10.23 12.31 10.23 11.42L10.23 11.42Q10.23 11.00 10.70 10.18L10.70 10.18Q11.00 9.66 11.48 8.99L11.48 8.99L8.76 5.34L10.25 5.34ZM12.28 12.13L12.28 12.13Q12.74 12.13 12.95 11.94L12.95 11.94Q13.14 11.78 13.14 11.47L13.14 11.47Q13.14 11.25 12.87 10.81L12.87 10.81Q12.66 10.47 12.28 9.99L12.28 9.99Q11.89 10.47 11.68 10.81L11.68 10.81Q11.42 11.25 11.42 11.47L11.42 11.47Q11.42 11.78 11.61 11.94L11.61 11.94Q11.82 12.13 12.28 12.13ZM17.42 5.58L17.42 2.72L20.90 2.72L20.90 3.37L18.23 3.37L18.23 4.76Q18.42 4.70 18.62 4.68L18.62 4.68Q18.81 4.65 19.00 4.65L19.00 4.65Q20.10 4.65 20.75 5.17L20.75 5.17Q21.39 5.69 21.39 6.59L21.39 6.59Q21.39 7.51 20.73 8.03L20.73 8.03Q20.07 8.53 18.87 8.53L18.87 8.53Q18.46 8.53 18.03 8.47Q17.60 8.41 17.14 8.29L17.14 8.29L17.14 7.51Q17.53 7.70 17.96 7.79L17.96 7.79Q18.38 7.88 18.85 7.88L18.85 7.88Q19.61 7.88 20.06 7.53Q20.50 7.18 20.50 6.59Q20.50 6.00 20.06 5.65Q19.61 5.30 18.85 5.30L18.85 5.30Q18.50 5.30 18.14 5.37Q17.79 5.43 17.42 5.58L17.42 5.58ZM25.64 5.34L25.64 5.34Q26.27 5.46 26.62 5.83Q26.96 6.21 26.96 6.77L26.96 6.77Q26.96 7.62 26.31 8.07Q25.66 8.53 24.45 8.53L24.45 8.53Q24.06 8.53 23.64 8.46Q23.21 8.39 22.73 8.25L22.73 8.25L22.73 7.42Q23.08 7.61 23.49 7.70Q23.90 7.79 24.36 7.79L24.36 7.79Q25.10 7.79 25.51 7.52Q25.92 7.25 25.92 6.77L25.92 6.77Q25.92 6.26 25.54 6.00Q25.16 5.74 24.42 5.74L24.42 5.74L23.84 5.74L23.84 5.00L24.48 5.00Q25.12 5.00 25.45 4.79Q25.79 4.57 25.79 4.16L25.79 4.16Q25.79 3.77 25.44 3.56Q25.10 3.35 24.45 3.35L24.45 3.35Q24.18 3.35 23.83 3.41Q23.48 3.47 22.93 3.63L22.93 3.63L22.93 2.84Q23.43 2.73 23.86 2.67Q24.30 2.60 24.68 2.60L24.68 2.60Q25.66 2.60 26.24 3.01Q26.82 3.41 26.82 4.09L26.82 4.09Q26.82 4.56 26.51 4.89Q26.20 5.22 25.64 5.34Z"></path></svg>