<svg height="16.296875" width="33.27734375" xmlns="http://www.w3.org/2000/svg" ><path d="M1.27 13.00L1.27 2.36L2.54 2.36L2.54 8.64L6.29 5.34L7.90 5.34L3.83 8.92L8.07 13.00L6.43 13.00L2.54 9.26L2.54 13.00L1.27 13.00ZM12.95 5.84L12.95 5.84L12.95 8.43L12.15 8.43L12.15 5.87Q12.15 5.26 11.89 4.95Q11.62 4.65 11.09 4.65L11.09 4.65Q10.45 4.65 10.08 5.01Q9.71 5.38 9.71 6.01L9.71 6.01L9.71 8.43L8.91 8.43L8.91 2.47L9.71 2.47L9.71 4.81Q9.99 4.42 10.37 4.23Q10.76 4.04 11.27 4.04L11.27 4.04Q12.09 4.04 12.52 4.50Q12.95 4.96 12.95 5.84ZM18.76 5.34L21.64 13.00L20.30 13.00L19.61 11.12L16.21 11.12L15.52 13.00L14.18 13.00L17.06 5.34L18.76 5.34ZM17.91 6.57L16.60 10.10L19.22 10.10L17.91 6.57ZM23.02 5.58L23.02 2.72L26.51 2.72L26.51 3.37L23.84 3.37L23.84 4.76Q24.03 4.70 24.23 4.68L24.23 4.68Q24.42 4.65 24.61 4.65L24.61 4.65Q25.71 4.65 26.35 5.17L26.35 5.17Q27.00 5.69 27.00 6.59L27.00 6.59Q27.00 7.51 26.33 8.03L26.33 8.03Q25.68 8.53 24.47 8.53L24.47 8.53Q24.06 8.53 23.63 8.47Q23.20 8.41 22.75 8.29L22.75 8.29L22.75 7.51Q23.14 7.70 23.56 7.79L23.56 7.79Q23.99 7.88 24.46 7.88L24.46 7.88Q25.22 7.88 25.66 7.53Q26.11 7.18 26.11 6.59Q26.11 6.00 25.66 5.65Q25.22 5.30 24.46 5.30L24.46 5.30Q24.10 5.30 23.75 5.37Q23.39 5.43 23.02 5.58L23.02 5.58ZM31.25 5.34L31.25 5.34Q31.88 5.46 32.22 5.83Q32.57 6.21 32.57 6.77L32.57 6.77Q32.57 7.62 31.92 8.07Q31.27 8.53 30.06 8.53L30.06 8.53Q29.67 8.53 29.24 8.46Q28.81 8.39 28.33 8.25L28.33 8.25L28.33 7.42Q28.69 7.61 29.10 7.70Q29.50 7.79 29.96 7.79L29.96 7.79Q30.71 7.79 31.12 7.52Q31.53 7.25 31.53 6.77L31.53 6.77Q31.53 6.26 31.15 6.00Q30.77 5.74 30.03 5.74L30.03 5.74L29.44 5.74L29.44 5.00L30.08 5.00Q30.73 5.00 31.06 4.79Q31.39 4.57 31.39 4.16L31.39 4.16Q31.39 3.77 31.05 3.56Q30.71 3.35 30.06 3.35L30.06 3.35Q29.78 3.35 29.44 3.41Q29.09 3.47 28.53 3.63L28.53 3.63L28.53 2.84Q29.03 2.73 29.47 2.67Q29.91 2.60 30.28 2.60L30.28 2.60Q31.27 2.60 31.85 3.01Q32.42 3.41 32.42 4.09L32.42 4.09Q32.42 4.56 32.12 4.89Q31.81 5.22 31.25 5.34Z"></path></svg>