<svg height="16.296875" width="38.8896484375" xmlns="http://www.w3.org/2000/svg" ><path d="M1.27 13.00L1.27 2.36L2.54 2.36L2.54 8.64L6.29 5.34L7.90 5.34L3.83 8.92L8.07 13.00L6.43 13.00L2.54 9.26L2.54 13.00L1.27 13.00ZM12.95 5.84L12.95 5.84L12.95 8.43L12.15 8.43L12.15 5.87Q12.15 5.26 11.89 4.95Q11.62 4.65 11.09 4.65L11.09 4.65Q10.45 4.65 10.08 5.01Q9.71 5.38 9.71 6.01L9.71 6.01L9.71 8.43L8.91 8.43L8.91 2.47L9.71 2.47L9.71 4.81Q9.99 4.42 10.37 4.23Q10.76 4.04 11.27 4.04L11.27 4.04Q12.09 4.04 12.52 4.50Q12.95 4.96 12.95 5.84ZM18.76 5.34L21.64 13.00L20.30 13.00L19.61 11.12L16.21 11.12L15.52 13.00L14.18 13.00L17.06 5.34L18.76 5.34ZM17.91 6.57L16.60 10.10L19.22 10.10L17.91 6.57ZM25.63 5.34L25.63 5.34Q26.26 5.46 26.61 5.83Q26.95 6.21 26.95 6.77L26.95 6.77Q26.95 7.62 26.30 8.07Q25.66 8.53 24.45 8.53L24.45 8.53Q24.06 8.53 23.63 8.46Q23.20 8.39 22.72 8.25L22.72 8.25L22.72 7.42Q23.08 7.61 23.48 7.70Q23.89 7.79 24.35 7.79L24.35 7.79Q25.09 7.79 25.50 7.52Q25.92 7.25 25.92 6.77L25.92 6.77Q25.92 6.26 25.54 6.00Q25.16 5.74 24.42 5.74L24.42 5.74L23.83 5.74L23.83 5.00L24.47 5.00Q25.12 5.00 25.45 4.79Q25.78 4.57 25.78 4.16L25.78 4.16Q25.78 3.77 25.44 3.56Q25.09 3.35 24.45 3.35L24.45 3.35Q24.17 3.35 23.82 3.41Q23.47 3.47 22.92 3.63L22.92 3.63L22.92 2.84Q23.42 2.73 23.86 2.67Q24.29 2.60 24.67 2.60L24.67 2.60Q25.66 2.60 26.23 3.01Q26.81 3.41 26.81 4.09L26.81 4.09Q26.81 4.56 26.50 4.89Q26.20 5.22 25.63 5.34ZM31.25 5.34L31.25 5.34Q31.88 5.46 32.22 5.83Q32.57 6.21 32.57 6.77L32.57 6.77Q32.57 7.62 31.92 8.07Q31.27 8.53 30.06 8.53L30.06 8.53Q29.67 8.53 29.24 8.46Q28.81 8.39 28.33 8.25L28.33 8.25L28.33 7.42Q28.69 7.61 29.10 7.70Q29.50 7.79 29.96 7.79L29.96 7.79Q30.71 7.79 31.12 7.52Q31.53 7.25 31.53 6.77L31.53 6.77Q31.53 6.26 31.15 6.00Q30.77 5.74 30.03 5.74L30.03 5.74L29.44 5.74L29.44 5.00L30.08 5.00Q30.73 5.00 31.06 4.79Q31.39 4.57 31.39 4.16L31.39 4.16Q31.39 3.77 31.05 3.56Q30.71 3.35 30.06 3.35L30.06 3.35Q29.78 3.35 29.44 3.41Q29.09 3.47 28.53 3.63L28.53 3.63L28.53 2.84Q29.03 2.73 29.47 2.67Q29.91 2.60 30.28 2.60L30.28 2.60Q31.27 2.60 31.85 3.01Q32.42 3.41 32.42 4.09L32.42 4.09Q32.42 4.56 32.12 4.89Q31.81 5.22 31.25 5.34ZM36.54 6.41L36.54 3.55L34.43 6.41L36.54 6.41ZM33.71 6.33L36.39 2.72L37.52 2.72L37.52 6.41L38.45 6.41L38.45 7.16L37.52 7.16L37.52 8.43L36.54 8.43L36.54 7.16L33.71 7.16L33.71 6.33Z"></path></svg>