<svg height="16.296875" width="33.5712890625" xmlns="http://www.w3.org/2000/svg" ><path d="M1.27 13.00L1.27 2.36L2.54 2.36L2.54 8.64L6.29 5.34L7.90 5.34L3.83 8.92L8.07 13.00L6.43 13.00L2.54 9.26L2.54 13.00L1.27 13.00ZM12.95 5.84L12.95 5.84L12.95 8.43L12.15 8.43L12.15 5.87Q12.15 5.26 11.89 4.95Q11.62 4.65 11.09 4.65L11.09 4.65Q10.45 4.65 10.08 5.01Q9.71 5.38 9.71 6.01L9.71 6.01L9.71 8.43L8.91 8.43L8.91 2.47L9.71 2.47L9.71 4.81Q9.99 4.42 10.37 4.23Q10.76 4.04 11.27 4.04L11.27 4.04Q12.09 4.04 12.52 4.50Q12.95 4.96 12.95 5.84ZM19.82 9.15L18.57 9.15Q17.04 9.15 16.45 9.50Q15.87 9.84 15.87 10.68L15.87 10.68Q15.87 11.35 16.31 11.75Q16.75 12.14 17.51 12.14L17.51 12.14Q18.55 12.14 19.19 11.40Q19.82 10.66 19.82 9.43L19.82 9.43L19.82 9.15ZM21.08 8.63L21.08 8.63L21.08 13.00L19.82 13.00L19.82 11.83Q19.39 12.53 18.74 12.86Q18.10 13.19 17.17 13.19L17.17 13.19Q16.00 13.19 15.30 12.53Q14.61 11.87 14.61 10.77L14.61 10.77Q14.61 9.47 15.47 8.82Q16.34 8.16 18.05 8.16L18.05 8.16L19.82 8.16L19.82 8.04Q19.82 7.17 19.25 6.70Q18.68 6.22 17.64 6.22L17.64 6.22Q16.99 6.22 16.37 6.38Q15.74 6.54 15.17 6.85L15.17 6.85L15.17 5.69Q15.86 5.42 16.51 5.29Q17.16 5.15 17.77 5.15L17.77 5.15Q19.43 5.15 20.25 6.02Q21.08 6.88 21.08 8.63ZM18.81 3.63L18.81 3.63L18.42 3.25Q18.27 3.12 18.15 3.05Q18.04 2.99 17.95 2.99L17.95 2.99Q17.69 2.99 17.57 3.24Q17.45 3.49 17.43 4.05L17.43 4.05L16.58 4.05Q16.59 3.12 16.94 2.62Q17.29 2.12 17.91 2.12L17.91 2.12Q18.17 2.12 18.39 2.21Q18.61 2.31 18.86 2.54L18.86 2.54L19.25 2.91Q19.40 3.05 19.51 3.11Q19.63 3.18 19.71 3.18L19.71 3.18Q19.97 3.18 20.10 2.93Q20.22 2.68 20.23 2.12L20.23 2.12L21.09 2.12Q21.08 3.04 20.73 3.54Q20.38 4.05 19.76 4.05L19.76 4.05Q19.50 4.05 19.28 3.95Q19.06 3.86 18.81 3.63ZM23.32 5.58L23.32 2.72L26.80 2.72L26.80 3.37L24.13 3.37L24.13 4.76Q24.32 4.70 24.52 4.68L24.52 4.68Q24.71 4.65 24.90 4.65L24.90 4.65Q26.00 4.65 26.65 5.17L26.65 5.17Q27.29 5.69 27.29 6.59L27.29 6.59Q27.29 7.51 26.63 8.03L26.63 8.03Q25.97 8.53 24.77 8.53L24.77 8.53Q24.36 8.53 23.93 8.47Q23.50 8.41 23.04 8.29L23.04 8.29L23.04 7.51Q23.43 7.70 23.86 7.79L23.86 7.79Q24.28 7.88 24.75 7.88L24.75 7.88Q25.51 7.88 25.96 7.53Q26.40 7.18 26.40 6.59Q26.40 6.00 25.96 5.65Q25.51 5.30 24.75 5.30L24.75 5.30Q24.40 5.30 24.04 5.37Q23.69 5.43 23.32 5.58L23.32 5.58ZM31.54 5.34L31.54 5.34Q32.17 5.46 32.52 5.83Q32.86 6.21 32.86 6.77L32.86 6.77Q32.86 7.62 32.21 8.07Q31.56 8.53 30.35 8.53L30.35 8.53Q29.96 8.53 29.53 8.46Q29.11 8.39 28.63 8.25L28.63 8.25L28.63 7.42Q28.98 7.61 29.39 7.70Q29.80 7.79 30.26 7.79L30.26 7.79Q31.00 7.79 31.41 7.52Q31.82 7.25 31.82 6.77L31.82 6.77Q31.82 6.26 31.44 6.00Q31.06 5.74 30.32 5.74L30.32 5.74L29.74 5.74L29.74 5.00L30.38 5.00Q31.02 5.00 31.35 4.79Q31.68 4.57 31.68 4.16L31.68 4.16Q31.68 3.77 31.34 3.56Q31.00 3.35 30.35 3.35L30.35 3.35Q30.08 3.35 29.73 3.41Q29.38 3.47 28.83 3.63L28.83 3.63L28.83 2.84Q29.33 2.73 29.76 2.67Q30.20 2.60 30.58 2.60L30.58 2.60Q31.56 2.60 32.14 3.01Q32.72 3.41 32.72 4.09L32.72 4.09Q32.72 4.56 32.41 4.89Q32.10 5.22 31.54 5.34Z"></path></svg>