<svg height="16.296875" width="33.87890625" xmlns="http://www.w3.org/2000/svg" ><path d="M1.27 13.00L1.27 2.36L2.54 2.36L2.54 8.64L6.29 5.34L7.90 5.34L3.83 8.92L8.07 13.00L6.43 13.00L2.54 9.26L2.54 13.00L1.27 13.00ZM12.95 5.84L12.95 5.84L12.95 8.43L12.15 8.43L12.15 5.87Q12.15 5.26 11.89 4.95Q11.62 4.65 11.09 4.65L11.09 4.65Q10.45 4.65 10.08 5.01Q9.71 5.38 9.71 6.01L9.71 6.01L9.71 8.43L8.91 8.43L8.91 2.47L9.71 2.47L9.71 4.81Q9.99 4.42 10.37 4.23Q10.76 4.04 11.27 4.04L11.27 4.04Q12.09 4.04 12.52 4.50Q12.95 4.96 12.95 5.84ZM20.13 6.50L20.13 6.50L20.13 5.34L21.38 5.34L21.38 13.00L20.13 13.00L20.13 11.85Q19.73 12.53 19.12 12.86Q18.52 13.19 17.67 13.19L17.67 13.19Q16.28 13.19 15.41 12.09Q14.54 10.98 14.54 9.17L14.54 9.17Q14.54 7.37 15.41 6.26Q16.28 5.15 17.67 5.15L17.67 5.15Q18.52 5.15 19.12 5.49Q19.73 5.82 20.13 6.50ZM15.84 9.17L15.84 9.17Q15.84 10.56 16.41 11.35Q16.98 12.14 17.98 12.14L17.98 12.14Q18.98 12.14 19.55 11.35Q20.13 10.56 20.13 9.17L20.13 9.17Q20.13 7.79 19.55 7.00Q18.98 6.21 17.98 6.21L17.98 6.21Q16.98 6.21 16.41 7.00Q15.84 7.79 15.84 9.17ZM19.11 3.63L19.11 3.63L18.72 3.25Q18.57 3.12 18.46 3.05Q18.35 2.99 18.26 2.99L18.26 2.99Q18.00 2.99 17.88 3.24Q17.75 3.49 17.74 4.05L17.74 4.05L16.88 4.05Q16.90 3.12 17.25 2.62Q17.60 2.12 18.22 2.12L18.22 2.12Q18.48 2.12 18.70 2.21Q18.92 2.31 19.17 2.54L19.17 2.54L19.56 2.91Q19.71 3.05 19.82 3.11Q19.93 3.18 20.02 3.18L20.02 3.18Q20.28 3.18 20.41 2.93Q20.53 2.68 20.54 2.12L20.54 2.12L21.40 2.12Q21.38 3.04 21.03 3.54Q20.69 4.05 20.06 4.05L20.06 4.05Q19.80 4.05 19.58 3.95Q19.37 3.86 19.11 3.63ZM23.63 5.58L23.63 2.72L27.11 2.72L27.11 3.37L24.44 3.37L24.44 4.76Q24.63 4.70 24.83 4.68L24.83 4.68Q25.02 4.65 25.21 4.65L25.21 4.65Q26.31 4.65 26.95 5.17L26.95 5.17Q27.60 5.69 27.60 6.59L27.60 6.59Q27.60 7.51 26.93 8.03L26.93 8.03Q26.28 8.53 25.07 8.53L25.07 8.53Q24.66 8.53 24.23 8.47Q23.80 8.41 23.35 8.29L23.35 8.29L23.35 7.51Q23.74 7.70 24.17 7.79L24.17 7.79Q24.59 7.88 25.06 7.88L25.06 7.88Q25.82 7.88 26.26 7.53Q26.71 7.18 26.71 6.59Q26.71 6.00 26.26 5.65Q25.82 5.30 25.06 5.30L25.06 5.30Q24.71 5.30 24.35 5.37Q23.99 5.43 23.63 5.58L23.63 5.58ZM31.85 5.34L31.85 5.34Q32.48 5.46 32.82 5.83Q33.17 6.21 33.17 6.77L33.17 6.77Q33.17 7.62 32.52 8.07Q31.87 8.53 30.66 8.53L30.66 8.53Q30.27 8.53 29.84 8.46Q29.42 8.39 28.94 8.25L28.94 8.25L28.94 7.42Q29.29 7.61 29.70 7.70Q30.11 7.79 30.56 7.79L30.56 7.79Q31.31 7.79 31.72 7.52Q32.13 7.25 32.13 6.77L32.13 6.77Q32.13 6.26 31.75 6.00Q31.37 5.74 30.63 5.74L30.63 5.74L30.04 5.74L30.04 5.00L30.69 5.00Q31.33 5.00 31.66 4.79Q31.99 4.57 31.99 4.16L31.99 4.16Q31.99 3.77 31.65 3.56Q31.31 3.35 30.66 3.35L30.66 3.35Q30.39 3.35 30.04 3.41Q29.69 3.47 29.13 3.63L29.13 3.63L29.13 2.84Q29.63 2.73 30.07 2.67Q30.51 2.60 30.88 2.60L30.88 2.60Q31.87 2.60 32.45 3.01Q33.02 3.41 33.02 4.09L33.02 4.09Q33.02 4.56 32.72 4.89Q32.41 5.22 31.85 5.34Z"></path></svg>