<svg height="16.296875" width="40.4208984375" xmlns="http://www.w3.org/2000/svg" ><path d="M1.27 13.00L1.27 2.36L2.54 2.36L2.54 8.64L6.29 5.34L7.90 5.34L3.83 8.92L8.07 13.00L6.43 13.00L2.54 9.26L2.54 13.00L1.27 13.00ZM12.95 5.84L12.95 5.84L12.95 8.43L12.15 8.43L12.15 5.87Q12.15 5.26 11.89 4.95Q11.62 4.65 11.09 4.65L11.09 4.65Q10.45 4.65 10.08 5.01Q9.71 5.38 9.71 6.01L9.71 6.01L9.71 8.43L8.91 8.43L8.91 2.47L9.71 2.47L9.71 4.81Q9.99 4.42 10.37 4.23Q10.76 4.04 11.27 4.04L11.27 4.04Q12.09 4.04 12.52 4.50Q12.95 4.96 12.95 5.84ZM18.76 5.34L21.64 13.00L20.30 13.00L19.61 11.12L16.21 11.12L15.52 13.00L14.18 13.00L17.06 5.34L18.76 5.34ZM17.91 6.57L16.60 10.10L19.22 10.10L17.91 6.57ZM24.38 13.00L24.38 7.54L24.81 7.54Q26.12 7.54 26.71 6.76L26.71 6.76Q27.10 6.24 27.10 5.57L27.10 5.57Q27.10 4.66 26.71 4.22L26.71 4.22Q26.03 3.44 24.81 3.44L24.81 3.44Q24.26 3.44 23.72 3.59L23.72 3.59Q23.19 3.73 22.65 4.03L22.65 4.03L22.65 2.85Q23.17 2.61 23.73 2.50L23.73 2.50Q24.28 2.37 24.86 2.37L24.86 2.37Q26.74 2.37 27.69 3.45L27.69 3.45Q28.43 4.30 28.43 5.57L28.43 5.57Q28.43 6.73 27.69 7.52L27.69 7.52Q26.93 8.33 25.76 8.54L25.76 8.54L25.76 13.00L24.38 13.00ZM30.17 5.58L30.17 2.72L33.65 2.72L33.65 3.37L30.98 3.37L30.98 4.76Q31.17 4.70 31.37 4.68L31.37 4.68Q31.56 4.65 31.75 4.65L31.75 4.65Q32.85 4.65 33.50 5.17L33.50 5.17Q34.14 5.69 34.14 6.59L34.14 6.59Q34.14 7.51 33.48 8.03L33.48 8.03Q32.82 8.53 31.62 8.53L31.62 8.53Q31.21 8.53 30.78 8.47Q30.34 8.41 29.89 8.29L29.89 8.29L29.89 7.51Q30.28 7.70 30.71 7.79L30.71 7.79Q31.13 7.88 31.60 7.88L31.60 7.88Q32.36 7.88 32.81 7.53Q33.25 7.18 33.25 6.59Q33.25 6.00 32.81 5.65Q32.36 5.30 31.60 5.30L31.60 5.30Q31.25 5.30 30.89 5.37Q30.54 5.43 30.17 5.58L30.17 5.58ZM35.78 5.58L35.78 2.72L39.27 2.72L39.27 3.37L36.59 3.37L36.59 4.76Q36.78 4.70 36.98 4.68L36.98 4.68Q37.17 4.65 37.37 4.65L37.37 4.65Q38.47 4.65 39.11 5.17L39.11 5.17Q39.75 5.69 39.75 6.59L39.75 6.59Q39.75 7.51 39.09 8.03L39.09 8.03Q38.43 8.53 37.23 8.53L37.23 8.53Q36.82 8.53 36.39 8.47Q35.96 8.41 35.51 8.29L35.51 8.29L35.51 7.51Q35.90 7.70 36.32 7.79L36.32 7.79Q36.74 7.88 37.21 7.88L37.21 7.88Q37.97 7.88 38.42 7.53Q38.86 7.18 38.86 6.59Q38.86 6.00 38.42 5.65Q37.97 5.30 37.21 5.30L37.21 5.30Q36.86 5.30 36.50 5.37Q36.15 5.43 35.78 5.58L35.78 5.58Z"></path></svg>