<svg height="16.296875" width="32.6826171875" xmlns="http://www.w3.org/2000/svg" ><path d="M1.27 13.00L1.27 2.36L2.54 2.36L2.54 8.64L6.29 5.34L7.90 5.34L3.83 8.92L8.07 13.00L6.43 13.00L2.54 9.26L2.54 13.00L1.27 13.00ZM12.95 5.84L12.95 5.84L12.95 8.43L12.15 8.43L12.15 5.87Q12.15 5.26 11.89 4.95Q11.62 4.65 11.09 4.65L11.09 4.65Q10.45 4.65 10.08 5.01Q9.71 5.38 9.71 6.01L9.71 6.01L9.71 8.43L8.91 8.43L8.91 2.47L9.71 2.47L9.71 4.81Q9.99 4.42 10.37 4.23Q10.76 4.04 11.27 4.04L11.27 4.04Q12.09 4.04 12.52 4.50Q12.95 4.96 12.95 5.84ZM14.64 6.81L14.64 5.65Q15.16 5.40 15.73 5.28Q16.29 5.15 16.93 5.15L16.93 5.15Q18.66 5.15 19.67 6.24Q20.69 7.33 20.69 9.17L20.69 9.17Q20.69 11.05 19.66 12.12Q18.63 13.19 16.84 13.19L16.84 13.19Q16.26 13.19 15.71 13.07Q15.16 12.95 14.64 12.71L14.64 12.71L14.64 11.54Q15.17 11.83 15.71 11.98Q16.24 12.13 16.79 12.13L16.79 12.13Q18.01 12.13 18.69 11.35Q19.37 10.58 19.37 9.17L19.37 9.17Q19.37 7.77 18.69 7.00Q18.01 6.22 16.79 6.22L16.79 6.22Q16.24 6.22 15.71 6.37Q15.17 6.51 14.64 6.81L14.64 6.81ZM22.43 5.58L22.43 2.72L25.92 2.72L25.92 3.37L23.24 3.37L23.24 4.76Q23.43 4.70 23.63 4.68L23.63 4.68Q23.82 4.65 24.01 4.65L24.01 4.65Q25.12 4.65 25.76 5.17L25.76 5.17Q26.40 5.69 26.40 6.59L26.40 6.59Q26.40 7.51 25.74 8.03L25.74 8.03Q25.08 8.53 23.88 8.53L23.88 8.53Q23.47 8.53 23.04 8.47Q22.61 8.41 22.16 8.29L22.16 8.29L22.16 7.51Q22.54 7.70 22.97 7.79L22.97 7.79Q23.39 7.88 23.86 7.88L23.86 7.88Q24.62 7.88 25.07 7.53Q25.51 7.18 25.51 6.59Q25.51 6.00 25.07 5.65Q24.62 5.30 23.86 5.30L23.86 5.30Q23.51 5.30 23.15 5.37Q22.80 5.43 22.43 5.58L22.43 5.58ZM30.65 5.34L30.65 5.34Q31.28 5.46 31.63 5.83Q31.97 6.21 31.97 6.77L31.97 6.77Q31.97 7.62 31.32 8.07Q30.67 8.53 29.46 8.53L29.46 8.53Q29.07 8.53 28.65 8.46Q28.22 8.39 27.74 8.25L27.74 8.25L27.74 7.42Q28.10 7.61 28.50 7.70Q28.91 7.79 29.37 7.79L29.37 7.79Q30.11 7.79 30.52 7.52Q30.93 7.25 30.93 6.77L30.93 6.77Q30.93 6.26 30.55 6.00Q30.17 5.74 29.44 5.74L29.44 5.74L28.85 5.74L28.85 5.00L29.49 5.00Q30.13 5.00 30.46 4.79Q30.80 4.57 30.80 4.16L30.80 4.16Q30.80 3.77 30.45 3.56Q30.11 3.35 29.46 3.35L29.46 3.35Q29.19 3.35 28.84 3.41Q28.49 3.47 27.94 3.63L27.94 3.63L27.94 2.84Q28.44 2.73 28.88 2.67Q29.31 2.60 29.69 2.60L29.69 2.60Q30.67 2.60 31.25 3.01Q31.83 3.41 31.83 4.09L31.83 4.09Q31.83 4.56 31.52 4.89Q31.21 5.22 30.65 5.34Z"></path></svg>