<svg height="16.296875" width="38.294921875" xmlns="http://www.w3.org/2000/svg" ><path d="M1.27 13.00L1.27 2.36L2.54 2.36L2.54 8.64L6.29 5.34L7.90 5.34L3.83 8.92L8.07 13.00L6.43 13.00L2.54 9.26L2.54 13.00L1.27 13.00ZM12.95 5.84L12.95 5.84L12.95 8.43L12.15 8.43L12.15 5.87Q12.15 5.26 11.89 4.95Q11.62 4.65 11.09 4.65L11.09 4.65Q10.45 4.65 10.08 5.01Q9.71 5.38 9.71 6.01L9.71 6.01L9.71 8.43L8.91 8.43L8.91 2.47L9.71 2.47L9.71 4.81Q9.99 4.42 10.37 4.23Q10.76 4.04 11.27 4.04L11.27 4.04Q12.09 4.04 12.52 4.50Q12.95 4.96 12.95 5.84ZM14.64 6.81L14.64 5.65Q15.16 5.40 15.73 5.28Q16.29 5.15 16.93 5.15L16.93 5.15Q18.66 5.15 19.67 6.24Q20.69 7.33 20.69 9.17L20.69 9.17Q20.69 11.05 19.66 12.12Q18.63 13.19 16.84 13.19L16.84 13.19Q16.26 13.19 15.71 13.07Q15.16 12.95 14.64 12.71L14.64 12.71L14.64 11.54Q15.17 11.83 15.71 11.98Q16.24 12.13 16.79 12.13L16.79 12.13Q18.01 12.13 18.69 11.35Q19.37 10.58 19.37 9.17L19.37 9.17Q19.37 7.77 18.69 7.00Q18.01 6.22 16.79 6.22L16.79 6.22Q16.24 6.22 15.71 6.37Q15.17 6.51 14.64 6.81L14.64 6.81ZM25.04 5.34L25.04 5.34Q25.67 5.46 26.01 5.83Q26.36 6.21 26.36 6.77L26.36 6.77Q26.36 7.62 25.71 8.07Q25.06 8.53 23.85 8.53L23.85 8.53Q23.46 8.53 23.03 8.46Q22.61 8.39 22.13 8.25L22.13 8.25L22.13 7.42Q22.48 7.61 22.89 7.70Q23.30 7.79 23.75 7.79L23.75 7.79Q24.50 7.79 24.91 7.52Q25.32 7.25 25.32 6.77L25.32 6.77Q25.32 6.26 24.94 6.00Q24.56 5.74 23.82 5.74L23.82 5.74L23.24 5.74L23.24 5.00L23.88 5.00Q24.52 5.00 24.85 4.79Q25.18 4.57 25.18 4.16L25.18 4.16Q25.18 3.77 24.84 3.56Q24.50 3.35 23.85 3.35L23.85 3.35Q23.58 3.35 23.23 3.41Q22.88 3.47 22.33 3.63L22.33 3.63L22.33 2.84Q22.83 2.73 23.26 2.67Q23.70 2.60 24.08 2.60L24.08 2.60Q25.06 2.60 25.64 3.01Q26.22 3.41 26.22 4.09L26.22 4.09Q26.22 4.56 25.91 4.89Q25.60 5.22 25.04 5.34ZM30.65 5.34L30.65 5.34Q31.28 5.46 31.63 5.83Q31.97 6.21 31.97 6.77L31.97 6.77Q31.97 7.62 31.32 8.07Q30.67 8.53 29.46 8.53L29.46 8.53Q29.07 8.53 28.65 8.46Q28.22 8.39 27.74 8.25L27.74 8.25L27.74 7.42Q28.10 7.61 28.50 7.70Q28.91 7.79 29.37 7.79L29.37 7.79Q30.11 7.79 30.52 7.52Q30.93 7.25 30.93 6.77L30.93 6.77Q30.93 6.26 30.55 6.00Q30.17 5.74 29.44 5.74L29.44 5.74L28.85 5.74L28.85 5.00L29.49 5.00Q30.13 5.00 30.46 4.79Q30.80 4.57 30.80 4.16L30.80 4.16Q30.80 3.77 30.45 3.56Q30.11 3.35 29.46 3.35L29.46 3.35Q29.19 3.35 28.84 3.41Q28.49 3.47 27.94 3.63L27.94 3.63L27.94 2.84Q28.44 2.73 28.88 2.67Q29.31 2.60 29.69 2.60L29.69 2.60Q30.67 2.60 31.25 3.01Q31.83 3.41 31.83 4.09L31.83 4.09Q31.83 4.56 31.52 4.89Q31.21 5.22 30.65 5.34ZM35.94 6.41L35.94 3.55L33.83 6.41L35.94 6.41ZM33.11 6.33L35.79 2.72L36.93 2.72L36.93 6.41L37.85 6.41L37.85 7.16L36.93 7.16L36.93 8.43L35.94 8.43L35.94 7.16L33.11 7.16L33.11 6.33Z"></path></svg>