<svg height="16.296875" width="31.8623046875" xmlns="http://www.w3.org/2000/svg" ><path d="M1.27 13.00L1.27 2.36L2.54 2.36L2.54 8.64L6.29 5.34L7.90 5.34L3.83 8.92L8.07 13.00L6.43 13.00L2.54 9.26L2.54 13.00L1.27 13.00ZM12.95 5.84L12.95 5.84L12.95 8.43L12.15 8.43L12.15 5.87Q12.15 5.26 11.89 4.95Q11.62 4.65 11.09 4.65L11.09 4.65Q10.45 4.65 10.08 5.01Q9.71 5.38 9.71 6.01L9.71 6.01L9.71 8.43L8.91 8.43L8.91 2.47L9.71 2.47L9.71 4.81Q9.99 4.42 10.37 4.23Q10.76 4.04 11.27 4.04L11.27 4.04Q12.09 4.04 12.52 4.50Q12.95 4.96 12.95 5.84ZM15.04 13.00L15.04 5.34L19.88 5.34L19.88 6.35L16.31 6.35L16.31 8.41L19.72 8.41L19.72 9.42L16.31 9.42L16.31 11.99L19.97 11.99L19.97 13.00L15.04 13.00ZM21.61 5.58L21.61 2.72L25.09 2.72L25.09 3.37L22.42 3.37L22.42 4.76Q22.61 4.70 22.81 4.68L22.81 4.68Q23.00 4.65 23.19 4.65L23.19 4.65Q24.29 4.65 24.94 5.17L24.94 5.17Q25.58 5.69 25.58 6.59L25.58 6.59Q25.58 7.51 24.92 8.03L24.92 8.03Q24.26 8.53 23.06 8.53L23.06 8.53Q22.65 8.53 22.22 8.47Q21.79 8.41 21.33 8.29L21.33 8.29L21.33 7.51Q21.72 7.70 22.15 7.79L22.15 7.79Q22.57 7.88 23.04 7.88L23.04 7.88Q23.80 7.88 24.25 7.53Q24.69 7.18 24.69 6.59Q24.69 6.00 24.25 5.65Q23.80 5.30 23.04 5.30L23.04 5.30Q22.69 5.30 22.33 5.37Q21.98 5.43 21.61 5.58L21.61 5.58ZM29.83 5.34L29.83 5.34Q30.46 5.46 30.81 5.83Q31.15 6.21 31.15 6.77L31.15 6.77Q31.15 7.62 30.50 8.07Q29.85 8.53 28.64 8.53L28.64 8.53Q28.25 8.53 27.83 8.46Q27.40 8.39 26.92 8.25L26.92 8.25L26.92 7.42Q27.28 7.61 27.68 7.70Q28.09 7.79 28.55 7.79L28.55 7.79Q29.29 7.79 29.70 7.52Q30.11 7.25 30.11 6.77L30.11 6.77Q30.11 6.26 29.73 6.00Q29.35 5.74 28.62 5.74L28.62 5.74L28.03 5.74L28.03 5.00L28.67 5.00Q29.31 5.00 29.64 4.79Q29.98 4.57 29.98 4.16L29.98 4.16Q29.98 3.77 29.63 3.56Q29.29 3.35 28.64 3.35L28.64 3.35Q28.37 3.35 28.02 3.41Q27.67 3.47 27.12 3.63L27.12 3.63L27.12 2.84Q27.62 2.73 28.05 2.67Q28.49 2.60 28.87 2.60L28.87 2.60Q29.85 2.60 30.43 3.01Q31.01 3.41 31.01 4.09L31.01 4.09Q31.01 4.56 30.70 4.89Q30.39 5.22 29.83 5.34Z"></path></svg>