<svg height="16.296875" width="37.474609375" xmlns="http://www.w3.org/2000/svg" ><path d="M1.27 13.00L1.27 2.36L2.54 2.36L2.54 8.64L6.29 5.34L7.90 5.34L3.83 8.92L8.07 13.00L6.43 13.00L2.54 9.26L2.54 13.00L1.27 13.00ZM12.95 5.84L12.95 5.84L12.95 8.43L12.15 8.43L12.15 5.87Q12.15 5.26 11.89 4.95Q11.62 4.65 11.09 4.65L11.09 4.65Q10.45 4.65 10.08 5.01Q9.71 5.38 9.71 6.01L9.71 6.01L9.71 8.43L8.91 8.43L8.91 2.47L9.71 2.47L9.71 4.81Q9.99 4.42 10.37 4.23Q10.76 4.04 11.27 4.04L11.27 4.04Q12.09 4.04 12.52 4.50Q12.95 4.96 12.95 5.84ZM15.04 13.00L15.04 5.34L19.88 5.34L19.88 6.35L16.31 6.35L16.31 8.41L19.72 8.41L19.72 9.42L16.31 9.42L16.31 11.99L19.97 11.99L19.97 13.00L15.04 13.00ZM24.22 5.34L24.22 5.34Q24.85 5.46 25.19 5.83Q25.54 6.21 25.54 6.77L25.54 6.77Q25.54 7.62 24.89 8.07Q24.24 8.53 23.03 8.53L23.03 8.53Q22.64 8.53 22.21 8.46Q21.79 8.39 21.31 8.25L21.31 8.25L21.31 7.42Q21.66 7.61 22.07 7.70Q22.48 7.79 22.93 7.79L22.93 7.79Q23.68 7.79 24.09 7.52Q24.50 7.25 24.50 6.77L24.50 6.77Q24.50 6.26 24.12 6.00Q23.74 5.74 23.00 5.74L23.00 5.74L22.42 5.74L22.42 5.00L23.06 5.00Q23.70 5.00 24.03 4.79Q24.36 4.57 24.36 4.16L24.36 4.16Q24.36 3.77 24.02 3.56Q23.68 3.35 23.03 3.35L23.03 3.35Q22.76 3.35 22.41 3.41Q22.06 3.47 21.51 3.63L21.51 3.63L21.51 2.84Q22.00 2.73 22.44 2.67Q22.88 2.60 23.26 2.60L23.26 2.60Q24.24 2.60 24.82 3.01Q25.40 3.41 25.40 4.09L25.40 4.09Q25.40 4.56 25.09 4.89Q24.78 5.22 24.22 5.34ZM29.83 5.34L29.83 5.34Q30.46 5.46 30.81 5.83Q31.15 6.21 31.15 6.77L31.15 6.77Q31.15 7.62 30.50 8.07Q29.85 8.53 28.64 8.53L28.64 8.53Q28.25 8.53 27.83 8.46Q27.40 8.39 26.92 8.25L26.92 8.25L26.92 7.42Q27.28 7.61 27.68 7.70Q28.09 7.79 28.55 7.79L28.55 7.79Q29.29 7.79 29.70 7.52Q30.11 7.25 30.11 6.77L30.11 6.77Q30.11 6.26 29.73 6.00Q29.35 5.74 28.62 5.74L28.62 5.74L28.03 5.74L28.03 5.00L28.67 5.00Q29.31 5.00 29.64 4.79Q29.98 4.57 29.98 4.16L29.98 4.16Q29.98 3.77 29.63 3.56Q29.29 3.35 28.64 3.35L28.64 3.35Q28.37 3.35 28.02 3.41Q27.67 3.47 27.12 3.63L27.12 3.63L27.12 2.84Q27.62 2.73 28.05 2.67Q28.49 2.60 28.87 2.60L28.87 2.60Q29.85 2.60 30.43 3.01Q31.01 3.41 31.01 4.09L31.01 4.09Q31.01 4.56 30.70 4.89Q30.39 5.22 29.83 5.34ZM35.12 6.41L35.12 3.55L33.01 6.41L35.12 6.41ZM32.29 6.33L34.97 2.72L36.11 2.72L36.11 6.41L37.03 6.41L37.03 7.16L36.11 7.16L36.11 8.43L35.12 8.43L35.12 7.16L32.29 7.16L32.29 6.33Z"></path></svg>