<svg height="16.296875" width="42.478515625" xmlns="http://www.w3.org/2000/svg" ><path d="M1.27 13.00L1.27 2.36L2.54 2.36L2.54 8.64L6.29 5.34L7.90 5.34L3.83 8.92L8.07 13.00L6.43 13.00L2.54 9.26L2.54 13.00L1.27 13.00ZM12.95 5.84L12.95 5.84L12.95 8.43L12.15 8.43L12.15 5.87Q12.15 5.26 11.89 4.95Q11.62 4.65 11.09 4.65L11.09 4.65Q10.45 4.65 10.08 5.01Q9.71 5.38 9.71 6.01L9.71 6.01L9.71 8.43L8.91 8.43L8.91 2.47L9.71 2.47L9.71 4.81Q9.99 4.42 10.37 4.23Q10.76 4.04 11.27 4.04L11.27 4.04Q12.09 4.04 12.52 4.50Q12.95 4.96 12.95 5.84ZM14.54 9.50L14.54 9.50L14.54 8.88L20.32 8.88Q20.24 7.58 19.54 6.90Q18.84 6.22 17.59 6.22L17.59 6.22Q16.86 6.22 16.18 6.40Q15.50 6.58 14.83 6.93L14.83 6.93L14.83 5.74Q15.51 5.46 16.22 5.30Q16.93 5.15 17.66 5.15L17.66 5.15Q19.50 5.15 20.57 6.22Q21.64 7.29 21.64 9.11L21.64 9.11Q21.64 10.99 20.62 12.09Q19.61 13.19 17.88 13.19L17.88 13.19Q16.34 13.19 15.44 12.20Q14.54 11.20 14.54 9.50ZM20.28 9.86L15.80 9.86Q15.81 10.90 16.38 11.51Q16.94 12.13 17.87 12.13L17.87 12.13Q18.92 12.13 19.55 11.53Q20.19 10.94 20.28 9.86L20.28 9.86ZM30.06 8.37L30.06 8.37L30.06 13.00L28.81 13.00L28.81 8.42Q28.81 7.33 28.38 6.79Q27.96 6.25 27.11 6.25L27.11 6.25Q26.09 6.25 25.50 6.90Q24.92 7.55 24.92 8.67L24.92 8.67L24.92 13.00L23.65 13.00L23.65 5.34L24.92 5.34L24.92 6.53Q25.37 5.84 25.98 5.50Q26.59 5.15 27.39 5.15L27.39 5.15Q28.71 5.15 29.39 5.97Q30.06 6.79 30.06 8.37ZM32.22 5.58L32.22 2.72L35.71 2.72L35.71 3.37L33.04 3.37L33.04 4.76Q33.23 4.70 33.43 4.68L33.43 4.68Q33.62 4.65 33.81 4.65L33.81 4.65Q34.91 4.65 35.55 5.17L35.55 5.17Q36.20 5.69 36.20 6.59L36.20 6.59Q36.20 7.51 35.53 8.03L35.53 8.03Q34.88 8.53 33.67 8.53L33.67 8.53Q33.26 8.53 32.83 8.47Q32.40 8.41 31.95 8.29L31.95 8.29L31.95 7.51Q32.34 7.70 32.76 7.79L32.76 7.79Q33.19 7.88 33.66 7.88L33.66 7.88Q34.42 7.88 34.86 7.53Q35.31 7.18 35.31 6.59Q35.31 6.00 34.86 5.65Q34.42 5.30 33.66 5.30L33.66 5.30Q33.30 5.30 32.95 5.37Q32.59 5.43 32.22 5.58L32.22 5.58ZM40.45 5.34L40.45 5.34Q41.08 5.46 41.42 5.83Q41.77 6.21 41.77 6.77L41.77 6.77Q41.77 7.62 41.12 8.07Q40.47 8.53 39.26 8.53L39.26 8.53Q38.87 8.53 38.44 8.46Q38.01 8.39 37.54 8.25L37.54 8.25L37.54 7.42Q37.89 7.61 38.30 7.70Q38.71 7.79 39.16 7.79L39.16 7.79Q39.91 7.79 40.32 7.52Q40.73 7.25 40.73 6.77L40.73 6.77Q40.73 6.26 40.35 6.00Q39.97 5.74 39.23 5.74L39.23 5.74L38.64 5.74L38.64 5.00L39.29 5.00Q39.93 5.00 40.26 4.79Q40.59 4.57 40.59 4.16L40.59 4.16Q40.59 3.77 40.25 3.56Q39.91 3.35 39.26 3.35L39.26 3.35Q38.99 3.35 38.64 3.41Q38.29 3.47 37.73 3.63L37.73 3.63L37.73 2.84Q38.23 2.73 38.67 2.67Q39.11 2.60 39.48 2.60L39.48 2.60Q40.47 2.60 41.05 3.01Q41.62 3.41 41.62 4.09L41.62 4.09Q41.62 4.56 41.32 4.89Q41.01 5.22 40.45 5.34Z"></path></svg>