<svg height="16.296875" width="40.7490234375" xmlns="http://www.w3.org/2000/svg" ><path d="M1.27 13.00L1.27 2.36L2.54 2.36L2.54 8.64L6.29 5.34L7.90 5.34L3.83 8.92L8.07 13.00L6.43 13.00L2.54 9.26L2.54 13.00L1.27 13.00ZM12.95 5.84L12.95 5.84L12.95 8.43L12.15 8.43L12.15 5.87Q12.15 5.26 11.89 4.95Q11.62 4.65 11.09 4.65L11.09 4.65Q10.45 4.65 10.08 5.01Q9.71 5.38 9.71 6.01L9.71 6.01L9.71 8.43L8.91 8.43L8.91 2.47L9.71 2.47L9.71 4.81Q9.99 4.42 10.37 4.23Q10.76 4.04 11.27 4.04L11.27 4.04Q12.09 4.04 12.52 4.50Q12.95 4.96 12.95 5.84ZM14.54 9.50L14.54 9.50L14.54 8.88L20.32 8.88Q20.24 7.58 19.54 6.90Q18.84 6.22 17.59 6.22L17.59 6.22Q16.86 6.22 16.18 6.40Q15.50 6.58 14.83 6.93L14.83 6.93L14.83 5.74Q15.51 5.46 16.22 5.30Q16.93 5.15 17.66 5.15L17.66 5.15Q19.50 5.15 20.57 6.22Q21.64 7.29 21.64 9.11L21.64 9.11Q21.64 10.99 20.62 12.09Q19.61 13.19 17.88 13.19L17.88 13.19Q16.34 13.19 15.44 12.20Q14.54 11.20 14.54 9.50ZM20.28 9.86L15.80 9.86Q15.81 10.90 16.38 11.51Q16.94 12.13 17.87 12.13L17.87 12.13Q18.92 12.13 19.55 11.53Q20.19 10.94 20.28 9.86L20.28 9.86ZM24.71 13.00L24.71 7.54L25.14 7.54Q26.45 7.54 27.04 6.76L27.04 6.76Q27.43 6.24 27.43 5.57L27.43 5.57Q27.43 4.66 27.04 4.22L27.04 4.22Q26.36 3.44 25.14 3.44L25.14 3.44Q24.59 3.44 24.05 3.59L24.05 3.59Q23.52 3.73 22.98 4.03L22.98 4.03L22.98 2.85Q23.50 2.61 24.06 2.50L24.06 2.50Q24.61 2.37 25.19 2.37L25.19 2.37Q27.07 2.37 28.01 3.45L28.01 3.45Q28.76 4.30 28.76 5.57L28.76 5.57Q28.76 6.73 28.02 7.52L28.02 7.52Q27.25 8.33 26.09 8.54L26.09 8.54L26.09 13.00L24.71 13.00ZM30.50 5.58L30.50 2.72L33.98 2.72L33.98 3.37L31.31 3.37L31.31 4.76Q31.50 4.70 31.70 4.68L31.70 4.68Q31.89 4.65 32.08 4.65L32.08 4.65Q33.18 4.65 33.82 5.17L33.82 5.17Q34.47 5.69 34.47 6.59L34.47 6.59Q34.47 7.51 33.80 8.03L33.80 8.03Q33.15 8.53 31.94 8.53L31.94 8.53Q31.53 8.53 31.10 8.47Q30.67 8.41 30.22 8.29L30.22 8.29L30.22 7.51Q30.61 7.70 31.04 7.79L31.04 7.79Q31.46 7.88 31.93 7.88L31.93 7.88Q32.69 7.88 33.13 7.53Q33.58 7.18 33.58 6.59Q33.58 6.00 33.13 5.65Q32.69 5.30 31.93 5.30L31.93 5.30Q31.58 5.30 31.22 5.37Q30.86 5.43 30.50 5.58L30.50 5.58ZM36.11 5.58L36.11 2.72L39.59 2.72L39.59 3.37L36.92 3.37L36.92 4.76Q37.11 4.70 37.31 4.68L37.31 4.68Q37.50 4.65 37.69 4.65L37.69 4.65Q38.79 4.65 39.44 5.17L39.44 5.17Q40.08 5.69 40.08 6.59L40.08 6.59Q40.08 7.51 39.42 8.03L39.42 8.03Q38.76 8.53 37.56 8.53L37.56 8.53Q37.15 8.53 36.72 8.47Q36.29 8.41 35.83 8.29L35.83 8.29L35.83 7.51Q36.22 7.70 36.65 7.79L36.65 7.79Q37.07 7.88 37.54 7.88L37.54 7.88Q38.30 7.88 38.75 7.53Q39.19 7.18 39.19 6.59Q39.19 6.00 38.75 5.65Q38.30 5.30 37.54 5.30L37.54 5.30Q37.19 5.30 36.83 5.37Q36.48 5.43 36.11 5.58L36.11 5.58Z"></path></svg>