<svg height="16.296875" width="33.33203125" xmlns="http://www.w3.org/2000/svg" ><path d="M1.27 13.00L1.27 2.36L2.54 2.36L2.54 8.64L6.29 5.34L7.90 5.34L3.83 8.92L8.07 13.00L6.43 13.00L2.54 9.26L2.54 13.00L1.27 13.00ZM12.95 5.84L12.95 5.84L12.95 8.43L12.15 8.43L12.15 5.87Q12.15 5.26 11.89 4.95Q11.62 4.65 11.09 4.65L11.09 4.65Q10.45 4.65 10.08 5.01Q9.71 5.38 9.71 6.01L9.71 6.01L9.71 8.43L8.91 8.43L8.91 2.47L9.71 2.47L9.71 4.81Q9.99 4.42 10.37 4.23Q10.76 4.04 11.27 4.04L11.27 4.04Q12.09 4.04 12.52 4.50Q12.95 4.96 12.95 5.84ZM15.91 5.34L17.94 8.07L19.97 5.34L21.45 5.34L18.73 8.99Q19.22 9.66 19.52 10.18L19.52 10.18Q19.99 11.00 19.99 11.42L19.99 11.42Q19.99 12.31 19.48 12.75Q18.96 13.19 17.94 13.19L17.94 13.19Q16.91 13.19 16.40 12.75Q15.89 12.31 15.89 11.42L15.89 11.42Q15.89 11.00 16.36 10.18L16.36 10.18Q16.66 9.66 17.14 8.99L17.14 8.99L14.42 5.34L15.91 5.34ZM17.94 12.13L17.94 12.13Q18.40 12.13 18.61 11.94L18.61 11.94Q18.80 11.78 18.80 11.47L18.80 11.47Q18.80 11.25 18.53 10.81L18.53 10.81Q18.32 10.47 17.94 9.99L17.94 9.99Q17.55 10.47 17.34 10.81L17.34 10.81Q17.08 11.25 17.08 11.47L17.08 11.47Q17.08 11.78 17.27 11.94L17.27 11.94Q17.48 12.13 17.94 12.13ZM23.08 5.58L23.08 2.72L26.56 2.72L26.56 3.37L23.89 3.37L23.89 4.76Q24.08 4.70 24.28 4.68L24.28 4.68Q24.47 4.65 24.66 4.65L24.66 4.65Q25.76 4.65 26.41 5.17L26.41 5.17Q27.05 5.69 27.05 6.59L27.05 6.59Q27.05 7.51 26.39 8.03L26.39 8.03Q25.73 8.53 24.53 8.53L24.53 8.53Q24.12 8.53 23.69 8.47Q23.26 8.41 22.80 8.29L22.80 8.29L22.80 7.51Q23.19 7.70 23.62 7.79L23.62 7.79Q24.04 7.88 24.51 7.88L24.51 7.88Q25.27 7.88 25.72 7.53Q26.16 7.18 26.16 6.59Q26.16 6.00 25.72 5.65Q25.27 5.30 24.51 5.30L24.51 5.30Q24.16 5.30 23.80 5.37Q23.45 5.43 23.08 5.58L23.08 5.58ZM31.30 5.34L31.30 5.34Q31.93 5.46 32.28 5.83Q32.62 6.21 32.62 6.77L32.62 6.77Q32.62 7.62 31.97 8.07Q31.32 8.53 30.11 8.53L30.11 8.53Q29.72 8.53 29.30 8.46Q28.87 8.39 28.39 8.25L28.39 8.25L28.39 7.42Q28.75 7.61 29.15 7.70Q29.56 7.79 30.02 7.79L30.02 7.79Q30.76 7.79 31.17 7.52Q31.58 7.25 31.58 6.77L31.58 6.77Q31.58 6.26 31.20 6.00Q30.82 5.74 30.08 5.74L30.08 5.74L29.50 5.74L29.50 5.00L30.14 5.00Q30.78 5.00 31.11 4.79Q31.45 4.57 31.45 4.16L31.45 4.16Q31.45 3.77 31.10 3.56Q30.76 3.35 30.11 3.35L30.11 3.35Q29.84 3.35 29.49 3.41Q29.14 3.47 28.59 3.63L28.59 3.63L28.59 2.84Q29.09 2.73 29.52 2.67Q29.96 2.60 30.34 2.60L30.34 2.60Q31.32 2.60 31.90 3.01Q32.48 3.41 32.48 4.09L32.48 4.09Q32.48 4.56 32.17 4.89Q31.86 5.22 31.30 5.34Z"></path></svg>