<svg height="16.296875" width="38.9443359375" xmlns="http://www.w3.org/2000/svg" ><path d="M1.27 13.00L1.27 2.36L2.54 2.36L2.54 8.64L6.29 5.34L7.90 5.34L3.83 8.92L8.07 13.00L6.43 13.00L2.54 9.26L2.54 13.00L1.27 13.00ZM12.95 5.84L12.95 5.84L12.95 8.43L12.15 8.43L12.15 5.87Q12.15 5.26 11.89 4.95Q11.62 4.65 11.09 4.65L11.09 4.65Q10.45 4.65 10.08 5.01Q9.71 5.38 9.71 6.01L9.71 6.01L9.71 8.43L8.91 8.43L8.91 2.47L9.71 2.47L9.71 4.81Q9.99 4.42 10.37 4.23Q10.76 4.04 11.27 4.04L11.27 4.04Q12.09 4.04 12.52 4.50Q12.95 4.96 12.95 5.84ZM15.91 5.34L17.94 8.07L19.97 5.34L21.45 5.34L18.73 8.99Q19.22 9.66 19.52 10.18L19.52 10.18Q19.99 11.00 19.99 11.42L19.99 11.42Q19.99 12.31 19.48 12.75Q18.96 13.19 17.94 13.19L17.94 13.19Q16.91 13.19 16.40 12.75Q15.89 12.31 15.89 11.42L15.89 11.42Q15.89 11.00 16.36 10.18L16.36 10.18Q16.66 9.66 17.14 8.99L17.14 8.99L14.42 5.34L15.91 5.34ZM17.94 12.13L17.94 12.13Q18.40 12.13 18.61 11.94L18.61 11.94Q18.80 11.78 18.80 11.47L18.80 11.47Q18.80 11.25 18.53 10.81L18.53 10.81Q18.32 10.47 17.94 9.99L17.94 9.99Q17.55 10.47 17.34 10.81L17.34 10.81Q17.08 11.25 17.08 11.47L17.08 11.47Q17.08 11.78 17.27 11.94L17.27 11.94Q17.48 12.13 17.94 12.13ZM25.69 5.34L25.69 5.34Q26.32 5.46 26.66 5.83Q27.01 6.21 27.01 6.77L27.01 6.77Q27.01 7.62 26.36 8.07Q25.71 8.53 24.50 8.53L24.50 8.53Q24.11 8.53 23.68 8.46Q23.26 8.39 22.78 8.25L22.78 8.25L22.78 7.42Q23.13 7.61 23.54 7.70Q23.95 7.79 24.40 7.79L24.40 7.79Q25.15 7.79 25.56 7.52Q25.97 7.25 25.97 6.77L25.97 6.77Q25.97 6.26 25.59 6.00Q25.21 5.74 24.47 5.74L24.47 5.74L23.88 5.74L23.88 5.00L24.53 5.00Q25.17 5.00 25.50 4.79Q25.83 4.57 25.83 4.16L25.83 4.16Q25.83 3.77 25.49 3.56Q25.15 3.35 24.50 3.35L24.50 3.35Q24.23 3.35 23.88 3.41Q23.53 3.47 22.98 3.63L22.98 3.63L22.98 2.84Q23.47 2.73 23.91 2.67Q24.35 2.60 24.73 2.60L24.73 2.60Q25.71 2.60 26.29 3.01Q26.87 3.41 26.87 4.09L26.87 4.09Q26.87 4.56 26.56 4.89Q26.25 5.22 25.69 5.34ZM31.30 5.34L31.30 5.34Q31.93 5.46 32.28 5.83Q32.62 6.21 32.62 6.77L32.62 6.77Q32.62 7.62 31.97 8.07Q31.32 8.53 30.11 8.53L30.11 8.53Q29.72 8.53 29.30 8.46Q28.87 8.39 28.39 8.25L28.39 8.25L28.39 7.42Q28.75 7.61 29.15 7.70Q29.56 7.79 30.02 7.79L30.02 7.79Q30.76 7.79 31.17 7.52Q31.58 7.25 31.58 6.77L31.58 6.77Q31.58 6.26 31.20 6.00Q30.82 5.74 30.08 5.74L30.08 5.74L29.50 5.74L29.50 5.00L30.14 5.00Q30.78 5.00 31.11 4.79Q31.45 4.57 31.45 4.16L31.45 4.16Q31.45 3.77 31.10 3.56Q30.76 3.35 30.11 3.35L30.11 3.35Q29.84 3.35 29.49 3.41Q29.14 3.47 28.59 3.63L28.59 3.63L28.59 2.84Q29.09 2.73 29.52 2.67Q29.96 2.60 30.34 2.60L30.34 2.60Q31.32 2.60 31.90 3.01Q32.48 3.41 32.48 4.09L32.48 4.09Q32.48 4.56 32.17 4.89Q31.86 5.22 31.30 5.34ZM36.59 6.41L36.59 3.55L34.48 6.41L36.59 6.41ZM33.76 6.33L36.44 2.72L37.58 2.72L37.58 6.41L38.50 6.41L38.50 7.16L37.58 7.16L37.58 8.43L36.59 8.43L36.59 7.16L33.76 7.16L33.76 6.33Z"></path></svg>