<svg height="16.296875" width="33.5576171875" xmlns="http://www.w3.org/2000/svg" ><path d="M1.27 13.00L1.27 2.36L2.54 2.36L2.54 8.64L6.29 5.34L7.90 5.34L3.83 8.92L8.07 13.00L6.43 13.00L2.54 9.26L2.54 13.00L1.27 13.00ZM12.95 5.84L12.95 5.84L12.95 8.43L12.15 8.43L12.15 5.87Q12.15 5.26 11.89 4.95Q11.62 4.65 11.09 4.65L11.09 4.65Q10.45 4.65 10.08 5.01Q9.71 5.38 9.71 6.01L9.71 6.01L9.71 8.43L8.91 8.43L8.91 2.47L9.71 2.47L9.71 4.81Q9.99 4.42 10.37 4.23Q10.76 4.04 11.27 4.04L11.27 4.04Q12.09 4.04 12.52 4.50Q12.95 4.96 12.95 5.84ZM18.05 6.22L18.05 6.22Q17.04 6.22 16.45 7.01Q15.87 7.80 15.87 9.17L15.87 9.17Q15.87 10.55 16.45 11.34Q17.04 12.13 18.05 12.13L18.05 12.13Q19.06 12.13 19.65 11.33Q20.23 10.54 20.23 9.17L20.23 9.17Q20.23 7.81 19.65 7.02Q19.06 6.22 18.05 6.22ZM18.05 5.15L18.05 5.15Q19.69 5.15 20.63 6.22Q21.57 7.29 21.57 9.17L21.57 9.17Q21.57 11.05 20.63 12.12Q19.69 13.19 18.05 13.19L18.05 13.19Q16.41 13.19 15.47 12.12Q14.54 11.05 14.54 9.17L14.54 9.17Q14.54 7.29 15.47 6.22Q16.41 5.15 18.05 5.15ZM23.30 5.58L23.30 2.72L26.79 2.72L26.79 3.37L24.12 3.37L24.12 4.76Q24.31 4.70 24.51 4.68L24.51 4.68Q24.70 4.65 24.89 4.65L24.89 4.65Q25.99 4.65 26.63 5.17L26.63 5.17Q27.28 5.69 27.28 6.59L27.28 6.59Q27.28 7.51 26.61 8.03L26.61 8.03Q25.96 8.53 24.75 8.53L24.75 8.53Q24.34 8.53 23.91 8.47Q23.48 8.41 23.03 8.29L23.03 8.29L23.03 7.51Q23.42 7.70 23.84 7.79L23.84 7.79Q24.27 7.88 24.74 7.88L24.74 7.88Q25.50 7.88 25.94 7.53Q26.39 7.18 26.39 6.59Q26.39 6.00 25.94 5.65Q25.50 5.30 24.74 5.30L24.74 5.30Q24.38 5.30 24.03 5.37Q23.67 5.43 23.30 5.58L23.30 5.58ZM31.53 5.34L31.53 5.34Q32.16 5.46 32.50 5.83Q32.85 6.21 32.85 6.77L32.85 6.77Q32.85 7.62 32.20 8.07Q31.55 8.53 30.34 8.53L30.34 8.53Q29.95 8.53 29.52 8.46Q29.09 8.39 28.62 8.25L28.62 8.25L28.62 7.42Q28.97 7.61 29.38 7.70Q29.78 7.79 30.24 7.79L30.24 7.79Q30.99 7.79 31.40 7.52Q31.81 7.25 31.81 6.77L31.81 6.77Q31.81 6.26 31.43 6.00Q31.05 5.74 30.31 5.74L30.31 5.74L29.72 5.74L29.72 5.00L30.37 5.00Q31.01 5.00 31.34 4.79Q31.67 4.57 31.67 4.16L31.67 4.16Q31.67 3.77 31.33 3.56Q30.99 3.35 30.34 3.35L30.34 3.35Q30.06 3.35 29.72 3.41Q29.37 3.47 28.81 3.63L28.81 3.63L28.81 2.84Q29.31 2.73 29.75 2.67Q30.19 2.60 30.56 2.60L30.56 2.60Q31.55 2.60 32.13 3.01Q32.70 3.41 32.70 4.09L32.70 4.09Q32.70 4.56 32.40 4.89Q32.09 5.22 31.53 5.34Z"></path></svg>