<svg height="16.296875" width="39.169921875" xmlns="http://www.w3.org/2000/svg" ><path d="M1.27 13.00L1.27 2.36L2.54 2.36L2.54 8.64L6.29 5.34L7.90 5.34L3.83 8.92L8.07 13.00L6.43 13.00L2.54 9.26L2.54 13.00L1.27 13.00ZM12.95 5.84L12.95 5.84L12.95 8.43L12.15 8.43L12.15 5.87Q12.15 5.26 11.89 4.95Q11.62 4.65 11.09 4.65L11.09 4.65Q10.45 4.65 10.08 5.01Q9.71 5.38 9.71 6.01L9.71 6.01L9.71 8.43L8.91 8.43L8.91 2.47L9.71 2.47L9.71 4.81Q9.99 4.42 10.37 4.23Q10.76 4.04 11.27 4.04L11.27 4.04Q12.09 4.04 12.52 4.50Q12.95 4.96 12.95 5.84ZM18.05 6.22L18.05 6.22Q17.04 6.22 16.45 7.01Q15.87 7.80 15.87 9.17L15.87 9.17Q15.87 10.55 16.45 11.34Q17.04 12.13 18.05 12.13L18.05 12.13Q19.06 12.13 19.65 11.33Q20.23 10.54 20.23 9.17L20.23 9.17Q20.23 7.81 19.65 7.02Q19.06 6.22 18.05 6.22ZM18.05 5.15L18.05 5.15Q19.69 5.15 20.63 6.22Q21.57 7.29 21.57 9.17L21.57 9.17Q21.57 11.05 20.63 12.12Q19.69 13.19 18.05 13.19L18.05 13.19Q16.41 13.19 15.47 12.12Q14.54 11.05 14.54 9.17L14.54 9.17Q14.54 7.29 15.47 6.22Q16.41 5.15 18.05 5.15ZM25.92 5.34L25.92 5.34Q26.54 5.46 26.89 5.83Q27.23 6.21 27.23 6.77L27.23 6.77Q27.23 7.62 26.58 8.07Q25.94 8.53 24.73 8.53L24.73 8.53Q24.34 8.53 23.91 8.46Q23.48 8.39 23.00 8.25L23.00 8.25L23.00 7.42Q23.36 7.61 23.77 7.70Q24.17 7.79 24.63 7.79L24.63 7.79Q25.38 7.79 25.79 7.52Q26.20 7.25 26.20 6.77L26.20 6.77Q26.20 6.26 25.82 6.00Q25.44 5.74 24.70 5.74L24.70 5.74L24.11 5.74L24.11 5.00L24.75 5.00Q25.40 5.00 25.73 4.79Q26.06 4.57 26.06 4.16L26.06 4.16Q26.06 3.77 25.72 3.56Q25.38 3.35 24.73 3.35L24.73 3.35Q24.45 3.35 24.10 3.41Q23.75 3.47 23.20 3.63L23.20 3.63L23.20 2.84Q23.70 2.73 24.14 2.67Q24.58 2.60 24.95 2.60L24.95 2.60Q25.94 2.60 26.51 3.01Q27.09 3.41 27.09 4.09L27.09 4.09Q27.09 4.56 26.78 4.89Q26.48 5.22 25.92 5.34ZM31.53 5.34L31.53 5.34Q32.16 5.46 32.50 5.83Q32.85 6.21 32.85 6.77L32.85 6.77Q32.85 7.62 32.20 8.07Q31.55 8.53 30.34 8.53L30.34 8.53Q29.95 8.53 29.52 8.46Q29.09 8.39 28.62 8.25L28.62 8.25L28.62 7.42Q28.97 7.61 29.38 7.70Q29.78 7.79 30.24 7.79L30.24 7.79Q30.99 7.79 31.40 7.52Q31.81 7.25 31.81 6.77L31.81 6.77Q31.81 6.26 31.43 6.00Q31.05 5.74 30.31 5.74L30.31 5.74L29.72 5.74L29.72 5.00L30.37 5.00Q31.01 5.00 31.34 4.79Q31.67 4.57 31.67 4.16L31.67 4.16Q31.67 3.77 31.33 3.56Q30.99 3.35 30.34 3.35L30.34 3.35Q30.06 3.35 29.72 3.41Q29.37 3.47 28.81 3.63L28.81 3.63L28.81 2.84Q29.31 2.73 29.75 2.67Q30.19 2.60 30.56 2.60L30.56 2.60Q31.55 2.60 32.13 3.01Q32.70 3.41 32.70 4.09L32.70 4.09Q32.70 4.56 32.40 4.89Q32.09 5.22 31.53 5.34ZM36.82 6.41L36.82 3.55L34.71 6.41L36.82 6.41ZM33.99 6.33L36.67 2.72L37.80 2.72L37.80 6.41L38.73 6.41L38.73 7.16L37.80 7.16L37.80 8.43L36.82 8.43L36.82 7.16L33.99 7.16L33.99 6.33Z"></path></svg>