<svg height="16.296875" width="42.4306640625" xmlns="http://www.w3.org/2000/svg" ><path d="M1.27 13.00L1.27 2.36L2.54 2.36L2.54 8.64L6.29 5.34L7.90 5.34L3.83 8.92L8.07 13.00L6.43 13.00L2.54 9.26L2.54 13.00L1.27 13.00ZM12.95 5.84L12.95 5.84L12.95 8.43L12.15 8.43L12.15 5.87Q12.15 5.26 11.89 4.95Q11.62 4.65 11.09 4.65L11.09 4.65Q10.45 4.65 10.08 5.01Q9.71 5.38 9.71 6.01L9.71 6.01L9.71 8.43L8.91 8.43L8.91 2.47L9.71 2.47L9.71 4.81Q9.99 4.42 10.37 4.23Q10.76 4.04 11.27 4.04L11.27 4.04Q12.09 4.04 12.52 4.50Q12.95 4.96 12.95 5.84ZM18.05 6.22L18.05 6.22Q17.04 6.22 16.45 7.01Q15.87 7.80 15.87 9.17L15.87 9.17Q15.87 10.55 16.45 11.34Q17.04 12.13 18.05 12.13L18.05 12.13Q19.06 12.13 19.65 11.33Q20.23 10.54 20.23 9.17L20.23 9.17Q20.23 7.81 19.65 7.02Q19.06 6.22 18.05 6.22ZM18.05 5.15L18.05 5.15Q19.69 5.15 20.63 6.22Q21.57 7.29 21.57 9.17L21.57 9.17Q21.57 11.05 20.63 12.12Q19.69 13.19 18.05 13.19L18.05 13.19Q16.41 13.19 15.47 12.12Q14.54 11.05 14.54 9.17L14.54 9.17Q14.54 7.29 15.47 6.22Q16.41 5.15 18.05 5.15ZM30.02 8.37L30.02 8.37L30.02 13.13Q30.02 14.59 29.46 15.25L29.46 15.25Q28.90 15.91 27.67 15.91L27.67 15.91L25.93 15.91L25.93 14.84L27.52 14.84Q28.24 14.84 28.50 14.51L28.50 14.51Q28.76 14.18 28.76 13.13L28.76 13.13L28.76 8.42Q28.76 7.33 28.33 6.79Q27.91 6.25 27.06 6.25L27.06 6.25Q26.04 6.25 25.46 6.90Q24.87 7.55 24.87 8.67L24.87 8.67L24.87 13.00L23.60 13.00L23.60 5.34L24.87 5.34L24.87 6.53Q25.32 5.84 25.93 5.50L25.93 5.50Q26.54 5.15 27.34 5.15L27.34 5.15Q28.66 5.15 29.34 5.97L29.34 5.97Q30.02 6.79 30.02 8.37ZM32.18 5.58L32.18 2.72L35.66 2.72L35.66 3.37L32.99 3.37L32.99 4.76Q33.18 4.70 33.38 4.68L33.38 4.68Q33.57 4.65 33.76 4.65L33.76 4.65Q34.86 4.65 35.51 5.17L35.51 5.17Q36.15 5.69 36.15 6.59L36.15 6.59Q36.15 7.51 35.49 8.03L35.49 8.03Q34.83 8.53 33.63 8.53L33.63 8.53Q33.22 8.53 32.79 8.47Q32.35 8.41 31.90 8.29L31.90 8.29L31.90 7.51Q32.29 7.70 32.72 7.79L32.72 7.79Q33.14 7.88 33.61 7.88L33.61 7.88Q34.37 7.88 34.82 7.53Q35.26 7.18 35.26 6.59Q35.26 6.00 34.82 5.65Q34.37 5.30 33.61 5.30L33.61 5.30Q33.26 5.30 32.90 5.37Q32.55 5.43 32.18 5.58L32.18 5.58ZM40.40 5.34L40.40 5.34Q41.03 5.46 41.37 5.83Q41.72 6.21 41.72 6.77L41.72 6.77Q41.72 7.62 41.07 8.07Q40.42 8.53 39.21 8.53L39.21 8.53Q38.82 8.53 38.39 8.46Q37.97 8.39 37.49 8.25L37.49 8.25L37.49 7.42Q37.84 7.61 38.25 7.70Q38.66 7.79 39.12 7.79L39.12 7.79Q39.86 7.79 40.27 7.52Q40.68 7.25 40.68 6.77L40.68 6.77Q40.68 6.26 40.30 6.00Q39.92 5.74 39.18 5.74L39.18 5.74L38.60 5.74L38.60 5.00L39.24 5.00Q39.88 5.00 40.21 4.79Q40.54 4.57 40.54 4.16L40.54 4.16Q40.54 3.77 40.20 3.56Q39.86 3.35 39.21 3.35L39.21 3.35Q38.94 3.35 38.59 3.41Q38.24 3.47 37.69 3.63L37.69 3.63L37.69 2.84Q38.19 2.73 38.62 2.67Q39.06 2.60 39.44 2.60L39.44 2.60Q40.42 2.60 41.00 3.01Q41.58 3.41 41.58 4.09L41.58 4.09Q41.58 4.56 41.27 4.89Q40.96 5.22 40.40 5.34Z"></path></svg>