<svg height="16.296875" width="40.701171875" xmlns="http://www.w3.org/2000/svg" ><path d="M1.27 13.00L1.27 2.36L2.54 2.36L2.54 8.64L6.29 5.34L7.90 5.34L3.83 8.92L8.07 13.00L6.43 13.00L2.54 9.26L2.54 13.00L1.27 13.00ZM12.95 5.84L12.95 5.84L12.95 8.43L12.15 8.43L12.15 5.87Q12.15 5.26 11.89 4.95Q11.62 4.65 11.09 4.65L11.09 4.65Q10.45 4.65 10.08 5.01Q9.71 5.38 9.71 6.01L9.71 6.01L9.71 8.43L8.91 8.43L8.91 2.47L9.71 2.47L9.71 4.81Q9.99 4.42 10.37 4.23Q10.76 4.04 11.27 4.04L11.27 4.04Q12.09 4.04 12.52 4.50Q12.95 4.96 12.95 5.84ZM18.05 6.22L18.05 6.22Q17.04 6.22 16.45 7.01Q15.87 7.80 15.87 9.17L15.87 9.17Q15.87 10.55 16.45 11.34Q17.04 12.13 18.05 12.13L18.05 12.13Q19.06 12.13 19.65 11.33Q20.23 10.54 20.23 9.17L20.23 9.17Q20.23 7.81 19.65 7.02Q19.06 6.22 18.05 6.22ZM18.05 5.15L18.05 5.15Q19.69 5.15 20.63 6.22Q21.57 7.29 21.57 9.17L21.57 9.17Q21.57 11.05 20.63 12.12Q19.69 13.19 18.05 13.19L18.05 13.19Q16.41 13.19 15.47 12.12Q14.54 11.05 14.54 9.17L14.54 9.17Q14.54 7.29 15.47 6.22Q16.41 5.15 18.05 5.15ZM24.66 13.00L24.66 7.54L25.09 7.54Q26.40 7.54 26.99 6.76L26.99 6.76Q27.38 6.24 27.38 5.57L27.38 5.57Q27.38 4.66 26.99 4.22L26.99 4.22Q26.31 3.44 25.09 3.44L25.09 3.44Q24.54 3.44 24.00 3.59L24.00 3.59Q23.47 3.73 22.93 4.03L22.93 4.03L22.93 2.85Q23.45 2.61 24.01 2.50L24.01 2.50Q24.56 2.37 25.14 2.37L25.14 2.37Q27.02 2.37 27.97 3.45L27.97 3.45Q28.71 4.30 28.71 5.57L28.71 5.57Q28.71 6.73 27.97 7.52L27.97 7.52Q27.21 8.33 26.04 8.54L26.04 8.54L26.04 13.00L24.66 13.00ZM30.45 5.58L30.45 2.72L33.93 2.72L33.93 3.37L31.26 3.37L31.26 4.76Q31.45 4.70 31.65 4.68L31.65 4.68Q31.84 4.65 32.03 4.65L32.03 4.65Q33.13 4.65 33.78 5.17L33.78 5.17Q34.42 5.69 34.42 6.59L34.42 6.59Q34.42 7.51 33.76 8.03L33.76 8.03Q33.10 8.53 31.90 8.53L31.90 8.53Q31.49 8.53 31.06 8.47Q30.63 8.41 30.17 8.29L30.17 8.29L30.17 7.51Q30.56 7.70 30.99 7.79L30.99 7.79Q31.41 7.88 31.88 7.88L31.88 7.88Q32.64 7.88 33.09 7.53Q33.53 7.18 33.53 6.59Q33.53 6.00 33.09 5.65Q32.64 5.30 31.88 5.30L31.88 5.30Q31.53 5.30 31.17 5.37Q30.82 5.43 30.45 5.58L30.45 5.58ZM36.06 5.58L36.06 2.72L39.55 2.72L39.55 3.37L36.87 3.37L36.87 4.76Q37.06 4.70 37.26 4.68L37.26 4.68Q37.45 4.65 37.65 4.65L37.65 4.65Q38.75 4.65 39.39 5.17L39.39 5.17Q40.03 5.69 40.03 6.59L40.03 6.59Q40.03 7.51 39.37 8.03L39.37 8.03Q38.71 8.53 37.51 8.53L37.51 8.53Q37.10 8.53 36.67 8.47Q36.24 8.41 35.79 8.29L35.79 8.29L35.79 7.51Q36.18 7.70 36.60 7.79L36.60 7.79Q37.02 7.88 37.50 7.88L37.50 7.88Q38.25 7.88 38.70 7.53Q39.14 7.18 39.14 6.59Q39.14 6.00 38.70 5.65Q38.25 5.30 37.50 5.30L37.50 5.30Q37.14 5.30 36.78 5.37Q36.43 5.43 36.06 5.58L36.06 5.58Z"></path></svg>