<svg height="16.296875" width="39.4775390625" xmlns="http://www.w3.org/2000/svg" ><path d="M1.27 13.00L1.27 2.36L2.54 2.36L2.54 8.64L6.29 5.34L7.90 5.34L3.83 8.92L8.07 13.00L6.43 13.00L2.54 9.26L2.54 13.00L1.27 13.00ZM12.95 5.84L12.95 5.84L12.95 8.43L12.15 8.43L12.15 5.87Q12.15 5.26 11.89 4.95Q11.62 4.65 11.09 4.65L11.09 4.65Q10.45 4.65 10.08 5.01Q9.71 5.38 9.71 6.01L9.71 6.01L9.71 8.43L8.91 8.43L8.91 2.47L9.71 2.47L9.71 4.81Q9.99 4.42 10.37 4.23Q10.76 4.04 11.27 4.04L11.27 4.04Q12.09 4.04 12.52 4.50Q12.95 4.96 12.95 5.84ZM14.96 9.97L14.96 9.97L14.96 5.34L16.21 5.34L16.21 9.93Q16.21 11.01 16.64 11.56Q17.06 12.10 17.91 12.10L17.91 12.10Q18.93 12.10 19.52 11.45Q20.11 10.80 20.11 9.68L20.11 9.68L20.11 5.34L21.37 5.34L21.37 13.00L20.11 13.00L20.11 11.82Q19.65 12.52 19.05 12.85Q18.44 13.19 17.64 13.19L17.64 13.19Q16.32 13.19 15.64 12.37Q14.96 11.55 14.96 9.97ZM18.12 5.15L18.12 5.15ZM26.22 5.34L26.22 5.34Q26.85 5.46 27.20 5.83Q27.54 6.21 27.54 6.77L27.54 6.77Q27.54 7.62 26.89 8.07Q26.24 8.53 25.03 8.53L25.03 8.53Q24.64 8.53 24.22 8.46Q23.79 8.39 23.31 8.25L23.31 8.25L23.31 7.42Q23.67 7.61 24.07 7.70Q24.48 7.79 24.94 7.79L24.94 7.79Q25.68 7.79 26.09 7.52Q26.50 7.25 26.50 6.77L26.50 6.77Q26.50 6.26 26.12 6.00Q25.74 5.74 25.01 5.74L25.01 5.74L24.42 5.74L24.42 5.00L25.06 5.00Q25.70 5.00 26.03 4.79Q26.37 4.57 26.37 4.16L26.37 4.16Q26.37 3.77 26.02 3.56Q25.68 3.35 25.03 3.35L25.03 3.35Q24.76 3.35 24.41 3.41Q24.06 3.47 23.51 3.63L23.51 3.63L23.51 2.84Q24.01 2.73 24.45 2.67Q24.88 2.60 25.26 2.60L25.26 2.60Q26.24 2.60 26.82 3.01Q27.40 3.41 27.40 4.09L27.40 4.09Q27.40 4.56 27.09 4.89Q26.78 5.22 26.22 5.34ZM31.83 5.34L31.83 5.34Q32.46 5.46 32.81 5.83Q33.15 6.21 33.15 6.77L33.15 6.77Q33.15 7.62 32.50 8.07Q31.86 8.53 30.65 8.53L30.65 8.53Q30.26 8.53 29.83 8.46Q29.40 8.39 28.92 8.25L28.92 8.25L28.92 7.42Q29.28 7.61 29.69 7.70Q30.09 7.79 30.55 7.79L30.55 7.79Q31.29 7.79 31.71 7.52Q32.12 7.25 32.12 6.77L32.12 6.77Q32.12 6.26 31.74 6.00Q31.36 5.74 30.62 5.74L30.62 5.74L30.03 5.74L30.03 5.00L30.67 5.00Q31.32 5.00 31.65 4.79Q31.98 4.57 31.98 4.16L31.98 4.16Q31.98 3.77 31.64 3.56Q31.29 3.35 30.65 3.35L30.65 3.35Q30.37 3.35 30.02 3.41Q29.67 3.47 29.12 3.63L29.12 3.63L29.12 2.84Q29.62 2.73 30.06 2.67Q30.50 2.60 30.87 2.60L30.87 2.60Q31.86 2.60 32.43 3.01Q33.01 3.41 33.01 4.09L33.01 4.09Q33.01 4.56 32.70 4.89Q32.40 5.22 31.83 5.34ZM37.13 6.41L37.13 3.55L35.01 6.41L37.13 6.41ZM34.30 6.33L36.98 2.72L38.11 2.72L38.11 6.41L39.03 6.41L39.03 7.16L38.11 7.16L38.11 8.43L37.13 8.43L37.13 7.16L34.30 7.16L34.30 6.33Z"></path></svg>