<svg height="16.296875" width="42.150390625" xmlns="http://www.w3.org/2000/svg" ><path d="M1.27 13.00L1.27 2.36L2.54 2.36L2.54 8.64L6.29 5.34L7.90 5.34L3.83 8.92L8.07 13.00L6.43 13.00L2.54 9.26L2.54 13.00L1.27 13.00ZM12.95 5.84L12.95 5.84L12.95 8.43L12.15 8.43L12.15 5.87Q12.15 5.26 11.89 4.95Q11.62 4.65 11.09 4.65L11.09 4.65Q10.45 4.65 10.08 5.01Q9.71 5.38 9.71 6.01L9.71 6.01L9.71 8.43L8.91 8.43L8.91 2.47L9.71 2.47L9.71 4.81Q9.99 4.42 10.37 4.23Q10.76 4.04 11.27 4.04L11.27 4.04Q12.09 4.04 12.52 4.50Q12.95 4.96 12.95 5.84ZM14.96 9.97L14.96 9.97L14.96 5.34L16.21 5.34L16.21 9.93Q16.21 11.01 16.64 11.56Q17.06 12.10 17.91 12.10L17.91 12.10Q18.93 12.10 19.52 11.45Q20.11 10.80 20.11 9.68L20.11 9.68L20.11 5.34L21.37 5.34L21.37 13.00L20.11 13.00L20.11 11.82Q19.65 12.52 19.05 12.85Q18.44 13.19 17.64 13.19L17.64 13.19Q16.32 13.19 15.64 12.37Q14.96 11.55 14.96 9.97ZM18.12 5.15L18.12 5.15ZM27.64 5.34L30.51 13.00L29.18 13.00L28.48 11.12L25.09 11.12L24.39 13.00L23.06 13.00L25.93 5.34L27.64 5.34ZM26.78 6.57L25.47 10.10L28.10 10.10L26.78 6.57ZM31.90 5.58L31.90 2.72L35.38 2.72L35.38 3.37L32.71 3.37L32.71 4.76Q32.90 4.70 33.10 4.68L33.10 4.68Q33.29 4.65 33.48 4.65L33.48 4.65Q34.58 4.65 35.23 5.17L35.23 5.17Q35.87 5.69 35.87 6.59L35.87 6.59Q35.87 7.51 35.21 8.03L35.21 8.03Q34.55 8.53 33.35 8.53L33.35 8.53Q32.94 8.53 32.50 8.47Q32.07 8.41 31.62 8.29L31.62 8.29L31.62 7.51Q32.01 7.70 32.44 7.79L32.44 7.79Q32.86 7.88 33.33 7.88L33.33 7.88Q34.09 7.88 34.54 7.53Q34.98 7.18 34.98 6.59Q34.98 6.00 34.54 5.65Q34.09 5.30 33.33 5.30L33.33 5.30Q32.98 5.30 32.62 5.37Q32.27 5.43 31.90 5.58L31.90 5.58ZM40.12 5.34L40.12 5.34Q40.75 5.46 41.09 5.83Q41.44 6.21 41.44 6.77L41.44 6.77Q41.44 7.62 40.79 8.07Q40.14 8.53 38.93 8.53L38.93 8.53Q38.54 8.53 38.11 8.46Q37.69 8.39 37.21 8.25L37.21 8.25L37.21 7.42Q37.56 7.61 37.97 7.70Q38.38 7.79 38.83 7.79L38.83 7.79Q39.58 7.79 39.99 7.52Q40.40 7.25 40.40 6.77L40.40 6.77Q40.40 6.26 40.02 6.00Q39.64 5.74 38.90 5.74L38.90 5.74L38.32 5.74L38.32 5.00L38.96 5.00Q39.60 5.00 39.93 4.79Q40.26 4.57 40.26 4.16L40.26 4.16Q40.26 3.77 39.92 3.56Q39.58 3.35 38.93 3.35L38.93 3.35Q38.66 3.35 38.31 3.41Q37.96 3.47 37.41 3.63L37.41 3.63L37.41 2.84Q37.91 2.73 38.34 2.67Q38.78 2.60 39.16 2.60L39.16 2.60Q40.14 2.60 40.72 3.01Q41.30 3.41 41.30 4.09L41.30 4.09Q41.30 4.56 40.99 4.89Q40.68 5.22 40.12 5.34Z"></path></svg>