<svg height="16.296875" width="42.751953125" xmlns="http://www.w3.org/2000/svg" ><path d="M1.27 13.00L1.27 2.36L2.54 2.36L2.54 8.64L6.29 5.34L7.90 5.34L3.83 8.92L8.07 13.00L6.43 13.00L2.54 9.26L2.54 13.00L1.27 13.00ZM12.95 5.84L12.95 5.84L12.95 8.43L12.15 8.43L12.15 5.87Q12.15 5.26 11.89 4.95Q11.62 4.65 11.09 4.65L11.09 4.65Q10.45 4.65 10.08 5.01Q9.71 5.38 9.71 6.01L9.71 6.01L9.71 8.43L8.91 8.43L8.91 2.47L9.71 2.47L9.71 4.81Q9.99 4.42 10.37 4.23Q10.76 4.04 11.27 4.04L11.27 4.04Q12.09 4.04 12.52 4.50Q12.95 4.96 12.95 5.84ZM14.96 9.97L14.96 9.97L14.96 5.34L16.21 5.34L16.21 9.93Q16.21 11.01 16.64 11.56Q17.06 12.10 17.91 12.10L17.91 12.10Q18.93 12.10 19.52 11.45Q20.11 10.80 20.11 9.68L20.11 9.68L20.11 5.34L21.37 5.34L21.37 13.00L20.11 13.00L20.11 11.82Q19.65 12.52 19.05 12.85Q18.44 13.19 17.64 13.19L17.64 13.19Q16.32 13.19 15.64 12.37Q14.96 11.55 14.96 9.97ZM18.12 5.15L18.12 5.15ZM29.00 6.50L29.00 6.50L29.00 5.34L30.26 5.34L30.26 13.00L29.00 13.00L29.00 11.85Q28.60 12.53 28.00 12.86Q27.39 13.19 26.54 13.19L26.54 13.19Q25.16 13.19 24.28 12.09Q23.41 10.98 23.41 9.17L23.41 9.17Q23.41 7.37 24.28 6.26Q25.16 5.15 26.54 5.15L26.54 5.15Q27.39 5.15 28.00 5.49Q28.60 5.82 29.00 6.50ZM24.71 9.17L24.71 9.17Q24.71 10.56 25.28 11.35Q25.85 12.14 26.85 12.14L26.85 12.14Q27.85 12.14 28.42 11.35Q29.00 10.56 29.00 9.17L29.00 9.17Q29.00 7.79 28.42 7.00Q27.85 6.21 26.85 6.21L26.85 6.21Q25.85 6.21 25.28 7.00Q24.71 7.79 24.71 9.17ZM27.99 3.63L27.99 3.63L27.60 3.25Q27.45 3.12 27.33 3.05Q27.22 2.99 27.13 2.99L27.13 2.99Q26.87 2.99 26.75 3.24Q26.63 3.49 26.61 4.05L26.61 4.05L25.76 4.05Q25.77 3.12 26.12 2.62Q26.47 2.12 27.09 2.12L27.09 2.12Q27.35 2.12 27.57 2.21Q27.79 2.31 28.04 2.54L28.04 2.54L28.43 2.91Q28.58 3.05 28.69 3.11Q28.81 3.18 28.90 3.18L28.90 3.18Q29.16 3.18 29.28 2.93Q29.40 2.68 29.42 2.12L29.42 2.12L30.27 2.12Q30.26 3.04 29.91 3.54Q29.56 4.05 28.94 4.05L28.94 4.05Q28.68 4.05 28.46 3.95Q28.24 3.86 27.99 3.63ZM32.50 5.58L32.50 2.72L35.98 2.72L35.98 3.37L33.31 3.37L33.31 4.76Q33.50 4.70 33.70 4.68L33.70 4.68Q33.89 4.65 34.08 4.65L34.08 4.65Q35.18 4.65 35.83 5.17L35.83 5.17Q36.47 5.69 36.47 6.59L36.47 6.59Q36.47 7.51 35.81 8.03L35.81 8.03Q35.15 8.53 33.95 8.53L33.95 8.53Q33.54 8.53 33.11 8.47Q32.68 8.41 32.22 8.29L32.22 8.29L32.22 7.51Q32.61 7.70 33.04 7.79L33.04 7.79Q33.46 7.88 33.93 7.88L33.93 7.88Q34.69 7.88 35.14 7.53Q35.58 7.18 35.58 6.59Q35.58 6.00 35.14 5.65Q34.69 5.30 33.93 5.30L33.93 5.30Q33.58 5.30 33.22 5.37Q32.87 5.43 32.50 5.58L32.50 5.58ZM40.72 5.34L40.72 5.34Q41.35 5.46 41.70 5.83Q42.04 6.21 42.04 6.77L42.04 6.77Q42.04 7.62 41.39 8.07Q40.74 8.53 39.53 8.53L39.53 8.53Q39.14 8.53 38.72 8.46Q38.29 8.39 37.81 8.25L37.81 8.25L37.81 7.42Q38.17 7.61 38.57 7.70Q38.98 7.79 39.44 7.79L39.44 7.79Q40.18 7.79 40.59 7.52Q41.00 7.25 41.00 6.77L41.00 6.77Q41.00 6.26 40.62 6.00Q40.24 5.74 39.50 5.74L39.50 5.74L38.92 5.74L38.92 5.00L39.56 5.00Q40.20 5.00 40.53 4.79Q40.87 4.57 40.87 4.16L40.87 4.16Q40.87 3.77 40.52 3.56Q40.18 3.35 39.53 3.35L39.53 3.35Q39.26 3.35 38.91 3.41Q38.56 3.47 38.01 3.63L38.01 3.63L38.01 2.84Q38.51 2.73 38.94 2.67Q39.38 2.60 39.76 2.60L39.76 2.60Q40.74 2.60 41.32 3.01Q41.90 3.41 41.90 4.09L41.90 4.09Q41.90 4.56 41.59 4.89Q41.28 5.22 40.72 5.34Z"></path></svg>