<svg height="16.296875" width="48.3642578125" xmlns="http://www.w3.org/2000/svg" ><path d="M1.27 13.00L1.27 2.36L2.54 2.36L2.54 8.64L6.29 5.34L7.90 5.34L3.83 8.92L8.07 13.00L6.43 13.00L2.54 9.26L2.54 13.00L1.27 13.00ZM12.95 5.84L12.95 5.84L12.95 8.43L12.15 8.43L12.15 5.87Q12.15 5.26 11.89 4.95Q11.62 4.65 11.09 4.65L11.09 4.65Q10.45 4.65 10.08 5.01Q9.71 5.38 9.71 6.01L9.71 6.01L9.71 8.43L8.91 8.43L8.91 2.47L9.71 2.47L9.71 4.81Q9.99 4.42 10.37 4.23Q10.76 4.04 11.27 4.04L11.27 4.04Q12.09 4.04 12.52 4.50Q12.95 4.96 12.95 5.84ZM14.96 9.97L14.96 9.97L14.96 5.34L16.21 5.34L16.21 9.93Q16.21 11.01 16.64 11.56Q17.06 12.10 17.91 12.10L17.91 12.10Q18.93 12.10 19.52 11.45Q20.11 10.80 20.11 9.68L20.11 9.68L20.11 5.34L21.37 5.34L21.37 13.00L20.11 13.00L20.11 11.82Q19.65 12.52 19.05 12.85Q18.44 13.19 17.64 13.19L17.64 13.19Q16.32 13.19 15.64 12.37Q14.96 11.55 14.96 9.97ZM18.12 5.15L18.12 5.15ZM29.00 6.50L29.00 6.50L29.00 5.34L30.26 5.34L30.26 13.00L29.00 13.00L29.00 11.85Q28.60 12.53 28.00 12.86Q27.39 13.19 26.54 13.19L26.54 13.19Q25.16 13.19 24.28 12.09Q23.41 10.98 23.41 9.17L23.41 9.17Q23.41 7.37 24.28 6.26Q25.16 5.15 26.54 5.15L26.54 5.15Q27.39 5.15 28.00 5.49Q28.60 5.82 29.00 6.50ZM24.71 9.17L24.71 9.17Q24.71 10.56 25.28 11.35Q25.85 12.14 26.85 12.14L26.85 12.14Q27.85 12.14 28.42 11.35Q29.00 10.56 29.00 9.17L29.00 9.17Q29.00 7.79 28.42 7.00Q27.85 6.21 26.85 6.21L26.85 6.21Q25.85 6.21 25.28 7.00Q24.71 7.79 24.71 9.17ZM27.99 3.63L27.99 3.63L27.60 3.25Q27.45 3.12 27.33 3.05Q27.22 2.99 27.13 2.99L27.13 2.99Q26.87 2.99 26.75 3.24Q26.63 3.49 26.61 4.05L26.61 4.05L25.76 4.05Q25.77 3.12 26.12 2.62Q26.47 2.12 27.09 2.12L27.09 2.12Q27.35 2.12 27.57 2.21Q27.79 2.31 28.04 2.54L28.04 2.54L28.43 2.91Q28.58 3.05 28.69 3.11Q28.81 3.18 28.90 3.18L28.90 3.18Q29.16 3.18 29.28 2.93Q29.40 2.68 29.42 2.12L29.42 2.12L30.27 2.12Q30.26 3.04 29.91 3.54Q29.56 4.05 28.94 4.05L28.94 4.05Q28.68 4.05 28.46 3.95Q28.24 3.86 27.99 3.63ZM35.11 5.34L35.11 5.34Q35.74 5.46 36.08 5.83Q36.43 6.21 36.43 6.77L36.43 6.77Q36.43 7.62 35.78 8.07Q35.13 8.53 33.92 8.53L33.92 8.53Q33.53 8.53 33.10 8.46Q32.68 8.39 32.20 8.25L32.20 8.25L32.20 7.42Q32.55 7.61 32.96 7.70Q33.37 7.79 33.82 7.79L33.82 7.79Q34.57 7.79 34.98 7.52Q35.39 7.25 35.39 6.77L35.39 6.77Q35.39 6.26 35.01 6.00Q34.63 5.74 33.89 5.74L33.89 5.74L33.30 5.74L33.30 5.00L33.95 5.00Q34.59 5.00 34.92 4.79Q35.25 4.57 35.25 4.16L35.25 4.16Q35.25 3.77 34.91 3.56Q34.57 3.35 33.92 3.35L33.92 3.35Q33.65 3.35 33.30 3.41Q32.95 3.47 32.40 3.63L32.40 3.63L32.40 2.84Q32.89 2.73 33.33 2.67Q33.77 2.60 34.15 2.60L34.15 2.60Q35.13 2.60 35.71 3.01Q36.29 3.41 36.29 4.09L36.29 4.09Q36.29 4.56 35.98 4.89Q35.67 5.22 35.11 5.34ZM40.72 5.34L40.72 5.34Q41.35 5.46 41.70 5.83Q42.04 6.21 42.04 6.77L42.04 6.77Q42.04 7.62 41.39 8.07Q40.74 8.53 39.53 8.53L39.53 8.53Q39.14 8.53 38.72 8.46Q38.29 8.39 37.81 8.25L37.81 8.25L37.81 7.42Q38.17 7.61 38.57 7.70Q38.98 7.79 39.44 7.79L39.44 7.79Q40.18 7.79 40.59 7.52Q41.00 7.25 41.00 6.77L41.00 6.77Q41.00 6.26 40.62 6.00Q40.24 5.74 39.50 5.74L39.50 5.74L38.92 5.74L38.92 5.00L39.56 5.00Q40.20 5.00 40.53 4.79Q40.87 4.57 40.87 4.16L40.87 4.16Q40.87 3.77 40.52 3.56Q40.18 3.35 39.53 3.35L39.53 3.35Q39.26 3.35 38.91 3.41Q38.56 3.47 38.01 3.63L38.01 3.63L38.01 2.84Q38.51 2.73 38.94 2.67Q39.38 2.60 39.76 2.60L39.76 2.60Q40.74 2.60 41.32 3.01Q41.90 3.41 41.90 4.09L41.90 4.09Q41.90 4.56 41.59 4.89Q41.28 5.22 40.72 5.34ZM46.01 6.41L46.01 3.55L43.90 6.41L46.01 6.41ZM43.18 6.33L45.86 2.72L47.00 2.72L47.00 6.41L47.92 6.41L47.92 7.16L47.00 7.16L47.00 8.43L46.01 8.43L46.01 7.16L43.18 7.16L43.18 6.33Z"></path></svg>