<svg height="16.296875" width="46.34765625" xmlns="http://www.w3.org/2000/svg" ><path d="M1.27 13.00L1.27 2.36L2.54 2.36L2.54 8.64L6.29 5.34L7.90 5.34L3.83 8.92L8.07 13.00L6.43 13.00L2.54 9.26L2.54 13.00L1.27 13.00ZM12.95 5.84L12.95 5.84L12.95 8.43L12.15 8.43L12.15 5.87Q12.15 5.26 11.89 4.95Q11.62 4.65 11.09 4.65L11.09 4.65Q10.45 4.65 10.08 5.01Q9.71 5.38 9.71 6.01L9.71 6.01L9.71 8.43L8.91 8.43L8.91 2.47L9.71 2.47L9.71 4.81Q9.99 4.42 10.37 4.23Q10.76 4.04 11.27 4.04L11.27 4.04Q12.09 4.04 12.52 4.50Q12.95 4.96 12.95 5.84ZM14.96 9.97L14.96 9.97L14.96 5.34L16.21 5.34L16.21 9.93Q16.21 11.01 16.64 11.56Q17.06 12.10 17.91 12.10L17.91 12.10Q18.93 12.10 19.52 11.45Q20.11 10.80 20.11 9.68L20.11 9.68L20.11 5.34L21.37 5.34L21.37 13.00L20.11 13.00L20.11 11.82Q19.65 12.52 19.05 12.85Q18.44 13.19 17.64 13.19L17.64 13.19Q16.32 13.19 15.64 12.37Q14.96 11.55 14.96 9.97ZM18.12 5.15L18.12 5.15ZM23.91 13.00L23.91 5.34L28.75 5.34L28.75 6.35L25.18 6.35L25.18 8.41L28.59 8.41L28.59 9.42L25.18 9.42L25.18 11.99L28.84 11.99L28.84 13.00L23.91 13.00ZM33.09 5.34L33.09 5.34Q33.72 5.46 34.07 5.83Q34.41 6.21 34.41 6.77L34.41 6.77Q34.41 7.62 33.76 8.07Q33.11 8.53 31.90 8.53L31.90 8.53Q31.51 8.53 31.09 8.46Q30.66 8.39 30.18 8.25L30.18 8.25L30.18 7.42Q30.54 7.61 30.94 7.70Q31.35 7.79 31.81 7.79L31.81 7.79Q32.55 7.79 32.96 7.52Q33.37 7.25 33.37 6.77L33.37 6.77Q33.37 6.26 32.99 6.00Q32.61 5.74 31.88 5.74L31.88 5.74L31.29 5.74L31.29 5.00L31.93 5.00Q32.57 5.00 32.90 4.79Q33.24 4.57 33.24 4.16L33.24 4.16Q33.24 3.77 32.89 3.56Q32.55 3.35 31.90 3.35L31.90 3.35Q31.63 3.35 31.28 3.41Q30.93 3.47 30.38 3.63L30.38 3.63L30.38 2.84Q30.88 2.73 31.32 2.67Q31.75 2.60 32.13 2.60L32.13 2.60Q33.11 2.60 33.69 3.01Q34.27 3.41 34.27 4.09L34.27 4.09Q34.27 4.56 33.96 4.89Q33.65 5.22 33.09 5.34ZM38.71 5.34L38.71 5.34Q39.33 5.46 39.68 5.83Q40.02 6.21 40.02 6.77L40.02 6.77Q40.02 7.62 39.38 8.07Q38.73 8.53 37.52 8.53L37.52 8.53Q37.13 8.53 36.70 8.46Q36.27 8.39 35.79 8.25L35.79 8.25L35.79 7.42Q36.15 7.61 36.56 7.70Q36.96 7.79 37.42 7.79L37.42 7.79Q38.17 7.79 38.58 7.52Q38.99 7.25 38.99 6.77L38.99 6.77Q38.99 6.26 38.61 6.00Q38.23 5.74 37.49 5.74L37.49 5.74L36.90 5.74L36.90 5.00L37.54 5.00Q38.19 5.00 38.52 4.79Q38.85 4.57 38.85 4.16L38.85 4.16Q38.85 3.77 38.51 3.56Q38.17 3.35 37.52 3.35L37.52 3.35Q37.24 3.35 36.89 3.41Q36.54 3.47 35.99 3.63L35.99 3.63L35.99 2.84Q36.49 2.73 36.93 2.67Q37.37 2.60 37.74 2.60L37.74 2.60Q38.73 2.60 39.30 3.01Q39.88 3.41 39.88 4.09L39.88 4.09Q39.88 4.56 39.57 4.89Q39.27 5.22 38.71 5.34ZM44.00 6.41L44.00 3.55L41.88 6.41L44.00 6.41ZM41.17 6.33L43.85 2.72L44.98 2.72L44.98 6.41L45.90 6.41L45.90 7.16L44.98 7.16L44.98 8.43L44.00 8.43L44.00 7.16L41.17 7.16L41.17 6.33Z"></path></svg>