<svg height="16.296875" width="49.6220703125" xmlns="http://www.w3.org/2000/svg" ><path d="M1.27 13.00L1.27 2.36L2.54 2.36L2.54 8.64L6.29 5.34L7.90 5.34L3.83 8.92L8.07 13.00L6.43 13.00L2.54 9.26L2.54 13.00L1.27 13.00ZM12.95 5.84L12.95 5.84L12.95 8.43L12.15 8.43L12.15 5.87Q12.15 5.26 11.89 4.95Q11.62 4.65 11.09 4.65L11.09 4.65Q10.45 4.65 10.08 5.01Q9.71 5.38 9.71 6.01L9.71 6.01L9.71 8.43L8.91 8.43L8.91 2.47L9.71 2.47L9.71 4.81Q9.99 4.42 10.37 4.23Q10.76 4.04 11.27 4.04L11.27 4.04Q12.09 4.04 12.52 4.50Q12.95 4.96 12.95 5.84ZM14.96 9.97L14.96 9.97L14.96 5.34L16.21 5.34L16.21 9.93Q16.21 11.01 16.64 11.56Q17.06 12.10 17.91 12.10L17.91 12.10Q18.93 12.10 19.52 11.45Q20.11 10.80 20.11 9.68L20.11 9.68L20.11 5.34L21.37 5.34L21.37 13.00L20.11 13.00L20.11 11.82Q19.65 12.52 19.05 12.85Q18.44 13.19 17.64 13.19L17.64 13.19Q16.32 13.19 15.64 12.37Q14.96 11.55 14.96 9.97ZM18.12 5.15L18.12 5.15ZM23.41 9.50L23.41 9.50L23.41 8.88L29.20 8.88Q29.11 7.58 28.41 6.90Q27.71 6.22 26.46 6.22L26.46 6.22Q25.74 6.22 25.06 6.40Q24.38 6.58 23.71 6.93L23.71 6.93L23.71 5.74Q24.38 5.46 25.09 5.30Q25.81 5.15 26.54 5.15L26.54 5.15Q28.37 5.15 29.44 6.22Q30.51 7.29 30.51 9.11L30.51 9.11Q30.51 10.99 29.49 12.09Q28.48 13.19 26.76 13.19L26.76 13.19Q25.21 13.19 24.31 12.20Q23.41 11.20 23.41 9.50ZM29.16 9.86L24.67 9.86Q24.68 10.90 25.25 11.51Q25.81 12.13 26.74 12.13L26.74 12.13Q27.79 12.13 28.43 11.53Q29.06 10.94 29.16 9.86L29.16 9.86ZM33.58 13.00L33.58 7.54L34.01 7.54Q35.32 7.54 35.91 6.76L35.91 6.76Q36.31 6.24 36.31 5.57L36.31 5.57Q36.30 4.66 35.91 4.22L35.91 4.22Q35.23 3.44 34.01 3.44L34.01 3.44Q33.46 3.44 32.92 3.59L32.92 3.59Q32.39 3.73 31.86 4.03L31.86 4.03L31.86 2.85Q32.38 2.61 32.93 2.50L32.93 2.50Q33.48 2.37 34.06 2.37L34.06 2.37Q35.94 2.37 36.89 3.45L36.89 3.45Q37.63 4.30 37.63 5.57L37.63 5.57Q37.63 6.73 36.89 7.52L36.89 7.52Q36.13 8.33 34.97 8.54L34.97 8.54L34.97 13.00L33.58 13.00ZM39.37 5.58L39.37 2.72L42.85 2.72L42.85 3.37L40.18 3.37L40.18 4.76Q40.37 4.70 40.57 4.68L40.57 4.68Q40.76 4.65 40.95 4.65L40.95 4.65Q42.05 4.65 42.70 5.17L42.70 5.17Q43.34 5.69 43.34 6.59L43.34 6.59Q43.34 7.51 42.68 8.03L42.68 8.03Q42.02 8.53 40.82 8.53L40.82 8.53Q40.41 8.53 39.98 8.47Q39.55 8.41 39.09 8.29L39.09 8.29L39.09 7.51Q39.48 7.70 39.91 7.79L39.91 7.79Q40.33 7.88 40.80 7.88L40.80 7.88Q41.56 7.88 42.01 7.53Q42.45 7.18 42.45 6.59Q42.45 6.00 42.01 5.65Q41.56 5.30 40.80 5.30L40.80 5.30Q40.45 5.30 40.09 5.37Q39.74 5.43 39.37 5.58L39.37 5.58ZM44.98 5.58L44.98 2.72L48.47 2.72L48.47 3.37L45.79 3.37L45.79 4.76Q45.99 4.70 46.18 4.68L46.18 4.68Q46.38 4.65 46.57 4.65L46.57 4.65Q47.67 4.65 48.31 5.17L48.31 5.17Q48.95 5.69 48.95 6.59L48.95 6.59Q48.95 7.51 48.29 8.03L48.29 8.03Q47.63 8.53 46.43 8.53L46.43 8.53Q46.02 8.53 45.59 8.47Q45.16 8.41 44.71 8.29L44.71 8.29L44.71 7.51Q45.10 7.70 45.52 7.79L45.52 7.79Q45.94 7.88 46.42 7.88L46.42 7.88Q47.17 7.88 47.62 7.53Q48.06 7.18 48.06 6.59Q48.06 6.00 47.62 5.65Q47.17 5.30 46.42 5.30L46.42 5.30Q46.06 5.30 45.71 5.37Q45.35 5.43 44.98 5.58L44.98 5.58Z"></path></svg>