<svg height="16.296875" width="51.3515625" xmlns="http://www.w3.org/2000/svg" ><path d="M1.27 13.00L1.27 2.36L2.54 2.36L2.54 8.64L6.29 5.34L7.90 5.34L3.83 8.92L8.07 13.00L6.43 13.00L2.54 9.26L2.54 13.00L1.27 13.00ZM12.95 5.84L12.95 5.84L12.95 8.43L12.15 8.43L12.15 5.87Q12.15 5.26 11.89 4.95Q11.62 4.65 11.09 4.65L11.09 4.65Q10.45 4.65 10.08 5.01Q9.71 5.38 9.71 6.01L9.71 6.01L9.71 8.43L8.91 8.43L8.91 2.47L9.71 2.47L9.71 4.81Q9.99 4.42 10.37 4.23Q10.76 4.04 11.27 4.04L11.27 4.04Q12.09 4.04 12.52 4.50Q12.95 4.96 12.95 5.84ZM14.96 9.97L14.96 9.97L14.96 5.34L16.21 5.34L16.21 9.93Q16.21 11.01 16.64 11.56Q17.06 12.10 17.91 12.10L17.91 12.10Q18.93 12.10 19.52 11.45Q20.11 10.80 20.11 9.68L20.11 9.68L20.11 5.34L21.37 5.34L21.37 13.00L20.11 13.00L20.11 11.82Q19.65 12.52 19.05 12.85Q18.44 13.19 17.64 13.19L17.64 13.19Q16.32 13.19 15.64 12.37Q14.96 11.55 14.96 9.97ZM18.12 5.15L18.12 5.15ZM23.41 9.50L23.41 9.50L23.41 8.88L29.20 8.88Q29.11 7.58 28.41 6.90Q27.71 6.22 26.46 6.22L26.46 6.22Q25.74 6.22 25.06 6.40Q24.38 6.58 23.71 6.93L23.71 6.93L23.71 5.74Q24.38 5.46 25.09 5.30Q25.81 5.15 26.54 5.15L26.54 5.15Q28.37 5.15 29.44 6.22Q30.51 7.29 30.51 9.11L30.51 9.11Q30.51 10.99 29.49 12.09Q28.48 13.19 26.76 13.19L26.76 13.19Q25.21 13.19 24.31 12.20Q23.41 11.20 23.41 9.50ZM29.16 9.86L24.67 9.86Q24.68 10.90 25.25 11.51Q25.81 12.13 26.74 12.13L26.74 12.13Q27.79 12.13 28.43 11.53Q29.06 10.94 29.16 9.86L29.16 9.86ZM38.94 8.37L38.94 8.37L38.94 13.00L37.68 13.00L37.68 8.42Q37.68 7.33 37.26 6.79Q36.83 6.25 35.98 6.25L35.98 6.25Q34.97 6.25 34.38 6.90Q33.79 7.55 33.79 8.67L33.79 8.67L33.79 13.00L32.53 13.00L32.53 5.34L33.79 5.34L33.79 6.53Q34.24 5.84 34.85 5.50Q35.46 5.15 36.26 5.15L36.26 5.15Q37.58 5.15 38.26 5.97Q38.94 6.79 38.94 8.37ZM41.10 5.58L41.10 2.72L44.58 2.72L44.58 3.37L41.91 3.37L41.91 4.76Q42.10 4.70 42.30 4.68L42.30 4.68Q42.49 4.65 42.68 4.65L42.68 4.65Q43.78 4.65 44.43 5.17L44.43 5.17Q45.07 5.69 45.07 6.59L45.07 6.59Q45.07 7.51 44.41 8.03L44.41 8.03Q43.75 8.53 42.55 8.53L42.55 8.53Q42.14 8.53 41.71 8.47Q41.28 8.41 40.82 8.29L40.82 8.29L40.82 7.51Q41.21 7.70 41.64 7.79L41.64 7.79Q42.06 7.88 42.53 7.88L42.53 7.88Q43.29 7.88 43.74 7.53Q44.18 7.18 44.18 6.59Q44.18 6.00 43.74 5.65Q43.29 5.30 42.53 5.30L42.53 5.30Q42.18 5.30 41.82 5.37Q41.47 5.43 41.10 5.58L41.10 5.58ZM49.32 5.34L49.32 5.34Q49.95 5.46 50.30 5.83Q50.64 6.21 50.64 6.77L50.64 6.77Q50.64 7.62 49.99 8.07Q49.34 8.53 48.13 8.53L48.13 8.53Q47.74 8.53 47.31 8.46Q46.89 8.39 46.41 8.25L46.41 8.25L46.41 7.42Q46.76 7.61 47.17 7.70Q47.58 7.79 48.04 7.79L48.04 7.79Q48.78 7.79 49.19 7.52Q49.60 7.25 49.60 6.77L49.60 6.77Q49.60 6.26 49.22 6.00Q48.84 5.74 48.10 5.74L48.10 5.74L47.52 5.74L47.52 5.00L48.16 5.00Q48.80 5.00 49.13 4.79Q49.46 4.57 49.46 4.16L49.46 4.16Q49.46 3.77 49.12 3.56Q48.78 3.35 48.13 3.35L48.13 3.35Q47.86 3.35 47.51 3.41Q47.16 3.47 46.61 3.63L46.61 3.63L46.61 2.84Q47.11 2.73 47.54 2.67Q47.98 2.60 48.36 2.60L48.36 2.60Q49.34 2.60 49.92 3.01Q50.50 3.41 50.50 4.09L50.50 4.09Q50.50 4.56 50.19 4.89Q49.88 5.22 49.32 5.34Z"></path></svg>