<svg height="16.296875" width="40.7353515625" xmlns="http://www.w3.org/2000/svg" ><path d="M1.27 13.00L1.27 2.36L2.54 2.36L2.54 8.64L6.29 5.34L7.90 5.34L3.83 8.92L8.07 13.00L6.43 13.00L2.54 9.26L2.54 13.00L1.27 13.00ZM12.95 5.84L12.95 5.84L12.95 8.43L12.15 8.43L12.15 5.87Q12.15 5.26 11.89 4.95Q11.62 4.65 11.09 4.65L11.09 4.65Q10.45 4.65 10.08 5.01Q9.71 5.38 9.71 6.01L9.71 6.01L9.71 8.43L8.91 8.43L8.91 2.47L9.71 2.47L9.71 4.81Q9.99 4.42 10.37 4.23Q10.76 4.04 11.27 4.04L11.27 4.04Q12.09 4.04 12.52 4.50Q12.95 4.96 12.95 5.84ZM14.96 9.97L14.96 9.97L14.96 5.34L16.21 5.34L16.21 9.93Q16.21 11.01 16.64 11.56Q17.06 12.10 17.91 12.10L17.91 12.10Q18.93 12.10 19.52 11.45Q20.11 10.80 20.11 9.68L20.11 9.68L20.11 5.34L21.37 5.34L21.37 13.00L20.11 13.00L20.11 11.82Q19.65 12.52 19.05 12.85Q18.44 13.19 17.64 13.19L17.64 13.19Q16.32 13.19 15.64 12.37Q14.96 11.55 14.96 9.97ZM18.12 5.15L18.12 5.15ZM23.91 13.00L23.91 5.34L28.75 5.34L28.75 6.35L25.18 6.35L25.18 8.41L28.59 8.41L28.59 9.42L25.18 9.42L25.18 11.99L28.84 11.99L28.84 13.00L23.91 13.00ZM30.48 5.58L30.48 2.72L33.97 2.72L33.97 3.37L31.29 3.37L31.29 4.76Q31.49 4.70 31.68 4.68L31.68 4.68Q31.88 4.65 32.07 4.65L32.07 4.65Q33.17 4.65 33.81 5.17L33.81 5.17Q34.45 5.69 34.45 6.59L34.45 6.59Q34.45 7.51 33.79 8.03L33.79 8.03Q33.13 8.53 31.93 8.53L31.93 8.53Q31.52 8.53 31.09 8.47Q30.66 8.41 30.21 8.29L30.21 8.29L30.21 7.51Q30.60 7.70 31.02 7.79L31.02 7.79Q31.45 7.88 31.92 7.88L31.92 7.88Q32.68 7.88 33.12 7.53Q33.56 7.18 33.56 6.59Q33.56 6.00 33.12 5.65Q32.68 5.30 31.92 5.30L31.92 5.30Q31.56 5.30 31.21 5.37Q30.85 5.43 30.48 5.58L30.48 5.58ZM38.71 5.34L38.71 5.34Q39.33 5.46 39.68 5.83Q40.02 6.21 40.02 6.77L40.02 6.77Q40.02 7.62 39.38 8.07Q38.73 8.53 37.52 8.53L37.52 8.53Q37.13 8.53 36.70 8.46Q36.27 8.39 35.79 8.25L35.79 8.25L35.79 7.42Q36.15 7.61 36.56 7.70Q36.96 7.79 37.42 7.79L37.42 7.79Q38.17 7.79 38.58 7.52Q38.99 7.25 38.99 6.77L38.99 6.77Q38.99 6.26 38.61 6.00Q38.23 5.74 37.49 5.74L37.49 5.74L36.90 5.74L36.90 5.00L37.54 5.00Q38.19 5.00 38.52 4.79Q38.85 4.57 38.85 4.16L38.85 4.16Q38.85 3.77 38.51 3.56Q38.17 3.35 37.52 3.35L37.52 3.35Q37.24 3.35 36.89 3.41Q36.54 3.47 35.99 3.63L35.99 3.63L35.99 2.84Q36.49 2.73 36.93 2.67Q37.37 2.60 37.74 2.60L37.74 2.60Q38.73 2.60 39.30 3.01Q39.88 3.41 39.88 4.09L39.88 4.09Q39.88 4.56 39.57 4.89Q39.27 5.22 38.71 5.34Z"></path></svg>