<svg height="16.296875" width="42.4306640625" xmlns="http://www.w3.org/2000/svg" ><path d="M1.27 13.00L1.27 2.36L2.54 2.36L2.54 8.64L6.29 5.34L7.90 5.34L3.83 8.92L8.07 13.00L6.43 13.00L2.54 9.26L2.54 13.00L1.27 13.00ZM12.95 5.84L12.95 5.84L12.95 8.43L12.15 8.43L12.15 5.87Q12.15 5.26 11.89 4.95Q11.62 4.65 11.09 4.65L11.09 4.65Q10.45 4.65 10.08 5.01Q9.71 5.38 9.71 6.01L9.71 6.01L9.71 8.43L8.91 8.43L8.91 2.47L9.71 2.47L9.71 4.81Q9.99 4.42 10.37 4.23Q10.76 4.04 11.27 4.04L11.27 4.04Q12.09 4.04 12.52 4.50Q12.95 4.96 12.95 5.84ZM14.96 9.97L14.96 9.97L14.96 5.34L16.21 5.34L16.21 9.93Q16.21 11.01 16.64 11.56Q17.06 12.10 17.91 12.10L17.91 12.10Q18.93 12.10 19.52 11.45Q20.11 10.80 20.11 9.68L20.11 9.68L20.11 5.34L21.37 5.34L21.37 13.00L20.11 13.00L20.11 11.82Q19.65 12.52 19.05 12.85Q18.44 13.19 17.64 13.19L17.64 13.19Q16.32 13.19 15.64 12.37Q14.96 11.55 14.96 9.97ZM18.12 5.15L18.12 5.15ZM28.83 7.52L28.83 7.52L25.50 11.57Q25.78 11.85 26.13 11.99Q26.48 12.13 26.93 12.13L26.93 12.13Q27.93 12.13 28.52 11.33Q29.11 10.54 29.11 9.17L29.11 9.17Q29.11 8.63 29.04 8.23Q28.97 7.83 28.83 7.52ZM25.01 10.83L28.34 6.78Q28.05 6.50 27.70 6.36Q27.35 6.22 26.93 6.22L26.93 6.22Q25.89 6.22 25.32 7.02Q24.74 7.83 24.74 9.27L24.74 9.27Q24.74 9.76 24.80 10.14Q24.87 10.51 25.01 10.83L25.01 10.83ZM23.13 13.10L24.15 11.86Q23.78 11.33 23.60 10.66Q23.41 9.99 23.41 9.17L23.41 9.17Q23.41 7.29 24.35 6.22Q25.28 5.15 26.93 5.15L26.93 5.15Q27.56 5.15 28.11 5.33Q28.65 5.50 29.11 5.86L29.11 5.86L30.06 4.71L30.71 5.25L29.71 6.47Q30.07 7 30.26 7.68Q30.44 8.35 30.44 9.17L30.44 9.17Q30.44 11.05 29.50 12.12Q28.57 13.19 26.93 13.19L26.93 13.19Q26.27 13.19 25.72 13.02Q25.17 12.84 24.74 12.49L24.74 12.49L23.79 13.64L23.13 13.10ZM32.18 5.58L32.18 2.72L35.66 2.72L35.66 3.37L32.99 3.37L32.99 4.76Q33.18 4.70 33.38 4.68L33.38 4.68Q33.57 4.65 33.76 4.65L33.76 4.65Q34.86 4.65 35.51 5.17L35.51 5.17Q36.15 5.69 36.15 6.59L36.15 6.59Q36.15 7.51 35.49 8.03L35.49 8.03Q34.83 8.53 33.63 8.53L33.63 8.53Q33.22 8.53 32.79 8.47Q32.35 8.41 31.90 8.29L31.90 8.29L31.90 7.51Q32.29 7.70 32.72 7.79L32.72 7.79Q33.14 7.88 33.61 7.88L33.61 7.88Q34.37 7.88 34.82 7.53Q35.26 7.18 35.26 6.59Q35.26 6.00 34.82 5.65Q34.37 5.30 33.61 5.30L33.61 5.30Q33.26 5.30 32.90 5.37Q32.55 5.43 32.18 5.58L32.18 5.58ZM40.40 5.34L40.40 5.34Q41.03 5.46 41.37 5.83Q41.72 6.21 41.72 6.77L41.72 6.77Q41.72 7.62 41.07 8.07Q40.42 8.53 39.21 8.53L39.21 8.53Q38.82 8.53 38.39 8.46Q37.97 8.39 37.49 8.25L37.49 8.25L37.49 7.42Q37.84 7.61 38.25 7.70Q38.66 7.79 39.12 7.79L39.12 7.79Q39.86 7.79 40.27 7.52Q40.68 7.25 40.68 6.77L40.68 6.77Q40.68 6.26 40.30 6.00Q39.92 5.74 39.18 5.74L39.18 5.74L38.60 5.74L38.60 5.00L39.24 5.00Q39.88 5.00 40.21 4.79Q40.54 4.57 40.54 4.16L40.54 4.16Q40.54 3.77 40.20 3.56Q39.86 3.35 39.21 3.35L39.21 3.35Q38.94 3.35 38.59 3.41Q38.24 3.47 37.69 3.63L37.69 3.63L37.69 2.84Q38.19 2.73 38.62 2.67Q39.06 2.60 39.44 2.60L39.44 2.60Q40.42 2.60 41.00 3.01Q41.58 3.41 41.58 4.09L41.58 4.09Q41.58 4.56 41.27 4.89Q40.96 5.22 40.40 5.34Z"></path></svg>