<svg height="16.296875" width="48.04296875" xmlns="http://www.w3.org/2000/svg" ><path d="M1.27 13.00L1.27 2.36L2.54 2.36L2.54 8.64L6.29 5.34L7.90 5.34L3.83 8.92L8.07 13.00L6.43 13.00L2.54 9.26L2.54 13.00L1.27 13.00ZM12.95 5.84L12.95 5.84L12.95 8.43L12.15 8.43L12.15 5.87Q12.15 5.26 11.89 4.95Q11.62 4.65 11.09 4.65L11.09 4.65Q10.45 4.65 10.08 5.01Q9.71 5.38 9.71 6.01L9.71 6.01L9.71 8.43L8.91 8.43L8.91 2.47L9.71 2.47L9.71 4.81Q9.99 4.42 10.37 4.23Q10.76 4.04 11.27 4.04L11.27 4.04Q12.09 4.04 12.52 4.50Q12.95 4.96 12.95 5.84ZM14.96 9.97L14.96 9.97L14.96 5.34L16.21 5.34L16.21 9.93Q16.21 11.01 16.64 11.56Q17.06 12.10 17.91 12.10L17.91 12.10Q18.93 12.10 19.52 11.45Q20.11 10.80 20.11 9.68L20.11 9.68L20.11 5.34L21.37 5.34L21.37 13.00L20.11 13.00L20.11 11.82Q19.65 12.52 19.05 12.85Q18.44 13.19 17.64 13.19L17.64 13.19Q16.32 13.19 15.64 12.37Q14.96 11.55 14.96 9.97ZM18.12 5.15L18.12 5.15ZM28.83 7.52L28.83 7.52L25.50 11.57Q25.78 11.85 26.13 11.99Q26.48 12.13 26.93 12.13L26.93 12.13Q27.93 12.13 28.52 11.33Q29.11 10.54 29.11 9.17L29.11 9.17Q29.11 8.63 29.04 8.23Q28.97 7.83 28.83 7.52ZM25.01 10.83L28.34 6.78Q28.05 6.50 27.70 6.36Q27.35 6.22 26.93 6.22L26.93 6.22Q25.89 6.22 25.32 7.02Q24.74 7.83 24.74 9.27L24.74 9.27Q24.74 9.76 24.80 10.14Q24.87 10.51 25.01 10.83L25.01 10.83ZM23.13 13.10L24.15 11.86Q23.78 11.33 23.60 10.66Q23.41 9.99 23.41 9.17L23.41 9.17Q23.41 7.29 24.35 6.22Q25.28 5.15 26.93 5.15L26.93 5.15Q27.56 5.15 28.11 5.33Q28.65 5.50 29.11 5.86L29.11 5.86L30.06 4.71L30.71 5.25L29.71 6.47Q30.07 7 30.26 7.68Q30.44 8.35 30.44 9.17L30.44 9.17Q30.44 11.05 29.50 12.12Q28.57 13.19 26.93 13.19L26.93 13.19Q26.27 13.19 25.72 13.02Q25.17 12.84 24.74 12.49L24.74 12.49L23.79 13.64L23.13 13.10ZM34.79 5.34L34.79 5.34Q35.42 5.46 35.76 5.83Q36.11 6.21 36.11 6.77L36.11 6.77Q36.11 7.62 35.46 8.07Q34.81 8.53 33.60 8.53L33.60 8.53Q33.21 8.53 32.78 8.46Q32.35 8.39 31.88 8.25L31.88 8.25L31.88 7.42Q32.23 7.61 32.64 7.70Q33.04 7.79 33.50 7.79L33.50 7.79Q34.25 7.79 34.66 7.52Q35.07 7.25 35.07 6.77L35.07 6.77Q35.07 6.26 34.69 6.00Q34.31 5.74 33.57 5.74L33.57 5.74L32.98 5.74L32.98 5.00L33.63 5.00Q34.27 5.00 34.60 4.79Q34.93 4.57 34.93 4.16L34.93 4.16Q34.93 3.77 34.59 3.56Q34.25 3.35 33.60 3.35L33.60 3.35Q33.33 3.35 32.98 3.41Q32.63 3.47 32.07 3.63L32.07 3.63L32.07 2.84Q32.57 2.73 33.01 2.67Q33.45 2.60 33.82 2.60L33.82 2.60Q34.81 2.60 35.39 3.01Q35.96 3.41 35.96 4.09L35.96 4.09Q35.96 4.56 35.66 4.89Q35.35 5.22 34.79 5.34ZM40.40 5.34L40.40 5.34Q41.03 5.46 41.37 5.83Q41.72 6.21 41.72 6.77L41.72 6.77Q41.72 7.62 41.07 8.07Q40.42 8.53 39.21 8.53L39.21 8.53Q38.82 8.53 38.39 8.46Q37.97 8.39 37.49 8.25L37.49 8.25L37.49 7.42Q37.84 7.61 38.25 7.70Q38.66 7.79 39.12 7.79L39.12 7.79Q39.86 7.79 40.27 7.52Q40.68 7.25 40.68 6.77L40.68 6.77Q40.68 6.26 40.30 6.00Q39.92 5.74 39.18 5.74L39.18 5.74L38.60 5.74L38.60 5.00L39.24 5.00Q39.88 5.00 40.21 4.79Q40.54 4.57 40.54 4.16L40.54 4.16Q40.54 3.77 40.20 3.56Q39.86 3.35 39.21 3.35L39.21 3.35Q38.94 3.35 38.59 3.41Q38.24 3.47 37.69 3.63L37.69 3.63L37.69 2.84Q38.19 2.73 38.62 2.67Q39.06 2.60 39.44 2.60L39.44 2.60Q40.42 2.60 41.00 3.01Q41.58 3.41 41.58 4.09L41.58 4.09Q41.58 4.56 41.27 4.89Q40.96 5.22 40.40 5.34ZM45.69 6.41L45.69 3.55L43.58 6.41L45.69 6.41ZM42.86 6.33L45.54 2.72L46.68 2.72L46.68 6.41L47.60 6.41L47.60 7.16L46.68 7.16L46.68 8.43L45.69 8.43L45.69 7.16L42.86 7.16L42.86 6.33Z"></path></svg>