<svg height="16.296875" width="33.509765625" xmlns="http://www.w3.org/2000/svg" ><path d="M1.27 13.00L1.27 2.36L2.54 2.36L2.54 8.64L6.29 5.34L7.90 5.34L3.83 8.92L8.07 13.00L6.43 13.00L2.54 9.26L2.54 13.00L1.27 13.00ZM12.39 6.22L12.39 6.22Q11.38 6.22 10.79 7.01Q10.21 7.80 10.21 9.17L10.21 9.17Q10.21 10.55 10.79 11.34Q11.38 12.13 12.39 12.13L12.39 12.13Q13.40 12.13 13.99 11.33Q14.57 10.54 14.57 9.17L14.57 9.17Q14.57 7.81 13.99 7.02Q13.40 6.22 12.39 6.22ZM12.39 5.15L12.39 5.15Q14.03 5.15 14.97 6.22Q15.91 7.29 15.91 9.17L15.91 9.17Q15.91 11.05 14.97 12.12Q14.03 13.19 12.39 13.19L12.39 13.19Q10.75 13.19 9.81 12.12Q8.88 11.05 8.88 9.17L8.88 9.17Q8.88 7.29 9.81 6.22Q10.75 5.15 12.39 5.15ZM20.25 5.34L20.25 5.34Q20.88 5.46 21.23 5.83Q21.57 6.21 21.57 6.77L21.57 6.77Q21.57 7.62 20.92 8.07Q20.28 8.53 19.07 8.53L19.07 8.53Q18.68 8.53 18.25 8.46Q17.82 8.39 17.34 8.25L17.34 8.25L17.34 7.42Q17.70 7.61 18.10 7.70Q18.51 7.79 18.97 7.79L18.97 7.79Q19.71 7.79 20.13 7.52Q20.54 7.25 20.54 6.77L20.54 6.77Q20.54 6.26 20.16 6.00Q19.78 5.74 19.04 5.74L19.04 5.74L18.45 5.74L18.45 5.00L19.09 5.00Q19.74 5.00 20.07 4.79Q20.40 4.57 20.40 4.16L20.40 4.16Q20.40 3.77 20.06 3.56Q19.71 3.35 19.07 3.35L19.07 3.35Q18.79 3.35 18.44 3.41Q18.09 3.47 17.54 3.63L17.54 3.63L17.54 2.84Q18.04 2.73 18.48 2.67Q18.92 2.60 19.29 2.60L19.29 2.60Q20.28 2.60 20.85 3.01Q21.43 3.41 21.43 4.09L21.43 4.09Q21.43 4.56 21.12 4.89Q20.82 5.22 20.25 5.34ZM25.87 5.34L25.87 5.34Q26.50 5.46 26.84 5.83Q27.19 6.21 27.19 6.77L27.19 6.77Q27.19 7.62 26.54 8.07Q25.89 8.53 24.68 8.53L24.68 8.53Q24.29 8.53 23.86 8.46Q23.43 8.39 22.96 8.25L22.96 8.25L22.96 7.42Q23.31 7.61 23.72 7.70Q24.12 7.79 24.58 7.79L24.58 7.79Q25.33 7.79 25.74 7.52Q26.15 7.25 26.15 6.77L26.15 6.77Q26.15 6.26 25.77 6.00Q25.39 5.74 24.65 5.74L24.65 5.74L24.06 5.74L24.06 5.00L24.71 5.00Q25.35 5.00 25.68 4.79Q26.01 4.57 26.01 4.16L26.01 4.16Q26.01 3.77 25.67 3.56Q25.33 3.35 24.68 3.35L24.68 3.35Q24.40 3.35 24.06 3.41Q23.71 3.47 23.15 3.63L23.15 3.63L23.15 2.84Q23.65 2.73 24.09 2.67Q24.53 2.60 24.90 2.60L24.90 2.60Q25.89 2.60 26.47 3.01Q27.04 3.41 27.04 4.09L27.04 4.09Q27.04 4.56 26.74 4.89Q26.43 5.22 25.87 5.34ZM31.16 6.41L31.16 3.55L29.05 6.41L31.16 6.41ZM28.33 6.33L31.01 2.72L32.14 2.72L32.14 6.41L33.07 6.41L33.07 7.16L32.14 7.16L32.14 8.43L31.16 8.43L31.16 7.16L28.33 7.16L28.33 6.33Z"></path></svg>