<svg height="16.296875" width="27.8974609375" xmlns="http://www.w3.org/2000/svg" ><path d="M1.27 13.00L1.27 2.36L2.54 2.36L2.54 8.64L6.29 5.34L7.90 5.34L3.83 8.92L8.07 13.00L6.43 13.00L2.54 9.26L2.54 13.00L1.27 13.00ZM14.29 7.52L14.29 7.52L10.96 11.57Q11.25 11.85 11.60 11.99Q11.95 12.13 12.39 12.13L12.39 12.13Q13.40 12.13 13.99 11.33Q14.57 10.54 14.57 9.17L14.57 9.17Q14.57 8.63 14.51 8.23Q14.44 7.83 14.29 7.52ZM10.47 10.83L13.81 6.78Q13.52 6.50 13.17 6.36Q12.82 6.22 12.39 6.22L12.39 6.22Q11.36 6.22 10.78 7.02Q10.21 7.83 10.21 9.27L10.21 9.27Q10.21 9.76 10.27 10.14Q10.34 10.51 10.47 10.83L10.47 10.83ZM8.60 13.10L9.62 11.86Q9.25 11.33 9.06 10.66Q8.88 9.99 8.88 9.17L8.88 9.17Q8.88 7.29 9.81 6.22Q10.75 5.15 12.39 5.15L12.39 5.15Q13.03 5.15 13.57 5.33Q14.12 5.50 14.57 5.86L14.57 5.86L15.52 4.71L16.17 5.25L15.18 6.47Q15.54 7 15.72 7.68Q15.91 8.35 15.91 9.17L15.91 9.17Q15.91 11.05 14.97 12.12Q14.03 13.19 12.39 13.19L12.39 13.19Q11.74 13.19 11.19 13.02Q10.64 12.84 10.21 12.49L10.21 12.49L9.26 13.64L8.60 13.10ZM17.64 5.58L17.64 2.72L21.13 2.72L21.13 3.37L18.46 3.37L18.46 4.76Q18.65 4.70 18.85 4.68L18.85 4.68Q19.04 4.65 19.23 4.65L19.23 4.65Q20.33 4.65 20.97 5.17L20.97 5.17Q21.62 5.69 21.62 6.59L21.62 6.59Q21.62 7.51 20.95 8.03L20.95 8.03Q20.30 8.53 19.09 8.53L19.09 8.53Q18.68 8.53 18.25 8.47Q17.82 8.41 17.37 8.29L17.37 8.29L17.37 7.51Q17.76 7.70 18.18 7.79L18.18 7.79Q18.61 7.88 19.08 7.88L19.08 7.88Q19.84 7.88 20.28 7.53Q20.73 7.18 20.73 6.59Q20.73 6.00 20.28 5.65Q19.84 5.30 19.08 5.30L19.08 5.30Q18.72 5.30 18.37 5.37Q18.01 5.43 17.64 5.58L17.64 5.58ZM25.87 5.34L25.87 5.34Q26.50 5.46 26.84 5.83Q27.19 6.21 27.19 6.77L27.19 6.77Q27.19 7.62 26.54 8.07Q25.89 8.53 24.68 8.53L24.68 8.53Q24.29 8.53 23.86 8.46Q23.43 8.39 22.96 8.25L22.96 8.25L22.96 7.42Q23.31 7.61 23.72 7.70Q24.12 7.79 24.58 7.79L24.58 7.79Q25.33 7.79 25.74 7.52Q26.15 7.25 26.15 6.77L26.15 6.77Q26.15 6.26 25.77 6.00Q25.39 5.74 24.65 5.74L24.65 5.74L24.06 5.74L24.06 5.00L24.71 5.00Q25.35 5.00 25.68 4.79Q26.01 4.57 26.01 4.16L26.01 4.16Q26.01 3.77 25.67 3.56Q25.33 3.35 24.68 3.35L24.68 3.35Q24.40 3.35 24.06 3.41Q23.71 3.47 23.15 3.63L23.15 3.63L23.15 2.84Q23.65 2.73 24.09 2.67Q24.53 2.60 24.90 2.60L24.90 2.60Q25.89 2.60 26.47 3.01Q27.04 3.41 27.04 4.09L27.04 4.09Q27.04 4.56 26.74 4.89Q26.43 5.22 25.87 5.34Z"></path></svg>