<svg height="16.296875" width="36.7705078125" xmlns="http://www.w3.org/2000/svg" ><path d="M1.27 13.00L1.27 2.36L2.54 2.36L2.54 8.64L6.29 5.34L7.90 5.34L3.83 8.92L8.07 13.00L6.43 13.00L2.54 9.26L2.54 13.00L1.27 13.00ZM12.39 6.22L12.39 6.22Q11.38 6.22 10.79 7.01Q10.21 7.80 10.21 9.17L10.21 9.17Q10.21 10.55 10.79 11.34Q11.38 12.13 12.39 12.13L12.39 12.13Q13.40 12.13 13.99 11.33Q14.57 10.54 14.57 9.17L14.57 9.17Q14.57 7.81 13.99 7.02Q13.40 6.22 12.39 6.22ZM12.39 5.15L12.39 5.15Q14.03 5.15 14.97 6.22Q15.91 7.29 15.91 9.17L15.91 9.17Q15.91 11.05 14.97 12.12Q14.03 13.19 12.39 13.19L12.39 13.19Q10.75 13.19 9.81 12.12Q8.88 11.05 8.88 9.17L8.88 9.17Q8.88 7.29 9.81 6.22Q10.75 5.15 12.39 5.15ZM24.36 8.37L24.36 8.37L24.36 13.13Q24.36 14.59 23.80 15.25L23.80 15.25Q23.24 15.91 22.00 15.91L22.00 15.91L20.27 15.91L20.27 14.84L21.86 14.84Q22.58 14.84 22.84 14.51L22.84 14.51Q23.10 14.18 23.10 13.13L23.10 13.13L23.10 8.42Q23.10 7.33 22.67 6.79Q22.25 6.25 21.40 6.25L21.40 6.25Q20.38 6.25 19.80 6.90Q19.21 7.55 19.21 8.67L19.21 8.67L19.21 13.00L17.94 13.00L17.94 5.34L19.21 5.34L19.21 6.53Q19.66 5.84 20.27 5.50L20.27 5.50Q20.88 5.15 21.68 5.15L21.68 5.15Q23.00 5.15 23.68 5.97L23.68 5.97Q24.36 6.79 24.36 8.37ZM26.52 5.58L26.52 2.72L30.00 2.72L30.00 3.37L27.33 3.37L27.33 4.76Q27.52 4.70 27.72 4.68L27.72 4.68Q27.91 4.65 28.10 4.65L28.10 4.65Q29.20 4.65 29.85 5.17L29.85 5.17Q30.49 5.69 30.49 6.59L30.49 6.59Q30.49 7.51 29.83 8.03L29.83 8.03Q29.17 8.53 27.97 8.53L27.97 8.53Q27.56 8.53 27.13 8.47Q26.69 8.41 26.24 8.29L26.24 8.29L26.24 7.51Q26.63 7.70 27.06 7.79L27.06 7.79Q27.48 7.88 27.95 7.88L27.95 7.88Q28.71 7.88 29.16 7.53Q29.60 7.18 29.60 6.59Q29.60 6.00 29.16 5.65Q28.71 5.30 27.95 5.30L27.95 5.30Q27.60 5.30 27.24 5.37Q26.89 5.43 26.52 5.58L26.52 5.58ZM34.74 5.34L34.74 5.34Q35.37 5.46 35.71 5.83Q36.06 6.21 36.06 6.77L36.06 6.77Q36.06 7.62 35.41 8.07Q34.76 8.53 33.55 8.53L33.55 8.53Q33.16 8.53 32.73 8.46Q32.31 8.39 31.83 8.25L31.83 8.25L31.83 7.42Q32.18 7.61 32.59 7.70Q33.00 7.79 33.46 7.79L33.46 7.79Q34.20 7.79 34.61 7.52Q35.02 7.25 35.02 6.77L35.02 6.77Q35.02 6.26 34.64 6.00Q34.26 5.74 33.52 5.74L33.52 5.74L32.94 5.74L32.94 5.00L33.58 5.00Q34.22 5.00 34.55 4.79Q34.88 4.57 34.88 4.16L34.88 4.16Q34.88 3.77 34.54 3.56Q34.20 3.35 33.55 3.35L33.55 3.35Q33.28 3.35 32.93 3.41Q32.58 3.47 32.03 3.63L32.03 3.63L32.03 2.84Q32.53 2.73 32.96 2.67Q33.40 2.60 33.78 2.60L33.78 2.60Q34.76 2.60 35.34 3.01Q35.92 3.41 35.92 4.09L35.92 4.09Q35.92 4.56 35.61 4.89Q35.30 5.22 34.74 5.34Z"></path></svg>