<svg height="16.296875" width="42.3828125" xmlns="http://www.w3.org/2000/svg" ><path d="M1.27 13.00L1.27 2.36L2.54 2.36L2.54 8.64L6.29 5.34L7.90 5.34L3.83 8.92L8.07 13.00L6.43 13.00L2.54 9.26L2.54 13.00L1.27 13.00ZM12.39 6.22L12.39 6.22Q11.38 6.22 10.79 7.01Q10.21 7.80 10.21 9.17L10.21 9.17Q10.21 10.55 10.79 11.34Q11.38 12.13 12.39 12.13L12.39 12.13Q13.40 12.13 13.99 11.33Q14.57 10.54 14.57 9.17L14.57 9.17Q14.57 7.81 13.99 7.02Q13.40 6.22 12.39 6.22ZM12.39 5.15L12.39 5.15Q14.03 5.15 14.97 6.22Q15.91 7.29 15.91 9.17L15.91 9.17Q15.91 11.05 14.97 12.12Q14.03 13.19 12.39 13.19L12.39 13.19Q10.75 13.19 9.81 12.12Q8.88 11.05 8.88 9.17L8.88 9.17Q8.88 7.29 9.81 6.22Q10.75 5.15 12.39 5.15ZM24.36 8.37L24.36 8.37L24.36 13.13Q24.36 14.59 23.80 15.25L23.80 15.25Q23.24 15.91 22.00 15.91L22.00 15.91L20.27 15.91L20.27 14.84L21.86 14.84Q22.58 14.84 22.84 14.51L22.84 14.51Q23.10 14.18 23.10 13.13L23.10 13.13L23.10 8.42Q23.10 7.33 22.67 6.79Q22.25 6.25 21.40 6.25L21.40 6.25Q20.38 6.25 19.80 6.90Q19.21 7.55 19.21 8.67L19.21 8.67L19.21 13.00L17.94 13.00L17.94 5.34L19.21 5.34L19.21 6.53Q19.66 5.84 20.27 5.50L20.27 5.50Q20.88 5.15 21.68 5.15L21.68 5.15Q23.00 5.15 23.68 5.97L23.68 5.97Q24.36 6.79 24.36 8.37ZM29.13 5.34L29.13 5.34Q29.76 5.46 30.10 5.83Q30.45 6.21 30.45 6.77L30.45 6.77Q30.45 7.62 29.80 8.07Q29.15 8.53 27.94 8.53L27.94 8.53Q27.55 8.53 27.12 8.46Q26.69 8.39 26.22 8.25L26.22 8.25L26.22 7.42Q26.57 7.61 26.98 7.70Q27.38 7.79 27.84 7.79L27.84 7.79Q28.59 7.79 29.00 7.52Q29.41 7.25 29.41 6.77L29.41 6.77Q29.41 6.26 29.03 6.00Q28.65 5.74 27.91 5.74L27.91 5.74L27.32 5.74L27.32 5.00L27.97 5.00Q28.61 5.00 28.94 4.79Q29.27 4.57 29.27 4.16L29.27 4.16Q29.27 3.77 28.93 3.56Q28.59 3.35 27.94 3.35L27.94 3.35Q27.67 3.35 27.32 3.41Q26.97 3.47 26.41 3.63L26.41 3.63L26.41 2.84Q26.91 2.73 27.35 2.67Q27.79 2.60 28.16 2.60L28.16 2.60Q29.15 2.60 29.73 3.01Q30.30 3.41 30.30 4.09L30.30 4.09Q30.30 4.56 30.00 4.89Q29.69 5.22 29.13 5.34ZM34.74 5.34L34.74 5.34Q35.37 5.46 35.71 5.83Q36.06 6.21 36.06 6.77L36.06 6.77Q36.06 7.62 35.41 8.07Q34.76 8.53 33.55 8.53L33.55 8.53Q33.16 8.53 32.73 8.46Q32.31 8.39 31.83 8.25L31.83 8.25L31.83 7.42Q32.18 7.61 32.59 7.70Q33.00 7.79 33.46 7.79L33.46 7.79Q34.20 7.79 34.61 7.52Q35.02 7.25 35.02 6.77L35.02 6.77Q35.02 6.26 34.64 6.00Q34.26 5.74 33.52 5.74L33.52 5.74L32.94 5.74L32.94 5.00L33.58 5.00Q34.22 5.00 34.55 4.79Q34.88 4.57 34.88 4.16L34.88 4.16Q34.88 3.77 34.54 3.56Q34.20 3.35 33.55 3.35L33.55 3.35Q33.28 3.35 32.93 3.41Q32.58 3.47 32.03 3.63L32.03 3.63L32.03 2.84Q32.53 2.73 32.96 2.67Q33.40 2.60 33.78 2.60L33.78 2.60Q34.76 2.60 35.34 3.01Q35.92 3.41 35.92 4.09L35.92 4.09Q35.92 4.56 35.61 4.89Q35.30 5.22 34.74 5.34ZM40.03 6.41L40.03 3.55L37.92 6.41L40.03 6.41ZM37.20 6.33L39.88 2.72L41.02 2.72L41.02 6.41L41.94 6.41L41.94 7.16L41.02 7.16L41.02 8.43L40.03 8.43L40.03 7.16L37.20 7.16L37.20 6.33Z"></path></svg>