<svg height="16.296875" width="35.041015625" xmlns="http://www.w3.org/2000/svg" ><path d="M1.27 13.00L1.27 2.36L2.54 2.36L2.54 8.64L6.29 5.34L7.90 5.34L3.83 8.92L8.07 13.00L6.43 13.00L2.54 9.26L2.54 13.00L1.27 13.00ZM12.39 6.22L12.39 6.22Q11.38 6.22 10.79 7.01Q10.21 7.80 10.21 9.17L10.21 9.17Q10.21 10.55 10.79 11.34Q11.38 12.13 12.39 12.13L12.39 12.13Q13.40 12.13 13.99 11.33Q14.57 10.54 14.57 9.17L14.57 9.17Q14.57 7.81 13.99 7.02Q13.40 6.22 12.39 6.22ZM12.39 5.15L12.39 5.15Q14.03 5.15 14.97 6.22Q15.91 7.29 15.91 9.17L15.91 9.17Q15.91 11.05 14.97 12.12Q14.03 13.19 12.39 13.19L12.39 13.19Q10.75 13.19 9.81 12.12Q8.88 11.05 8.88 9.17L8.88 9.17Q8.88 7.29 9.81 6.22Q10.75 5.15 12.39 5.15ZM19.00 13.00L19.00 7.54L19.43 7.54Q20.74 7.54 21.33 6.76L21.33 6.76Q21.72 6.24 21.72 5.57L21.72 5.57Q21.72 4.66 21.33 4.22L21.33 4.22Q20.65 3.44 19.43 3.44L19.43 3.44Q18.88 3.44 18.34 3.59L18.34 3.59Q17.81 3.73 17.27 4.03L17.27 4.03L17.27 2.85Q17.79 2.61 18.35 2.50L18.35 2.50Q18.90 2.37 19.48 2.37L19.48 2.37Q21.36 2.37 22.31 3.45L22.31 3.45Q23.05 4.30 23.05 5.57L23.05 5.57Q23.05 6.73 22.31 7.52L22.31 7.52Q21.55 8.33 20.38 8.54L20.38 8.54L20.38 13.00L19.00 13.00ZM24.79 5.58L24.79 2.72L28.27 2.72L28.27 3.37L25.60 3.37L25.60 4.76Q25.79 4.70 25.99 4.68L25.99 4.68Q26.18 4.65 26.37 4.65L26.37 4.65Q27.47 4.65 28.12 5.17L28.12 5.17Q28.76 5.69 28.76 6.59L28.76 6.59Q28.76 7.51 28.10 8.03L28.10 8.03Q27.44 8.53 26.24 8.53L26.24 8.53Q25.83 8.53 25.40 8.47Q24.96 8.41 24.51 8.29L24.51 8.29L24.51 7.51Q24.90 7.70 25.33 7.79L25.33 7.79Q25.75 7.88 26.22 7.88L26.22 7.88Q26.98 7.88 27.43 7.53Q27.87 7.18 27.87 6.59Q27.87 6.00 27.43 5.65Q26.98 5.30 26.22 5.30L26.22 5.30Q25.87 5.30 25.51 5.37Q25.16 5.43 24.79 5.58L24.79 5.58ZM30.40 5.58L30.40 2.72L33.89 2.72L33.89 3.37L31.21 3.37L31.21 4.76Q31.40 4.70 31.60 4.68L31.60 4.68Q31.79 4.65 31.99 4.65L31.99 4.65Q33.09 4.65 33.73 5.17L33.73 5.17Q34.37 5.69 34.37 6.59L34.37 6.59Q34.37 7.51 33.71 8.03L33.71 8.03Q33.05 8.53 31.85 8.53L31.85 8.53Q31.44 8.53 31.01 8.47Q30.58 8.41 30.13 8.29L30.13 8.29L30.13 7.51Q30.52 7.70 30.94 7.79L30.94 7.79Q31.36 7.88 31.83 7.88L31.83 7.88Q32.59 7.88 33.04 7.53Q33.48 7.18 33.48 6.59Q33.48 6.00 33.04 5.65Q32.59 5.30 31.83 5.30L31.83 5.30Q31.48 5.30 31.12 5.37Q30.77 5.43 30.40 5.58L30.40 5.58Z"></path></svg>