<svg height="16.296875" width="28.205078125" xmlns="http://www.w3.org/2000/svg" ><path d="M1.27 13.00L1.27 2.36L2.54 2.36L2.54 8.64L6.29 5.34L7.90 5.34L3.83 8.92L8.07 13.00L6.43 13.00L2.54 9.26L2.54 13.00L1.27 13.00ZM9.30 9.97L9.30 9.97L9.30 5.34L10.55 5.34L10.55 9.93Q10.55 11.01 10.98 11.56Q11.40 12.10 12.25 12.10L12.25 12.10Q13.27 12.10 13.86 11.45Q14.45 10.80 14.45 9.68L14.45 9.68L14.45 5.34L15.71 5.34L15.71 13.00L14.45 13.00L14.45 11.82Q13.99 12.52 13.39 12.85Q12.78 13.19 11.98 13.19L11.98 13.19Q10.66 13.19 9.98 12.37Q9.30 11.55 9.30 9.97ZM12.46 5.15L12.46 5.15ZM17.95 5.58L17.95 2.72L21.44 2.72L21.44 3.37L18.76 3.37L18.76 4.76Q18.96 4.70 19.15 4.68L19.15 4.68Q19.35 4.65 19.54 4.65L19.54 4.65Q20.64 4.65 21.28 5.17L21.28 5.17Q21.92 5.69 21.92 6.59L21.92 6.59Q21.92 7.51 21.26 8.03L21.26 8.03Q20.60 8.53 19.40 8.53L19.40 8.53Q18.99 8.53 18.56 8.47Q18.13 8.41 17.68 8.29L17.68 8.29L17.68 7.51Q18.07 7.70 18.49 7.79L18.49 7.79Q18.92 7.88 19.39 7.88L19.39 7.88Q20.15 7.88 20.59 7.53Q21.03 7.18 21.03 6.59Q21.03 6.00 20.59 5.65Q20.15 5.30 19.39 5.30L19.39 5.30Q19.03 5.30 18.68 5.37Q18.32 5.43 17.95 5.58L17.95 5.58ZM26.17 5.34L26.17 5.34Q26.80 5.46 27.15 5.83Q27.49 6.21 27.49 6.77L27.49 6.77Q27.49 7.62 26.84 8.07Q26.20 8.53 24.99 8.53L24.99 8.53Q24.60 8.53 24.17 8.46Q23.74 8.39 23.26 8.25L23.26 8.25L23.26 7.42Q23.62 7.61 24.02 7.70Q24.43 7.79 24.89 7.79L24.89 7.79Q25.63 7.79 26.04 7.52Q26.46 7.25 26.46 6.77L26.46 6.77Q26.46 6.26 26.08 6.00Q25.70 5.74 24.96 5.74L24.96 5.74L24.37 5.74L24.37 5.00L25.01 5.00Q25.66 5.00 25.99 4.79Q26.32 4.57 26.32 4.16L26.32 4.16Q26.32 3.77 25.98 3.56Q25.63 3.35 24.99 3.35L24.99 3.35Q24.71 3.35 24.36 3.41Q24.01 3.47 23.46 3.63L23.46 3.63L23.46 2.84Q23.96 2.73 24.40 2.67Q24.83 2.60 25.21 2.60L25.21 2.60Q26.20 2.60 26.77 3.01Q27.35 3.41 27.35 4.09L27.35 4.09Q27.35 4.56 27.04 4.89Q26.74 5.22 26.17 5.34Z"></path></svg>