<svg height="16.296875" width="33.8173828125" xmlns="http://www.w3.org/2000/svg" ><path d="M1.27 13.00L1.27 2.36L2.54 2.36L2.54 8.64L6.29 5.34L7.90 5.34L3.83 8.92L8.07 13.00L6.43 13.00L2.54 9.26L2.54 13.00L1.27 13.00ZM9.30 9.97L9.30 9.97L9.30 5.34L10.55 5.34L10.55 9.93Q10.55 11.01 10.98 11.56Q11.40 12.10 12.25 12.10L12.25 12.10Q13.27 12.10 13.86 11.45Q14.45 10.80 14.45 9.68L14.45 9.68L14.45 5.34L15.71 5.34L15.71 13.00L14.45 13.00L14.45 11.82Q13.99 12.52 13.39 12.85Q12.78 13.19 11.98 13.19L11.98 13.19Q10.66 13.19 9.98 12.37Q9.30 11.55 9.30 9.97ZM12.46 5.15L12.46 5.15ZM20.56 5.34L20.56 5.34Q21.19 5.46 21.54 5.83Q21.88 6.21 21.88 6.77L21.88 6.77Q21.88 7.62 21.23 8.07Q20.58 8.53 19.37 8.53L19.37 8.53Q18.98 8.53 18.56 8.46Q18.13 8.39 17.65 8.25L17.65 8.25L17.65 7.42Q18.01 7.61 18.41 7.70Q18.82 7.79 19.28 7.79L19.28 7.79Q20.02 7.79 20.43 7.52Q20.84 7.25 20.84 6.77L20.84 6.77Q20.84 6.26 20.46 6.00Q20.08 5.74 19.35 5.74L19.35 5.74L18.76 5.74L18.76 5.00L19.40 5.00Q20.04 5.00 20.37 4.79Q20.71 4.57 20.71 4.16L20.71 4.16Q20.71 3.77 20.36 3.56Q20.02 3.35 19.37 3.35L19.37 3.35Q19.10 3.35 18.75 3.41Q18.40 3.47 17.85 3.63L17.85 3.63L17.85 2.84Q18.35 2.73 18.79 2.67Q19.22 2.60 19.60 2.60L19.60 2.60Q20.58 2.60 21.16 3.01Q21.74 3.41 21.74 4.09L21.74 4.09Q21.74 4.56 21.43 4.89Q21.12 5.22 20.56 5.34ZM26.17 5.34L26.17 5.34Q26.80 5.46 27.15 5.83Q27.49 6.21 27.49 6.77L27.49 6.77Q27.49 7.62 26.84 8.07Q26.20 8.53 24.99 8.53L24.99 8.53Q24.60 8.53 24.17 8.46Q23.74 8.39 23.26 8.25L23.26 8.25L23.26 7.42Q23.62 7.61 24.02 7.70Q24.43 7.79 24.89 7.79L24.89 7.79Q25.63 7.79 26.04 7.52Q26.46 7.25 26.46 6.77L26.46 6.77Q26.46 6.26 26.08 6.00Q25.70 5.74 24.96 5.74L24.96 5.74L24.37 5.74L24.37 5.00L25.01 5.00Q25.66 5.00 25.99 4.79Q26.32 4.57 26.32 4.16L26.32 4.16Q26.32 3.77 25.98 3.56Q25.63 3.35 24.99 3.35L24.99 3.35Q24.71 3.35 24.36 3.41Q24.01 3.47 23.46 3.63L23.46 3.63L23.46 2.84Q23.96 2.73 24.40 2.67Q24.83 2.60 25.21 2.60L25.21 2.60Q26.20 2.60 26.77 3.01Q27.35 3.41 27.35 4.09L27.35 4.09Q27.35 4.56 27.04 4.89Q26.74 5.22 26.17 5.34ZM31.47 6.41L31.47 3.55L29.35 6.41L31.47 6.41ZM28.64 6.33L31.32 2.72L32.45 2.72L32.45 6.41L33.37 6.41L33.37 7.16L32.45 7.16L32.45 8.43L31.47 8.43L31.47 7.16L28.64 7.16L28.64 6.33Z"></path></svg>