<svg height="16.296875" width="36.490234375" xmlns="http://www.w3.org/2000/svg" ><path d="M1.27 13.00L1.27 2.36L2.54 2.36L2.54 8.64L6.29 5.34L7.90 5.34L3.83 8.92L8.07 13.00L6.43 13.00L2.54 9.26L2.54 13.00L1.27 13.00ZM9.30 9.97L9.30 9.97L9.30 5.34L10.55 5.34L10.55 9.93Q10.55 11.01 10.98 11.56Q11.40 12.10 12.25 12.10L12.25 12.10Q13.27 12.10 13.86 11.45Q14.45 10.80 14.45 9.68L14.45 9.68L14.45 5.34L15.71 5.34L15.71 13.00L14.45 13.00L14.45 11.82Q13.99 12.52 13.39 12.85Q12.78 13.19 11.98 13.19L11.98 13.19Q10.66 13.19 9.98 12.37Q9.30 11.55 9.30 9.97ZM12.46 5.15L12.46 5.15ZM21.98 5.34L24.85 13.00L23.52 13.00L22.82 11.12L19.43 11.12L18.73 13.00L17.40 13.00L20.27 5.34L21.98 5.34ZM21.12 6.57L19.81 10.10L22.44 10.10L21.12 6.57ZM26.24 5.58L26.24 2.72L29.72 2.72L29.72 3.37L27.05 3.37L27.05 4.76Q27.24 4.70 27.44 4.68L27.44 4.68Q27.63 4.65 27.82 4.65L27.82 4.65Q28.92 4.65 29.57 5.17L29.57 5.17Q30.21 5.69 30.21 6.59L30.21 6.59Q30.21 7.51 29.54 8.03L29.54 8.03Q28.89 8.53 27.69 8.53L27.69 8.53Q27.28 8.53 26.84 8.47Q26.41 8.41 25.96 8.29L25.96 8.29L25.96 7.51Q26.35 7.70 26.78 7.79L26.78 7.79Q27.20 7.88 27.67 7.88L27.67 7.88Q28.43 7.88 28.88 7.53Q29.32 7.18 29.32 6.59Q29.32 6.00 28.88 5.65Q28.43 5.30 27.67 5.30L27.67 5.30Q27.32 5.30 26.96 5.37Q26.61 5.43 26.24 5.58L26.24 5.58ZM34.46 5.34L34.46 5.34Q35.09 5.46 35.43 5.83Q35.78 6.21 35.78 6.77L35.78 6.77Q35.78 7.62 35.13 8.07Q34.48 8.53 33.27 8.53L33.27 8.53Q32.88 8.53 32.45 8.46Q32.03 8.39 31.55 8.25L31.55 8.25L31.55 7.42Q31.90 7.61 32.31 7.70Q32.72 7.79 33.17 7.79L33.17 7.79Q33.92 7.79 34.33 7.52Q34.74 7.25 34.74 6.77L34.74 6.77Q34.74 6.26 34.36 6.00Q33.98 5.74 33.24 5.74L33.24 5.74L32.66 5.74L32.66 5.00L33.30 5.00Q33.94 5.00 34.27 4.79Q34.60 4.57 34.60 4.16L34.60 4.16Q34.60 3.77 34.26 3.56Q33.92 3.35 33.27 3.35L33.27 3.35Q33.00 3.35 32.65 3.41Q32.30 3.47 31.75 3.63L31.75 3.63L31.75 2.84Q32.25 2.73 32.68 2.67Q33.12 2.60 33.50 2.60L33.50 2.60Q34.48 2.60 35.06 3.01Q35.64 3.41 35.64 4.09L35.64 4.09Q35.64 4.56 35.33 4.89Q35.02 5.22 34.46 5.34Z"></path></svg>