<svg height="16.296875" width="42.1025390625" xmlns="http://www.w3.org/2000/svg" ><path d="M1.27 13.00L1.27 2.36L2.54 2.36L2.54 8.64L6.29 5.34L7.90 5.34L3.83 8.92L8.07 13.00L6.43 13.00L2.54 9.26L2.54 13.00L1.27 13.00ZM9.30 9.97L9.30 9.97L9.30 5.34L10.55 5.34L10.55 9.93Q10.55 11.01 10.98 11.56Q11.40 12.10 12.25 12.10L12.25 12.10Q13.27 12.10 13.86 11.45Q14.45 10.80 14.45 9.68L14.45 9.68L14.45 5.34L15.71 5.34L15.71 13.00L14.45 13.00L14.45 11.82Q13.99 12.52 13.39 12.85Q12.78 13.19 11.98 13.19L11.98 13.19Q10.66 13.19 9.98 12.37Q9.30 11.55 9.30 9.97ZM12.46 5.15L12.46 5.15ZM21.98 5.34L24.85 13.00L23.52 13.00L22.82 11.12L19.43 11.12L18.73 13.00L17.40 13.00L20.27 5.34L21.98 5.34ZM21.12 6.57L19.81 10.10L22.44 10.10L21.12 6.57ZM28.85 5.34L28.85 5.34Q29.48 5.46 29.82 5.83Q30.17 6.21 30.17 6.77L30.17 6.77Q30.17 7.62 29.52 8.07Q28.87 8.53 27.66 8.53L27.66 8.53Q27.27 8.53 26.84 8.46Q26.41 8.39 25.94 8.25L25.94 8.25L25.94 7.42Q26.29 7.61 26.70 7.70Q27.10 7.79 27.56 7.79L27.56 7.79Q28.31 7.79 28.72 7.52Q29.13 7.25 29.13 6.77L29.13 6.77Q29.13 6.26 28.75 6.00Q28.37 5.74 27.63 5.74L27.63 5.74L27.04 5.74L27.04 5.00L27.69 5.00Q28.33 5.00 28.66 4.79Q28.99 4.57 28.99 4.16L28.99 4.16Q28.99 3.77 28.65 3.56Q28.31 3.35 27.66 3.35L27.66 3.35Q27.38 3.35 27.04 3.41Q26.69 3.47 26.13 3.63L26.13 3.63L26.13 2.84Q26.63 2.73 27.07 2.67Q27.51 2.60 27.88 2.60L27.88 2.60Q28.87 2.60 29.45 3.01Q30.02 3.41 30.02 4.09L30.02 4.09Q30.02 4.56 29.72 4.89Q29.41 5.22 28.85 5.34ZM34.46 5.34L34.46 5.34Q35.09 5.46 35.43 5.83Q35.78 6.21 35.78 6.77L35.78 6.77Q35.78 7.62 35.13 8.07Q34.48 8.53 33.27 8.53L33.27 8.53Q32.88 8.53 32.45 8.46Q32.03 8.39 31.55 8.25L31.55 8.25L31.55 7.42Q31.90 7.61 32.31 7.70Q32.72 7.79 33.17 7.79L33.17 7.79Q33.92 7.79 34.33 7.52Q34.74 7.25 34.74 6.77L34.74 6.77Q34.74 6.26 34.36 6.00Q33.98 5.74 33.24 5.74L33.24 5.74L32.66 5.74L32.66 5.00L33.30 5.00Q33.94 5.00 34.27 4.79Q34.60 4.57 34.60 4.16L34.60 4.16Q34.60 3.77 34.26 3.56Q33.92 3.35 33.27 3.35L33.27 3.35Q33.00 3.35 32.65 3.41Q32.30 3.47 31.75 3.63L31.75 3.63L31.75 2.84Q32.25 2.73 32.68 2.67Q33.12 2.60 33.50 2.60L33.50 2.60Q34.48 2.60 35.06 3.01Q35.64 3.41 35.64 4.09L35.64 4.09Q35.64 4.56 35.33 4.89Q35.02 5.22 34.46 5.34ZM39.75 6.41L39.75 3.55L37.64 6.41L39.75 6.41ZM36.92 6.33L39.60 2.72L40.74 2.72L40.74 6.41L41.66 6.41L41.66 7.16L40.74 7.16L40.74 8.43L39.75 8.43L39.75 7.16L36.92 7.16L36.92 6.33Z"></path></svg>