<svg height="16.296875" width="36.7841796875" xmlns="http://www.w3.org/2000/svg" ><path d="M1.27 13.00L1.27 2.36L2.54 2.36L2.54 8.64L6.29 5.34L7.90 5.34L3.83 8.92L8.07 13.00L6.43 13.00L2.54 9.26L2.54 13.00L1.27 13.00ZM9.30 9.97L9.30 9.97L9.30 5.34L10.55 5.34L10.55 9.93Q10.55 11.01 10.98 11.56Q11.40 12.10 12.25 12.10L12.25 12.10Q13.27 12.10 13.86 11.45Q14.45 10.80 14.45 9.68L14.45 9.68L14.45 5.34L15.71 5.34L15.71 13.00L14.45 13.00L14.45 11.82Q13.99 12.52 13.39 12.85Q12.78 13.19 11.98 13.19L11.98 13.19Q10.66 13.19 9.98 12.37Q9.30 11.55 9.30 9.97ZM12.46 5.15L12.46 5.15ZM23.03 9.15L21.78 9.15Q20.25 9.15 19.67 9.50Q19.08 9.84 19.08 10.68L19.08 10.68Q19.08 11.35 19.52 11.75Q19.96 12.14 20.72 12.14L20.72 12.14Q21.77 12.14 22.40 11.40Q23.03 10.66 23.03 9.43L23.03 9.43L23.03 9.15ZM24.29 8.63L24.29 8.63L24.29 13.00L23.03 13.00L23.03 11.83Q22.60 12.53 21.96 12.86Q21.31 13.19 20.38 13.19L20.38 13.19Q19.21 13.19 18.52 12.53Q17.82 11.87 17.82 10.77L17.82 10.77Q17.82 9.47 18.69 8.82Q19.55 8.16 21.27 8.16L21.27 8.16L23.03 8.16L23.03 8.04Q23.03 7.17 22.46 6.70Q21.89 6.22 20.86 6.22L20.86 6.22Q20.20 6.22 19.58 6.38Q18.96 6.54 18.38 6.85L18.38 6.85L18.38 5.69Q19.07 5.42 19.72 5.29Q20.37 5.15 20.99 5.15L20.99 5.15Q22.65 5.15 23.47 6.02Q24.29 6.88 24.29 8.63ZM22.02 3.63L22.02 3.63L21.63 3.25Q21.48 3.12 21.37 3.05Q21.25 2.99 21.16 2.99L21.16 2.99Q20.90 2.99 20.78 3.24Q20.66 3.49 20.64 4.05L20.64 4.05L19.79 4.05Q19.80 3.12 20.15 2.62Q20.50 2.12 21.12 2.12L21.12 2.12Q21.38 2.12 21.60 2.21Q21.82 2.31 22.07 2.54L22.07 2.54L22.46 2.91Q22.61 3.05 22.73 3.11Q22.84 3.18 22.93 3.18L22.93 3.18Q23.19 3.18 23.31 2.93Q23.43 2.68 23.45 2.12L23.45 2.12L24.30 2.12Q24.29 3.04 23.94 3.54Q23.59 4.05 22.97 4.05L22.97 4.05Q22.71 4.05 22.49 3.95Q22.27 3.86 22.02 3.63ZM26.53 5.58L26.53 2.72L30.02 2.72L30.02 3.37L27.34 3.37L27.34 4.76Q27.54 4.70 27.73 4.68L27.73 4.68Q27.92 4.65 28.12 4.65L28.12 4.65Q29.22 4.65 29.86 5.17L29.86 5.17Q30.50 5.69 30.50 6.59L30.50 6.59Q30.50 7.51 29.84 8.03L29.84 8.03Q29.18 8.53 27.98 8.53L27.98 8.53Q27.57 8.53 27.14 8.47Q26.71 8.41 26.26 8.29L26.26 8.29L26.26 7.51Q26.65 7.70 27.07 7.79L27.07 7.79Q27.49 7.88 27.97 7.88L27.97 7.88Q28.72 7.88 29.17 7.53Q29.61 7.18 29.61 6.59Q29.61 6.00 29.17 5.65Q28.72 5.30 27.97 5.30L27.97 5.30Q27.61 5.30 27.25 5.37Q26.90 5.43 26.53 5.58L26.53 5.58ZM34.75 5.34L34.75 5.34Q35.38 5.46 35.73 5.83Q36.07 6.21 36.07 6.77L36.07 6.77Q36.07 7.62 35.42 8.07Q34.77 8.53 33.56 8.53L33.56 8.53Q33.17 8.53 32.75 8.46Q32.32 8.39 31.84 8.25L31.84 8.25L31.84 7.42Q32.20 7.61 32.60 7.70Q33.01 7.79 33.47 7.79L33.47 7.79Q34.21 7.79 34.62 7.52Q35.03 7.25 35.03 6.77L35.03 6.77Q35.03 6.26 34.65 6.00Q34.28 5.74 33.54 5.74L33.54 5.74L32.95 5.74L32.95 5.00L33.59 5.00Q34.23 5.00 34.57 4.79Q34.90 4.57 34.90 4.16L34.90 4.16Q34.90 3.77 34.56 3.56Q34.21 3.35 33.56 3.35L33.56 3.35Q33.29 3.35 32.94 3.41Q32.59 3.47 32.04 3.63L32.04 3.63L32.04 2.84Q32.54 2.73 32.98 2.67Q33.41 2.60 33.79 2.60L33.79 2.60Q34.77 2.60 35.35 3.01Q35.93 3.41 35.93 4.09L35.93 4.09Q35.93 4.56 35.62 4.89Q35.31 5.22 34.75 5.34Z"></path></svg>