<svg height="16.296875" width="37.091796875" xmlns="http://www.w3.org/2000/svg" ><path d="M1.27 13.00L1.27 2.36L2.54 2.36L2.54 8.64L6.29 5.34L7.90 5.34L3.83 8.92L8.07 13.00L6.43 13.00L2.54 9.26L2.54 13.00L1.27 13.00ZM9.30 9.97L9.30 9.97L9.30 5.34L10.55 5.34L10.55 9.93Q10.55 11.01 10.98 11.56Q11.40 12.10 12.25 12.10L12.25 12.10Q13.27 12.10 13.86 11.45Q14.45 10.80 14.45 9.68L14.45 9.68L14.45 5.34L15.71 5.34L15.71 13.00L14.45 13.00L14.45 11.82Q13.99 12.52 13.39 12.85Q12.78 13.19 11.98 13.19L11.98 13.19Q10.66 13.19 9.98 12.37Q9.30 11.55 9.30 9.97ZM12.46 5.15L12.46 5.15ZM23.34 6.50L23.34 6.50L23.34 5.34L24.60 5.34L24.60 13.00L23.34 13.00L23.34 11.85Q22.94 12.53 22.34 12.86Q21.73 13.19 20.88 13.19L20.88 13.19Q19.50 13.19 18.62 12.09Q17.75 10.98 17.75 9.17L17.75 9.17Q17.75 7.37 18.62 6.26Q19.50 5.15 20.88 5.15L20.88 5.15Q21.73 5.15 22.34 5.49Q22.94 5.82 23.34 6.50ZM19.05 9.17L19.05 9.17Q19.05 10.56 19.62 11.35Q20.19 12.14 21.19 12.14L21.19 12.14Q22.19 12.14 22.76 11.35Q23.34 10.56 23.34 9.17L23.34 9.17Q23.34 7.79 22.76 7.00Q22.19 6.21 21.19 6.21L21.19 6.21Q20.19 6.21 19.62 7.00Q19.05 7.79 19.05 9.17ZM22.33 3.63L22.33 3.63L21.94 3.25Q21.79 3.12 21.67 3.05Q21.56 2.99 21.47 2.99L21.47 2.99Q21.21 2.99 21.09 3.24Q20.97 3.49 20.95 4.05L20.95 4.05L20.10 4.05Q20.11 3.12 20.46 2.62Q20.81 2.12 21.43 2.12L21.43 2.12Q21.69 2.12 21.91 2.21Q22.13 2.31 22.38 2.54L22.38 2.54L22.77 2.91Q22.92 3.05 23.03 3.11Q23.15 3.18 23.24 3.18L23.24 3.18Q23.50 3.18 23.62 2.93Q23.74 2.68 23.75 2.12L23.75 2.12L24.61 2.12Q24.60 3.04 24.25 3.54Q23.90 4.05 23.28 4.05L23.28 4.05Q23.02 4.05 22.80 3.95Q22.58 3.86 22.33 3.63ZM26.84 5.58L26.84 2.72L30.32 2.72L30.32 3.37L27.65 3.37L27.65 4.76Q27.84 4.70 28.04 4.68L28.04 4.68Q28.23 4.65 28.42 4.65L28.42 4.65Q29.52 4.65 30.17 5.17L30.17 5.17Q30.81 5.69 30.81 6.59L30.81 6.59Q30.81 7.51 30.15 8.03L30.15 8.03Q29.49 8.53 28.29 8.53L28.29 8.53Q27.88 8.53 27.45 8.47Q27.02 8.41 26.56 8.29L26.56 8.29L26.56 7.51Q26.95 7.70 27.38 7.79L27.38 7.79Q27.80 7.88 28.27 7.88L28.27 7.88Q29.03 7.88 29.48 7.53Q29.92 7.18 29.92 6.59Q29.92 6.00 29.48 5.65Q29.03 5.30 28.27 5.30L28.27 5.30Q27.92 5.30 27.56 5.37Q27.21 5.43 26.84 5.58L26.84 5.58ZM35.06 5.34L35.06 5.34Q35.69 5.46 36.04 5.83Q36.38 6.21 36.38 6.77L36.38 6.77Q36.38 7.62 35.73 8.07Q35.08 8.53 33.87 8.53L33.87 8.53Q33.48 8.53 33.06 8.46Q32.63 8.39 32.15 8.25L32.15 8.25L32.15 7.42Q32.50 7.61 32.91 7.70Q33.32 7.79 33.78 7.79L33.78 7.79Q34.52 7.79 34.93 7.52Q35.34 7.25 35.34 6.77L35.34 6.77Q35.34 6.26 34.96 6.00Q34.58 5.74 33.84 5.74L33.84 5.74L33.26 5.74L33.26 5.00L33.90 5.00Q34.54 5.00 34.87 4.79Q35.21 4.57 35.21 4.16L35.21 4.16Q35.21 3.77 34.86 3.56Q34.52 3.35 33.87 3.35L33.87 3.35Q33.60 3.35 33.25 3.41Q32.90 3.47 32.35 3.63L32.35 3.63L32.35 2.84Q32.85 2.73 33.28 2.67Q33.72 2.60 34.10 2.60L34.10 2.60Q35.08 2.60 35.66 3.01Q36.24 3.41 36.24 4.09L36.24 4.09Q36.24 4.56 35.93 4.89Q35.62 5.22 35.06 5.34Z"></path></svg>