<svg height="16.296875" width="43.6337890625" xmlns="http://www.w3.org/2000/svg" ><path d="M1.27 13.00L1.27 2.36L2.54 2.36L2.54 8.64L6.29 5.34L7.90 5.34L3.83 8.92L8.07 13.00L6.43 13.00L2.54 9.26L2.54 13.00L1.27 13.00ZM9.30 9.97L9.30 9.97L9.30 5.34L10.55 5.34L10.55 9.93Q10.55 11.01 10.98 11.56Q11.40 12.10 12.25 12.10L12.25 12.10Q13.27 12.10 13.86 11.45Q14.45 10.80 14.45 9.68L14.45 9.68L14.45 5.34L15.71 5.34L15.71 13.00L14.45 13.00L14.45 11.82Q13.99 12.52 13.39 12.85Q12.78 13.19 11.98 13.19L11.98 13.19Q10.66 13.19 9.98 12.37Q9.30 11.55 9.30 9.97ZM12.46 5.15L12.46 5.15ZM21.98 5.34L24.85 13.00L23.52 13.00L22.82 11.12L19.43 11.12L18.73 13.00L17.40 13.00L20.27 5.34L21.98 5.34ZM21.12 6.57L19.81 10.10L22.44 10.10L21.12 6.57ZM27.60 13.00L27.59 7.54L28.02 7.54Q29.33 7.54 29.92 6.76L29.92 6.76Q30.32 6.24 30.32 5.57L30.32 5.57Q30.31 4.66 29.92 4.22L29.92 4.22Q29.24 3.44 28.02 3.44L28.02 3.44Q27.47 3.44 26.93 3.59L26.93 3.59Q26.40 3.73 25.87 4.03L25.87 4.03L25.87 2.85Q26.39 2.61 26.94 2.50L26.94 2.50Q27.49 2.37 28.08 2.37L28.08 2.37Q29.96 2.37 30.90 3.45L30.90 3.45Q31.64 4.30 31.64 5.57L31.64 5.57Q31.64 6.73 30.91 7.52L30.91 7.52Q30.14 8.33 28.98 8.54L28.98 8.54L28.98 13.00L27.60 13.00ZM33.38 5.58L33.38 2.72L36.87 2.72L36.87 3.37L34.19 3.37L34.19 4.76Q34.38 4.70 34.58 4.68L34.58 4.68Q34.77 4.65 34.97 4.65L34.97 4.65Q36.07 4.65 36.71 5.17L36.71 5.17Q37.35 5.69 37.35 6.59L37.35 6.59Q37.35 7.51 36.69 8.03L36.69 8.03Q36.03 8.53 34.83 8.53L34.83 8.53Q34.42 8.53 33.99 8.47Q33.56 8.41 33.11 8.29L33.11 8.29L33.11 7.51Q33.50 7.70 33.92 7.79L33.92 7.79Q34.34 7.88 34.82 7.88L34.82 7.88Q35.57 7.88 36.02 7.53Q36.46 7.18 36.46 6.59Q36.46 6.00 36.02 5.65Q35.57 5.30 34.82 5.30L34.82 5.30Q34.46 5.30 34.10 5.37Q33.75 5.43 33.38 5.58L33.38 5.58ZM38.99 5.58L38.99 2.72L42.48 2.72L42.48 3.37L39.81 3.37L39.81 4.76Q40.00 4.70 40.20 4.68L40.20 4.68Q40.39 4.65 40.58 4.65L40.58 4.65Q41.68 4.65 42.32 5.17L42.32 5.17Q42.96 5.69 42.96 6.59L42.96 6.59Q42.96 7.51 42.30 8.03L42.30 8.03Q41.64 8.53 40.44 8.53L40.44 8.53Q40.03 8.53 39.60 8.47Q39.17 8.41 38.72 8.29L38.72 8.29L38.72 7.51Q39.11 7.70 39.53 7.79L39.53 7.79Q39.96 7.88 40.43 7.88L40.43 7.88Q41.19 7.88 41.63 7.53Q42.08 7.18 42.08 6.59Q42.08 6.00 41.63 5.65Q41.19 5.30 40.43 5.30L40.43 5.30Q40.07 5.30 39.72 5.37Q39.36 5.43 38.99 5.58L38.99 5.58Z"></path></svg>