<svg height="16.296875" width="35.0751953125" xmlns="http://www.w3.org/2000/svg" ><path d="M1.27 13.00L1.27 2.36L2.54 2.36L2.54 8.64L6.29 5.34L7.90 5.34L3.83 8.92L8.07 13.00L6.43 13.00L2.54 9.26L2.54 13.00L1.27 13.00ZM9.30 9.97L9.30 9.97L9.30 5.34L10.55 5.34L10.55 9.93Q10.55 11.01 10.98 11.56Q11.40 12.10 12.25 12.10L12.25 12.10Q13.27 12.10 13.86 11.45Q14.45 10.80 14.45 9.68L14.45 9.68L14.45 5.34L15.71 5.34L15.71 13.00L14.45 13.00L14.45 11.82Q13.99 12.52 13.39 12.85Q12.78 13.19 11.98 13.19L11.98 13.19Q10.66 13.19 9.98 12.37Q9.30 11.55 9.30 9.97ZM12.46 5.15L12.46 5.15ZM18.25 13.00L18.25 5.34L23.09 5.34L23.09 6.35L19.52 6.35L19.52 8.41L22.93 8.41L22.93 9.42L19.52 9.42L19.52 11.99L23.18 11.99L23.18 13.00L18.25 13.00ZM24.82 5.58L24.82 2.72L28.31 2.72L28.31 3.37L25.63 3.37L25.63 4.76Q25.83 4.70 26.02 4.68L26.02 4.68Q26.22 4.65 26.41 4.65L26.41 4.65Q27.51 4.65 28.15 5.17L28.15 5.17Q28.79 5.69 28.79 6.59L28.79 6.59Q28.79 7.51 28.13 8.03L28.13 8.03Q27.47 8.53 26.27 8.53L26.27 8.53Q25.86 8.53 25.43 8.47Q25.00 8.41 24.55 8.29L24.55 8.29L24.55 7.51Q24.94 7.70 25.36 7.79L25.36 7.79Q25.79 7.88 26.26 7.88L26.26 7.88Q27.02 7.88 27.46 7.53Q27.90 7.18 27.90 6.59Q27.90 6.00 27.46 5.65Q27.02 5.30 26.26 5.30L26.26 5.30Q25.90 5.30 25.55 5.37Q25.19 5.43 24.82 5.58L24.82 5.58ZM33.04 5.34L33.04 5.34Q33.67 5.46 34.02 5.83Q34.36 6.21 34.36 6.77L34.36 6.77Q34.36 7.62 33.71 8.07Q33.07 8.53 31.86 8.53L31.86 8.53Q31.47 8.53 31.04 8.46Q30.61 8.39 30.13 8.25L30.13 8.25L30.13 7.42Q30.49 7.61 30.90 7.70Q31.30 7.79 31.76 7.79L31.76 7.79Q32.50 7.79 32.92 7.52Q33.33 7.25 33.33 6.77L33.33 6.77Q33.33 6.26 32.95 6.00Q32.57 5.74 31.83 5.74L31.83 5.74L31.24 5.74L31.24 5.00L31.88 5.00Q32.53 5.00 32.86 4.79Q33.19 4.57 33.19 4.16L33.19 4.16Q33.19 3.77 32.85 3.56Q32.50 3.35 31.86 3.35L31.86 3.35Q31.58 3.35 31.23 3.41Q30.88 3.47 30.33 3.63L30.33 3.63L30.33 2.84Q30.83 2.73 31.27 2.67Q31.71 2.60 32.08 2.60L32.08 2.60Q33.07 2.60 33.64 3.01Q34.22 3.41 34.22 4.09L34.22 4.09Q34.22 4.56 33.91 4.89Q33.61 5.22 33.04 5.34Z"></path></svg>