<svg height="16.296875" width="40.6875" xmlns="http://www.w3.org/2000/svg" ><path d="M1.27 13.00L1.27 2.36L2.54 2.36L2.54 8.64L6.29 5.34L7.90 5.34L3.83 8.92L8.07 13.00L6.43 13.00L2.54 9.26L2.54 13.00L1.27 13.00ZM9.30 9.97L9.30 9.97L9.30 5.34L10.55 5.34L10.55 9.93Q10.55 11.01 10.98 11.56Q11.40 12.10 12.25 12.10L12.25 12.10Q13.27 12.10 13.86 11.45Q14.45 10.80 14.45 9.68L14.45 9.68L14.45 5.34L15.71 5.34L15.71 13.00L14.45 13.00L14.45 11.82Q13.99 12.52 13.39 12.85Q12.78 13.19 11.98 13.19L11.98 13.19Q10.66 13.19 9.98 12.37Q9.30 11.55 9.30 9.97ZM12.46 5.15L12.46 5.15ZM18.25 13.00L18.25 5.34L23.09 5.34L23.09 6.35L19.52 6.35L19.52 8.41L22.93 8.41L22.93 9.42L19.52 9.42L19.52 11.99L23.18 11.99L23.18 13.00L18.25 13.00ZM27.43 5.34L27.43 5.34Q28.06 5.46 28.41 5.83Q28.75 6.21 28.75 6.77L28.75 6.77Q28.75 7.62 28.10 8.07Q27.45 8.53 26.24 8.53L26.24 8.53Q25.85 8.53 25.43 8.46Q25.00 8.39 24.52 8.25L24.52 8.25L24.52 7.42Q24.88 7.61 25.28 7.70Q25.69 7.79 26.15 7.79L26.15 7.79Q26.89 7.79 27.30 7.52Q27.71 7.25 27.71 6.77L27.71 6.77Q27.71 6.26 27.33 6.00Q26.95 5.74 26.22 5.74L26.22 5.74L25.63 5.74L25.63 5.00L26.27 5.00Q26.91 5.00 27.24 4.79Q27.58 4.57 27.58 4.16L27.58 4.16Q27.58 3.77 27.23 3.56Q26.89 3.35 26.24 3.35L26.24 3.35Q25.97 3.35 25.62 3.41Q25.27 3.47 24.72 3.63L24.72 3.63L24.72 2.84Q25.22 2.73 25.66 2.67Q26.09 2.60 26.47 2.60L26.47 2.60Q27.45 2.60 28.03 3.01Q28.61 3.41 28.61 4.09L28.61 4.09Q28.61 4.56 28.30 4.89Q27.99 5.22 27.43 5.34ZM33.04 5.34L33.04 5.34Q33.67 5.46 34.02 5.83Q34.36 6.21 34.36 6.77L34.36 6.77Q34.36 7.62 33.71 8.07Q33.07 8.53 31.86 8.53L31.86 8.53Q31.47 8.53 31.04 8.46Q30.61 8.39 30.13 8.25L30.13 8.25L30.13 7.42Q30.49 7.61 30.90 7.70Q31.30 7.79 31.76 7.79L31.76 7.79Q32.50 7.79 32.92 7.52Q33.33 7.25 33.33 6.77L33.33 6.77Q33.33 6.26 32.95 6.00Q32.57 5.74 31.83 5.74L31.83 5.74L31.24 5.74L31.24 5.00L31.88 5.00Q32.53 5.00 32.86 4.79Q33.19 4.57 33.19 4.16L33.19 4.16Q33.19 3.77 32.85 3.56Q32.50 3.35 31.86 3.35L31.86 3.35Q31.58 3.35 31.23 3.41Q30.88 3.47 30.33 3.63L30.33 3.63L30.33 2.84Q30.83 2.73 31.27 2.67Q31.71 2.60 32.08 2.60L32.08 2.60Q33.07 2.60 33.64 3.01Q34.22 3.41 34.22 4.09L34.22 4.09Q34.22 4.56 33.91 4.89Q33.61 5.22 33.04 5.34ZM38.34 6.41L38.34 3.55L36.22 6.41L38.34 6.41ZM35.51 6.33L38.19 2.72L39.32 2.72L39.32 6.41L40.24 6.41L40.24 7.16L39.32 7.16L39.32 8.43L38.34 8.43L38.34 7.16L35.51 7.16L35.51 6.33Z"></path></svg>