<svg height="16.296875" width="45.69140625" xmlns="http://www.w3.org/2000/svg" ><path d="M1.27 13.00L1.27 2.36L2.54 2.36L2.54 8.64L6.29 5.34L7.90 5.34L3.83 8.92L8.07 13.00L6.43 13.00L2.54 9.26L2.54 13.00L1.27 13.00ZM9.30 9.97L9.30 9.97L9.30 5.34L10.55 5.34L10.55 9.93Q10.55 11.01 10.98 11.56Q11.40 12.10 12.25 12.10L12.25 12.10Q13.27 12.10 13.86 11.45Q14.45 10.80 14.45 9.68L14.45 9.68L14.45 5.34L15.71 5.34L15.71 13.00L14.45 13.00L14.45 11.82Q13.99 12.52 13.39 12.85Q12.78 13.19 11.98 13.19L11.98 13.19Q10.66 13.19 9.98 12.37Q9.30 11.55 9.30 9.97ZM12.46 5.15L12.46 5.15ZM17.75 9.50L17.75 9.50L17.75 8.88L23.54 8.88Q23.45 7.58 22.75 6.90Q22.05 6.22 20.80 6.22L20.80 6.22Q20.08 6.22 19.40 6.40Q18.72 6.58 18.05 6.93L18.05 6.93L18.05 5.74Q18.72 5.46 19.43 5.30Q20.15 5.15 20.88 5.15L20.88 5.15Q22.71 5.15 23.78 6.22Q24.85 7.29 24.85 9.11L24.85 9.11Q24.85 10.99 23.83 12.09Q22.82 13.19 21.10 13.19L21.10 13.19Q19.55 13.19 18.65 12.20Q17.75 11.20 17.75 9.50ZM23.50 9.86L19.01 9.86Q19.02 10.90 19.59 11.51Q20.15 12.13 21.08 12.13L21.08 12.13Q22.13 12.13 22.77 11.53Q23.40 10.94 23.50 9.86L23.50 9.86ZM33.28 8.37L33.28 8.37L33.28 13.00L32.02 13.00L32.02 8.42Q32.02 7.33 31.60 6.79Q31.17 6.25 30.32 6.25L30.32 6.25Q29.31 6.25 28.72 6.90Q28.13 7.55 28.13 8.67L28.13 8.67L28.13 13.00L26.87 13.00L26.87 5.34L28.13 5.34L28.13 6.53Q28.58 5.84 29.19 5.50Q29.80 5.15 30.60 5.15L30.60 5.15Q31.92 5.15 32.60 5.97Q33.28 6.79 33.28 8.37ZM35.44 5.58L35.44 2.72L38.92 2.72L38.92 3.37L36.25 3.37L36.25 4.76Q36.44 4.70 36.64 4.68L36.64 4.68Q36.83 4.65 37.02 4.65L37.02 4.65Q38.12 4.65 38.77 5.17L38.77 5.17Q39.41 5.69 39.41 6.59L39.41 6.59Q39.41 7.51 38.75 8.03L38.75 8.03Q38.09 8.53 36.89 8.53L36.89 8.53Q36.48 8.53 36.05 8.47Q35.62 8.41 35.16 8.29L35.16 8.29L35.16 7.51Q35.55 7.70 35.98 7.79L35.98 7.79Q36.40 7.88 36.87 7.88L36.87 7.88Q37.63 7.88 38.08 7.53Q38.52 7.18 38.52 6.59Q38.52 6.00 38.08 5.65Q37.63 5.30 36.87 5.30L36.87 5.30Q36.52 5.30 36.16 5.37Q35.81 5.43 35.44 5.58L35.44 5.58ZM43.66 5.34L43.66 5.34Q44.29 5.46 44.64 5.83Q44.98 6.21 44.98 6.77L44.98 6.77Q44.98 7.62 44.33 8.07Q43.68 8.53 42.47 8.53L42.47 8.53Q42.08 8.53 41.65 8.46Q41.23 8.39 40.75 8.25L40.75 8.25L40.75 7.42Q41.10 7.61 41.51 7.70Q41.92 7.79 42.38 7.79L42.38 7.79Q43.12 7.79 43.53 7.52Q43.94 7.25 43.94 6.77L43.94 6.77Q43.94 6.26 43.56 6.00Q43.18 5.74 42.44 5.74L42.44 5.74L41.86 5.74L41.86 5.00L42.50 5.00Q43.14 5.00 43.47 4.79Q43.80 4.57 43.80 4.16L43.80 4.16Q43.80 3.77 43.46 3.56Q43.12 3.35 42.47 3.35L42.47 3.35Q42.20 3.35 41.85 3.41Q41.50 3.47 40.95 3.63L40.95 3.63L40.95 2.84Q41.45 2.73 41.88 2.67Q42.32 2.60 42.70 2.60L42.70 2.60Q43.68 2.60 44.26 3.01Q44.84 3.41 44.84 4.09L44.84 4.09Q44.84 4.56 44.53 4.89Q44.22 5.22 43.66 5.34Z"></path></svg>