<svg height="16.296875" width="43.9619140625" xmlns="http://www.w3.org/2000/svg" ><path d="M1.27 13.00L1.27 2.36L2.54 2.36L2.54 8.64L6.29 5.34L7.90 5.34L3.83 8.92L8.07 13.00L6.43 13.00L2.54 9.26L2.54 13.00L1.27 13.00ZM9.30 9.97L9.30 9.97L9.30 5.34L10.55 5.34L10.55 9.93Q10.55 11.01 10.98 11.56Q11.40 12.10 12.25 12.10L12.25 12.10Q13.27 12.10 13.86 11.45Q14.45 10.80 14.45 9.68L14.45 9.68L14.45 5.34L15.71 5.34L15.71 13.00L14.45 13.00L14.45 11.82Q13.99 12.52 13.39 12.85Q12.78 13.19 11.98 13.19L11.98 13.19Q10.66 13.19 9.98 12.37Q9.30 11.55 9.30 9.97ZM12.46 5.15L12.46 5.15ZM17.75 9.50L17.75 9.50L17.75 8.88L23.54 8.88Q23.45 7.58 22.75 6.90Q22.05 6.22 20.80 6.22L20.80 6.22Q20.08 6.22 19.40 6.40Q18.72 6.58 18.05 6.93L18.05 6.93L18.05 5.74Q18.72 5.46 19.43 5.30Q20.15 5.15 20.88 5.15L20.88 5.15Q22.71 5.15 23.78 6.22Q24.85 7.29 24.85 9.11L24.85 9.11Q24.85 10.99 23.83 12.09Q22.82 13.19 21.10 13.19L21.10 13.19Q19.55 13.19 18.65 12.20Q17.75 11.20 17.75 9.50ZM23.50 9.86L19.01 9.86Q19.02 10.90 19.59 11.51Q20.15 12.13 21.08 12.13L21.08 12.13Q22.13 12.13 22.77 11.53Q23.40 10.94 23.50 9.86L23.50 9.86ZM27.92 13.00L27.92 7.54L28.35 7.54Q29.66 7.54 30.25 6.76L30.25 6.76Q30.65 6.24 30.65 5.57L30.65 5.57Q30.64 4.66 30.25 4.22L30.25 4.22Q29.57 3.44 28.35 3.44L28.35 3.44Q27.80 3.44 27.26 3.59L27.26 3.59Q26.73 3.73 26.20 4.03L26.20 4.03L26.20 2.85Q26.71 2.61 27.27 2.50L27.27 2.50Q27.82 2.37 28.40 2.37L28.40 2.37Q30.28 2.37 31.23 3.45L31.23 3.45Q31.97 4.30 31.97 5.57L31.97 5.57Q31.97 6.73 31.23 7.52L31.23 7.52Q30.47 8.33 29.31 8.54L29.31 8.54L29.31 13.00L27.92 13.00ZM33.71 5.58L33.71 2.72L37.19 2.72L37.19 3.37L34.52 3.37L34.52 4.76Q34.71 4.70 34.91 4.68L34.91 4.68Q35.10 4.65 35.29 4.65L35.29 4.65Q36.39 4.65 37.04 5.17L37.04 5.17Q37.68 5.69 37.68 6.59L37.68 6.59Q37.68 7.51 37.02 8.03L37.02 8.03Q36.36 8.53 35.16 8.53L35.16 8.53Q34.75 8.53 34.32 8.47Q33.89 8.41 33.43 8.29L33.43 8.29L33.43 7.51Q33.82 7.70 34.25 7.79L34.25 7.79Q34.67 7.88 35.14 7.88L35.14 7.88Q35.90 7.88 36.35 7.53Q36.79 7.18 36.79 6.59Q36.79 6.00 36.35 5.65Q35.90 5.30 35.14 5.30L35.14 5.30Q34.79 5.30 34.43 5.37Q34.08 5.43 33.71 5.58L33.71 5.58ZM39.32 5.58L39.32 2.72L42.81 2.72L42.81 3.37L40.13 3.37L40.13 4.76Q40.33 4.70 40.52 4.68L40.52 4.68Q40.71 4.65 40.91 4.65L40.91 4.65Q42.01 4.65 42.65 5.17L42.65 5.17Q43.29 5.69 43.29 6.59L43.29 6.59Q43.29 7.51 42.63 8.03L42.63 8.03Q41.97 8.53 40.77 8.53L40.77 8.53Q40.36 8.53 39.93 8.47Q39.50 8.41 39.05 8.29L39.05 8.29L39.05 7.51Q39.44 7.70 39.86 7.79L39.86 7.79Q40.28 7.88 40.76 7.88L40.76 7.88Q41.51 7.88 41.96 7.53Q42.40 7.18 42.40 6.59Q42.40 6.00 41.96 5.65Q41.51 5.30 40.76 5.30L40.76 5.30Q40.40 5.30 40.04 5.37Q39.69 5.43 39.32 5.58L39.32 5.58Z"></path></svg>