<svg height="16.296875" width="36.7705078125" xmlns="http://www.w3.org/2000/svg" ><path d="M1.27 13.00L1.27 2.36L2.54 2.36L2.54 8.64L6.29 5.34L7.90 5.34L3.83 8.92L8.07 13.00L6.43 13.00L2.54 9.26L2.54 13.00L1.27 13.00ZM9.30 9.97L9.30 9.97L9.30 5.34L10.55 5.34L10.55 9.93Q10.55 11.01 10.98 11.56Q11.40 12.10 12.25 12.10L12.25 12.10Q13.27 12.10 13.86 11.45Q14.45 10.80 14.45 9.68L14.45 9.68L14.45 5.34L15.71 5.34L15.71 13.00L14.45 13.00L14.45 11.82Q13.99 12.52 13.39 12.85Q12.78 13.19 11.98 13.19L11.98 13.19Q10.66 13.19 9.98 12.37Q9.30 11.55 9.30 9.97ZM12.46 5.15L12.46 5.15ZM23.17 7.52L23.17 7.52L19.84 11.57Q20.12 11.85 20.47 11.99Q20.82 12.13 21.27 12.13L21.27 12.13Q22.27 12.13 22.86 11.33Q23.45 10.54 23.45 9.17L23.45 9.17Q23.45 8.63 23.38 8.23Q23.31 7.83 23.17 7.52ZM19.35 10.83L22.68 6.78Q22.39 6.50 22.04 6.36Q21.69 6.22 21.27 6.22L21.27 6.22Q20.23 6.22 19.66 7.02Q19.08 7.83 19.08 9.27L19.08 9.27Q19.08 9.76 19.14 10.14Q19.21 10.51 19.35 10.83L19.35 10.83ZM17.47 13.10L18.49 11.86Q18.12 11.33 17.94 10.66Q17.75 9.99 17.75 9.17L17.75 9.17Q17.75 7.29 18.69 6.22Q19.62 5.15 21.27 5.15L21.27 5.15Q21.90 5.15 22.45 5.33Q22.99 5.50 23.45 5.86L23.45 5.86L24.40 4.71L25.05 5.25L24.05 6.47Q24.41 7 24.60 7.68Q24.78 8.35 24.78 9.17L24.78 9.17Q24.78 11.05 23.84 12.12Q22.91 13.19 21.27 13.19L21.27 13.19Q20.61 13.19 20.06 13.02Q19.51 12.84 19.08 12.49L19.08 12.49L18.13 13.64L17.47 13.10ZM26.52 5.58L26.52 2.72L30.00 2.72L30.00 3.37L27.33 3.37L27.33 4.76Q27.52 4.70 27.72 4.68L27.72 4.68Q27.91 4.65 28.10 4.65L28.10 4.65Q29.20 4.65 29.85 5.17L29.85 5.17Q30.49 5.69 30.49 6.59L30.49 6.59Q30.49 7.51 29.83 8.03L29.83 8.03Q29.17 8.53 27.97 8.53L27.97 8.53Q27.56 8.53 27.13 8.47Q26.69 8.41 26.24 8.29L26.24 8.29L26.24 7.51Q26.63 7.70 27.06 7.79L27.06 7.79Q27.48 7.88 27.95 7.88L27.95 7.88Q28.71 7.88 29.16 7.53Q29.60 7.18 29.60 6.59Q29.60 6.00 29.16 5.65Q28.71 5.30 27.95 5.30L27.95 5.30Q27.60 5.30 27.24 5.37Q26.89 5.43 26.52 5.58L26.52 5.58ZM34.74 5.34L34.74 5.34Q35.37 5.46 35.71 5.83Q36.06 6.21 36.06 6.77L36.06 6.77Q36.06 7.62 35.41 8.07Q34.76 8.53 33.55 8.53L33.55 8.53Q33.16 8.53 32.73 8.46Q32.31 8.39 31.83 8.25L31.83 8.25L31.83 7.42Q32.18 7.61 32.59 7.70Q33.00 7.79 33.46 7.79L33.46 7.79Q34.20 7.79 34.61 7.52Q35.02 7.25 35.02 6.77L35.02 6.77Q35.02 6.26 34.64 6.00Q34.26 5.74 33.52 5.74L33.52 5.74L32.94 5.74L32.94 5.00L33.58 5.00Q34.22 5.00 34.55 4.79Q34.88 4.57 34.88 4.16L34.88 4.16Q34.88 3.77 34.54 3.56Q34.20 3.35 33.55 3.35L33.55 3.35Q33.28 3.35 32.93 3.41Q32.58 3.47 32.03 3.63L32.03 3.63L32.03 2.84Q32.53 2.73 32.96 2.67Q33.40 2.60 33.78 2.60L33.78 2.60Q34.76 2.60 35.34 3.01Q35.92 3.41 35.92 4.09L35.92 4.09Q35.92 4.56 35.61 4.89Q35.30 5.22 34.74 5.34Z"></path></svg>