<svg height="16.296875" width="29.3056640625" xmlns="http://www.w3.org/2000/svg" ><path d="M1.32 13.00L1.32 2.36L2.58 2.36L2.58 13.00L1.32 13.00ZM9.94 9.15L8.69 9.15Q7.16 9.15 6.58 9.50Q5.99 9.84 5.99 10.68L5.99 10.68Q5.99 11.35 6.43 11.75Q6.87 12.14 7.63 12.14L7.63 12.14Q8.67 12.14 9.31 11.40Q9.94 10.66 9.94 9.43L9.94 9.43L9.94 9.15ZM11.20 8.63L11.20 8.63L11.20 13.00L9.94 13.00L9.94 11.83Q9.51 12.53 8.87 12.86Q8.22 13.19 7.29 13.19L7.29 13.19Q6.12 13.19 5.42 12.53Q4.73 11.87 4.73 10.77L4.73 10.77Q4.73 9.47 5.60 8.82Q6.46 8.16 8.18 8.16L8.18 8.16L9.94 8.16L9.94 8.04Q9.94 7.17 9.37 6.70Q8.80 6.22 7.77 6.22L7.77 6.22Q7.11 6.22 6.49 6.38Q5.87 6.54 5.29 6.85L5.29 6.85L5.29 5.69Q5.98 5.42 6.63 5.29Q7.28 5.15 7.90 5.15L7.90 5.15Q9.56 5.15 10.38 6.02Q11.20 6.88 11.20 8.63ZM8.93 3.63L8.93 3.63L8.54 3.25Q8.39 3.12 8.27 3.05Q8.16 2.99 8.07 2.99L8.07 2.99Q7.81 2.99 7.69 3.24Q7.57 3.49 7.55 4.05L7.55 4.05L6.70 4.05Q6.71 3.12 7.06 2.62Q7.41 2.12 8.03 2.12L8.03 2.12Q8.29 2.12 8.51 2.21Q8.73 2.31 8.98 2.54L8.98 2.54L9.37 2.91Q9.52 3.05 9.64 3.11Q9.75 3.18 9.84 3.18L9.84 3.18Q10.10 3.18 10.22 2.93Q10.34 2.68 10.36 2.12L10.36 2.12L11.21 2.12Q11.20 3.04 10.85 3.54Q10.50 4.05 9.88 4.05L9.88 4.05Q9.62 4.05 9.40 3.95Q9.18 3.86 8.93 3.63ZM13.54 8.43L13.54 7.68L14.93 7.68L14.93 3.50L13.41 3.78L13.41 2.99L14.98 2.72L15.91 2.72L15.91 7.68L17.32 7.68L17.32 8.43L13.54 8.43ZM19.15 8.43L19.15 7.68L20.54 7.68L20.54 3.50L19.02 3.78L19.02 2.99L20.59 2.72L21.53 2.72L21.53 7.68L22.93 7.68L22.93 8.43L19.15 8.43ZM27.28 5.34L27.28 5.34Q27.90 5.46 28.25 5.83Q28.59 6.21 28.59 6.77L28.59 6.77Q28.59 7.62 27.95 8.07Q27.30 8.53 26.09 8.53L26.09 8.53Q25.70 8.53 25.27 8.46Q24.84 8.39 24.36 8.25L24.36 8.25L24.36 7.42Q24.72 7.61 25.13 7.70Q25.53 7.79 25.99 7.79L25.99 7.79Q26.74 7.79 27.15 7.52Q27.56 7.25 27.56 6.77L27.56 6.77Q27.56 6.26 27.18 6.00Q26.80 5.74 26.06 5.74L26.06 5.74L25.47 5.74L25.47 5.00L26.11 5.00Q26.76 5.00 27.09 4.79Q27.42 4.57 27.42 4.16L27.42 4.16Q27.42 3.77 27.08 3.56Q26.74 3.35 26.09 3.35L26.09 3.35Q25.81 3.35 25.46 3.41Q25.12 3.47 24.56 3.63L24.56 3.63L24.56 2.84Q25.06 2.73 25.50 2.67Q25.94 2.60 26.31 2.60L26.31 2.60Q27.30 2.60 27.87 3.01Q28.45 3.41 28.45 4.09L28.45 4.09Q28.45 4.56 28.14 4.89Q27.84 5.22 27.28 5.34Z"></path></svg>