<svg height="16.296875" width="29.61328125" xmlns="http://www.w3.org/2000/svg" ><path d="M1.32 13.00L1.32 2.36L2.58 2.36L2.58 13.00L1.32 13.00ZM10.25 6.50L10.25 6.50L10.25 5.34L11.50 5.34L11.50 13.00L10.25 13.00L10.25 11.85Q9.85 12.53 9.25 12.86Q8.64 13.19 7.79 13.19L7.79 13.19Q6.41 13.19 5.53 12.09Q4.66 10.98 4.66 9.17L4.66 9.17Q4.66 7.37 5.53 6.26Q6.41 5.15 7.79 5.15L7.79 5.15Q8.64 5.15 9.25 5.49Q9.85 5.82 10.25 6.50ZM5.96 9.17L5.96 9.17Q5.96 10.56 6.53 11.35Q7.10 12.14 8.10 12.14L8.10 12.14Q9.10 12.14 9.67 11.35Q10.25 10.56 10.25 9.17L10.25 9.17Q10.25 7.79 9.67 7.00Q9.10 6.21 8.10 6.21L8.10 6.21Q7.10 6.21 6.53 7.00Q5.96 7.79 5.96 9.17ZM9.24 3.63L9.24 3.63L8.85 3.25Q8.70 3.12 8.58 3.05Q8.47 2.99 8.38 2.99L8.38 2.99Q8.12 2.99 8.00 3.24Q7.88 3.49 7.86 4.05L7.86 4.05L7.01 4.05Q7.02 3.12 7.37 2.62Q7.72 2.12 8.34 2.12L8.34 2.12Q8.60 2.12 8.82 2.21Q9.04 2.31 9.29 2.54L9.29 2.54L9.68 2.91Q9.83 3.05 9.94 3.11Q10.06 3.18 10.14 3.18L10.14 3.18Q10.40 3.18 10.53 2.93Q10.65 2.68 10.66 2.12L10.66 2.12L11.52 2.12Q11.50 3.04 11.16 3.54Q10.81 4.05 10.19 4.05L10.19 4.05Q9.93 4.05 9.71 3.95Q9.49 3.86 9.24 3.63ZM13.84 8.43L13.84 7.68L15.24 7.68L15.24 3.50L13.71 3.78L13.71 2.99L15.29 2.72L16.22 2.72L16.22 7.68L17.62 7.68L17.62 8.43L13.84 8.43ZM19.46 8.43L19.46 7.68L20.85 7.68L20.85 3.50L19.33 3.78L19.33 2.99L20.90 2.72L21.83 2.72L21.83 7.68L23.24 7.68L23.24 8.43L19.46 8.43ZM27.58 5.34L27.58 5.34Q28.21 5.46 28.56 5.83Q28.90 6.21 28.90 6.77L28.90 6.77Q28.90 7.62 28.25 8.07Q27.60 8.53 26.39 8.53L26.39 8.53Q26.00 8.53 25.58 8.46Q25.15 8.39 24.67 8.25L24.67 8.25L24.67 7.42Q25.03 7.61 25.43 7.70Q25.84 7.79 26.30 7.79L26.30 7.79Q27.04 7.79 27.45 7.52Q27.86 7.25 27.86 6.77L27.86 6.77Q27.86 6.26 27.48 6.00Q27.10 5.74 26.37 5.74L26.37 5.74L25.78 5.74L25.78 5.00L26.42 5.00Q27.06 5.00 27.40 4.79Q27.73 4.57 27.73 4.16L27.73 4.16Q27.73 3.77 27.38 3.56Q27.04 3.35 26.39 3.35L26.39 3.35Q26.12 3.35 25.77 3.41Q25.42 3.47 24.87 3.63L24.87 3.63L24.87 2.84Q25.37 2.73 25.81 2.67Q26.24 2.60 26.62 2.60L26.62 2.60Q27.60 2.60 28.18 3.01Q28.76 3.41 28.76 4.09L28.76 4.09Q28.76 4.56 28.45 4.89Q28.14 5.22 27.58 5.34Z"></path></svg>