<svg height="16.296875" width="24.0009765625" xmlns="http://www.w3.org/2000/svg" ><path d="M1.32 13.00L1.32 2.36L2.58 2.36L2.58 13.00L1.32 13.00ZM10.25 6.50L10.25 6.50L10.25 5.34L11.50 5.34L11.50 13.00L10.25 13.00L10.25 11.85Q9.85 12.53 9.25 12.86Q8.64 13.19 7.79 13.19L7.79 13.19Q6.41 13.19 5.53 12.09Q4.66 10.98 4.66 9.17L4.66 9.17Q4.66 7.37 5.53 6.26Q6.41 5.15 7.79 5.15L7.79 5.15Q8.64 5.15 9.25 5.49Q9.85 5.82 10.25 6.50ZM5.96 9.17L5.96 9.17Q5.96 10.56 6.53 11.35Q7.10 12.14 8.10 12.14L8.10 12.14Q9.10 12.14 9.67 11.35Q10.25 10.56 10.25 9.17L10.25 9.17Q10.25 7.79 9.67 7.00Q9.10 6.21 8.10 6.21L8.10 6.21Q7.10 6.21 6.53 7.00Q5.96 7.79 5.96 9.17ZM9.24 3.63L9.24 3.63L8.85 3.25Q8.70 3.12 8.58 3.05Q8.47 2.99 8.38 2.99L8.38 2.99Q8.12 2.99 8.00 3.24Q7.88 3.49 7.86 4.05L7.86 4.05L7.01 4.05Q7.02 3.12 7.37 2.62Q7.72 2.12 8.34 2.12L8.34 2.12Q8.60 2.12 8.82 2.21Q9.04 2.31 9.29 2.54L9.29 2.54L9.68 2.91Q9.83 3.05 9.94 3.11Q10.06 3.18 10.14 3.18L10.14 3.18Q10.40 3.18 10.53 2.93Q10.65 2.68 10.66 2.12L10.66 2.12L11.52 2.12Q11.50 3.04 11.16 3.54Q10.81 4.05 10.19 4.05L10.19 4.05Q9.93 4.05 9.71 3.95Q9.49 3.86 9.24 3.63ZM13.75 5.58L13.75 2.72L17.23 2.72L17.23 3.37L14.56 3.37L14.56 4.76Q14.75 4.70 14.95 4.68L14.95 4.68Q15.14 4.65 15.33 4.65L15.33 4.65Q16.43 4.65 17.08 5.17L17.08 5.17Q17.72 5.69 17.72 6.59L17.72 6.59Q17.72 7.51 17.06 8.03L17.06 8.03Q16.40 8.53 15.20 8.53L15.20 8.53Q14.79 8.53 14.36 8.47Q13.92 8.41 13.47 8.29L13.47 8.29L13.47 7.51Q13.86 7.70 14.29 7.79L14.29 7.79Q14.71 7.88 15.18 7.88L15.18 7.88Q15.94 7.88 16.39 7.53Q16.83 7.18 16.83 6.59Q16.83 6.00 16.39 5.65Q15.94 5.30 15.18 5.30L15.18 5.30Q14.83 5.30 14.47 5.37Q14.12 5.43 13.75 5.58L13.75 5.58ZM21.97 5.34L21.97 5.34Q22.60 5.46 22.94 5.83Q23.29 6.21 23.29 6.77L23.29 6.77Q23.29 7.62 22.64 8.07Q21.99 8.53 20.78 8.53L20.78 8.53Q20.39 8.53 19.96 8.46Q19.54 8.39 19.06 8.25L19.06 8.25L19.06 7.42Q19.41 7.61 19.82 7.70Q20.23 7.79 20.69 7.79L20.69 7.79Q21.43 7.79 21.84 7.52Q22.25 7.25 22.25 6.77L22.25 6.77Q22.25 6.26 21.87 6.00Q21.49 5.74 20.75 5.74L20.75 5.74L20.17 5.74L20.17 5.00L20.81 5.00Q21.45 5.00 21.78 4.79Q22.11 4.57 22.11 4.16L22.11 4.16Q22.11 3.77 21.77 3.56Q21.43 3.35 20.78 3.35L20.78 3.35Q20.51 3.35 20.16 3.41Q19.81 3.47 19.26 3.63L19.26 3.63L19.26 2.84Q19.76 2.73 20.19 2.67Q20.63 2.60 21.01 2.60L21.01 2.60Q21.99 2.60 22.57 3.01Q23.15 3.41 23.15 4.09L23.15 4.09Q23.15 4.56 22.84 4.89Q22.53 5.22 21.97 5.34Z"></path></svg>