<svg height="16.296875" width="30.54296875" xmlns="http://www.w3.org/2000/svg" ><path d="M1.32 13.00L1.32 2.36L2.58 2.36L2.58 13.00L1.32 13.00ZM8.89 5.34L11.76 13.00L10.42 13.00L9.73 11.12L6.34 11.12L5.64 13.00L4.31 13.00L7.18 5.34L8.89 5.34ZM8.03 6.57L6.72 10.10L9.34 10.10L8.03 6.57ZM14.51 13.00L14.50 7.54L14.93 7.54Q16.24 7.54 16.83 6.76L16.83 6.76Q17.23 6.24 17.23 5.57L17.23 5.57Q17.22 4.66 16.83 4.22L16.83 4.22Q16.15 3.44 14.93 3.44L14.93 3.44Q14.38 3.44 13.84 3.59L13.84 3.59Q13.31 3.73 12.78 4.03L12.78 4.03L12.78 2.85Q13.30 2.61 13.85 2.50L13.85 2.50Q14.40 2.37 14.98 2.37L14.98 2.37Q16.86 2.37 17.81 3.45L17.81 3.45Q18.55 4.30 18.55 5.57L18.55 5.57Q18.55 6.73 17.81 7.52L17.81 7.52Q17.05 8.33 15.89 8.54L15.89 8.54L15.89 13.00L14.51 13.00ZM20.38 8.43L20.38 7.68L21.78 7.68L21.78 3.50L20.25 3.78L20.25 2.99L21.83 2.72L22.76 2.72L22.76 7.68L24.17 7.68L24.17 8.43L20.38 8.43ZM26.76 7.65L26.76 7.65L29.66 7.65L29.66 8.43L25.57 8.43L25.57 7.68Q25.81 7.46 26.24 7.08L26.24 7.08Q28.59 5.00 28.59 4.35L28.59 4.35Q28.59 3.90 28.23 3.63Q27.88 3.35 27.30 3.35L27.30 3.35Q26.94 3.35 26.52 3.47Q26.11 3.59 25.61 3.83L25.61 3.83L25.61 2.99Q26.14 2.80 26.60 2.70Q27.05 2.60 27.44 2.60L27.44 2.60Q28.43 2.60 29.03 3.06Q29.62 3.51 29.62 4.25L29.62 4.25Q29.62 5.20 27.36 7.14L27.36 7.14Q26.97 7.46 26.76 7.65Z"></path></svg>