<svg height="16.296875" width="22.8046875" xmlns="http://www.w3.org/2000/svg" ><path d="M1.32 13.00L1.32 2.36L2.58 2.36L2.58 13.00L1.32 13.00ZM4.76 6.81L4.76 5.65Q5.28 5.40 5.85 5.28Q6.41 5.15 7.05 5.15L7.05 5.15Q8.78 5.15 9.80 6.24Q10.81 7.33 10.81 9.17L10.81 9.17Q10.81 11.05 9.79 12.12Q8.76 13.19 6.97 13.19L6.97 13.19Q6.38 13.19 5.83 13.07Q5.28 12.95 4.76 12.71L4.76 12.71L4.76 11.54Q5.29 11.83 5.83 11.98Q6.36 12.13 6.91 12.13L6.91 12.13Q8.13 12.13 8.81 11.35Q9.49 10.58 9.49 9.17L9.49 9.17Q9.49 7.77 8.81 7.00Q8.13 6.22 6.91 6.22L6.91 6.22Q6.36 6.22 5.83 6.37Q5.29 6.51 4.76 6.81L4.76 6.81ZM12.55 5.58L12.55 2.72L16.04 2.72L16.04 3.37L13.36 3.37L13.36 4.76Q13.56 4.70 13.75 4.68L13.75 4.68Q13.95 4.65 14.14 4.65L14.14 4.65Q15.24 4.65 15.88 5.17L15.88 5.17Q16.52 5.69 16.52 6.59L16.52 6.59Q16.52 7.51 15.86 8.03L15.86 8.03Q15.20 8.53 14 8.53L14 8.53Q13.59 8.53 13.16 8.47Q12.73 8.41 12.28 8.29L12.28 8.29L12.28 7.51Q12.67 7.70 13.09 7.79L13.09 7.79Q13.51 7.88 13.99 7.88L13.99 7.88Q14.75 7.88 15.19 7.53Q15.63 7.18 15.63 6.59Q15.63 6.00 15.19 5.65Q14.75 5.30 13.99 5.30L13.99 5.30Q13.63 5.30 13.28 5.37Q12.92 5.43 12.55 5.58L12.55 5.58ZM20.77 5.34L20.77 5.34Q21.40 5.46 21.75 5.83Q22.09 6.21 22.09 6.77L22.09 6.77Q22.09 7.62 21.44 8.07Q20.79 8.53 19.58 8.53L19.58 8.53Q19.20 8.53 18.77 8.46Q18.34 8.39 17.86 8.25L17.86 8.25L17.86 7.42Q18.22 7.61 18.62 7.70Q19.03 7.79 19.49 7.79L19.49 7.79Q20.23 7.79 20.64 7.52Q21.05 7.25 21.05 6.77L21.05 6.77Q21.05 6.26 20.68 6.00Q20.30 5.74 19.56 5.74L19.56 5.74L18.97 5.74L18.97 5.00L19.61 5.00Q20.25 5.00 20.59 4.79Q20.92 4.57 20.92 4.16L20.92 4.16Q20.92 3.77 20.58 3.56Q20.23 3.35 19.58 3.35L19.58 3.35Q19.31 3.35 18.96 3.41Q18.61 3.47 18.06 3.63L18.06 3.63L18.06 2.84Q18.56 2.73 19.00 2.67Q19.43 2.60 19.81 2.60L19.81 2.60Q20.79 2.60 21.37 3.01Q21.95 3.41 21.95 4.09L21.95 4.09Q21.95 4.56 21.64 4.89Q21.33 5.22 20.77 5.34Z"></path></svg>