<svg height="16.296875" width="28.4169921875" xmlns="http://www.w3.org/2000/svg" ><path d="M1.32 13.00L1.32 2.36L2.58 2.36L2.58 13.00L1.32 13.00ZM4.76 6.81L4.76 5.65Q5.28 5.40 5.85 5.28Q6.41 5.15 7.05 5.15L7.05 5.15Q8.78 5.15 9.80 6.24Q10.81 7.33 10.81 9.17L10.81 9.17Q10.81 11.05 9.79 12.12Q8.76 13.19 6.97 13.19L6.97 13.19Q6.38 13.19 5.83 13.07Q5.28 12.95 4.76 12.71L4.76 12.71L4.76 11.54Q5.29 11.83 5.83 11.98Q6.36 12.13 6.91 12.13L6.91 12.13Q8.13 12.13 8.81 11.35Q9.49 10.58 9.49 9.17L9.49 9.17Q9.49 7.77 8.81 7.00Q8.13 6.22 6.91 6.22L6.91 6.22Q6.36 6.22 5.83 6.37Q5.29 6.51 4.76 6.81L4.76 6.81ZM12.65 8.43L12.65 7.68L14.04 7.68L14.04 3.50L12.52 3.78L12.52 2.99L14.09 2.72L15.03 2.72L15.03 7.68L16.43 7.68L16.43 8.43L12.65 8.43ZM18.26 8.43L18.26 7.68L19.65 7.68L19.65 3.50L18.13 3.78L18.13 2.99L19.70 2.72L20.64 2.72L20.64 7.68L22.04 7.68L22.04 8.43L18.26 8.43ZM26.39 5.34L26.39 5.34Q27.02 5.46 27.36 5.83Q27.71 6.21 27.71 6.77L27.71 6.77Q27.71 7.62 27.06 8.07Q26.41 8.53 25.20 8.53L25.20 8.53Q24.81 8.53 24.38 8.46Q23.95 8.39 23.47 8.25L23.47 8.25L23.47 7.42Q23.83 7.61 24.24 7.70Q24.64 7.79 25.10 7.79L25.10 7.79Q25.85 7.79 26.26 7.52Q26.67 7.25 26.67 6.77L26.67 6.77Q26.67 6.26 26.29 6.00Q25.91 5.74 25.17 5.74L25.17 5.74L24.58 5.74L24.58 5.00L25.22 5.00Q25.87 5.00 26.20 4.79Q26.53 4.57 26.53 4.16L26.53 4.16Q26.53 3.77 26.19 3.56Q25.85 3.35 25.20 3.35L25.20 3.35Q24.92 3.35 24.58 3.41Q24.23 3.47 23.67 3.63L23.67 3.63L23.67 2.84Q24.17 2.73 24.61 2.67Q25.05 2.60 25.42 2.60L25.42 2.60Q26.41 2.60 26.98 3.01Q27.56 3.41 27.56 4.09L27.56 4.09Q27.56 4.56 27.25 4.89Q26.95 5.22 26.39 5.34Z"></path></svg>