<svg height="16.296875" width="27.5966796875" xmlns="http://www.w3.org/2000/svg" ><path d="M1.32 13.00L1.32 2.36L2.58 2.36L2.58 13.00L1.32 13.00ZM5.16 13.00L5.16 5.34L10.00 5.34L10.00 6.35L6.43 6.35L6.43 8.41L9.84 8.41L9.84 9.42L6.43 9.42L6.43 11.99L10.09 11.99L10.09 13.00L5.16 13.00ZM11.83 8.43L11.83 7.68L13.22 7.68L13.22 3.50L11.70 3.78L11.70 2.99L13.27 2.72L14.21 2.72L14.21 7.68L15.61 7.68L15.61 8.43L11.83 8.43ZM17.44 8.43L17.44 7.68L18.83 7.68L18.83 3.50L17.31 3.78L17.31 2.99L18.88 2.72L19.82 2.72L19.82 7.68L21.22 7.68L21.22 8.43L17.44 8.43ZM25.57 5.34L25.57 5.34Q26.20 5.46 26.54 5.83Q26.89 6.21 26.89 6.77L26.89 6.77Q26.89 7.62 26.24 8.07Q25.59 8.53 24.38 8.53L24.38 8.53Q23.99 8.53 23.56 8.46Q23.13 8.39 22.65 8.25L22.65 8.25L22.65 7.42Q23.01 7.61 23.42 7.70Q23.82 7.79 24.28 7.79L24.28 7.79Q25.03 7.79 25.44 7.52Q25.85 7.25 25.85 6.77L25.85 6.77Q25.85 6.26 25.47 6.00Q25.09 5.74 24.35 5.74L24.35 5.74L23.76 5.74L23.76 5.00L24.40 5.00Q25.05 5.00 25.38 4.79Q25.71 4.57 25.71 4.16L25.71 4.16Q25.71 3.77 25.37 3.56Q25.03 3.35 24.38 3.35L24.38 3.35Q24.10 3.35 23.75 3.41Q23.41 3.47 22.85 3.63L22.85 3.63L22.85 2.84Q23.35 2.73 23.79 2.67Q24.23 2.60 24.60 2.60L24.60 2.60Q25.59 2.60 26.16 3.01Q26.74 3.41 26.74 4.09L26.74 4.09Q26.74 4.56 26.43 4.89Q26.13 5.22 25.57 5.34Z"></path></svg>