<svg height="16.296875" width="32.6005859375" xmlns="http://www.w3.org/2000/svg" ><path d="M1.32 13.00L1.32 2.36L2.58 2.36L2.58 13.00L1.32 13.00ZM4.66 9.50L4.66 9.50L4.66 8.88L10.45 8.88Q10.36 7.58 9.66 6.90Q8.96 6.22 7.71 6.22L7.71 6.22Q6.99 6.22 6.31 6.40Q5.63 6.58 4.96 6.93L4.96 6.93L4.96 5.74Q5.63 5.46 6.34 5.30Q7.05 5.15 7.79 5.15L7.79 5.15Q9.62 5.15 10.69 6.22Q11.76 7.29 11.76 9.11L11.76 9.11Q11.76 10.99 10.74 12.09Q9.73 13.19 8.00 13.19L8.00 13.19Q6.46 13.19 5.56 12.20Q4.66 11.20 4.66 9.50ZM10.40 9.86L5.92 9.86Q5.93 10.90 6.50 11.51Q7.06 12.13 7.99 12.13L7.99 12.13Q9.04 12.13 9.68 11.53Q10.31 10.94 10.40 9.86L10.40 9.86ZM20.19 8.37L20.19 8.37L20.19 13.00L18.93 13.00L18.93 8.42Q18.93 7.33 18.50 6.79Q18.08 6.25 17.23 6.25L17.23 6.25Q16.21 6.25 15.63 6.90Q15.04 7.55 15.04 8.67L15.04 8.67L15.04 13.00L13.77 13.00L13.77 5.34L15.04 5.34L15.04 6.53Q15.49 5.84 16.10 5.50Q16.71 5.15 17.51 5.15L17.51 5.15Q18.83 5.15 19.51 5.97Q20.19 6.79 20.19 8.37ZM22.35 5.58L22.35 2.72L25.83 2.72L25.83 3.37L23.16 3.37L23.16 4.76Q23.35 4.70 23.55 4.68L23.55 4.68Q23.74 4.65 23.93 4.65L23.93 4.65Q25.03 4.65 25.68 5.17L25.68 5.17Q26.32 5.69 26.32 6.59L26.32 6.59Q26.32 7.51 25.66 8.03L25.66 8.03Q25.00 8.53 23.80 8.53L23.80 8.53Q23.39 8.53 22.96 8.47Q22.52 8.41 22.07 8.29L22.07 8.29L22.07 7.51Q22.46 7.70 22.89 7.79L22.89 7.79Q23.31 7.88 23.78 7.88L23.78 7.88Q24.54 7.88 24.99 7.53Q25.43 7.18 25.43 6.59Q25.43 6.00 24.99 5.65Q24.54 5.30 23.78 5.30L23.78 5.30Q23.43 5.30 23.07 5.37Q22.72 5.43 22.35 5.58L22.35 5.58ZM30.57 5.34L30.57 5.34Q31.20 5.46 31.54 5.83Q31.89 6.21 31.89 6.77L31.89 6.77Q31.89 7.62 31.24 8.07Q30.59 8.53 29.38 8.53L29.38 8.53Q28.99 8.53 28.56 8.46Q28.14 8.39 27.66 8.25L27.66 8.25L27.66 7.42Q28.01 7.61 28.42 7.70Q28.83 7.79 29.29 7.79L29.29 7.79Q30.03 7.79 30.44 7.52Q30.85 7.25 30.85 6.77L30.85 6.77Q30.85 6.26 30.47 6.00Q30.09 5.74 29.35 5.74L29.35 5.74L28.77 5.74L28.77 5.00L29.41 5.00Q30.05 5.00 30.38 4.79Q30.71 4.57 30.71 4.16L30.71 4.16Q30.71 3.77 30.37 3.56Q30.03 3.35 29.38 3.35L29.38 3.35Q29.11 3.35 28.76 3.41Q28.41 3.47 27.86 3.63L27.86 3.63L27.86 2.84Q28.36 2.73 28.79 2.67Q29.23 2.60 29.61 2.60L29.61 2.60Q30.59 2.60 31.17 3.01Q31.75 3.41 31.75 4.09L31.75 4.09Q31.75 4.56 31.44 4.89Q31.13 5.22 30.57 5.34Z"></path></svg>