<svg height="16.296875" width="38.212890625" xmlns="http://www.w3.org/2000/svg" ><path d="M1.32 13.00L1.32 2.36L2.58 2.36L2.58 13.00L1.32 13.00ZM4.66 9.50L4.66 9.50L4.66 8.88L10.45 8.88Q10.36 7.58 9.66 6.90Q8.96 6.22 7.71 6.22L7.71 6.22Q6.99 6.22 6.31 6.40Q5.63 6.58 4.96 6.93L4.96 6.93L4.96 5.74Q5.63 5.46 6.34 5.30Q7.05 5.15 7.79 5.15L7.79 5.15Q9.62 5.15 10.69 6.22Q11.76 7.29 11.76 9.11L11.76 9.11Q11.76 10.99 10.74 12.09Q9.73 13.19 8.00 13.19L8.00 13.19Q6.46 13.19 5.56 12.20Q4.66 11.20 4.66 9.50ZM10.40 9.86L5.92 9.86Q5.93 10.90 6.50 11.51Q7.06 12.13 7.99 12.13L7.99 12.13Q9.04 12.13 9.68 11.53Q10.31 10.94 10.40 9.86L10.40 9.86ZM20.19 8.37L20.19 8.37L20.19 13.00L18.93 13.00L18.93 8.42Q18.93 7.33 18.50 6.79Q18.08 6.25 17.23 6.25L17.23 6.25Q16.21 6.25 15.63 6.90Q15.04 7.55 15.04 8.67L15.04 8.67L15.04 13.00L13.77 13.00L13.77 5.34L15.04 5.34L15.04 6.53Q15.49 5.84 16.10 5.50Q16.71 5.15 17.51 5.15L17.51 5.15Q18.83 5.15 19.51 5.97Q20.19 6.79 20.19 8.37ZM22.44 8.43L22.44 7.68L23.84 7.68L23.84 3.50L22.31 3.78L22.31 2.99L23.88 2.72L24.82 2.72L24.82 7.68L26.22 7.68L26.22 8.43L22.44 8.43ZM28.05 8.43L28.05 7.68L29.45 7.68L29.45 3.50L27.92 3.78L27.92 2.99L29.50 2.72L30.43 2.72L30.43 7.68L31.83 7.68L31.83 8.43L28.05 8.43ZM36.18 5.34L36.18 5.34Q36.81 5.46 37.16 5.83Q37.50 6.21 37.50 6.77L37.50 6.77Q37.50 7.62 36.85 8.07Q36.20 8.53 34.99 8.53L34.99 8.53Q34.60 8.53 34.18 8.46Q33.75 8.39 33.27 8.25L33.27 8.25L33.27 7.42Q33.63 7.61 34.03 7.70Q34.44 7.79 34.90 7.79L34.90 7.79Q35.64 7.79 36.05 7.52Q36.46 7.25 36.46 6.77L36.46 6.77Q36.46 6.26 36.08 6.00Q35.70 5.74 34.97 5.74L34.97 5.74L34.38 5.74L34.38 5.00L35.02 5.00Q35.66 5.00 35.99 4.79Q36.33 4.57 36.33 4.16L36.33 4.16Q36.33 3.77 35.98 3.56Q35.64 3.35 34.99 3.35L34.99 3.35Q34.72 3.35 34.37 3.41Q34.02 3.47 33.47 3.63L33.47 3.63L33.47 2.84Q33.97 2.73 34.41 2.67Q34.84 2.60 35.22 2.60L35.22 2.60Q36.20 2.60 36.78 3.01Q37.36 3.41 37.36 4.09L37.36 4.09Q37.36 4.56 37.05 4.89Q36.74 5.22 36.18 5.34Z"></path></svg>