<svg height="16.296875" width="30.87109375" xmlns="http://www.w3.org/2000/svg" ><path d="M1.32 13.00L1.32 2.36L2.58 2.36L2.58 13.00L1.32 13.00ZM4.66 9.50L4.66 9.50L4.66 8.88L10.45 8.88Q10.36 7.58 9.66 6.90Q8.96 6.22 7.71 6.22L7.71 6.22Q6.99 6.22 6.31 6.40Q5.63 6.58 4.96 6.93L4.96 6.93L4.96 5.74Q5.63 5.46 6.34 5.30Q7.05 5.15 7.79 5.15L7.79 5.15Q9.62 5.15 10.69 6.22Q11.76 7.29 11.76 9.11L11.76 9.11Q11.76 10.99 10.74 12.09Q9.73 13.19 8.00 13.19L8.00 13.19Q6.46 13.19 5.56 12.20Q4.66 11.20 4.66 9.50ZM10.40 9.86L5.92 9.86Q5.93 10.90 6.50 11.51Q7.06 12.13 7.99 12.13L7.99 12.13Q9.04 12.13 9.68 11.53Q10.31 10.94 10.40 9.86L10.40 9.86ZM14.83 13.00L14.83 7.54L15.26 7.54Q16.57 7.54 17.16 6.76L17.16 6.76Q17.55 6.24 17.55 5.57L17.55 5.57Q17.55 4.66 17.16 4.22L17.16 4.22Q16.48 3.44 15.26 3.44L15.26 3.44Q14.71 3.44 14.17 3.59L14.17 3.59Q13.64 3.73 13.10 4.03L13.10 4.03L13.10 2.85Q13.62 2.61 14.18 2.50L14.18 2.50Q14.73 2.37 15.31 2.37L15.31 2.37Q17.19 2.37 18.14 3.45L18.14 3.45Q18.88 4.30 18.88 5.57L18.88 5.57Q18.88 6.73 18.14 7.52L18.14 7.52Q17.38 8.33 16.21 8.54L16.21 8.54L16.21 13.00L14.83 13.00ZM20.71 8.43L20.71 7.68L22.11 7.68L22.11 3.50L20.58 3.78L20.58 2.99L22.16 2.72L23.09 2.72L23.09 7.68L24.49 7.68L24.49 8.43L20.71 8.43ZM27.09 7.65L27.09 7.65L29.99 7.65L29.99 8.43L25.90 8.43L25.90 7.68Q26.13 7.46 26.56 7.08L26.56 7.08Q28.92 5.00 28.92 4.35L28.92 4.35Q28.92 3.90 28.56 3.63Q28.21 3.35 27.62 3.35L27.62 3.35Q27.27 3.35 26.85 3.47Q26.43 3.59 25.94 3.83L25.94 3.83L25.94 2.99Q26.47 2.80 26.92 2.70Q27.38 2.60 27.77 2.60L27.77 2.60Q28.76 2.60 29.35 3.06Q29.95 3.51 29.95 4.25L29.95 4.25Q29.95 5.20 27.69 7.14L27.69 7.14Q27.30 7.46 27.09 7.65Z"></path></svg>