<svg height="16.296875" width="23.4541015625" xmlns="http://www.w3.org/2000/svg" ><path d="M1.32 13.00L1.32 2.36L2.58 2.36L2.58 13.00L1.32 13.00ZM6.03 5.34L8.06 8.07L10.09 5.34L11.57 5.34L8.85 8.99Q9.34 9.66 9.64 10.18L9.64 10.18Q10.11 11.00 10.11 11.42L10.11 11.42Q10.11 12.31 9.60 12.75Q9.08 13.19 8.06 13.19L8.06 13.19Q7.03 13.19 6.52 12.75Q6.01 12.31 6.01 11.42L6.01 11.42Q6.01 11.00 6.48 10.18L6.48 10.18Q6.78 9.66 7.27 8.99L7.27 8.99L4.55 5.34L6.03 5.34ZM8.06 12.13L8.06 12.13Q8.52 12.13 8.73 11.94L8.73 11.94Q8.92 11.78 8.92 11.47L8.92 11.47Q8.92 11.25 8.65 10.81L8.65 10.81Q8.44 10.47 8.06 9.99L8.06 9.99Q7.68 10.47 7.46 10.81L7.46 10.81Q7.20 11.25 7.20 11.47L7.20 11.47Q7.20 11.78 7.39 11.94L7.39 11.94Q7.60 12.13 8.06 12.13ZM13.20 5.58L13.20 2.72L16.69 2.72L16.69 3.37L14.01 3.37L14.01 4.76Q14.21 4.70 14.40 4.68L14.40 4.68Q14.59 4.65 14.79 4.65L14.79 4.65Q15.89 4.65 16.53 5.17L16.53 5.17Q17.17 5.69 17.17 6.59L17.17 6.59Q17.17 7.51 16.51 8.03L16.51 8.03Q15.85 8.53 14.65 8.53L14.65 8.53Q14.24 8.53 13.81 8.47Q13.38 8.41 12.93 8.29L12.93 8.29L12.93 7.51Q13.32 7.70 13.74 7.79L13.74 7.79Q14.16 7.88 14.64 7.88L14.64 7.88Q15.39 7.88 15.84 7.53Q16.28 7.18 16.28 6.59Q16.28 6.00 15.84 5.65Q15.39 5.30 14.64 5.30L14.64 5.30Q14.28 5.30 13.92 5.37Q13.57 5.43 13.20 5.58L13.20 5.58ZM21.42 5.34L21.42 5.34Q22.05 5.46 22.40 5.83Q22.74 6.21 22.74 6.77L22.74 6.77Q22.74 7.62 22.09 8.07Q21.44 8.53 20.23 8.53L20.23 8.53Q19.84 8.53 19.42 8.46Q18.99 8.39 18.51 8.25L18.51 8.25L18.51 7.42Q18.87 7.61 19.27 7.70Q19.68 7.79 20.14 7.79L20.14 7.79Q20.88 7.79 21.29 7.52Q21.70 7.25 21.70 6.77L21.70 6.77Q21.70 6.26 21.32 6.00Q20.95 5.74 20.21 5.74L20.21 5.74L19.62 5.74L19.62 5.00L20.26 5.00Q20.90 5.00 21.24 4.79Q21.57 4.57 21.57 4.16L21.57 4.16Q21.57 3.77 21.23 3.56Q20.88 3.35 20.23 3.35L20.23 3.35Q19.96 3.35 19.61 3.41Q19.26 3.47 18.71 3.63L18.71 3.63L18.71 2.84Q19.21 2.73 19.65 2.67Q20.08 2.60 20.46 2.60L20.46 2.60Q21.44 2.60 22.02 3.01Q22.60 3.41 22.60 4.09L22.60 4.09Q22.60 4.56 22.29 4.89Q21.98 5.22 21.42 5.34Z"></path></svg>