<svg height="16.296875" width="29.06640625" xmlns="http://www.w3.org/2000/svg" ><path d="M1.32 13.00L1.32 2.36L2.58 2.36L2.58 13.00L1.32 13.00ZM6.03 5.34L8.06 8.07L10.09 5.34L11.57 5.34L8.85 8.99Q9.34 9.66 9.64 10.18L9.64 10.18Q10.11 11.00 10.11 11.42L10.11 11.42Q10.11 12.31 9.60 12.75Q9.08 13.19 8.06 13.19L8.06 13.19Q7.03 13.19 6.52 12.75Q6.01 12.31 6.01 11.42L6.01 11.42Q6.01 11.00 6.48 10.18L6.48 10.18Q6.78 9.66 7.27 8.99L7.27 8.99L4.55 5.34L6.03 5.34ZM8.06 12.13L8.06 12.13Q8.52 12.13 8.73 11.94L8.73 11.94Q8.92 11.78 8.92 11.47L8.92 11.47Q8.92 11.25 8.65 10.81L8.65 10.81Q8.44 10.47 8.06 9.99L8.06 9.99Q7.68 10.47 7.46 10.81L7.46 10.81Q7.20 11.25 7.20 11.47L7.20 11.47Q7.20 11.78 7.39 11.94L7.39 11.94Q7.60 12.13 8.06 12.13ZM13.30 8.43L13.30 7.68L14.69 7.68L14.69 3.50L13.17 3.78L13.17 2.99L14.74 2.72L15.67 2.72L15.67 7.68L17.08 7.68L17.08 8.43L13.30 8.43ZM18.91 8.43L18.91 7.68L20.30 7.68L20.30 3.50L18.78 3.78L18.78 2.99L20.35 2.72L21.29 2.72L21.29 7.68L22.69 7.68L22.69 8.43L18.91 8.43ZM27.04 5.34L27.04 5.34Q27.67 5.46 28.01 5.83Q28.36 6.21 28.36 6.77L28.36 6.77Q28.36 7.62 27.71 8.07Q27.06 8.53 25.85 8.53L25.85 8.53Q25.46 8.53 25.03 8.46Q24.60 8.39 24.12 8.25L24.12 8.25L24.12 7.42Q24.48 7.61 24.89 7.70Q25.29 7.79 25.75 7.79L25.75 7.79Q26.50 7.79 26.91 7.52Q27.32 7.25 27.32 6.77L27.32 6.77Q27.32 6.26 26.94 6.00Q26.56 5.74 25.82 5.74L25.82 5.74L25.23 5.74L25.23 5.00L25.87 5.00Q26.52 5.00 26.85 4.79Q27.18 4.57 27.18 4.16L27.18 4.16Q27.18 3.77 26.84 3.56Q26.50 3.35 25.85 3.35L25.85 3.35Q25.57 3.35 25.22 3.41Q24.88 3.47 24.32 3.63L24.32 3.63L24.32 2.84Q24.82 2.73 25.26 2.67Q25.70 2.60 26.07 2.60L26.07 2.60Q27.06 2.60 27.63 3.01Q28.21 3.41 28.21 4.09L28.21 4.09Q28.21 4.56 27.90 4.89Q27.60 5.22 27.04 5.34Z"></path></svg>