<svg height="16.296875" width="24.6162109375" xmlns="http://www.w3.org/2000/svg" ><path d="M1.32 13.00L1.32 2.36L2.58 2.36L2.58 13.00L1.32 13.00ZM5.21 13.00L5.21 5.34L6.47 5.34L6.47 13.00L5.21 13.00ZM5.21 3.95L5.21 2.36L6.47 2.36L6.47 3.95L5.21 3.95ZM8.85 8.43L8.85 7.68L10.24 7.68L10.24 3.50L8.72 3.78L8.72 2.99L10.29 2.72L11.22 2.72L11.22 7.68L12.63 7.68L12.63 8.43L8.85 8.43ZM14.46 8.43L14.46 7.68L15.85 7.68L15.85 3.50L14.33 3.78L14.33 2.99L15.90 2.72L16.84 2.72L16.84 7.68L18.24 7.68L18.24 8.43L14.46 8.43ZM22.59 5.34L22.59 5.34Q23.21 5.46 23.56 5.83Q23.91 6.21 23.91 6.77L23.91 6.77Q23.91 7.62 23.26 8.07Q22.61 8.53 21.40 8.53L21.40 8.53Q21.01 8.53 20.58 8.46Q20.15 8.39 19.67 8.25L19.67 8.25L19.67 7.42Q20.03 7.61 20.44 7.70Q20.84 7.79 21.30 7.79L21.30 7.79Q22.05 7.79 22.46 7.52Q22.87 7.25 22.87 6.77L22.87 6.77Q22.87 6.26 22.49 6.00Q22.11 5.74 21.37 5.74L21.37 5.74L20.78 5.74L20.78 5.00L21.42 5.00Q22.07 5.00 22.40 4.79Q22.73 4.57 22.73 4.16L22.73 4.16Q22.73 3.77 22.39 3.56Q22.05 3.35 21.40 3.35L21.40 3.35Q21.12 3.35 20.77 3.41Q20.43 3.47 19.87 3.63L19.87 3.63L19.87 2.84Q20.37 2.73 20.81 2.67Q21.25 2.60 21.62 2.60L21.62 2.60Q22.61 2.60 23.18 3.01Q23.76 3.41 23.76 4.09L23.76 4.09Q23.76 4.56 23.45 4.89Q23.15 5.22 22.59 5.34Z"></path></svg>