<svg height="16.296875" width="33.1953125" xmlns="http://www.w3.org/2000/svg" ><path d="M1.32 13.00L1.32 2.36L2.58 2.36L2.58 13.00L1.32 13.00ZM5.21 13.00L5.21 5.34L6.47 5.34L6.47 13.00L5.21 13.00ZM5.21 3.95L5.21 2.36L6.47 2.36L6.47 3.95L5.21 3.95ZM13.83 9.15L12.58 9.15Q11.05 9.15 10.47 9.50Q9.88 9.84 9.88 10.68L9.88 10.68Q9.88 11.35 10.32 11.75Q10.76 12.14 11.52 12.14L11.52 12.14Q12.56 12.14 13.20 11.40Q13.83 10.66 13.83 9.43L13.83 9.43L13.83 9.15ZM15.09 8.63L15.09 8.63L15.09 13.00L13.83 13.00L13.83 11.83Q13.40 12.53 12.76 12.86Q12.11 13.19 11.18 13.19L11.18 13.19Q10.01 13.19 9.31 12.53Q8.62 11.87 8.62 10.77L8.62 10.77Q8.62 9.47 9.48 8.82Q10.35 8.16 12.07 8.16L12.07 8.16L13.83 8.16L13.83 8.04Q13.83 7.17 13.26 6.70Q12.69 6.22 11.66 6.22L11.66 6.22Q11.00 6.22 10.38 6.38Q9.75 6.54 9.18 6.85L9.18 6.85L9.18 5.69Q9.87 5.42 10.52 5.29Q11.17 5.15 11.79 5.15L11.79 5.15Q13.45 5.15 14.27 6.02Q15.09 6.88 15.09 8.63ZM12.82 3.63L12.82 3.63L12.43 3.25Q12.28 3.12 12.16 3.05Q12.05 2.99 11.96 2.99L11.96 2.99Q11.70 2.99 11.58 3.24Q11.46 3.49 11.44 4.05L11.44 4.05L10.59 4.05Q10.60 3.12 10.95 2.62Q11.30 2.12 11.92 2.12L11.92 2.12Q12.18 2.12 12.40 2.21Q12.62 2.31 12.87 2.54L12.87 2.54L13.26 2.91Q13.41 3.05 13.52 3.11Q13.64 3.18 13.73 3.18L13.73 3.18Q13.99 3.18 14.11 2.93Q14.23 2.68 14.25 2.12L14.25 2.12L15.10 2.12Q15.09 3.04 14.74 3.54Q14.39 4.05 13.77 4.05L13.77 4.05Q13.51 4.05 13.29 3.95Q13.07 3.86 12.82 3.63ZM17.42 8.43L17.42 7.68L18.82 7.68L18.82 3.50L17.29 3.78L17.29 2.99L18.87 2.72L19.80 2.72L19.80 7.68L21.21 7.68L21.21 8.43L17.42 8.43ZM23.04 8.43L23.04 7.68L24.43 7.68L24.43 3.50L22.91 3.78L22.91 2.99L24.48 2.72L25.42 2.72L25.42 7.68L26.82 7.68L26.82 8.43L23.04 8.43ZM31.17 5.34L31.17 5.34Q31.79 5.46 32.14 5.83Q32.48 6.21 32.48 6.77L32.48 6.77Q32.48 7.62 31.83 8.07Q31.19 8.53 29.98 8.53L29.98 8.53Q29.59 8.53 29.16 8.46Q28.73 8.39 28.25 8.25L28.25 8.25L28.25 7.42Q28.61 7.61 29.02 7.70Q29.42 7.79 29.88 7.79L29.88 7.79Q30.63 7.79 31.04 7.52Q31.45 7.25 31.45 6.77L31.45 6.77Q31.45 6.26 31.07 6.00Q30.69 5.74 29.95 5.74L29.95 5.74L29.36 5.74L29.36 5.00L30.00 5.00Q30.65 5.00 30.98 4.79Q31.31 4.57 31.31 4.16L31.31 4.16Q31.31 3.77 30.97 3.56Q30.63 3.35 29.98 3.35L29.98 3.35Q29.70 3.35 29.35 3.41Q29.00 3.47 28.45 3.63L28.45 3.63L28.45 2.84Q28.95 2.73 29.39 2.67Q29.83 2.60 30.20 2.60L30.20 2.60Q31.19 2.60 31.76 3.01Q32.34 3.41 32.34 4.09L32.34 4.09Q32.34 4.56 32.03 4.89Q31.73 5.22 31.17 5.34Z"></path></svg>