<svg height="16.296875" width="34.4326171875" xmlns="http://www.w3.org/2000/svg" ><path d="M1.32 13.00L1.32 2.36L2.58 2.36L2.58 13.00L1.32 13.00ZM5.21 13.00L5.21 5.34L6.47 5.34L6.47 13.00L5.21 13.00ZM5.21 3.95L5.21 2.36L6.47 2.36L6.47 3.95L5.21 3.95ZM12.78 5.34L15.65 13.00L14.31 13.00L13.62 11.12L10.23 11.12L9.53 13.00L8.20 13.00L11.07 5.34L12.78 5.34ZM11.92 6.57L10.61 10.10L13.23 10.10L11.92 6.57ZM18.40 13.00L18.39 7.54L18.82 7.54Q20.13 7.54 20.72 6.76L20.72 6.76Q21.12 6.24 21.12 5.57L21.12 5.57Q21.11 4.66 20.72 4.22L20.72 4.22Q20.04 3.44 18.82 3.44L18.82 3.44Q18.27 3.44 17.73 3.59L17.73 3.59Q17.20 3.73 16.67 4.03L16.67 4.03L16.67 2.85Q17.19 2.61 17.74 2.50L17.74 2.50Q18.29 2.37 18.87 2.37L18.87 2.37Q20.75 2.37 21.70 3.45L21.70 3.45Q22.44 4.30 22.44 5.57L22.44 5.57Q22.44 6.73 21.70 7.52L21.70 7.52Q20.94 8.33 19.78 8.54L19.78 8.54L19.78 13.00L18.40 13.00ZM24.27 8.43L24.27 7.68L25.67 7.68L25.67 3.50L24.14 3.78L24.14 2.99L25.72 2.72L26.65 2.72L26.65 7.68L28.05 7.68L28.05 8.43L24.27 8.43ZM30.65 7.65L30.65 7.65L33.55 7.65L33.55 8.43L29.46 8.43L29.46 7.68Q29.70 7.46 30.13 7.08L30.13 7.08Q32.48 5.00 32.48 4.35L32.48 4.35Q32.48 3.90 32.12 3.63Q31.77 3.35 31.19 3.35L31.19 3.35Q30.83 3.35 30.41 3.47Q30.00 3.59 29.50 3.83L29.50 3.83L29.50 2.99Q30.03 2.80 30.48 2.70Q30.94 2.60 31.33 2.60L31.33 2.60Q32.32 2.60 32.92 3.06Q33.51 3.51 33.51 4.25L33.51 4.25Q33.51 5.20 31.25 7.14L31.25 7.14Q30.86 7.46 30.65 7.65Z"></path></svg>