<svg height="16.296875" width="26.6943359375" xmlns="http://www.w3.org/2000/svg" ><path d="M1.32 13.00L1.32 2.36L2.58 2.36L2.58 13.00L1.32 13.00ZM5.21 13.00L5.21 5.34L6.47 5.34L6.47 13.00L5.21 13.00ZM5.21 3.95L5.21 2.36L6.47 2.36L6.47 3.95L5.21 3.95ZM8.65 6.81L8.65 5.65Q9.17 5.40 9.74 5.28Q10.30 5.15 10.94 5.15L10.94 5.15Q12.67 5.15 13.69 6.24Q14.70 7.33 14.70 9.17L14.70 9.17Q14.70 11.05 13.68 12.12Q12.65 13.19 10.86 13.19L10.86 13.19Q10.27 13.19 9.72 13.07Q9.17 12.95 8.65 12.71L8.65 12.71L8.65 11.54Q9.18 11.83 9.72 11.98Q10.25 12.13 10.80 12.13L10.80 12.13Q12.02 12.13 12.70 11.35Q13.38 10.58 13.38 9.17L13.38 9.17Q13.38 7.77 12.70 7.00Q12.02 6.22 10.80 6.22L10.80 6.22Q10.25 6.22 9.72 6.37Q9.18 6.51 8.65 6.81L8.65 6.81ZM16.44 5.58L16.44 2.72L19.93 2.72L19.93 3.37L17.25 3.37L17.25 4.76Q17.45 4.70 17.64 4.68L17.64 4.68Q17.83 4.65 18.03 4.65L18.03 4.65Q19.13 4.65 19.77 5.17L19.77 5.17Q20.41 5.69 20.41 6.59L20.41 6.59Q20.41 7.51 19.75 8.03L19.75 8.03Q19.09 8.53 17.89 8.53L17.89 8.53Q17.48 8.53 17.05 8.47Q16.62 8.41 16.17 8.29L16.17 8.29L16.17 7.51Q16.56 7.70 16.98 7.79L16.98 7.79Q17.40 7.88 17.88 7.88L17.88 7.88Q18.63 7.88 19.08 7.53Q19.52 7.18 19.52 6.59Q19.52 6.00 19.08 5.65Q18.63 5.30 17.88 5.30L17.88 5.30Q17.52 5.30 17.17 5.37Q16.81 5.43 16.44 5.58L16.44 5.58ZM24.66 5.34L24.66 5.34Q25.29 5.46 25.64 5.83Q25.98 6.21 25.98 6.77L25.98 6.77Q25.98 7.62 25.33 8.07Q24.68 8.53 23.47 8.53L23.47 8.53Q23.08 8.53 22.66 8.46Q22.23 8.39 21.75 8.25L21.75 8.25L21.75 7.42Q22.11 7.61 22.51 7.70Q22.92 7.79 23.38 7.79L23.38 7.79Q24.12 7.79 24.53 7.52Q24.94 7.25 24.94 6.77L24.94 6.77Q24.94 6.26 24.56 6.00Q24.19 5.74 23.45 5.74L23.45 5.74L22.86 5.74L22.86 5.00L23.50 5.00Q24.14 5.00 24.48 4.79Q24.81 4.57 24.81 4.16L24.81 4.16Q24.81 3.77 24.47 3.56Q24.12 3.35 23.47 3.35L23.47 3.35Q23.20 3.35 22.85 3.41Q22.50 3.47 21.95 3.63L21.95 3.63L21.95 2.84Q22.45 2.73 22.89 2.67Q23.32 2.60 23.70 2.60L23.70 2.60Q24.68 2.60 25.26 3.01Q25.84 3.41 25.84 4.09L25.84 4.09Q25.84 4.56 25.53 4.89Q25.22 5.22 24.66 5.34Z"></path></svg>