<svg height="16.296875" width="32.306640625" xmlns="http://www.w3.org/2000/svg" ><path d="M1.32 13.00L1.32 2.36L2.58 2.36L2.58 13.00L1.32 13.00ZM5.21 13.00L5.21 5.34L6.47 5.34L6.47 13.00L5.21 13.00ZM5.21 3.95L5.21 2.36L6.47 2.36L6.47 3.95L5.21 3.95ZM8.65 6.81L8.65 5.65Q9.17 5.40 9.74 5.28Q10.30 5.15 10.94 5.15L10.94 5.15Q12.67 5.15 13.69 6.24Q14.70 7.33 14.70 9.17L14.70 9.17Q14.70 11.05 13.68 12.12Q12.65 13.19 10.86 13.19L10.86 13.19Q10.27 13.19 9.72 13.07Q9.17 12.95 8.65 12.71L8.65 12.71L8.65 11.54Q9.18 11.83 9.72 11.98Q10.25 12.13 10.80 12.13L10.80 12.13Q12.02 12.13 12.70 11.35Q13.38 10.58 13.38 9.17L13.38 9.17Q13.38 7.77 12.70 7.00Q12.02 6.22 10.80 6.22L10.80 6.22Q10.25 6.22 9.72 6.37Q9.18 6.51 8.65 6.81L8.65 6.81ZM16.54 8.43L16.54 7.68L17.93 7.68L17.93 3.50L16.41 3.78L16.41 2.99L17.98 2.72L18.92 2.72L18.92 7.68L20.32 7.68L20.32 8.43L16.54 8.43ZM22.15 8.43L22.15 7.68L23.54 7.68L23.54 3.50L22.02 3.78L22.02 2.99L23.59 2.72L24.53 2.72L24.53 7.68L25.93 7.68L25.93 8.43L22.15 8.43ZM30.28 5.34L30.28 5.34Q30.91 5.46 31.25 5.83Q31.60 6.21 31.60 6.77L31.60 6.77Q31.60 7.62 30.95 8.07Q30.30 8.53 29.09 8.53L29.09 8.53Q28.70 8.53 28.27 8.46Q27.84 8.39 27.36 8.25L27.36 8.25L27.36 7.42Q27.72 7.61 28.13 7.70Q28.53 7.79 28.99 7.79L28.99 7.79Q29.74 7.79 30.15 7.52Q30.56 7.25 30.56 6.77L30.56 6.77Q30.56 6.26 30.18 6.00Q29.80 5.74 29.06 5.74L29.06 5.74L28.47 5.74L28.47 5.00L29.11 5.00Q29.76 5.00 30.09 4.79Q30.42 4.57 30.42 4.16L30.42 4.16Q30.42 3.77 30.08 3.56Q29.74 3.35 29.09 3.35L29.09 3.35Q28.81 3.35 28.46 3.41Q28.12 3.47 27.56 3.63L27.56 3.63L27.56 2.84Q28.06 2.73 28.50 2.67Q28.94 2.60 29.31 2.60L29.31 2.60Q30.30 2.60 30.87 3.01Q31.45 3.41 31.45 4.09L31.45 4.09Q31.45 4.56 31.14 4.89Q30.84 5.22 30.28 5.34Z"></path></svg>