<svg height="16.296875" width="27.34375" xmlns="http://www.w3.org/2000/svg" ><path d="M1.32 13.00L1.32 2.36L2.58 2.36L2.58 13.00L1.32 13.00ZM5.21 13.00L5.21 5.34L6.47 5.34L6.47 13.00L5.21 13.00ZM5.21 3.95L5.21 2.36L6.47 2.36L6.47 3.95L5.21 3.95ZM9.92 5.34L11.95 8.07L13.98 5.34L15.46 5.34L12.74 8.99Q13.23 9.66 13.53 10.18L13.53 10.18Q14 11.00 14 11.42L14 11.42Q14 12.31 13.49 12.75Q12.97 13.19 11.95 13.19L11.95 13.19Q10.92 13.19 10.41 12.75Q9.90 12.31 9.90 11.42L9.90 11.42Q9.90 11.00 10.37 10.18L10.37 10.18Q10.67 9.66 11.16 8.99L11.16 8.99L8.44 5.34L9.92 5.34ZM11.95 12.13L11.95 12.13Q12.41 12.13 12.62 11.94L12.62 11.94Q12.81 11.78 12.81 11.47L12.81 11.47Q12.81 11.25 12.54 10.81L12.54 10.81Q12.33 10.47 11.95 9.99L11.95 9.99Q11.57 10.47 11.35 10.81L11.35 10.81Q11.09 11.25 11.09 11.47L11.09 11.47Q11.09 11.78 11.28 11.94L11.28 11.94Q11.49 12.13 11.95 12.13ZM17.09 5.58L17.09 2.72L20.58 2.72L20.58 3.37L17.90 3.37L17.90 4.76Q18.09 4.70 18.29 4.68L18.29 4.68Q18.48 4.65 18.68 4.65L18.68 4.65Q19.78 4.65 20.42 5.17L20.42 5.17Q21.06 5.69 21.06 6.59L21.06 6.59Q21.06 7.51 20.40 8.03L20.40 8.03Q19.74 8.53 18.54 8.53L18.54 8.53Q18.13 8.53 17.70 8.47Q17.27 8.41 16.82 8.29L16.82 8.29L16.82 7.51Q17.21 7.70 17.63 7.79L17.63 7.79Q18.05 7.88 18.53 7.88L18.53 7.88Q19.28 7.88 19.73 7.53Q20.17 7.18 20.17 6.59Q20.17 6.00 19.73 5.65Q19.28 5.30 18.53 5.30L18.53 5.30Q18.17 5.30 17.81 5.37Q17.46 5.43 17.09 5.58L17.09 5.58ZM25.31 5.34L25.31 5.34Q25.94 5.46 26.29 5.83Q26.63 6.21 26.63 6.77L26.63 6.77Q26.63 7.62 25.98 8.07Q25.33 8.53 24.12 8.53L24.12 8.53Q23.73 8.53 23.31 8.46Q22.88 8.39 22.40 8.25L22.40 8.25L22.40 7.42Q22.76 7.61 23.16 7.70Q23.57 7.79 24.03 7.79L24.03 7.79Q24.77 7.79 25.18 7.52Q25.59 7.25 25.59 6.77L25.59 6.77Q25.59 6.26 25.21 6.00Q24.83 5.74 24.10 5.74L24.10 5.74L23.51 5.74L23.51 5.00L24.15 5.00Q24.79 5.00 25.13 4.79Q25.46 4.57 25.46 4.16L25.46 4.16Q25.46 3.77 25.12 3.56Q24.77 3.35 24.12 3.35L24.12 3.35Q23.85 3.35 23.50 3.41Q23.15 3.47 22.60 3.63L22.60 3.63L22.60 2.84Q23.10 2.73 23.54 2.67Q23.97 2.60 24.35 2.60L24.35 2.60Q25.33 2.60 25.91 3.01Q26.49 3.41 26.49 4.09L26.49 4.09Q26.49 4.56 26.18 4.89Q25.87 5.22 25.31 5.34Z"></path></svg>