<svg height="16.296875" width="32.9560546875" xmlns="http://www.w3.org/2000/svg" ><path d="M1.32 13.00L1.32 2.36L2.58 2.36L2.58 13.00L1.32 13.00ZM5.21 13.00L5.21 5.34L6.47 5.34L6.47 13.00L5.21 13.00ZM5.21 3.95L5.21 2.36L6.47 2.36L6.47 3.95L5.21 3.95ZM9.92 5.34L11.95 8.07L13.98 5.34L15.46 5.34L12.74 8.99Q13.23 9.66 13.53 10.18L13.53 10.18Q14 11.00 14 11.42L14 11.42Q14 12.31 13.49 12.75Q12.97 13.19 11.95 13.19L11.95 13.19Q10.92 13.19 10.41 12.75Q9.90 12.31 9.90 11.42L9.90 11.42Q9.90 11.00 10.37 10.18L10.37 10.18Q10.67 9.66 11.16 8.99L11.16 8.99L8.44 5.34L9.92 5.34ZM11.95 12.13L11.95 12.13Q12.41 12.13 12.62 11.94L12.62 11.94Q12.81 11.78 12.81 11.47L12.81 11.47Q12.81 11.25 12.54 10.81L12.54 10.81Q12.33 10.47 11.95 9.99L11.95 9.99Q11.57 10.47 11.35 10.81L11.35 10.81Q11.09 11.25 11.09 11.47L11.09 11.47Q11.09 11.78 11.28 11.94L11.28 11.94Q11.49 12.13 11.95 12.13ZM17.19 8.43L17.19 7.68L18.58 7.68L18.58 3.50L17.06 3.78L17.06 2.99L18.63 2.72L19.56 2.72L19.56 7.68L20.97 7.68L20.97 8.43L17.19 8.43ZM22.80 8.43L22.80 7.68L24.19 7.68L24.19 3.50L22.67 3.78L22.67 2.99L24.24 2.72L25.18 2.72L25.18 7.68L26.58 7.68L26.58 8.43L22.80 8.43ZM30.93 5.34L30.93 5.34Q31.55 5.46 31.90 5.83Q32.25 6.21 32.25 6.77L32.25 6.77Q32.25 7.62 31.60 8.07Q30.95 8.53 29.74 8.53L29.74 8.53Q29.35 8.53 28.92 8.46Q28.49 8.39 28.01 8.25L28.01 8.25L28.01 7.42Q28.37 7.61 28.78 7.70Q29.18 7.79 29.64 7.79L29.64 7.79Q30.39 7.79 30.80 7.52Q31.21 7.25 31.21 6.77L31.21 6.77Q31.21 6.26 30.83 6.00Q30.45 5.74 29.71 5.74L29.71 5.74L29.12 5.74L29.12 5.00L29.76 5.00Q30.41 5.00 30.74 4.79Q31.07 4.57 31.07 4.16L31.07 4.16Q31.07 3.77 30.73 3.56Q30.39 3.35 29.74 3.35L29.74 3.35Q29.46 3.35 29.11 3.41Q28.77 3.47 28.21 3.63L28.21 3.63L28.21 2.84Q28.71 2.73 29.15 2.67Q29.59 2.60 29.96 2.60L29.96 2.60Q30.95 2.60 31.52 3.01Q32.10 3.41 32.10 4.09L32.10 4.09Q32.10 4.56 31.79 4.89Q31.49 5.22 30.93 5.34Z"></path></svg>