<svg height="16.296875" width="27.876953125" xmlns="http://www.w3.org/2000/svg" ><path d="M1.32 13.00L1.32 2.36L2.58 2.36L2.58 13.00L1.32 13.00ZM5.21 13.00L5.21 5.34L6.47 5.34L6.47 13.00L5.21 13.00ZM5.21 3.95L5.21 2.36L6.47 2.36L6.47 3.95L5.21 3.95ZM15.46 8.37L15.46 8.37L15.46 13.00L14.21 13.00L14.21 8.42Q14.21 7.33 13.78 6.79Q13.36 6.25 12.51 6.25L12.51 6.25Q11.49 6.25 10.90 6.90Q10.32 7.55 10.32 8.67L10.32 8.67L10.32 13.00L9.05 13.00L9.05 5.34L10.32 5.34L10.32 6.53Q10.77 5.84 11.38 5.50Q11.99 5.15 12.79 5.15L12.79 5.15Q14.11 5.15 14.79 5.97Q15.46 6.79 15.46 8.37ZM17.62 5.58L17.62 2.72L21.11 2.72L21.11 3.37L18.44 3.37L18.44 4.76Q18.63 4.70 18.83 4.68L18.83 4.68Q19.02 4.65 19.21 4.65L19.21 4.65Q20.31 4.65 20.95 5.17L20.95 5.17Q21.59 5.69 21.59 6.59L21.59 6.59Q21.59 7.51 20.93 8.03L20.93 8.03Q20.28 8.53 19.07 8.53L19.07 8.53Q18.66 8.53 18.23 8.47Q17.80 8.41 17.35 8.29L17.35 8.29L17.35 7.51Q17.74 7.70 18.16 7.79L18.16 7.79Q18.59 7.88 19.06 7.88L19.06 7.88Q19.82 7.88 20.26 7.53Q20.71 7.18 20.71 6.59Q20.71 6.00 20.26 5.65Q19.82 5.30 19.06 5.30L19.06 5.30Q18.70 5.30 18.35 5.37Q17.99 5.43 17.62 5.58L17.62 5.58ZM25.85 5.34L25.85 5.34Q26.48 5.46 26.82 5.83Q27.17 6.21 27.17 6.77L27.17 6.77Q27.17 7.62 26.52 8.07Q25.87 8.53 24.66 8.53L24.66 8.53Q24.27 8.53 23.84 8.46Q23.41 8.39 22.93 8.25L22.93 8.25L22.93 7.42Q23.29 7.61 23.70 7.70Q24.10 7.79 24.56 7.79L24.56 7.79Q25.31 7.79 25.72 7.52Q26.13 7.25 26.13 6.77L26.13 6.77Q26.13 6.26 25.75 6.00Q25.37 5.74 24.63 5.74L24.63 5.74L24.04 5.74L24.04 5.00L24.68 5.00Q25.33 5.00 25.66 4.79Q25.99 4.57 25.99 4.16L25.99 4.16Q25.99 3.77 25.65 3.56Q25.31 3.35 24.66 3.35L24.66 3.35Q24.38 3.35 24.04 3.41Q23.69 3.47 23.13 3.63L23.13 3.63L23.13 2.84Q23.63 2.73 24.07 2.67Q24.51 2.60 24.88 2.60L24.88 2.60Q25.87 2.60 26.44 3.01Q27.02 3.41 27.02 4.09L27.02 4.09Q27.02 4.56 26.71 4.89Q26.41 5.22 25.85 5.34Z"></path></svg>