<svg height="16.296875" width="33.4892578125" xmlns="http://www.w3.org/2000/svg" ><path d="M1.32 13.00L1.32 2.36L2.58 2.36L2.58 13.00L1.32 13.00ZM5.21 13.00L5.21 5.34L6.47 5.34L6.47 13.00L5.21 13.00ZM5.21 3.95L5.21 2.36L6.47 2.36L6.47 3.95L5.21 3.95ZM15.46 8.37L15.46 8.37L15.46 13.00L14.21 13.00L14.21 8.42Q14.21 7.33 13.78 6.79Q13.36 6.25 12.51 6.25L12.51 6.25Q11.49 6.25 10.90 6.90Q10.32 7.55 10.32 8.67L10.32 8.67L10.32 13.00L9.05 13.00L9.05 5.34L10.32 5.34L10.32 6.53Q10.77 5.84 11.38 5.50Q11.99 5.15 12.79 5.15L12.79 5.15Q14.11 5.15 14.79 5.97Q15.46 6.79 15.46 8.37ZM17.72 8.43L17.72 7.68L19.11 7.68L19.11 3.50L17.59 3.78L17.59 2.99L19.16 2.72L20.10 2.72L20.10 7.68L21.50 7.68L21.50 8.43L17.72 8.43ZM23.33 8.43L23.33 7.68L24.73 7.68L24.73 3.50L23.20 3.78L23.20 2.99L24.77 2.72L25.71 2.72L25.71 7.68L27.11 7.68L27.11 8.43L23.33 8.43ZM31.46 5.34L31.46 5.34Q32.09 5.46 32.43 5.83Q32.78 6.21 32.78 6.77L32.78 6.77Q32.78 7.62 32.13 8.07Q31.48 8.53 30.27 8.53L30.27 8.53Q29.88 8.53 29.45 8.46Q29.03 8.39 28.55 8.25L28.55 8.25L28.55 7.42Q28.90 7.61 29.31 7.70Q29.72 7.79 30.17 7.79L30.17 7.79Q30.92 7.79 31.33 7.52Q31.74 7.25 31.74 6.77L31.74 6.77Q31.74 6.26 31.36 6.00Q30.98 5.74 30.24 5.74L30.24 5.74L29.65 5.74L29.65 5.00L30.30 5.00Q30.94 5.00 31.27 4.79Q31.60 4.57 31.60 4.16L31.60 4.16Q31.60 3.77 31.26 3.56Q30.92 3.35 30.27 3.35L30.27 3.35Q30.00 3.35 29.65 3.41Q29.30 3.47 28.75 3.63L28.75 3.63L28.75 2.84Q29.24 2.73 29.68 2.67Q30.12 2.60 30.50 2.60L30.50 2.60Q31.48 2.60 32.06 3.01Q32.63 3.41 32.63 4.09L32.63 4.09Q32.63 4.56 32.33 4.89Q32.02 5.22 31.46 5.34Z"></path></svg>