<svg height="16.296875" width="31.349609375" xmlns="http://www.w3.org/2000/svg" ><path d="M1.32 13.00L1.32 2.36L2.58 2.36L2.58 13.00L1.32 13.00ZM5.21 13.00L5.21 5.34L6.47 5.34L6.47 13.00L5.21 13.00ZM5.21 3.95L5.21 2.36L6.47 2.36L6.47 3.95L5.21 3.95ZM9.78 6.46L8.57 6.46L8.57 5.34L12.18 5.34L12.18 6.46L11.03 6.46L11.03 11.87L12.18 11.87L12.18 13.00L8.57 13.00L8.57 11.87L9.78 11.87L9.78 6.46ZM15.31 13.00L15.31 7.54L15.74 7.54Q17.05 7.54 17.64 6.76L17.64 6.76Q18.03 6.24 18.03 5.57L18.03 5.57Q18.03 4.66 17.64 4.22L17.64 4.22Q16.96 3.44 15.74 3.44L15.74 3.44Q15.19 3.44 14.65 3.59L14.65 3.59Q14.12 3.73 13.58 4.03L13.58 4.03L13.58 2.85Q14.10 2.61 14.66 2.50L14.66 2.50Q15.21 2.37 15.79 2.37L15.79 2.37Q17.67 2.37 18.61 3.45L18.61 3.45Q19.36 4.30 19.36 5.57L19.36 5.57Q19.36 6.73 18.62 7.52L18.62 7.52Q17.86 8.33 16.69 8.54L16.69 8.54L16.69 13.00L15.31 13.00ZM21.19 8.43L21.19 7.68L22.59 7.68L22.59 3.50L21.06 3.78L21.06 2.99L22.63 2.72L23.57 2.72L23.57 7.68L24.97 7.68L24.97 8.43L21.19 8.43ZM27.57 7.65L27.57 7.65L30.47 7.65L30.47 8.43L26.38 8.43L26.38 7.68Q26.61 7.46 27.04 7.08L27.04 7.08Q29.39 5.00 29.39 4.35L29.39 4.35Q29.39 3.90 29.04 3.63Q28.68 3.35 28.10 3.35L28.10 3.35Q27.75 3.35 27.33 3.47Q26.91 3.59 26.42 3.83L26.42 3.83L26.42 2.99Q26.95 2.80 27.40 2.70Q27.86 2.60 28.25 2.60L28.25 2.60Q29.24 2.60 29.83 3.06Q30.43 3.51 30.43 4.25L30.43 4.25Q30.43 5.20 28.16 7.14L28.16 7.14Q27.78 7.46 27.57 7.65Z"></path></svg>