<svg height="16.296875" width="29.2919921875" xmlns="http://www.w3.org/2000/svg" ><path d="M1.32 13.00L1.32 2.36L2.58 2.36L2.58 13.00L1.32 13.00ZM10.08 7.52L10.08 7.52L6.75 11.57Q7.03 11.85 7.38 11.99Q7.73 12.13 8.18 12.13L8.18 12.13Q9.18 12.13 9.77 11.33Q10.36 10.54 10.36 9.17L10.36 9.17Q10.36 8.63 10.29 8.23Q10.22 7.83 10.08 7.52ZM6.25 10.83L9.59 6.78Q9.30 6.50 8.95 6.36Q8.60 6.22 8.18 6.22L8.18 6.22Q7.14 6.22 6.57 7.02Q5.99 7.83 5.99 9.27L5.99 9.27Q5.99 9.76 6.05 10.14Q6.12 10.51 6.25 10.83L6.25 10.83ZM4.38 13.10L5.40 11.86Q5.03 11.33 4.85 10.66Q4.66 9.99 4.66 9.17L4.66 9.17Q4.66 7.29 5.60 6.22Q6.53 5.15 8.18 5.15L8.18 5.15Q8.81 5.15 9.35 5.33Q9.90 5.50 10.36 5.86L10.36 5.86L11.31 4.71L11.96 5.25L10.96 6.47Q11.32 7 11.50 7.68Q11.69 8.35 11.69 9.17L11.69 9.17Q11.69 11.05 10.75 12.12Q9.82 13.19 8.18 13.19L8.18 13.19Q7.52 13.19 6.97 13.02Q6.42 12.84 5.99 12.49L5.99 12.49L5.04 13.64L4.38 13.10ZM13.52 8.43L13.52 7.68L14.92 7.68L14.92 3.50L13.39 3.78L13.39 2.99L14.96 2.72L15.90 2.72L15.90 7.68L17.30 7.68L17.30 8.43L13.52 8.43ZM19.13 8.43L19.13 7.68L20.53 7.68L20.53 3.50L19.00 3.78L19.00 2.99L20.58 2.72L21.51 2.72L21.51 7.68L22.91 7.68L22.91 8.43L19.13 8.43ZM27.26 5.34L27.26 5.34Q27.89 5.46 28.24 5.83Q28.58 6.21 28.58 6.77L28.58 6.77Q28.58 7.62 27.93 8.07Q27.28 8.53 26.07 8.53L26.07 8.53Q25.68 8.53 25.26 8.46Q24.83 8.39 24.35 8.25L24.35 8.25L24.35 7.42Q24.71 7.61 25.11 7.70Q25.52 7.79 25.98 7.79L25.98 7.79Q26.72 7.79 27.13 7.52Q27.54 7.25 27.54 6.77L27.54 6.77Q27.54 6.26 27.16 6.00Q26.78 5.74 26.04 5.74L26.04 5.74L25.46 5.74L25.46 5.00L26.10 5.00Q26.74 5.00 27.07 4.79Q27.41 4.57 27.41 4.16L27.41 4.16Q27.41 3.77 27.06 3.56Q26.72 3.35 26.07 3.35L26.07 3.35Q25.80 3.35 25.45 3.41Q25.10 3.47 24.55 3.63L24.55 3.63L24.55 2.84Q25.05 2.73 25.48 2.67Q25.92 2.60 26.30 2.60L26.30 2.60Q27.28 2.60 27.86 3.01Q28.44 3.41 28.44 4.09L28.44 4.09Q28.44 4.56 28.13 4.89Q27.82 5.22 27.26 5.34Z"></path></svg>