<svg height="16.296875" width="32.552734375" xmlns="http://www.w3.org/2000/svg" ><path d="M1.32 13.00L1.32 2.36L2.58 2.36L2.58 13.00L1.32 13.00ZM8.18 6.22L8.18 6.22Q7.16 6.22 6.58 7.01Q5.99 7.80 5.99 9.17L5.99 9.17Q5.99 10.55 6.57 11.34Q7.16 12.13 8.18 12.13L8.18 12.13Q9.18 12.13 9.77 11.33Q10.36 10.54 10.36 9.17L10.36 9.17Q10.36 7.81 9.77 7.02Q9.18 6.22 8.18 6.22ZM8.18 5.15L8.18 5.15Q9.82 5.15 10.75 6.22Q11.69 7.29 11.69 9.17L11.69 9.17Q11.69 11.05 10.75 12.12Q9.82 13.19 8.18 13.19L8.18 13.19Q6.53 13.19 5.60 12.12Q4.66 11.05 4.66 9.17L4.66 9.17Q4.66 7.29 5.60 6.22Q6.53 5.15 8.18 5.15ZM20.14 8.37L20.14 8.37L20.14 13.13Q20.14 14.59 19.58 15.25L19.58 15.25Q19.02 15.91 17.79 15.91L17.79 15.91L16.05 15.91L16.05 14.84L17.64 14.84Q18.36 14.84 18.62 14.51L18.62 14.51Q18.88 14.18 18.88 13.13L18.88 13.13L18.88 8.42Q18.88 7.33 18.46 6.79Q18.03 6.25 17.19 6.25L17.19 6.25Q16.17 6.25 15.58 6.90Q14.99 7.55 14.99 8.67L14.99 8.67L14.99 13.00L13.73 13.00L13.73 5.34L14.99 5.34L14.99 6.53Q15.44 5.84 16.05 5.50L16.05 5.50Q16.67 5.15 17.47 5.15L17.47 5.15Q18.79 5.15 19.46 5.97L19.46 5.97Q20.14 6.79 20.14 8.37ZM22.30 5.58L22.30 2.72L25.79 2.72L25.79 3.37L23.11 3.37L23.11 4.76Q23.30 4.70 23.50 4.68L23.50 4.68Q23.69 4.65 23.88 4.65L23.88 4.65Q24.99 4.65 25.63 5.17L25.63 5.17Q26.27 5.69 26.27 6.59L26.27 6.59Q26.27 7.51 25.61 8.03L25.61 8.03Q24.95 8.53 23.75 8.53L23.75 8.53Q23.34 8.53 22.91 8.47Q22.48 8.41 22.03 8.29L22.03 8.29L22.03 7.51Q22.42 7.70 22.84 7.79L22.84 7.79Q23.26 7.88 23.73 7.88L23.73 7.88Q24.49 7.88 24.94 7.53Q25.38 7.18 25.38 6.59Q25.38 6.00 24.94 5.65Q24.49 5.30 23.73 5.30L23.73 5.30Q23.38 5.30 23.02 5.37Q22.67 5.43 22.30 5.58L22.30 5.58ZM30.52 5.34L30.52 5.34Q31.15 5.46 31.50 5.83Q31.84 6.21 31.84 6.77L31.84 6.77Q31.84 7.62 31.19 8.07Q30.54 8.53 29.33 8.53L29.33 8.53Q28.94 8.53 28.52 8.46Q28.09 8.39 27.61 8.25L27.61 8.25L27.61 7.42Q27.97 7.61 28.37 7.70Q28.78 7.79 29.24 7.79L29.24 7.79Q29.98 7.79 30.39 7.52Q30.80 7.25 30.80 6.77L30.80 6.77Q30.80 6.26 30.42 6.00Q30.04 5.74 29.31 5.74L29.31 5.74L28.72 5.74L28.72 5.00L29.36 5.00Q30.00 5.00 30.33 4.79Q30.67 4.57 30.67 4.16L30.67 4.16Q30.67 3.77 30.32 3.56Q29.98 3.35 29.33 3.35L29.33 3.35Q29.06 3.35 28.71 3.41Q28.36 3.47 27.81 3.63L27.81 3.63L27.81 2.84Q28.31 2.73 28.75 2.67Q29.18 2.60 29.56 2.60L29.56 2.60Q30.54 2.60 31.12 3.01Q31.70 3.41 31.70 4.09L31.70 4.09Q31.70 4.56 31.39 4.89Q31.08 5.22 30.52 5.34Z"></path></svg>