<svg height="16.296875" width="38.1650390625" xmlns="http://www.w3.org/2000/svg" ><path d="M1.32 13.00L1.32 2.36L2.58 2.36L2.58 13.00L1.32 13.00ZM8.18 6.22L8.18 6.22Q7.16 6.22 6.58 7.01Q5.99 7.80 5.99 9.17L5.99 9.17Q5.99 10.55 6.57 11.34Q7.16 12.13 8.18 12.13L8.18 12.13Q9.18 12.13 9.77 11.33Q10.36 10.54 10.36 9.17L10.36 9.17Q10.36 7.81 9.77 7.02Q9.18 6.22 8.18 6.22ZM8.18 5.15L8.18 5.15Q9.82 5.15 10.75 6.22Q11.69 7.29 11.69 9.17L11.69 9.17Q11.69 11.05 10.75 12.12Q9.82 13.19 8.18 13.19L8.18 13.19Q6.53 13.19 5.60 12.12Q4.66 11.05 4.66 9.17L4.66 9.17Q4.66 7.29 5.60 6.22Q6.53 5.15 8.18 5.15ZM20.14 8.37L20.14 8.37L20.14 13.13Q20.14 14.59 19.58 15.25L19.58 15.25Q19.02 15.91 17.79 15.91L17.79 15.91L16.05 15.91L16.05 14.84L17.64 14.84Q18.36 14.84 18.62 14.51L18.62 14.51Q18.88 14.18 18.88 13.13L18.88 13.13L18.88 8.42Q18.88 7.33 18.46 6.79Q18.03 6.25 17.19 6.25L17.19 6.25Q16.17 6.25 15.58 6.90Q14.99 7.55 14.99 8.67L14.99 8.67L14.99 13.00L13.73 13.00L13.73 5.34L14.99 5.34L14.99 6.53Q15.44 5.84 16.05 5.50L16.05 5.50Q16.67 5.15 17.47 5.15L17.47 5.15Q18.79 5.15 19.46 5.97L19.46 5.97Q20.14 6.79 20.14 8.37ZM22.39 8.43L22.39 7.68L23.79 7.68L23.79 3.50L22.26 3.78L22.26 2.99L23.84 2.72L24.77 2.72L24.77 7.68L26.17 7.68L26.17 8.43L22.39 8.43ZM28.01 8.43L28.01 7.68L29.40 7.68L29.40 3.50L27.88 3.78L27.88 2.99L29.45 2.72L30.39 2.72L30.39 7.68L31.79 7.68L31.79 8.43L28.01 8.43ZM36.13 5.34L36.13 5.34Q36.76 5.46 37.11 5.83Q37.45 6.21 37.45 6.77L37.45 6.77Q37.45 7.62 36.80 8.07Q36.16 8.53 34.95 8.53L34.95 8.53Q34.56 8.53 34.13 8.46Q33.70 8.39 33.22 8.25L33.22 8.25L33.22 7.42Q33.58 7.61 33.98 7.70Q34.39 7.79 34.85 7.79L34.85 7.79Q35.59 7.79 36.00 7.52Q36.42 7.25 36.42 6.77L36.42 6.77Q36.42 6.26 36.04 6.00Q35.66 5.74 34.92 5.74L34.92 5.74L34.33 5.74L34.33 5.00L34.97 5.00Q35.62 5.00 35.95 4.79Q36.28 4.57 36.28 4.16L36.28 4.16Q36.28 3.77 35.94 3.56Q35.59 3.35 34.95 3.35L34.95 3.35Q34.67 3.35 34.32 3.41Q33.97 3.47 33.42 3.63L33.42 3.63L33.42 2.84Q33.92 2.73 34.36 2.67Q34.79 2.60 35.17 2.60L35.17 2.60Q36.16 2.60 36.73 3.01Q37.31 3.41 37.31 4.09L37.31 4.09Q37.31 4.56 37.00 4.89Q36.70 5.22 36.13 5.34Z"></path></svg>