<svg height="16.296875" width="30.8232421875" xmlns="http://www.w3.org/2000/svg" ><path d="M1.32 13.00L1.32 2.36L2.58 2.36L2.58 13.00L1.32 13.00ZM8.18 6.22L8.18 6.22Q7.16 6.22 6.58 7.01Q5.99 7.80 5.99 9.17L5.99 9.17Q5.99 10.55 6.57 11.34Q7.16 12.13 8.18 12.13L8.18 12.13Q9.18 12.13 9.77 11.33Q10.36 10.54 10.36 9.17L10.36 9.17Q10.36 7.81 9.77 7.02Q9.18 6.22 8.18 6.22ZM8.18 5.15L8.18 5.15Q9.82 5.15 10.75 6.22Q11.69 7.29 11.69 9.17L11.69 9.17Q11.69 11.05 10.75 12.12Q9.82 13.19 8.18 13.19L8.18 13.19Q6.53 13.19 5.60 12.12Q4.66 11.05 4.66 9.17L4.66 9.17Q4.66 7.29 5.60 6.22Q6.53 5.15 8.18 5.15ZM14.79 13.00L14.78 7.54L15.21 7.54Q16.52 7.54 17.11 6.76L17.11 6.76Q17.51 6.24 17.51 5.57L17.51 5.57Q17.50 4.66 17.11 4.22L17.11 4.22Q16.43 3.44 15.21 3.44L15.21 3.44Q14.66 3.44 14.12 3.59L14.12 3.59Q13.59 3.73 13.06 4.03L13.06 4.03L13.06 2.85Q13.58 2.61 14.13 2.50L14.13 2.50Q14.68 2.37 15.26 2.37L15.26 2.37Q17.14 2.37 18.09 3.45L18.09 3.45Q18.83 4.30 18.83 5.57L18.83 5.57Q18.83 6.73 18.09 7.52L18.09 7.52Q17.33 8.33 16.17 8.54L16.17 8.54L16.17 13.00L14.79 13.00ZM20.67 8.43L20.67 7.68L22.06 7.68L22.06 3.50L20.54 3.78L20.54 2.99L22.11 2.72L23.04 2.72L23.04 7.68L24.45 7.68L24.45 8.43L20.67 8.43ZM27.04 7.65L27.04 7.65L29.94 7.65L29.94 8.43L25.85 8.43L25.85 7.68Q26.09 7.46 26.52 7.08L26.52 7.08Q28.87 5.00 28.87 4.35L28.87 4.35Q28.87 3.90 28.51 3.63Q28.16 3.35 27.58 3.35L27.58 3.35Q27.22 3.35 26.80 3.47Q26.39 3.59 25.89 3.83L25.89 3.83L25.89 2.99Q26.42 2.80 26.88 2.70Q27.33 2.60 27.72 2.60L27.72 2.60Q28.71 2.60 29.31 3.06Q29.90 3.51 29.90 4.25L29.90 4.25Q29.90 5.20 27.64 7.14L27.64 7.14Q27.25 7.46 27.04 7.65Z"></path></svg>