<svg height="16.296875" width="23.9873046875" xmlns="http://www.w3.org/2000/svg" ><path d="M1.32 13.00L1.32 2.36L2.58 2.36L2.58 13.00L1.32 13.00ZM5.08 9.97L5.08 9.97L5.08 5.34L6.34 5.34L6.34 9.93Q6.34 11.01 6.76 11.56Q7.18 12.10 8.03 12.10L8.03 12.10Q9.05 12.10 9.64 11.45Q10.23 10.80 10.23 9.68L10.23 9.68L10.23 5.34L11.49 5.34L11.49 13.00L10.23 13.00L10.23 11.82Q9.78 12.52 9.17 12.85Q8.57 13.19 7.77 13.19L7.77 13.19Q6.45 13.19 5.76 12.37Q5.08 11.55 5.08 9.97ZM8.24 5.15L8.24 5.15ZM13.73 5.58L13.73 2.72L17.22 2.72L17.22 3.37L14.55 3.37L14.55 4.76Q14.74 4.70 14.94 4.68L14.94 4.68Q15.13 4.65 15.32 4.65L15.32 4.65Q16.42 4.65 17.06 5.17L17.06 5.17Q17.71 5.69 17.71 6.59L17.71 6.59Q17.71 7.51 17.04 8.03L17.04 8.03Q16.39 8.53 15.18 8.53L15.18 8.53Q14.77 8.53 14.34 8.47Q13.91 8.41 13.46 8.29L13.46 8.29L13.46 7.51Q13.85 7.70 14.27 7.79L14.27 7.79Q14.70 7.88 15.17 7.88L15.17 7.88Q15.93 7.88 16.37 7.53Q16.82 7.18 16.82 6.59Q16.82 6.00 16.37 5.65Q15.93 5.30 15.17 5.30L15.17 5.30Q14.81 5.30 14.46 5.37Q14.10 5.43 13.73 5.58L13.73 5.58ZM21.96 5.34L21.96 5.34Q22.59 5.46 22.93 5.83Q23.28 6.21 23.28 6.77L23.28 6.77Q23.28 7.62 22.63 8.07Q21.98 8.53 20.77 8.53L20.77 8.53Q20.38 8.53 19.95 8.46Q19.52 8.39 19.04 8.25L19.04 8.25L19.04 7.42Q19.40 7.61 19.81 7.70Q20.21 7.79 20.67 7.79L20.67 7.79Q21.42 7.79 21.83 7.52Q22.24 7.25 22.24 6.77L22.24 6.77Q22.24 6.26 21.86 6.00Q21.48 5.74 20.74 5.74L20.74 5.74L20.15 5.74L20.15 5.00L20.79 5.00Q21.44 5.00 21.77 4.79Q22.10 4.57 22.10 4.16L22.10 4.16Q22.10 3.77 21.76 3.56Q21.42 3.35 20.77 3.35L20.77 3.35Q20.49 3.35 20.15 3.41Q19.80 3.47 19.24 3.63L19.24 3.63L19.24 2.84Q19.74 2.73 20.18 2.67Q20.62 2.60 20.99 2.60L20.99 2.60Q21.98 2.60 22.56 3.01Q23.13 3.41 23.13 4.09L23.13 4.09Q23.13 4.56 22.83 4.89Q22.52 5.22 21.96 5.34Z"></path></svg>