<svg height="16.296875" width="29.599609375" xmlns="http://www.w3.org/2000/svg" ><path d="M1.32 13.00L1.32 2.36L2.58 2.36L2.58 13.00L1.32 13.00ZM5.08 9.97L5.08 9.97L5.08 5.34L6.34 5.34L6.34 9.93Q6.34 11.01 6.76 11.56Q7.18 12.10 8.03 12.10L8.03 12.10Q9.05 12.10 9.64 11.45Q10.23 10.80 10.23 9.68L10.23 9.68L10.23 5.34L11.49 5.34L11.49 13.00L10.23 13.00L10.23 11.82Q9.78 12.52 9.17 12.85Q8.57 13.19 7.77 13.19L7.77 13.19Q6.45 13.19 5.76 12.37Q5.08 11.55 5.08 9.97ZM8.24 5.15L8.24 5.15ZM13.83 8.43L13.83 7.68L15.22 7.68L15.22 3.50L13.70 3.78L13.70 2.99L15.27 2.72L16.21 2.72L16.21 7.68L17.61 7.68L17.61 8.43L13.83 8.43ZM19.44 8.43L19.44 7.68L20.84 7.68L20.84 3.50L19.31 3.78L19.31 2.99L20.88 2.72L21.82 2.72L21.82 7.68L23.22 7.68L23.22 8.43L19.44 8.43ZM27.57 5.34L27.57 5.34Q28.20 5.46 28.54 5.83Q28.89 6.21 28.89 6.77L28.89 6.77Q28.89 7.62 28.24 8.07Q27.59 8.53 26.38 8.53L26.38 8.53Q25.99 8.53 25.56 8.46Q25.14 8.39 24.66 8.25L24.66 8.25L24.66 7.42Q25.01 7.61 25.42 7.70Q25.83 7.79 26.28 7.79L26.28 7.79Q27.03 7.79 27.44 7.52Q27.85 7.25 27.85 6.77L27.85 6.77Q27.85 6.26 27.47 6.00Q27.09 5.74 26.35 5.74L26.35 5.74L25.76 5.74L25.76 5.00L26.41 5.00Q27.05 5.00 27.38 4.79Q27.71 4.57 27.71 4.16L27.71 4.16Q27.71 3.77 27.37 3.56Q27.03 3.35 26.38 3.35L26.38 3.35Q26.11 3.35 25.76 3.41Q25.41 3.47 24.86 3.63L24.86 3.63L24.86 2.84Q25.35 2.73 25.79 2.67Q26.23 2.60 26.61 2.60L26.61 2.60Q27.59 2.60 28.17 3.01Q28.75 3.41 28.75 4.09L28.75 4.09Q28.75 4.56 28.44 4.89Q28.13 5.22 27.57 5.34Z"></path></svg>