<svg height="16.296875" width="24.8623046875" xmlns="http://www.w3.org/2000/svg" ><path d="M7.28 6.81L7.28 6.81Q7.75 5.96 8.41 5.56Q9.06 5.15 9.95 5.15L9.95 5.15Q11.15 5.15 11.80 5.99Q12.45 6.83 12.45 8.37L12.45 8.37L12.45 13.00L11.18 13.00L11.18 8.42Q11.18 7.31 10.79 6.78Q10.40 6.25 9.60 6.25L9.60 6.25Q8.63 6.25 8.06 6.90Q7.49 7.55 7.49 8.67L7.49 8.67L7.49 13.00L6.23 13.00L6.23 8.42Q6.23 7.31 5.84 6.78Q5.45 6.25 4.63 6.25L4.63 6.25Q3.67 6.25 3.10 6.90Q2.54 7.55 2.54 8.67L2.54 8.67L2.54 13.00L1.27 13.00L1.27 5.34L2.54 5.34L2.54 6.53Q2.97 5.82 3.57 5.49Q4.17 5.15 5.00 5.15L5.00 5.15Q5.83 5.15 6.42 5.58Q7 6.00 7.28 6.81ZM9.67 13.65L10.60 13.65L10.60 16.36L9.67 16.36L9.67 13.65ZM14.61 5.58L14.61 2.72L18.09 2.72L18.09 3.37L15.42 3.37L15.42 4.76Q15.61 4.70 15.81 4.68L15.81 4.68Q16.00 4.65 16.19 4.65L16.19 4.65Q17.29 4.65 17.94 5.17L17.94 5.17Q18.58 5.69 18.58 6.59L18.58 6.59Q18.58 7.51 17.92 8.03L17.92 8.03Q17.26 8.53 16.06 8.53L16.06 8.53Q15.65 8.53 15.22 8.47Q14.79 8.41 14.33 8.29L14.33 8.29L14.33 7.51Q14.72 7.70 15.15 7.79L15.15 7.79Q15.57 7.88 16.04 7.88L16.04 7.88Q16.80 7.88 17.25 7.53Q17.69 7.18 17.69 6.59Q17.69 6.00 17.25 5.65Q16.80 5.30 16.04 5.30L16.04 5.30Q15.69 5.30 15.33 5.37Q14.98 5.43 14.61 5.58L14.61 5.58ZM22.83 5.34L22.83 5.34Q23.46 5.46 23.81 5.83Q24.15 6.21 24.15 6.77L24.15 6.77Q24.15 7.62 23.50 8.07Q22.85 8.53 21.64 8.53L21.64 8.53Q21.25 8.53 20.83 8.46Q20.40 8.39 19.92 8.25L19.92 8.25L19.92 7.42Q20.28 7.61 20.68 7.70Q21.09 7.79 21.55 7.79L21.55 7.79Q22.29 7.79 22.70 7.52Q23.11 7.25 23.11 6.77L23.11 6.77Q23.11 6.26 22.73 6.00Q22.35 5.74 21.62 5.74L21.62 5.74L21.03 5.74L21.03 5.00L21.67 5.00Q22.31 5.00 22.64 4.79Q22.98 4.57 22.98 4.16L22.98 4.16Q22.98 3.77 22.63 3.56Q22.29 3.35 21.64 3.35L21.64 3.35Q21.37 3.35 21.02 3.41Q20.67 3.47 20.12 3.63L20.12 3.63L20.12 2.84Q20.62 2.73 21.05 2.67Q21.49 2.60 21.87 2.60L21.87 2.60Q22.85 2.60 23.43 3.01Q24.01 3.41 24.01 4.09L24.01 4.09Q24.01 4.56 23.70 4.89Q23.39 5.22 22.83 5.34Z"></path></svg>