<svg height="16.296875" width="39.34765625" xmlns="http://www.w3.org/2000/svg" ><path d="M7.68 8.37L7.68 8.37L7.68 13.00L6.43 13.00L6.43 8.42Q6.43 7.33 6.00 6.79Q5.58 6.25 4.73 6.25L4.73 6.25Q3.71 6.25 3.12 6.90Q2.54 7.55 2.54 8.67L2.54 8.67L2.54 13.00L1.27 13.00L1.27 5.13Q1.27 3.67 1.83 3.01Q2.39 2.36 3.62 2.36L3.62 2.36L5.36 2.36L5.36 3.42L3.78 3.42Q3.06 3.42 2.80 3.76Q2.54 4.09 2.54 5.13L2.54 5.13L2.54 6.53Q2.99 5.84 3.60 5.50Q4.21 5.15 5.01 5.15L5.01 5.15Q6.33 5.15 7.01 5.97Q7.68 6.79 7.68 8.37ZM16.15 6.81L16.15 6.81Q16.63 5.96 17.28 5.56Q17.94 5.15 18.83 5.15L18.83 5.15Q20.02 5.15 20.67 5.99Q21.32 6.83 21.32 8.37L21.32 8.37L21.32 13.00L20.06 13.00L20.06 8.42Q20.06 7.31 19.67 6.78Q19.28 6.25 18.48 6.25L18.48 6.25Q17.50 6.25 16.93 6.90Q16.37 7.55 16.37 8.67L16.37 8.67L16.37 13.00L15.10 13.00L15.10 8.42Q15.10 7.31 14.71 6.78Q14.32 6.25 13.51 6.25L13.51 6.25Q12.54 6.25 11.98 6.90Q11.41 7.55 11.41 8.67L11.41 8.67L11.41 13.00L10.14 13.00L10.14 5.34L11.41 5.34L11.41 6.53Q11.84 5.82 12.44 5.49Q13.04 5.15 13.87 5.15L13.87 5.15Q14.70 5.15 15.29 5.58Q15.87 6.00 16.15 6.81ZM18.55 13.65L19.48 13.65L19.48 16.36L18.55 16.36L18.55 13.65ZM23.58 8.43L23.58 7.68L24.97 7.68L24.97 3.50L23.45 3.78L23.45 2.99L25.02 2.72L25.96 2.72L25.96 7.68L27.36 7.68L27.36 8.43L23.58 8.43ZM29.19 8.43L29.19 7.68L30.58 7.68L30.58 3.50L29.06 3.78L29.06 2.99L30.63 2.72L31.57 2.72L31.57 7.68L32.97 7.68L32.97 8.43L29.19 8.43ZM37.32 5.34L37.32 5.34Q37.95 5.46 38.29 5.83Q38.64 6.21 38.64 6.77L38.64 6.77Q38.64 7.62 37.99 8.07Q37.34 8.53 36.13 8.53L36.13 8.53Q35.74 8.53 35.31 8.46Q34.88 8.39 34.41 8.25L34.41 8.25L34.41 7.42Q34.76 7.61 35.17 7.70Q35.57 7.79 36.03 7.79L36.03 7.79Q36.78 7.79 37.19 7.52Q37.60 7.25 37.60 6.77L37.60 6.77Q37.60 6.26 37.22 6.00Q36.84 5.74 36.10 5.74L36.10 5.74L35.51 5.74L35.51 5.00L36.16 5.00Q36.80 5.00 37.13 4.79Q37.46 4.57 37.46 4.16L37.46 4.16Q37.46 3.77 37.12 3.56Q36.78 3.35 36.13 3.35L36.13 3.35Q35.85 3.35 35.51 3.41Q35.16 3.47 34.60 3.63L34.60 3.63L34.60 2.84Q35.10 2.73 35.54 2.67Q35.98 2.60 36.35 2.60L36.35 2.60Q37.34 2.60 37.92 3.01Q38.49 3.41 38.49 4.09L38.49 4.09Q38.49 4.56 38.19 4.89Q37.88 5.22 37.32 5.34Z"></path></svg>