<svg height="16.296875" width="33.1474609375" xmlns="http://www.w3.org/2000/svg" ><path d="M7.28 6.81L7.28 6.81Q7.75 5.96 8.41 5.56Q9.06 5.15 9.95 5.15L9.95 5.15Q11.15 5.15 11.80 5.99Q12.45 6.83 12.45 8.37L12.45 8.37L12.45 13.00L11.18 13.00L11.18 8.42Q11.18 7.31 10.79 6.78Q10.40 6.25 9.60 6.25L9.60 6.25Q8.63 6.25 8.06 6.90Q7.49 7.55 7.49 8.67L7.49 8.67L7.49 13.00L6.23 13.00L6.23 8.42Q6.23 7.31 5.84 6.78Q5.45 6.25 4.63 6.25L4.63 6.25Q3.67 6.25 3.10 6.90Q2.54 7.55 2.54 8.67L2.54 8.67L2.54 13.00L1.27 13.00L1.27 5.34L2.54 5.34L2.54 6.53Q2.97 5.82 3.57 5.49Q4.17 5.15 5.00 5.15L5.00 5.15Q5.83 5.15 6.42 5.58Q7 6.00 7.28 6.81ZM18.63 5.34L21.51 13.00L20.17 13.00L19.48 11.12L16.08 11.12L15.39 13.00L14.05 13.00L16.93 5.34L18.63 5.34ZM17.78 6.57L16.47 10.10L19.09 10.10L17.78 6.57ZM22.89 5.58L22.89 2.72L26.38 2.72L26.38 3.37L23.71 3.37L23.71 4.76Q23.90 4.70 24.10 4.68L24.10 4.68Q24.29 4.65 24.48 4.65L24.48 4.65Q25.58 4.65 26.22 5.17L26.22 5.17Q26.87 5.69 26.87 6.59L26.87 6.59Q26.87 7.51 26.20 8.03L26.20 8.03Q25.55 8.53 24.34 8.53L24.34 8.53Q23.93 8.53 23.50 8.47Q23.07 8.41 22.62 8.29L22.62 8.29L22.62 7.51Q23.01 7.70 23.43 7.79L23.43 7.79Q23.86 7.88 24.33 7.88L24.33 7.88Q25.09 7.88 25.53 7.53Q25.98 7.18 25.98 6.59Q25.98 6.00 25.53 5.65Q25.09 5.30 24.33 5.30L24.33 5.30Q23.97 5.30 23.62 5.37Q23.26 5.43 22.89 5.58L22.89 5.58ZM31.12 5.34L31.12 5.34Q31.75 5.46 32.09 5.83Q32.44 6.21 32.44 6.77L32.44 6.77Q32.44 7.62 31.79 8.07Q31.14 8.53 29.93 8.53L29.93 8.53Q29.54 8.53 29.11 8.46Q28.68 8.39 28.21 8.25L28.21 8.25L28.21 7.42Q28.56 7.61 28.97 7.70Q29.37 7.79 29.83 7.79L29.83 7.79Q30.58 7.79 30.99 7.52Q31.40 7.25 31.40 6.77L31.40 6.77Q31.40 6.26 31.02 6.00Q30.64 5.74 29.90 5.74L29.90 5.74L29.31 5.74L29.31 5.00L29.96 5.00Q30.60 5.00 30.93 4.79Q31.26 4.57 31.26 4.16L31.26 4.16Q31.26 3.77 30.92 3.56Q30.58 3.35 29.93 3.35L29.93 3.35Q29.65 3.35 29.31 3.41Q28.96 3.47 28.40 3.63L28.40 3.63L28.40 2.84Q28.90 2.73 29.34 2.67Q29.78 2.60 30.15 2.60L30.15 2.60Q31.14 2.60 31.72 3.01Q32.29 3.41 32.29 4.09L32.29 4.09Q32.29 4.56 31.99 4.89Q31.68 5.22 31.12 5.34Z"></path></svg>