<svg height="16.296875" width="38.759765625" xmlns="http://www.w3.org/2000/svg" ><path d="M7.28 6.81L7.28 6.81Q7.75 5.96 8.41 5.56Q9.06 5.15 9.95 5.15L9.95 5.15Q11.15 5.15 11.80 5.99Q12.45 6.83 12.45 8.37L12.45 8.37L12.45 13.00L11.18 13.00L11.18 8.42Q11.18 7.31 10.79 6.78Q10.40 6.25 9.60 6.25L9.60 6.25Q8.63 6.25 8.06 6.90Q7.49 7.55 7.49 8.67L7.49 8.67L7.49 13.00L6.23 13.00L6.23 8.42Q6.23 7.31 5.84 6.78Q5.45 6.25 4.63 6.25L4.63 6.25Q3.67 6.25 3.10 6.90Q2.54 7.55 2.54 8.67L2.54 8.67L2.54 13.00L1.27 13.00L1.27 5.34L2.54 5.34L2.54 6.53Q2.97 5.82 3.57 5.49Q4.17 5.15 5.00 5.15L5.00 5.15Q5.83 5.15 6.42 5.58Q7 6.00 7.28 6.81ZM18.63 5.34L21.51 13.00L20.17 13.00L19.48 11.12L16.08 11.12L15.39 13.00L14.05 13.00L16.93 5.34L18.63 5.34ZM17.78 6.57L16.47 10.10L19.09 10.10L17.78 6.57ZM22.99 8.43L22.99 7.68L24.38 7.68L24.38 3.50L22.86 3.78L22.86 2.99L24.43 2.72L25.37 2.72L25.37 7.68L26.77 7.68L26.77 8.43L22.99 8.43ZM28.60 8.43L28.60 7.68L30.00 7.68L30.00 3.50L28.47 3.78L28.47 2.99L30.04 2.72L30.98 2.72L30.98 7.68L32.38 7.68L32.38 8.43L28.60 8.43ZM36.73 5.34L36.73 5.34Q37.36 5.46 37.70 5.83Q38.05 6.21 38.05 6.77L38.05 6.77Q38.05 7.62 37.40 8.07Q36.75 8.53 35.54 8.53L35.54 8.53Q35.15 8.53 34.72 8.46Q34.30 8.39 33.82 8.25L33.82 8.25L33.82 7.42Q34.17 7.61 34.58 7.70Q34.99 7.79 35.44 7.79L35.44 7.79Q36.19 7.79 36.60 7.52Q37.01 7.25 37.01 6.77L37.01 6.77Q37.01 6.26 36.63 6.00Q36.25 5.74 35.51 5.74L35.51 5.74L34.92 5.74L34.92 5.00L35.57 5.00Q36.21 5.00 36.54 4.79Q36.87 4.57 36.87 4.16L36.87 4.16Q36.87 3.77 36.53 3.56Q36.19 3.35 35.54 3.35L35.54 3.35Q35.27 3.35 34.92 3.41Q34.57 3.47 34.02 3.63L34.02 3.63L34.02 2.84Q34.51 2.73 34.95 2.67Q35.39 2.60 35.77 2.60L35.77 2.60Q36.75 2.60 37.33 3.01Q37.91 3.41 37.91 4.09L37.91 4.09Q37.91 4.56 37.60 4.89Q37.29 5.22 36.73 5.34Z"></path></svg>