<svg height="16.296875" width="39.0537109375" xmlns="http://www.w3.org/2000/svg" ><path d="M7.28 6.81L7.28 6.81Q7.75 5.96 8.41 5.56Q9.06 5.15 9.95 5.15L9.95 5.15Q11.15 5.15 11.80 5.99Q12.45 6.83 12.45 8.37L12.45 8.37L12.45 13.00L11.18 13.00L11.18 8.42Q11.18 7.31 10.79 6.78Q10.40 6.25 9.60 6.25L9.60 6.25Q8.63 6.25 8.06 6.90Q7.49 7.55 7.49 8.67L7.49 8.67L7.49 13.00L6.23 13.00L6.23 8.42Q6.23 7.31 5.84 6.78Q5.45 6.25 4.63 6.25L4.63 6.25Q3.67 6.25 3.10 6.90Q2.54 7.55 2.54 8.67L2.54 8.67L2.54 13.00L1.27 13.00L1.27 5.34L2.54 5.34L2.54 6.53Q2.97 5.82 3.57 5.49Q4.17 5.15 5.00 5.15L5.00 5.15Q5.83 5.15 6.42 5.58Q7 6.00 7.28 6.81ZM19.69 9.15L18.44 9.15Q16.91 9.15 16.32 9.50Q15.74 9.84 15.74 10.68L15.74 10.68Q15.74 11.35 16.18 11.75Q16.62 12.14 17.38 12.14L17.38 12.14Q18.42 12.14 19.06 11.40Q19.69 10.66 19.69 9.43L19.69 9.43L19.69 9.15ZM20.95 8.63L20.95 8.63L20.95 13.00L19.69 13.00L19.69 11.83Q19.26 12.53 18.61 12.86Q17.97 13.19 17.04 13.19L17.04 13.19Q15.87 13.19 15.17 12.53Q14.48 11.87 14.48 10.77L14.48 10.77Q14.48 9.47 15.34 8.82Q16.21 8.16 17.92 8.16L17.92 8.16L19.69 8.16L19.69 8.04Q19.69 7.17 19.12 6.70Q18.55 6.22 17.51 6.22L17.51 6.22Q16.86 6.22 16.24 6.38Q15.61 6.54 15.04 6.85L15.04 6.85L15.04 5.69Q15.73 5.42 16.38 5.29Q17.03 5.15 17.64 5.15L17.64 5.15Q19.30 5.15 20.13 6.02Q20.95 6.88 20.95 8.63ZM18.68 3.63L18.68 3.63L18.29 3.25Q18.14 3.12 18.02 3.05Q17.91 2.99 17.82 2.99L17.82 2.99Q17.56 2.99 17.44 3.24Q17.32 3.49 17.30 4.05L17.30 4.05L16.45 4.05Q16.46 3.12 16.81 2.62Q17.16 2.12 17.78 2.12L17.78 2.12Q18.04 2.12 18.26 2.21Q18.48 2.31 18.73 2.54L18.73 2.54L19.12 2.91Q19.27 3.05 19.38 3.11Q19.50 3.18 19.58 3.18L19.58 3.18Q19.84 3.18 19.97 2.93Q20.09 2.68 20.10 2.12L20.10 2.12L20.96 2.12Q20.95 3.04 20.60 3.54Q20.25 4.05 19.63 4.05L19.63 4.05Q19.37 4.05 19.15 3.95Q18.93 3.86 18.68 3.63ZM23.28 8.43L23.28 7.68L24.68 7.68L24.68 3.50L23.15 3.78L23.15 2.99L24.73 2.72L25.66 2.72L25.66 7.68L27.06 7.68L27.06 8.43L23.28 8.43ZM28.90 8.43L28.90 7.68L30.29 7.68L30.29 3.50L28.77 3.78L28.77 2.99L30.34 2.72L31.27 2.72L31.27 7.68L32.68 7.68L32.68 8.43L28.90 8.43ZM37.02 5.34L37.02 5.34Q37.65 5.46 38.00 5.83Q38.34 6.21 38.34 6.77L38.34 6.77Q38.34 7.62 37.69 8.07Q37.04 8.53 35.83 8.53L35.83 8.53Q35.44 8.53 35.02 8.46Q34.59 8.39 34.11 8.25L34.11 8.25L34.11 7.42Q34.47 7.61 34.87 7.70Q35.28 7.79 35.74 7.79L35.74 7.79Q36.48 7.79 36.89 7.52Q37.30 7.25 37.30 6.77L37.30 6.77Q37.30 6.26 36.92 6.00Q36.54 5.74 35.81 5.74L35.81 5.74L35.22 5.74L35.22 5.00L35.86 5.00Q36.50 5.00 36.84 4.79Q37.17 4.57 37.17 4.16L37.17 4.16Q37.17 3.77 36.83 3.56Q36.48 3.35 35.83 3.35L35.83 3.35Q35.56 3.35 35.21 3.41Q34.86 3.47 34.31 3.63L34.31 3.63L34.31 2.84Q34.81 2.73 35.25 2.67Q35.68 2.60 36.06 2.60L36.06 2.60Q37.04 2.60 37.62 3.01Q38.20 3.41 38.20 4.09L38.20 4.09Q38.20 4.56 37.89 4.89Q37.58 5.22 37.02 5.34Z"></path></svg>