<svg height="16.296875" width="39.361328125" xmlns="http://www.w3.org/2000/svg" ><path d="M7.28 6.81L7.28 6.81Q7.75 5.96 8.41 5.56Q9.06 5.15 9.95 5.15L9.95 5.15Q11.15 5.15 11.80 5.99Q12.45 6.83 12.45 8.37L12.45 8.37L12.45 13.00L11.18 13.00L11.18 8.42Q11.18 7.31 10.79 6.78Q10.40 6.25 9.60 6.25L9.60 6.25Q8.63 6.25 8.06 6.90Q7.49 7.55 7.49 8.67L7.49 8.67L7.49 13.00L6.23 13.00L6.23 8.42Q6.23 7.31 5.84 6.78Q5.45 6.25 4.63 6.25L4.63 6.25Q3.67 6.25 3.10 6.90Q2.54 7.55 2.54 8.67L2.54 8.67L2.54 13.00L1.27 13.00L1.27 5.34L2.54 5.34L2.54 6.53Q2.97 5.82 3.57 5.49Q4.17 5.15 5.00 5.15L5.00 5.15Q5.83 5.15 6.42 5.58Q7 6.00 7.28 6.81ZM20.00 6.50L20.00 6.50L20.00 5.34L21.25 5.34L21.25 13.00L20.00 13.00L20.00 11.85Q19.60 12.53 18.99 12.86Q18.39 13.19 17.54 13.19L17.54 13.19Q16.15 13.19 15.28 12.09Q14.41 10.98 14.41 9.17L14.41 9.17Q14.41 7.37 15.28 6.26Q16.15 5.15 17.54 5.15L17.54 5.15Q18.39 5.15 18.99 5.49Q19.60 5.82 20.00 6.50ZM15.71 9.17L15.71 9.17Q15.71 10.56 16.28 11.35Q16.85 12.14 17.85 12.14L17.85 12.14Q18.85 12.14 19.42 11.35Q20.00 10.56 20.00 9.17L20.00 9.17Q20.00 7.79 19.42 7.00Q18.85 6.21 17.85 6.21L17.85 6.21Q16.85 6.21 16.28 7.00Q15.71 7.79 15.71 9.17ZM18.98 3.63L18.98 3.63L18.59 3.25Q18.44 3.12 18.33 3.05Q18.22 2.99 18.13 2.99L18.13 2.99Q17.87 2.99 17.75 3.24Q17.62 3.49 17.61 4.05L17.61 4.05L16.75 4.05Q16.77 3.12 17.12 2.62Q17.47 2.12 18.09 2.12L18.09 2.12Q18.35 2.12 18.57 2.21Q18.79 2.31 19.04 2.54L19.04 2.54L19.43 2.91Q19.58 3.05 19.69 3.11Q19.80 3.18 19.89 3.18L19.89 3.18Q20.15 3.18 20.28 2.93Q20.40 2.68 20.41 2.12L20.41 2.12L21.27 2.12Q21.25 3.04 20.90 3.54Q20.56 4.05 19.93 4.05L19.93 4.05Q19.67 4.05 19.46 3.95Q19.24 3.86 18.98 3.63ZM23.59 8.43L23.59 7.68L24.99 7.68L24.99 3.50L23.46 3.78L23.46 2.99L25.03 2.72L25.97 2.72L25.97 7.68L27.37 7.68L27.37 8.43L23.59 8.43ZM29.20 8.43L29.20 7.68L30.60 7.68L30.60 3.50L29.07 3.78L29.07 2.99L30.65 2.72L31.58 2.72L31.58 7.68L32.98 7.68L32.98 8.43L29.20 8.43ZM37.33 5.34L37.33 5.34Q37.96 5.46 38.31 5.83Q38.65 6.21 38.65 6.77L38.65 6.77Q38.65 7.62 38.00 8.07Q37.35 8.53 36.14 8.53L36.14 8.53Q35.75 8.53 35.32 8.46Q34.90 8.39 34.42 8.25L34.42 8.25L34.42 7.42Q34.77 7.61 35.18 7.70Q35.59 7.79 36.05 7.79L36.05 7.79Q36.79 7.79 37.20 7.52Q37.61 7.25 37.61 6.77L37.61 6.77Q37.61 6.26 37.23 6.00Q36.85 5.74 36.11 5.74L36.11 5.74L35.53 5.74L35.53 5.00L36.17 5.00Q36.81 5.00 37.14 4.79Q37.47 4.57 37.47 4.16L37.47 4.16Q37.47 3.77 37.13 3.56Q36.79 3.35 36.14 3.35L36.14 3.35Q35.87 3.35 35.52 3.41Q35.17 3.47 34.62 3.63L34.62 3.63L34.62 2.84Q35.12 2.73 35.55 2.67Q35.99 2.60 36.37 2.60L36.37 2.60Q37.35 2.60 37.93 3.01Q38.51 3.41 38.51 4.09L38.51 4.09Q38.51 4.56 38.20 4.89Q37.89 5.22 37.33 5.34Z"></path></svg>