<svg height="16.296875" width="40.291015625" xmlns="http://www.w3.org/2000/svg" ><path d="M7.28 6.81L7.28 6.81Q7.75 5.96 8.41 5.56Q9.06 5.15 9.95 5.15L9.95 5.15Q11.15 5.15 11.80 5.99Q12.45 6.83 12.45 8.37L12.45 8.37L12.45 13.00L11.18 13.00L11.18 8.42Q11.18 7.31 10.79 6.78Q10.40 6.25 9.60 6.25L9.60 6.25Q8.63 6.25 8.06 6.90Q7.49 7.55 7.49 8.67L7.49 8.67L7.49 13.00L6.23 13.00L6.23 8.42Q6.23 7.31 5.84 6.78Q5.45 6.25 4.63 6.25L4.63 6.25Q3.67 6.25 3.10 6.90Q2.54 7.55 2.54 8.67L2.54 8.67L2.54 13.00L1.27 13.00L1.27 5.34L2.54 5.34L2.54 6.53Q2.97 5.82 3.57 5.49Q4.17 5.15 5.00 5.15L5.00 5.15Q5.83 5.15 6.42 5.58Q7 6.00 7.28 6.81ZM18.63 5.34L21.51 13.00L20.17 13.00L19.48 11.12L16.08 11.12L15.39 13.00L14.05 13.00L16.93 5.34L18.63 5.34ZM17.78 6.57L16.47 10.10L19.09 10.10L17.78 6.57ZM24.25 13.00L24.25 7.54L24.68 7.54Q25.99 7.54 26.58 6.76L26.58 6.76Q26.97 6.24 26.97 5.57L26.97 5.57Q26.97 4.66 26.58 4.22L26.58 4.22Q25.90 3.44 24.68 3.44L24.68 3.44Q24.13 3.44 23.59 3.59L23.59 3.59Q23.06 3.73 22.52 4.03L22.52 4.03L22.52 2.85Q23.04 2.61 23.60 2.50L23.60 2.50Q24.15 2.37 24.73 2.37L24.73 2.37Q26.61 2.37 27.56 3.45L27.56 3.45Q28.30 4.30 28.30 5.57L28.30 5.57Q28.30 6.73 27.56 7.52L27.56 7.52Q26.80 8.33 25.63 8.54L25.63 8.54L25.63 13.00L24.25 13.00ZM30.04 5.58L30.04 2.72L33.52 2.72L33.52 3.37L30.85 3.37L30.85 4.76Q31.04 4.70 31.24 4.68L31.24 4.68Q31.43 4.65 31.62 4.65L31.62 4.65Q32.72 4.65 33.37 5.17L33.37 5.17Q34.01 5.69 34.01 6.59L34.01 6.59Q34.01 7.51 33.35 8.03L33.35 8.03Q32.69 8.53 31.49 8.53L31.49 8.53Q31.08 8.53 30.65 8.47Q30.21 8.41 29.76 8.29L29.76 8.29L29.76 7.51Q30.15 7.70 30.58 7.79L30.58 7.79Q31.00 7.88 31.47 7.88L31.47 7.88Q32.23 7.88 32.68 7.53Q33.12 7.18 33.12 6.59Q33.12 6.00 32.68 5.65Q32.23 5.30 31.47 5.30L31.47 5.30Q31.12 5.30 30.76 5.37Q30.41 5.43 30.04 5.58L30.04 5.58ZM35.65 5.58L35.65 2.72L39.14 2.72L39.14 3.37L36.46 3.37L36.46 4.76Q36.65 4.70 36.85 4.68L36.85 4.68Q37.04 4.65 37.24 4.65L37.24 4.65Q38.34 4.65 38.98 5.17L38.98 5.17Q39.62 5.69 39.62 6.59L39.62 6.59Q39.62 7.51 38.96 8.03L38.96 8.03Q38.30 8.53 37.10 8.53L37.10 8.53Q36.69 8.53 36.26 8.47Q35.83 8.41 35.38 8.29L35.38 8.29L35.38 7.51Q35.77 7.70 36.19 7.79L36.19 7.79Q36.61 7.88 37.08 7.88L37.08 7.88Q37.84 7.88 38.29 7.53Q38.73 7.18 38.73 6.59Q38.73 6.00 38.29 5.65Q37.84 5.30 37.08 5.30L37.08 5.30Q36.73 5.30 36.37 5.37Q36.02 5.43 35.65 5.58L35.65 5.58Z"></path></svg>