<svg height="16.296875" width="40.291015625" xmlns="http://www.w3.org/2000/svg" ><path d="M7.28 6.81L7.28 6.81Q7.75 5.96 8.41 5.56Q9.06 5.15 9.95 5.15L9.95 5.15Q11.15 5.15 11.80 5.99Q12.45 6.83 12.45 8.37L12.45 8.37L12.45 13.00L11.18 13.00L11.18 8.42Q11.18 7.31 10.79 6.78Q10.40 6.25 9.60 6.25L9.60 6.25Q8.63 6.25 8.06 6.90Q7.49 7.55 7.49 8.67L7.49 8.67L7.49 13.00L6.23 13.00L6.23 8.42Q6.23 7.31 5.84 6.78Q5.45 6.25 4.63 6.25L4.63 6.25Q3.67 6.25 3.10 6.90Q2.54 7.55 2.54 8.67L2.54 8.67L2.54 13.00L1.27 13.00L1.27 5.34L2.54 5.34L2.54 6.53Q2.97 5.82 3.57 5.49Q4.17 5.15 5.00 5.15L5.00 5.15Q5.83 5.15 6.42 5.58Q7 6.00 7.28 6.81ZM18.63 5.34L21.51 13.00L20.17 13.00L19.48 11.12L16.08 11.12L15.39 13.00L14.05 13.00L16.93 5.34L18.63 5.34ZM17.78 6.57L16.47 10.10L19.09 10.10L17.78 6.57ZM24.25 13.00L24.25 7.54L24.68 7.54Q25.99 7.54 26.58 6.76L26.58 6.76Q26.97 6.24 26.97 5.57L26.97 5.57Q26.97 4.66 26.58 4.22L26.58 4.22Q25.90 3.44 24.68 3.44L24.68 3.44Q24.13 3.44 23.59 3.59L23.59 3.59Q23.06 3.73 22.52 4.03L22.52 4.03L22.52 2.85Q23.04 2.61 23.60 2.50L23.60 2.50Q24.15 2.37 24.73 2.37L24.73 2.37Q26.61 2.37 27.56 3.45L27.56 3.45Q28.30 4.30 28.30 5.57L28.30 5.57Q28.30 6.73 27.56 7.52L27.56 7.52Q26.80 8.33 25.63 8.54L25.63 8.54L25.63 13.00L24.25 13.00ZM30.13 8.43L30.13 7.68L31.53 7.68L31.53 3.50L30.00 3.78L30.00 2.99L31.58 2.72L32.51 2.72L32.51 7.68L33.91 7.68L33.91 8.43L30.13 8.43ZM36.51 7.65L36.51 7.65L39.41 7.65L39.41 8.43L35.32 8.43L35.32 7.68Q35.55 7.46 35.98 7.08L35.98 7.08Q38.34 5.00 38.34 4.35L38.34 4.35Q38.34 3.90 37.98 3.63Q37.63 3.35 37.04 3.35L37.04 3.35Q36.69 3.35 36.27 3.47Q35.85 3.59 35.36 3.83L35.36 3.83L35.36 2.99Q35.89 2.80 36.34 2.70Q36.80 2.60 37.19 2.60L37.19 2.60Q38.18 2.60 38.77 3.06Q39.37 3.51 39.37 4.25L39.37 4.25Q39.37 5.20 37.11 7.14L37.11 7.14Q36.72 7.46 36.51 7.65Z"></path></svg>