<svg height="16.296875" width="32.552734375" xmlns="http://www.w3.org/2000/svg" ><path d="M7.28 6.81L7.28 6.81Q7.75 5.96 8.41 5.56Q9.06 5.15 9.95 5.15L9.95 5.15Q11.15 5.15 11.80 5.99Q12.45 6.83 12.45 8.37L12.45 8.37L12.45 13.00L11.18 13.00L11.18 8.42Q11.18 7.31 10.79 6.78Q10.40 6.25 9.60 6.25L9.60 6.25Q8.63 6.25 8.06 6.90Q7.49 7.55 7.49 8.67L7.49 8.67L7.49 13.00L6.23 13.00L6.23 8.42Q6.23 7.31 5.84 6.78Q5.45 6.25 4.63 6.25L4.63 6.25Q3.67 6.25 3.10 6.90Q2.54 7.55 2.54 8.67L2.54 8.67L2.54 13.00L1.27 13.00L1.27 5.34L2.54 5.34L2.54 6.53Q2.97 5.82 3.57 5.49Q4.17 5.15 5.00 5.15L5.00 5.15Q5.83 5.15 6.42 5.58Q7 6.00 7.28 6.81ZM14.51 6.81L14.51 5.65Q15.03 5.40 15.60 5.28Q16.16 5.15 16.80 5.15L16.80 5.15Q18.53 5.15 19.54 6.24Q20.56 7.33 20.56 9.17L20.56 9.17Q20.56 11.05 19.53 12.12Q18.50 13.19 16.71 13.19L16.71 13.19Q16.13 13.19 15.58 13.07Q15.03 12.95 14.51 12.71L14.51 12.71L14.51 11.54Q15.04 11.83 15.58 11.98Q16.11 12.13 16.66 12.13L16.66 12.13Q17.88 12.13 18.56 11.35Q19.24 10.58 19.24 9.17L19.24 9.17Q19.24 7.77 18.56 7.00Q17.88 6.22 16.66 6.22L16.66 6.22Q16.11 6.22 15.58 6.37Q15.04 6.51 14.51 6.81L14.51 6.81ZM22.30 5.58L22.30 2.72L25.79 2.72L25.79 3.37L23.11 3.37L23.11 4.76Q23.30 4.70 23.50 4.68L23.50 4.68Q23.69 4.65 23.88 4.65L23.88 4.65Q24.99 4.65 25.63 5.17L25.63 5.17Q26.27 5.69 26.27 6.59L26.27 6.59Q26.27 7.51 25.61 8.03L25.61 8.03Q24.95 8.53 23.75 8.53L23.75 8.53Q23.34 8.53 22.91 8.47Q22.48 8.41 22.03 8.29L22.03 8.29L22.03 7.51Q22.42 7.70 22.84 7.79L22.84 7.79Q23.26 7.88 23.73 7.88L23.73 7.88Q24.49 7.88 24.94 7.53Q25.38 7.18 25.38 6.59Q25.38 6.00 24.94 5.65Q24.49 5.30 23.73 5.30L23.73 5.30Q23.38 5.30 23.02 5.37Q22.67 5.43 22.30 5.58L22.30 5.58ZM30.52 5.34L30.52 5.34Q31.15 5.46 31.50 5.83Q31.84 6.21 31.84 6.77L31.84 6.77Q31.84 7.62 31.19 8.07Q30.54 8.53 29.33 8.53L29.33 8.53Q28.94 8.53 28.52 8.46Q28.09 8.39 27.61 8.25L27.61 8.25L27.61 7.42Q27.97 7.61 28.37 7.70Q28.78 7.79 29.24 7.79L29.24 7.79Q29.98 7.79 30.39 7.52Q30.80 7.25 30.80 6.77L30.80 6.77Q30.80 6.26 30.42 6.00Q30.04 5.74 29.31 5.74L29.31 5.74L28.72 5.74L28.72 5.00L29.36 5.00Q30.00 5.00 30.33 4.79Q30.67 4.57 30.67 4.16L30.67 4.16Q30.67 3.77 30.32 3.56Q29.98 3.35 29.33 3.35L29.33 3.35Q29.06 3.35 28.71 3.41Q28.36 3.47 27.81 3.63L27.81 3.63L27.81 2.84Q28.31 2.73 28.75 2.67Q29.18 2.60 29.56 2.60L29.56 2.60Q30.54 2.60 31.12 3.01Q31.70 3.41 31.70 4.09L31.70 4.09Q31.70 4.56 31.39 4.89Q31.08 5.22 30.52 5.34Z"></path></svg>