<svg height="16.296875" width="38.1650390625" xmlns="http://www.w3.org/2000/svg" ><path d="M7.28 6.81L7.28 6.81Q7.75 5.96 8.41 5.56Q9.06 5.15 9.95 5.15L9.95 5.15Q11.15 5.15 11.80 5.99Q12.45 6.83 12.45 8.37L12.45 8.37L12.45 13.00L11.18 13.00L11.18 8.42Q11.18 7.31 10.79 6.78Q10.40 6.25 9.60 6.25L9.60 6.25Q8.63 6.25 8.06 6.90Q7.49 7.55 7.49 8.67L7.49 8.67L7.49 13.00L6.23 13.00L6.23 8.42Q6.23 7.31 5.84 6.78Q5.45 6.25 4.63 6.25L4.63 6.25Q3.67 6.25 3.10 6.90Q2.54 7.55 2.54 8.67L2.54 8.67L2.54 13.00L1.27 13.00L1.27 5.34L2.54 5.34L2.54 6.53Q2.97 5.82 3.57 5.49Q4.17 5.15 5.00 5.15L5.00 5.15Q5.83 5.15 6.42 5.58Q7 6.00 7.28 6.81ZM14.51 6.81L14.51 5.65Q15.03 5.40 15.60 5.28Q16.16 5.15 16.80 5.15L16.80 5.15Q18.53 5.15 19.54 6.24Q20.56 7.33 20.56 9.17L20.56 9.17Q20.56 11.05 19.53 12.12Q18.50 13.19 16.71 13.19L16.71 13.19Q16.13 13.19 15.58 13.07Q15.03 12.95 14.51 12.71L14.51 12.71L14.51 11.54Q15.04 11.83 15.58 11.98Q16.11 12.13 16.66 12.13L16.66 12.13Q17.88 12.13 18.56 11.35Q19.24 10.58 19.24 9.17L19.24 9.17Q19.24 7.77 18.56 7.00Q17.88 6.22 16.66 6.22L16.66 6.22Q16.11 6.22 15.58 6.37Q15.04 6.51 14.51 6.81L14.51 6.81ZM22.39 8.43L22.39 7.68L23.79 7.68L23.79 3.50L22.26 3.78L22.26 2.99L23.84 2.72L24.77 2.72L24.77 7.68L26.17 7.68L26.17 8.43L22.39 8.43ZM28.01 8.43L28.01 7.68L29.40 7.68L29.40 3.50L27.88 3.78L27.88 2.99L29.45 2.72L30.39 2.72L30.39 7.68L31.79 7.68L31.79 8.43L28.01 8.43ZM36.13 5.34L36.13 5.34Q36.76 5.46 37.11 5.83Q37.45 6.21 37.45 6.77L37.45 6.77Q37.45 7.62 36.80 8.07Q36.16 8.53 34.95 8.53L34.95 8.53Q34.56 8.53 34.13 8.46Q33.70 8.39 33.22 8.25L33.22 8.25L33.22 7.42Q33.58 7.61 33.98 7.70Q34.39 7.79 34.85 7.79L34.85 7.79Q35.59 7.79 36.00 7.52Q36.42 7.25 36.42 6.77L36.42 6.77Q36.42 6.26 36.04 6.00Q35.66 5.74 34.92 5.74L34.92 5.74L34.33 5.74L34.33 5.00L34.97 5.00Q35.62 5.00 35.95 4.79Q36.28 4.57 36.28 4.16L36.28 4.16Q36.28 3.77 35.94 3.56Q35.59 3.35 34.95 3.35L34.95 3.35Q34.67 3.35 34.32 3.41Q33.97 3.47 33.42 3.63L33.42 3.63L33.42 2.84Q33.92 2.73 34.36 2.67Q34.79 2.60 35.17 2.60L35.17 2.60Q36.16 2.60 36.73 3.01Q37.31 3.41 37.31 4.09L37.31 4.09Q37.31 4.56 37.00 4.89Q36.70 5.22 36.13 5.34Z"></path></svg>