<svg height="16.296875" width="37.3447265625" xmlns="http://www.w3.org/2000/svg" ><path d="M7.28 6.81L7.28 6.81Q7.75 5.96 8.41 5.56Q9.06 5.15 9.95 5.15L9.95 5.15Q11.15 5.15 11.80 5.99Q12.45 6.83 12.45 8.37L12.45 8.37L12.45 13.00L11.18 13.00L11.18 8.42Q11.18 7.31 10.79 6.78Q10.40 6.25 9.60 6.25L9.60 6.25Q8.63 6.25 8.06 6.90Q7.49 7.55 7.49 8.67L7.49 8.67L7.49 13.00L6.23 13.00L6.23 8.42Q6.23 7.31 5.84 6.78Q5.45 6.25 4.63 6.25L4.63 6.25Q3.67 6.25 3.10 6.90Q2.54 7.55 2.54 8.67L2.54 8.67L2.54 13.00L1.27 13.00L1.27 5.34L2.54 5.34L2.54 6.53Q2.97 5.82 3.57 5.49Q4.17 5.15 5.00 5.15L5.00 5.15Q5.83 5.15 6.42 5.58Q7 6.00 7.28 6.81ZM14.91 13.00L14.91 5.34L19.75 5.34L19.75 6.35L16.18 6.35L16.18 8.41L19.59 8.41L19.59 9.42L16.18 9.42L16.18 11.99L19.84 11.99L19.84 13.00L14.91 13.00ZM24.09 5.34L24.09 5.34Q24.72 5.46 25.06 5.83Q25.41 6.21 25.41 6.77L25.41 6.77Q25.41 7.62 24.76 8.07Q24.11 8.53 22.90 8.53L22.90 8.53Q22.51 8.53 22.08 8.46Q21.66 8.39 21.18 8.25L21.18 8.25L21.18 7.42Q21.53 7.61 21.94 7.70Q22.35 7.79 22.80 7.79L22.80 7.79Q23.55 7.79 23.96 7.52Q24.37 7.25 24.37 6.77L24.37 6.77Q24.37 6.26 23.99 6.00Q23.61 5.74 22.87 5.74L22.87 5.74L22.29 5.74L22.29 5.00L22.93 5.00Q23.57 5.00 23.90 4.79Q24.23 4.57 24.23 4.16L24.23 4.16Q24.23 3.77 23.89 3.56Q23.55 3.35 22.90 3.35L22.90 3.35Q22.63 3.35 22.28 3.41Q21.93 3.47 21.38 3.63L21.38 3.63L21.38 2.84Q21.88 2.73 22.31 2.67Q22.75 2.60 23.13 2.60L23.13 2.60Q24.11 2.60 24.69 3.01Q25.27 3.41 25.27 4.09L25.27 4.09Q25.27 4.56 24.96 4.89Q24.65 5.22 24.09 5.34ZM29.70 5.34L29.70 5.34Q30.33 5.46 30.68 5.83Q31.02 6.21 31.02 6.77L31.02 6.77Q31.02 7.62 30.37 8.07Q29.72 8.53 28.51 8.53L28.51 8.53Q28.12 8.53 27.70 8.46Q27.27 8.39 26.79 8.25L26.79 8.25L26.79 7.42Q27.15 7.61 27.55 7.70Q27.96 7.79 28.42 7.79L28.42 7.79Q29.16 7.79 29.57 7.52Q29.98 7.25 29.98 6.77L29.98 6.77Q29.98 6.26 29.60 6.00Q29.22 5.74 28.49 5.74L28.49 5.74L27.90 5.74L27.90 5.00L28.54 5.00Q29.18 5.00 29.51 4.79Q29.85 4.57 29.85 4.16L29.85 4.16Q29.85 3.77 29.50 3.56Q29.16 3.35 28.51 3.35L28.51 3.35Q28.24 3.35 27.89 3.41Q27.54 3.47 26.99 3.63L26.99 3.63L26.99 2.84Q27.49 2.73 27.92 2.67Q28.36 2.60 28.74 2.60L28.74 2.60Q29.72 2.60 30.30 3.01Q30.88 3.41 30.88 4.09L30.88 4.09Q30.88 4.56 30.57 4.89Q30.26 5.22 29.70 5.34ZM34.99 6.41L34.99 3.55L32.88 6.41L34.99 6.41ZM32.16 6.33L34.84 2.72L35.98 2.72L35.98 6.41L36.90 6.41L36.90 7.16L35.98 7.16L35.98 8.43L34.99 8.43L34.99 7.16L32.16 7.16L32.16 6.33Z"></path></svg>