<svg height="16.296875" width="37.3447265625" xmlns="http://www.w3.org/2000/svg" ><path d="M7.28 6.81L7.28 6.81Q7.75 5.96 8.41 5.56Q9.06 5.15 9.95 5.15L9.95 5.15Q11.15 5.15 11.80 5.99Q12.45 6.83 12.45 8.37L12.45 8.37L12.45 13.00L11.18 13.00L11.18 8.42Q11.18 7.31 10.79 6.78Q10.40 6.25 9.60 6.25L9.60 6.25Q8.63 6.25 8.06 6.90Q7.49 7.55 7.49 8.67L7.49 8.67L7.49 13.00L6.23 13.00L6.23 8.42Q6.23 7.31 5.84 6.78Q5.45 6.25 4.63 6.25L4.63 6.25Q3.67 6.25 3.10 6.90Q2.54 7.55 2.54 8.67L2.54 8.67L2.54 13.00L1.27 13.00L1.27 5.34L2.54 5.34L2.54 6.53Q2.97 5.82 3.57 5.49Q4.17 5.15 5.00 5.15L5.00 5.15Q5.83 5.15 6.42 5.58Q7 6.00 7.28 6.81ZM14.91 13.00L14.91 5.34L19.75 5.34L19.75 6.35L16.18 6.35L16.18 8.41L19.59 8.41L19.59 9.42L16.18 9.42L16.18 11.99L19.84 11.99L19.84 13.00L14.91 13.00ZM21.57 8.43L21.57 7.68L22.97 7.68L22.97 3.50L21.44 3.78L21.44 2.99L23.02 2.72L23.95 2.72L23.95 7.68L25.35 7.68L25.35 8.43L21.57 8.43ZM27.19 8.43L27.19 7.68L28.58 7.68L28.58 3.50L27.06 3.78L27.06 2.99L28.63 2.72L29.57 2.72L29.57 7.68L30.97 7.68L30.97 8.43L27.19 8.43ZM35.31 5.34L35.31 5.34Q35.94 5.46 36.29 5.83Q36.63 6.21 36.63 6.77L36.63 6.77Q36.63 7.62 35.98 8.07Q35.33 8.53 34.13 8.53L34.13 8.53Q33.74 8.53 33.31 8.46Q32.88 8.39 32.40 8.25L32.40 8.25L32.40 7.42Q32.76 7.61 33.16 7.70Q33.57 7.79 34.03 7.79L34.03 7.79Q34.77 7.79 35.18 7.52Q35.59 7.25 35.59 6.77L35.59 6.77Q35.59 6.26 35.22 6.00Q34.84 5.74 34.10 5.74L34.10 5.74L33.51 5.74L33.51 5.00L34.15 5.00Q34.79 5.00 35.13 4.79Q35.46 4.57 35.46 4.16L35.46 4.16Q35.46 3.77 35.12 3.56Q34.77 3.35 34.13 3.35L34.13 3.35Q33.85 3.35 33.50 3.41Q33.15 3.47 32.60 3.63L32.60 3.63L32.60 2.84Q33.10 2.73 33.54 2.67Q33.97 2.60 34.35 2.60L34.35 2.60Q35.33 2.60 35.91 3.01Q36.49 3.41 36.49 4.09L36.49 4.09Q36.49 4.56 36.18 4.89Q35.88 5.22 35.31 5.34Z"></path></svg>