<svg height="16.296875" width="47.9609375" xmlns="http://www.w3.org/2000/svg" ><path d="M7.28 6.81L7.28 6.81Q7.75 5.96 8.41 5.56Q9.06 5.15 9.95 5.15L9.95 5.15Q11.15 5.15 11.80 5.99Q12.45 6.83 12.45 8.37L12.45 8.37L12.45 13.00L11.18 13.00L11.18 8.42Q11.18 7.31 10.79 6.78Q10.40 6.25 9.60 6.25L9.60 6.25Q8.63 6.25 8.06 6.90Q7.49 7.55 7.49 8.67L7.49 8.67L7.49 13.00L6.23 13.00L6.23 8.42Q6.23 7.31 5.84 6.78Q5.45 6.25 4.63 6.25L4.63 6.25Q3.67 6.25 3.10 6.90Q2.54 7.55 2.54 8.67L2.54 8.67L2.54 13.00L1.27 13.00L1.27 5.34L2.54 5.34L2.54 6.53Q2.97 5.82 3.57 5.49Q4.17 5.15 5.00 5.15L5.00 5.15Q5.83 5.15 6.42 5.58Q7 6.00 7.28 6.81ZM14.41 9.50L14.41 9.50L14.41 8.88L20.19 8.88Q20.11 7.58 19.41 6.90Q18.71 6.22 17.46 6.22L17.46 6.22Q16.73 6.22 16.05 6.40Q15.37 6.58 14.70 6.93L14.70 6.93L14.70 5.74Q15.38 5.46 16.09 5.30Q16.80 5.15 17.53 5.15L17.53 5.15Q19.37 5.15 20.44 6.22Q21.51 7.29 21.51 9.11L21.51 9.11Q21.51 10.99 20.49 12.09Q19.48 13.19 17.75 13.19L17.75 13.19Q16.21 13.19 15.31 12.20Q14.41 11.20 14.41 9.50ZM20.15 9.86L15.67 9.86Q15.68 10.90 16.25 11.51Q16.81 12.13 17.74 12.13L17.74 12.13Q18.79 12.13 19.42 11.53Q20.06 10.94 20.15 9.86L20.15 9.86ZM29.93 8.37L29.93 8.37L29.93 13.00L28.68 13.00L28.68 8.42Q28.68 7.33 28.25 6.79Q27.83 6.25 26.98 6.25L26.98 6.25Q25.96 6.25 25.38 6.90Q24.79 7.55 24.79 8.67L24.79 8.67L24.79 13.00L23.52 13.00L23.52 5.34L24.79 5.34L24.79 6.53Q25.24 5.84 25.85 5.50Q26.46 5.15 27.26 5.15L27.26 5.15Q28.58 5.15 29.26 5.97Q29.93 6.79 29.93 8.37ZM34.71 5.34L34.71 5.34Q35.33 5.46 35.68 5.83Q36.03 6.21 36.03 6.77L36.03 6.77Q36.03 7.62 35.38 8.07Q34.73 8.53 33.52 8.53L33.52 8.53Q33.13 8.53 32.70 8.46Q32.27 8.39 31.79 8.25L31.79 8.25L31.79 7.42Q32.15 7.61 32.56 7.70Q32.96 7.79 33.42 7.79L33.42 7.79Q34.17 7.79 34.58 7.52Q34.99 7.25 34.99 6.77L34.99 6.77Q34.99 6.26 34.61 6.00Q34.23 5.74 33.49 5.74L33.49 5.74L32.90 5.74L32.90 5.00L33.54 5.00Q34.19 5.00 34.52 4.79Q34.85 4.57 34.85 4.16L34.85 4.16Q34.85 3.77 34.51 3.56Q34.17 3.35 33.52 3.35L33.52 3.35Q33.24 3.35 32.89 3.41Q32.55 3.47 31.99 3.63L31.99 3.63L31.99 2.84Q32.49 2.73 32.93 2.67Q33.37 2.60 33.74 2.60L33.74 2.60Q34.73 2.60 35.30 3.01Q35.88 3.41 35.88 4.09L35.88 4.09Q35.88 4.56 35.57 4.89Q35.27 5.22 34.71 5.34ZM40.32 5.34L40.32 5.34Q40.95 5.46 41.29 5.83Q41.64 6.21 41.64 6.77L41.64 6.77Q41.64 7.62 40.99 8.07Q40.34 8.53 39.13 8.53L39.13 8.53Q38.74 8.53 38.31 8.46Q37.88 8.39 37.41 8.25L37.41 8.25L37.41 7.42Q37.76 7.61 38.17 7.70Q38.58 7.79 39.03 7.79L39.03 7.79Q39.78 7.79 40.19 7.52Q40.60 7.25 40.60 6.77L40.60 6.77Q40.60 6.26 40.22 6.00Q39.84 5.74 39.10 5.74L39.10 5.74L38.51 5.74L38.51 5.00L39.16 5.00Q39.80 5.00 40.13 4.79Q40.46 4.57 40.46 4.16L40.46 4.16Q40.46 3.77 40.12 3.56Q39.78 3.35 39.13 3.35L39.13 3.35Q38.86 3.35 38.51 3.41Q38.16 3.47 37.60 3.63L37.60 3.63L37.60 2.84Q38.10 2.73 38.54 2.67Q38.98 2.60 39.35 2.60L39.35 2.60Q40.34 2.60 40.92 3.01Q41.49 3.41 41.49 4.09L41.49 4.09Q41.49 4.56 41.19 4.89Q40.88 5.22 40.32 5.34ZM45.61 6.41L45.61 3.55L43.50 6.41L45.61 6.41ZM42.78 6.33L45.46 2.72L46.59 2.72L46.59 6.41L47.52 6.41L47.52 7.16L46.59 7.16L46.59 8.43L45.61 8.43L45.61 7.16L42.78 7.16L42.78 6.33Z"></path></svg>