<svg height="16.296875" width="47.9609375" xmlns="http://www.w3.org/2000/svg" ><path d="M7.28 6.81L7.28 6.81Q7.75 5.96 8.41 5.56Q9.06 5.15 9.95 5.15L9.95 5.15Q11.15 5.15 11.80 5.99Q12.45 6.83 12.45 8.37L12.45 8.37L12.45 13.00L11.18 13.00L11.18 8.42Q11.18 7.31 10.79 6.78Q10.40 6.25 9.60 6.25L9.60 6.25Q8.63 6.25 8.06 6.90Q7.49 7.55 7.49 8.67L7.49 8.67L7.49 13.00L6.23 13.00L6.23 8.42Q6.23 7.31 5.84 6.78Q5.45 6.25 4.63 6.25L4.63 6.25Q3.67 6.25 3.10 6.90Q2.54 7.55 2.54 8.67L2.54 8.67L2.54 13.00L1.27 13.00L1.27 5.34L2.54 5.34L2.54 6.53Q2.97 5.82 3.57 5.49Q4.17 5.15 5.00 5.15L5.00 5.15Q5.83 5.15 6.42 5.58Q7 6.00 7.28 6.81ZM14.41 9.50L14.41 9.50L14.41 8.88L20.19 8.88Q20.11 7.58 19.41 6.90Q18.71 6.22 17.46 6.22L17.46 6.22Q16.73 6.22 16.05 6.40Q15.37 6.58 14.70 6.93L14.70 6.93L14.70 5.74Q15.38 5.46 16.09 5.30Q16.80 5.15 17.53 5.15L17.53 5.15Q19.37 5.15 20.44 6.22Q21.51 7.29 21.51 9.11L21.51 9.11Q21.51 10.99 20.49 12.09Q19.48 13.19 17.75 13.19L17.75 13.19Q16.21 13.19 15.31 12.20Q14.41 11.20 14.41 9.50ZM20.15 9.86L15.67 9.86Q15.68 10.90 16.25 11.51Q16.81 12.13 17.74 12.13L17.74 12.13Q18.79 12.13 19.42 11.53Q20.06 10.94 20.15 9.86L20.15 9.86ZM29.93 8.37L29.93 8.37L29.93 13.00L28.68 13.00L28.68 8.42Q28.68 7.33 28.25 6.79Q27.83 6.25 26.98 6.25L26.98 6.25Q25.96 6.25 25.38 6.90Q24.79 7.55 24.79 8.67L24.79 8.67L24.79 13.00L23.52 13.00L23.52 5.34L24.79 5.34L24.79 6.53Q25.24 5.84 25.85 5.50Q26.46 5.15 27.26 5.15L27.26 5.15Q28.58 5.15 29.26 5.97Q29.93 6.79 29.93 8.37ZM32.19 8.43L32.19 7.68L33.58 7.68L33.58 3.50L32.06 3.78L32.06 2.99L33.63 2.72L34.57 2.72L34.57 7.68L35.97 7.68L35.97 8.43L32.19 8.43ZM37.80 8.43L37.80 7.68L39.20 7.68L39.20 3.50L37.67 3.78L37.67 2.99L39.25 2.72L40.18 2.72L40.18 7.68L41.58 7.68L41.58 8.43L37.80 8.43ZM45.93 5.34L45.93 5.34Q46.56 5.46 46.90 5.83Q47.25 6.21 47.25 6.77L47.25 6.77Q47.25 7.62 46.60 8.07Q45.95 8.53 44.74 8.53L44.74 8.53Q44.35 8.53 43.92 8.46Q43.50 8.39 43.02 8.25L43.02 8.25L43.02 7.42Q43.37 7.61 43.78 7.70Q44.19 7.79 44.65 7.79L44.65 7.79Q45.39 7.79 45.80 7.52Q46.21 7.25 46.21 6.77L46.21 6.77Q46.21 6.26 45.83 6.00Q45.45 5.74 44.71 5.74L44.71 5.74L44.13 5.74L44.13 5.00L44.77 5.00Q45.41 5.00 45.74 4.79Q46.07 4.57 46.07 4.16L46.07 4.16Q46.07 3.77 45.73 3.56Q45.39 3.35 44.74 3.35L44.74 3.35Q44.47 3.35 44.12 3.41Q43.77 3.47 43.22 3.63L43.22 3.63L43.22 2.84Q43.72 2.73 44.15 2.67Q44.59 2.60 44.97 2.60L44.97 2.60Q45.95 2.60 46.53 3.01Q47.11 3.41 47.11 4.09L47.11 4.09Q47.11 4.56 46.80 4.89Q46.49 5.22 45.93 5.34Z"></path></svg>