<svg height="16.296875" width="40.619140625" xmlns="http://www.w3.org/2000/svg" ><path d="M7.28 6.81L7.28 6.81Q7.75 5.96 8.41 5.56Q9.06 5.15 9.95 5.15L9.95 5.15Q11.15 5.15 11.80 5.99Q12.45 6.83 12.45 8.37L12.45 8.37L12.45 13.00L11.18 13.00L11.18 8.42Q11.18 7.31 10.79 6.78Q10.40 6.25 9.60 6.25L9.60 6.25Q8.63 6.25 8.06 6.90Q7.49 7.55 7.49 8.67L7.49 8.67L7.49 13.00L6.23 13.00L6.23 8.42Q6.23 7.31 5.84 6.78Q5.45 6.25 4.63 6.25L4.63 6.25Q3.67 6.25 3.10 6.90Q2.54 7.55 2.54 8.67L2.54 8.67L2.54 13.00L1.27 13.00L1.27 5.34L2.54 5.34L2.54 6.53Q2.97 5.82 3.57 5.49Q4.17 5.15 5.00 5.15L5.00 5.15Q5.83 5.15 6.42 5.58Q7 6.00 7.28 6.81ZM14.41 9.50L14.41 9.50L14.41 8.88L20.19 8.88Q20.11 7.58 19.41 6.90Q18.71 6.22 17.46 6.22L17.46 6.22Q16.73 6.22 16.05 6.40Q15.37 6.58 14.70 6.93L14.70 6.93L14.70 5.74Q15.38 5.46 16.09 5.30Q16.80 5.15 17.53 5.15L17.53 5.15Q19.37 5.15 20.44 6.22Q21.51 7.29 21.51 9.11L21.51 9.11Q21.51 10.99 20.49 12.09Q19.48 13.19 17.75 13.19L17.75 13.19Q16.21 13.19 15.31 12.20Q14.41 11.20 14.41 9.50ZM20.15 9.86L15.67 9.86Q15.68 10.90 16.25 11.51Q16.81 12.13 17.74 12.13L17.74 12.13Q18.79 12.13 19.42 11.53Q20.06 10.94 20.15 9.86L20.15 9.86ZM24.58 13.00L24.58 7.54L25.01 7.54Q26.32 7.54 26.91 6.76L26.91 6.76Q27.30 6.24 27.30 5.57L27.30 5.57Q27.30 4.66 26.91 4.22L26.91 4.22Q26.23 3.44 25.01 3.44L25.01 3.44Q24.46 3.44 23.92 3.59L23.92 3.59Q23.39 3.73 22.85 4.03L22.85 4.03L22.85 2.85Q23.37 2.61 23.93 2.50L23.93 2.50Q24.48 2.37 25.06 2.37L25.06 2.37Q26.94 2.37 27.88 3.45L27.88 3.45Q28.63 4.30 28.63 5.57L28.63 5.57Q28.63 6.73 27.89 7.52L27.89 7.52Q27.13 8.33 25.96 8.54L25.96 8.54L25.96 13.00L24.58 13.00ZM30.46 8.43L30.46 7.68L31.86 7.68L31.86 3.50L30.33 3.78L30.33 2.99L31.90 2.72L32.84 2.72L32.84 7.68L34.24 7.68L34.24 8.43L30.46 8.43ZM36.84 7.65L36.84 7.65L39.74 7.65L39.74 8.43L35.65 8.43L35.65 7.68Q35.88 7.46 36.31 7.08L36.31 7.08Q38.66 5.00 38.66 4.35L38.66 4.35Q38.66 3.90 38.31 3.63Q37.95 3.35 37.37 3.35L37.37 3.35Q37.02 3.35 36.60 3.47Q36.18 3.59 35.69 3.83L35.69 3.83L35.69 2.99Q36.22 2.80 36.67 2.70Q37.13 2.60 37.52 2.60L37.52 2.60Q38.51 2.60 39.10 3.06Q39.70 3.51 39.70 4.25L39.70 4.25Q39.70 5.20 37.43 7.14L37.43 7.14Q37.05 7.46 36.84 7.65Z"></path></svg>