<svg height="16.296875" width="38.814453125" xmlns="http://www.w3.org/2000/svg" ><path d="M7.28 6.81L7.28 6.81Q7.75 5.96 8.41 5.56Q9.06 5.15 9.95 5.15L9.95 5.15Q11.15 5.15 11.80 5.99Q12.45 6.83 12.45 8.37L12.45 8.37L12.45 13.00L11.18 13.00L11.18 8.42Q11.18 7.31 10.79 6.78Q10.40 6.25 9.60 6.25L9.60 6.25Q8.63 6.25 8.06 6.90Q7.49 7.55 7.49 8.67L7.49 8.67L7.49 13.00L6.23 13.00L6.23 8.42Q6.23 7.31 5.84 6.78Q5.45 6.25 4.63 6.25L4.63 6.25Q3.67 6.25 3.10 6.90Q2.54 7.55 2.54 8.67L2.54 8.67L2.54 13.00L1.27 13.00L1.27 5.34L2.54 5.34L2.54 6.53Q2.97 5.82 3.57 5.49Q4.17 5.15 5.00 5.15L5.00 5.15Q5.83 5.15 6.42 5.58Q7 6.00 7.28 6.81ZM15.78 5.34L17.81 8.07L19.84 5.34L21.32 5.34L18.60 8.99Q19.09 9.66 19.39 10.18L19.39 10.18Q19.86 11.00 19.86 11.42L19.86 11.42Q19.86 12.31 19.35 12.75Q18.83 13.19 17.81 13.19L17.81 13.19Q16.78 13.19 16.27 12.75Q15.76 12.31 15.76 11.42L15.76 11.42Q15.76 11.00 16.23 10.18L16.23 10.18Q16.53 9.66 17.01 8.99L17.01 8.99L14.29 5.34L15.78 5.34ZM17.81 12.13L17.81 12.13Q18.27 12.13 18.48 11.94L18.48 11.94Q18.67 11.78 18.67 11.47L18.67 11.47Q18.67 11.25 18.40 10.81L18.40 10.81Q18.19 10.47 17.81 9.99L17.81 9.99Q17.42 10.47 17.21 10.81L17.21 10.81Q16.95 11.25 16.95 11.47L16.95 11.47Q16.95 11.78 17.14 11.94L17.14 11.94Q17.35 12.13 17.81 12.13ZM23.04 8.43L23.04 7.68L24.44 7.68L24.44 3.50L22.91 3.78L22.91 2.99L24.49 2.72L25.42 2.72L25.42 7.68L26.82 7.68L26.82 8.43L23.04 8.43ZM28.66 8.43L28.66 7.68L30.05 7.68L30.05 3.50L28.53 3.78L28.53 2.99L30.10 2.72L31.04 2.72L31.04 7.68L32.44 7.68L32.44 8.43L28.66 8.43ZM36.78 5.34L36.78 5.34Q37.41 5.46 37.76 5.83Q38.10 6.21 38.10 6.77L38.10 6.77Q38.10 7.62 37.45 8.07Q36.80 8.53 35.59 8.53L35.59 8.53Q35.21 8.53 34.78 8.46Q34.35 8.39 33.87 8.25L33.87 8.25L33.87 7.42Q34.23 7.61 34.63 7.70Q35.04 7.79 35.50 7.79L35.50 7.79Q36.24 7.79 36.65 7.52Q37.06 7.25 37.06 6.77L37.06 6.77Q37.06 6.26 36.69 6.00Q36.31 5.74 35.57 5.74L35.57 5.74L34.98 5.74L34.98 5.00L35.62 5.00Q36.26 5.00 36.60 4.79Q36.93 4.57 36.93 4.16L36.93 4.16Q36.93 3.77 36.59 3.56Q36.24 3.35 35.59 3.35L35.59 3.35Q35.32 3.35 34.97 3.41Q34.62 3.47 34.07 3.63L34.07 3.63L34.07 2.84Q34.57 2.73 35.01 2.67Q35.44 2.60 35.82 2.60L35.82 2.60Q36.80 2.60 37.38 3.01Q37.96 3.41 37.96 4.09L37.96 4.09Q37.96 4.56 37.65 4.89Q37.34 5.22 36.78 5.34Z"></path></svg>