<svg height="16.296875" width="28.751953125" xmlns="http://www.w3.org/2000/svg" ><path d="M7.28 6.81L7.28 6.81Q7.75 5.96 8.41 5.56Q9.06 5.15 9.95 5.15L9.95 5.15Q11.15 5.15 11.80 5.99Q12.45 6.83 12.45 8.37L12.45 8.37L12.45 13.00L11.18 13.00L11.18 8.42Q11.18 7.31 10.79 6.78Q10.40 6.25 9.60 6.25L9.60 6.25Q8.63 6.25 8.06 6.90Q7.49 7.55 7.49 8.67L7.49 8.67L7.49 13.00L6.23 13.00L6.23 8.42Q6.23 7.31 5.84 6.78Q5.45 6.25 4.63 6.25L4.63 6.25Q3.67 6.25 3.10 6.90Q2.54 7.55 2.54 8.67L2.54 8.67L2.54 13.00L1.27 13.00L1.27 5.34L2.54 5.34L2.54 6.53Q2.97 5.82 3.57 5.49Q4.17 5.15 5.00 5.15L5.00 5.15Q5.83 5.15 6.42 5.58Q7 6.00 7.28 6.81ZM14.96 13.00L14.96 5.34L16.21 5.34L16.21 13.00L14.96 13.00ZM14.96 3.95L14.96 2.36L16.21 2.36L16.21 3.95L14.96 3.95ZM18.50 5.58L18.50 2.72L21.98 2.72L21.98 3.37L19.31 3.37L19.31 4.76Q19.50 4.70 19.70 4.68L19.70 4.68Q19.89 4.65 20.08 4.65L20.08 4.65Q21.18 4.65 21.83 5.17L21.83 5.17Q22.47 5.69 22.47 6.59L22.47 6.59Q22.47 7.51 21.81 8.03L21.81 8.03Q21.15 8.53 19.95 8.53L19.95 8.53Q19.54 8.53 19.11 8.47Q18.68 8.41 18.22 8.29L18.22 8.29L18.22 7.51Q18.61 7.70 19.04 7.79L19.04 7.79Q19.46 7.88 19.93 7.88L19.93 7.88Q20.69 7.88 21.14 7.53Q21.58 7.18 21.58 6.59Q21.58 6.00 21.14 5.65Q20.69 5.30 19.93 5.30L19.93 5.30Q19.58 5.30 19.22 5.37Q18.87 5.43 18.50 5.58L18.50 5.58ZM26.72 5.34L26.72 5.34Q27.35 5.46 27.70 5.83Q28.04 6.21 28.04 6.77L28.04 6.77Q28.04 7.62 27.39 8.07Q26.74 8.53 25.53 8.53L25.53 8.53Q25.14 8.53 24.72 8.46Q24.29 8.39 23.81 8.25L23.81 8.25L23.81 7.42Q24.17 7.61 24.57 7.70Q24.98 7.79 25.44 7.79L25.44 7.79Q26.18 7.79 26.59 7.52Q27.00 7.25 27.00 6.77L27.00 6.77Q27.00 6.26 26.62 6.00Q26.24 5.74 25.50 5.74L25.50 5.74L24.92 5.74L24.92 5.00L25.56 5.00Q26.20 5.00 26.53 4.79Q26.87 4.57 26.87 4.16L26.87 4.16Q26.87 3.77 26.52 3.56Q26.18 3.35 25.53 3.35L25.53 3.35Q25.26 3.35 24.91 3.41Q24.56 3.47 24.01 3.63L24.01 3.63L24.01 2.84Q24.51 2.73 24.94 2.67Q25.38 2.60 25.76 2.60L25.76 2.60Q26.74 2.60 27.32 3.01Q27.90 3.41 27.90 4.09L27.90 4.09Q27.90 4.56 27.59 4.89Q27.28 5.22 26.72 5.34Z"></path></svg>