<svg height="16.296875" width="34.3642578125" xmlns="http://www.w3.org/2000/svg" ><path d="M7.28 6.81L7.28 6.81Q7.75 5.96 8.41 5.56Q9.06 5.15 9.95 5.15L9.95 5.15Q11.15 5.15 11.80 5.99Q12.45 6.83 12.45 8.37L12.45 8.37L12.45 13.00L11.18 13.00L11.18 8.42Q11.18 7.31 10.79 6.78Q10.40 6.25 9.60 6.25L9.60 6.25Q8.63 6.25 8.06 6.90Q7.49 7.55 7.49 8.67L7.49 8.67L7.49 13.00L6.23 13.00L6.23 8.42Q6.23 7.31 5.84 6.78Q5.45 6.25 4.63 6.25L4.63 6.25Q3.67 6.25 3.10 6.90Q2.54 7.55 2.54 8.67L2.54 8.67L2.54 13.00L1.27 13.00L1.27 5.34L2.54 5.34L2.54 6.53Q2.97 5.82 3.57 5.49Q4.17 5.15 5.00 5.15L5.00 5.15Q5.83 5.15 6.42 5.58Q7 6.00 7.28 6.81ZM14.96 13.00L14.96 5.34L16.21 5.34L16.21 13.00L14.96 13.00ZM14.96 3.95L14.96 2.36L16.21 2.36L16.21 3.95L14.96 3.95ZM21.11 5.34L21.11 5.34Q21.74 5.46 22.08 5.83Q22.43 6.21 22.43 6.77L22.43 6.77Q22.43 7.62 21.78 8.07Q21.13 8.53 19.92 8.53L19.92 8.53Q19.53 8.53 19.10 8.46Q18.68 8.39 18.20 8.25L18.20 8.25L18.20 7.42Q18.55 7.61 18.96 7.70Q19.37 7.79 19.82 7.79L19.82 7.79Q20.57 7.79 20.98 7.52Q21.39 7.25 21.39 6.77L21.39 6.77Q21.39 6.26 21.01 6.00Q20.63 5.74 19.89 5.74L19.89 5.74L19.30 5.74L19.30 5.00L19.95 5.00Q20.59 5.00 20.92 4.79Q21.25 4.57 21.25 4.16L21.25 4.16Q21.25 3.77 20.91 3.56Q20.57 3.35 19.92 3.35L19.92 3.35Q19.65 3.35 19.30 3.41Q18.95 3.47 18.40 3.63L18.40 3.63L18.40 2.84Q18.89 2.73 19.33 2.67Q19.77 2.60 20.15 2.60L20.15 2.60Q21.13 2.60 21.71 3.01Q22.29 3.41 22.29 4.09L22.29 4.09Q22.29 4.56 21.98 4.89Q21.67 5.22 21.11 5.34ZM26.72 5.34L26.72 5.34Q27.35 5.46 27.70 5.83Q28.04 6.21 28.04 6.77L28.04 6.77Q28.04 7.62 27.39 8.07Q26.74 8.53 25.53 8.53L25.53 8.53Q25.14 8.53 24.72 8.46Q24.29 8.39 23.81 8.25L23.81 8.25L23.81 7.42Q24.17 7.61 24.57 7.70Q24.98 7.79 25.44 7.79L25.44 7.79Q26.18 7.79 26.59 7.52Q27.00 7.25 27.00 6.77L27.00 6.77Q27.00 6.26 26.62 6.00Q26.24 5.74 25.50 5.74L25.50 5.74L24.92 5.74L24.92 5.00L25.56 5.00Q26.20 5.00 26.53 4.79Q26.87 4.57 26.87 4.16L26.87 4.16Q26.87 3.77 26.52 3.56Q26.18 3.35 25.53 3.35L25.53 3.35Q25.26 3.35 24.91 3.41Q24.56 3.47 24.01 3.63L24.01 3.63L24.01 2.84Q24.51 2.73 24.94 2.67Q25.38 2.60 25.76 2.60L25.76 2.60Q26.74 2.60 27.32 3.01Q27.90 3.41 27.90 4.09L27.90 4.09Q27.90 4.56 27.59 4.89Q27.28 5.22 26.72 5.34ZM32.01 6.41L32.01 3.55L29.90 6.41L32.01 6.41ZM29.18 6.33L31.86 2.72L33.00 2.72L33.00 6.41L33.92 6.41L33.92 7.16L33.00 7.16L33.00 8.43L32.01 8.43L32.01 7.16L29.18 7.16L29.18 6.33Z"></path></svg>