<svg height="16.296875" width="34.3642578125" xmlns="http://www.w3.org/2000/svg" ><path d="M7.28 6.81L7.28 6.81Q7.75 5.96 8.41 5.56Q9.06 5.15 9.95 5.15L9.95 5.15Q11.15 5.15 11.80 5.99Q12.45 6.83 12.45 8.37L12.45 8.37L12.45 13.00L11.18 13.00L11.18 8.42Q11.18 7.31 10.79 6.78Q10.40 6.25 9.60 6.25L9.60 6.25Q8.63 6.25 8.06 6.90Q7.49 7.55 7.49 8.67L7.49 8.67L7.49 13.00L6.23 13.00L6.23 8.42Q6.23 7.31 5.84 6.78Q5.45 6.25 4.63 6.25L4.63 6.25Q3.67 6.25 3.10 6.90Q2.54 7.55 2.54 8.67L2.54 8.67L2.54 13.00L1.27 13.00L1.27 5.34L2.54 5.34L2.54 6.53Q2.97 5.82 3.57 5.49Q4.17 5.15 5.00 5.15L5.00 5.15Q5.83 5.15 6.42 5.58Q7 6.00 7.28 6.81ZM14.96 13.00L14.96 5.34L16.21 5.34L16.21 13.00L14.96 13.00ZM14.96 3.95L14.96 2.36L16.21 2.36L16.21 3.95L14.96 3.95ZM18.59 8.43L18.59 7.68L19.99 7.68L19.99 3.50L18.46 3.78L18.46 2.99L20.04 2.72L20.97 2.72L20.97 7.68L22.37 7.68L22.37 8.43L18.59 8.43ZM24.21 8.43L24.21 7.68L25.60 7.68L25.60 3.50L24.08 3.78L24.08 2.99L25.65 2.72L26.58 2.72L26.58 7.68L27.99 7.68L27.99 8.43L24.21 8.43ZM32.33 5.34L32.33 5.34Q32.96 5.46 33.31 5.83Q33.65 6.21 33.65 6.77L33.65 6.77Q33.65 7.62 33.00 8.07Q32.35 8.53 31.14 8.53L31.14 8.53Q30.75 8.53 30.33 8.46Q29.90 8.39 29.42 8.25L29.42 8.25L29.42 7.42Q29.78 7.61 30.18 7.70Q30.59 7.79 31.05 7.79L31.05 7.79Q31.79 7.79 32.20 7.52Q32.61 7.25 32.61 6.77L32.61 6.77Q32.61 6.26 32.23 6.00Q31.86 5.74 31.12 5.74L31.12 5.74L30.53 5.74L30.53 5.00L31.17 5.00Q31.81 5.00 32.15 4.79Q32.48 4.57 32.48 4.16L32.48 4.16Q32.48 3.77 32.14 3.56Q31.79 3.35 31.14 3.35L31.14 3.35Q30.87 3.35 30.52 3.41Q30.17 3.47 29.62 3.63L29.62 3.63L29.62 2.84Q30.12 2.73 30.56 2.67Q30.99 2.60 31.37 2.60L31.37 2.60Q32.35 2.60 32.93 3.01Q33.51 3.41 33.51 4.09L33.51 4.09Q33.51 4.56 33.20 4.89Q32.89 5.22 32.33 5.34Z"></path></svg>