<svg height="16.296875" width="36.4423828125" xmlns="http://www.w3.org/2000/svg" ><path d="M7.28 6.81L7.28 6.81Q7.75 5.96 8.41 5.56Q9.06 5.15 9.95 5.15L9.95 5.15Q11.15 5.15 11.80 5.99Q12.45 6.83 12.45 8.37L12.45 8.37L12.45 13.00L11.18 13.00L11.18 8.42Q11.18 7.31 10.79 6.78Q10.40 6.25 9.60 6.25L9.60 6.25Q8.63 6.25 8.06 6.90Q7.49 7.55 7.49 8.67L7.49 8.67L7.49 13.00L6.23 13.00L6.23 8.42Q6.23 7.31 5.84 6.78Q5.45 6.25 4.63 6.25L4.63 6.25Q3.67 6.25 3.10 6.90Q2.54 7.55 2.54 8.67L2.54 8.67L2.54 13.00L1.27 13.00L1.27 5.34L2.54 5.34L2.54 6.53Q2.97 5.82 3.57 5.49Q4.17 5.15 5.00 5.15L5.00 5.15Q5.83 5.15 6.42 5.58Q7 6.00 7.28 6.81ZM14.96 13.00L14.96 5.34L16.21 5.34L16.21 13.00L14.96 13.00ZM14.96 3.95L14.96 2.36L16.21 2.36L16.21 3.95L14.96 3.95ZM18.40 6.81L18.40 5.65Q18.92 5.40 19.49 5.28Q20.05 5.15 20.69 5.15L20.69 5.15Q22.42 5.15 23.43 6.24Q24.45 7.33 24.45 9.17L24.45 9.17Q24.45 11.05 23.42 12.12Q22.39 13.19 20.60 13.19L20.60 13.19Q20.02 13.19 19.47 13.07Q18.92 12.95 18.40 12.71L18.40 12.71L18.40 11.54Q18.93 11.83 19.47 11.98Q20.00 12.13 20.55 12.13L20.55 12.13Q21.77 12.13 22.45 11.35Q23.13 10.58 23.13 9.17L23.13 9.17Q23.13 7.77 22.45 7.00Q21.77 6.22 20.55 6.22L20.55 6.22Q20.00 6.22 19.47 6.37Q18.93 6.51 18.40 6.81L18.40 6.81ZM26.19 5.58L26.19 2.72L29.67 2.72L29.67 3.37L27.00 3.37L27.00 4.76Q27.19 4.70 27.39 4.68L27.39 4.68Q27.58 4.65 27.77 4.65L27.77 4.65Q28.88 4.65 29.52 5.17L29.52 5.17Q30.16 5.69 30.16 6.59L30.16 6.59Q30.16 7.51 29.50 8.03L29.50 8.03Q28.84 8.53 27.64 8.53L27.64 8.53Q27.23 8.53 26.80 8.47Q26.37 8.41 25.92 8.29L25.92 8.29L25.92 7.51Q26.30 7.70 26.73 7.79L26.73 7.79Q27.15 7.88 27.62 7.88L27.62 7.88Q28.38 7.88 28.83 7.53Q29.27 7.18 29.27 6.59Q29.27 6.00 28.83 5.65Q28.38 5.30 27.62 5.30L27.62 5.30Q27.27 5.30 26.91 5.37Q26.56 5.43 26.19 5.58L26.19 5.58ZM34.41 5.34L34.41 5.34Q35.04 5.46 35.39 5.83Q35.73 6.21 35.73 6.77L35.73 6.77Q35.73 7.62 35.08 8.07Q34.43 8.53 33.22 8.53L33.22 8.53Q32.83 8.53 32.41 8.46Q31.98 8.39 31.50 8.25L31.50 8.25L31.50 7.42Q31.86 7.61 32.26 7.70Q32.67 7.79 33.13 7.79L33.13 7.79Q33.87 7.79 34.28 7.52Q34.69 7.25 34.69 6.77L34.69 6.77Q34.69 6.26 34.31 6.00Q33.93 5.74 33.20 5.74L33.20 5.74L32.61 5.74L32.61 5.00L33.25 5.00Q33.89 5.00 34.22 4.79Q34.56 4.57 34.56 4.16L34.56 4.16Q34.56 3.77 34.21 3.56Q33.87 3.35 33.22 3.35L33.22 3.35Q32.95 3.35 32.60 3.41Q32.25 3.47 31.70 3.63L31.70 3.63L31.70 2.84Q32.20 2.73 32.63 2.67Q33.07 2.60 33.45 2.60L33.45 2.60Q34.43 2.60 35.01 3.01Q35.59 3.41 35.59 4.09L35.59 4.09Q35.59 4.56 35.28 4.89Q34.97 5.22 34.41 5.34Z"></path></svg>