<svg height="16.296875" width="42.0546875" xmlns="http://www.w3.org/2000/svg" ><path d="M7.28 6.81L7.28 6.81Q7.75 5.96 8.41 5.56Q9.06 5.15 9.95 5.15L9.95 5.15Q11.15 5.15 11.80 5.99Q12.45 6.83 12.45 8.37L12.45 8.37L12.45 13.00L11.18 13.00L11.18 8.42Q11.18 7.31 10.79 6.78Q10.40 6.25 9.60 6.25L9.60 6.25Q8.63 6.25 8.06 6.90Q7.49 7.55 7.49 8.67L7.49 8.67L7.49 13.00L6.23 13.00L6.23 8.42Q6.23 7.31 5.84 6.78Q5.45 6.25 4.63 6.25L4.63 6.25Q3.67 6.25 3.10 6.90Q2.54 7.55 2.54 8.67L2.54 8.67L2.54 13.00L1.27 13.00L1.27 5.34L2.54 5.34L2.54 6.53Q2.97 5.82 3.57 5.49Q4.17 5.15 5.00 5.15L5.00 5.15Q5.83 5.15 6.42 5.58Q7 6.00 7.28 6.81ZM14.96 13.00L14.96 5.34L16.21 5.34L16.21 13.00L14.96 13.00ZM14.96 3.95L14.96 2.36L16.21 2.36L16.21 3.95L14.96 3.95ZM18.40 6.81L18.40 5.65Q18.92 5.40 19.49 5.28Q20.05 5.15 20.69 5.15L20.69 5.15Q22.42 5.15 23.43 6.24Q24.45 7.33 24.45 9.17L24.45 9.17Q24.45 11.05 23.42 12.12Q22.39 13.19 20.60 13.19L20.60 13.19Q20.02 13.19 19.47 13.07Q18.92 12.95 18.40 12.71L18.40 12.71L18.40 11.54Q18.93 11.83 19.47 11.98Q20.00 12.13 20.55 12.13L20.55 12.13Q21.77 12.13 22.45 11.35Q23.13 10.58 23.13 9.17L23.13 9.17Q23.13 7.77 22.45 7.00Q21.77 6.22 20.55 6.22L20.55 6.22Q20.00 6.22 19.47 6.37Q18.93 6.51 18.40 6.81L18.40 6.81ZM26.28 8.43L26.28 7.68L27.68 7.68L27.68 3.50L26.15 3.78L26.15 2.99L27.73 2.72L28.66 2.72L28.66 7.68L30.06 7.68L30.06 8.43L26.28 8.43ZM31.90 8.43L31.90 7.68L33.29 7.68L33.29 3.50L31.77 3.78L31.77 2.99L33.34 2.72L34.28 2.72L34.28 7.68L35.68 7.68L35.68 8.43L31.90 8.43ZM40.02 5.34L40.02 5.34Q40.65 5.46 41.00 5.83Q41.34 6.21 41.34 6.77L41.34 6.77Q41.34 7.62 40.69 8.07Q40.04 8.53 38.83 8.53L38.83 8.53Q38.45 8.53 38.02 8.46Q37.59 8.39 37.11 8.25L37.11 8.25L37.11 7.42Q37.47 7.61 37.87 7.70Q38.28 7.79 38.74 7.79L38.74 7.79Q39.48 7.79 39.89 7.52Q40.30 7.25 40.30 6.77L40.30 6.77Q40.30 6.26 39.93 6.00Q39.55 5.74 38.81 5.74L38.81 5.74L38.22 5.74L38.22 5.00L38.86 5.00Q39.50 5.00 39.84 4.79Q40.17 4.57 40.17 4.16L40.17 4.16Q40.17 3.77 39.83 3.56Q39.48 3.35 38.83 3.35L38.83 3.35Q38.56 3.35 38.21 3.41Q37.86 3.47 37.31 3.63L37.31 3.63L37.31 2.84Q37.81 2.73 38.25 2.67Q38.68 2.60 39.06 2.60L39.06 2.60Q40.04 2.60 40.62 3.01Q41.20 3.41 41.20 4.09L41.20 4.09Q41.20 4.56 40.89 4.89Q40.58 5.22 40.02 5.34Z"></path></svg>