<svg height="16.296875" width="42.7041015625" xmlns="http://www.w3.org/2000/svg" ><path d="M7.28 6.81L7.28 6.81Q7.75 5.96 8.41 5.56Q9.06 5.15 9.95 5.15L9.95 5.15Q11.15 5.15 11.80 5.99Q12.45 6.83 12.45 8.37L12.45 8.37L12.45 13.00L11.18 13.00L11.18 8.42Q11.18 7.31 10.79 6.78Q10.40 6.25 9.60 6.25L9.60 6.25Q8.63 6.25 8.06 6.90Q7.49 7.55 7.49 8.67L7.49 8.67L7.49 13.00L6.23 13.00L6.23 8.42Q6.23 7.31 5.84 6.78Q5.45 6.25 4.63 6.25L4.63 6.25Q3.67 6.25 3.10 6.90Q2.54 7.55 2.54 8.67L2.54 8.67L2.54 13.00L1.27 13.00L1.27 5.34L2.54 5.34L2.54 6.53Q2.97 5.82 3.57 5.49Q4.17 5.15 5.00 5.15L5.00 5.15Q5.83 5.15 6.42 5.58Q7 6.00 7.28 6.81ZM14.96 13.00L14.96 5.34L16.21 5.34L16.21 13.00L14.96 13.00ZM14.96 3.95L14.96 2.36L16.21 2.36L16.21 3.95L14.96 3.95ZM19.67 5.34L21.70 8.07L23.73 5.34L25.21 5.34L22.49 8.99Q22.98 9.66 23.28 10.18L23.28 10.18Q23.75 11.00 23.75 11.42L23.75 11.42Q23.75 12.31 23.24 12.75Q22.72 13.19 21.70 13.19L21.70 13.19Q20.67 13.19 20.16 12.75Q19.65 12.31 19.65 11.42L19.65 11.42Q19.65 11.00 20.12 10.18L20.12 10.18Q20.42 9.66 20.90 8.99L20.90 8.99L18.18 5.34L19.67 5.34ZM21.70 12.13L21.70 12.13Q22.16 12.13 22.37 11.94L22.37 11.94Q22.56 11.78 22.56 11.47L22.56 11.47Q22.56 11.25 22.29 10.81L22.29 10.81Q22.08 10.47 21.70 9.99L21.70 9.99Q21.31 10.47 21.10 10.81L21.10 10.81Q20.84 11.25 20.84 11.47L20.84 11.47Q20.84 11.78 21.03 11.94L21.03 11.94Q21.24 12.13 21.70 12.13ZM26.93 8.43L26.93 7.68L28.33 7.68L28.33 3.50L26.80 3.78L26.80 2.99L28.38 2.72L29.31 2.72L29.31 7.68L30.71 7.68L30.71 8.43L26.93 8.43ZM32.55 8.43L32.55 7.68L33.94 7.68L33.94 3.50L32.42 3.78L32.42 2.99L33.99 2.72L34.92 2.72L34.92 7.68L36.33 7.68L36.33 8.43L32.55 8.43ZM40.67 5.34L40.67 5.34Q41.30 5.46 41.65 5.83Q41.99 6.21 41.99 6.77L41.99 6.77Q41.99 7.62 41.34 8.07Q40.69 8.53 39.48 8.53L39.48 8.53Q39.09 8.53 38.67 8.46Q38.24 8.39 37.76 8.25L37.76 8.25L37.76 7.42Q38.12 7.61 38.52 7.70Q38.93 7.79 39.39 7.79L39.39 7.79Q40.13 7.79 40.54 7.52Q40.95 7.25 40.95 6.77L40.95 6.77Q40.95 6.26 40.57 6.00Q40.20 5.74 39.46 5.74L39.46 5.74L38.87 5.74L38.87 5.00L39.51 5.00Q40.15 5.00 40.49 4.79Q40.82 4.57 40.82 4.16L40.82 4.16Q40.82 3.77 40.48 3.56Q40.13 3.35 39.48 3.35L39.48 3.35Q39.21 3.35 38.86 3.41Q38.51 3.47 37.96 3.63L37.96 3.63L37.96 2.84Q38.46 2.73 38.90 2.67Q39.33 2.60 39.71 2.60L39.71 2.60Q40.69 2.60 41.27 3.01Q41.85 3.41 41.85 4.09L41.85 4.09Q41.85 4.56 41.54 4.89Q41.23 5.22 40.67 5.34Z"></path></svg>