<svg height="16.296875" width="43.2373046875" xmlns="http://www.w3.org/2000/svg" ><path d="M7.28 6.81L7.28 6.81Q7.75 5.96 8.41 5.56Q9.06 5.15 9.95 5.15L9.95 5.15Q11.15 5.15 11.80 5.99Q12.45 6.83 12.45 8.37L12.45 8.37L12.45 13.00L11.18 13.00L11.18 8.42Q11.18 7.31 10.79 6.78Q10.40 6.25 9.60 6.25L9.60 6.25Q8.63 6.25 8.06 6.90Q7.49 7.55 7.49 8.67L7.49 8.67L7.49 13.00L6.23 13.00L6.23 8.42Q6.23 7.31 5.84 6.78Q5.45 6.25 4.63 6.25L4.63 6.25Q3.67 6.25 3.10 6.90Q2.54 7.55 2.54 8.67L2.54 8.67L2.54 13.00L1.27 13.00L1.27 5.34L2.54 5.34L2.54 6.53Q2.97 5.82 3.57 5.49Q4.17 5.15 5.00 5.15L5.00 5.15Q5.83 5.15 6.42 5.58Q7 6.00 7.28 6.81ZM14.96 13.00L14.96 5.34L16.21 5.34L16.21 13.00L14.96 13.00ZM14.96 3.95L14.96 2.36L16.21 2.36L16.21 3.95L14.96 3.95ZM25.21 8.37L25.21 8.37L25.21 13.00L23.95 13.00L23.95 8.42Q23.95 7.33 23.53 6.79Q23.11 6.25 22.26 6.25L22.26 6.25Q21.24 6.25 20.65 6.90Q20.06 7.55 20.06 8.67L20.06 8.67L20.06 13.00L18.80 13.00L18.80 5.34L20.06 5.34L20.06 6.53Q20.51 5.84 21.13 5.50Q21.74 5.15 22.54 5.15L22.54 5.15Q23.86 5.15 24.53 5.97Q25.21 6.79 25.21 8.37ZM29.98 5.34L29.98 5.34Q30.61 5.46 30.96 5.83Q31.30 6.21 31.30 6.77L31.30 6.77Q31.30 7.62 30.65 8.07Q30.00 8.53 28.79 8.53L28.79 8.53Q28.40 8.53 27.98 8.46Q27.55 8.39 27.07 8.25L27.07 8.25L27.07 7.42Q27.43 7.61 27.83 7.70Q28.24 7.79 28.70 7.79L28.70 7.79Q29.44 7.79 29.85 7.52Q30.26 7.25 30.26 6.77L30.26 6.77Q30.26 6.26 29.88 6.00Q29.50 5.74 28.77 5.74L28.77 5.74L28.18 5.74L28.18 5.00L28.82 5.00Q29.46 5.00 29.79 4.79Q30.13 4.57 30.13 4.16L30.13 4.16Q30.13 3.77 29.78 3.56Q29.44 3.35 28.79 3.35L28.79 3.35Q28.52 3.35 28.17 3.41Q27.82 3.47 27.27 3.63L27.27 3.63L27.27 2.84Q27.77 2.73 28.21 2.67Q28.64 2.60 29.02 2.60L29.02 2.60Q30.00 2.60 30.58 3.01Q31.16 3.41 31.16 4.09L31.16 4.09Q31.16 4.56 30.85 4.89Q30.54 5.22 29.98 5.34ZM35.59 5.34L35.59 5.34Q36.22 5.46 36.57 5.83Q36.91 6.21 36.91 6.77L36.91 6.77Q36.91 7.62 36.26 8.07Q35.62 8.53 34.41 8.53L34.41 8.53Q34.02 8.53 33.59 8.46Q33.16 8.39 32.68 8.25L32.68 8.25L32.68 7.42Q33.04 7.61 33.44 7.70Q33.85 7.79 34.31 7.79L34.31 7.79Q35.05 7.79 35.46 7.52Q35.88 7.25 35.88 6.77L35.88 6.77Q35.88 6.26 35.50 6.00Q35.12 5.74 34.38 5.74L34.38 5.74L33.79 5.74L33.79 5.00L34.43 5.00Q35.08 5.00 35.41 4.79Q35.74 4.57 35.74 4.16L35.74 4.16Q35.74 3.77 35.40 3.56Q35.05 3.35 34.41 3.35L34.41 3.35Q34.13 3.35 33.78 3.41Q33.43 3.47 32.88 3.63L32.88 3.63L32.88 2.84Q33.38 2.73 33.82 2.67Q34.25 2.60 34.63 2.60L34.63 2.60Q35.62 2.60 36.19 3.01Q36.77 3.41 36.77 4.09L36.77 4.09Q36.77 4.56 36.46 4.89Q36.16 5.22 35.59 5.34ZM40.89 6.41L40.89 3.55L38.77 6.41L40.89 6.41ZM38.06 6.33L40.74 2.72L41.87 2.72L41.87 6.41L42.79 6.41L42.79 7.16L41.87 7.16L41.87 8.43L40.89 8.43L40.89 7.16L38.06 7.16L38.06 6.33Z"></path></svg>