<svg height="16.296875" width="43.2373046875" xmlns="http://www.w3.org/2000/svg" ><path d="M7.28 6.81L7.28 6.81Q7.75 5.96 8.41 5.56Q9.06 5.15 9.95 5.15L9.95 5.15Q11.15 5.15 11.80 5.99Q12.45 6.83 12.45 8.37L12.45 8.37L12.45 13.00L11.18 13.00L11.18 8.42Q11.18 7.31 10.79 6.78Q10.40 6.25 9.60 6.25L9.60 6.25Q8.63 6.25 8.06 6.90Q7.49 7.55 7.49 8.67L7.49 8.67L7.49 13.00L6.23 13.00L6.23 8.42Q6.23 7.31 5.84 6.78Q5.45 6.25 4.63 6.25L4.63 6.25Q3.67 6.25 3.10 6.90Q2.54 7.55 2.54 8.67L2.54 8.67L2.54 13.00L1.27 13.00L1.27 5.34L2.54 5.34L2.54 6.53Q2.97 5.82 3.57 5.49Q4.17 5.15 5.00 5.15L5.00 5.15Q5.83 5.15 6.42 5.58Q7 6.00 7.28 6.81ZM14.96 13.00L14.96 5.34L16.21 5.34L16.21 13.00L14.96 13.00ZM14.96 3.95L14.96 2.36L16.21 2.36L16.21 3.95L14.96 3.95ZM25.21 8.37L25.21 8.37L25.21 13.00L23.95 13.00L23.95 8.42Q23.95 7.33 23.53 6.79Q23.11 6.25 22.26 6.25L22.26 6.25Q21.24 6.25 20.65 6.90Q20.06 7.55 20.06 8.67L20.06 8.67L20.06 13.00L18.80 13.00L18.80 5.34L20.06 5.34L20.06 6.53Q20.51 5.84 21.13 5.50Q21.74 5.15 22.54 5.15L22.54 5.15Q23.86 5.15 24.53 5.97Q25.21 6.79 25.21 8.37ZM27.47 8.43L27.47 7.68L28.86 7.68L28.86 3.50L27.34 3.78L27.34 2.99L28.91 2.72L29.85 2.72L29.85 7.68L31.25 7.68L31.25 8.43L27.47 8.43ZM33.08 8.43L33.08 7.68L34.47 7.68L34.47 3.50L32.95 3.78L32.95 2.99L34.52 2.72L35.46 2.72L35.46 7.68L36.86 7.68L36.86 8.43L33.08 8.43ZM41.21 5.34L41.21 5.34Q41.84 5.46 42.18 5.83Q42.53 6.21 42.53 6.77L42.53 6.77Q42.53 7.62 41.88 8.07Q41.23 8.53 40.02 8.53L40.02 8.53Q39.63 8.53 39.20 8.46Q38.77 8.39 38.29 8.25L38.29 8.25L38.29 7.42Q38.65 7.61 39.06 7.70Q39.46 7.79 39.92 7.79L39.92 7.79Q40.67 7.79 41.08 7.52Q41.49 7.25 41.49 6.77L41.49 6.77Q41.49 6.26 41.11 6.00Q40.73 5.74 39.99 5.74L39.99 5.74L39.40 5.74L39.40 5.00L40.04 5.00Q40.69 5.00 41.02 4.79Q41.35 4.57 41.35 4.16L41.35 4.16Q41.35 3.77 41.01 3.56Q40.67 3.35 40.02 3.35L40.02 3.35Q39.74 3.35 39.40 3.41Q39.05 3.47 38.49 3.63L38.49 3.63L38.49 2.84Q38.99 2.73 39.43 2.67Q39.87 2.60 40.24 2.60L40.24 2.60Q41.23 2.60 41.81 3.01Q42.38 3.41 42.38 4.09L42.38 4.09Q42.38 4.56 42.08 4.89Q41.77 5.22 41.21 5.34Z"></path></svg>