<svg height="16.296875" width="41.09765625" xmlns="http://www.w3.org/2000/svg" ><path d="M7.28 6.81L7.28 6.81Q7.75 5.96 8.41 5.56Q9.06 5.15 9.95 5.15L9.95 5.15Q11.15 5.15 11.80 5.99Q12.45 6.83 12.45 8.37L12.45 8.37L12.45 13.00L11.18 13.00L11.18 8.42Q11.18 7.31 10.79 6.78Q10.40 6.25 9.60 6.25L9.60 6.25Q8.63 6.25 8.06 6.90Q7.49 7.55 7.49 8.67L7.49 8.67L7.49 13.00L6.23 13.00L6.23 8.42Q6.23 7.31 5.84 6.78Q5.45 6.25 4.63 6.25L4.63 6.25Q3.67 6.25 3.10 6.90Q2.54 7.55 2.54 8.67L2.54 8.67L2.54 13.00L1.27 13.00L1.27 5.34L2.54 5.34L2.54 6.53Q2.97 5.82 3.57 5.49Q4.17 5.15 5.00 5.15L5.00 5.15Q5.83 5.15 6.42 5.58Q7 6.00 7.28 6.81ZM14.96 13.00L14.96 5.34L16.21 5.34L16.21 13.00L14.96 13.00ZM14.96 3.95L14.96 2.36L16.21 2.36L16.21 3.95L14.96 3.95ZM19.52 6.46L18.32 6.46L18.32 5.34L21.93 5.34L21.93 6.46L20.78 6.46L20.78 11.87L21.93 11.87L21.93 13.00L18.32 13.00L18.32 11.87L19.52 11.87L19.52 6.46ZM25.06 13.00L25.05 7.54L25.48 7.54Q26.80 7.54 27.38 6.76L27.38 6.76Q27.78 6.24 27.78 5.57L27.78 5.57Q27.77 4.66 27.38 4.22L27.38 4.22Q26.71 3.44 25.48 3.44L25.48 3.44Q24.94 3.44 24.40 3.59L24.40 3.59Q23.86 3.73 23.33 4.03L23.33 4.03L23.33 2.85Q23.85 2.61 24.40 2.50L24.40 2.50Q24.96 2.37 25.54 2.37L25.54 2.37Q27.42 2.37 28.36 3.45L28.36 3.45Q29.11 4.30 29.11 5.57L29.11 5.57Q29.11 6.73 28.37 7.52L28.37 7.52Q27.60 8.33 26.44 8.54L26.44 8.54L26.44 13.00L25.06 13.00ZM30.94 8.43L30.94 7.68L32.33 7.68L32.33 3.50L30.81 3.78L30.81 2.99L32.38 2.72L33.32 2.72L33.32 7.68L34.72 7.68L34.72 8.43L30.94 8.43ZM37.32 7.65L37.32 7.65L40.22 7.65L40.22 8.43L36.13 8.43L36.13 7.68Q36.36 7.46 36.79 7.08L36.79 7.08Q39.14 5.00 39.14 4.35L39.14 4.35Q39.14 3.90 38.79 3.63Q38.43 3.35 37.85 3.35L37.85 3.35Q37.50 3.35 37.08 3.47Q36.66 3.59 36.17 3.83L36.17 3.83L36.17 2.99Q36.70 2.80 37.15 2.70Q37.60 2.60 37.99 2.60L37.99 2.60Q38.99 2.60 39.58 3.06Q40.17 3.51 40.17 4.25L40.17 4.25Q40.17 5.20 37.91 7.14L37.91 7.14Q37.53 7.46 37.32 7.65Z"></path></svg>