<svg height="16.296875" width="33.427734375" xmlns="http://www.w3.org/2000/svg" ><path d="M7.28 6.81L7.28 6.81Q7.75 5.96 8.41 5.56Q9.06 5.15 9.95 5.15L9.95 5.15Q11.15 5.15 11.80 5.99Q12.45 6.83 12.45 8.37L12.45 8.37L12.45 13.00L11.18 13.00L11.18 8.42Q11.18 7.31 10.79 6.78Q10.40 6.25 9.60 6.25L9.60 6.25Q8.63 6.25 8.06 6.90Q7.49 7.55 7.49 8.67L7.49 8.67L7.49 13.00L6.23 13.00L6.23 8.42Q6.23 7.31 5.84 6.78Q5.45 6.25 4.63 6.25L4.63 6.25Q3.67 6.25 3.10 6.90Q2.54 7.55 2.54 8.67L2.54 8.67L2.54 13.00L1.27 13.00L1.27 5.34L2.54 5.34L2.54 6.53Q2.97 5.82 3.57 5.49Q4.17 5.15 5.00 5.15L5.00 5.15Q5.83 5.15 6.42 5.58Q7 6.00 7.28 6.81ZM17.92 6.22L17.92 6.22Q16.91 6.22 16.32 7.01Q15.74 7.80 15.74 9.17L15.74 9.17Q15.74 10.55 16.32 11.34Q16.91 12.13 17.92 12.13L17.92 12.13Q18.93 12.13 19.52 11.33Q20.10 10.54 20.10 9.17L20.10 9.17Q20.10 7.81 19.52 7.02Q18.93 6.22 17.92 6.22ZM17.92 5.15L17.92 5.15Q19.56 5.15 20.50 6.22Q21.44 7.29 21.44 9.17L21.44 9.17Q21.44 11.05 20.50 12.12Q19.56 13.19 17.92 13.19L17.92 13.19Q16.28 13.19 15.34 12.12Q14.41 11.05 14.41 9.17L14.41 9.17Q14.41 7.29 15.34 6.22Q16.28 5.15 17.92 5.15ZM23.17 5.58L23.17 2.72L26.66 2.72L26.66 3.37L23.99 3.37L23.99 4.76Q24.18 4.70 24.38 4.68L24.38 4.68Q24.57 4.65 24.76 4.65L24.76 4.65Q25.86 4.65 26.50 5.17L26.50 5.17Q27.15 5.69 27.15 6.59L27.15 6.59Q27.15 7.51 26.48 8.03L26.48 8.03Q25.83 8.53 24.62 8.53L24.62 8.53Q24.21 8.53 23.78 8.47Q23.35 8.41 22.90 8.29L22.90 8.29L22.90 7.51Q23.29 7.70 23.71 7.79L23.71 7.79Q24.14 7.88 24.61 7.88L24.61 7.88Q25.37 7.88 25.81 7.53Q26.26 7.18 26.26 6.59Q26.26 6.00 25.81 5.65Q25.37 5.30 24.61 5.30L24.61 5.30Q24.25 5.30 23.90 5.37Q23.54 5.43 23.17 5.58L23.17 5.58ZM31.40 5.34L31.40 5.34Q32.03 5.46 32.37 5.83Q32.72 6.21 32.72 6.77L32.72 6.77Q32.72 7.62 32.07 8.07Q31.42 8.53 30.21 8.53L30.21 8.53Q29.82 8.53 29.39 8.46Q28.96 8.39 28.49 8.25L28.49 8.25L28.49 7.42Q28.84 7.61 29.25 7.70Q29.65 7.79 30.11 7.79L30.11 7.79Q30.86 7.79 31.27 7.52Q31.68 7.25 31.68 6.77L31.68 6.77Q31.68 6.26 31.30 6.00Q30.92 5.74 30.18 5.74L30.18 5.74L29.59 5.74L29.59 5.00L30.24 5.00Q30.88 5.00 31.21 4.79Q31.54 4.57 31.54 4.16L31.54 4.16Q31.54 3.77 31.20 3.56Q30.86 3.35 30.21 3.35L30.21 3.35Q29.93 3.35 29.59 3.41Q29.24 3.47 28.68 3.63L28.68 3.63L28.68 2.84Q29.18 2.73 29.62 2.67Q30.06 2.60 30.43 2.60L30.43 2.60Q31.42 2.60 32.00 3.01Q32.57 3.41 32.57 4.09L32.57 4.09Q32.57 4.56 32.27 4.89Q31.96 5.22 31.40 5.34Z"></path></svg>