<svg height="16.296875" width="39.0400390625" xmlns="http://www.w3.org/2000/svg" ><path d="M7.28 6.81L7.28 6.81Q7.75 5.96 8.41 5.56Q9.06 5.15 9.95 5.15L9.95 5.15Q11.15 5.15 11.80 5.99Q12.45 6.83 12.45 8.37L12.45 8.37L12.45 13.00L11.18 13.00L11.18 8.42Q11.18 7.31 10.79 6.78Q10.40 6.25 9.60 6.25L9.60 6.25Q8.63 6.25 8.06 6.90Q7.49 7.55 7.49 8.67L7.49 8.67L7.49 13.00L6.23 13.00L6.23 8.42Q6.23 7.31 5.84 6.78Q5.45 6.25 4.63 6.25L4.63 6.25Q3.67 6.25 3.10 6.90Q2.54 7.55 2.54 8.67L2.54 8.67L2.54 13.00L1.27 13.00L1.27 5.34L2.54 5.34L2.54 6.53Q2.97 5.82 3.57 5.49Q4.17 5.15 5.00 5.15L5.00 5.15Q5.83 5.15 6.42 5.58Q7 6.00 7.28 6.81ZM19.82 7.52L19.82 7.52L16.50 11.57Q16.78 11.85 17.13 11.99Q17.48 12.13 17.92 12.13L17.92 12.13Q18.93 12.13 19.52 11.33Q20.10 10.54 20.10 9.17L20.10 9.17Q20.10 8.63 20.04 8.23Q19.97 7.83 19.82 7.52ZM16.00 10.83L19.34 6.78Q19.05 6.50 18.70 6.36Q18.35 6.22 17.92 6.22L17.92 6.22Q16.89 6.22 16.31 7.02Q15.74 7.83 15.74 9.27L15.74 9.27Q15.74 9.76 15.80 10.14Q15.87 10.51 16.00 10.83L16.00 10.83ZM14.13 13.10L15.15 11.86Q14.78 11.33 14.59 10.66Q14.41 9.99 14.41 9.17L14.41 9.17Q14.41 7.29 15.34 6.22Q16.28 5.15 17.92 5.15L17.92 5.15Q18.56 5.15 19.10 5.33Q19.65 5.50 20.10 5.86L20.10 5.86L21.05 4.71L21.70 5.25L20.71 6.47Q21.07 7 21.25 7.68Q21.44 8.35 21.44 9.17L21.44 9.17Q21.44 11.05 20.50 12.12Q19.56 13.19 17.92 13.19L17.92 13.19Q17.27 13.19 16.72 13.02Q16.17 12.84 15.74 12.49L15.74 12.49L14.79 13.64L14.13 13.10ZM23.27 8.43L23.27 7.68L24.66 7.68L24.66 3.50L23.14 3.78L23.14 2.99L24.71 2.72L25.65 2.72L25.65 7.68L27.05 7.68L27.05 8.43L23.27 8.43ZM28.88 8.43L28.88 7.68L30.28 7.68L30.28 3.50L28.75 3.78L28.75 2.99L30.32 2.72L31.26 2.72L31.26 7.68L32.66 7.68L32.66 8.43L28.88 8.43ZM37.01 5.34L37.01 5.34Q37.64 5.46 37.98 5.83Q38.33 6.21 38.33 6.77L38.33 6.77Q38.33 7.62 37.68 8.07Q37.03 8.53 35.82 8.53L35.82 8.53Q35.43 8.53 35.00 8.46Q34.58 8.39 34.10 8.25L34.10 8.25L34.10 7.42Q34.45 7.61 34.86 7.70Q35.27 7.79 35.72 7.79L35.72 7.79Q36.47 7.79 36.88 7.52Q37.29 7.25 37.29 6.77L37.29 6.77Q37.29 6.26 36.91 6.00Q36.53 5.74 35.79 5.74L35.79 5.74L35.21 5.74L35.21 5.00L35.85 5.00Q36.49 5.00 36.82 4.79Q37.15 4.57 37.15 4.16L37.15 4.16Q37.15 3.77 36.81 3.56Q36.47 3.35 35.82 3.35L35.82 3.35Q35.55 3.35 35.20 3.41Q34.85 3.47 34.30 3.63L34.30 3.63L34.30 2.84Q34.79 2.73 35.23 2.67Q35.67 2.60 36.05 2.60L36.05 2.60Q37.03 2.60 37.61 3.01Q38.19 3.41 38.19 4.09L38.19 4.09Q38.19 4.56 37.88 4.89Q37.57 5.22 37.01 5.34Z"></path></svg>