<svg height="16.296875" width="42.30078125" xmlns="http://www.w3.org/2000/svg" ><path d="M7.28 6.81L7.28 6.81Q7.75 5.96 8.41 5.56Q9.06 5.15 9.95 5.15L9.95 5.15Q11.15 5.15 11.80 5.99Q12.45 6.83 12.45 8.37L12.45 8.37L12.45 13.00L11.18 13.00L11.18 8.42Q11.18 7.31 10.79 6.78Q10.40 6.25 9.60 6.25L9.60 6.25Q8.63 6.25 8.06 6.90Q7.49 7.55 7.49 8.67L7.49 8.67L7.49 13.00L6.23 13.00L6.23 8.42Q6.23 7.31 5.84 6.78Q5.45 6.25 4.63 6.25L4.63 6.25Q3.67 6.25 3.10 6.90Q2.54 7.55 2.54 8.67L2.54 8.67L2.54 13.00L1.27 13.00L1.27 5.34L2.54 5.34L2.54 6.53Q2.97 5.82 3.57 5.49Q4.17 5.15 5.00 5.15L5.00 5.15Q5.83 5.15 6.42 5.58Q7 6.00 7.28 6.81ZM17.92 6.22L17.92 6.22Q16.91 6.22 16.32 7.01Q15.74 7.80 15.74 9.17L15.74 9.17Q15.74 10.55 16.32 11.34Q16.91 12.13 17.92 12.13L17.92 12.13Q18.93 12.13 19.52 11.33Q20.10 10.54 20.10 9.17L20.10 9.17Q20.10 7.81 19.52 7.02Q18.93 6.22 17.92 6.22ZM17.92 5.15L17.92 5.15Q19.56 5.15 20.50 6.22Q21.44 7.29 21.44 9.17L21.44 9.17Q21.44 11.05 20.50 12.12Q19.56 13.19 17.92 13.19L17.92 13.19Q16.28 13.19 15.34 12.12Q14.41 11.05 14.41 9.17L14.41 9.17Q14.41 7.29 15.34 6.22Q16.28 5.15 17.92 5.15ZM29.89 8.37L29.89 8.37L29.89 13.13Q29.89 14.59 29.33 15.25L29.33 15.25Q28.77 15.91 27.54 15.91L27.54 15.91L25.80 15.91L25.80 14.84L27.39 14.84Q28.11 14.84 28.37 14.51L28.37 14.51Q28.63 14.18 28.63 13.13L28.63 13.13L28.63 8.42Q28.63 7.33 28.21 6.79Q27.78 6.25 26.93 6.25L26.93 6.25Q25.92 6.25 25.33 6.90Q24.74 7.55 24.74 8.67L24.74 8.67L24.74 13.00L23.47 13.00L23.47 5.34L24.74 5.34L24.74 6.53Q25.19 5.84 25.80 5.50L25.80 5.50Q26.41 5.15 27.21 5.15L27.21 5.15Q28.53 5.15 29.21 5.97L29.21 5.97Q29.89 6.79 29.89 8.37ZM32.05 5.58L32.05 2.72L35.53 2.72L35.53 3.37L32.86 3.37L32.86 4.76Q33.05 4.70 33.25 4.68L33.25 4.68Q33.44 4.65 33.63 4.65L33.63 4.65Q34.73 4.65 35.38 5.17L35.38 5.17Q36.02 5.69 36.02 6.59L36.02 6.59Q36.02 7.51 35.36 8.03L35.36 8.03Q34.70 8.53 33.50 8.53L33.50 8.53Q33.09 8.53 32.66 8.47Q32.22 8.41 31.77 8.29L31.77 8.29L31.77 7.51Q32.16 7.70 32.59 7.79L32.59 7.79Q33.01 7.88 33.48 7.88L33.48 7.88Q34.24 7.88 34.69 7.53Q35.13 7.18 35.13 6.59Q35.13 6.00 34.69 5.65Q34.24 5.30 33.48 5.30L33.48 5.30Q33.13 5.30 32.77 5.37Q32.42 5.43 32.05 5.58L32.05 5.58ZM40.27 5.34L40.27 5.34Q40.90 5.46 41.24 5.83Q41.59 6.21 41.59 6.77L41.59 6.77Q41.59 7.62 40.94 8.07Q40.29 8.53 39.08 8.53L39.08 8.53Q38.69 8.53 38.26 8.46Q37.84 8.39 37.36 8.25L37.36 8.25L37.36 7.42Q37.71 7.61 38.12 7.70Q38.53 7.79 38.99 7.79L38.99 7.79Q39.73 7.79 40.14 7.52Q40.55 7.25 40.55 6.77L40.55 6.77Q40.55 6.26 40.17 6.00Q39.79 5.74 39.05 5.74L39.05 5.74L38.47 5.74L38.47 5.00L39.11 5.00Q39.75 5.00 40.08 4.79Q40.41 4.57 40.41 4.16L40.41 4.16Q40.41 3.77 40.07 3.56Q39.73 3.35 39.08 3.35L39.08 3.35Q38.81 3.35 38.46 3.41Q38.11 3.47 37.56 3.63L37.56 3.63L37.56 2.84Q38.06 2.73 38.49 2.67Q38.93 2.60 39.31 2.60L39.31 2.60Q40.29 2.60 40.87 3.01Q41.45 3.41 41.45 4.09L41.45 4.09Q41.45 4.56 41.14 4.89Q40.83 5.22 40.27 5.34Z"></path></svg>