<svg height="16.296875" width="47.9130859375" xmlns="http://www.w3.org/2000/svg" ><path d="M7.28 6.81L7.28 6.81Q7.75 5.96 8.41 5.56Q9.06 5.15 9.95 5.15L9.95 5.15Q11.15 5.15 11.80 5.99Q12.45 6.83 12.45 8.37L12.45 8.37L12.45 13.00L11.18 13.00L11.18 8.42Q11.18 7.31 10.79 6.78Q10.40 6.25 9.60 6.25L9.60 6.25Q8.63 6.25 8.06 6.90Q7.49 7.55 7.49 8.67L7.49 8.67L7.49 13.00L6.23 13.00L6.23 8.42Q6.23 7.31 5.84 6.78Q5.45 6.25 4.63 6.25L4.63 6.25Q3.67 6.25 3.10 6.90Q2.54 7.55 2.54 8.67L2.54 8.67L2.54 13.00L1.27 13.00L1.27 5.34L2.54 5.34L2.54 6.53Q2.97 5.82 3.57 5.49Q4.17 5.15 5.00 5.15L5.00 5.15Q5.83 5.15 6.42 5.58Q7 6.00 7.28 6.81ZM17.92 6.22L17.92 6.22Q16.91 6.22 16.32 7.01Q15.74 7.80 15.74 9.17L15.74 9.17Q15.74 10.55 16.32 11.34Q16.91 12.13 17.92 12.13L17.92 12.13Q18.93 12.13 19.52 11.33Q20.10 10.54 20.10 9.17L20.10 9.17Q20.10 7.81 19.52 7.02Q18.93 6.22 17.92 6.22ZM17.92 5.15L17.92 5.15Q19.56 5.15 20.50 6.22Q21.44 7.29 21.44 9.17L21.44 9.17Q21.44 11.05 20.50 12.12Q19.56 13.19 17.92 13.19L17.92 13.19Q16.28 13.19 15.34 12.12Q14.41 11.05 14.41 9.17L14.41 9.17Q14.41 7.29 15.34 6.22Q16.28 5.15 17.92 5.15ZM29.89 8.37L29.89 8.37L29.89 13.13Q29.89 14.59 29.33 15.25L29.33 15.25Q28.77 15.91 27.54 15.91L27.54 15.91L25.80 15.91L25.80 14.84L27.39 14.84Q28.11 14.84 28.37 14.51L28.37 14.51Q28.63 14.18 28.63 13.13L28.63 13.13L28.63 8.42Q28.63 7.33 28.21 6.79Q27.78 6.25 26.93 6.25L26.93 6.25Q25.92 6.25 25.33 6.90Q24.74 7.55 24.74 8.67L24.74 8.67L24.74 13.00L23.47 13.00L23.47 5.34L24.74 5.34L24.74 6.53Q25.19 5.84 25.80 5.50L25.80 5.50Q26.41 5.15 27.21 5.15L27.21 5.15Q28.53 5.15 29.21 5.97L29.21 5.97Q29.89 6.79 29.89 8.37ZM32.14 8.43L32.14 7.68L33.54 7.68L33.54 3.50L32.01 3.78L32.01 2.99L33.58 2.72L34.52 2.72L34.52 7.68L35.92 7.68L35.92 8.43L32.14 8.43ZM37.75 8.43L37.75 7.68L39.15 7.68L39.15 3.50L37.63 3.78L37.63 2.99L39.20 2.72L40.13 2.72L40.13 7.68L41.54 7.68L41.54 8.43L37.75 8.43ZM45.88 5.34L45.88 5.34Q46.51 5.46 46.86 5.83Q47.20 6.21 47.20 6.77L47.20 6.77Q47.20 7.62 46.55 8.07Q45.90 8.53 44.69 8.53L44.69 8.53Q44.30 8.53 43.88 8.46Q43.45 8.39 42.97 8.25L42.97 8.25L42.97 7.42Q43.33 7.61 43.73 7.70Q44.14 7.79 44.60 7.79L44.60 7.79Q45.34 7.79 45.75 7.52Q46.16 7.25 46.16 6.77L46.16 6.77Q46.16 6.26 45.78 6.00Q45.40 5.74 44.67 5.74L44.67 5.74L44.08 5.74L44.08 5.00L44.72 5.00Q45.36 5.00 45.69 4.79Q46.03 4.57 46.03 4.16L46.03 4.16Q46.03 3.77 45.68 3.56Q45.34 3.35 44.69 3.35L44.69 3.35Q44.42 3.35 44.07 3.41Q43.72 3.47 43.17 3.63L43.17 3.63L43.17 2.84Q43.67 2.73 44.11 2.67Q44.54 2.60 44.92 2.60L44.92 2.60Q45.90 2.60 46.48 3.01Q47.06 3.41 47.06 4.09L47.06 4.09Q47.06 4.56 46.75 4.89Q46.44 5.22 45.88 5.34Z"></path></svg>