<svg height="16.296875" width="40.5712890625" xmlns="http://www.w3.org/2000/svg" ><path d="M7.28 6.81L7.28 6.81Q7.75 5.96 8.41 5.56Q9.06 5.15 9.95 5.15L9.95 5.15Q11.15 5.15 11.80 5.99Q12.45 6.83 12.45 8.37L12.45 8.37L12.45 13.00L11.18 13.00L11.18 8.42Q11.18 7.31 10.79 6.78Q10.40 6.25 9.60 6.25L9.60 6.25Q8.63 6.25 8.06 6.90Q7.49 7.55 7.49 8.67L7.49 8.67L7.49 13.00L6.23 13.00L6.23 8.42Q6.23 7.31 5.84 6.78Q5.45 6.25 4.63 6.25L4.63 6.25Q3.67 6.25 3.10 6.90Q2.54 7.55 2.54 8.67L2.54 8.67L2.54 13.00L1.27 13.00L1.27 5.34L2.54 5.34L2.54 6.53Q2.97 5.82 3.57 5.49Q4.17 5.15 5.00 5.15L5.00 5.15Q5.83 5.15 6.42 5.58Q7 6.00 7.28 6.81ZM17.92 6.22L17.92 6.22Q16.91 6.22 16.32 7.01Q15.74 7.80 15.74 9.17L15.74 9.17Q15.74 10.55 16.32 11.34Q16.91 12.13 17.92 12.13L17.92 12.13Q18.93 12.13 19.52 11.33Q20.10 10.54 20.10 9.17L20.10 9.17Q20.10 7.81 19.52 7.02Q18.93 6.22 17.92 6.22ZM17.92 5.15L17.92 5.15Q19.56 5.15 20.50 6.22Q21.44 7.29 21.44 9.17L21.44 9.17Q21.44 11.05 20.50 12.12Q19.56 13.19 17.92 13.19L17.92 13.19Q16.28 13.19 15.34 12.12Q14.41 11.05 14.41 9.17L14.41 9.17Q14.41 7.29 15.34 6.22Q16.28 5.15 17.92 5.15ZM24.53 13.00L24.53 7.54L24.96 7.54Q26.27 7.54 26.86 6.76L26.86 6.76Q27.25 6.24 27.25 5.57L27.25 5.57Q27.25 4.66 26.86 4.22L26.86 4.22Q26.18 3.44 24.96 3.44L24.96 3.44Q24.41 3.44 23.87 3.59L23.87 3.59Q23.34 3.73 22.80 4.03L22.80 4.03L22.80 2.85Q23.32 2.61 23.88 2.50L23.88 2.50Q24.43 2.37 25.01 2.37L25.01 2.37Q26.89 2.37 27.84 3.45L27.84 3.45Q28.58 4.30 28.58 5.57L28.58 5.57Q28.58 6.73 27.84 7.52L27.84 7.52Q27.08 8.33 25.92 8.54L25.92 8.54L25.92 13.00L24.53 13.00ZM30.41 8.43L30.41 7.68L31.81 7.68L31.81 3.50L30.28 3.78L30.28 2.99L31.86 2.72L32.79 2.72L32.79 7.68L34.19 7.68L34.19 8.43L30.41 8.43ZM36.79 7.65L36.79 7.65L39.69 7.65L39.69 8.43L35.60 8.43L35.60 7.68Q35.83 7.46 36.26 7.08L36.26 7.08Q38.62 5.00 38.62 4.35L38.62 4.35Q38.62 3.90 38.26 3.63Q37.91 3.35 37.32 3.35L37.32 3.35Q36.97 3.35 36.55 3.47Q36.13 3.59 35.64 3.83L35.64 3.83L35.64 2.99Q36.17 2.80 36.62 2.70Q37.08 2.60 37.47 2.60L37.47 2.60Q38.46 2.60 39.05 3.06Q39.65 3.51 39.65 4.25L39.65 4.25Q39.65 5.20 37.39 7.14L37.39 7.14Q37.00 7.46 36.79 7.65Z"></path></svg>