<svg height="16.296875" width="33.7353515625" xmlns="http://www.w3.org/2000/svg" ><path d="M7.28 6.81L7.28 6.81Q7.75 5.96 8.41 5.56Q9.06 5.15 9.95 5.15L9.95 5.15Q11.15 5.15 11.80 5.99Q12.45 6.83 12.45 8.37L12.45 8.37L12.45 13.00L11.18 13.00L11.18 8.42Q11.18 7.31 10.79 6.78Q10.40 6.25 9.60 6.25L9.60 6.25Q8.63 6.25 8.06 6.90Q7.49 7.55 7.49 8.67L7.49 8.67L7.49 13.00L6.23 13.00L6.23 8.42Q6.23 7.31 5.84 6.78Q5.45 6.25 4.63 6.25L4.63 6.25Q3.67 6.25 3.10 6.90Q2.54 7.55 2.54 8.67L2.54 8.67L2.54 13.00L1.27 13.00L1.27 5.34L2.54 5.34L2.54 6.53Q2.97 5.82 3.57 5.49Q4.17 5.15 5.00 5.15L5.00 5.15Q5.83 5.15 6.42 5.58Q7 6.00 7.28 6.81ZM14.83 9.97L14.83 9.97L14.83 5.34L16.08 5.34L16.08 9.93Q16.08 11.01 16.51 11.56Q16.93 12.10 17.78 12.10L17.78 12.10Q18.80 12.10 19.39 11.45Q19.98 10.80 19.98 9.68L19.98 9.68L19.98 5.34L21.24 5.34L21.24 13.00L19.98 13.00L19.98 11.82Q19.52 12.52 18.92 12.85Q18.31 13.19 17.51 13.19L17.51 13.19Q16.19 13.19 15.51 12.37Q14.83 11.55 14.83 9.97ZM17.99 5.15L17.99 5.15ZM23.48 5.58L23.48 2.72L26.97 2.72L26.97 3.37L24.29 3.37L24.29 4.76Q24.49 4.70 24.68 4.68L24.68 4.68Q24.88 4.65 25.07 4.65L25.07 4.65Q26.17 4.65 26.81 5.17L26.81 5.17Q27.45 5.69 27.45 6.59L27.45 6.59Q27.45 7.51 26.79 8.03L26.79 8.03Q26.13 8.53 24.93 8.53L24.93 8.53Q24.52 8.53 24.09 8.47Q23.66 8.41 23.21 8.29L23.21 8.29L23.21 7.51Q23.60 7.70 24.02 7.79L24.02 7.79Q24.45 7.88 24.92 7.88L24.92 7.88Q25.68 7.88 26.12 7.53Q26.56 7.18 26.56 6.59Q26.56 6.00 26.12 5.65Q25.68 5.30 24.92 5.30L24.92 5.30Q24.56 5.30 24.21 5.37Q23.85 5.43 23.48 5.58L23.48 5.58ZM31.71 5.34L31.71 5.34Q32.33 5.46 32.68 5.83Q33.02 6.21 33.02 6.77L33.02 6.77Q33.02 7.62 32.38 8.07Q31.73 8.53 30.52 8.53L30.52 8.53Q30.13 8.53 29.70 8.46Q29.27 8.39 28.79 8.25L28.79 8.25L28.79 7.42Q29.15 7.61 29.56 7.70Q29.96 7.79 30.42 7.79L30.42 7.79Q31.17 7.79 31.58 7.52Q31.99 7.25 31.99 6.77L31.99 6.77Q31.99 6.26 31.61 6.00Q31.23 5.74 30.49 5.74L30.49 5.74L29.90 5.74L29.90 5.00L30.54 5.00Q31.19 5.00 31.52 4.79Q31.85 4.57 31.85 4.16L31.85 4.16Q31.85 3.77 31.51 3.56Q31.17 3.35 30.52 3.35L30.52 3.35Q30.24 3.35 29.89 3.41Q29.54 3.47 28.99 3.63L28.99 3.63L28.99 2.84Q29.49 2.73 29.93 2.67Q30.37 2.60 30.74 2.60L30.74 2.60Q31.73 2.60 32.30 3.01Q32.88 3.41 32.88 4.09L32.88 4.09Q32.88 4.56 32.57 4.89Q32.27 5.22 31.71 5.34Z"></path></svg>