<svg height="16.296875" width="39.34765625" xmlns="http://www.w3.org/2000/svg" ><path d="M7.28 6.81L7.28 6.81Q7.75 5.96 8.41 5.56Q9.06 5.15 9.95 5.15L9.95 5.15Q11.15 5.15 11.80 5.99Q12.45 6.83 12.45 8.37L12.45 8.37L12.45 13.00L11.18 13.00L11.18 8.42Q11.18 7.31 10.79 6.78Q10.40 6.25 9.60 6.25L9.60 6.25Q8.63 6.25 8.06 6.90Q7.49 7.55 7.49 8.67L7.49 8.67L7.49 13.00L6.23 13.00L6.23 8.42Q6.23 7.31 5.84 6.78Q5.45 6.25 4.63 6.25L4.63 6.25Q3.67 6.25 3.10 6.90Q2.54 7.55 2.54 8.67L2.54 8.67L2.54 13.00L1.27 13.00L1.27 5.34L2.54 5.34L2.54 6.53Q2.97 5.82 3.57 5.49Q4.17 5.15 5.00 5.15L5.00 5.15Q5.83 5.15 6.42 5.58Q7 6.00 7.28 6.81ZM14.83 9.97L14.83 9.97L14.83 5.34L16.08 5.34L16.08 9.93Q16.08 11.01 16.51 11.56Q16.93 12.10 17.78 12.10L17.78 12.10Q18.80 12.10 19.39 11.45Q19.98 10.80 19.98 9.68L19.98 9.68L19.98 5.34L21.24 5.34L21.24 13.00L19.98 13.00L19.98 11.82Q19.52 12.52 18.92 12.85Q18.31 13.19 17.51 13.19L17.51 13.19Q16.19 13.19 15.51 12.37Q14.83 11.55 14.83 9.97ZM17.99 5.15L17.99 5.15ZM23.58 8.43L23.58 7.68L24.97 7.68L24.97 3.50L23.45 3.78L23.45 2.99L25.02 2.72L25.96 2.72L25.96 7.68L27.36 7.68L27.36 8.43L23.58 8.43ZM29.19 8.43L29.19 7.68L30.58 7.68L30.58 3.50L29.06 3.78L29.06 2.99L30.63 2.72L31.57 2.72L31.57 7.68L32.97 7.68L32.97 8.43L29.19 8.43ZM37.32 5.34L37.32 5.34Q37.95 5.46 38.29 5.83Q38.64 6.21 38.64 6.77L38.64 6.77Q38.64 7.62 37.99 8.07Q37.34 8.53 36.13 8.53L36.13 8.53Q35.74 8.53 35.31 8.46Q34.88 8.39 34.41 8.25L34.41 8.25L34.41 7.42Q34.76 7.61 35.17 7.70Q35.57 7.79 36.03 7.79L36.03 7.79Q36.78 7.79 37.19 7.52Q37.60 7.25 37.60 6.77L37.60 6.77Q37.60 6.26 37.22 6.00Q36.84 5.74 36.10 5.74L36.10 5.74L35.51 5.74L35.51 5.00L36.16 5.00Q36.80 5.00 37.13 4.79Q37.46 4.57 37.46 4.16L37.46 4.16Q37.46 3.77 37.12 3.56Q36.78 3.35 36.13 3.35L36.13 3.35Q35.85 3.35 35.51 3.41Q35.16 3.47 34.60 3.63L34.60 3.63L34.60 2.84Q35.10 2.73 35.54 2.67Q35.98 2.60 36.35 2.60L36.35 2.60Q37.34 2.60 37.92 3.01Q38.49 3.41 38.49 4.09L38.49 4.09Q38.49 4.56 38.19 4.89Q37.88 5.22 37.32 5.34Z"></path></svg>