<svg height="16.296875" width="35.5263671875" xmlns="http://www.w3.org/2000/svg" ><path d="M7.68 8.37L7.68 8.37L7.68 13.00L6.43 13.00L6.43 8.42Q6.43 7.33 6.00 6.79Q5.58 6.25 4.73 6.25L4.73 6.25Q3.71 6.25 3.12 6.90Q2.54 7.55 2.54 8.67L2.54 8.67L2.54 13.00L1.27 13.00L1.27 5.34L2.54 5.34L2.54 6.53Q2.99 5.84 3.60 5.50Q4.21 5.15 5.01 5.15L5.01 5.15Q6.33 5.15 7.01 5.97Q7.68 6.79 7.68 8.37ZM13.87 5.34L16.74 13.00L15.41 13.00L14.71 11.12L11.32 11.12L10.62 13.00L9.29 13.00L12.16 5.34L13.87 5.34ZM13.02 6.57L11.70 10.10L14.33 10.10L13.02 6.57ZM19.49 13.00L19.48 7.54L19.91 7.54Q21.23 7.54 21.81 6.76L21.81 6.76Q22.21 6.24 22.21 5.57L22.21 5.57Q22.20 4.66 21.81 4.22L21.81 4.22Q21.14 3.44 19.91 3.44L19.91 3.44Q19.37 3.44 18.83 3.59L18.83 3.59Q18.29 3.73 17.76 4.03L17.76 4.03L17.76 2.85Q18.28 2.61 18.83 2.50L18.83 2.50Q19.39 2.37 19.97 2.37L19.97 2.37Q21.85 2.37 22.79 3.45L22.79 3.45Q23.54 4.30 23.54 5.57L23.54 5.57Q23.54 6.73 22.80 7.52L22.80 7.52Q22.03 8.33 20.87 8.54L20.87 8.54L20.87 13.00L19.49 13.00ZM25.37 8.43L25.37 7.68L26.76 7.68L26.76 3.50L25.24 3.78L25.24 2.99L26.81 2.72L27.75 2.72L27.75 7.68L29.15 7.68L29.15 8.43L25.37 8.43ZM31.75 7.65L31.75 7.65L34.64 7.65L34.64 8.43L30.56 8.43L30.56 7.68Q30.79 7.46 31.22 7.08L31.22 7.08Q33.57 5.00 33.57 4.35L33.57 4.35Q33.57 3.90 33.22 3.63Q32.86 3.35 32.28 3.35L32.28 3.35Q31.92 3.35 31.51 3.47Q31.09 3.59 30.60 3.83L30.60 3.83L30.60 2.99Q31.12 2.80 31.58 2.70Q32.03 2.60 32.42 2.60L32.42 2.60Q33.41 2.60 34.01 3.06Q34.60 3.51 34.60 4.25L34.60 4.25Q34.60 5.20 32.34 7.14L32.34 7.14Q31.96 7.46 31.75 7.65Z"></path></svg>