<svg height="16.296875" width="43.1962890625" xmlns="http://www.w3.org/2000/svg" ><path d="M7.68 8.37L7.68 8.37L7.68 13.00L6.43 13.00L6.43 8.42Q6.43 7.33 6.00 6.79Q5.58 6.25 4.73 6.25L4.73 6.25Q3.71 6.25 3.12 6.90Q2.54 7.55 2.54 8.67L2.54 8.67L2.54 13.00L1.27 13.00L1.27 5.34L2.54 5.34L2.54 6.53Q2.99 5.84 3.60 5.50Q4.21 5.15 5.01 5.15L5.01 5.15Q6.33 5.15 7.01 5.97Q7.68 6.79 7.68 8.37ZM9.65 9.50L9.65 9.50L9.65 8.88L15.43 8.88Q15.35 7.58 14.65 6.90Q13.95 6.22 12.69 6.22L12.69 6.22Q11.97 6.22 11.29 6.40Q10.61 6.58 9.94 6.93L9.94 6.93L9.94 5.74Q10.62 5.46 11.33 5.30Q12.04 5.15 12.77 5.15L12.77 5.15Q14.60 5.15 15.67 6.22Q16.74 7.29 16.74 9.11L16.74 9.11Q16.74 10.99 15.73 12.09Q14.71 13.19 12.99 13.19L12.99 13.19Q11.44 13.19 10.54 12.20Q9.65 11.20 9.65 9.50ZM15.39 9.86L10.90 9.86Q10.92 10.90 11.48 11.51Q12.04 12.13 12.97 12.13L12.97 12.13Q14.03 12.13 14.66 11.53Q15.29 10.94 15.39 9.86L15.39 9.86ZM25.17 8.37L25.17 8.37L25.17 13.00L23.91 13.00L23.91 8.42Q23.91 7.33 23.49 6.79Q23.06 6.25 22.22 6.25L22.22 6.25Q21.20 6.25 20.61 6.90Q20.02 7.55 20.02 8.67L20.02 8.67L20.02 13.00L18.76 13.00L18.76 5.34L20.02 5.34L20.02 6.53Q20.47 5.84 21.09 5.50Q21.70 5.15 22.50 5.15L22.50 5.15Q23.82 5.15 24.49 5.97Q25.17 6.79 25.17 8.37ZM27.43 8.43L27.43 7.68L28.82 7.68L28.82 3.50L27.30 3.78L27.30 2.99L28.87 2.72L29.80 2.72L29.80 7.68L31.21 7.68L31.21 8.43L27.43 8.43ZM33.04 8.43L33.04 7.68L34.43 7.68L34.43 3.50L32.91 3.78L32.91 2.99L34.48 2.72L35.42 2.72L35.42 7.68L36.82 7.68L36.82 8.43L33.04 8.43ZM41.17 5.34L41.17 5.34Q41.79 5.46 42.14 5.83Q42.49 6.21 42.49 6.77L42.49 6.77Q42.49 7.62 41.84 8.07Q41.19 8.53 39.98 8.53L39.98 8.53Q39.59 8.53 39.16 8.46Q38.73 8.39 38.25 8.25L38.25 8.25L38.25 7.42Q38.61 7.61 39.02 7.70Q39.42 7.79 39.88 7.79L39.88 7.79Q40.63 7.79 41.04 7.52Q41.45 7.25 41.45 6.77L41.45 6.77Q41.45 6.26 41.07 6.00Q40.69 5.74 39.95 5.74L39.95 5.74L39.36 5.74L39.36 5.00L40.00 5.00Q40.65 5.00 40.98 4.79Q41.31 4.57 41.31 4.16L41.31 4.16Q41.31 3.77 40.97 3.56Q40.63 3.35 39.98 3.35L39.98 3.35Q39.70 3.35 39.35 3.41Q39.01 3.47 38.45 3.63L38.45 3.63L38.45 2.84Q38.95 2.73 39.39 2.67Q39.83 2.60 40.20 2.60L40.20 2.60Q41.19 2.60 41.76 3.01Q42.34 3.41 42.34 4.09L42.34 4.09Q42.34 4.56 42.03 4.89Q41.73 5.22 41.17 5.34Z"></path></svg>