<svg height="16.296875" width="34.5830078125" xmlns="http://www.w3.org/2000/svg" ><path d="M7.68 8.37L7.68 8.37L7.68 13.00L6.43 13.00L6.43 8.42Q6.43 7.33 6.00 6.79Q5.58 6.25 4.73 6.25L4.73 6.25Q3.71 6.25 3.12 6.90Q2.54 7.55 2.54 8.67L2.54 8.67L2.54 13.00L1.27 13.00L1.27 5.13Q1.27 3.67 1.83 3.01Q2.39 2.36 3.62 2.36L3.62 2.36L5.36 2.36L5.36 3.42L3.78 3.42Q3.06 3.42 2.80 3.76Q2.54 4.09 2.54 5.13L2.54 5.13L2.54 6.53Q2.99 5.84 3.60 5.50Q4.21 5.15 5.01 5.15L5.01 5.15Q6.33 5.15 7.01 5.97Q7.68 6.79 7.68 8.37ZM16.56 8.37L16.56 8.37L16.56 13.13Q16.56 14.59 16.00 15.25L16.00 15.25Q15.44 15.91 14.21 15.91L14.21 15.91L12.47 15.91L12.47 14.84L14.06 14.84Q14.78 14.84 15.04 14.51L15.04 14.51Q15.30 14.18 15.30 13.13L15.30 13.13L15.30 8.42Q15.30 7.33 14.88 6.79Q14.45 6.25 13.60 6.25L13.60 6.25Q12.58 6.25 12.00 6.90Q11.41 7.55 11.41 8.67L11.41 8.67L11.41 13.00L10.14 13.00L10.14 5.34L11.41 5.34L11.41 6.53Q11.86 5.84 12.47 5.50L12.47 5.50Q13.08 5.15 13.88 5.15L13.88 5.15Q15.20 5.15 15.88 5.97L15.88 5.97Q16.56 6.79 16.56 8.37ZM13.78 13.65L14.71 13.65L14.71 16.36L13.78 16.36L13.78 13.65ZM18.81 8.43L18.81 7.68L20.21 7.68L20.21 3.50L18.68 3.78L18.68 2.99L20.25 2.72L21.19 2.72L21.19 7.68L22.59 7.68L22.59 8.43L18.81 8.43ZM24.42 8.43L24.42 7.68L25.82 7.68L25.82 3.50L24.29 3.78L24.29 2.99L25.87 2.72L26.80 2.72L26.80 7.68L28.21 7.68L28.21 8.43L24.42 8.43ZM32.55 5.34L32.55 5.34Q33.18 5.46 33.53 5.83Q33.87 6.21 33.87 6.77L33.87 6.77Q33.87 7.62 33.22 8.07Q32.57 8.53 31.36 8.53L31.36 8.53Q30.97 8.53 30.55 8.46Q30.12 8.39 29.64 8.25L29.64 8.25L29.64 7.42Q30.00 7.61 30.40 7.70Q30.81 7.79 31.27 7.79L31.27 7.79Q32.01 7.79 32.42 7.52Q32.83 7.25 32.83 6.77L32.83 6.77Q32.83 6.26 32.45 6.00Q32.07 5.74 31.34 5.74L31.34 5.74L30.75 5.74L30.75 5.00L31.39 5.00Q32.03 5.00 32.36 4.79Q32.70 4.57 32.70 4.16L32.70 4.16Q32.70 3.77 32.35 3.56Q32.01 3.35 31.36 3.35L31.36 3.35Q31.09 3.35 30.74 3.41Q30.39 3.47 29.84 3.63L29.84 3.63L29.84 2.84Q30.34 2.73 30.78 2.67Q31.21 2.60 31.59 2.60L31.59 2.60Q32.57 2.60 33.15 3.01Q33.73 3.41 33.73 4.09L33.73 4.09Q33.73 4.56 33.42 4.89Q33.11 5.22 32.55 5.34Z"></path></svg>