<svg height="16.296875" width="34.5966796875" xmlns="http://www.w3.org/2000/svg" ><path d="M7.68 8.37L7.68 8.37L7.68 13.13Q7.68 14.59 7.12 15.25L7.12 15.25Q6.57 15.91 5.33 15.91L5.33 15.91L3.60 15.91L3.60 14.84L5.19 14.84Q5.91 14.84 6.17 14.51L6.17 14.51Q6.43 14.18 6.43 13.13L6.43 13.13L6.43 8.42Q6.43 7.33 6.00 6.79Q5.58 6.25 4.73 6.25L4.73 6.25Q3.71 6.25 3.12 6.90Q2.54 7.55 2.54 8.67L2.54 8.67L2.54 13.00L1.27 13.00L1.27 5.34L2.54 5.34L2.54 6.53Q2.99 5.84 3.60 5.50L3.60 5.50Q4.21 5.15 5.01 5.15L5.01 5.15Q6.33 5.15 7.01 5.97L7.01 5.97Q7.68 6.79 7.68 8.37ZM15.23 6.50L15.23 6.50L15.23 5.34L16.49 5.34L16.49 13.00L15.23 13.00L15.23 11.85Q14.83 12.53 14.23 12.86Q13.62 13.19 12.78 13.19L12.78 13.19Q11.39 13.19 10.52 12.09Q9.65 10.98 9.65 9.17L9.65 9.17Q9.65 7.37 10.52 6.26Q11.39 5.15 12.78 5.15L12.78 5.15Q13.62 5.15 14.23 5.49Q14.83 5.82 15.23 6.50ZM10.94 9.17L10.94 9.17Q10.94 10.56 11.52 11.35Q12.09 12.14 13.08 12.14L13.08 12.14Q14.08 12.14 14.66 11.35Q15.23 10.56 15.23 9.17L15.23 9.17Q15.23 7.79 14.66 7.00Q14.08 6.21 13.08 6.21L13.08 6.21Q12.09 6.21 11.52 7.00Q10.94 7.79 10.94 9.17ZM14.22 3.63L14.22 3.63L13.83 3.25Q13.68 3.12 13.57 3.05Q13.45 2.99 13.36 2.99L13.36 2.99Q13.10 2.99 12.98 3.24Q12.86 3.49 12.84 4.05L12.84 4.05L11.99 4.05Q12.00 3.12 12.35 2.62Q12.70 2.12 13.32 2.12L13.32 2.12Q13.58 2.12 13.80 2.21Q14.02 2.31 14.27 2.54L14.27 2.54L14.66 2.91Q14.81 3.05 14.93 3.11Q15.04 3.18 15.13 3.18L15.13 3.18Q15.39 3.18 15.51 2.93Q15.63 2.68 15.65 2.12L15.65 2.12L16.50 2.12Q16.49 3.04 16.14 3.54Q15.79 4.05 15.17 4.05L15.17 4.05Q14.91 4.05 14.69 3.95Q14.47 3.86 14.22 3.63ZM18.83 8.43L18.83 7.68L20.22 7.68L20.22 3.50L18.70 3.78L18.70 2.99L20.27 2.72L21.21 2.72L21.21 7.68L22.61 7.68L22.61 8.43L18.83 8.43ZM24.44 8.43L24.44 7.68L25.83 7.68L25.83 3.50L24.31 3.78L24.31 2.99L25.88 2.72L26.82 2.72L26.82 7.68L28.22 7.68L28.22 8.43L24.44 8.43ZM32.57 5.34L32.57 5.34Q33.20 5.46 33.54 5.83Q33.89 6.21 33.89 6.77L33.89 6.77Q33.89 7.62 33.24 8.07Q32.59 8.53 31.38 8.53L31.38 8.53Q30.99 8.53 30.56 8.46Q30.13 8.39 29.65 8.25L29.65 8.25L29.65 7.42Q30.01 7.61 30.42 7.70Q30.82 7.79 31.28 7.79L31.28 7.79Q32.03 7.79 32.44 7.52Q32.85 7.25 32.85 6.77L32.85 6.77Q32.85 6.26 32.47 6.00Q32.09 5.74 31.35 5.74L31.35 5.74L30.76 5.74L30.76 5.00L31.40 5.00Q32.05 5.00 32.38 4.79Q32.71 4.57 32.71 4.16L32.71 4.16Q32.71 3.77 32.37 3.56Q32.03 3.35 31.38 3.35L31.38 3.35Q31.10 3.35 30.75 3.41Q30.41 3.47 29.85 3.63L29.85 3.63L29.85 2.84Q30.35 2.73 30.79 2.67Q31.23 2.60 31.60 2.60L31.60 2.60Q32.59 2.60 33.16 3.01Q33.74 3.41 33.74 4.09L33.74 4.09Q33.74 4.56 33.43 4.89Q33.13 5.22 32.57 5.34Z"></path></svg>