<svg height="16.296875" width="35.8544921875" xmlns="http://www.w3.org/2000/svg" ><path d="M7.68 8.37L7.68 8.37L7.68 13.13Q7.68 14.59 7.12 15.25L7.12 15.25Q6.57 15.91 5.33 15.91L5.33 15.91L3.60 15.91L3.60 14.84L5.19 14.84Q5.91 14.84 6.17 14.51L6.17 14.51Q6.43 14.18 6.43 13.13L6.43 13.13L6.43 8.42Q6.43 7.33 6.00 6.79Q5.58 6.25 4.73 6.25L4.73 6.25Q3.71 6.25 3.12 6.90Q2.54 7.55 2.54 8.67L2.54 8.67L2.54 13.00L1.27 13.00L1.27 5.34L2.54 5.34L2.54 6.53Q2.99 5.84 3.60 5.50L3.60 5.50Q4.21 5.15 5.01 5.15L5.01 5.15Q6.33 5.15 7.01 5.97L7.01 5.97Q7.68 6.79 7.68 8.37ZM9.65 9.50L9.65 9.50L9.65 8.88L15.43 8.88Q15.35 7.58 14.65 6.90Q13.95 6.22 12.69 6.22L12.69 6.22Q11.97 6.22 11.29 6.40Q10.61 6.58 9.94 6.93L9.94 6.93L9.94 5.74Q10.62 5.46 11.33 5.30Q12.04 5.15 12.77 5.15L12.77 5.15Q14.60 5.15 15.67 6.22Q16.74 7.29 16.74 9.11L16.74 9.11Q16.74 10.99 15.73 12.09Q14.71 13.19 12.99 13.19L12.99 13.19Q11.44 13.19 10.54 12.20Q9.65 11.20 9.65 9.50ZM15.39 9.86L10.90 9.86Q10.92 10.90 11.48 11.51Q12.04 12.13 12.97 12.13L12.97 12.13Q14.03 12.13 14.66 11.53Q15.29 10.94 15.39 9.86L15.39 9.86ZM19.82 13.00L19.81 7.54L20.24 7.54Q21.55 7.54 22.14 6.76L22.14 6.76Q22.54 6.24 22.54 5.57L22.54 5.57Q22.53 4.66 22.14 4.22L22.14 4.22Q21.46 3.44 20.24 3.44L20.24 3.44Q19.69 3.44 19.15 3.59L19.15 3.59Q18.62 3.73 18.09 4.03L18.09 4.03L18.09 2.85Q18.61 2.61 19.16 2.50L19.16 2.50Q19.71 2.37 20.30 2.37L20.30 2.37Q22.18 2.37 23.12 3.45L23.12 3.45Q23.86 4.30 23.86 5.57L23.86 5.57Q23.86 6.73 23.13 7.52L23.13 7.52Q22.36 8.33 21.20 8.54L21.20 8.54L21.20 13.00L19.82 13.00ZM25.70 8.43L25.70 7.68L27.09 7.68L27.09 3.50L25.57 3.78L25.57 2.99L27.14 2.72L28.08 2.72L28.08 7.68L29.48 7.68L29.48 8.43L25.70 8.43ZM32.07 7.65L32.07 7.65L34.97 7.65L34.97 8.43L30.88 8.43L30.88 7.68Q31.12 7.46 31.55 7.08L31.55 7.08Q33.90 5.00 33.90 4.35L33.90 4.35Q33.90 3.90 33.54 3.63Q33.19 3.35 32.61 3.35L32.61 3.35Q32.25 3.35 31.83 3.47Q31.42 3.59 30.93 3.83L30.93 3.83L30.93 2.99Q31.45 2.80 31.91 2.70Q32.36 2.60 32.75 2.60L32.75 2.60Q33.74 2.60 34.34 3.06Q34.93 3.51 34.93 4.25L34.93 4.25Q34.93 5.20 32.67 7.14L32.67 7.14Q32.29 7.46 32.07 7.65Z"></path></svg>