<svg height="16.296875" width="34.0498046875" xmlns="http://www.w3.org/2000/svg" ><path d="M7.68 8.37L7.68 8.37L7.68 13.13Q7.68 14.59 7.12 15.25L7.12 15.25Q6.57 15.91 5.33 15.91L5.33 15.91L3.60 15.91L3.60 14.84L5.19 14.84Q5.91 14.84 6.17 14.51L6.17 14.51Q6.43 14.18 6.43 13.13L6.43 13.13L6.43 8.42Q6.43 7.33 6.00 6.79Q5.58 6.25 4.73 6.25L4.73 6.25Q3.71 6.25 3.12 6.90Q2.54 7.55 2.54 8.67L2.54 8.67L2.54 13.00L1.27 13.00L1.27 5.34L2.54 5.34L2.54 6.53Q2.99 5.84 3.60 5.50L3.60 5.50Q4.21 5.15 5.01 5.15L5.01 5.15Q6.33 5.15 7.01 5.97L7.01 5.97Q7.68 6.79 7.68 8.37ZM11.01 5.34L13.04 8.07L15.07 5.34L16.56 5.34L13.84 8.99Q14.32 9.66 14.62 10.18L14.62 10.18Q15.09 11.00 15.09 11.42L15.09 11.42Q15.09 12.31 14.58 12.75Q14.07 13.19 13.04 13.19L13.04 13.19Q12.02 13.19 11.50 12.75Q10.99 12.31 10.99 11.42L10.99 11.42Q10.99 11.00 11.46 10.18L11.46 10.18Q11.76 9.66 12.25 8.99L12.25 8.99L9.53 5.34L11.01 5.34ZM13.04 12.13L13.04 12.13Q13.50 12.13 13.71 11.94L13.71 11.94Q13.90 11.78 13.90 11.47L13.90 11.47Q13.90 11.25 13.64 10.81L13.64 10.81Q13.43 10.47 13.04 9.99L13.04 9.99Q12.66 10.47 12.45 10.81L12.45 10.81Q12.18 11.25 12.18 11.47L12.18 11.47Q12.18 11.78 12.37 11.94L12.37 11.94Q12.58 12.13 13.04 12.13ZM18.28 8.43L18.28 7.68L19.67 7.68L19.67 3.50L18.15 3.78L18.15 2.99L19.72 2.72L20.66 2.72L20.66 7.68L22.06 7.68L22.06 8.43L18.28 8.43ZM23.89 8.43L23.89 7.68L25.29 7.68L25.29 3.50L23.76 3.78L23.76 2.99L25.33 2.72L26.27 2.72L26.27 7.68L27.67 7.68L27.67 8.43L23.89 8.43ZM32.02 5.34L32.02 5.34Q32.65 5.46 32.99 5.83Q33.34 6.21 33.34 6.77L33.34 6.77Q33.34 7.62 32.69 8.07Q32.04 8.53 30.83 8.53L30.83 8.53Q30.44 8.53 30.01 8.46Q29.59 8.39 29.11 8.25L29.11 8.25L29.11 7.42Q29.46 7.61 29.87 7.70Q30.28 7.79 30.73 7.79L30.73 7.79Q31.48 7.79 31.89 7.52Q32.30 7.25 32.30 6.77L32.30 6.77Q32.30 6.26 31.92 6.00Q31.54 5.74 30.80 5.74L30.80 5.74L30.21 5.74L30.21 5.00L30.86 5.00Q31.50 5.00 31.83 4.79Q32.16 4.57 32.16 4.16L32.16 4.16Q32.16 3.77 31.82 3.56Q31.48 3.35 30.83 3.35L30.83 3.35Q30.56 3.35 30.21 3.41Q29.86 3.47 29.31 3.63L29.31 3.63L29.31 2.84Q29.80 2.73 30.24 2.67Q30.68 2.60 31.06 2.60L31.06 2.60Q32.04 2.60 32.62 3.01Q33.20 3.41 33.20 4.09L33.20 4.09Q33.20 4.56 32.89 4.89Q32.58 5.22 32.02 5.34Z"></path></svg>