<svg height="16.296875" width="35.806640625" xmlns="http://www.w3.org/2000/svg" ><path d="M7.68 8.37L7.68 8.37L7.68 13.13Q7.68 14.59 7.12 15.25L7.12 15.25Q6.57 15.91 5.33 15.91L5.33 15.91L3.60 15.91L3.60 14.84L5.19 14.84Q5.91 14.84 6.17 14.51L6.17 14.51Q6.43 14.18 6.43 13.13L6.43 13.13L6.43 8.42Q6.43 7.33 6.00 6.79Q5.58 6.25 4.73 6.25L4.73 6.25Q3.71 6.25 3.12 6.90Q2.54 7.55 2.54 8.67L2.54 8.67L2.54 13.00L1.27 13.00L1.27 5.34L2.54 5.34L2.54 6.53Q2.99 5.84 3.60 5.50L3.60 5.50Q4.21 5.15 5.01 5.15L5.01 5.15Q6.33 5.15 7.01 5.97L7.01 5.97Q7.68 6.79 7.68 8.37ZM13.16 6.22L13.16 6.22Q12.15 6.22 11.56 7.01Q10.97 7.80 10.97 9.17L10.97 9.17Q10.97 10.55 11.56 11.34Q12.14 12.13 13.16 12.13L13.16 12.13Q14.16 12.13 14.75 11.33Q15.34 10.54 15.34 9.17L15.34 9.17Q15.34 7.81 14.75 7.02Q14.16 6.22 13.16 6.22ZM13.16 5.15L13.16 5.15Q14.80 5.15 15.74 6.22Q16.67 7.29 16.67 9.17L16.67 9.17Q16.67 11.05 15.74 12.12Q14.80 13.19 13.16 13.19L13.16 13.19Q11.51 13.19 10.58 12.12Q9.65 11.05 9.65 9.17L9.65 9.17Q9.65 7.29 10.58 6.22Q11.51 5.15 13.16 5.15ZM19.77 13.00L19.76 7.54L20.19 7.54Q21.51 7.54 22.09 6.76L22.09 6.76Q22.49 6.24 22.49 5.57L22.49 5.57Q22.48 4.66 22.09 4.22L22.09 4.22Q21.42 3.44 20.19 3.44L20.19 3.44Q19.65 3.44 19.11 3.59L19.11 3.59Q18.57 3.73 18.04 4.03L18.04 4.03L18.04 2.85Q18.56 2.61 19.11 2.50L19.11 2.50Q19.67 2.37 20.25 2.37L20.25 2.37Q22.13 2.37 23.07 3.45L23.07 3.45Q23.82 4.30 23.82 5.57L23.82 5.57Q23.82 6.73 23.08 7.52L23.08 7.52Q22.31 8.33 21.15 8.54L21.15 8.54L21.15 13.00L19.77 13.00ZM25.65 8.43L25.65 7.68L27.04 7.68L27.04 3.50L25.52 3.78L25.52 2.99L27.09 2.72L28.03 2.72L28.03 7.68L29.43 7.68L29.43 8.43L25.65 8.43ZM32.03 7.65L32.03 7.65L34.92 7.65L34.92 8.43L30.84 8.43L30.84 7.68Q31.07 7.46 31.50 7.08L31.50 7.08Q33.85 5.00 33.85 4.35L33.85 4.35Q33.85 3.90 33.50 3.63Q33.14 3.35 32.56 3.35L32.56 3.35Q32.20 3.35 31.79 3.47Q31.37 3.59 30.88 3.83L30.88 3.83L30.88 2.99Q31.40 2.80 31.86 2.70Q32.31 2.60 32.70 2.60L32.70 2.60Q33.69 2.60 34.29 3.06Q34.88 3.51 34.88 4.25L34.88 4.25Q34.88 5.20 32.62 7.14L32.62 7.14Q32.24 7.46 32.03 7.65Z"></path></svg>