<svg height="16.296875" width="34.275390625" xmlns="http://www.w3.org/2000/svg" ><path d="M7.68 8.37L7.68 8.37L7.68 13.00L6.43 13.00L6.43 8.42Q6.43 7.33 6.00 6.79Q5.58 6.25 4.73 6.25L4.73 6.25Q3.71 6.25 3.12 6.90Q2.54 7.55 2.54 8.67L2.54 8.67L2.54 13.00L1.27 13.00L1.27 5.34L2.54 5.34L2.54 6.53Q2.99 5.84 3.60 5.50Q4.21 5.15 5.01 5.15L5.01 5.15Q6.33 5.15 7.01 5.97Q7.68 6.79 7.68 8.37ZM15.06 7.52L15.06 7.52L11.73 11.57Q12.01 11.85 12.36 11.99Q12.71 12.13 13.16 12.13L13.16 12.13Q14.16 12.13 14.75 11.33Q15.34 10.54 15.34 9.17L15.34 9.17Q15.34 8.63 15.27 8.23Q15.20 7.83 15.06 7.52ZM11.24 10.83L14.57 6.78Q14.29 6.50 13.94 6.36Q13.58 6.22 13.16 6.22L13.16 6.22Q12.13 6.22 11.55 7.02Q10.97 7.83 10.97 9.27L10.97 9.27Q10.97 9.76 11.04 10.14Q11.10 10.51 11.24 10.83L11.24 10.83ZM9.37 13.10L10.38 11.86Q10.01 11.33 9.83 10.66Q9.65 9.99 9.65 9.17L9.65 9.17Q9.65 7.29 10.58 6.22Q11.51 5.15 13.16 5.15L13.16 5.15Q13.79 5.15 14.34 5.33Q14.88 5.50 15.34 5.86L15.34 5.86L16.29 4.71L16.94 5.25L15.94 6.47Q16.30 7 16.49 7.68Q16.67 8.35 16.67 9.17L16.67 9.17Q16.67 11.05 15.74 12.12Q14.80 13.19 13.16 13.19L13.16 13.19Q12.50 13.19 11.95 13.02Q11.40 12.84 10.97 12.49L10.97 12.49L10.02 13.64L9.37 13.10ZM18.50 8.43L18.50 7.68L19.90 7.68L19.90 3.50L18.38 3.78L18.38 2.99L19.95 2.72L20.88 2.72L20.88 7.68L22.29 7.68L22.29 8.43L18.50 8.43ZM24.12 8.43L24.12 7.68L25.51 7.68L25.51 3.50L23.99 3.78L23.99 2.99L25.56 2.72L26.50 2.72L26.50 7.68L27.90 7.68L27.90 8.43L24.12 8.43ZM32.25 5.34L32.25 5.34Q32.87 5.46 33.22 5.83Q33.56 6.21 33.56 6.77L33.56 6.77Q33.56 7.62 32.92 8.07Q32.27 8.53 31.06 8.53L31.06 8.53Q30.67 8.53 30.24 8.46Q29.81 8.39 29.33 8.25L29.33 8.25L29.33 7.42Q29.69 7.61 30.10 7.70Q30.50 7.79 30.96 7.79L30.96 7.79Q31.71 7.79 32.12 7.52Q32.53 7.25 32.53 6.77L32.53 6.77Q32.53 6.26 32.15 6.00Q31.77 5.74 31.03 5.74L31.03 5.74L30.44 5.74L30.44 5.00L31.08 5.00Q31.73 5.00 32.06 4.79Q32.39 4.57 32.39 4.16L32.39 4.16Q32.39 3.77 32.05 3.56Q31.71 3.35 31.06 3.35L31.06 3.35Q30.78 3.35 30.43 3.41Q30.08 3.47 29.53 3.63L29.53 3.63L29.53 2.84Q30.03 2.73 30.47 2.67Q30.91 2.60 31.28 2.60L31.28 2.60Q32.27 2.60 32.84 3.01Q33.42 3.41 33.42 4.09L33.42 4.09Q33.42 4.56 33.11 4.89Q32.81 5.22 32.25 5.34Z"></path></svg>