<svg height="16.296875" width="19.7900390625" xmlns="http://www.w3.org/2000/svg" ><path d="M4.29 6.22L4.29 6.22Q3.27 6.22 2.69 7.01Q2.10 7.80 2.10 9.17L2.10 9.17Q2.10 10.55 2.68 11.34Q3.27 12.13 4.29 12.13L4.29 12.13Q5.29 12.13 5.88 11.33Q6.47 10.54 6.47 9.17L6.47 9.17Q6.47 7.81 5.88 7.02Q5.29 6.22 4.29 6.22ZM4.29 5.15L4.29 5.15Q5.93 5.15 6.86 6.22Q7.80 7.29 7.80 9.17L7.80 9.17Q7.80 11.05 6.86 12.12Q5.93 13.19 4.29 13.19L4.29 13.19Q2.64 13.19 1.71 12.12Q0.77 11.05 0.77 9.17L0.77 9.17Q0.77 7.29 1.71 6.22Q2.64 5.15 4.29 5.15ZM9.54 5.58L9.54 2.72L13.02 2.72L13.02 3.37L10.35 3.37L10.35 4.76Q10.54 4.70 10.74 4.68L10.74 4.68Q10.93 4.65 11.12 4.65L11.12 4.65Q12.22 4.65 12.87 5.17L12.87 5.17Q13.51 5.69 13.51 6.59L13.51 6.59Q13.51 7.51 12.84 8.03L12.84 8.03Q12.19 8.53 10.99 8.53L10.99 8.53Q10.58 8.53 10.14 8.47Q9.71 8.41 9.26 8.29L9.26 8.29L9.26 7.51Q9.65 7.70 10.08 7.79L10.08 7.79Q10.50 7.88 10.97 7.88L10.97 7.88Q11.73 7.88 12.17 7.53Q12.62 7.18 12.62 6.59Q12.62 6.00 12.17 5.65Q11.73 5.30 10.97 5.30L10.97 5.30Q10.62 5.30 10.26 5.37Q9.91 5.43 9.54 5.58L9.54 5.58ZM17.76 5.34L17.76 5.34Q18.39 5.46 18.73 5.83Q19.08 6.21 19.08 6.77L19.08 6.77Q19.08 7.62 18.43 8.07Q17.78 8.53 16.57 8.53L16.57 8.53Q16.18 8.53 15.75 8.46Q15.33 8.39 14.85 8.25L14.85 8.25L14.85 7.42Q15.20 7.61 15.61 7.70Q16.02 7.79 16.47 7.79L16.47 7.79Q17.22 7.79 17.63 7.52Q18.04 7.25 18.04 6.77L18.04 6.77Q18.04 6.26 17.66 6.00Q17.28 5.74 16.54 5.74L16.54 5.74L15.96 5.74L15.96 5.00L16.60 5.00Q17.24 5.00 17.57 4.79Q17.90 4.57 17.90 4.16L17.90 4.16Q17.90 3.77 17.56 3.56Q17.22 3.35 16.57 3.35L16.57 3.35Q16.30 3.35 15.95 3.41Q15.60 3.47 15.05 3.63L15.05 3.63L15.05 2.84Q15.54 2.73 15.98 2.67Q16.42 2.60 16.80 2.60L16.80 2.60Q17.78 2.60 18.36 3.01Q18.94 3.41 18.94 4.09L18.94 4.09Q18.94 4.56 18.63 4.89Q18.32 5.22 17.76 5.34Z"></path></svg>