<svg height="16.296875" width="25.40234375" xmlns="http://www.w3.org/2000/svg" ><path d="M6.19 7.52L6.19 7.52L2.86 11.57Q3.14 11.85 3.49 11.99Q3.84 12.13 4.29 12.13L4.29 12.13Q5.29 12.13 5.88 11.33Q6.47 10.54 6.47 9.17L6.47 9.17Q6.47 8.63 6.40 8.23Q6.33 7.83 6.19 7.52ZM2.37 10.83L5.70 6.78Q5.41 6.50 5.06 6.36Q4.71 6.22 4.29 6.22L4.29 6.22Q3.25 6.22 2.68 7.02Q2.10 7.83 2.10 9.27L2.10 9.27Q2.10 9.76 2.16 10.14Q2.23 10.51 2.37 10.83L2.37 10.83ZM0.49 13.10L1.51 11.86Q1.14 11.33 0.96 10.66Q0.77 9.99 0.77 9.17L0.77 9.17Q0.77 7.29 1.71 6.22Q2.64 5.15 4.29 5.15L4.29 5.15Q4.92 5.15 5.47 5.33Q6.01 5.50 6.47 5.86L6.47 5.86L7.42 4.71L8.07 5.25L7.07 6.47Q7.43 7 7.62 7.68Q7.80 8.35 7.80 9.17L7.80 9.17Q7.80 11.05 6.86 12.12Q5.93 13.19 4.29 13.19L4.29 13.19Q3.63 13.19 3.08 13.02Q2.53 12.84 2.10 12.49L2.10 12.49L1.15 13.64L0.49 13.10ZM12.15 5.34L12.15 5.34Q12.78 5.46 13.12 5.83Q13.47 6.21 13.47 6.77L13.47 6.77Q13.47 7.62 12.82 8.07Q12.17 8.53 10.96 8.53L10.96 8.53Q10.57 8.53 10.14 8.46Q9.71 8.39 9.24 8.25L9.24 8.25L9.24 7.42Q9.59 7.61 10.00 7.70Q10.40 7.79 10.86 7.79L10.86 7.79Q11.61 7.79 12.02 7.52Q12.43 7.25 12.43 6.77L12.43 6.77Q12.43 6.26 12.05 6.00Q11.67 5.74 10.93 5.74L10.93 5.74L10.34 5.74L10.34 5.00L10.99 5.00Q11.63 5.00 11.96 4.79Q12.29 4.57 12.29 4.16L12.29 4.16Q12.29 3.77 11.95 3.56Q11.61 3.35 10.96 3.35L10.96 3.35Q10.68 3.35 10.34 3.41Q9.99 3.47 9.43 3.63L9.43 3.63L9.43 2.84Q9.93 2.73 10.37 2.67Q10.81 2.60 11.18 2.60L11.18 2.60Q12.17 2.60 12.75 3.01Q13.32 3.41 13.32 4.09L13.32 4.09Q13.32 4.56 13.02 4.89Q12.71 5.22 12.15 5.34ZM17.76 5.34L17.76 5.34Q18.39 5.46 18.73 5.83Q19.08 6.21 19.08 6.77L19.08 6.77Q19.08 7.62 18.43 8.07Q17.78 8.53 16.57 8.53L16.57 8.53Q16.18 8.53 15.75 8.46Q15.33 8.39 14.85 8.25L14.85 8.25L14.85 7.42Q15.20 7.61 15.61 7.70Q16.02 7.79 16.47 7.79L16.47 7.79Q17.22 7.79 17.63 7.52Q18.04 7.25 18.04 6.77L18.04 6.77Q18.04 6.26 17.66 6.00Q17.28 5.74 16.54 5.74L16.54 5.74L15.96 5.74L15.96 5.00L16.60 5.00Q17.24 5.00 17.57 4.79Q17.90 4.57 17.90 4.16L17.90 4.16Q17.90 3.77 17.56 3.56Q17.22 3.35 16.57 3.35L16.57 3.35Q16.30 3.35 15.95 3.41Q15.60 3.47 15.05 3.63L15.05 3.63L15.05 2.84Q15.54 2.73 15.98 2.67Q16.42 2.60 16.80 2.60L16.80 2.60Q17.78 2.60 18.36 3.01Q18.94 3.41 18.94 4.09L18.94 4.09Q18.94 4.56 18.63 4.89Q18.32 5.22 17.76 5.34ZM23.05 6.41L23.05 3.55L20.94 6.41L23.05 6.41ZM20.22 6.33L22.90 2.72L24.04 2.72L24.04 6.41L24.96 6.41L24.96 7.16L24.04 7.16L24.04 8.43L23.05 8.43L23.05 7.16L20.22 7.16L20.22 6.33Z"></path></svg>