<svg height="16.296875" width="28.6630859375" xmlns="http://www.w3.org/2000/svg" ><path d="M4.29 6.22L4.29 6.22Q3.27 6.22 2.69 7.01Q2.10 7.80 2.10 9.17L2.10 9.17Q2.10 10.55 2.68 11.34Q3.27 12.13 4.29 12.13L4.29 12.13Q5.29 12.13 5.88 11.33Q6.47 10.54 6.47 9.17L6.47 9.17Q6.47 7.81 5.88 7.02Q5.29 6.22 4.29 6.22ZM4.29 5.15L4.29 5.15Q5.93 5.15 6.86 6.22Q7.80 7.29 7.80 9.17L7.80 9.17Q7.80 11.05 6.86 12.12Q5.93 13.19 4.29 13.19L4.29 13.19Q2.64 13.19 1.71 12.12Q0.77 11.05 0.77 9.17L0.77 9.17Q0.77 7.29 1.71 6.22Q2.64 5.15 4.29 5.15ZM16.25 8.37L16.25 8.37L16.25 13.13Q16.25 14.59 15.69 15.25L15.69 15.25Q15.13 15.91 13.90 15.91L13.90 15.91L12.16 15.91L12.16 14.84L13.75 14.84Q14.47 14.84 14.73 14.51L14.73 14.51Q14.99 14.18 14.99 13.13L14.99 13.13L14.99 8.42Q14.99 7.33 14.57 6.79Q14.14 6.25 13.30 6.25L13.30 6.25Q12.28 6.25 11.69 6.90Q11.10 7.55 11.10 8.67L11.10 8.67L11.10 13.00L9.84 13.00L9.84 5.34L11.10 5.34L11.10 6.53Q11.55 5.84 12.16 5.50L12.16 5.50Q12.78 5.15 13.58 5.15L13.58 5.15Q14.90 5.15 15.57 5.97L15.57 5.97Q16.25 6.79 16.25 8.37ZM18.41 5.58L18.41 2.72L21.90 2.72L21.90 3.37L19.22 3.37L19.22 4.76Q19.41 4.70 19.61 4.68L19.61 4.68Q19.80 4.65 20.00 4.65L20.00 4.65Q21.10 4.65 21.74 5.17L21.74 5.17Q22.38 5.69 22.38 6.59L22.38 6.59Q22.38 7.51 21.72 8.03L21.72 8.03Q21.06 8.53 19.86 8.53L19.86 8.53Q19.45 8.53 19.02 8.47Q18.59 8.41 18.14 8.29L18.14 8.29L18.14 7.51Q18.53 7.70 18.95 7.79L18.95 7.79Q19.37 7.88 19.84 7.88L19.84 7.88Q20.60 7.88 21.05 7.53Q21.49 7.18 21.49 6.59Q21.49 6.00 21.05 5.65Q20.60 5.30 19.84 5.30L19.84 5.30Q19.49 5.30 19.13 5.37Q18.78 5.43 18.41 5.58L18.41 5.58ZM26.63 5.34L26.63 5.34Q27.26 5.46 27.61 5.83Q27.95 6.21 27.95 6.77L27.95 6.77Q27.95 7.62 27.30 8.07Q26.65 8.53 25.44 8.53L25.44 8.53Q25.05 8.53 24.63 8.46Q24.20 8.39 23.72 8.25L23.72 8.25L23.72 7.42Q24.08 7.61 24.48 7.70Q24.89 7.79 25.35 7.79L25.35 7.79Q26.09 7.79 26.50 7.52Q26.91 7.25 26.91 6.77L26.91 6.77Q26.91 6.26 26.53 6.00Q26.15 5.74 25.42 5.74L25.42 5.74L24.83 5.74L24.83 5.00L25.47 5.00Q26.11 5.00 26.44 4.79Q26.78 4.57 26.78 4.16L26.78 4.16Q26.78 3.77 26.43 3.56Q26.09 3.35 25.44 3.35L25.44 3.35Q25.17 3.35 24.82 3.41Q24.47 3.47 23.92 3.63L23.92 3.63L23.92 2.84Q24.42 2.73 24.86 2.67Q25.29 2.60 25.67 2.60L25.67 2.60Q26.65 2.60 27.23 3.01Q27.81 3.41 27.81 4.09L27.81 4.09Q27.81 4.56 27.50 4.89Q27.19 5.22 26.63 5.34Z"></path></svg>