<svg height="16.296875" width="26.93359375" xmlns="http://www.w3.org/2000/svg" ><path d="M4.29 6.22L4.29 6.22Q3.27 6.22 2.69 7.01Q2.10 7.80 2.10 9.17L2.10 9.17Q2.10 10.55 2.68 11.34Q3.27 12.13 4.29 12.13L4.29 12.13Q5.29 12.13 5.88 11.33Q6.47 10.54 6.47 9.17L6.47 9.17Q6.47 7.81 5.88 7.02Q5.29 6.22 4.29 6.22ZM4.29 5.15L4.29 5.15Q5.93 5.15 6.86 6.22Q7.80 7.29 7.80 9.17L7.80 9.17Q7.80 11.05 6.86 12.12Q5.93 13.19 4.29 13.19L4.29 13.19Q2.64 13.19 1.71 12.12Q0.77 11.05 0.77 9.17L0.77 9.17Q0.77 7.29 1.71 6.22Q2.64 5.15 4.29 5.15ZM10.90 13.00L10.89 7.54L11.32 7.54Q12.63 7.54 13.22 6.76L13.22 6.76Q13.62 6.24 13.62 5.57L13.62 5.57Q13.61 4.66 13.22 4.22L13.22 4.22Q12.54 3.44 11.32 3.44L11.32 3.44Q10.77 3.44 10.23 3.59L10.23 3.59Q9.70 3.73 9.17 4.03L9.17 4.03L9.17 2.85Q9.69 2.61 10.24 2.50L10.24 2.50Q10.79 2.37 11.38 2.37L11.38 2.37Q13.25 2.37 14.20 3.45L14.20 3.45Q14.94 4.30 14.94 5.57L14.94 5.57Q14.94 6.73 14.21 7.52L14.21 7.52Q13.44 8.33 12.28 8.54L12.28 8.54L12.28 13.00L10.90 13.00ZM16.68 5.58L16.68 2.72L20.17 2.72L20.17 3.37L17.49 3.37L17.49 4.76Q17.68 4.70 17.88 4.68L17.88 4.68Q18.07 4.65 18.27 4.65L18.27 4.65Q19.37 4.65 20.01 5.17L20.01 5.17Q20.65 5.69 20.65 6.59L20.65 6.59Q20.65 7.51 19.99 8.03L19.99 8.03Q19.33 8.53 18.13 8.53L18.13 8.53Q17.72 8.53 17.29 8.47Q16.86 8.41 16.41 8.29L16.41 8.29L16.41 7.51Q16.80 7.70 17.22 7.79L17.22 7.79Q17.64 7.88 18.12 7.88L18.12 7.88Q18.87 7.88 19.32 7.53Q19.76 7.18 19.76 6.59Q19.76 6.00 19.32 5.65Q18.87 5.30 18.12 5.30L18.12 5.30Q17.76 5.30 17.40 5.37Q17.05 5.43 16.68 5.58L16.68 5.58ZM22.29 5.58L22.29 2.72L25.78 2.72L25.78 3.37L23.11 3.37L23.11 4.76Q23.30 4.70 23.50 4.68L23.50 4.68Q23.69 4.65 23.88 4.65L23.88 4.65Q24.98 4.65 25.62 5.17L25.62 5.17Q26.26 5.69 26.26 6.59L26.26 6.59Q26.26 7.51 25.60 8.03L25.60 8.03Q24.94 8.53 23.74 8.53L23.74 8.53Q23.33 8.53 22.90 8.47Q22.47 8.41 22.02 8.29L22.02 8.29L22.02 7.51Q22.41 7.70 22.83 7.79L22.83 7.79Q23.26 7.88 23.73 7.88L23.73 7.88Q24.49 7.88 24.93 7.53Q25.38 7.18 25.38 6.59Q25.38 6.00 24.93 5.65Q24.49 5.30 23.73 5.30L23.73 5.30Q23.37 5.30 23.02 5.37Q22.66 5.43 22.29 5.58L22.29 5.58Z"></path></svg>