<svg height="16.296875" width="28.396484375" xmlns="http://www.w3.org/2000/svg" ><path d="M2.54 11.85L2.54 11.85L2.54 15.91L1.27 15.91L1.27 5.34L2.54 5.34L2.54 6.50Q2.93 5.82 3.54 5.49Q4.14 5.15 4.98 5.15L4.98 5.15Q6.38 5.15 7.25 6.26Q8.12 7.37 8.12 9.17L8.12 9.17Q8.12 10.98 7.25 12.09Q6.38 13.19 4.98 13.19L4.98 13.19Q4.14 13.19 3.54 12.86Q2.93 12.53 2.54 11.85ZM6.82 9.17L6.82 9.17Q6.82 7.79 6.24 7.00Q5.67 6.21 4.68 6.21L4.68 6.21Q3.68 6.21 3.11 7.00Q2.54 7.79 2.54 9.17L2.54 9.17Q2.54 10.56 3.11 11.35Q3.68 12.14 4.68 12.14L4.68 12.14Q5.67 12.14 6.24 11.35Q6.82 10.56 6.82 9.17ZM13.88 5.34L16.75 13.00L15.42 13.00L14.72 11.12L11.33 11.12L10.64 13.00L9.30 13.00L12.17 5.34L13.88 5.34ZM13.03 6.57L11.72 10.10L14.34 10.10L13.03 6.57ZM18.14 5.58L18.14 2.72L21.63 2.72L21.63 3.37L18.96 3.37L18.96 4.76Q19.15 4.70 19.35 4.68L19.35 4.68Q19.54 4.65 19.73 4.65L19.73 4.65Q20.83 4.65 21.47 5.17L21.47 5.17Q22.11 5.69 22.11 6.59L22.11 6.59Q22.11 7.51 21.45 8.03L21.45 8.03Q20.79 8.53 19.59 8.53L19.59 8.53Q19.18 8.53 18.75 8.47Q18.32 8.41 17.87 8.29L17.87 8.29L17.87 7.51Q18.26 7.70 18.68 7.79L18.68 7.79Q19.11 7.88 19.58 7.88L19.58 7.88Q20.34 7.88 20.78 7.53Q21.23 7.18 21.23 6.59Q21.23 6.00 20.78 5.65Q20.34 5.30 19.58 5.30L19.58 5.30Q19.22 5.30 18.87 5.37Q18.51 5.43 18.14 5.58L18.14 5.58ZM26.37 5.34L26.37 5.34Q27.00 5.46 27.34 5.83Q27.69 6.21 27.69 6.77L27.69 6.77Q27.69 7.62 27.04 8.07Q26.39 8.53 25.18 8.53L25.18 8.53Q24.79 8.53 24.36 8.46Q23.93 8.39 23.45 8.25L23.45 8.25L23.45 7.42Q23.81 7.61 24.22 7.70Q24.62 7.79 25.08 7.79L25.08 7.79Q25.83 7.79 26.24 7.52Q26.65 7.25 26.65 6.77L26.65 6.77Q26.65 6.26 26.27 6.00Q25.89 5.74 25.15 5.74L25.15 5.74L24.56 5.74L24.56 5.00L25.20 5.00Q25.85 5.00 26.18 4.79Q26.51 4.57 26.51 4.16L26.51 4.16Q26.51 3.77 26.17 3.56Q25.83 3.35 25.18 3.35L25.18 3.35Q24.90 3.35 24.55 3.41Q24.21 3.47 23.65 3.63L23.65 3.63L23.65 2.84Q24.15 2.73 24.59 2.67Q25.03 2.60 25.40 2.60L25.40 2.60Q26.39 2.60 26.96 3.01Q27.54 3.41 27.54 4.09L27.54 4.09Q27.54 4.56 27.23 4.89Q26.93 5.22 26.37 5.34Z"></path></svg>