<svg height="16.296875" width="34.0087890625" xmlns="http://www.w3.org/2000/svg" ><path d="M2.54 11.85L2.54 11.85L2.54 15.91L1.27 15.91L1.27 5.34L2.54 5.34L2.54 6.50Q2.93 5.82 3.54 5.49Q4.14 5.15 4.98 5.15L4.98 5.15Q6.38 5.15 7.25 6.26Q8.12 7.37 8.12 9.17L8.12 9.17Q8.12 10.98 7.25 12.09Q6.38 13.19 4.98 13.19L4.98 13.19Q4.14 13.19 3.54 12.86Q2.93 12.53 2.54 11.85ZM6.82 9.17L6.82 9.17Q6.82 7.79 6.24 7.00Q5.67 6.21 4.68 6.21L4.68 6.21Q3.68 6.21 3.11 7.00Q2.54 7.79 2.54 9.17L2.54 9.17Q2.54 10.56 3.11 11.35Q3.68 12.14 4.68 12.14L4.68 12.14Q5.67 12.14 6.24 11.35Q6.82 10.56 6.82 9.17ZM13.88 5.34L16.75 13.00L15.42 13.00L14.72 11.12L11.33 11.12L10.64 13.00L9.30 13.00L12.17 5.34L13.88 5.34ZM13.03 6.57L11.72 10.10L14.34 10.10L13.03 6.57ZM20.75 5.34L20.75 5.34Q21.38 5.46 21.73 5.83Q22.07 6.21 22.07 6.77L22.07 6.77Q22.07 7.62 21.42 8.07Q20.77 8.53 19.56 8.53L19.56 8.53Q19.17 8.53 18.75 8.46Q18.32 8.39 17.84 8.25L17.84 8.25L17.84 7.42Q18.20 7.61 18.60 7.70Q19.01 7.79 19.47 7.79L19.47 7.79Q20.21 7.79 20.62 7.52Q21.03 7.25 21.03 6.77L21.03 6.77Q21.03 6.26 20.65 6.00Q20.28 5.74 19.54 5.74L19.54 5.74L18.95 5.74L18.95 5.00L19.59 5.00Q20.23 5.00 20.57 4.79Q20.90 4.57 20.90 4.16L20.90 4.16Q20.90 3.77 20.56 3.56Q20.21 3.35 19.56 3.35L19.56 3.35Q19.29 3.35 18.94 3.41Q18.59 3.47 18.04 3.63L18.04 3.63L18.04 2.84Q18.54 2.73 18.98 2.67Q19.41 2.60 19.79 2.60L19.79 2.60Q20.77 2.60 21.35 3.01Q21.93 3.41 21.93 4.09L21.93 4.09Q21.93 4.56 21.62 4.89Q21.31 5.22 20.75 5.34ZM26.37 5.34L26.37 5.34Q27.00 5.46 27.34 5.83Q27.69 6.21 27.69 6.77L27.69 6.77Q27.69 7.62 27.04 8.07Q26.39 8.53 25.18 8.53L25.18 8.53Q24.79 8.53 24.36 8.46Q23.93 8.39 23.45 8.25L23.45 8.25L23.45 7.42Q23.81 7.61 24.22 7.70Q24.62 7.79 25.08 7.79L25.08 7.79Q25.83 7.79 26.24 7.52Q26.65 7.25 26.65 6.77L26.65 6.77Q26.65 6.26 26.27 6.00Q25.89 5.74 25.15 5.74L25.15 5.74L24.56 5.74L24.56 5.00L25.20 5.00Q25.85 5.00 26.18 4.79Q26.51 4.57 26.51 4.16L26.51 4.16Q26.51 3.77 26.17 3.56Q25.83 3.35 25.18 3.35L25.18 3.35Q24.90 3.35 24.55 3.41Q24.21 3.47 23.65 3.63L23.65 3.63L23.65 2.84Q24.15 2.73 24.59 2.67Q25.03 2.60 25.40 2.60L25.40 2.60Q26.39 2.60 26.96 3.01Q27.54 3.41 27.54 4.09L27.54 4.09Q27.54 4.56 27.23 4.89Q26.93 5.22 26.37 5.34ZM31.66 6.41L31.66 3.55L29.54 6.41L31.66 6.41ZM28.83 6.33L31.51 2.72L32.64 2.72L32.64 6.41L33.56 6.41L33.56 7.16L32.64 7.16L32.64 8.43L31.66 8.43L31.66 7.16L28.83 7.16L28.83 6.33Z"></path></svg>