<svg height="16.296875" width="34.302734375" xmlns="http://www.w3.org/2000/svg" ><path d="M2.54 11.85L2.54 11.85L2.54 15.91L1.27 15.91L1.27 5.34L2.54 5.34L2.54 6.50Q2.93 5.82 3.54 5.49Q4.14 5.15 4.98 5.15L4.98 5.15Q6.38 5.15 7.25 6.26Q8.12 7.37 8.12 9.17L8.12 9.17Q8.12 10.98 7.25 12.09Q6.38 13.19 4.98 13.19L4.98 13.19Q4.14 13.19 3.54 12.86Q2.93 12.53 2.54 11.85ZM6.82 9.17L6.82 9.17Q6.82 7.79 6.24 7.00Q5.67 6.21 4.68 6.21L4.68 6.21Q3.68 6.21 3.11 7.00Q2.54 7.79 2.54 9.17L2.54 9.17Q2.54 10.56 3.11 11.35Q3.68 12.14 4.68 12.14L4.68 12.14Q5.67 12.14 6.24 11.35Q6.82 10.56 6.82 9.17ZM14.94 9.15L13.69 9.15Q12.16 9.15 11.57 9.50Q10.99 9.84 10.99 10.68L10.99 10.68Q10.99 11.35 11.43 11.75Q11.87 12.14 12.63 12.14L12.63 12.14Q13.67 12.14 14.30 11.40Q14.94 10.66 14.94 9.43L14.94 9.43L14.94 9.15ZM16.19 8.63L16.19 8.63L16.19 13.00L14.94 13.00L14.94 11.83Q14.51 12.53 13.86 12.86Q13.22 13.19 12.29 13.19L12.29 13.19Q11.12 13.19 10.42 12.53Q9.73 11.87 9.73 10.77L9.73 10.77Q9.73 9.47 10.59 8.82Q11.46 8.16 13.17 8.16L13.17 8.16L14.94 8.16L14.94 8.04Q14.94 7.17 14.37 6.70Q13.79 6.22 12.76 6.22L12.76 6.22Q12.11 6.22 11.48 6.38Q10.86 6.54 10.29 6.85L10.29 6.85L10.29 5.69Q10.98 5.42 11.63 5.29Q12.28 5.15 12.89 5.15L12.89 5.15Q14.55 5.15 15.37 6.02Q16.19 6.88 16.19 8.63ZM13.92 3.63L13.92 3.63L13.54 3.25Q13.38 3.12 13.27 3.05Q13.16 2.99 13.07 2.99L13.07 2.99Q12.81 2.99 12.69 3.24Q12.56 3.49 12.55 4.05L12.55 4.05L11.70 4.05Q11.71 3.12 12.06 2.62Q12.41 2.12 13.03 2.12L13.03 2.12Q13.29 2.12 13.51 2.21Q13.73 2.31 13.98 2.54L13.98 2.54L14.37 2.91Q14.52 3.05 14.63 3.11Q14.75 3.18 14.83 3.18L14.83 3.18Q15.09 3.18 15.22 2.93Q15.34 2.68 15.35 2.12L15.35 2.12L16.21 2.12Q16.19 3.04 15.85 3.54Q15.50 4.05 14.88 4.05L14.88 4.05Q14.62 4.05 14.40 3.95Q14.18 3.86 13.92 3.63ZM21.05 5.34L21.05 5.34Q21.68 5.46 22.02 5.83Q22.37 6.21 22.37 6.77L22.37 6.77Q22.37 7.62 21.72 8.07Q21.07 8.53 19.86 8.53L19.86 8.53Q19.47 8.53 19.04 8.46Q18.61 8.39 18.14 8.25L18.14 8.25L18.14 7.42Q18.49 7.61 18.90 7.70Q19.30 7.79 19.76 7.79L19.76 7.79Q20.51 7.79 20.92 7.52Q21.33 7.25 21.33 6.77L21.33 6.77Q21.33 6.26 20.95 6.00Q20.57 5.74 19.83 5.74L19.83 5.74L19.24 5.74L19.24 5.00L19.89 5.00Q20.53 5.00 20.86 4.79Q21.19 4.57 21.19 4.16L21.19 4.16Q21.19 3.77 20.85 3.56Q20.51 3.35 19.86 3.35L19.86 3.35Q19.58 3.35 19.24 3.41Q18.89 3.47 18.33 3.63L18.33 3.63L18.33 2.84Q18.83 2.73 19.27 2.67Q19.71 2.60 20.08 2.60L20.08 2.60Q21.07 2.60 21.65 3.01Q22.22 3.41 22.22 4.09L22.22 4.09Q22.22 4.56 21.92 4.89Q21.61 5.22 21.05 5.34ZM26.66 5.34L26.66 5.34Q27.29 5.46 27.63 5.83Q27.98 6.21 27.98 6.77L27.98 6.77Q27.98 7.62 27.33 8.07Q26.68 8.53 25.47 8.53L25.47 8.53Q25.08 8.53 24.65 8.46Q24.23 8.39 23.75 8.25L23.75 8.25L23.75 7.42Q24.10 7.61 24.51 7.70Q24.92 7.79 25.38 7.79L25.38 7.79Q26.12 7.79 26.53 7.52Q26.94 7.25 26.94 6.77L26.94 6.77Q26.94 6.26 26.56 6.00Q26.18 5.74 25.44 5.74L25.44 5.74L24.86 5.74L24.86 5.00L25.50 5.00Q26.14 5.00 26.47 4.79Q26.80 4.57 26.80 4.16L26.80 4.16Q26.80 3.77 26.46 3.56Q26.12 3.35 25.47 3.35L25.47 3.35Q25.20 3.35 24.85 3.41Q24.50 3.47 23.95 3.63L23.95 3.63L23.95 2.84Q24.45 2.73 24.88 2.67Q25.32 2.60 25.70 2.60L25.70 2.60Q26.68 2.60 27.26 3.01Q27.84 3.41 27.84 4.09L27.84 4.09Q27.84 4.56 27.53 4.89Q27.22 5.22 26.66 5.34ZM31.95 6.41L31.95 3.55L29.84 6.41L31.95 6.41ZM29.12 6.33L31.80 2.72L32.94 2.72L32.94 6.41L33.86 6.41L33.86 7.16L32.94 7.16L32.94 8.43L31.95 8.43L31.95 7.16L29.12 7.16L29.12 6.33Z"></path></svg>