<svg height="16.296875" width="28.998046875" xmlns="http://www.w3.org/2000/svg" ><path d="M2.54 11.85L2.54 11.85L2.54 15.91L1.27 15.91L1.27 5.34L2.54 5.34L2.54 6.50Q2.93 5.82 3.54 5.49Q4.14 5.15 4.98 5.15L4.98 5.15Q6.38 5.15 7.25 6.26Q8.12 7.37 8.12 9.17L8.12 9.17Q8.12 10.98 7.25 12.09Q6.38 13.19 4.98 13.19L4.98 13.19Q4.14 13.19 3.54 12.86Q2.93 12.53 2.54 11.85ZM6.82 9.17L6.82 9.17Q6.82 7.79 6.24 7.00Q5.67 6.21 4.68 6.21L4.68 6.21Q3.68 6.21 3.11 7.00Q2.54 7.79 2.54 9.17L2.54 9.17Q2.54 10.56 3.11 11.35Q3.68 12.14 4.68 12.14L4.68 12.14Q5.67 12.14 6.24 11.35Q6.82 10.56 6.82 9.17ZM15.24 6.50L15.24 6.50L15.24 5.34L16.50 5.34L16.50 13.00L15.24 13.00L15.24 11.85Q14.85 12.53 14.24 12.86Q13.64 13.19 12.79 13.19L12.79 13.19Q11.40 13.19 10.53 12.09Q9.66 10.98 9.66 9.17L9.66 9.17Q9.66 7.37 10.53 6.26Q11.40 5.15 12.79 5.15L12.79 5.15Q13.64 5.15 14.24 5.49Q14.85 5.82 15.24 6.50ZM10.96 9.17L10.96 9.17Q10.96 10.56 11.53 11.35Q12.10 12.14 13.10 12.14L13.10 12.14Q14.10 12.14 14.67 11.35Q15.24 10.56 15.24 9.17L15.24 9.17Q15.24 7.79 14.67 7.00Q14.10 6.21 13.10 6.21L13.10 6.21Q12.10 6.21 11.53 7.00Q10.96 7.79 10.96 9.17ZM14.23 3.63L14.23 3.63L13.84 3.25Q13.69 3.12 13.58 3.05Q13.47 2.99 13.38 2.99L13.38 2.99Q13.12 2.99 13.00 3.24Q12.87 3.49 12.86 4.05L12.86 4.05L12.00 4.05Q12.02 3.12 12.37 2.62Q12.71 2.12 13.34 2.12L13.34 2.12Q13.60 2.12 13.82 2.21Q14.03 2.31 14.29 2.54L14.29 2.54L14.68 2.91Q14.83 3.05 14.94 3.11Q15.05 3.18 15.14 3.18L15.14 3.18Q15.40 3.18 15.52 2.93Q15.65 2.68 15.66 2.12L15.66 2.12L16.52 2.12Q16.50 3.04 16.15 3.54Q15.80 4.05 15.18 4.05L15.18 4.05Q14.92 4.05 14.70 3.95Q14.49 3.86 14.23 3.63ZM18.74 5.58L18.74 2.72L22.23 2.72L22.23 3.37L19.56 3.37L19.56 4.76Q19.75 4.70 19.95 4.68L19.95 4.68Q20.14 4.65 20.33 4.65L20.33 4.65Q21.43 4.65 22.07 5.17L22.07 5.17Q22.72 5.69 22.72 6.59L22.72 6.59Q22.72 7.51 22.05 8.03L22.05 8.03Q21.40 8.53 20.19 8.53L20.19 8.53Q19.78 8.53 19.35 8.47Q18.92 8.41 18.47 8.29L18.47 8.29L18.47 7.51Q18.86 7.70 19.28 7.79L19.28 7.79Q19.71 7.88 20.18 7.88L20.18 7.88Q20.94 7.88 21.38 7.53Q21.83 7.18 21.83 6.59Q21.83 6.00 21.38 5.65Q20.94 5.30 20.18 5.30L20.18 5.30Q19.82 5.30 19.47 5.37Q19.11 5.43 18.74 5.58L18.74 5.58ZM26.97 5.34L26.97 5.34Q27.60 5.46 27.94 5.83Q28.29 6.21 28.29 6.77L28.29 6.77Q28.29 7.62 27.64 8.07Q26.99 8.53 25.78 8.53L25.78 8.53Q25.39 8.53 24.96 8.46Q24.53 8.39 24.06 8.25L24.06 8.25L24.06 7.42Q24.41 7.61 24.82 7.70Q25.22 7.79 25.68 7.79L25.68 7.79Q26.43 7.79 26.84 7.52Q27.25 7.25 27.25 6.77L27.25 6.77Q27.25 6.26 26.87 6.00Q26.49 5.74 25.75 5.74L25.75 5.74L25.16 5.74L25.16 5.00L25.81 5.00Q26.45 5.00 26.78 4.79Q27.11 4.57 27.11 4.16L27.11 4.16Q27.11 3.77 26.77 3.56Q26.43 3.35 25.78 3.35L25.78 3.35Q25.50 3.35 25.16 3.41Q24.81 3.47 24.25 3.63L24.25 3.63L24.25 2.84Q24.75 2.73 25.19 2.67Q25.63 2.60 26.00 2.60L26.00 2.60Q26.99 2.60 27.57 3.01Q28.14 3.41 28.14 4.09L28.14 4.09Q28.14 4.56 27.84 4.89Q27.53 5.22 26.97 5.34Z"></path></svg>