<svg height="16.296875" width="34.6103515625" xmlns="http://www.w3.org/2000/svg" ><path d="M2.54 11.85L2.54 11.85L2.54 15.91L1.27 15.91L1.27 5.34L2.54 5.34L2.54 6.50Q2.93 5.82 3.54 5.49Q4.14 5.15 4.98 5.15L4.98 5.15Q6.38 5.15 7.25 6.26Q8.12 7.37 8.12 9.17L8.12 9.17Q8.12 10.98 7.25 12.09Q6.38 13.19 4.98 13.19L4.98 13.19Q4.14 13.19 3.54 12.86Q2.93 12.53 2.54 11.85ZM6.82 9.17L6.82 9.17Q6.82 7.79 6.24 7.00Q5.67 6.21 4.68 6.21L4.68 6.21Q3.68 6.21 3.11 7.00Q2.54 7.79 2.54 9.17L2.54 9.17Q2.54 10.56 3.11 11.35Q3.68 12.14 4.68 12.14L4.68 12.14Q5.67 12.14 6.24 11.35Q6.82 10.56 6.82 9.17ZM15.24 6.50L15.24 6.50L15.24 5.34L16.50 5.34L16.50 13.00L15.24 13.00L15.24 11.85Q14.85 12.53 14.24 12.86Q13.64 13.19 12.79 13.19L12.79 13.19Q11.40 13.19 10.53 12.09Q9.66 10.98 9.66 9.17L9.66 9.17Q9.66 7.37 10.53 6.26Q11.40 5.15 12.79 5.15L12.79 5.15Q13.64 5.15 14.24 5.49Q14.85 5.82 15.24 6.50ZM10.96 9.17L10.96 9.17Q10.96 10.56 11.53 11.35Q12.10 12.14 13.10 12.14L13.10 12.14Q14.10 12.14 14.67 11.35Q15.24 10.56 15.24 9.17L15.24 9.17Q15.24 7.79 14.67 7.00Q14.10 6.21 13.10 6.21L13.10 6.21Q12.10 6.21 11.53 7.00Q10.96 7.79 10.96 9.17ZM14.23 3.63L14.23 3.63L13.84 3.25Q13.69 3.12 13.58 3.05Q13.47 2.99 13.38 2.99L13.38 2.99Q13.12 2.99 13.00 3.24Q12.87 3.49 12.86 4.05L12.86 4.05L12.00 4.05Q12.02 3.12 12.37 2.62Q12.71 2.12 13.34 2.12L13.34 2.12Q13.60 2.12 13.82 2.21Q14.03 2.31 14.29 2.54L14.29 2.54L14.68 2.91Q14.83 3.05 14.94 3.11Q15.05 3.18 15.14 3.18L15.14 3.18Q15.40 3.18 15.52 2.93Q15.65 2.68 15.66 2.12L15.66 2.12L16.52 2.12Q16.50 3.04 16.15 3.54Q15.80 4.05 15.18 4.05L15.18 4.05Q14.92 4.05 14.70 3.95Q14.49 3.86 14.23 3.63ZM21.36 5.34L21.36 5.34Q21.98 5.46 22.33 5.83Q22.67 6.21 22.67 6.77L22.67 6.77Q22.67 7.62 22.03 8.07Q21.38 8.53 20.17 8.53L20.17 8.53Q19.78 8.53 19.35 8.46Q18.92 8.39 18.44 8.25L18.44 8.25L18.44 7.42Q18.80 7.61 19.21 7.70Q19.61 7.79 20.07 7.79L20.07 7.79Q20.82 7.79 21.23 7.52Q21.64 7.25 21.64 6.77L21.64 6.77Q21.64 6.26 21.26 6.00Q20.88 5.74 20.14 5.74L20.14 5.74L19.55 5.74L19.55 5.00L20.19 5.00Q20.84 5.00 21.17 4.79Q21.50 4.57 21.50 4.16L21.50 4.16Q21.50 3.77 21.16 3.56Q20.82 3.35 20.17 3.35L20.17 3.35Q19.89 3.35 19.54 3.41Q19.20 3.47 18.64 3.63L18.64 3.63L18.64 2.84Q19.14 2.73 19.58 2.67Q20.02 2.60 20.39 2.60L20.39 2.60Q21.38 2.60 21.95 3.01Q22.53 3.41 22.53 4.09L22.53 4.09Q22.53 4.56 22.22 4.89Q21.92 5.22 21.36 5.34ZM26.97 5.34L26.97 5.34Q27.60 5.46 27.94 5.83Q28.29 6.21 28.29 6.77L28.29 6.77Q28.29 7.62 27.64 8.07Q26.99 8.53 25.78 8.53L25.78 8.53Q25.39 8.53 24.96 8.46Q24.53 8.39 24.06 8.25L24.06 8.25L24.06 7.42Q24.41 7.61 24.82 7.70Q25.22 7.79 25.68 7.79L25.68 7.79Q26.43 7.79 26.84 7.52Q27.25 7.25 27.25 6.77L27.25 6.77Q27.25 6.26 26.87 6.00Q26.49 5.74 25.75 5.74L25.75 5.74L25.16 5.74L25.16 5.00L25.81 5.00Q26.45 5.00 26.78 4.79Q27.11 4.57 27.11 4.16L27.11 4.16Q27.11 3.77 26.77 3.56Q26.43 3.35 25.78 3.35L25.78 3.35Q25.50 3.35 25.16 3.41Q24.81 3.47 24.25 3.63L24.25 3.63L24.25 2.84Q24.75 2.73 25.19 2.67Q25.63 2.60 26.00 2.60L26.00 2.60Q26.99 2.60 27.57 3.01Q28.14 3.41 28.14 4.09L28.14 4.09Q28.14 4.56 27.84 4.89Q27.53 5.22 26.97 5.34ZM32.26 6.41L32.26 3.55L30.15 6.41L32.26 6.41ZM29.43 6.33L32.11 2.72L33.24 2.72L33.24 6.41L34.17 6.41L34.17 7.16L33.24 7.16L33.24 8.43L32.26 8.43L32.26 7.16L29.43 7.16L29.43 6.33Z"></path></svg>