<svg height="16.296875" width="35.5400390625" xmlns="http://www.w3.org/2000/svg" ><path d="M2.54 11.85L2.54 11.85L2.54 15.91L1.27 15.91L1.27 5.34L2.54 5.34L2.54 6.50Q2.93 5.82 3.54 5.49Q4.14 5.15 4.98 5.15L4.98 5.15Q6.38 5.15 7.25 6.26Q8.12 7.37 8.12 9.17L8.12 9.17Q8.12 10.98 7.25 12.09Q6.38 13.19 4.98 13.19L4.98 13.19Q4.14 13.19 3.54 12.86Q2.93 12.53 2.54 11.85ZM6.82 9.17L6.82 9.17Q6.82 7.79 6.24 7.00Q5.67 6.21 4.68 6.21L4.68 6.21Q3.68 6.21 3.11 7.00Q2.54 7.79 2.54 9.17L2.54 9.17Q2.54 10.56 3.11 11.35Q3.68 12.14 4.68 12.14L4.68 12.14Q5.67 12.14 6.24 11.35Q6.82 10.56 6.82 9.17ZM13.88 5.34L16.75 13.00L15.42 13.00L14.72 11.12L11.33 11.12L10.64 13.00L9.30 13.00L12.17 5.34L13.88 5.34ZM13.03 6.57L11.72 10.10L14.34 10.10L13.03 6.57ZM19.50 13.00L19.50 7.54L19.93 7.54Q21.24 7.54 21.83 6.76L21.83 6.76Q22.22 6.24 22.22 5.57L22.22 5.57Q22.22 4.66 21.83 4.22L21.83 4.22Q21.15 3.44 19.93 3.44L19.93 3.44Q19.38 3.44 18.84 3.59L18.84 3.59Q18.31 3.73 17.77 4.03L17.77 4.03L17.77 2.85Q18.29 2.61 18.85 2.50L18.85 2.50Q19.40 2.37 19.98 2.37L19.98 2.37Q21.86 2.37 22.80 3.45L22.80 3.45Q23.55 4.30 23.55 5.57L23.55 5.57Q23.55 6.73 22.81 7.52L22.81 7.52Q22.05 8.33 20.88 8.54L20.88 8.54L20.88 13.00L19.50 13.00ZM25.29 5.58L25.29 2.72L28.77 2.72L28.77 3.37L26.10 3.37L26.10 4.76Q26.29 4.70 26.49 4.68L26.49 4.68Q26.68 4.65 26.87 4.65L26.87 4.65Q27.97 4.65 28.62 5.17L28.62 5.17Q29.26 5.69 29.26 6.59L29.26 6.59Q29.26 7.51 28.59 8.03L28.59 8.03Q27.94 8.53 26.74 8.53L26.74 8.53Q26.33 8.53 25.89 8.47Q25.46 8.41 25.01 8.29L25.01 8.29L25.01 7.51Q25.40 7.70 25.83 7.79L25.83 7.79Q26.25 7.88 26.72 7.88L26.72 7.88Q27.48 7.88 27.92 7.53Q28.37 7.18 28.37 6.59Q28.37 6.00 27.92 5.65Q27.48 5.30 26.72 5.30L26.72 5.30Q26.37 5.30 26.01 5.37Q25.66 5.43 25.29 5.58L25.29 5.58ZM30.90 5.58L30.90 2.72L34.38 2.72L34.38 3.37L31.71 3.37L31.71 4.76Q31.90 4.70 32.10 4.68L32.10 4.68Q32.29 4.65 32.48 4.65L32.48 4.65Q33.58 4.65 34.23 5.17L34.23 5.17Q34.87 5.69 34.87 6.59L34.87 6.59Q34.87 7.51 34.21 8.03L34.21 8.03Q33.55 8.53 32.35 8.53L32.35 8.53Q31.94 8.53 31.51 8.47Q31.08 8.41 30.63 8.29L30.63 8.29L30.63 7.51Q31.01 7.70 31.44 7.79L31.44 7.79Q31.86 7.88 32.33 7.88L32.33 7.88Q33.09 7.88 33.54 7.53Q33.98 7.18 33.98 6.59Q33.98 6.00 33.54 5.65Q33.09 5.30 32.33 5.30L32.33 5.30Q31.98 5.30 31.62 5.37Q31.27 5.43 30.90 5.58L30.90 5.58Z"></path></svg>