<svg height="16.296875" width="27.8017578125" xmlns="http://www.w3.org/2000/svg" ><path d="M2.54 11.85L2.54 11.85L2.54 15.91L1.27 15.91L1.27 5.34L2.54 5.34L2.54 6.50Q2.93 5.82 3.54 5.49Q4.14 5.15 4.98 5.15L4.98 5.15Q6.38 5.15 7.25 6.26Q8.12 7.37 8.12 9.17L8.12 9.17Q8.12 10.98 7.25 12.09Q6.38 13.19 4.98 13.19L4.98 13.19Q4.14 13.19 3.54 12.86Q2.93 12.53 2.54 11.85ZM6.82 9.17L6.82 9.17Q6.82 7.79 6.24 7.00Q5.67 6.21 4.68 6.21L4.68 6.21Q3.68 6.21 3.11 7.00Q2.54 7.79 2.54 9.17L2.54 9.17Q2.54 10.56 3.11 11.35Q3.68 12.14 4.68 12.14L4.68 12.14Q5.67 12.14 6.24 11.35Q6.82 10.56 6.82 9.17ZM9.75 6.81L9.75 5.65Q10.28 5.40 10.85 5.28Q11.41 5.15 12.04 5.15L12.04 5.15Q13.77 5.15 14.79 6.24Q15.81 7.33 15.81 9.17L15.81 9.17Q15.81 11.05 14.78 12.12Q13.75 13.19 11.96 13.19L11.96 13.19Q11.38 13.19 10.83 13.07Q10.27 12.95 9.75 12.71L9.75 12.71L9.75 11.54Q10.29 11.83 10.82 11.98Q11.36 12.13 11.91 12.13L11.91 12.13Q13.13 12.13 13.81 11.35Q14.49 10.58 14.49 9.17L14.49 9.17Q14.49 7.77 13.81 7.00Q13.13 6.22 11.91 6.22L11.91 6.22Q11.36 6.22 10.82 6.37Q10.29 6.51 9.75 6.81L9.75 6.81ZM17.55 5.58L17.55 2.72L21.03 2.72L21.03 3.37L18.36 3.37L18.36 4.76Q18.55 4.70 18.75 4.68L18.75 4.68Q18.94 4.65 19.13 4.65L19.13 4.65Q20.23 4.65 20.88 5.17L20.88 5.17Q21.52 5.69 21.52 6.59L21.52 6.59Q21.52 7.51 20.86 8.03L20.86 8.03Q20.20 8.53 19.00 8.53L19.00 8.53Q18.59 8.53 18.16 8.47Q17.73 8.41 17.27 8.29L17.27 8.29L17.27 7.51Q17.66 7.70 18.09 7.79L18.09 7.79Q18.51 7.88 18.98 7.88L18.98 7.88Q19.74 7.88 20.19 7.53Q20.63 7.18 20.63 6.59Q20.63 6.00 20.19 5.65Q19.74 5.30 18.98 5.30L18.98 5.30Q18.63 5.30 18.27 5.37Q17.92 5.43 17.55 5.58L17.55 5.58ZM25.77 5.34L25.77 5.34Q26.40 5.46 26.75 5.83Q27.09 6.21 27.09 6.77L27.09 6.77Q27.09 7.62 26.44 8.07Q25.79 8.53 24.58 8.53L24.58 8.53Q24.19 8.53 23.77 8.46Q23.34 8.39 22.86 8.25L22.86 8.25L22.86 7.42Q23.21 7.61 23.62 7.70Q24.03 7.79 24.49 7.79L24.49 7.79Q25.23 7.79 25.64 7.52Q26.05 7.25 26.05 6.77L26.05 6.77Q26.05 6.26 25.67 6.00Q25.29 5.74 24.55 5.74L24.55 5.74L23.97 5.74L23.97 5.00L24.61 5.00Q25.25 5.00 25.58 4.79Q25.92 4.57 25.92 4.16L25.92 4.16Q25.92 3.77 25.57 3.56Q25.23 3.35 24.58 3.35L24.58 3.35Q24.31 3.35 23.96 3.41Q23.61 3.47 23.06 3.63L23.06 3.63L23.06 2.84Q23.56 2.73 23.99 2.67Q24.43 2.60 24.81 2.60L24.81 2.60Q25.79 2.60 26.37 3.01Q26.95 3.41 26.95 4.09L26.95 4.09Q26.95 4.56 26.64 4.89Q26.33 5.22 25.77 5.34Z"></path></svg>