<svg height="16.296875" width="33.4140625" xmlns="http://www.w3.org/2000/svg" ><path d="M2.54 11.85L2.54 11.85L2.54 15.91L1.27 15.91L1.27 5.34L2.54 5.34L2.54 6.50Q2.93 5.82 3.54 5.49Q4.14 5.15 4.98 5.15L4.98 5.15Q6.38 5.15 7.25 6.26Q8.12 7.37 8.12 9.17L8.12 9.17Q8.12 10.98 7.25 12.09Q6.38 13.19 4.98 13.19L4.98 13.19Q4.14 13.19 3.54 12.86Q2.93 12.53 2.54 11.85ZM6.82 9.17L6.82 9.17Q6.82 7.79 6.24 7.00Q5.67 6.21 4.68 6.21L4.68 6.21Q3.68 6.21 3.11 7.00Q2.54 7.79 2.54 9.17L2.54 9.17Q2.54 10.56 3.11 11.35Q3.68 12.14 4.68 12.14L4.68 12.14Q5.67 12.14 6.24 11.35Q6.82 10.56 6.82 9.17ZM9.75 6.81L9.75 5.65Q10.28 5.40 10.85 5.28Q11.41 5.15 12.04 5.15L12.04 5.15Q13.77 5.15 14.79 6.24Q15.81 7.33 15.81 9.17L15.81 9.17Q15.81 11.05 14.78 12.12Q13.75 13.19 11.96 13.19L11.96 13.19Q11.38 13.19 10.83 13.07Q10.27 12.95 9.75 12.71L9.75 12.71L9.75 11.54Q10.29 11.83 10.82 11.98Q11.36 12.13 11.91 12.13L11.91 12.13Q13.13 12.13 13.81 11.35Q14.49 10.58 14.49 9.17L14.49 9.17Q14.49 7.77 13.81 7.00Q13.13 6.22 11.91 6.22L11.91 6.22Q11.36 6.22 10.82 6.37Q10.29 6.51 9.75 6.81L9.75 6.81ZM20.16 5.34L20.16 5.34Q20.79 5.46 21.13 5.83Q21.48 6.21 21.48 6.77L21.48 6.77Q21.48 7.62 20.83 8.07Q20.18 8.53 18.97 8.53L18.97 8.53Q18.58 8.53 18.15 8.46Q17.73 8.39 17.25 8.25L17.25 8.25L17.25 7.42Q17.60 7.61 18.01 7.70Q18.42 7.79 18.87 7.79L18.87 7.79Q19.62 7.79 20.03 7.52Q20.44 7.25 20.44 6.77L20.44 6.77Q20.44 6.26 20.06 6.00Q19.68 5.74 18.94 5.74L18.94 5.74L18.35 5.74L18.35 5.00L19.00 5.00Q19.64 5.00 19.97 4.79Q20.30 4.57 20.30 4.16L20.30 4.16Q20.30 3.77 19.96 3.56Q19.62 3.35 18.97 3.35L18.97 3.35Q18.70 3.35 18.35 3.41Q18.00 3.47 17.45 3.63L17.45 3.63L17.45 2.84Q17.94 2.73 18.38 2.67Q18.82 2.60 19.20 2.60L19.20 2.60Q20.18 2.60 20.76 3.01Q21.33 3.41 21.33 4.09L21.33 4.09Q21.33 4.56 21.03 4.89Q20.72 5.22 20.16 5.34ZM25.77 5.34L25.77 5.34Q26.40 5.46 26.75 5.83Q27.09 6.21 27.09 6.77L27.09 6.77Q27.09 7.62 26.44 8.07Q25.79 8.53 24.58 8.53L24.58 8.53Q24.19 8.53 23.77 8.46Q23.34 8.39 22.86 8.25L22.86 8.25L22.86 7.42Q23.21 7.61 23.62 7.70Q24.03 7.79 24.49 7.79L24.49 7.79Q25.23 7.79 25.64 7.52Q26.05 7.25 26.05 6.77L26.05 6.77Q26.05 6.26 25.67 6.00Q25.29 5.74 24.55 5.74L24.55 5.74L23.97 5.74L23.97 5.00L24.61 5.00Q25.25 5.00 25.58 4.79Q25.92 4.57 25.92 4.16L25.92 4.16Q25.92 3.77 25.57 3.56Q25.23 3.35 24.58 3.35L24.58 3.35Q24.31 3.35 23.96 3.41Q23.61 3.47 23.06 3.63L23.06 3.63L23.06 2.84Q23.56 2.73 23.99 2.67Q24.43 2.60 24.81 2.60L24.81 2.60Q25.79 2.60 26.37 3.01Q26.95 3.41 26.95 4.09L26.95 4.09Q26.95 4.56 26.64 4.89Q26.33 5.22 25.77 5.34ZM31.06 6.41L31.06 3.55L28.95 6.41L31.06 6.41ZM28.23 6.33L30.91 2.72L32.05 2.72L32.05 6.41L32.97 6.41L32.97 7.16L32.05 7.16L32.05 8.43L31.06 8.43L31.06 7.16L28.23 7.16L28.23 6.33Z"></path></svg>