<svg height="16.296875" width="26.9814453125" xmlns="http://www.w3.org/2000/svg" ><path d="M2.54 11.85L2.54 11.85L2.54 15.91L1.27 15.91L1.27 5.34L2.54 5.34L2.54 6.50Q2.93 5.82 3.54 5.49Q4.14 5.15 4.98 5.15L4.98 5.15Q6.38 5.15 7.25 6.26Q8.12 7.37 8.12 9.17L8.12 9.17Q8.12 10.98 7.25 12.09Q6.38 13.19 4.98 13.19L4.98 13.19Q4.14 13.19 3.54 12.86Q2.93 12.53 2.54 11.85ZM6.82 9.17L6.82 9.17Q6.82 7.79 6.24 7.00Q5.67 6.21 4.68 6.21L4.68 6.21Q3.68 6.21 3.11 7.00Q2.54 7.79 2.54 9.17L2.54 9.17Q2.54 10.56 3.11 11.35Q3.68 12.14 4.68 12.14L4.68 12.14Q5.67 12.14 6.24 11.35Q6.82 10.56 6.82 9.17ZM10.16 13.00L10.16 5.34L15.00 5.34L15.00 6.35L11.43 6.35L11.43 8.41L14.84 8.41L14.84 9.42L11.43 9.42L11.43 11.99L15.09 11.99L15.09 13.00L10.16 13.00ZM16.73 5.58L16.73 2.72L20.21 2.72L20.21 3.37L17.54 3.37L17.54 4.76Q17.73 4.70 17.93 4.68L17.93 4.68Q18.12 4.65 18.31 4.65L18.31 4.65Q19.41 4.65 20.06 5.17L20.06 5.17Q20.70 5.69 20.70 6.59L20.70 6.59Q20.70 7.51 20.04 8.03L20.04 8.03Q19.38 8.53 18.18 8.53L18.18 8.53Q17.77 8.53 17.34 8.47Q16.91 8.41 16.45 8.29L16.45 8.29L16.45 7.51Q16.84 7.70 17.27 7.79L17.27 7.79Q17.69 7.88 18.16 7.88L18.16 7.88Q18.92 7.88 19.37 7.53Q19.81 7.18 19.81 6.59Q19.81 6.00 19.37 5.65Q18.92 5.30 18.16 5.30L18.16 5.30Q17.81 5.30 17.45 5.37Q17.10 5.43 16.73 5.58L16.73 5.58ZM24.95 5.34L24.95 5.34Q25.58 5.46 25.93 5.83Q26.27 6.21 26.27 6.77L26.27 6.77Q26.27 7.62 25.62 8.07Q24.97 8.53 23.76 8.53L23.76 8.53Q23.37 8.53 22.94 8.46Q22.52 8.39 22.04 8.25L22.04 8.25L22.04 7.42Q22.39 7.61 22.80 7.70Q23.21 7.79 23.67 7.79L23.67 7.79Q24.41 7.79 24.82 7.52Q25.23 7.25 25.23 6.77L25.23 6.77Q25.23 6.26 24.85 6.00Q24.47 5.74 23.73 5.74L23.73 5.74L23.15 5.74L23.15 5.00L23.79 5.00Q24.43 5.00 24.76 4.79Q25.09 4.57 25.09 4.16L25.09 4.16Q25.09 3.77 24.75 3.56Q24.41 3.35 23.76 3.35L23.76 3.35Q23.49 3.35 23.14 3.41Q22.79 3.47 22.24 3.63L22.24 3.63L22.24 2.84Q22.74 2.73 23.17 2.67Q23.61 2.60 23.99 2.60L23.99 2.60Q24.97 2.60 25.55 3.01Q26.13 3.41 26.13 4.09L26.13 4.09Q26.13 4.56 25.82 4.89Q25.51 5.22 24.95 5.34Z"></path></svg>