<svg height="16.296875" width="32.59375" xmlns="http://www.w3.org/2000/svg" ><path d="M2.54 11.85L2.54 11.85L2.54 15.91L1.27 15.91L1.27 5.34L2.54 5.34L2.54 6.50Q2.93 5.82 3.54 5.49Q4.14 5.15 4.98 5.15L4.98 5.15Q6.38 5.15 7.25 6.26Q8.12 7.37 8.12 9.17L8.12 9.17Q8.12 10.98 7.25 12.09Q6.38 13.19 4.98 13.19L4.98 13.19Q4.14 13.19 3.54 12.86Q2.93 12.53 2.54 11.85ZM6.82 9.17L6.82 9.17Q6.82 7.79 6.24 7.00Q5.67 6.21 4.68 6.21L4.68 6.21Q3.68 6.21 3.11 7.00Q2.54 7.79 2.54 9.17L2.54 9.17Q2.54 10.56 3.11 11.35Q3.68 12.14 4.68 12.14L4.68 12.14Q5.67 12.14 6.24 11.35Q6.82 10.56 6.82 9.17ZM10.16 13.00L10.16 5.34L15.00 5.34L15.00 6.35L11.43 6.35L11.43 8.41L14.84 8.41L14.84 9.42L11.43 9.42L11.43 11.99L15.09 11.99L15.09 13.00L10.16 13.00ZM19.34 5.34L19.34 5.34Q19.97 5.46 20.31 5.83Q20.66 6.21 20.66 6.77L20.66 6.77Q20.66 7.62 20.01 8.07Q19.36 8.53 18.15 8.53L18.15 8.53Q17.76 8.53 17.33 8.46Q16.91 8.39 16.43 8.25L16.43 8.25L16.43 7.42Q16.78 7.61 17.19 7.70Q17.60 7.79 18.05 7.79L18.05 7.79Q18.80 7.79 19.21 7.52Q19.62 7.25 19.62 6.77L19.62 6.77Q19.62 6.26 19.24 6.00Q18.86 5.74 18.12 5.74L18.12 5.74L17.53 5.74L17.53 5.00L18.18 5.00Q18.82 5.00 19.15 4.79Q19.48 4.57 19.48 4.16L19.48 4.16Q19.48 3.77 19.14 3.56Q18.80 3.35 18.15 3.35L18.15 3.35Q17.88 3.35 17.53 3.41Q17.18 3.47 16.63 3.63L16.63 3.63L16.63 2.84Q17.12 2.73 17.56 2.67Q18.00 2.60 18.38 2.60L18.38 2.60Q19.36 2.60 19.94 3.01Q20.51 3.41 20.51 4.09L20.51 4.09Q20.51 4.56 20.21 4.89Q19.90 5.22 19.34 5.34ZM24.95 5.34L24.95 5.34Q25.58 5.46 25.93 5.83Q26.27 6.21 26.27 6.77L26.27 6.77Q26.27 7.62 25.62 8.07Q24.97 8.53 23.76 8.53L23.76 8.53Q23.37 8.53 22.94 8.46Q22.52 8.39 22.04 8.25L22.04 8.25L22.04 7.42Q22.39 7.61 22.80 7.70Q23.21 7.79 23.67 7.79L23.67 7.79Q24.41 7.79 24.82 7.52Q25.23 7.25 25.23 6.77L25.23 6.77Q25.23 6.26 24.85 6.00Q24.47 5.74 23.73 5.74L23.73 5.74L23.15 5.74L23.15 5.00L23.79 5.00Q24.43 5.00 24.76 4.79Q25.09 4.57 25.09 4.16L25.09 4.16Q25.09 3.77 24.75 3.56Q24.41 3.35 23.76 3.35L23.76 3.35Q23.49 3.35 23.14 3.41Q22.79 3.47 22.24 3.63L22.24 3.63L22.24 2.84Q22.74 2.73 23.17 2.67Q23.61 2.60 23.99 2.60L23.99 2.60Q24.97 2.60 25.55 3.01Q26.13 3.41 26.13 4.09L26.13 4.09Q26.13 4.56 25.82 4.89Q25.51 5.22 24.95 5.34ZM30.24 6.41L30.24 3.55L28.13 6.41L30.24 6.41ZM27.41 6.33L30.09 2.72L31.23 2.72L31.23 6.41L32.15 6.41L32.15 7.16L31.23 7.16L31.23 8.43L30.24 8.43L30.24 7.16L27.41 7.16L27.41 6.33Z"></path></svg>