<svg height="16.296875" width="37.59765625" xmlns="http://www.w3.org/2000/svg" ><path d="M2.54 11.85L2.54 11.85L2.54 15.91L1.27 15.91L1.27 5.34L2.54 5.34L2.54 6.50Q2.93 5.82 3.54 5.49Q4.14 5.15 4.98 5.15L4.98 5.15Q6.38 5.15 7.25 6.26Q8.12 7.37 8.12 9.17L8.12 9.17Q8.12 10.98 7.25 12.09Q6.38 13.19 4.98 13.19L4.98 13.19Q4.14 13.19 3.54 12.86Q2.93 12.53 2.54 11.85ZM6.82 9.17L6.82 9.17Q6.82 7.79 6.24 7.00Q5.67 6.21 4.68 6.21L4.68 6.21Q3.68 6.21 3.11 7.00Q2.54 7.79 2.54 9.17L2.54 9.17Q2.54 10.56 3.11 11.35Q3.68 12.14 4.68 12.14L4.68 12.14Q5.67 12.14 6.24 11.35Q6.82 10.56 6.82 9.17ZM9.66 9.50L9.66 9.50L9.66 8.88L15.44 8.88Q15.36 7.58 14.66 6.90Q13.96 6.22 12.71 6.22L12.71 6.22Q11.98 6.22 11.30 6.40Q10.62 6.58 9.95 6.93L9.95 6.93L9.95 5.74Q10.63 5.46 11.34 5.30Q12.05 5.15 12.78 5.15L12.78 5.15Q14.62 5.15 15.69 6.22Q16.75 7.29 16.75 9.11L16.75 9.11Q16.75 10.99 15.74 12.09Q14.72 13.19 13.00 13.19L13.00 13.19Q11.46 13.19 10.56 12.20Q9.66 11.20 9.66 9.50ZM15.40 9.86L10.92 9.86Q10.93 10.90 11.49 11.51Q12.06 12.13 12.99 12.13L12.99 12.13Q14.04 12.13 14.67 11.53Q15.31 10.94 15.40 9.86L15.40 9.86ZM25.18 8.37L25.18 8.37L25.18 13.00L23.93 13.00L23.93 8.42Q23.93 7.33 23.50 6.79Q23.08 6.25 22.23 6.25L22.23 6.25Q21.21 6.25 20.62 6.90Q20.04 7.55 20.04 8.67L20.04 8.67L20.04 13.00L18.77 13.00L18.77 5.34L20.04 5.34L20.04 6.53Q20.49 5.84 21.10 5.50Q21.71 5.15 22.51 5.15L22.51 5.15Q23.83 5.15 24.51 5.97Q25.18 6.79 25.18 8.37ZM27.34 5.58L27.34 2.72L30.83 2.72L30.83 3.37L28.16 3.37L28.16 4.76Q28.35 4.70 28.55 4.68L28.55 4.68Q28.74 4.65 28.93 4.65L28.93 4.65Q30.03 4.65 30.67 5.17L30.67 5.17Q31.32 5.69 31.32 6.59L31.32 6.59Q31.32 7.51 30.65 8.03L30.65 8.03Q30.00 8.53 28.79 8.53L28.79 8.53Q28.38 8.53 27.95 8.47Q27.52 8.41 27.07 8.29L27.07 8.29L27.07 7.51Q27.46 7.70 27.88 7.79L27.88 7.79Q28.31 7.88 28.78 7.88L28.78 7.88Q29.54 7.88 29.98 7.53Q30.43 7.18 30.43 6.59Q30.43 6.00 29.98 5.65Q29.54 5.30 28.78 5.30L28.78 5.30Q28.42 5.30 28.07 5.37Q27.71 5.43 27.34 5.58L27.34 5.58ZM35.57 5.34L35.57 5.34Q36.20 5.46 36.54 5.83Q36.89 6.21 36.89 6.77L36.89 6.77Q36.89 7.62 36.24 8.07Q35.59 8.53 34.38 8.53L34.38 8.53Q33.99 8.53 33.56 8.46Q33.13 8.39 32.66 8.25L32.66 8.25L32.66 7.42Q33.01 7.61 33.42 7.70Q33.82 7.79 34.28 7.79L34.28 7.79Q35.03 7.79 35.44 7.52Q35.85 7.25 35.85 6.77L35.85 6.77Q35.85 6.26 35.47 6.00Q35.09 5.74 34.35 5.74L34.35 5.74L33.76 5.74L33.76 5.00L34.41 5.00Q35.05 5.00 35.38 4.79Q35.71 4.57 35.71 4.16L35.71 4.16Q35.71 3.77 35.37 3.56Q35.03 3.35 34.38 3.35L34.38 3.35Q34.10 3.35 33.76 3.41Q33.41 3.47 32.85 3.63L32.85 3.63L32.85 2.84Q33.35 2.73 33.79 2.67Q34.23 2.60 34.60 2.60L34.60 2.60Q35.59 2.60 36.17 3.01Q36.74 3.41 36.74 4.09L36.74 4.09Q36.74 4.56 36.44 4.89Q36.13 5.22 35.57 5.34Z"></path></svg>