<svg height="16.296875" width="43.2099609375" xmlns="http://www.w3.org/2000/svg" ><path d="M2.54 11.85L2.54 11.85L2.54 15.91L1.27 15.91L1.27 5.34L2.54 5.34L2.54 6.50Q2.93 5.82 3.54 5.49Q4.14 5.15 4.98 5.15L4.98 5.15Q6.38 5.15 7.25 6.26Q8.12 7.37 8.12 9.17L8.12 9.17Q8.12 10.98 7.25 12.09Q6.38 13.19 4.98 13.19L4.98 13.19Q4.14 13.19 3.54 12.86Q2.93 12.53 2.54 11.85ZM6.82 9.17L6.82 9.17Q6.82 7.79 6.24 7.00Q5.67 6.21 4.68 6.21L4.68 6.21Q3.68 6.21 3.11 7.00Q2.54 7.79 2.54 9.17L2.54 9.17Q2.54 10.56 3.11 11.35Q3.68 12.14 4.68 12.14L4.68 12.14Q5.67 12.14 6.24 11.35Q6.82 10.56 6.82 9.17ZM9.66 9.50L9.66 9.50L9.66 8.88L15.44 8.88Q15.36 7.58 14.66 6.90Q13.96 6.22 12.71 6.22L12.71 6.22Q11.98 6.22 11.30 6.40Q10.62 6.58 9.95 6.93L9.95 6.93L9.95 5.74Q10.63 5.46 11.34 5.30Q12.05 5.15 12.78 5.15L12.78 5.15Q14.62 5.15 15.69 6.22Q16.75 7.29 16.75 9.11L16.75 9.11Q16.75 10.99 15.74 12.09Q14.72 13.19 13.00 13.19L13.00 13.19Q11.46 13.19 10.56 12.20Q9.66 11.20 9.66 9.50ZM15.40 9.86L10.92 9.86Q10.93 10.90 11.49 11.51Q12.06 12.13 12.99 12.13L12.99 12.13Q14.04 12.13 14.67 11.53Q15.31 10.94 15.40 9.86L15.40 9.86ZM25.18 8.37L25.18 8.37L25.18 13.00L23.93 13.00L23.93 8.42Q23.93 7.33 23.50 6.79Q23.08 6.25 22.23 6.25L22.23 6.25Q21.21 6.25 20.62 6.90Q20.04 7.55 20.04 8.67L20.04 8.67L20.04 13.00L18.77 13.00L18.77 5.34L20.04 5.34L20.04 6.53Q20.49 5.84 21.10 5.50Q21.71 5.15 22.51 5.15L22.51 5.15Q23.83 5.15 24.51 5.97Q25.18 6.79 25.18 8.37ZM29.96 5.34L29.96 5.34Q30.58 5.46 30.93 5.83Q31.27 6.21 31.27 6.77L31.27 6.77Q31.27 7.62 30.63 8.07Q29.98 8.53 28.77 8.53L28.77 8.53Q28.38 8.53 27.95 8.46Q27.52 8.39 27.04 8.25L27.04 8.25L27.04 7.42Q27.40 7.61 27.81 7.70Q28.21 7.79 28.67 7.79L28.67 7.79Q29.42 7.79 29.83 7.52Q30.24 7.25 30.24 6.77L30.24 6.77Q30.24 6.26 29.86 6.00Q29.48 5.74 28.74 5.74L28.74 5.74L28.15 5.74L28.15 5.00L28.79 5.00Q29.44 5.00 29.77 4.79Q30.10 4.57 30.10 4.16L30.10 4.16Q30.10 3.77 29.76 3.56Q29.42 3.35 28.77 3.35L28.77 3.35Q28.49 3.35 28.14 3.41Q27.79 3.47 27.24 3.63L27.24 3.63L27.24 2.84Q27.74 2.73 28.18 2.67Q28.62 2.60 28.99 2.60L28.99 2.60Q29.98 2.60 30.55 3.01Q31.13 3.41 31.13 4.09L31.13 4.09Q31.13 4.56 30.82 4.89Q30.52 5.22 29.96 5.34ZM35.57 5.34L35.57 5.34Q36.20 5.46 36.54 5.83Q36.89 6.21 36.89 6.77L36.89 6.77Q36.89 7.62 36.24 8.07Q35.59 8.53 34.38 8.53L34.38 8.53Q33.99 8.53 33.56 8.46Q33.13 8.39 32.66 8.25L32.66 8.25L32.66 7.42Q33.01 7.61 33.42 7.70Q33.82 7.79 34.28 7.79L34.28 7.79Q35.03 7.79 35.44 7.52Q35.85 7.25 35.85 6.77L35.85 6.77Q35.85 6.26 35.47 6.00Q35.09 5.74 34.35 5.74L34.35 5.74L33.76 5.74L33.76 5.00L34.41 5.00Q35.05 5.00 35.38 4.79Q35.71 4.57 35.71 4.16L35.71 4.16Q35.71 3.77 35.37 3.56Q35.03 3.35 34.38 3.35L34.38 3.35Q34.10 3.35 33.76 3.41Q33.41 3.47 32.85 3.63L32.85 3.63L32.85 2.84Q33.35 2.73 33.79 2.67Q34.23 2.60 34.60 2.60L34.60 2.60Q35.59 2.60 36.17 3.01Q36.74 3.41 36.74 4.09L36.74 4.09Q36.74 4.56 36.44 4.89Q36.13 5.22 35.57 5.34ZM40.86 6.41L40.86 3.55L38.75 6.41L40.86 6.41ZM38.03 6.33L40.71 2.72L41.84 2.72L41.84 6.41L42.77 6.41L42.77 7.16L41.84 7.16L41.84 8.43L40.86 8.43L40.86 7.16L38.03 7.16L38.03 6.33Z"></path></svg>