<svg height="16.296875" width="35.8681640625" xmlns="http://www.w3.org/2000/svg" ><path d="M2.54 11.85L2.54 11.85L2.54 15.91L1.27 15.91L1.27 5.34L2.54 5.34L2.54 6.50Q2.93 5.82 3.54 5.49Q4.14 5.15 4.98 5.15L4.98 5.15Q6.38 5.15 7.25 6.26Q8.12 7.37 8.12 9.17L8.12 9.17Q8.12 10.98 7.25 12.09Q6.38 13.19 4.98 13.19L4.98 13.19Q4.14 13.19 3.54 12.86Q2.93 12.53 2.54 11.85ZM6.82 9.17L6.82 9.17Q6.82 7.79 6.24 7.00Q5.67 6.21 4.68 6.21L4.68 6.21Q3.68 6.21 3.11 7.00Q2.54 7.79 2.54 9.17L2.54 9.17Q2.54 10.56 3.11 11.35Q3.68 12.14 4.68 12.14L4.68 12.14Q5.67 12.14 6.24 11.35Q6.82 10.56 6.82 9.17ZM9.66 9.50L9.66 9.50L9.66 8.88L15.44 8.88Q15.36 7.58 14.66 6.90Q13.96 6.22 12.71 6.22L12.71 6.22Q11.98 6.22 11.30 6.40Q10.62 6.58 9.95 6.93L9.95 6.93L9.95 5.74Q10.63 5.46 11.34 5.30Q12.05 5.15 12.78 5.15L12.78 5.15Q14.62 5.15 15.69 6.22Q16.75 7.29 16.75 9.11L16.75 9.11Q16.75 10.99 15.74 12.09Q14.72 13.19 13.00 13.19L13.00 13.19Q11.46 13.19 10.56 12.20Q9.66 11.20 9.66 9.50ZM15.40 9.86L10.92 9.86Q10.93 10.90 11.49 11.51Q12.06 12.13 12.99 12.13L12.99 12.13Q14.04 12.13 14.67 11.53Q15.31 10.94 15.40 9.86L15.40 9.86ZM19.83 13.00L19.82 7.54L20.25 7.54Q21.57 7.54 22.16 6.76L22.16 6.76Q22.55 6.24 22.55 5.57L22.55 5.57Q22.54 4.66 22.16 4.22L22.16 4.22Q21.48 3.44 20.25 3.44L20.25 3.44Q19.71 3.44 19.17 3.59L19.17 3.59Q18.63 3.73 18.10 4.03L18.10 4.03L18.10 2.85Q18.62 2.61 19.17 2.50L19.17 2.50Q19.73 2.37 20.31 2.37L20.31 2.37Q22.19 2.37 23.13 3.45L23.13 3.45Q23.88 4.30 23.88 5.57L23.88 5.57Q23.88 6.73 23.14 7.52L23.14 7.52Q22.37 8.33 21.21 8.54L21.21 8.54L21.21 13.00L19.83 13.00ZM25.61 5.58L25.61 2.72L29.10 2.72L29.10 3.37L26.43 3.37L26.43 4.76Q26.62 4.70 26.82 4.68L26.82 4.68Q27.01 4.65 27.20 4.65L27.20 4.65Q28.30 4.65 28.94 5.17L28.94 5.17Q29.59 5.69 29.59 6.59L29.59 6.59Q29.59 7.51 28.92 8.03L28.92 8.03Q28.27 8.53 27.06 8.53L27.06 8.53Q26.65 8.53 26.22 8.47Q25.79 8.41 25.34 8.29L25.34 8.29L25.34 7.51Q25.73 7.70 26.15 7.79L26.15 7.79Q26.58 7.88 27.05 7.88L27.05 7.88Q27.81 7.88 28.25 7.53Q28.70 7.18 28.70 6.59Q28.70 6.00 28.25 5.65Q27.81 5.30 27.05 5.30L27.05 5.30Q26.69 5.30 26.34 5.37Q25.98 5.43 25.61 5.58L25.61 5.58ZM31.23 5.58L31.23 2.72L34.71 2.72L34.71 3.37L32.04 3.37L32.04 4.76Q32.23 4.70 32.43 4.68L32.43 4.68Q32.62 4.65 32.81 4.65L32.81 4.65Q33.91 4.65 34.56 5.17L34.56 5.17Q35.20 5.69 35.20 6.59L35.20 6.59Q35.20 7.51 34.54 8.03L34.54 8.03Q33.88 8.53 32.68 8.53L32.68 8.53Q32.27 8.53 31.83 8.47Q31.40 8.41 30.95 8.29L30.95 8.29L30.95 7.51Q31.34 7.70 31.77 7.79L31.77 7.79Q32.19 7.88 32.66 7.88L32.66 7.88Q33.42 7.88 33.87 7.53Q34.31 7.18 34.31 6.59Q34.31 6.00 33.87 5.65Q33.42 5.30 32.66 5.30L32.66 5.30Q32.31 5.30 31.95 5.37Q31.60 5.43 31.23 5.58L31.23 5.58Z"></path></svg>