<svg height="16.296875" width="39.6689453125" xmlns="http://www.w3.org/2000/svg" ><path d="M2.54 11.85L2.54 11.85L2.54 15.91L1.27 15.91L1.27 5.34L2.54 5.34L2.54 6.50Q2.93 5.82 3.54 5.49Q4.14 5.15 4.98 5.15L4.98 5.15Q6.38 5.15 7.25 6.26Q8.12 7.37 8.12 9.17L8.12 9.17Q8.12 10.98 7.25 12.09Q6.38 13.19 4.98 13.19L4.98 13.19Q4.14 13.19 3.54 12.86Q2.93 12.53 2.54 11.85ZM6.82 9.17L6.82 9.17Q6.82 7.79 6.24 7.00Q5.67 6.21 4.68 6.21L4.68 6.21Q3.68 6.21 3.11 7.00Q2.54 7.79 2.54 9.17L2.54 9.17Q2.54 10.56 3.11 11.35Q3.68 12.14 4.68 12.14L4.68 12.14Q5.67 12.14 6.24 11.35Q6.82 10.56 6.82 9.17ZM13.73 5.84L13.73 5.84L13.73 8.43L12.93 8.43L12.93 5.87Q12.93 5.26 12.67 4.95Q12.40 4.65 11.87 4.65L11.87 4.65Q11.22 4.65 10.86 5.01Q10.49 5.38 10.49 6.01L10.49 6.01L10.49 8.43L9.69 8.43L9.69 2.47L10.49 2.47L10.49 4.81Q10.77 4.42 11.15 4.23Q11.54 4.04 12.04 4.04L12.04 4.04Q12.87 4.04 13.30 4.50Q13.73 4.96 13.73 5.84ZM19.54 5.34L22.42 13.00L21.08 13.00L20.38 11.12L16.99 11.12L16.30 13.00L14.96 13.00L17.83 5.34L19.54 5.34ZM18.69 6.57L17.38 10.10L20.00 10.10L18.69 6.57ZM26.41 5.34L26.41 5.34Q27.04 5.46 27.39 5.83Q27.73 6.21 27.73 6.77L27.73 6.77Q27.73 7.62 27.08 8.07Q26.43 8.53 25.22 8.53L25.22 8.53Q24.83 8.53 24.41 8.46Q23.98 8.39 23.50 8.25L23.50 8.25L23.50 7.42Q23.86 7.61 24.26 7.70Q24.67 7.79 25.13 7.79L25.13 7.79Q25.87 7.79 26.28 7.52Q26.69 7.25 26.69 6.77L26.69 6.77Q26.69 6.26 26.31 6.00Q25.94 5.74 25.20 5.74L25.20 5.74L24.61 5.74L24.61 5.00L25.25 5.00Q25.89 5.00 26.23 4.79Q26.56 4.57 26.56 4.16L26.56 4.16Q26.56 3.77 26.22 3.56Q25.87 3.35 25.22 3.35L25.22 3.35Q24.95 3.35 24.60 3.41Q24.25 3.47 23.70 3.63L23.70 3.63L23.70 2.84Q24.20 2.73 24.64 2.67Q25.07 2.60 25.45 2.60L25.45 2.60Q26.43 2.60 27.01 3.01Q27.59 3.41 27.59 4.09L27.59 4.09Q27.59 4.56 27.28 4.89Q26.97 5.22 26.41 5.34ZM32.03 5.34L32.03 5.34Q32.66 5.46 33.00 5.83Q33.35 6.21 33.35 6.77L33.35 6.77Q33.35 7.62 32.70 8.07Q32.05 8.53 30.84 8.53L30.84 8.53Q30.45 8.53 30.02 8.46Q29.59 8.39 29.11 8.25L29.11 8.25L29.11 7.42Q29.47 7.61 29.88 7.70Q30.28 7.79 30.74 7.79L30.74 7.79Q31.49 7.79 31.90 7.52Q32.31 7.25 32.31 6.77L32.31 6.77Q32.31 6.26 31.93 6.00Q31.55 5.74 30.81 5.74L30.81 5.74L30.22 5.74L30.22 5.00L30.86 5.00Q31.51 5.00 31.84 4.79Q32.17 4.57 32.17 4.16L32.17 4.16Q32.17 3.77 31.83 3.56Q31.49 3.35 30.84 3.35L30.84 3.35Q30.56 3.35 30.21 3.41Q29.87 3.47 29.31 3.63L29.31 3.63L29.31 2.84Q29.81 2.73 30.25 2.67Q30.69 2.60 31.06 2.60L31.06 2.60Q32.05 2.60 32.62 3.01Q33.20 3.41 33.20 4.09L33.20 4.09Q33.20 4.56 32.89 4.89Q32.59 5.22 32.03 5.34ZM37.32 6.41L37.32 3.55L35.21 6.41L37.32 6.41ZM34.49 6.33L37.17 2.72L38.30 2.72L38.30 6.41L39.22 6.41L39.22 7.16L38.30 7.16L38.30 8.43L37.32 8.43L37.32 7.16L34.49 7.16L34.49 6.33Z"></path></svg>