<svg height="16.296875" width="34.3505859375" xmlns="http://www.w3.org/2000/svg" ><path d="M2.54 11.85L2.54 11.85L2.54 15.91L1.27 15.91L1.27 5.34L2.54 5.34L2.54 6.50Q2.93 5.82 3.54 5.49Q4.14 5.15 4.98 5.15L4.98 5.15Q6.38 5.15 7.25 6.26Q8.12 7.37 8.12 9.17L8.12 9.17Q8.12 10.98 7.25 12.09Q6.38 13.19 4.98 13.19L4.98 13.19Q4.14 13.19 3.54 12.86Q2.93 12.53 2.54 11.85ZM6.82 9.17L6.82 9.17Q6.82 7.79 6.24 7.00Q5.67 6.21 4.68 6.21L4.68 6.21Q3.68 6.21 3.11 7.00Q2.54 7.79 2.54 9.17L2.54 9.17Q2.54 10.56 3.11 11.35Q3.68 12.14 4.68 12.14L4.68 12.14Q5.67 12.14 6.24 11.35Q6.82 10.56 6.82 9.17ZM13.73 5.84L13.73 5.84L13.73 8.43L12.93 8.43L12.93 5.87Q12.93 5.26 12.67 4.95Q12.40 4.65 11.87 4.65L11.87 4.65Q11.22 4.65 10.86 5.01Q10.49 5.38 10.49 6.01L10.49 6.01L10.49 8.43L9.69 8.43L9.69 2.47L10.49 2.47L10.49 4.81Q10.77 4.42 11.15 4.23Q11.54 4.04 12.04 4.04L12.04 4.04Q12.87 4.04 13.30 4.50Q13.73 4.96 13.73 5.84ZM20.60 9.15L19.35 9.15Q17.82 9.15 17.23 9.50Q16.65 9.84 16.65 10.68L16.65 10.68Q16.65 11.35 17.09 11.75Q17.53 12.14 18.29 12.14L18.29 12.14Q19.33 12.14 19.96 11.40Q20.60 10.66 20.60 9.43L20.60 9.43L20.60 9.15ZM21.85 8.63L21.85 8.63L21.85 13.00L20.60 13.00L20.60 11.83Q20.17 12.53 19.52 12.86Q18.88 13.19 17.95 13.19L17.95 13.19Q16.78 13.19 16.08 12.53Q15.39 11.87 15.39 10.77L15.39 10.77Q15.39 9.47 16.25 8.82Q17.12 8.16 18.83 8.16L18.83 8.16L20.60 8.16L20.60 8.04Q20.60 7.17 20.03 6.70Q19.46 6.22 18.42 6.22L18.42 6.22Q17.77 6.22 17.14 6.38Q16.52 6.54 15.95 6.85L15.95 6.85L15.95 5.69Q16.64 5.42 17.29 5.29Q17.94 5.15 18.55 5.15L18.55 5.15Q20.21 5.15 21.03 6.02Q21.85 6.88 21.85 8.63ZM19.58 3.63L19.58 3.63L19.20 3.25Q19.04 3.12 18.93 3.05Q18.82 2.99 18.73 2.99L18.73 2.99Q18.47 2.99 18.35 3.24Q18.22 3.49 18.21 4.05L18.21 4.05L17.36 4.05Q17.37 3.12 17.72 2.62Q18.07 2.12 18.69 2.12L18.69 2.12Q18.95 2.12 19.17 2.21Q19.39 2.31 19.64 2.54L19.64 2.54L20.03 2.91Q20.18 3.05 20.29 3.11Q20.41 3.18 20.49 3.18L20.49 3.18Q20.75 3.18 20.88 2.93Q21 2.68 21.01 2.12L21.01 2.12L21.87 2.12Q21.85 3.04 21.51 3.54Q21.16 4.05 20.54 4.05L20.54 4.05Q20.28 4.05 20.06 3.95Q19.84 3.86 19.58 3.63ZM24.10 5.58L24.10 2.72L27.58 2.72L27.58 3.37L24.91 3.37L24.91 4.76Q25.10 4.70 25.30 4.68L25.30 4.68Q25.49 4.65 25.68 4.65L25.68 4.65Q26.78 4.65 27.43 5.17L27.43 5.17Q28.07 5.69 28.07 6.59L28.07 6.59Q28.07 7.51 27.41 8.03L27.41 8.03Q26.75 8.53 25.55 8.53L25.55 8.53Q25.14 8.53 24.71 8.47Q24.27 8.41 23.82 8.29L23.82 8.29L23.82 7.51Q24.21 7.70 24.64 7.79L24.64 7.79Q25.06 7.88 25.53 7.88L25.53 7.88Q26.29 7.88 26.74 7.53Q27.18 7.18 27.18 6.59Q27.18 6.00 26.74 5.65Q26.29 5.30 25.53 5.30L25.53 5.30Q25.18 5.30 24.82 5.37Q24.47 5.43 24.10 5.58L24.10 5.58ZM32.32 5.34L32.32 5.34Q32.95 5.46 33.29 5.83Q33.64 6.21 33.64 6.77L33.64 6.77Q33.64 7.62 32.99 8.07Q32.34 8.53 31.13 8.53L31.13 8.53Q30.74 8.53 30.31 8.46Q29.89 8.39 29.41 8.25L29.41 8.25L29.41 7.42Q29.76 7.61 30.17 7.70Q30.58 7.79 31.04 7.79L31.04 7.79Q31.78 7.79 32.19 7.52Q32.60 7.25 32.60 6.77L32.60 6.77Q32.60 6.26 32.22 6.00Q31.84 5.74 31.10 5.74L31.10 5.74L30.52 5.74L30.52 5.00L31.16 5.00Q31.80 5.00 32.13 4.79Q32.46 4.57 32.46 4.16L32.46 4.16Q32.46 3.77 32.12 3.56Q31.78 3.35 31.13 3.35L31.13 3.35Q30.86 3.35 30.51 3.41Q30.16 3.47 29.61 3.63L29.61 3.63L29.61 2.84Q30.11 2.73 30.54 2.67Q30.98 2.60 31.36 2.60L31.36 2.60Q32.34 2.60 32.92 3.01Q33.50 3.41 33.50 4.09L33.50 4.09Q33.50 4.56 33.19 4.89Q32.88 5.22 32.32 5.34Z"></path></svg>