<svg height="16.296875" width="40.2705078125" xmlns="http://www.w3.org/2000/svg" ><path d="M2.54 11.85L2.54 11.85L2.54 15.91L1.27 15.91L1.27 5.34L2.54 5.34L2.54 6.50Q2.93 5.82 3.54 5.49Q4.14 5.15 4.98 5.15L4.98 5.15Q6.38 5.15 7.25 6.26Q8.12 7.37 8.12 9.17L8.12 9.17Q8.12 10.98 7.25 12.09Q6.38 13.19 4.98 13.19L4.98 13.19Q4.14 13.19 3.54 12.86Q2.93 12.53 2.54 11.85ZM6.82 9.17L6.82 9.17Q6.82 7.79 6.24 7.00Q5.67 6.21 4.68 6.21L4.68 6.21Q3.68 6.21 3.11 7.00Q2.54 7.79 2.54 9.17L2.54 9.17Q2.54 10.56 3.11 11.35Q3.68 12.14 4.68 12.14L4.68 12.14Q5.67 12.14 6.24 11.35Q6.82 10.56 6.82 9.17ZM13.73 5.84L13.73 5.84L13.73 8.43L12.93 8.43L12.93 5.87Q12.93 5.26 12.67 4.95Q12.40 4.65 11.87 4.65L11.87 4.65Q11.22 4.65 10.86 5.01Q10.49 5.38 10.49 6.01L10.49 6.01L10.49 8.43L9.69 8.43L9.69 2.47L10.49 2.47L10.49 4.81Q10.77 4.42 11.15 4.23Q11.54 4.04 12.04 4.04L12.04 4.04Q12.87 4.04 13.30 4.50Q13.73 4.96 13.73 5.84ZM20.90 6.50L20.90 6.50L20.90 5.34L22.16 5.34L22.16 13.00L20.90 13.00L20.90 11.85Q20.51 12.53 19.90 12.86Q19.30 13.19 18.45 13.19L18.45 13.19Q17.06 13.19 16.19 12.09Q15.32 10.98 15.32 9.17L15.32 9.17Q15.32 7.37 16.19 6.26Q17.06 5.15 18.45 5.15L18.45 5.15Q19.30 5.15 19.90 5.49Q20.51 5.82 20.90 6.50ZM16.62 9.17L16.62 9.17Q16.62 10.56 17.19 11.35Q17.76 12.14 18.76 12.14L18.76 12.14Q19.76 12.14 20.33 11.35Q20.90 10.56 20.90 9.17L20.90 9.17Q20.90 7.79 20.33 7.00Q19.76 6.21 18.76 6.21L18.76 6.21Q17.76 6.21 17.19 7.00Q16.62 7.79 16.62 9.17ZM19.89 3.63L19.89 3.63L19.50 3.25Q19.35 3.12 19.24 3.05Q19.13 2.99 19.04 2.99L19.04 2.99Q18.78 2.99 18.66 3.24Q18.53 3.49 18.52 4.05L18.52 4.05L17.66 4.05Q17.68 3.12 18.03 2.62Q18.38 2.12 19.00 2.12L19.00 2.12Q19.26 2.12 19.48 2.21Q19.69 2.31 19.95 2.54L19.95 2.54L20.34 2.91Q20.49 3.05 20.60 3.11Q20.71 3.18 20.80 3.18L20.80 3.18Q21.06 3.18 21.18 2.93Q21.31 2.68 21.32 2.12L21.32 2.12L22.18 2.12Q22.16 3.04 21.81 3.54Q21.46 4.05 20.84 4.05L20.84 4.05Q20.58 4.05 20.36 3.95Q20.15 3.86 19.89 3.63ZM27.02 5.34L27.02 5.34Q27.64 5.46 27.99 5.83Q28.33 6.21 28.33 6.77L28.33 6.77Q28.33 7.62 27.69 8.07Q27.04 8.53 25.83 8.53L25.83 8.53Q25.44 8.53 25.01 8.46Q24.58 8.39 24.10 8.25L24.10 8.25L24.10 7.42Q24.46 7.61 24.87 7.70Q25.27 7.79 25.73 7.79L25.73 7.79Q26.48 7.79 26.89 7.52Q27.30 7.25 27.30 6.77L27.30 6.77Q27.30 6.26 26.92 6.00Q26.54 5.74 25.80 5.74L25.80 5.74L25.21 5.74L25.21 5.00L25.85 5.00Q26.50 5.00 26.83 4.79Q27.16 4.57 27.16 4.16L27.16 4.16Q27.16 3.77 26.82 3.56Q26.48 3.35 25.83 3.35L25.83 3.35Q25.55 3.35 25.20 3.41Q24.86 3.47 24.30 3.63L24.30 3.63L24.30 2.84Q24.80 2.73 25.24 2.67Q25.68 2.60 26.05 2.60L26.05 2.60Q27.04 2.60 27.61 3.01Q28.19 3.41 28.19 4.09L28.19 4.09Q28.19 4.56 27.88 4.89Q27.58 5.22 27.02 5.34ZM32.63 5.34L32.63 5.34Q33.26 5.46 33.60 5.83Q33.95 6.21 33.95 6.77L33.95 6.77Q33.95 7.62 33.30 8.07Q32.65 8.53 31.44 8.53L31.44 8.53Q31.05 8.53 30.62 8.46Q30.19 8.39 29.72 8.25L29.72 8.25L29.72 7.42Q30.07 7.61 30.48 7.70Q30.88 7.79 31.34 7.79L31.34 7.79Q32.09 7.79 32.50 7.52Q32.91 7.25 32.91 6.77L32.91 6.77Q32.91 6.26 32.53 6.00Q32.15 5.74 31.41 5.74L31.41 5.74L30.82 5.74L30.82 5.00L31.47 5.00Q32.11 5.00 32.44 4.79Q32.77 4.57 32.77 4.16L32.77 4.16Q32.77 3.77 32.43 3.56Q32.09 3.35 31.44 3.35L31.44 3.35Q31.17 3.35 30.82 3.41Q30.47 3.47 29.91 3.63L29.91 3.63L29.91 2.84Q30.41 2.73 30.85 2.67Q31.29 2.60 31.66 2.60L31.66 2.60Q32.65 2.60 33.23 3.01Q33.80 3.41 33.80 4.09L33.80 4.09Q33.80 4.56 33.50 4.89Q33.19 5.22 32.63 5.34ZM37.92 6.41L37.92 3.55L35.81 6.41L37.92 6.41ZM35.09 6.33L37.77 2.72L38.90 2.72L38.90 6.41L39.83 6.41L39.83 7.16L38.90 7.16L38.90 8.43L37.92 8.43L37.92 7.16L35.09 7.16L35.09 6.33Z"></path></svg>