<svg height="16.296875" width="41.2001953125" xmlns="http://www.w3.org/2000/svg" ><path d="M2.54 11.85L2.54 11.85L2.54 15.91L1.27 15.91L1.27 5.34L2.54 5.34L2.54 6.50Q2.93 5.82 3.54 5.49Q4.14 5.15 4.98 5.15L4.98 5.15Q6.38 5.15 7.25 6.26Q8.12 7.37 8.12 9.17L8.12 9.17Q8.12 10.98 7.25 12.09Q6.38 13.19 4.98 13.19L4.98 13.19Q4.14 13.19 3.54 12.86Q2.93 12.53 2.54 11.85ZM6.82 9.17L6.82 9.17Q6.82 7.79 6.24 7.00Q5.67 6.21 4.68 6.21L4.68 6.21Q3.68 6.21 3.11 7.00Q2.54 7.79 2.54 9.17L2.54 9.17Q2.54 10.56 3.11 11.35Q3.68 12.14 4.68 12.14L4.68 12.14Q5.67 12.14 6.24 11.35Q6.82 10.56 6.82 9.17ZM13.73 5.84L13.73 5.84L13.73 8.43L12.93 8.43L12.93 5.87Q12.93 5.26 12.67 4.95Q12.40 4.65 11.87 4.65L11.87 4.65Q11.22 4.65 10.86 5.01Q10.49 5.38 10.49 6.01L10.49 6.01L10.49 8.43L9.69 8.43L9.69 2.47L10.49 2.47L10.49 4.81Q10.77 4.42 11.15 4.23Q11.54 4.04 12.04 4.04L12.04 4.04Q12.87 4.04 13.30 4.50Q13.73 4.96 13.73 5.84ZM19.54 5.34L22.42 13.00L21.08 13.00L20.38 11.12L16.99 11.12L16.30 13.00L14.96 13.00L17.83 5.34L19.54 5.34ZM18.69 6.57L17.38 10.10L20.00 10.10L18.69 6.57ZM25.16 13.00L25.16 7.54L25.59 7.54Q26.90 7.54 27.49 6.76L27.49 6.76Q27.88 6.24 27.88 5.57L27.88 5.57Q27.88 4.66 27.49 4.22L27.49 4.22Q26.81 3.44 25.59 3.44L25.59 3.44Q25.04 3.44 24.50 3.59L24.50 3.59Q23.97 3.73 23.43 4.03L23.43 4.03L23.43 2.85Q23.95 2.61 24.51 2.50L24.51 2.50Q25.06 2.37 25.64 2.37L25.64 2.37Q27.52 2.37 28.46 3.45L28.46 3.45Q29.21 4.30 29.21 5.57L29.21 5.57Q29.21 6.73 28.47 7.52L28.47 7.52Q27.71 8.33 26.54 8.54L26.54 8.54L26.54 13.00L25.16 13.00ZM30.95 5.58L30.95 2.72L34.43 2.72L34.43 3.37L31.76 3.37L31.76 4.76Q31.95 4.70 32.15 4.68L32.15 4.68Q32.34 4.65 32.53 4.65L32.53 4.65Q33.63 4.65 34.28 5.17L34.28 5.17Q34.92 5.69 34.92 6.59L34.92 6.59Q34.92 7.51 34.25 8.03L34.25 8.03Q33.60 8.53 32.40 8.53L32.40 8.53Q31.99 8.53 31.55 8.47Q31.12 8.41 30.67 8.29L30.67 8.29L30.67 7.51Q31.06 7.70 31.49 7.79L31.49 7.79Q31.91 7.88 32.38 7.88L32.38 7.88Q33.14 7.88 33.58 7.53Q34.03 7.18 34.03 6.59Q34.03 6.00 33.58 5.65Q33.14 5.30 32.38 5.30L32.38 5.30Q32.03 5.30 31.67 5.37Q31.32 5.43 30.95 5.58L30.95 5.58ZM36.56 5.58L36.56 2.72L40.04 2.72L40.04 3.37L37.37 3.37L37.37 4.76Q37.56 4.70 37.76 4.68L37.76 4.68Q37.95 4.65 38.14 4.65L38.14 4.65Q39.25 4.65 39.89 5.17L39.89 5.17Q40.53 5.69 40.53 6.59L40.53 6.59Q40.53 7.51 39.87 8.03L39.87 8.03Q39.21 8.53 38.01 8.53L38.01 8.53Q37.60 8.53 37.17 8.47Q36.74 8.41 36.29 8.29L36.29 8.29L36.29 7.51Q36.67 7.70 37.10 7.79L37.10 7.79Q37.52 7.88 37.99 7.88L37.99 7.88Q38.75 7.88 39.20 7.53Q39.64 7.18 39.64 6.59Q39.64 6.00 39.20 5.65Q38.75 5.30 37.99 5.30L37.99 5.30Q37.64 5.30 37.28 5.37Q36.93 5.43 36.56 5.58L36.56 5.58Z"></path></svg>