<svg height="16.296875" width="39.07421875" xmlns="http://www.w3.org/2000/svg" ><path d="M2.54 11.85L2.54 11.85L2.54 15.91L1.27 15.91L1.27 5.34L2.54 5.34L2.54 6.50Q2.93 5.82 3.54 5.49Q4.14 5.15 4.98 5.15L4.98 5.15Q6.38 5.15 7.25 6.26Q8.12 7.37 8.12 9.17L8.12 9.17Q8.12 10.98 7.25 12.09Q6.38 13.19 4.98 13.19L4.98 13.19Q4.14 13.19 3.54 12.86Q2.93 12.53 2.54 11.85ZM6.82 9.17L6.82 9.17Q6.82 7.79 6.24 7.00Q5.67 6.21 4.68 6.21L4.68 6.21Q3.68 6.21 3.11 7.00Q2.54 7.79 2.54 9.17L2.54 9.17Q2.54 10.56 3.11 11.35Q3.68 12.14 4.68 12.14L4.68 12.14Q5.67 12.14 6.24 11.35Q6.82 10.56 6.82 9.17ZM13.73 5.84L13.73 5.84L13.73 8.43L12.93 8.43L12.93 5.87Q12.93 5.26 12.67 4.95Q12.40 4.65 11.87 4.65L11.87 4.65Q11.22 4.65 10.86 5.01Q10.49 5.38 10.49 6.01L10.49 6.01L10.49 8.43L9.69 8.43L9.69 2.47L10.49 2.47L10.49 4.81Q10.77 4.42 11.15 4.23Q11.54 4.04 12.04 4.04L12.04 4.04Q12.87 4.04 13.30 4.50Q13.73 4.96 13.73 5.84ZM15.42 6.81L15.42 5.65Q15.94 5.40 16.51 5.28Q17.07 5.15 17.71 5.15L17.71 5.15Q19.43 5.15 20.45 6.24Q21.47 7.33 21.47 9.17L21.47 9.17Q21.47 11.05 20.44 12.12Q19.41 13.19 17.62 13.19L17.62 13.19Q17.04 13.19 16.49 13.07Q15.93 12.95 15.42 12.71L15.42 12.71L15.42 11.54Q15.95 11.83 16.48 11.98Q17.02 12.13 17.57 12.13L17.57 12.13Q18.79 12.13 19.47 11.35Q20.15 10.58 20.15 9.17L20.15 9.17Q20.15 7.77 19.47 7.00Q18.79 6.22 17.57 6.22L17.57 6.22Q17.02 6.22 16.48 6.37Q15.95 6.51 15.42 6.81L15.42 6.81ZM25.82 5.34L25.82 5.34Q26.45 5.46 26.79 5.83Q27.14 6.21 27.14 6.77L27.14 6.77Q27.14 7.62 26.49 8.07Q25.84 8.53 24.63 8.53L24.63 8.53Q24.24 8.53 23.81 8.46Q23.39 8.39 22.91 8.25L22.91 8.25L22.91 7.42Q23.26 7.61 23.67 7.70Q24.08 7.79 24.53 7.79L24.53 7.79Q25.28 7.79 25.69 7.52Q26.10 7.25 26.10 6.77L26.10 6.77Q26.10 6.26 25.72 6.00Q25.34 5.74 24.60 5.74L24.60 5.74L24.01 5.74L24.01 5.00L24.66 5.00Q25.30 5.00 25.63 4.79Q25.96 4.57 25.96 4.16L25.96 4.16Q25.96 3.77 25.62 3.56Q25.28 3.35 24.63 3.35L24.63 3.35Q24.36 3.35 24.01 3.41Q23.66 3.47 23.11 3.63L23.11 3.63L23.11 2.84Q23.60 2.73 24.04 2.67Q24.48 2.60 24.86 2.60L24.86 2.60Q25.84 2.60 26.42 3.01Q27.00 3.41 27.00 4.09L27.00 4.09Q27.00 4.56 26.69 4.89Q26.38 5.22 25.82 5.34ZM31.43 5.34L31.43 5.34Q32.06 5.46 32.41 5.83Q32.75 6.21 32.75 6.77L32.75 6.77Q32.75 7.62 32.10 8.07Q31.45 8.53 30.24 8.53L30.24 8.53Q29.85 8.53 29.43 8.46Q29.00 8.39 28.52 8.25L28.52 8.25L28.52 7.42Q28.88 7.61 29.28 7.70Q29.69 7.79 30.15 7.79L30.15 7.79Q30.89 7.79 31.30 7.52Q31.71 7.25 31.71 6.77L31.71 6.77Q31.71 6.26 31.33 6.00Q30.95 5.74 30.21 5.74L30.21 5.74L29.63 5.74L29.63 5.00L30.27 5.00Q30.91 5.00 31.24 4.79Q31.58 4.57 31.58 4.16L31.58 4.16Q31.58 3.77 31.23 3.56Q30.89 3.35 30.24 3.35L30.24 3.35Q29.97 3.35 29.62 3.41Q29.27 3.47 28.72 3.63L28.72 3.63L28.72 2.84Q29.22 2.73 29.65 2.67Q30.09 2.60 30.47 2.60L30.47 2.60Q31.45 2.60 32.03 3.01Q32.61 3.41 32.61 4.09L32.61 4.09Q32.61 4.56 32.30 4.89Q31.99 5.22 31.43 5.34ZM36.72 6.41L36.72 3.55L34.61 6.41L36.72 6.41ZM33.89 6.33L36.57 2.72L37.71 2.72L37.71 6.41L38.63 6.41L38.63 7.16L37.71 7.16L37.71 8.43L36.72 8.43L36.72 7.16L33.89 7.16L33.89 6.33Z"></path></svg>