<svg height="16.296875" width="33.4619140625" xmlns="http://www.w3.org/2000/svg" ><path d="M2.54 11.85L2.54 11.85L2.54 15.91L1.27 15.91L1.27 5.34L2.54 5.34L2.54 6.50Q2.93 5.82 3.54 5.49Q4.14 5.15 4.98 5.15L4.98 5.15Q6.38 5.15 7.25 6.26Q8.12 7.37 8.12 9.17L8.12 9.17Q8.12 10.98 7.25 12.09Q6.38 13.19 4.98 13.19L4.98 13.19Q4.14 13.19 3.54 12.86Q2.93 12.53 2.54 11.85ZM6.82 9.17L6.82 9.17Q6.82 7.79 6.24 7.00Q5.67 6.21 4.68 6.21L4.68 6.21Q3.68 6.21 3.11 7.00Q2.54 7.79 2.54 9.17L2.54 9.17Q2.54 10.56 3.11 11.35Q3.68 12.14 4.68 12.14L4.68 12.14Q5.67 12.14 6.24 11.35Q6.82 10.56 6.82 9.17ZM13.73 5.84L13.73 5.84L13.73 8.43L12.93 8.43L12.93 5.87Q12.93 5.26 12.67 4.95Q12.40 4.65 11.87 4.65L11.87 4.65Q11.22 4.65 10.86 5.01Q10.49 5.38 10.49 6.01L10.49 6.01L10.49 8.43L9.69 8.43L9.69 2.47L10.49 2.47L10.49 4.81Q10.77 4.42 11.15 4.23Q11.54 4.04 12.04 4.04L12.04 4.04Q12.87 4.04 13.30 4.50Q13.73 4.96 13.73 5.84ZM15.42 6.81L15.42 5.65Q15.94 5.40 16.51 5.28Q17.07 5.15 17.71 5.15L17.71 5.15Q19.43 5.15 20.45 6.24Q21.47 7.33 21.47 9.17L21.47 9.17Q21.47 11.05 20.44 12.12Q19.41 13.19 17.62 13.19L17.62 13.19Q17.04 13.19 16.49 13.07Q15.93 12.95 15.42 12.71L15.42 12.71L15.42 11.54Q15.95 11.83 16.48 11.98Q17.02 12.13 17.57 12.13L17.57 12.13Q18.79 12.13 19.47 11.35Q20.15 10.58 20.15 9.17L20.15 9.17Q20.15 7.77 19.47 7.00Q18.79 6.22 17.57 6.22L17.57 6.22Q17.02 6.22 16.48 6.37Q15.95 6.51 15.42 6.81L15.42 6.81ZM23.21 5.58L23.21 2.72L26.69 2.72L26.69 3.37L24.02 3.37L24.02 4.76Q24.21 4.70 24.41 4.68L24.41 4.68Q24.60 4.65 24.79 4.65L24.79 4.65Q25.89 4.65 26.54 5.17L26.54 5.17Q27.18 5.69 27.18 6.59L27.18 6.59Q27.18 7.51 26.52 8.03L26.52 8.03Q25.86 8.53 24.66 8.53L24.66 8.53Q24.25 8.53 23.82 8.47Q23.39 8.41 22.93 8.29L22.93 8.29L22.93 7.51Q23.32 7.70 23.75 7.79L23.75 7.79Q24.17 7.88 24.64 7.88L24.64 7.88Q25.40 7.88 25.85 7.53Q26.29 7.18 26.29 6.59Q26.29 6.00 25.85 5.65Q25.40 5.30 24.64 5.30L24.64 5.30Q24.29 5.30 23.93 5.37Q23.58 5.43 23.21 5.58L23.21 5.58ZM31.43 5.34L31.43 5.34Q32.06 5.46 32.41 5.83Q32.75 6.21 32.75 6.77L32.75 6.77Q32.75 7.62 32.10 8.07Q31.45 8.53 30.24 8.53L30.24 8.53Q29.85 8.53 29.43 8.46Q29.00 8.39 28.52 8.25L28.52 8.25L28.52 7.42Q28.88 7.61 29.28 7.70Q29.69 7.79 30.15 7.79L30.15 7.79Q30.89 7.79 31.30 7.52Q31.71 7.25 31.71 6.77L31.71 6.77Q31.71 6.26 31.33 6.00Q30.95 5.74 30.21 5.74L30.21 5.74L29.63 5.74L29.63 5.00L30.27 5.00Q30.91 5.00 31.24 4.79Q31.58 4.57 31.58 4.16L31.58 4.16Q31.58 3.77 31.23 3.56Q30.89 3.35 30.24 3.35L30.24 3.35Q29.97 3.35 29.62 3.41Q29.27 3.47 28.72 3.63L28.72 3.63L28.72 2.84Q29.22 2.73 29.65 2.67Q30.09 2.60 30.47 2.60L30.47 2.60Q31.45 2.60 32.03 3.01Q32.61 3.41 32.61 4.09L32.61 4.09Q32.61 4.56 32.30 4.89Q31.99 5.22 31.43 5.34Z"></path></svg>