<svg height="16.296875" width="32.6416015625" xmlns="http://www.w3.org/2000/svg" ><path d="M2.54 11.85L2.54 11.85L2.54 15.91L1.27 15.91L1.27 5.34L2.54 5.34L2.54 6.50Q2.93 5.82 3.54 5.49Q4.14 5.15 4.98 5.15L4.98 5.15Q6.38 5.15 7.25 6.26Q8.12 7.37 8.12 9.17L8.12 9.17Q8.12 10.98 7.25 12.09Q6.38 13.19 4.98 13.19L4.98 13.19Q4.14 13.19 3.54 12.86Q2.93 12.53 2.54 11.85ZM6.82 9.17L6.82 9.17Q6.82 7.79 6.24 7.00Q5.67 6.21 4.68 6.21L4.68 6.21Q3.68 6.21 3.11 7.00Q2.54 7.79 2.54 9.17L2.54 9.17Q2.54 10.56 3.11 11.35Q3.68 12.14 4.68 12.14L4.68 12.14Q5.67 12.14 6.24 11.35Q6.82 10.56 6.82 9.17ZM13.73 5.84L13.73 5.84L13.73 8.43L12.93 8.43L12.93 5.87Q12.93 5.26 12.67 4.95Q12.40 4.65 11.87 4.65L11.87 4.65Q11.22 4.65 10.86 5.01Q10.49 5.38 10.49 6.01L10.49 6.01L10.49 8.43L9.69 8.43L9.69 2.47L10.49 2.47L10.49 4.81Q10.77 4.42 11.15 4.23Q11.54 4.04 12.04 4.04L12.04 4.04Q12.87 4.04 13.30 4.50Q13.73 4.96 13.73 5.84ZM15.82 13.00L15.82 5.34L20.66 5.34L20.66 6.35L17.09 6.35L17.09 8.41L20.50 8.41L20.50 9.42L17.09 9.42L17.09 11.99L20.75 11.99L20.75 13.00L15.82 13.00ZM22.39 5.58L22.39 2.72L25.87 2.72L25.87 3.37L23.20 3.37L23.20 4.76Q23.39 4.70 23.59 4.68L23.59 4.68Q23.78 4.65 23.97 4.65L23.97 4.65Q25.07 4.65 25.72 5.17L25.72 5.17Q26.36 5.69 26.36 6.59L26.36 6.59Q26.36 7.51 25.70 8.03L25.70 8.03Q25.04 8.53 23.84 8.53L23.84 8.53Q23.43 8.53 23.00 8.47Q22.57 8.41 22.11 8.29L22.11 8.29L22.11 7.51Q22.50 7.70 22.93 7.79L22.93 7.79Q23.35 7.88 23.82 7.88L23.82 7.88Q24.58 7.88 25.03 7.53Q25.47 7.18 25.47 6.59Q25.47 6.00 25.03 5.65Q24.58 5.30 23.82 5.30L23.82 5.30Q23.47 5.30 23.11 5.37Q22.76 5.43 22.39 5.58L22.39 5.58ZM30.61 5.34L30.61 5.34Q31.24 5.46 31.59 5.83Q31.93 6.21 31.93 6.77L31.93 6.77Q31.93 7.62 31.28 8.07Q30.63 8.53 29.42 8.53L29.42 8.53Q29.03 8.53 28.60 8.46Q28.18 8.39 27.70 8.25L27.70 8.25L27.70 7.42Q28.05 7.61 28.46 7.70Q28.87 7.79 29.33 7.79L29.33 7.79Q30.07 7.79 30.48 7.52Q30.89 7.25 30.89 6.77L30.89 6.77Q30.89 6.26 30.51 6.00Q30.13 5.74 29.39 5.74L29.39 5.74L28.81 5.74L28.81 5.00L29.45 5.00Q30.09 5.00 30.42 4.79Q30.75 4.57 30.75 4.16L30.75 4.16Q30.75 3.77 30.41 3.56Q30.07 3.35 29.42 3.35L29.42 3.35Q29.15 3.35 28.80 3.41Q28.45 3.47 27.90 3.63L27.90 3.63L27.90 2.84Q28.40 2.73 28.83 2.67Q29.27 2.60 29.65 2.60L29.65 2.60Q30.63 2.60 31.21 3.01Q31.79 3.41 31.79 4.09L31.79 4.09Q31.79 4.56 31.48 4.89Q31.17 5.22 30.61 5.34Z"></path></svg>