<svg height="16.296875" width="38.25390625" xmlns="http://www.w3.org/2000/svg" ><path d="M2.54 11.85L2.54 11.85L2.54 15.91L1.27 15.91L1.27 5.34L2.54 5.34L2.54 6.50Q2.93 5.82 3.54 5.49Q4.14 5.15 4.98 5.15L4.98 5.15Q6.38 5.15 7.25 6.26Q8.12 7.37 8.12 9.17L8.12 9.17Q8.12 10.98 7.25 12.09Q6.38 13.19 4.98 13.19L4.98 13.19Q4.14 13.19 3.54 12.86Q2.93 12.53 2.54 11.85ZM6.82 9.17L6.82 9.17Q6.82 7.79 6.24 7.00Q5.67 6.21 4.68 6.21L4.68 6.21Q3.68 6.21 3.11 7.00Q2.54 7.79 2.54 9.17L2.54 9.17Q2.54 10.56 3.11 11.35Q3.68 12.14 4.68 12.14L4.68 12.14Q5.67 12.14 6.24 11.35Q6.82 10.56 6.82 9.17ZM13.73 5.84L13.73 5.84L13.73 8.43L12.93 8.43L12.93 5.87Q12.93 5.26 12.67 4.95Q12.40 4.65 11.87 4.65L11.87 4.65Q11.22 4.65 10.86 5.01Q10.49 5.38 10.49 6.01L10.49 6.01L10.49 8.43L9.69 8.43L9.69 2.47L10.49 2.47L10.49 4.81Q10.77 4.42 11.15 4.23Q11.54 4.04 12.04 4.04L12.04 4.04Q12.87 4.04 13.30 4.50Q13.73 4.96 13.73 5.84ZM15.82 13.00L15.82 5.34L20.66 5.34L20.66 6.35L17.09 6.35L17.09 8.41L20.50 8.41L20.50 9.42L17.09 9.42L17.09 11.99L20.75 11.99L20.75 13.00L15.82 13.00ZM25.00 5.34L25.00 5.34Q25.63 5.46 25.97 5.83Q26.32 6.21 26.32 6.77L26.32 6.77Q26.32 7.62 25.67 8.07Q25.02 8.53 23.81 8.53L23.81 8.53Q23.42 8.53 22.99 8.46Q22.57 8.39 22.09 8.25L22.09 8.25L22.09 7.42Q22.44 7.61 22.85 7.70Q23.26 7.79 23.71 7.79L23.71 7.79Q24.46 7.79 24.87 7.52Q25.28 7.25 25.28 6.77L25.28 6.77Q25.28 6.26 24.90 6.00Q24.52 5.74 23.78 5.74L23.78 5.74L23.19 5.74L23.19 5.00L23.84 5.00Q24.48 5.00 24.81 4.79Q25.14 4.57 25.14 4.16L25.14 4.16Q25.14 3.77 24.80 3.56Q24.46 3.35 23.81 3.35L23.81 3.35Q23.54 3.35 23.19 3.41Q22.84 3.47 22.29 3.63L22.29 3.63L22.29 2.84Q22.78 2.73 23.22 2.67Q23.66 2.60 24.04 2.60L24.04 2.60Q25.02 2.60 25.60 3.01Q26.17 3.41 26.17 4.09L26.17 4.09Q26.17 4.56 25.87 4.89Q25.56 5.22 25.00 5.34ZM30.61 5.34L30.61 5.34Q31.24 5.46 31.59 5.83Q31.93 6.21 31.93 6.77L31.93 6.77Q31.93 7.62 31.28 8.07Q30.63 8.53 29.42 8.53L29.42 8.53Q29.03 8.53 28.60 8.46Q28.18 8.39 27.70 8.25L27.70 8.25L27.70 7.42Q28.05 7.61 28.46 7.70Q28.87 7.79 29.33 7.79L29.33 7.79Q30.07 7.79 30.48 7.52Q30.89 7.25 30.89 6.77L30.89 6.77Q30.89 6.26 30.51 6.00Q30.13 5.74 29.39 5.74L29.39 5.74L28.81 5.74L28.81 5.00L29.45 5.00Q30.09 5.00 30.42 4.79Q30.75 4.57 30.75 4.16L30.75 4.16Q30.75 3.77 30.41 3.56Q30.07 3.35 29.42 3.35L29.42 3.35Q29.15 3.35 28.80 3.41Q28.45 3.47 27.90 3.63L27.90 3.63L27.90 2.84Q28.40 2.73 28.83 2.67Q29.27 2.60 29.65 2.60L29.65 2.60Q30.63 2.60 31.21 3.01Q31.79 3.41 31.79 4.09L31.79 4.09Q31.79 4.56 31.48 4.89Q31.17 5.22 30.61 5.34ZM35.90 6.41L35.90 3.55L33.79 6.41L35.90 6.41ZM33.07 6.33L35.75 2.72L36.89 2.72L36.89 6.41L37.81 6.41L37.81 7.16L36.89 7.16L36.89 8.43L35.90 8.43L35.90 7.16L33.07 7.16L33.07 6.33Z"></path></svg>