<svg height="16.296875" width="43.2578125" xmlns="http://www.w3.org/2000/svg" ><path d="M2.54 11.85L2.54 11.85L2.54 15.91L1.27 15.91L1.27 5.34L2.54 5.34L2.54 6.50Q2.93 5.82 3.54 5.49Q4.14 5.15 4.98 5.15L4.98 5.15Q6.38 5.15 7.25 6.26Q8.12 7.37 8.12 9.17L8.12 9.17Q8.12 10.98 7.25 12.09Q6.38 13.19 4.98 13.19L4.98 13.19Q4.14 13.19 3.54 12.86Q2.93 12.53 2.54 11.85ZM6.82 9.17L6.82 9.17Q6.82 7.79 6.24 7.00Q5.67 6.21 4.68 6.21L4.68 6.21Q3.68 6.21 3.11 7.00Q2.54 7.79 2.54 9.17L2.54 9.17Q2.54 10.56 3.11 11.35Q3.68 12.14 4.68 12.14L4.68 12.14Q5.67 12.14 6.24 11.35Q6.82 10.56 6.82 9.17ZM13.73 5.84L13.73 5.84L13.73 8.43L12.93 8.43L12.93 5.87Q12.93 5.26 12.67 4.95Q12.40 4.65 11.87 4.65L11.87 4.65Q11.22 4.65 10.86 5.01Q10.49 5.38 10.49 6.01L10.49 6.01L10.49 8.43L9.69 8.43L9.69 2.47L10.49 2.47L10.49 4.81Q10.77 4.42 11.15 4.23Q11.54 4.04 12.04 4.04L12.04 4.04Q12.87 4.04 13.30 4.50Q13.73 4.96 13.73 5.84ZM15.32 9.50L15.32 9.50L15.32 8.88L21.10 8.88Q21.02 7.58 20.32 6.90Q19.62 6.22 18.37 6.22L18.37 6.22Q17.64 6.22 16.96 6.40Q16.28 6.58 15.61 6.93L15.61 6.93L15.61 5.74Q16.29 5.46 17.00 5.30Q17.71 5.15 18.44 5.15L18.44 5.15Q20.28 5.15 21.35 6.22Q22.42 7.29 22.42 9.11L22.42 9.11Q22.42 10.99 21.40 12.09Q20.38 13.19 18.66 13.19L18.66 13.19Q17.12 13.19 16.22 12.20Q15.32 11.20 15.32 9.50ZM21.06 9.86L16.58 9.86Q16.59 10.90 17.15 11.51Q17.72 12.13 18.65 12.13L18.65 12.13Q19.70 12.13 20.33 11.53Q20.97 10.94 21.06 9.86L21.06 9.86ZM30.84 8.37L30.84 8.37L30.84 13.00L29.59 13.00L29.59 8.42Q29.59 7.33 29.16 6.79Q28.74 6.25 27.89 6.25L27.89 6.25Q26.87 6.25 26.28 6.90Q25.70 7.55 25.70 8.67L25.70 8.67L25.70 13.00L24.43 13.00L24.43 5.34L25.70 5.34L25.70 6.53Q26.15 5.84 26.76 5.50Q27.37 5.15 28.17 5.15L28.17 5.15Q29.49 5.15 30.17 5.97Q30.84 6.79 30.84 8.37ZM33.00 5.58L33.00 2.72L36.49 2.72L36.49 3.37L33.82 3.37L33.82 4.76Q34.01 4.70 34.21 4.68L34.21 4.68Q34.40 4.65 34.59 4.65L34.59 4.65Q35.69 4.65 36.33 5.17L36.33 5.17Q36.98 5.69 36.98 6.59L36.98 6.59Q36.98 7.51 36.31 8.03L36.31 8.03Q35.66 8.53 34.45 8.53L34.45 8.53Q34.04 8.53 33.61 8.47Q33.18 8.41 32.73 8.29L32.73 8.29L32.73 7.51Q33.12 7.70 33.54 7.79L33.54 7.79Q33.97 7.88 34.44 7.88L34.44 7.88Q35.20 7.88 35.64 7.53Q36.09 7.18 36.09 6.59Q36.09 6.00 35.64 5.65Q35.20 5.30 34.44 5.30L34.44 5.30Q34.08 5.30 33.73 5.37Q33.37 5.43 33.00 5.58L33.00 5.58ZM41.23 5.34L41.23 5.34Q41.86 5.46 42.20 5.83Q42.55 6.21 42.55 6.77L42.55 6.77Q42.55 7.62 41.90 8.07Q41.25 8.53 40.04 8.53L40.04 8.53Q39.65 8.53 39.22 8.46Q38.79 8.39 38.32 8.25L38.32 8.25L38.32 7.42Q38.67 7.61 39.08 7.70Q39.48 7.79 39.94 7.79L39.94 7.79Q40.69 7.79 41.10 7.52Q41.51 7.25 41.51 6.77L41.51 6.77Q41.51 6.26 41.13 6.00Q40.75 5.74 40.01 5.74L40.01 5.74L39.42 5.74L39.42 5.00L40.07 5.00Q40.71 5.00 41.04 4.79Q41.37 4.57 41.37 4.16L41.37 4.16Q41.37 3.77 41.03 3.56Q40.69 3.35 40.04 3.35L40.04 3.35Q39.76 3.35 39.42 3.41Q39.07 3.47 38.51 3.63L38.51 3.63L38.51 2.84Q39.01 2.73 39.45 2.67Q39.89 2.60 40.26 2.60L40.26 2.60Q41.25 2.60 41.83 3.01Q42.40 3.41 42.40 4.09L42.40 4.09Q42.40 4.56 42.10 4.89Q41.79 5.22 41.23 5.34Z"></path></svg>