<svg height="16.296875" width="41.5283203125" xmlns="http://www.w3.org/2000/svg" ><path d="M2.54 11.85L2.54 11.85L2.54 15.91L1.27 15.91L1.27 5.34L2.54 5.34L2.54 6.50Q2.93 5.82 3.54 5.49Q4.14 5.15 4.98 5.15L4.98 5.15Q6.38 5.15 7.25 6.26Q8.12 7.37 8.12 9.17L8.12 9.17Q8.12 10.98 7.25 12.09Q6.38 13.19 4.98 13.19L4.98 13.19Q4.14 13.19 3.54 12.86Q2.93 12.53 2.54 11.85ZM6.82 9.17L6.82 9.17Q6.82 7.79 6.24 7.00Q5.67 6.21 4.68 6.21L4.68 6.21Q3.68 6.21 3.11 7.00Q2.54 7.79 2.54 9.17L2.54 9.17Q2.54 10.56 3.11 11.35Q3.68 12.14 4.68 12.14L4.68 12.14Q5.67 12.14 6.24 11.35Q6.82 10.56 6.82 9.17ZM13.73 5.84L13.73 5.84L13.73 8.43L12.93 8.43L12.93 5.87Q12.93 5.26 12.67 4.95Q12.40 4.65 11.87 4.65L11.87 4.65Q11.22 4.65 10.86 5.01Q10.49 5.38 10.49 6.01L10.49 6.01L10.49 8.43L9.69 8.43L9.69 2.47L10.49 2.47L10.49 4.81Q10.77 4.42 11.15 4.23Q11.54 4.04 12.04 4.04L12.04 4.04Q12.87 4.04 13.30 4.50Q13.73 4.96 13.73 5.84ZM15.32 9.50L15.32 9.50L15.32 8.88L21.10 8.88Q21.02 7.58 20.32 6.90Q19.62 6.22 18.37 6.22L18.37 6.22Q17.64 6.22 16.96 6.40Q16.28 6.58 15.61 6.93L15.61 6.93L15.61 5.74Q16.29 5.46 17.00 5.30Q17.71 5.15 18.44 5.15L18.44 5.15Q20.28 5.15 21.35 6.22Q22.42 7.29 22.42 9.11L22.42 9.11Q22.42 10.99 21.40 12.09Q20.38 13.19 18.66 13.19L18.66 13.19Q17.12 13.19 16.22 12.20Q15.32 11.20 15.32 9.50ZM21.06 9.86L16.58 9.86Q16.59 10.90 17.15 11.51Q17.72 12.13 18.65 12.13L18.65 12.13Q19.70 12.13 20.33 11.53Q20.97 10.94 21.06 9.86L21.06 9.86ZM25.49 13.00L25.48 7.54L25.92 7.54Q27.23 7.54 27.82 6.76L27.82 6.76Q28.21 6.24 28.21 5.57L28.21 5.57Q28.21 4.66 27.82 4.22L27.82 4.22Q27.14 3.44 25.92 3.44L25.92 3.44Q25.37 3.44 24.83 3.59L24.83 3.59Q24.29 3.73 23.76 4.03L23.76 4.03L23.76 2.85Q24.28 2.61 24.83 2.50L24.83 2.50Q25.39 2.37 25.97 2.37L25.97 2.37Q27.85 2.37 28.79 3.45L28.79 3.45Q29.54 4.30 29.54 5.57L29.54 5.57Q29.54 6.73 28.80 7.52L28.80 7.52Q28.03 8.33 26.87 8.54L26.87 8.54L26.87 13.00L25.49 13.00ZM31.27 5.58L31.27 2.72L34.76 2.72L34.76 3.37L32.09 3.37L32.09 4.76Q32.28 4.70 32.48 4.68L32.48 4.68Q32.67 4.65 32.86 4.65L32.86 4.65Q33.96 4.65 34.60 5.17L34.60 5.17Q35.25 5.69 35.25 6.59L35.25 6.59Q35.25 7.51 34.58 8.03L34.58 8.03Q33.93 8.53 32.72 8.53L32.72 8.53Q32.31 8.53 31.88 8.47Q31.45 8.41 31.00 8.29L31.00 8.29L31.00 7.51Q31.39 7.70 31.81 7.79L31.81 7.79Q32.24 7.88 32.71 7.88L32.71 7.88Q33.47 7.88 33.91 7.53Q34.36 7.18 34.36 6.59Q34.36 6.00 33.91 5.65Q33.47 5.30 32.71 5.30L32.71 5.30Q32.35 5.30 32.00 5.37Q31.64 5.43 31.27 5.58L31.27 5.58ZM36.89 5.58L36.89 2.72L40.37 2.72L40.37 3.37L37.70 3.37L37.70 4.76Q37.89 4.70 38.09 4.68L38.09 4.68Q38.28 4.65 38.47 4.65L38.47 4.65Q39.57 4.65 40.22 5.17L40.22 5.17Q40.86 5.69 40.86 6.59L40.86 6.59Q40.86 7.51 40.20 8.03L40.20 8.03Q39.54 8.53 38.34 8.53L38.34 8.53Q37.93 8.53 37.50 8.47Q37.06 8.41 36.61 8.29L36.61 8.29L36.61 7.51Q37.00 7.70 37.43 7.79L37.43 7.79Q37.85 7.88 38.32 7.88L38.32 7.88Q39.08 7.88 39.53 7.53Q39.97 7.18 39.97 6.59Q39.97 6.00 39.53 5.65Q39.08 5.30 38.32 5.30L38.32 5.30Q37.97 5.30 37.61 5.37Q37.26 5.43 36.89 5.58L36.89 5.58Z"></path></svg>