<svg height="16.296875" width="34.111328125" xmlns="http://www.w3.org/2000/svg" ><path d="M2.54 11.85L2.54 11.85L2.54 15.91L1.27 15.91L1.27 5.34L2.54 5.34L2.54 6.50Q2.93 5.82 3.54 5.49Q4.14 5.15 4.98 5.15L4.98 5.15Q6.38 5.15 7.25 6.26Q8.12 7.37 8.12 9.17L8.12 9.17Q8.12 10.98 7.25 12.09Q6.38 13.19 4.98 13.19L4.98 13.19Q4.14 13.19 3.54 12.86Q2.93 12.53 2.54 11.85ZM6.82 9.17L6.82 9.17Q6.82 7.79 6.24 7.00Q5.67 6.21 4.68 6.21L4.68 6.21Q3.68 6.21 3.11 7.00Q2.54 7.79 2.54 9.17L2.54 9.17Q2.54 10.56 3.11 11.35Q3.68 12.14 4.68 12.14L4.68 12.14Q5.67 12.14 6.24 11.35Q6.82 10.56 6.82 9.17ZM13.73 5.84L13.73 5.84L13.73 8.43L12.93 8.43L12.93 5.87Q12.93 5.26 12.67 4.95Q12.40 4.65 11.87 4.65L11.87 4.65Q11.22 4.65 10.86 5.01Q10.49 5.38 10.49 6.01L10.49 6.01L10.49 8.43L9.69 8.43L9.69 2.47L10.49 2.47L10.49 4.81Q10.77 4.42 11.15 4.23Q11.54 4.04 12.04 4.04L12.04 4.04Q12.87 4.04 13.30 4.50Q13.73 4.96 13.73 5.84ZM16.69 5.34L18.72 8.07L20.75 5.34L22.23 5.34L19.51 8.99Q20.00 9.66 20.30 10.18L20.30 10.18Q20.77 11.00 20.77 11.42L20.77 11.42Q20.77 12.31 20.25 12.75Q19.74 13.19 18.72 13.19L18.72 13.19Q17.69 13.19 17.18 12.75Q16.67 12.31 16.67 11.42L16.67 11.42Q16.67 11.00 17.14 10.18L17.14 10.18Q17.44 9.66 17.92 8.99L17.92 8.99L15.20 5.34L16.69 5.34ZM18.72 12.13L18.72 12.13Q19.17 12.13 19.39 11.94L19.39 11.94Q19.58 11.78 19.58 11.47L19.58 11.47Q19.58 11.25 19.31 10.81L19.31 10.81Q19.10 10.47 18.72 9.99L18.72 9.99Q18.33 10.47 18.12 10.81L18.12 10.81Q17.86 11.25 17.86 11.47L17.86 11.47Q17.86 11.78 18.05 11.94L18.05 11.94Q18.26 12.13 18.72 12.13ZM23.86 5.58L23.86 2.72L27.34 2.72L27.34 3.37L24.67 3.37L24.67 4.76Q24.86 4.70 25.06 4.68L25.06 4.68Q25.25 4.65 25.44 4.65L25.44 4.65Q26.54 4.65 27.19 5.17L27.19 5.17Q27.83 5.69 27.83 6.59L27.83 6.59Q27.83 7.51 27.17 8.03L27.17 8.03Q26.51 8.53 25.31 8.53L25.31 8.53Q24.90 8.53 24.47 8.47Q24.04 8.41 23.58 8.29L23.58 8.29L23.58 7.51Q23.97 7.70 24.40 7.79L24.40 7.79Q24.82 7.88 25.29 7.88L25.29 7.88Q26.05 7.88 26.50 7.53Q26.94 7.18 26.94 6.59Q26.94 6.00 26.50 5.65Q26.05 5.30 25.29 5.30L25.29 5.30Q24.94 5.30 24.58 5.37Q24.23 5.43 23.86 5.58L23.86 5.58ZM32.08 5.34L32.08 5.34Q32.71 5.46 33.06 5.83Q33.40 6.21 33.40 6.77L33.40 6.77Q33.40 7.62 32.75 8.07Q32.10 8.53 30.89 8.53L30.89 8.53Q30.50 8.53 30.07 8.46Q29.65 8.39 29.17 8.25L29.17 8.25L29.17 7.42Q29.52 7.61 29.93 7.70Q30.34 7.79 30.80 7.79L30.80 7.79Q31.54 7.79 31.95 7.52Q32.36 7.25 32.36 6.77L32.36 6.77Q32.36 6.26 31.98 6.00Q31.60 5.74 30.86 5.74L30.86 5.74L30.28 5.74L30.28 5.00L30.92 5.00Q31.56 5.00 31.89 4.79Q32.22 4.57 32.22 4.16L32.22 4.16Q32.22 3.77 31.88 3.56Q31.54 3.35 30.89 3.35L30.89 3.35Q30.62 3.35 30.27 3.41Q29.92 3.47 29.37 3.63L29.37 3.63L29.37 2.84Q29.87 2.73 30.30 2.67Q30.74 2.60 31.12 2.60L31.12 2.60Q32.10 2.60 32.68 3.01Q33.26 3.41 33.26 4.09L33.26 4.09Q33.26 4.56 32.95 4.89Q32.64 5.22 32.08 5.34Z"></path></svg>