<svg height="16.296875" width="29.6611328125" xmlns="http://www.w3.org/2000/svg" ><path d="M2.54 11.85L2.54 11.85L2.54 15.91L1.27 15.91L1.27 5.34L2.54 5.34L2.54 6.50Q2.93 5.82 3.54 5.49Q4.14 5.15 4.98 5.15L4.98 5.15Q6.38 5.15 7.25 6.26Q8.12 7.37 8.12 9.17L8.12 9.17Q8.12 10.98 7.25 12.09Q6.38 13.19 4.98 13.19L4.98 13.19Q4.14 13.19 3.54 12.86Q2.93 12.53 2.54 11.85ZM6.82 9.17L6.82 9.17Q6.82 7.79 6.24 7.00Q5.67 6.21 4.68 6.21L4.68 6.21Q3.68 6.21 3.11 7.00Q2.54 7.79 2.54 9.17L2.54 9.17Q2.54 10.56 3.11 11.35Q3.68 12.14 4.68 12.14L4.68 12.14Q5.67 12.14 6.24 11.35Q6.82 10.56 6.82 9.17ZM13.73 5.84L13.73 5.84L13.73 8.43L12.93 8.43L12.93 5.87Q12.93 5.26 12.67 4.95Q12.40 4.65 11.87 4.65L11.87 4.65Q11.22 4.65 10.86 5.01Q10.49 5.38 10.49 6.01L10.49 6.01L10.49 8.43L9.69 8.43L9.69 2.47L10.49 2.47L10.49 4.81Q10.77 4.42 11.15 4.23Q11.54 4.04 12.04 4.04L12.04 4.04Q12.87 4.04 13.30 4.50Q13.73 4.96 13.73 5.84ZM15.87 13.00L15.87 5.34L17.12 5.34L17.12 13.00L15.87 13.00ZM15.87 3.95L15.87 2.36L17.12 2.36L17.12 3.95L15.87 3.95ZM19.41 5.58L19.41 2.72L22.89 2.72L22.89 3.37L20.22 3.37L20.22 4.76Q20.41 4.70 20.61 4.68L20.61 4.68Q20.80 4.65 20.99 4.65L20.99 4.65Q22.09 4.65 22.74 5.17L22.74 5.17Q23.38 5.69 23.38 6.59L23.38 6.59Q23.38 7.51 22.72 8.03L22.72 8.03Q22.06 8.53 20.86 8.53L20.86 8.53Q20.45 8.53 20.02 8.47Q19.58 8.41 19.13 8.29L19.13 8.29L19.13 7.51Q19.52 7.70 19.95 7.79L19.95 7.79Q20.37 7.88 20.84 7.88L20.84 7.88Q21.60 7.88 22.05 7.53Q22.49 7.18 22.49 6.59Q22.49 6.00 22.05 5.65Q21.60 5.30 20.84 5.30L20.84 5.30Q20.49 5.30 20.13 5.37Q19.78 5.43 19.41 5.58L19.41 5.58ZM27.63 5.34L27.63 5.34Q28.26 5.46 28.60 5.83Q28.95 6.21 28.95 6.77L28.95 6.77Q28.95 7.62 28.30 8.07Q27.65 8.53 26.44 8.53L26.44 8.53Q26.05 8.53 25.62 8.46Q25.20 8.39 24.72 8.25L24.72 8.25L24.72 7.42Q25.07 7.61 25.48 7.70Q25.89 7.79 26.35 7.79L26.35 7.79Q27.09 7.79 27.50 7.52Q27.91 7.25 27.91 6.77L27.91 6.77Q27.91 6.26 27.53 6.00Q27.15 5.74 26.41 5.74L26.41 5.74L25.83 5.74L25.83 5.00L26.47 5.00Q27.11 5.00 27.44 4.79Q27.77 4.57 27.77 4.16L27.77 4.16Q27.77 3.77 27.43 3.56Q27.09 3.35 26.44 3.35L26.44 3.35Q26.17 3.35 25.82 3.41Q25.47 3.47 24.92 3.63L24.92 3.63L24.92 2.84Q25.42 2.73 25.85 2.67Q26.29 2.60 26.67 2.60L26.67 2.60Q27.65 2.60 28.23 3.01Q28.81 3.41 28.81 4.09L28.81 4.09Q28.81 4.56 28.50 4.89Q28.19 5.22 27.63 5.34Z"></path></svg>