<svg height="16.296875" width="35.2734375" xmlns="http://www.w3.org/2000/svg" ><path d="M2.54 11.85L2.54 11.85L2.54 15.91L1.27 15.91L1.27 5.34L2.54 5.34L2.54 6.50Q2.93 5.82 3.54 5.49Q4.14 5.15 4.98 5.15L4.98 5.15Q6.38 5.15 7.25 6.26Q8.12 7.37 8.12 9.17L8.12 9.17Q8.12 10.98 7.25 12.09Q6.38 13.19 4.98 13.19L4.98 13.19Q4.14 13.19 3.54 12.86Q2.93 12.53 2.54 11.85ZM6.82 9.17L6.82 9.17Q6.82 7.79 6.24 7.00Q5.67 6.21 4.68 6.21L4.68 6.21Q3.68 6.21 3.11 7.00Q2.54 7.79 2.54 9.17L2.54 9.17Q2.54 10.56 3.11 11.35Q3.68 12.14 4.68 12.14L4.68 12.14Q5.67 12.14 6.24 11.35Q6.82 10.56 6.82 9.17ZM13.73 5.84L13.73 5.84L13.73 8.43L12.93 8.43L12.93 5.87Q12.93 5.26 12.67 4.95Q12.40 4.65 11.87 4.65L11.87 4.65Q11.22 4.65 10.86 5.01Q10.49 5.38 10.49 6.01L10.49 6.01L10.49 8.43L9.69 8.43L9.69 2.47L10.49 2.47L10.49 4.81Q10.77 4.42 11.15 4.23Q11.54 4.04 12.04 4.04L12.04 4.04Q12.87 4.04 13.30 4.50Q13.73 4.96 13.73 5.84ZM15.87 13.00L15.87 5.34L17.12 5.34L17.12 13.00L15.87 13.00ZM15.87 3.95L15.87 2.36L17.12 2.36L17.12 3.95L15.87 3.95ZM22.02 5.34L22.02 5.34Q22.65 5.46 22.99 5.83Q23.34 6.21 23.34 6.77L23.34 6.77Q23.34 7.62 22.69 8.07Q22.04 8.53 20.83 8.53L20.83 8.53Q20.44 8.53 20.01 8.46Q19.58 8.39 19.11 8.25L19.11 8.25L19.11 7.42Q19.46 7.61 19.87 7.70Q20.28 7.79 20.73 7.79L20.73 7.79Q21.48 7.79 21.89 7.52Q22.30 7.25 22.30 6.77L22.30 6.77Q22.30 6.26 21.92 6.00Q21.54 5.74 20.80 5.74L20.80 5.74L20.21 5.74L20.21 5.00L20.86 5.00Q21.50 5.00 21.83 4.79Q22.16 4.57 22.16 4.16L22.16 4.16Q22.16 3.77 21.82 3.56Q21.48 3.35 20.83 3.35L20.83 3.35Q20.56 3.35 20.21 3.41Q19.86 3.47 19.30 3.63L19.30 3.63L19.30 2.84Q19.80 2.73 20.24 2.67Q20.68 2.60 21.05 2.60L21.05 2.60Q22.04 2.60 22.62 3.01Q23.19 3.41 23.19 4.09L23.19 4.09Q23.19 4.56 22.89 4.89Q22.58 5.22 22.02 5.34ZM27.63 5.34L27.63 5.34Q28.26 5.46 28.60 5.83Q28.95 6.21 28.95 6.77L28.95 6.77Q28.95 7.62 28.30 8.07Q27.65 8.53 26.44 8.53L26.44 8.53Q26.05 8.53 25.62 8.46Q25.20 8.39 24.72 8.25L24.72 8.25L24.72 7.42Q25.07 7.61 25.48 7.70Q25.89 7.79 26.35 7.79L26.35 7.79Q27.09 7.79 27.50 7.52Q27.91 7.25 27.91 6.77L27.91 6.77Q27.91 6.26 27.53 6.00Q27.15 5.74 26.41 5.74L26.41 5.74L25.83 5.74L25.83 5.00L26.47 5.00Q27.11 5.00 27.44 4.79Q27.77 4.57 27.77 4.16L27.77 4.16Q27.77 3.77 27.43 3.56Q27.09 3.35 26.44 3.35L26.44 3.35Q26.17 3.35 25.82 3.41Q25.47 3.47 24.92 3.63L24.92 3.63L24.92 2.84Q25.42 2.73 25.85 2.67Q26.29 2.60 26.67 2.60L26.67 2.60Q27.65 2.60 28.23 3.01Q28.81 3.41 28.81 4.09L28.81 4.09Q28.81 4.56 28.50 4.89Q28.19 5.22 27.63 5.34ZM32.92 6.41L32.92 3.55L30.81 6.41L32.92 6.41ZM30.09 6.33L32.77 2.72L33.91 2.72L33.91 6.41L34.83 6.41L34.83 7.16L33.91 7.16L33.91 8.43L32.92 8.43L32.92 7.16L30.09 7.16L30.09 6.33Z"></path></svg>