<svg height="16.296875" width="37.3515625" xmlns="http://www.w3.org/2000/svg" ><path d="M2.54 11.85L2.54 11.85L2.54 15.91L1.27 15.91L1.27 5.34L2.54 5.34L2.54 6.50Q2.93 5.82 3.54 5.49Q4.14 5.15 4.98 5.15L4.98 5.15Q6.38 5.15 7.25 6.26Q8.12 7.37 8.12 9.17L8.12 9.17Q8.12 10.98 7.25 12.09Q6.38 13.19 4.98 13.19L4.98 13.19Q4.14 13.19 3.54 12.86Q2.93 12.53 2.54 11.85ZM6.82 9.17L6.82 9.17Q6.82 7.79 6.24 7.00Q5.67 6.21 4.68 6.21L4.68 6.21Q3.68 6.21 3.11 7.00Q2.54 7.79 2.54 9.17L2.54 9.17Q2.54 10.56 3.11 11.35Q3.68 12.14 4.68 12.14L4.68 12.14Q5.67 12.14 6.24 11.35Q6.82 10.56 6.82 9.17ZM13.73 5.84L13.73 5.84L13.73 8.43L12.93 8.43L12.93 5.87Q12.93 5.26 12.67 4.95Q12.40 4.65 11.87 4.65L11.87 4.65Q11.22 4.65 10.86 5.01Q10.49 5.38 10.49 6.01L10.49 6.01L10.49 8.43L9.69 8.43L9.69 2.47L10.49 2.47L10.49 4.81Q10.77 4.42 11.15 4.23Q11.54 4.04 12.04 4.04L12.04 4.04Q12.87 4.04 13.30 4.50Q13.73 4.96 13.73 5.84ZM15.87 13.00L15.87 5.34L17.12 5.34L17.12 13.00L15.87 13.00ZM15.87 3.95L15.87 2.36L17.12 2.36L17.12 3.95L15.87 3.95ZM19.30 6.81L19.30 5.65Q19.83 5.40 20.40 5.28Q20.96 5.15 21.59 5.15L21.59 5.15Q23.32 5.15 24.34 6.24Q25.36 7.33 25.36 9.17L25.36 9.17Q25.36 11.05 24.33 12.12Q23.30 13.19 21.51 13.19L21.51 13.19Q20.93 13.19 20.38 13.07Q19.82 12.95 19.30 12.71L19.30 12.71L19.30 11.54Q19.84 11.83 20.37 11.98Q20.91 12.13 21.46 12.13L21.46 12.13Q22.68 12.13 23.36 11.35Q24.04 10.58 24.04 9.17L24.04 9.17Q24.04 7.77 23.36 7.00Q22.68 6.22 21.46 6.22L21.46 6.22Q20.91 6.22 20.37 6.37Q19.84 6.51 19.30 6.81L19.30 6.81ZM27.10 5.58L27.10 2.72L30.58 2.72L30.58 3.37L27.91 3.37L27.91 4.76Q28.10 4.70 28.30 4.68L28.30 4.68Q28.49 4.65 28.68 4.65L28.68 4.65Q29.78 4.65 30.43 5.17L30.43 5.17Q31.07 5.69 31.07 6.59L31.07 6.59Q31.07 7.51 30.41 8.03L30.41 8.03Q29.75 8.53 28.55 8.53L28.55 8.53Q28.14 8.53 27.71 8.47Q27.28 8.41 26.82 8.29L26.82 8.29L26.82 7.51Q27.21 7.70 27.64 7.79L27.64 7.79Q28.06 7.88 28.53 7.88L28.53 7.88Q29.29 7.88 29.74 7.53Q30.18 7.18 30.18 6.59Q30.18 6.00 29.74 5.65Q29.29 5.30 28.53 5.30L28.53 5.30Q28.18 5.30 27.82 5.37Q27.47 5.43 27.10 5.58L27.10 5.58ZM35.32 5.34L35.32 5.34Q35.95 5.46 36.30 5.83Q36.64 6.21 36.64 6.77L36.64 6.77Q36.64 7.62 35.99 8.07Q35.34 8.53 34.13 8.53L34.13 8.53Q33.74 8.53 33.31 8.46Q32.89 8.39 32.41 8.25L32.41 8.25L32.41 7.42Q32.76 7.61 33.17 7.70Q33.58 7.79 34.04 7.79L34.04 7.79Q34.78 7.79 35.19 7.52Q35.60 7.25 35.60 6.77L35.60 6.77Q35.60 6.26 35.22 6.00Q34.84 5.74 34.10 5.74L34.10 5.74L33.52 5.74L33.52 5.00L34.16 5.00Q34.80 5.00 35.13 4.79Q35.46 4.57 35.46 4.16L35.46 4.16Q35.46 3.77 35.12 3.56Q34.78 3.35 34.13 3.35L34.13 3.35Q33.86 3.35 33.51 3.41Q33.16 3.47 32.61 3.63L32.61 3.63L32.61 2.84Q33.11 2.73 33.54 2.67Q33.98 2.60 34.36 2.60L34.36 2.60Q35.34 2.60 35.92 3.01Q36.50 3.41 36.50 4.09L36.50 4.09Q36.50 4.56 36.19 4.89Q35.88 5.22 35.32 5.34Z"></path></svg>