<svg height="16.296875" width="38.5341796875" xmlns="http://www.w3.org/2000/svg" ><path d="M2.54 11.85L2.54 11.85L2.54 15.91L1.27 15.91L1.27 5.34L2.54 5.34L2.54 6.50Q2.93 5.82 3.54 5.49Q4.14 5.15 4.98 5.15L4.98 5.15Q6.38 5.15 7.25 6.26Q8.12 7.37 8.12 9.17L8.12 9.17Q8.12 10.98 7.25 12.09Q6.38 13.19 4.98 13.19L4.98 13.19Q4.14 13.19 3.54 12.86Q2.93 12.53 2.54 11.85ZM6.82 9.17L6.82 9.17Q6.82 7.79 6.24 7.00Q5.67 6.21 4.68 6.21L4.68 6.21Q3.68 6.21 3.11 7.00Q2.54 7.79 2.54 9.17L2.54 9.17Q2.54 10.56 3.11 11.35Q3.68 12.14 4.68 12.14L4.68 12.14Q5.67 12.14 6.24 11.35Q6.82 10.56 6.82 9.17ZM13.73 5.84L13.73 5.84L13.73 8.43L12.93 8.43L12.93 5.87Q12.93 5.26 12.67 4.95Q12.40 4.65 11.87 4.65L11.87 4.65Q11.22 4.65 10.86 5.01Q10.49 5.38 10.49 6.01L10.49 6.01L10.49 8.43L9.69 8.43L9.69 2.47L10.49 2.47L10.49 4.81Q10.77 4.42 11.15 4.23Q11.54 4.04 12.04 4.04L12.04 4.04Q12.87 4.04 13.30 4.50Q13.73 4.96 13.73 5.84ZM15.87 13.00L15.87 5.34L17.12 5.34L17.12 13.00L15.87 13.00ZM15.87 3.95L15.87 2.36L17.12 2.36L17.12 3.95L15.87 3.95ZM26.12 8.37L26.12 8.37L26.12 13.00L24.86 13.00L24.86 8.42Q24.86 7.33 24.44 6.79Q24.01 6.25 23.17 6.25L23.17 6.25Q22.15 6.25 21.56 6.90Q20.97 7.55 20.97 8.67L20.97 8.67L20.97 13.00L19.71 13.00L19.71 5.34L20.97 5.34L20.97 6.53Q21.42 5.84 22.04 5.50Q22.65 5.15 23.45 5.15L23.45 5.15Q24.77 5.15 25.44 5.97Q26.12 6.79 26.12 8.37ZM28.28 5.58L28.28 2.72L31.77 2.72L31.77 3.37L29.09 3.37L29.09 4.76Q29.29 4.70 29.48 4.68L29.48 4.68Q29.67 4.65 29.87 4.65L29.87 4.65Q30.97 4.65 31.61 5.17L31.61 5.17Q32.25 5.69 32.25 6.59L32.25 6.59Q32.25 7.51 31.59 8.03L31.59 8.03Q30.93 8.53 29.73 8.53L29.73 8.53Q29.32 8.53 28.89 8.47Q28.46 8.41 28.01 8.29L28.01 8.29L28.01 7.51Q28.40 7.70 28.82 7.79L28.82 7.79Q29.24 7.88 29.72 7.88L29.72 7.88Q30.47 7.88 30.92 7.53Q31.36 7.18 31.36 6.59Q31.36 6.00 30.92 5.65Q30.47 5.30 29.72 5.30L29.72 5.30Q29.36 5.30 29.00 5.37Q28.65 5.43 28.28 5.58L28.28 5.58ZM36.50 5.34L36.50 5.34Q37.13 5.46 37.48 5.83Q37.82 6.21 37.82 6.77L37.82 6.77Q37.82 7.62 37.17 8.07Q36.52 8.53 35.31 8.53L35.31 8.53Q34.92 8.53 34.50 8.46Q34.07 8.39 33.59 8.25L33.59 8.25L33.59 7.42Q33.95 7.61 34.35 7.70Q34.76 7.79 35.22 7.79L35.22 7.79Q35.96 7.79 36.37 7.52Q36.78 7.25 36.78 6.77L36.78 6.77Q36.78 6.26 36.40 6.00Q36.03 5.74 35.29 5.74L35.29 5.74L34.70 5.74L34.70 5.00L35.34 5.00Q35.98 5.00 36.32 4.79Q36.65 4.57 36.65 4.16L36.65 4.16Q36.65 3.77 36.31 3.56Q35.96 3.35 35.31 3.35L35.31 3.35Q35.04 3.35 34.69 3.41Q34.34 3.47 33.79 3.63L33.79 3.63L33.79 2.84Q34.29 2.73 34.73 2.67Q35.16 2.60 35.54 2.60L35.54 2.60Q36.52 2.60 37.10 3.01Q37.68 3.41 37.68 4.09L37.68 4.09Q37.68 4.56 37.37 4.89Q37.06 5.22 36.50 5.34Z"></path></svg>