<svg height="16.296875" width="44.146484375" xmlns="http://www.w3.org/2000/svg" ><path d="M2.54 11.85L2.54 11.85L2.54 15.91L1.27 15.91L1.27 5.34L2.54 5.34L2.54 6.50Q2.93 5.82 3.54 5.49Q4.14 5.15 4.98 5.15L4.98 5.15Q6.38 5.15 7.25 6.26Q8.12 7.37 8.12 9.17L8.12 9.17Q8.12 10.98 7.25 12.09Q6.38 13.19 4.98 13.19L4.98 13.19Q4.14 13.19 3.54 12.86Q2.93 12.53 2.54 11.85ZM6.82 9.17L6.82 9.17Q6.82 7.79 6.24 7.00Q5.67 6.21 4.68 6.21L4.68 6.21Q3.68 6.21 3.11 7.00Q2.54 7.79 2.54 9.17L2.54 9.17Q2.54 10.56 3.11 11.35Q3.68 12.14 4.68 12.14L4.68 12.14Q5.67 12.14 6.24 11.35Q6.82 10.56 6.82 9.17ZM13.73 5.84L13.73 5.84L13.73 8.43L12.93 8.43L12.93 5.87Q12.93 5.26 12.67 4.95Q12.40 4.65 11.87 4.65L11.87 4.65Q11.22 4.65 10.86 5.01Q10.49 5.38 10.49 6.01L10.49 6.01L10.49 8.43L9.69 8.43L9.69 2.47L10.49 2.47L10.49 4.81Q10.77 4.42 11.15 4.23Q11.54 4.04 12.04 4.04L12.04 4.04Q12.87 4.04 13.30 4.50Q13.73 4.96 13.73 5.84ZM15.87 13.00L15.87 5.34L17.12 5.34L17.12 13.00L15.87 13.00ZM15.87 3.95L15.87 2.36L17.12 2.36L17.12 3.95L15.87 3.95ZM26.12 8.37L26.12 8.37L26.12 13.00L24.86 13.00L24.86 8.42Q24.86 7.33 24.44 6.79Q24.01 6.25 23.17 6.25L23.17 6.25Q22.15 6.25 21.56 6.90Q20.97 7.55 20.97 8.67L20.97 8.67L20.97 13.00L19.71 13.00L19.71 5.34L20.97 5.34L20.97 6.53Q21.42 5.84 22.04 5.50Q22.65 5.15 23.45 5.15L23.45 5.15Q24.77 5.15 25.44 5.97Q26.12 6.79 26.12 8.37ZM30.89 5.34L30.89 5.34Q31.52 5.46 31.87 5.83Q32.21 6.21 32.21 6.77L32.21 6.77Q32.21 7.62 31.56 8.07Q30.91 8.53 29.70 8.53L29.70 8.53Q29.31 8.53 28.89 8.46Q28.46 8.39 27.98 8.25L27.98 8.25L27.98 7.42Q28.33 7.61 28.74 7.70Q29.15 7.79 29.61 7.79L29.61 7.79Q30.35 7.79 30.76 7.52Q31.17 7.25 31.17 6.77L31.17 6.77Q31.17 6.26 30.79 6.00Q30.41 5.74 29.67 5.74L29.67 5.74L29.09 5.74L29.09 5.00L29.73 5.00Q30.37 5.00 30.70 4.79Q31.04 4.57 31.04 4.16L31.04 4.16Q31.04 3.77 30.69 3.56Q30.35 3.35 29.70 3.35L29.70 3.35Q29.43 3.35 29.08 3.41Q28.73 3.47 28.18 3.63L28.18 3.63L28.18 2.84Q28.68 2.73 29.11 2.67Q29.55 2.60 29.93 2.60L29.93 2.60Q30.91 2.60 31.49 3.01Q32.07 3.41 32.07 4.09L32.07 4.09Q32.07 4.56 31.76 4.89Q31.45 5.22 30.89 5.34ZM36.50 5.34L36.50 5.34Q37.13 5.46 37.48 5.83Q37.82 6.21 37.82 6.77L37.82 6.77Q37.82 7.62 37.17 8.07Q36.52 8.53 35.31 8.53L35.31 8.53Q34.92 8.53 34.50 8.46Q34.07 8.39 33.59 8.25L33.59 8.25L33.59 7.42Q33.95 7.61 34.35 7.70Q34.76 7.79 35.22 7.79L35.22 7.79Q35.96 7.79 36.37 7.52Q36.78 7.25 36.78 6.77L36.78 6.77Q36.78 6.26 36.40 6.00Q36.03 5.74 35.29 5.74L35.29 5.74L34.70 5.74L34.70 5.00L35.34 5.00Q35.98 5.00 36.32 4.79Q36.65 4.57 36.65 4.16L36.65 4.16Q36.65 3.77 36.31 3.56Q35.96 3.35 35.31 3.35L35.31 3.35Q35.04 3.35 34.69 3.41Q34.34 3.47 33.79 3.63L33.79 3.63L33.79 2.84Q34.29 2.73 34.73 2.67Q35.16 2.60 35.54 2.60L35.54 2.60Q36.52 2.60 37.10 3.01Q37.68 3.41 37.68 4.09L37.68 4.09Q37.68 4.56 37.37 4.89Q37.06 5.22 36.50 5.34ZM41.79 6.41L41.79 3.55L39.68 6.41L41.79 6.41ZM38.96 6.33L41.64 2.72L42.78 2.72L42.78 6.41L43.70 6.41L43.70 7.16L42.78 7.16L42.78 8.43L41.79 8.43L41.79 7.16L38.96 7.16L38.96 6.33Z"></path></svg>