<svg height="16.296875" width="42.0068359375" xmlns="http://www.w3.org/2000/svg" ><path d="M2.54 11.85L2.54 11.85L2.54 15.91L1.27 15.91L1.27 5.34L2.54 5.34L2.54 6.50Q2.93 5.82 3.54 5.49Q4.14 5.15 4.98 5.15L4.98 5.15Q6.38 5.15 7.25 6.26Q8.12 7.37 8.12 9.17L8.12 9.17Q8.12 10.98 7.25 12.09Q6.38 13.19 4.98 13.19L4.98 13.19Q4.14 13.19 3.54 12.86Q2.93 12.53 2.54 11.85ZM6.82 9.17L6.82 9.17Q6.82 7.79 6.24 7.00Q5.67 6.21 4.68 6.21L4.68 6.21Q3.68 6.21 3.11 7.00Q2.54 7.79 2.54 9.17L2.54 9.17Q2.54 10.56 3.11 11.35Q3.68 12.14 4.68 12.14L4.68 12.14Q5.67 12.14 6.24 11.35Q6.82 10.56 6.82 9.17ZM13.73 5.84L13.73 5.84L13.73 8.43L12.93 8.43L12.93 5.87Q12.93 5.26 12.67 4.95Q12.40 4.65 11.87 4.65L11.87 4.65Q11.22 4.65 10.86 5.01Q10.49 5.38 10.49 6.01L10.49 6.01L10.49 8.43L9.69 8.43L9.69 2.47L10.49 2.47L10.49 4.81Q10.77 4.42 11.15 4.23Q11.54 4.04 12.04 4.04L12.04 4.04Q12.87 4.04 13.30 4.50Q13.73 4.96 13.73 5.84ZM15.87 13.00L15.87 5.34L17.12 5.34L17.12 13.00L15.87 13.00ZM15.87 3.95L15.87 2.36L17.12 2.36L17.12 3.95L15.87 3.95ZM20.43 6.46L19.23 6.46L19.23 5.34L22.84 5.34L22.84 6.46L21.69 6.46L21.69 11.87L22.84 11.87L22.84 13.00L19.23 13.00L19.23 11.87L20.43 11.87L20.43 6.46ZM25.97 13.00L25.96 7.54L26.39 7.54Q27.71 7.54 28.29 6.76L28.29 6.76Q28.69 6.24 28.69 5.57L28.69 5.57Q28.68 4.66 28.29 4.22L28.29 4.22Q27.62 3.44 26.39 3.44L26.39 3.44Q25.85 3.44 25.31 3.59L25.31 3.59Q24.77 3.73 24.24 4.03L24.24 4.03L24.24 2.85Q24.76 2.61 25.31 2.50L25.31 2.50Q25.87 2.37 26.45 2.37L26.45 2.37Q28.33 2.37 29.27 3.45L29.27 3.45Q30.02 4.30 30.02 5.57L30.02 5.57Q30.02 6.73 29.28 7.52L29.28 7.52Q28.51 8.33 27.35 8.54L27.35 8.54L27.35 13.00L25.97 13.00ZM31.75 5.58L31.75 2.72L35.24 2.72L35.24 3.37L32.57 3.37L32.57 4.76Q32.76 4.70 32.96 4.68L32.96 4.68Q33.15 4.65 33.34 4.65L33.34 4.65Q34.44 4.65 35.08 5.17L35.08 5.17Q35.72 5.69 35.72 6.59L35.72 6.59Q35.72 7.51 35.06 8.03L35.06 8.03Q34.41 8.53 33.20 8.53L33.20 8.53Q32.79 8.53 32.36 8.47Q31.93 8.41 31.48 8.29L31.48 8.29L31.48 7.51Q31.87 7.70 32.29 7.79L32.29 7.79Q32.72 7.88 33.19 7.88L33.19 7.88Q33.95 7.88 34.39 7.53Q34.84 7.18 34.84 6.59Q34.84 6.00 34.39 5.65Q33.95 5.30 33.19 5.30L33.19 5.30Q32.83 5.30 32.48 5.37Q32.12 5.43 31.75 5.58L31.75 5.58ZM37.37 5.58L37.37 2.72L40.85 2.72L40.85 3.37L38.18 3.37L38.18 4.76Q38.37 4.70 38.57 4.68L38.57 4.68Q38.76 4.65 38.95 4.65L38.95 4.65Q40.05 4.65 40.69 5.17L40.69 5.17Q41.34 5.69 41.34 6.59L41.34 6.59Q41.34 7.51 40.67 8.03L40.67 8.03Q40.02 8.53 38.81 8.53L38.81 8.53Q38.40 8.53 37.97 8.47Q37.54 8.41 37.09 8.29L37.09 8.29L37.09 7.51Q37.48 7.70 37.91 7.79L37.91 7.79Q38.33 7.88 38.80 7.88L38.80 7.88Q39.56 7.88 40.00 7.53Q40.45 7.18 40.45 6.59Q40.45 6.00 40.00 5.65Q39.56 5.30 38.80 5.30L38.80 5.30Q38.45 5.30 38.09 5.37Q37.73 5.43 37.37 5.58L37.37 5.58Z"></path></svg>