<svg height="16.296875" width="34.3369140625" xmlns="http://www.w3.org/2000/svg" ><path d="M2.54 11.85L2.54 11.85L2.54 15.91L1.27 15.91L1.27 5.34L2.54 5.34L2.54 6.50Q2.93 5.82 3.54 5.49Q4.14 5.15 4.98 5.15L4.98 5.15Q6.38 5.15 7.25 6.26Q8.12 7.37 8.12 9.17L8.12 9.17Q8.12 10.98 7.25 12.09Q6.38 13.19 4.98 13.19L4.98 13.19Q4.14 13.19 3.54 12.86Q2.93 12.53 2.54 11.85ZM6.82 9.17L6.82 9.17Q6.82 7.79 6.24 7.00Q5.67 6.21 4.68 6.21L4.68 6.21Q3.68 6.21 3.11 7.00Q2.54 7.79 2.54 9.17L2.54 9.17Q2.54 10.56 3.11 11.35Q3.68 12.14 4.68 12.14L4.68 12.14Q5.67 12.14 6.24 11.35Q6.82 10.56 6.82 9.17ZM13.73 5.84L13.73 5.84L13.73 8.43L12.93 8.43L12.93 5.87Q12.93 5.26 12.67 4.95Q12.40 4.65 11.87 4.65L11.87 4.65Q11.22 4.65 10.86 5.01Q10.49 5.38 10.49 6.01L10.49 6.01L10.49 8.43L9.69 8.43L9.69 2.47L10.49 2.47L10.49 4.81Q10.77 4.42 11.15 4.23Q11.54 4.04 12.04 4.04L12.04 4.04Q12.87 4.04 13.30 4.50Q13.73 4.96 13.73 5.84ZM20.73 7.52L20.73 7.52L17.40 11.57Q17.68 11.85 18.04 11.99Q18.39 12.13 18.83 12.13L18.83 12.13Q19.84 12.13 20.43 11.33Q21.01 10.54 21.01 9.17L21.01 9.17Q21.01 8.63 20.95 8.23Q20.88 7.83 20.73 7.52ZM16.91 10.83L20.25 6.78Q19.96 6.50 19.61 6.36Q19.26 6.22 18.83 6.22L18.83 6.22Q17.80 6.22 17.22 7.02Q16.65 7.83 16.65 9.27L16.65 9.27Q16.65 9.76 16.71 10.14Q16.78 10.51 16.91 10.83L16.91 10.83ZM15.04 13.10L16.06 11.86Q15.69 11.33 15.50 10.66Q15.32 9.99 15.32 9.17L15.32 9.17Q15.32 7.29 16.25 6.22Q17.19 5.15 18.83 5.15L18.83 5.15Q19.47 5.15 20.01 5.33Q20.56 5.50 21.01 5.86L21.01 5.86L21.96 4.71L22.61 5.25L21.62 6.47Q21.98 7 22.16 7.68Q22.35 8.35 22.35 9.17L22.35 9.17Q22.35 11.05 21.41 12.12Q20.47 13.19 18.83 13.19L18.83 13.19Q18.18 13.19 17.63 13.02Q17.08 12.84 16.65 12.49L16.65 12.49L15.70 13.64L15.04 13.10ZM24.08 5.58L24.08 2.72L27.57 2.72L27.57 3.37L24.90 3.37L24.90 4.76Q25.09 4.70 25.29 4.68L25.29 4.68Q25.48 4.65 25.67 4.65L25.67 4.65Q26.77 4.65 27.41 5.17L27.41 5.17Q28.05 5.69 28.05 6.59L28.05 6.59Q28.05 7.51 27.39 8.03L27.39 8.03Q26.74 8.53 25.53 8.53L25.53 8.53Q25.12 8.53 24.69 8.47Q24.26 8.41 23.81 8.29L23.81 8.29L23.81 7.51Q24.20 7.70 24.62 7.79L24.62 7.79Q25.05 7.88 25.52 7.88L25.52 7.88Q26.28 7.88 26.72 7.53Q27.17 7.18 27.17 6.59Q27.17 6.00 26.72 5.65Q26.28 5.30 25.52 5.30L25.52 5.30Q25.16 5.30 24.81 5.37Q24.45 5.43 24.08 5.58L24.08 5.58ZM32.31 5.34L32.31 5.34Q32.94 5.46 33.28 5.83Q33.63 6.21 33.63 6.77L33.63 6.77Q33.63 7.62 32.98 8.07Q32.33 8.53 31.12 8.53L31.12 8.53Q30.73 8.53 30.30 8.46Q29.87 8.39 29.39 8.25L29.39 8.25L29.39 7.42Q29.75 7.61 30.16 7.70Q30.56 7.79 31.02 7.79L31.02 7.79Q31.77 7.79 32.18 7.52Q32.59 7.25 32.59 6.77L32.59 6.77Q32.59 6.26 32.21 6.00Q31.83 5.74 31.09 5.74L31.09 5.74L30.50 5.74L30.50 5.00L31.14 5.00Q31.79 5.00 32.12 4.79Q32.45 4.57 32.45 4.16L32.45 4.16Q32.45 3.77 32.11 3.56Q31.77 3.35 31.12 3.35L31.12 3.35Q30.84 3.35 30.50 3.41Q30.15 3.47 29.59 3.63L29.59 3.63L29.59 2.84Q30.09 2.73 30.53 2.67Q30.97 2.60 31.34 2.60L31.34 2.60Q32.33 2.60 32.90 3.01Q33.48 3.41 33.48 4.09L33.48 4.09Q33.48 4.56 33.17 4.89Q32.87 5.22 32.31 5.34Z"></path></svg>