<svg height="16.296875" width="48.822265625" xmlns="http://www.w3.org/2000/svg" ><path d="M2.54 11.85L2.54 11.85L2.54 15.91L1.27 15.91L1.27 5.34L2.54 5.34L2.54 6.50Q2.93 5.82 3.54 5.49Q4.14 5.15 4.98 5.15L4.98 5.15Q6.38 5.15 7.25 6.26Q8.12 7.37 8.12 9.17L8.12 9.17Q8.12 10.98 7.25 12.09Q6.38 13.19 4.98 13.19L4.98 13.19Q4.14 13.19 3.54 12.86Q2.93 12.53 2.54 11.85ZM6.82 9.17L6.82 9.17Q6.82 7.79 6.24 7.00Q5.67 6.21 4.68 6.21L4.68 6.21Q3.68 6.21 3.11 7.00Q2.54 7.79 2.54 9.17L2.54 9.17Q2.54 10.56 3.11 11.35Q3.68 12.14 4.68 12.14L4.68 12.14Q5.67 12.14 6.24 11.35Q6.82 10.56 6.82 9.17ZM13.73 5.84L13.73 5.84L13.73 8.43L12.93 8.43L12.93 5.87Q12.93 5.26 12.67 4.95Q12.40 4.65 11.87 4.65L11.87 4.65Q11.22 4.65 10.86 5.01Q10.49 5.38 10.49 6.01L10.49 6.01L10.49 8.43L9.69 8.43L9.69 2.47L10.49 2.47L10.49 4.81Q10.77 4.42 11.15 4.23Q11.54 4.04 12.04 4.04L12.04 4.04Q12.87 4.04 13.30 4.50Q13.73 4.96 13.73 5.84ZM18.83 6.22L18.83 6.22Q17.82 6.22 17.23 7.01Q16.65 7.80 16.65 9.17L16.65 9.17Q16.65 10.55 17.23 11.34Q17.81 12.13 18.83 12.13L18.83 12.13Q19.84 12.13 20.43 11.33Q21.01 10.54 21.01 9.17L21.01 9.17Q21.01 7.81 20.43 7.02Q19.84 6.22 18.83 6.22ZM18.83 5.15L18.83 5.15Q20.47 5.15 21.41 6.22Q22.35 7.29 22.35 9.17L22.35 9.17Q22.35 11.05 21.41 12.12Q20.47 13.19 18.83 13.19L18.83 13.19Q17.19 13.19 16.25 12.12Q15.32 11.05 15.32 9.17L15.32 9.17Q15.32 7.29 16.25 6.22Q17.19 5.15 18.83 5.15ZM30.80 8.37L30.80 8.37L30.80 13.13Q30.80 14.59 30.24 15.25L30.24 15.25Q29.68 15.91 28.44 15.91L28.44 15.91L26.71 15.91L26.71 14.84L28.30 14.84Q29.02 14.84 29.28 14.51L29.28 14.51Q29.54 14.18 29.54 13.13L29.54 13.13L29.54 8.42Q29.54 7.33 29.11 6.79Q28.69 6.25 27.84 6.25L27.84 6.25Q26.82 6.25 26.24 6.90Q25.65 7.55 25.65 8.67L25.65 8.67L25.65 13.00L24.38 13.00L24.38 5.34L25.65 5.34L25.65 6.53Q26.10 5.84 26.71 5.50L26.71 5.50Q27.32 5.15 28.12 5.15L28.12 5.15Q29.44 5.15 30.12 5.97L30.12 5.97Q30.80 6.79 30.80 8.37ZM35.57 5.34L35.57 5.34Q36.20 5.46 36.54 5.83Q36.89 6.21 36.89 6.77L36.89 6.77Q36.89 7.62 36.24 8.07Q35.59 8.53 34.38 8.53L34.38 8.53Q33.99 8.53 33.56 8.46Q33.13 8.39 32.66 8.25L32.66 8.25L32.66 7.42Q33.01 7.61 33.42 7.70Q33.82 7.79 34.28 7.79L34.28 7.79Q35.03 7.79 35.44 7.52Q35.85 7.25 35.85 6.77L35.85 6.77Q35.85 6.26 35.47 6.00Q35.09 5.74 34.35 5.74L34.35 5.74L33.76 5.74L33.76 5.00L34.41 5.00Q35.05 5.00 35.38 4.79Q35.71 4.57 35.71 4.16L35.71 4.16Q35.71 3.77 35.37 3.56Q35.03 3.35 34.38 3.35L34.38 3.35Q34.10 3.35 33.76 3.41Q33.41 3.47 32.85 3.63L32.85 3.63L32.85 2.84Q33.35 2.73 33.79 2.67Q34.23 2.60 34.60 2.60L34.60 2.60Q35.59 2.60 36.17 3.01Q36.74 3.41 36.74 4.09L36.74 4.09Q36.74 4.56 36.44 4.89Q36.13 5.22 35.57 5.34ZM41.18 5.34L41.18 5.34Q41.81 5.46 42.15 5.83Q42.50 6.21 42.50 6.77L42.50 6.77Q42.50 7.62 41.85 8.07Q41.20 8.53 39.99 8.53L39.99 8.53Q39.60 8.53 39.17 8.46Q38.75 8.39 38.27 8.25L38.27 8.25L38.27 7.42Q38.62 7.61 39.03 7.70Q39.44 7.79 39.89 7.79L39.89 7.79Q40.64 7.79 41.05 7.52Q41.46 7.25 41.46 6.77L41.46 6.77Q41.46 6.26 41.08 6.00Q40.70 5.74 39.96 5.74L39.96 5.74L39.38 5.74L39.38 5.00L40.02 5.00Q40.66 5.00 40.99 4.79Q41.32 4.57 41.32 4.16L41.32 4.16Q41.32 3.77 40.98 3.56Q40.64 3.35 39.99 3.35L39.99 3.35Q39.72 3.35 39.37 3.41Q39.02 3.47 38.47 3.63L38.47 3.63L38.47 2.84Q38.96 2.73 39.40 2.67Q39.84 2.60 40.22 2.60L40.22 2.60Q41.20 2.60 41.78 3.01Q42.36 3.41 42.36 4.09L42.36 4.09Q42.36 4.56 42.05 4.89Q41.74 5.22 41.18 5.34ZM46.47 6.41L46.47 3.55L44.36 6.41L46.47 6.41ZM43.64 6.33L46.32 2.72L47.46 2.72L47.46 6.41L48.38 6.41L48.38 7.16L47.46 7.16L47.46 8.43L46.47 8.43L46.47 7.16L43.64 7.16L43.64 6.33Z"></path></svg>