<svg height="16.296875" width="41.48046875" xmlns="http://www.w3.org/2000/svg" ><path d="M2.54 11.85L2.54 11.85L2.54 15.91L1.27 15.91L1.27 5.34L2.54 5.34L2.54 6.50Q2.93 5.82 3.54 5.49Q4.14 5.15 4.98 5.15L4.98 5.15Q6.38 5.15 7.25 6.26Q8.12 7.37 8.12 9.17L8.12 9.17Q8.12 10.98 7.25 12.09Q6.38 13.19 4.98 13.19L4.98 13.19Q4.14 13.19 3.54 12.86Q2.93 12.53 2.54 11.85ZM6.82 9.17L6.82 9.17Q6.82 7.79 6.24 7.00Q5.67 6.21 4.68 6.21L4.68 6.21Q3.68 6.21 3.11 7.00Q2.54 7.79 2.54 9.17L2.54 9.17Q2.54 10.56 3.11 11.35Q3.68 12.14 4.68 12.14L4.68 12.14Q5.67 12.14 6.24 11.35Q6.82 10.56 6.82 9.17ZM13.73 5.84L13.73 5.84L13.73 8.43L12.93 8.43L12.93 5.87Q12.93 5.26 12.67 4.95Q12.40 4.65 11.87 4.65L11.87 4.65Q11.22 4.65 10.86 5.01Q10.49 5.38 10.49 6.01L10.49 6.01L10.49 8.43L9.69 8.43L9.69 2.47L10.49 2.47L10.49 4.81Q10.77 4.42 11.15 4.23Q11.54 4.04 12.04 4.04L12.04 4.04Q12.87 4.04 13.30 4.50Q13.73 4.96 13.73 5.84ZM18.83 6.22L18.83 6.22Q17.82 6.22 17.23 7.01Q16.65 7.80 16.65 9.17L16.65 9.17Q16.65 10.55 17.23 11.34Q17.81 12.13 18.83 12.13L18.83 12.13Q19.84 12.13 20.43 11.33Q21.01 10.54 21.01 9.17L21.01 9.17Q21.01 7.81 20.43 7.02Q19.84 6.22 18.83 6.22ZM18.83 5.15L18.83 5.15Q20.47 5.15 21.41 6.22Q22.35 7.29 22.35 9.17L22.35 9.17Q22.35 11.05 21.41 12.12Q20.47 13.19 18.83 13.19L18.83 13.19Q17.19 13.19 16.25 12.12Q15.32 11.05 15.32 9.17L15.32 9.17Q15.32 7.29 16.25 6.22Q17.19 5.15 18.83 5.15ZM25.44 13.00L25.44 7.54L25.87 7.54Q27.18 7.54 27.77 6.76L27.77 6.76Q28.16 6.24 28.16 5.57L28.16 5.57Q28.16 4.66 27.77 4.22L27.77 4.22Q27.09 3.44 25.87 3.44L25.87 3.44Q25.32 3.44 24.78 3.59L24.78 3.59Q24.25 3.73 23.71 4.03L23.71 4.03L23.71 2.85Q24.23 2.61 24.79 2.50L24.79 2.50Q25.34 2.37 25.92 2.37L25.92 2.37Q27.80 2.37 28.75 3.45L28.75 3.45Q29.49 4.30 29.49 5.57L29.49 5.57Q29.49 6.73 28.75 7.52L28.75 7.52Q27.99 8.33 26.82 8.54L26.82 8.54L26.82 13.00L25.44 13.00ZM31.23 5.58L31.23 2.72L34.71 2.72L34.71 3.37L32.04 3.37L32.04 4.76Q32.23 4.70 32.43 4.68L32.43 4.68Q32.62 4.65 32.81 4.65L32.81 4.65Q33.91 4.65 34.56 5.17L34.56 5.17Q35.20 5.69 35.20 6.59L35.20 6.59Q35.20 7.51 34.54 8.03L34.54 8.03Q33.88 8.53 32.68 8.53L32.68 8.53Q32.27 8.53 31.83 8.47Q31.40 8.41 30.95 8.29L30.95 8.29L30.95 7.51Q31.34 7.70 31.77 7.79L31.77 7.79Q32.19 7.88 32.66 7.88L32.66 7.88Q33.42 7.88 33.87 7.53Q34.31 7.18 34.31 6.59Q34.31 6.00 33.87 5.65Q33.42 5.30 32.66 5.30L32.66 5.30Q32.31 5.30 31.95 5.37Q31.60 5.43 31.23 5.58L31.23 5.58ZM36.84 5.58L36.84 2.72L40.33 2.72L40.33 3.37L37.65 3.37L37.65 4.76Q37.84 4.70 38.04 4.68L38.04 4.68Q38.23 4.65 38.42 4.65L38.42 4.65Q39.53 4.65 40.17 5.17L40.17 5.17Q40.81 5.69 40.81 6.59L40.81 6.59Q40.81 7.51 40.15 8.03L40.15 8.03Q39.49 8.53 38.29 8.53L38.29 8.53Q37.88 8.53 37.45 8.47Q37.02 8.41 36.57 8.29L36.57 8.29L36.57 7.51Q36.96 7.70 37.38 7.79L37.38 7.79Q37.80 7.88 38.27 7.88L38.27 7.88Q39.03 7.88 39.48 7.53Q39.92 7.18 39.92 6.59Q39.92 6.00 39.48 5.65Q39.03 5.30 38.27 5.30L38.27 5.30Q37.92 5.30 37.56 5.37Q37.21 5.43 36.84 5.58L36.84 5.58Z"></path></svg>