<svg height="16.296875" width="34.64453125" xmlns="http://www.w3.org/2000/svg" ><path d="M2.54 11.85L2.54 11.85L2.54 15.91L1.27 15.91L1.27 5.34L2.54 5.34L2.54 6.50Q2.93 5.82 3.54 5.49Q4.14 5.15 4.98 5.15L4.98 5.15Q6.38 5.15 7.25 6.26Q8.12 7.37 8.12 9.17L8.12 9.17Q8.12 10.98 7.25 12.09Q6.38 13.19 4.98 13.19L4.98 13.19Q4.14 13.19 3.54 12.86Q2.93 12.53 2.54 11.85ZM6.82 9.17L6.82 9.17Q6.82 7.79 6.24 7.00Q5.67 6.21 4.68 6.21L4.68 6.21Q3.68 6.21 3.11 7.00Q2.54 7.79 2.54 9.17L2.54 9.17Q2.54 10.56 3.11 11.35Q3.68 12.14 4.68 12.14L4.68 12.14Q5.67 12.14 6.24 11.35Q6.82 10.56 6.82 9.17ZM13.73 5.84L13.73 5.84L13.73 8.43L12.93 8.43L12.93 5.87Q12.93 5.26 12.67 4.95Q12.40 4.65 11.87 4.65L11.87 4.65Q11.22 4.65 10.86 5.01Q10.49 5.38 10.49 6.01L10.49 6.01L10.49 8.43L9.69 8.43L9.69 2.47L10.49 2.47L10.49 4.81Q10.77 4.42 11.15 4.23Q11.54 4.04 12.04 4.04L12.04 4.04Q12.87 4.04 13.30 4.50Q13.73 4.96 13.73 5.84ZM15.74 9.97L15.74 9.97L15.74 5.34L16.99 5.34L16.99 9.93Q16.99 11.01 17.42 11.56Q17.84 12.10 18.69 12.10L18.69 12.10Q19.71 12.10 20.30 11.45Q20.89 10.80 20.89 9.68L20.89 9.68L20.89 5.34L22.15 5.34L22.15 13.00L20.89 13.00L20.89 11.82Q20.43 12.52 19.83 12.85Q19.22 13.19 18.42 13.19L18.42 13.19Q17.10 13.19 16.42 12.37Q15.74 11.55 15.74 9.97ZM18.90 5.15L18.90 5.15ZM24.39 5.58L24.39 2.72L27.88 2.72L27.88 3.37L25.20 3.37L25.20 4.76Q25.40 4.70 25.59 4.68L25.59 4.68Q25.79 4.65 25.98 4.65L25.98 4.65Q27.08 4.65 27.72 5.17L27.72 5.17Q28.36 5.69 28.36 6.59L28.36 6.59Q28.36 7.51 27.70 8.03L27.70 8.03Q27.04 8.53 25.84 8.53L25.84 8.53Q25.43 8.53 25.00 8.47Q24.57 8.41 24.12 8.29L24.12 8.29L24.12 7.51Q24.51 7.70 24.93 7.79L24.93 7.79Q25.35 7.88 25.83 7.88L25.83 7.88Q26.58 7.88 27.03 7.53Q27.47 7.18 27.47 6.59Q27.47 6.00 27.03 5.65Q26.58 5.30 25.83 5.30L25.83 5.30Q25.47 5.30 25.12 5.37Q24.76 5.43 24.39 5.58L24.39 5.58ZM32.61 5.34L32.61 5.34Q33.24 5.46 33.59 5.83Q33.93 6.21 33.93 6.77L33.93 6.77Q33.93 7.62 33.28 8.07Q32.63 8.53 31.42 8.53L31.42 8.53Q31.04 8.53 30.61 8.46Q30.18 8.39 29.70 8.25L29.70 8.25L29.70 7.42Q30.06 7.61 30.46 7.70Q30.87 7.79 31.33 7.79L31.33 7.79Q32.07 7.79 32.48 7.52Q32.89 7.25 32.89 6.77L32.89 6.77Q32.89 6.26 32.52 6.00Q32.14 5.74 31.40 5.74L31.40 5.74L30.81 5.74L30.81 5.00L31.45 5.00Q32.09 5.00 32.43 4.79Q32.76 4.57 32.76 4.16L32.76 4.16Q32.76 3.77 32.42 3.56Q32.07 3.35 31.42 3.35L31.42 3.35Q31.15 3.35 30.80 3.41Q30.45 3.47 29.90 3.63L29.90 3.63L29.90 2.84Q30.40 2.73 30.84 2.67Q31.27 2.60 31.65 2.60L31.65 2.60Q32.63 2.60 33.21 3.01Q33.79 3.41 33.79 4.09L33.79 4.09Q33.79 4.56 33.48 4.89Q33.17 5.22 32.61 5.34Z"></path></svg>