<svg height="16.296875" width="29.61328125" xmlns="http://www.w3.org/2000/svg" ><path d="M2.54 11.85L2.54 11.85L2.54 15.91L1.27 15.91L1.27 5.34L2.54 5.34L2.54 6.50Q2.93 5.82 3.54 5.49Q4.14 5.15 4.98 5.15L4.98 5.15Q6.38 5.15 7.25 6.26Q8.12 7.37 8.12 9.17L8.12 9.17Q8.12 10.98 7.25 12.09Q6.38 13.19 4.98 13.19L4.98 13.19Q4.14 13.19 3.54 12.86Q2.93 12.53 2.54 11.85ZM6.82 9.17L6.82 9.17Q6.82 7.79 6.24 7.00Q5.67 6.21 4.68 6.21L4.68 6.21Q3.68 6.21 3.11 7.00Q2.54 7.79 2.54 9.17L2.54 9.17Q2.54 10.56 3.11 11.35Q3.68 12.14 4.68 12.14L4.68 12.14Q5.67 12.14 6.24 11.35Q6.82 10.56 6.82 9.17ZM10.21 13.00L10.21 5.34L11.46 5.34L11.46 13.00L10.21 13.00ZM10.21 3.95L10.21 2.36L11.46 2.36L11.46 3.95L10.21 3.95ZM16.36 5.34L16.36 5.34Q16.99 5.46 17.33 5.83Q17.68 6.21 17.68 6.77L17.68 6.77Q17.68 7.62 17.03 8.07Q16.38 8.53 15.17 8.53L15.17 8.53Q14.78 8.53 14.35 8.46Q13.92 8.39 13.45 8.25L13.45 8.25L13.45 7.42Q13.80 7.61 14.21 7.70Q14.62 7.79 15.07 7.79L15.07 7.79Q15.82 7.79 16.23 7.52Q16.64 7.25 16.64 6.77L16.64 6.77Q16.64 6.26 16.26 6.00Q15.88 5.74 15.14 5.74L15.14 5.74L14.55 5.74L14.55 5.00L15.20 5.00Q15.84 5.00 16.17 4.79Q16.50 4.57 16.50 4.16L16.50 4.16Q16.50 3.77 16.16 3.56Q15.82 3.35 15.17 3.35L15.17 3.35Q14.90 3.35 14.55 3.41Q14.20 3.47 13.64 3.63L13.64 3.63L13.64 2.84Q14.14 2.73 14.58 2.67Q15.02 2.60 15.39 2.60L15.39 2.60Q16.38 2.60 16.96 3.01Q17.53 3.41 17.53 4.09L17.53 4.09Q17.53 4.56 17.23 4.89Q16.92 5.22 16.36 5.34ZM21.97 5.34L21.97 5.34Q22.60 5.46 22.94 5.83Q23.29 6.21 23.29 6.77L23.29 6.77Q23.29 7.62 22.64 8.07Q21.99 8.53 20.78 8.53L20.78 8.53Q20.39 8.53 19.96 8.46Q19.54 8.39 19.06 8.25L19.06 8.25L19.06 7.42Q19.41 7.61 19.82 7.70Q20.23 7.79 20.69 7.79L20.69 7.79Q21.43 7.79 21.84 7.52Q22.25 7.25 22.25 6.77L22.25 6.77Q22.25 6.26 21.87 6.00Q21.49 5.74 20.75 5.74L20.75 5.74L20.17 5.74L20.17 5.00L20.81 5.00Q21.45 5.00 21.78 4.79Q22.11 4.57 22.11 4.16L22.11 4.16Q22.11 3.77 21.77 3.56Q21.43 3.35 20.78 3.35L20.78 3.35Q20.51 3.35 20.16 3.41Q19.81 3.47 19.26 3.63L19.26 3.63L19.26 2.84Q19.76 2.73 20.19 2.67Q20.63 2.60 21.01 2.60L21.01 2.60Q21.99 2.60 22.57 3.01Q23.15 3.41 23.15 4.09L23.15 4.09Q23.15 4.56 22.84 4.89Q22.53 5.22 21.97 5.34ZM27.26 6.41L27.26 3.55L25.15 6.41L27.26 6.41ZM24.43 6.33L27.11 2.72L28.25 2.72L28.25 6.41L29.17 6.41L29.17 7.16L28.25 7.16L28.25 8.43L27.26 8.43L27.26 7.16L24.43 7.16L24.43 6.33Z"></path></svg>