<svg height="16.296875" width="31.69140625" xmlns="http://www.w3.org/2000/svg" ><path d="M2.54 11.85L2.54 11.85L2.54 15.91L1.27 15.91L1.27 5.34L2.54 5.34L2.54 6.50Q2.93 5.82 3.54 5.49Q4.14 5.15 4.98 5.15L4.98 5.15Q6.38 5.15 7.25 6.26Q8.12 7.37 8.12 9.17L8.12 9.17Q8.12 10.98 7.25 12.09Q6.38 13.19 4.98 13.19L4.98 13.19Q4.14 13.19 3.54 12.86Q2.93 12.53 2.54 11.85ZM6.82 9.17L6.82 9.17Q6.82 7.79 6.24 7.00Q5.67 6.21 4.68 6.21L4.68 6.21Q3.68 6.21 3.11 7.00Q2.54 7.79 2.54 9.17L2.54 9.17Q2.54 10.56 3.11 11.35Q3.68 12.14 4.68 12.14L4.68 12.14Q5.67 12.14 6.24 11.35Q6.82 10.56 6.82 9.17ZM10.21 13.00L10.21 5.34L11.46 5.34L11.46 13.00L10.21 13.00ZM10.21 3.95L10.21 2.36L11.46 2.36L11.46 3.95L10.21 3.95ZM13.64 6.81L13.64 5.65Q14.17 5.40 14.73 5.28Q15.30 5.15 15.93 5.15L15.93 5.15Q17.66 5.15 18.68 6.24Q19.70 7.33 19.70 9.17L19.70 9.17Q19.70 11.05 18.67 12.12Q17.64 13.19 15.85 13.19L15.85 13.19Q15.27 13.19 14.72 13.07Q14.16 12.95 13.64 12.71L13.64 12.71L13.64 11.54Q14.18 11.83 14.71 11.98Q15.25 12.13 15.80 12.13L15.80 12.13Q17.02 12.13 17.70 11.35Q18.38 10.58 18.38 9.17L18.38 9.17Q18.38 7.77 17.70 7.00Q17.02 6.22 15.80 6.22L15.80 6.22Q15.25 6.22 14.71 6.37Q14.18 6.51 13.64 6.81L13.64 6.81ZM21.44 5.58L21.44 2.72L24.92 2.72L24.92 3.37L22.25 3.37L22.25 4.76Q22.44 4.70 22.64 4.68L22.64 4.68Q22.83 4.65 23.02 4.65L23.02 4.65Q24.12 4.65 24.77 5.17L24.77 5.17Q25.41 5.69 25.41 6.59L25.41 6.59Q25.41 7.51 24.75 8.03L24.75 8.03Q24.09 8.53 22.89 8.53L22.89 8.53Q22.48 8.53 22.05 8.47Q21.62 8.41 21.16 8.29L21.16 8.29L21.16 7.51Q21.55 7.70 21.98 7.79L21.98 7.79Q22.40 7.88 22.87 7.88L22.87 7.88Q23.63 7.88 24.08 7.53Q24.52 7.18 24.52 6.59Q24.52 6.00 24.08 5.65Q23.63 5.30 22.87 5.30L22.87 5.30Q22.52 5.30 22.16 5.37Q21.81 5.43 21.44 5.58L21.44 5.58ZM29.66 5.34L29.66 5.34Q30.29 5.46 30.64 5.83Q30.98 6.21 30.98 6.77L30.98 6.77Q30.98 7.62 30.33 8.07Q29.68 8.53 28.47 8.53L28.47 8.53Q28.08 8.53 27.65 8.46Q27.23 8.39 26.75 8.25L26.75 8.25L26.75 7.42Q27.10 7.61 27.51 7.70Q27.92 7.79 28.38 7.79L28.38 7.79Q29.12 7.79 29.53 7.52Q29.94 7.25 29.94 6.77L29.94 6.77Q29.94 6.26 29.56 6.00Q29.18 5.74 28.44 5.74L28.44 5.74L27.86 5.74L27.86 5.00L28.50 5.00Q29.14 5.00 29.47 4.79Q29.80 4.57 29.80 4.16L29.80 4.16Q29.80 3.77 29.46 3.56Q29.12 3.35 28.47 3.35L28.47 3.35Q28.20 3.35 27.85 3.41Q27.50 3.47 26.95 3.63L26.95 3.63L26.95 2.84Q27.45 2.73 27.88 2.67Q28.32 2.60 28.70 2.60L28.70 2.60Q29.68 2.60 30.26 3.01Q30.84 3.41 30.84 4.09L30.84 4.09Q30.84 4.56 30.53 4.89Q30.22 5.22 29.66 5.34Z"></path></svg>