<svg height="16.296875" width="37.3037109375" xmlns="http://www.w3.org/2000/svg" ><path d="M2.54 11.85L2.54 11.85L2.54 15.91L1.27 15.91L1.27 5.34L2.54 5.34L2.54 6.50Q2.93 5.82 3.54 5.49Q4.14 5.15 4.98 5.15L4.98 5.15Q6.38 5.15 7.25 6.26Q8.12 7.37 8.12 9.17L8.12 9.17Q8.12 10.98 7.25 12.09Q6.38 13.19 4.98 13.19L4.98 13.19Q4.14 13.19 3.54 12.86Q2.93 12.53 2.54 11.85ZM6.82 9.17L6.82 9.17Q6.82 7.79 6.24 7.00Q5.67 6.21 4.68 6.21L4.68 6.21Q3.68 6.21 3.11 7.00Q2.54 7.79 2.54 9.17L2.54 9.17Q2.54 10.56 3.11 11.35Q3.68 12.14 4.68 12.14L4.68 12.14Q5.67 12.14 6.24 11.35Q6.82 10.56 6.82 9.17ZM10.21 13.00L10.21 5.34L11.46 5.34L11.46 13.00L10.21 13.00ZM10.21 3.95L10.21 2.36L11.46 2.36L11.46 3.95L10.21 3.95ZM13.64 6.81L13.64 5.65Q14.17 5.40 14.73 5.28Q15.30 5.15 15.93 5.15L15.93 5.15Q17.66 5.15 18.68 6.24Q19.70 7.33 19.70 9.17L19.70 9.17Q19.70 11.05 18.67 12.12Q17.64 13.19 15.85 13.19L15.85 13.19Q15.27 13.19 14.72 13.07Q14.16 12.95 13.64 12.71L13.64 12.71L13.64 11.54Q14.18 11.83 14.71 11.98Q15.25 12.13 15.80 12.13L15.80 12.13Q17.02 12.13 17.70 11.35Q18.38 10.58 18.38 9.17L18.38 9.17Q18.38 7.77 17.70 7.00Q17.02 6.22 15.80 6.22L15.80 6.22Q15.25 6.22 14.71 6.37Q14.18 6.51 13.64 6.81L13.64 6.81ZM24.05 5.34L24.05 5.34Q24.68 5.46 25.02 5.83Q25.37 6.21 25.37 6.77L25.37 6.77Q25.37 7.62 24.72 8.07Q24.07 8.53 22.86 8.53L22.86 8.53Q22.47 8.53 22.04 8.46Q21.62 8.39 21.14 8.25L21.14 8.25L21.14 7.42Q21.49 7.61 21.90 7.70Q22.31 7.79 22.76 7.79L22.76 7.79Q23.51 7.79 23.92 7.52Q24.33 7.25 24.33 6.77L24.33 6.77Q24.33 6.26 23.95 6.00Q23.57 5.74 22.83 5.74L22.83 5.74L22.24 5.74L22.24 5.00L22.89 5.00Q23.53 5.00 23.86 4.79Q24.19 4.57 24.19 4.16L24.19 4.16Q24.19 3.77 23.85 3.56Q23.51 3.35 22.86 3.35L22.86 3.35Q22.59 3.35 22.24 3.41Q21.89 3.47 21.33 3.63L21.33 3.63L21.33 2.84Q21.83 2.73 22.27 2.67Q22.71 2.60 23.08 2.60L23.08 2.60Q24.07 2.60 24.65 3.01Q25.22 3.41 25.22 4.09L25.22 4.09Q25.22 4.56 24.92 4.89Q24.61 5.22 24.05 5.34ZM29.66 5.34L29.66 5.34Q30.29 5.46 30.64 5.83Q30.98 6.21 30.98 6.77L30.98 6.77Q30.98 7.62 30.33 8.07Q29.68 8.53 28.47 8.53L28.47 8.53Q28.08 8.53 27.65 8.46Q27.23 8.39 26.75 8.25L26.75 8.25L26.75 7.42Q27.10 7.61 27.51 7.70Q27.92 7.79 28.38 7.79L28.38 7.79Q29.12 7.79 29.53 7.52Q29.94 7.25 29.94 6.77L29.94 6.77Q29.94 6.26 29.56 6.00Q29.18 5.74 28.44 5.74L28.44 5.74L27.86 5.74L27.86 5.00L28.50 5.00Q29.14 5.00 29.47 4.79Q29.80 4.57 29.80 4.16L29.80 4.16Q29.80 3.77 29.46 3.56Q29.12 3.35 28.47 3.35L28.47 3.35Q28.20 3.35 27.85 3.41Q27.50 3.47 26.95 3.63L26.95 3.63L26.95 2.84Q27.45 2.73 27.88 2.67Q28.32 2.60 28.70 2.60L28.70 2.60Q29.68 2.60 30.26 3.01Q30.84 3.41 30.84 4.09L30.84 4.09Q30.84 4.56 30.53 4.89Q30.22 5.22 29.66 5.34ZM34.95 6.41L34.95 3.55L32.84 6.41L34.95 6.41ZM32.12 6.33L34.80 2.72L35.94 2.72L35.94 6.41L36.86 6.41L36.86 7.16L35.94 7.16L35.94 8.43L34.95 8.43L34.95 7.16L32.12 7.16L32.12 6.33Z"></path></svg>