<svg height="16.296875" width="38.486328125" xmlns="http://www.w3.org/2000/svg" ><path d="M2.54 11.85L2.54 11.85L2.54 15.91L1.27 15.91L1.27 5.34L2.54 5.34L2.54 6.50Q2.93 5.82 3.54 5.49Q4.14 5.15 4.98 5.15L4.98 5.15Q6.38 5.15 7.25 6.26Q8.12 7.37 8.12 9.17L8.12 9.17Q8.12 10.98 7.25 12.09Q6.38 13.19 4.98 13.19L4.98 13.19Q4.14 13.19 3.54 12.86Q2.93 12.53 2.54 11.85ZM6.82 9.17L6.82 9.17Q6.82 7.79 6.24 7.00Q5.67 6.21 4.68 6.21L4.68 6.21Q3.68 6.21 3.11 7.00Q2.54 7.79 2.54 9.17L2.54 9.17Q2.54 10.56 3.11 11.35Q3.68 12.14 4.68 12.14L4.68 12.14Q5.67 12.14 6.24 11.35Q6.82 10.56 6.82 9.17ZM10.21 13.00L10.21 5.34L11.46 5.34L11.46 13.00L10.21 13.00ZM10.21 3.95L10.21 2.36L11.46 2.36L11.46 3.95L10.21 3.95ZM20.46 8.37L20.46 8.37L20.46 13.00L19.20 13.00L19.20 8.42Q19.20 7.33 18.78 6.79Q18.35 6.25 17.51 6.25L17.51 6.25Q16.49 6.25 15.90 6.90Q15.31 7.55 15.31 8.67L15.31 8.67L15.31 13.00L14.05 13.00L14.05 5.34L15.31 5.34L15.31 6.53Q15.76 5.84 16.38 5.50Q16.99 5.15 17.79 5.15L17.79 5.15Q19.11 5.15 19.78 5.97Q20.46 6.79 20.46 8.37ZM25.23 5.34L25.23 5.34Q25.86 5.46 26.21 5.83Q26.55 6.21 26.55 6.77L26.55 6.77Q26.55 7.62 25.90 8.07Q25.25 8.53 24.04 8.53L24.04 8.53Q23.65 8.53 23.23 8.46Q22.80 8.39 22.32 8.25L22.32 8.25L22.32 7.42Q22.67 7.61 23.08 7.70Q23.49 7.79 23.95 7.79L23.95 7.79Q24.69 7.79 25.10 7.52Q25.51 7.25 25.51 6.77L25.51 6.77Q25.51 6.26 25.13 6.00Q24.75 5.74 24.01 5.74L24.01 5.74L23.43 5.74L23.43 5.00L24.07 5.00Q24.71 5.00 25.04 4.79Q25.38 4.57 25.38 4.16L25.38 4.16Q25.38 3.77 25.03 3.56Q24.69 3.35 24.04 3.35L24.04 3.35Q23.77 3.35 23.42 3.41Q23.07 3.47 22.52 3.63L22.52 3.63L22.52 2.84Q23.02 2.73 23.45 2.67Q23.89 2.60 24.27 2.60L24.27 2.60Q25.25 2.60 25.83 3.01Q26.41 3.41 26.41 4.09L26.41 4.09Q26.41 4.56 26.10 4.89Q25.79 5.22 25.23 5.34ZM30.84 5.34L30.84 5.34Q31.47 5.46 31.82 5.83Q32.16 6.21 32.16 6.77L32.16 6.77Q32.16 7.62 31.51 8.07Q30.86 8.53 29.65 8.53L29.65 8.53Q29.26 8.53 28.84 8.46Q28.41 8.39 27.93 8.25L27.93 8.25L27.93 7.42Q28.29 7.61 28.69 7.70Q29.10 7.79 29.56 7.79L29.56 7.79Q30.30 7.79 30.71 7.52Q31.12 7.25 31.12 6.77L31.12 6.77Q31.12 6.26 30.74 6.00Q30.37 5.74 29.63 5.74L29.63 5.74L29.04 5.74L29.04 5.00L29.68 5.00Q30.32 5.00 30.66 4.79Q30.99 4.57 30.99 4.16L30.99 4.16Q30.99 3.77 30.65 3.56Q30.30 3.35 29.65 3.35L29.65 3.35Q29.38 3.35 29.03 3.41Q28.68 3.47 28.13 3.63L28.13 3.63L28.13 2.84Q28.63 2.73 29.07 2.67Q29.50 2.60 29.88 2.60L29.88 2.60Q30.86 2.60 31.44 3.01Q32.02 3.41 32.02 4.09L32.02 4.09Q32.02 4.56 31.71 4.89Q31.40 5.22 30.84 5.34ZM36.13 6.41L36.13 3.55L34.02 6.41L36.13 6.41ZM33.30 6.33L35.98 2.72L37.12 2.72L37.12 6.41L38.04 6.41L38.04 7.16L37.12 7.16L37.12 8.43L36.13 8.43L36.13 7.16L33.30 7.16L33.30 6.33Z"></path></svg>