<svg height="16.296875" width="36.3466796875" xmlns="http://www.w3.org/2000/svg" ><path d="M2.54 11.85L2.54 11.85L2.54 15.91L1.27 15.91L1.27 5.34L2.54 5.34L2.54 6.50Q2.93 5.82 3.54 5.49Q4.14 5.15 4.98 5.15L4.98 5.15Q6.38 5.15 7.25 6.26Q8.12 7.37 8.12 9.17L8.12 9.17Q8.12 10.98 7.25 12.09Q6.38 13.19 4.98 13.19L4.98 13.19Q4.14 13.19 3.54 12.86Q2.93 12.53 2.54 11.85ZM6.82 9.17L6.82 9.17Q6.82 7.79 6.24 7.00Q5.67 6.21 4.68 6.21L4.68 6.21Q3.68 6.21 3.11 7.00Q2.54 7.79 2.54 9.17L2.54 9.17Q2.54 10.56 3.11 11.35Q3.68 12.14 4.68 12.14L4.68 12.14Q5.67 12.14 6.24 11.35Q6.82 10.56 6.82 9.17ZM10.21 13.00L10.21 5.34L11.46 5.34L11.46 13.00L10.21 13.00ZM10.21 3.95L10.21 2.36L11.46 2.36L11.46 3.95L10.21 3.95ZM14.77 6.46L13.57 6.46L13.57 5.34L17.18 5.34L17.18 6.46L16.03 6.46L16.03 11.87L17.18 11.87L17.18 13.00L13.57 13.00L13.57 11.87L14.77 11.87L14.77 6.46ZM20.31 13.00L20.30 7.54L20.73 7.54Q22.05 7.54 22.63 6.76L22.63 6.76Q23.03 6.24 23.03 5.57L23.03 5.57Q23.02 4.66 22.63 4.22L22.63 4.22Q21.96 3.44 20.73 3.44L20.73 3.44Q20.19 3.44 19.65 3.59L19.65 3.59Q19.11 3.73 18.58 4.03L18.58 4.03L18.58 2.85Q19.10 2.61 19.65 2.50L19.65 2.50Q20.21 2.37 20.79 2.37L20.79 2.37Q22.67 2.37 23.61 3.45L23.61 3.45Q24.36 4.30 24.36 5.57L24.36 5.57Q24.36 6.73 23.62 7.52L23.62 7.52Q22.85 8.33 21.69 8.54L21.69 8.54L21.69 13.00L20.31 13.00ZM26.09 5.58L26.09 2.72L29.58 2.72L29.58 3.37L26.91 3.37L26.91 4.76Q27.10 4.70 27.30 4.68L27.30 4.68Q27.49 4.65 27.68 4.65L27.68 4.65Q28.78 4.65 29.42 5.17L29.42 5.17Q30.06 5.69 30.06 6.59L30.06 6.59Q30.06 7.51 29.40 8.03L29.40 8.03Q28.75 8.53 27.54 8.53L27.54 8.53Q27.13 8.53 26.70 8.47Q26.27 8.41 25.82 8.29L25.82 8.29L25.82 7.51Q26.21 7.70 26.63 7.79L26.63 7.79Q27.06 7.88 27.53 7.88L27.53 7.88Q28.29 7.88 28.73 7.53Q29.18 7.18 29.18 6.59Q29.18 6.00 28.73 5.65Q28.29 5.30 27.53 5.30L27.53 5.30Q27.17 5.30 26.82 5.37Q26.46 5.43 26.09 5.58L26.09 5.58ZM31.71 5.58L31.71 2.72L35.19 2.72L35.19 3.37L32.52 3.37L32.52 4.76Q32.71 4.70 32.91 4.68L32.91 4.68Q33.10 4.65 33.29 4.65L33.29 4.65Q34.39 4.65 35.03 5.17L35.03 5.17Q35.68 5.69 35.68 6.59L35.68 6.59Q35.68 7.51 35.01 8.03L35.01 8.03Q34.36 8.53 33.15 8.53L33.15 8.53Q32.74 8.53 32.31 8.47Q31.88 8.41 31.43 8.29L31.43 8.29L31.43 7.51Q31.82 7.70 32.25 7.79L32.25 7.79Q32.67 7.88 33.14 7.88L33.14 7.88Q33.90 7.88 34.34 7.53Q34.79 7.18 34.79 6.59Q34.79 6.00 34.34 5.65Q33.90 5.30 33.14 5.30L33.14 5.30Q32.79 5.30 32.43 5.37Q32.07 5.43 31.71 5.58L31.71 5.58Z"></path></svg>