<svg height="16.296875" width="28.6767578125" xmlns="http://www.w3.org/2000/svg" ><path d="M2.54 11.85L2.54 11.85L2.54 15.91L1.27 15.91L1.27 5.34L2.54 5.34L2.54 6.50Q2.93 5.82 3.54 5.49Q4.14 5.15 4.98 5.15L4.98 5.15Q6.38 5.15 7.25 6.26Q8.12 7.37 8.12 9.17L8.12 9.17Q8.12 10.98 7.25 12.09Q6.38 13.19 4.98 13.19L4.98 13.19Q4.14 13.19 3.54 12.86Q2.93 12.53 2.54 11.85ZM6.82 9.17L6.82 9.17Q6.82 7.79 6.24 7.00Q5.67 6.21 4.68 6.21L4.68 6.21Q3.68 6.21 3.11 7.00Q2.54 7.79 2.54 9.17L2.54 9.17Q2.54 10.56 3.11 11.35Q3.68 12.14 4.68 12.14L4.68 12.14Q5.67 12.14 6.24 11.35Q6.82 10.56 6.82 9.17ZM13.17 6.22L13.17 6.22Q12.16 6.22 11.57 7.01Q10.99 7.80 10.99 9.17L10.99 9.17Q10.99 10.55 11.57 11.34Q12.15 12.13 13.17 12.13L13.17 12.13Q14.18 12.13 14.77 11.33Q15.35 10.54 15.35 9.17L15.35 9.17Q15.35 7.81 14.77 7.02Q14.18 6.22 13.17 6.22ZM13.17 5.15L13.17 5.15Q14.81 5.15 15.75 6.22Q16.69 7.29 16.69 9.17L16.69 9.17Q16.69 11.05 15.75 12.12Q14.81 13.19 13.17 13.19L13.17 13.19Q11.53 13.19 10.59 12.12Q9.66 11.05 9.66 9.17L9.66 9.17Q9.66 7.29 10.59 6.22Q11.53 5.15 13.17 5.15ZM18.42 5.58L18.42 2.72L21.91 2.72L21.91 3.37L19.24 3.37L19.24 4.76Q19.43 4.70 19.63 4.68L19.63 4.68Q19.82 4.65 20.01 4.65L20.01 4.65Q21.11 4.65 21.75 5.17L21.75 5.17Q22.39 5.69 22.39 6.59L22.39 6.59Q22.39 7.51 21.73 8.03L21.73 8.03Q21.08 8.53 19.87 8.53L19.87 8.53Q19.46 8.53 19.03 8.47Q18.60 8.41 18.15 8.29L18.15 8.29L18.15 7.51Q18.54 7.70 18.96 7.79L18.96 7.79Q19.39 7.88 19.86 7.88L19.86 7.88Q20.62 7.88 21.06 7.53Q21.51 7.18 21.51 6.59Q21.51 6.00 21.06 5.65Q20.62 5.30 19.86 5.30L19.86 5.30Q19.50 5.30 19.15 5.37Q18.79 5.43 18.42 5.58L18.42 5.58ZM26.65 5.34L26.65 5.34Q27.28 5.46 27.62 5.83Q27.97 6.21 27.97 6.77L27.97 6.77Q27.97 7.62 27.32 8.07Q26.67 8.53 25.46 8.53L25.46 8.53Q25.07 8.53 24.64 8.46Q24.21 8.39 23.73 8.25L23.73 8.25L23.73 7.42Q24.09 7.61 24.50 7.70Q24.90 7.79 25.36 7.79L25.36 7.79Q26.11 7.79 26.52 7.52Q26.93 7.25 26.93 6.77L26.93 6.77Q26.93 6.26 26.55 6.00Q26.17 5.74 25.43 5.74L25.43 5.74L24.84 5.74L24.84 5.00L25.48 5.00Q26.13 5.00 26.46 4.79Q26.79 4.57 26.79 4.16L26.79 4.16Q26.79 3.77 26.45 3.56Q26.11 3.35 25.46 3.35L25.46 3.35Q25.18 3.35 24.83 3.41Q24.49 3.47 23.93 3.63L23.93 3.63L23.93 2.84Q24.43 2.73 24.87 2.67Q25.31 2.60 25.68 2.60L25.68 2.60Q26.67 2.60 27.24 3.01Q27.82 3.41 27.82 4.09L27.82 4.09Q27.82 4.56 27.51 4.89Q27.21 5.22 26.65 5.34Z"></path></svg>