<svg height="16.296875" width="34.2890625" xmlns="http://www.w3.org/2000/svg" ><path d="M2.54 11.85L2.54 11.85L2.54 15.91L1.27 15.91L1.27 5.34L2.54 5.34L2.54 6.50Q2.93 5.82 3.54 5.49Q4.14 5.15 4.98 5.15L4.98 5.15Q6.38 5.15 7.25 6.26Q8.12 7.37 8.12 9.17L8.12 9.17Q8.12 10.98 7.25 12.09Q6.38 13.19 4.98 13.19L4.98 13.19Q4.14 13.19 3.54 12.86Q2.93 12.53 2.54 11.85ZM6.82 9.17L6.82 9.17Q6.82 7.79 6.24 7.00Q5.67 6.21 4.68 6.21L4.68 6.21Q3.68 6.21 3.11 7.00Q2.54 7.79 2.54 9.17L2.54 9.17Q2.54 10.56 3.11 11.35Q3.68 12.14 4.68 12.14L4.68 12.14Q5.67 12.14 6.24 11.35Q6.82 10.56 6.82 9.17ZM15.07 7.52L15.07 7.52L11.74 11.57Q12.02 11.85 12.38 11.99Q12.73 12.13 13.17 12.13L13.17 12.13Q14.18 12.13 14.77 11.33Q15.35 10.54 15.35 9.17L15.35 9.17Q15.35 8.63 15.29 8.23Q15.22 7.83 15.07 7.52ZM11.25 10.83L14.59 6.78Q14.30 6.50 13.95 6.36Q13.60 6.22 13.17 6.22L13.17 6.22Q12.14 6.22 11.56 7.02Q10.99 7.83 10.99 9.27L10.99 9.27Q10.99 9.76 11.05 10.14Q11.12 10.51 11.25 10.83L11.25 10.83ZM9.38 13.10L10.40 11.86Q10.03 11.33 9.84 10.66Q9.66 9.99 9.66 9.17L9.66 9.17Q9.66 7.29 10.59 6.22Q11.53 5.15 13.17 5.15L13.17 5.15Q13.81 5.15 14.35 5.33Q14.90 5.50 15.35 5.86L15.35 5.86L16.30 4.71L16.95 5.25L15.96 6.47Q16.32 7 16.50 7.68Q16.69 8.35 16.69 9.17L16.69 9.17Q16.69 11.05 15.75 12.12Q14.81 13.19 13.17 13.19L13.17 13.19Q12.52 13.19 11.97 13.02Q11.42 12.84 10.99 12.49L10.99 12.49L10.04 13.64L9.38 13.10ZM21.03 5.34L21.03 5.34Q21.66 5.46 22.01 5.83Q22.35 6.21 22.35 6.77L22.35 6.77Q22.35 7.62 21.70 8.07Q21.05 8.53 19.84 8.53L19.84 8.53Q19.46 8.53 19.03 8.46Q18.60 8.39 18.12 8.25L18.12 8.25L18.12 7.42Q18.48 7.61 18.88 7.70Q19.29 7.79 19.75 7.79L19.75 7.79Q20.49 7.79 20.90 7.52Q21.31 7.25 21.31 6.77L21.31 6.77Q21.31 6.26 20.94 6.00Q20.56 5.74 19.82 5.74L19.82 5.74L19.23 5.74L19.23 5.00L19.87 5.00Q20.51 5.00 20.85 4.79Q21.18 4.57 21.18 4.16L21.18 4.16Q21.18 3.77 20.84 3.56Q20.49 3.35 19.84 3.35L19.84 3.35Q19.57 3.35 19.22 3.41Q18.87 3.47 18.32 3.63L18.32 3.63L18.32 2.84Q18.82 2.73 19.26 2.67Q19.69 2.60 20.07 2.60L20.07 2.60Q21.05 2.60 21.63 3.01Q22.21 3.41 22.21 4.09L22.21 4.09Q22.21 4.56 21.90 4.89Q21.59 5.22 21.03 5.34ZM26.65 5.34L26.65 5.34Q27.28 5.46 27.62 5.83Q27.97 6.21 27.97 6.77L27.97 6.77Q27.97 7.62 27.32 8.07Q26.67 8.53 25.46 8.53L25.46 8.53Q25.07 8.53 24.64 8.46Q24.21 8.39 23.73 8.25L23.73 8.25L23.73 7.42Q24.09 7.61 24.50 7.70Q24.90 7.79 25.36 7.79L25.36 7.79Q26.11 7.79 26.52 7.52Q26.93 7.25 26.93 6.77L26.93 6.77Q26.93 6.26 26.55 6.00Q26.17 5.74 25.43 5.74L25.43 5.74L24.84 5.74L24.84 5.00L25.48 5.00Q26.13 5.00 26.46 4.79Q26.79 4.57 26.79 4.16L26.79 4.16Q26.79 3.77 26.45 3.56Q26.11 3.35 25.46 3.35L25.46 3.35Q25.18 3.35 24.83 3.41Q24.49 3.47 23.93 3.63L23.93 3.63L23.93 2.84Q24.43 2.73 24.87 2.67Q25.31 2.60 25.68 2.60L25.68 2.60Q26.67 2.60 27.24 3.01Q27.82 3.41 27.82 4.09L27.82 4.09Q27.82 4.56 27.51 4.89Q27.21 5.22 26.65 5.34ZM31.94 6.41L31.94 3.55L29.83 6.41L31.94 6.41ZM29.11 6.33L31.79 2.72L32.92 2.72L32.92 6.41L33.84 6.41L33.84 7.16L32.92 7.16L32.92 8.43L31.94 8.43L31.94 7.16L29.11 7.16L29.11 6.33Z"></path></svg>