<svg height="16.296875" width="35.8203125" xmlns="http://www.w3.org/2000/svg" ><path d="M2.54 11.85L2.54 11.85L2.54 15.91L1.27 15.91L1.27 5.34L2.54 5.34L2.54 6.50Q2.93 5.82 3.54 5.49Q4.14 5.15 4.98 5.15L4.98 5.15Q6.38 5.15 7.25 6.26Q8.12 7.37 8.12 9.17L8.12 9.17Q8.12 10.98 7.25 12.09Q6.38 13.19 4.98 13.19L4.98 13.19Q4.14 13.19 3.54 12.86Q2.93 12.53 2.54 11.85ZM6.82 9.17L6.82 9.17Q6.82 7.79 6.24 7.00Q5.67 6.21 4.68 6.21L4.68 6.21Q3.68 6.21 3.11 7.00Q2.54 7.79 2.54 9.17L2.54 9.17Q2.54 10.56 3.11 11.35Q3.68 12.14 4.68 12.14L4.68 12.14Q5.67 12.14 6.24 11.35Q6.82 10.56 6.82 9.17ZM13.17 6.22L13.17 6.22Q12.16 6.22 11.57 7.01Q10.99 7.80 10.99 9.17L10.99 9.17Q10.99 10.55 11.57 11.34Q12.15 12.13 13.17 12.13L13.17 12.13Q14.18 12.13 14.77 11.33Q15.35 10.54 15.35 9.17L15.35 9.17Q15.35 7.81 14.77 7.02Q14.18 6.22 13.17 6.22ZM13.17 5.15L13.17 5.15Q14.81 5.15 15.75 6.22Q16.69 7.29 16.69 9.17L16.69 9.17Q16.69 11.05 15.75 12.12Q14.81 13.19 13.17 13.19L13.17 13.19Q11.53 13.19 10.59 12.12Q9.66 11.05 9.66 9.17L9.66 9.17Q9.66 7.29 10.59 6.22Q11.53 5.15 13.17 5.15ZM19.78 13.00L19.78 7.54L20.21 7.54Q21.52 7.54 22.11 6.76L22.11 6.76Q22.50 6.24 22.50 5.57L22.50 5.57Q22.50 4.66 22.11 4.22L22.11 4.22Q21.43 3.44 20.21 3.44L20.21 3.44Q19.66 3.44 19.12 3.59L19.12 3.59Q18.59 3.73 18.05 4.03L18.05 4.03L18.05 2.85Q18.57 2.61 19.13 2.50L19.13 2.50Q19.68 2.37 20.26 2.37L20.26 2.37Q22.14 2.37 23.08 3.45L23.08 3.45Q23.83 4.30 23.83 5.57L23.83 5.57Q23.83 6.73 23.09 7.52L23.09 7.52Q22.33 8.33 21.16 8.54L21.16 8.54L21.16 13.00L19.78 13.00ZM25.57 5.58L25.57 2.72L29.05 2.72L29.05 3.37L26.38 3.37L26.38 4.76Q26.57 4.70 26.77 4.68L26.77 4.68Q26.96 4.65 27.15 4.65L27.15 4.65Q28.25 4.65 28.90 5.17L28.90 5.17Q29.54 5.69 29.54 6.59L29.54 6.59Q29.54 7.51 28.88 8.03L28.88 8.03Q28.22 8.53 27.02 8.53L27.02 8.53Q26.61 8.53 26.17 8.47Q25.74 8.41 25.29 8.29L25.29 8.29L25.29 7.51Q25.68 7.70 26.11 7.79L26.11 7.79Q26.53 7.88 27.00 7.88L27.00 7.88Q27.76 7.88 28.21 7.53Q28.65 7.18 28.65 6.59Q28.65 6.00 28.21 5.65Q27.76 5.30 27.00 5.30L27.00 5.30Q26.65 5.30 26.29 5.37Q25.94 5.43 25.57 5.58L25.57 5.58ZM31.18 5.58L31.18 2.72L34.67 2.72L34.67 3.37L31.99 3.37L31.99 4.76Q32.18 4.70 32.38 4.68L32.38 4.68Q32.57 4.65 32.76 4.65L32.76 4.65Q33.87 4.65 34.51 5.17L34.51 5.17Q35.15 5.69 35.15 6.59L35.15 6.59Q35.15 7.51 34.49 8.03L34.49 8.03Q33.83 8.53 32.63 8.53L32.63 8.53Q32.22 8.53 31.79 8.47Q31.36 8.41 30.91 8.29L30.91 8.29L30.91 7.51Q31.29 7.70 31.72 7.79L31.72 7.79Q32.14 7.88 32.61 7.88L32.61 7.88Q33.37 7.88 33.82 7.53Q34.26 7.18 34.26 6.59Q34.26 6.00 33.82 5.65Q33.37 5.30 32.61 5.30L32.61 5.30Q32.26 5.30 31.90 5.37Q31.55 5.43 31.18 5.58L31.18 5.58Z"></path></svg>