<svg height="16.296875" width="28.984375" xmlns="http://www.w3.org/2000/svg" ><path d="M2.54 11.85L2.54 11.85L2.54 15.91L1.27 15.91L1.27 5.34L2.54 5.34L2.54 6.50Q2.93 5.82 3.54 5.49Q4.14 5.15 4.98 5.15L4.98 5.15Q6.38 5.15 7.25 6.26Q8.12 7.37 8.12 9.17L8.12 9.17Q8.12 10.98 7.25 12.09Q6.38 13.19 4.98 13.19L4.98 13.19Q4.14 13.19 3.54 12.86Q2.93 12.53 2.54 11.85ZM6.82 9.17L6.82 9.17Q6.82 7.79 6.24 7.00Q5.67 6.21 4.68 6.21L4.68 6.21Q3.68 6.21 3.11 7.00Q2.54 7.79 2.54 9.17L2.54 9.17Q2.54 10.56 3.11 11.35Q3.68 12.14 4.68 12.14L4.68 12.14Q5.67 12.14 6.24 11.35Q6.82 10.56 6.82 9.17ZM10.08 9.97L10.08 9.97L10.08 5.34L11.33 5.34L11.33 9.93Q11.33 11.01 11.76 11.56Q12.18 12.10 13.03 12.10L13.03 12.10Q14.05 12.10 14.64 11.45Q15.23 10.80 15.23 9.68L15.23 9.68L15.23 5.34L16.49 5.34L16.49 13.00L15.23 13.00L15.23 11.82Q14.77 12.52 14.17 12.85Q13.56 13.19 12.76 13.19L12.76 13.19Q11.44 13.19 10.76 12.37Q10.08 11.55 10.08 9.97ZM13.24 5.15L13.24 5.15ZM18.73 5.58L18.73 2.72L22.22 2.72L22.22 3.37L19.54 3.37L19.54 4.76Q19.74 4.70 19.93 4.68L19.93 4.68Q20.13 4.65 20.32 4.65L20.32 4.65Q21.42 4.65 22.06 5.17L22.06 5.17Q22.70 5.69 22.70 6.59L22.70 6.59Q22.70 7.51 22.04 8.03L22.04 8.03Q21.38 8.53 20.18 8.53L20.18 8.53Q19.77 8.53 19.34 8.47Q18.91 8.41 18.46 8.29L18.46 8.29L18.46 7.51Q18.85 7.70 19.27 7.79L19.27 7.79Q19.69 7.88 20.17 7.88L20.17 7.88Q20.92 7.88 21.37 7.53Q21.81 7.18 21.81 6.59Q21.81 6.00 21.37 5.65Q20.92 5.30 20.17 5.30L20.17 5.30Q19.81 5.30 19.46 5.37Q19.10 5.43 18.73 5.58L18.73 5.58ZM26.95 5.34L26.95 5.34Q27.58 5.46 27.93 5.83Q28.27 6.21 28.27 6.77L28.27 6.77Q28.27 7.62 27.62 8.07Q26.97 8.53 25.76 8.53L25.76 8.53Q25.38 8.53 24.95 8.46Q24.52 8.39 24.04 8.25L24.04 8.25L24.04 7.42Q24.40 7.61 24.80 7.70Q25.21 7.79 25.67 7.79L25.67 7.79Q26.41 7.79 26.82 7.52Q27.23 7.25 27.23 6.77L27.23 6.77Q27.23 6.26 26.85 6.00Q26.48 5.74 25.74 5.74L25.74 5.74L25.15 5.74L25.15 5.00L25.79 5.00Q26.43 5.00 26.77 4.79Q27.10 4.57 27.10 4.16L27.10 4.16Q27.10 3.77 26.76 3.56Q26.41 3.35 25.76 3.35L25.76 3.35Q25.49 3.35 25.14 3.41Q24.79 3.47 24.24 3.63L24.24 3.63L24.24 2.84Q24.74 2.73 25.18 2.67Q25.61 2.60 25.99 2.60L25.99 2.60Q26.97 2.60 27.55 3.01Q28.13 3.41 28.13 4.09L28.13 4.09Q28.13 4.56 27.82 4.89Q27.51 5.22 26.95 5.34Z"></path></svg>