<svg height="16.296875" width="34.5966796875" xmlns="http://www.w3.org/2000/svg" ><path d="M2.54 11.85L2.54 11.85L2.54 15.91L1.27 15.91L1.27 5.34L2.54 5.34L2.54 6.50Q2.93 5.82 3.54 5.49Q4.14 5.15 4.98 5.15L4.98 5.15Q6.38 5.15 7.25 6.26Q8.12 7.37 8.12 9.17L8.12 9.17Q8.12 10.98 7.25 12.09Q6.38 13.19 4.98 13.19L4.98 13.19Q4.14 13.19 3.54 12.86Q2.93 12.53 2.54 11.85ZM6.82 9.17L6.82 9.17Q6.82 7.79 6.24 7.00Q5.67 6.21 4.68 6.21L4.68 6.21Q3.68 6.21 3.11 7.00Q2.54 7.79 2.54 9.17L2.54 9.17Q2.54 10.56 3.11 11.35Q3.68 12.14 4.68 12.14L4.68 12.14Q5.67 12.14 6.24 11.35Q6.82 10.56 6.82 9.17ZM10.08 9.97L10.08 9.97L10.08 5.34L11.33 5.34L11.33 9.93Q11.33 11.01 11.76 11.56Q12.18 12.10 13.03 12.10L13.03 12.10Q14.05 12.10 14.64 11.45Q15.23 10.80 15.23 9.68L15.23 9.68L15.23 5.34L16.49 5.34L16.49 13.00L15.23 13.00L15.23 11.82Q14.77 12.52 14.17 12.85Q13.56 13.19 12.76 13.19L12.76 13.19Q11.44 13.19 10.76 12.37Q10.08 11.55 10.08 9.97ZM13.24 5.15L13.24 5.15ZM21.34 5.34L21.34 5.34Q21.97 5.46 22.32 5.83Q22.66 6.21 22.66 6.77L22.66 6.77Q22.66 7.62 22.01 8.07Q21.36 8.53 20.15 8.53L20.15 8.53Q19.76 8.53 19.34 8.46Q18.91 8.39 18.43 8.25L18.43 8.25L18.43 7.42Q18.79 7.61 19.19 7.70Q19.60 7.79 20.06 7.79L20.06 7.79Q20.80 7.79 21.21 7.52Q21.62 7.25 21.62 6.77L21.62 6.77Q21.62 6.26 21.24 6.00Q20.86 5.74 20.13 5.74L20.13 5.74L19.54 5.74L19.54 5.00L20.18 5.00Q20.82 5.00 21.15 4.79Q21.49 4.57 21.49 4.16L21.49 4.16Q21.49 3.77 21.14 3.56Q20.80 3.35 20.15 3.35L20.15 3.35Q19.88 3.35 19.53 3.41Q19.18 3.47 18.63 3.63L18.63 3.63L18.63 2.84Q19.13 2.73 19.56 2.67Q20.00 2.60 20.38 2.60L20.38 2.60Q21.36 2.60 21.94 3.01Q22.52 3.41 22.52 4.09L22.52 4.09Q22.52 4.56 22.21 4.89Q21.90 5.22 21.34 5.34ZM26.95 5.34L26.95 5.34Q27.58 5.46 27.93 5.83Q28.27 6.21 28.27 6.77L28.27 6.77Q28.27 7.62 27.62 8.07Q26.97 8.53 25.76 8.53L25.76 8.53Q25.38 8.53 24.95 8.46Q24.52 8.39 24.04 8.25L24.04 8.25L24.04 7.42Q24.40 7.61 24.80 7.70Q25.21 7.79 25.67 7.79L25.67 7.79Q26.41 7.79 26.82 7.52Q27.23 7.25 27.23 6.77L27.23 6.77Q27.23 6.26 26.85 6.00Q26.48 5.74 25.74 5.74L25.74 5.74L25.15 5.74L25.15 5.00L25.79 5.00Q26.43 5.00 26.77 4.79Q27.10 4.57 27.10 4.16L27.10 4.16Q27.10 3.77 26.76 3.56Q26.41 3.35 25.76 3.35L25.76 3.35Q25.49 3.35 25.14 3.41Q24.79 3.47 24.24 3.63L24.24 3.63L24.24 2.84Q24.74 2.73 25.18 2.67Q25.61 2.60 25.99 2.60L25.99 2.60Q26.97 2.60 27.55 3.01Q28.13 3.41 28.13 4.09L28.13 4.09Q28.13 4.56 27.82 4.89Q27.51 5.22 26.95 5.34ZM32.25 6.41L32.25 3.55L30.13 6.41L32.25 6.41ZM29.42 6.33L32.09 2.72L33.23 2.72L33.23 6.41L34.15 6.41L34.15 7.16L33.23 7.16L33.23 8.43L32.25 8.43L32.25 7.16L29.42 7.16L29.42 6.33Z"></path></svg>