<svg height="16.296875" width="26.8037109375" xmlns="http://www.w3.org/2000/svg" ><path d="M6.20 5.56L6.20 5.56L6.20 6.75Q5.67 6.48 5.09 6.34Q4.52 6.21 3.90 6.21L3.90 6.21Q2.97 6.21 2.50 6.49Q2.03 6.78 2.03 7.36L2.03 7.36Q2.03 7.79 2.37 8.04Q2.70 8.29 3.71 8.52L3.71 8.52L4.14 8.61Q5.48 8.90 6.05 9.42Q6.61 9.95 6.61 10.88L6.61 10.88Q6.61 11.95 5.77 12.57Q4.92 13.19 3.45 13.19L3.45 13.19Q2.83 13.19 2.16 13.07Q1.50 12.95 0.76 12.71L0.76 12.71L0.76 11.42Q1.46 11.78 2.13 11.96Q2.81 12.14 3.47 12.14L3.47 12.14Q4.36 12.14 4.84 11.84Q5.32 11.53 5.32 10.98L5.32 10.98Q5.32 10.47 4.97 10.19Q4.63 9.92 3.46 9.67L3.46 9.67L3.02 9.56Q1.85 9.32 1.33 8.81Q0.81 8.30 0.81 7.41L0.81 7.41Q0.81 6.33 1.58 5.74Q2.34 5.15 3.75 5.15L3.75 5.15Q4.45 5.15 5.07 5.26Q5.68 5.36 6.20 5.56ZM12.29 5.34L15.16 13.00L13.83 13.00L13.13 11.12L9.74 11.12L9.04 13.00L7.71 13.00L10.58 5.34L12.29 5.34ZM11.44 6.57L10.12 10.10L12.75 10.10L11.44 6.57ZM16.55 5.58L16.55 2.72L20.04 2.72L20.04 3.37L17.36 3.37L17.36 4.76Q17.55 4.70 17.75 4.68L17.75 4.68Q17.94 4.65 18.14 4.65L18.14 4.65Q19.24 4.65 19.88 5.17L19.88 5.17Q20.52 5.69 20.52 6.59L20.52 6.59Q20.52 7.51 19.86 8.03L19.86 8.03Q19.20 8.53 18.00 8.53L18.00 8.53Q17.59 8.53 17.16 8.47Q16.73 8.41 16.28 8.29L16.28 8.29L16.28 7.51Q16.67 7.70 17.09 7.79L17.09 7.79Q17.51 7.88 17.99 7.88L17.99 7.88Q18.74 7.88 19.19 7.53Q19.63 7.18 19.63 6.59Q19.63 6.00 19.19 5.65Q18.74 5.30 17.99 5.30L17.99 5.30Q17.63 5.30 17.27 5.37Q16.92 5.43 16.55 5.58L16.55 5.58ZM24.77 5.34L24.77 5.34Q25.40 5.46 25.75 5.83Q26.09 6.21 26.09 6.77L26.09 6.77Q26.09 7.62 25.44 8.07Q24.79 8.53 23.58 8.53L23.58 8.53Q23.19 8.53 22.77 8.46Q22.34 8.39 21.86 8.25L21.86 8.25L21.86 7.42Q22.22 7.61 22.62 7.70Q23.03 7.79 23.49 7.79L23.49 7.79Q24.23 7.79 24.64 7.52Q25.05 7.25 25.05 6.77L25.05 6.77Q25.05 6.26 24.67 6.00Q24.29 5.74 23.56 5.74L23.56 5.74L22.97 5.74L22.97 5.00L23.61 5.00Q24.25 5.00 24.59 4.79Q24.92 4.57 24.92 4.16L24.92 4.16Q24.92 3.77 24.58 3.56Q24.23 3.35 23.58 3.35L23.58 3.35Q23.31 3.35 22.96 3.41Q22.61 3.47 22.06 3.63L22.06 3.63L22.06 2.84Q22.56 2.73 23.00 2.67Q23.43 2.60 23.81 2.60L23.81 2.60Q24.79 2.60 25.37 3.01Q25.95 3.41 25.95 4.09L25.95 4.09Q25.95 4.56 25.64 4.89Q25.33 5.22 24.77 5.34Z"></path></svg>