<svg height="16.296875" width="32.416015625" xmlns="http://www.w3.org/2000/svg" ><path d="M6.20 5.56L6.20 5.56L6.20 6.75Q5.67 6.48 5.09 6.34Q4.52 6.21 3.90 6.21L3.90 6.21Q2.97 6.21 2.50 6.49Q2.03 6.78 2.03 7.36L2.03 7.36Q2.03 7.79 2.37 8.04Q2.70 8.29 3.71 8.52L3.71 8.52L4.14 8.61Q5.48 8.90 6.05 9.42Q6.61 9.95 6.61 10.88L6.61 10.88Q6.61 11.95 5.77 12.57Q4.92 13.19 3.45 13.19L3.45 13.19Q2.83 13.19 2.16 13.07Q1.50 12.95 0.76 12.71L0.76 12.71L0.76 11.42Q1.46 11.78 2.13 11.96Q2.81 12.14 3.47 12.14L3.47 12.14Q4.36 12.14 4.84 11.84Q5.32 11.53 5.32 10.98L5.32 10.98Q5.32 10.47 4.97 10.19Q4.63 9.92 3.46 9.67L3.46 9.67L3.02 9.56Q1.85 9.32 1.33 8.81Q0.81 8.30 0.81 7.41L0.81 7.41Q0.81 6.33 1.58 5.74Q2.34 5.15 3.75 5.15L3.75 5.15Q4.45 5.15 5.07 5.26Q5.68 5.36 6.20 5.56ZM12.29 5.34L15.16 13.00L13.83 13.00L13.13 11.12L9.74 11.12L9.04 13.00L7.71 13.00L10.58 5.34L12.29 5.34ZM11.44 6.57L10.12 10.10L12.75 10.10L11.44 6.57ZM19.16 5.34L19.16 5.34Q19.79 5.46 20.14 5.83Q20.48 6.21 20.48 6.77L20.48 6.77Q20.48 7.62 19.83 8.07Q19.18 8.53 17.97 8.53L17.97 8.53Q17.58 8.53 17.15 8.46Q16.73 8.39 16.25 8.25L16.25 8.25L16.25 7.42Q16.60 7.61 17.01 7.70Q17.42 7.79 17.88 7.79L17.88 7.79Q18.62 7.79 19.03 7.52Q19.44 7.25 19.44 6.77L19.44 6.77Q19.44 6.26 19.06 6.00Q18.68 5.74 17.94 5.74L17.94 5.74L17.36 5.74L17.36 5.00L18.00 5.00Q18.64 5.00 18.97 4.79Q19.30 4.57 19.30 4.16L19.30 4.16Q19.30 3.77 18.96 3.56Q18.62 3.35 17.97 3.35L17.97 3.35Q17.70 3.35 17.35 3.41Q17.00 3.47 16.45 3.63L16.45 3.63L16.45 2.84Q16.95 2.73 17.38 2.67Q17.82 2.60 18.20 2.60L18.20 2.60Q19.18 2.60 19.76 3.01Q20.34 3.41 20.34 4.09L20.34 4.09Q20.34 4.56 20.03 4.89Q19.72 5.22 19.16 5.34ZM24.77 5.34L24.77 5.34Q25.40 5.46 25.75 5.83Q26.09 6.21 26.09 6.77L26.09 6.77Q26.09 7.62 25.44 8.07Q24.79 8.53 23.58 8.53L23.58 8.53Q23.19 8.53 22.77 8.46Q22.34 8.39 21.86 8.25L21.86 8.25L21.86 7.42Q22.22 7.61 22.62 7.70Q23.03 7.79 23.49 7.79L23.49 7.79Q24.23 7.79 24.64 7.52Q25.05 7.25 25.05 6.77L25.05 6.77Q25.05 6.26 24.67 6.00Q24.29 5.74 23.56 5.74L23.56 5.74L22.97 5.74L22.97 5.00L23.61 5.00Q24.25 5.00 24.59 4.79Q24.92 4.57 24.92 4.16L24.92 4.16Q24.92 3.77 24.58 3.56Q24.23 3.35 23.58 3.35L23.58 3.35Q23.31 3.35 22.96 3.41Q22.61 3.47 22.06 3.63L22.06 3.63L22.06 2.84Q22.56 2.73 23.00 2.67Q23.43 2.60 23.81 2.60L23.81 2.60Q24.79 2.60 25.37 3.01Q25.95 3.41 25.95 4.09L25.95 4.09Q25.95 4.56 25.64 4.89Q25.33 5.22 24.77 5.34ZM30.06 6.41L30.06 3.55L27.95 6.41L30.06 6.41ZM27.23 6.33L29.91 2.72L31.05 2.72L31.05 6.41L31.97 6.41L31.97 7.16L31.05 7.16L31.05 8.43L30.06 8.43L30.06 7.16L27.23 7.16L27.23 6.33Z"></path></svg>