<svg height="16.296875" width="32.7099609375" xmlns="http://www.w3.org/2000/svg" ><path d="M6.20 5.56L6.20 5.56L6.20 6.75Q5.67 6.48 5.09 6.34Q4.52 6.21 3.90 6.21L3.90 6.21Q2.97 6.21 2.50 6.49Q2.03 6.78 2.03 7.36L2.03 7.36Q2.03 7.79 2.37 8.04Q2.70 8.29 3.71 8.52L3.71 8.52L4.14 8.61Q5.48 8.90 6.05 9.42Q6.61 9.95 6.61 10.88L6.61 10.88Q6.61 11.95 5.77 12.57Q4.92 13.19 3.45 13.19L3.45 13.19Q2.83 13.19 2.16 13.07Q1.50 12.95 0.76 12.71L0.76 12.71L0.76 11.42Q1.46 11.78 2.13 11.96Q2.81 12.14 3.47 12.14L3.47 12.14Q4.36 12.14 4.84 11.84Q5.32 11.53 5.32 10.98L5.32 10.98Q5.32 10.47 4.97 10.19Q4.63 9.92 3.46 9.67L3.46 9.67L3.02 9.56Q1.85 9.32 1.33 8.81Q0.81 8.30 0.81 7.41L0.81 7.41Q0.81 6.33 1.58 5.74Q2.34 5.15 3.75 5.15L3.75 5.15Q4.45 5.15 5.07 5.26Q5.68 5.36 6.20 5.56ZM13.34 9.15L12.09 9.15Q10.57 9.15 9.98 9.50Q9.39 9.84 9.39 10.68L9.39 10.68Q9.39 11.35 9.83 11.75Q10.27 12.14 11.03 12.14L11.03 12.14Q12.08 12.14 12.71 11.40Q13.34 10.66 13.34 9.43L13.34 9.43L13.34 9.15ZM14.60 8.63L14.60 8.63L14.60 13.00L13.34 13.00L13.34 11.83Q12.91 12.53 12.27 12.86Q11.63 13.19 10.70 13.19L10.70 13.19Q9.52 13.19 8.83 12.53Q8.13 11.87 8.13 10.77L8.13 10.77Q8.13 9.47 9.00 8.82Q9.86 8.16 11.58 8.16L11.58 8.16L13.34 8.16L13.34 8.04Q13.34 7.17 12.77 6.70Q12.20 6.22 11.17 6.22L11.17 6.22Q10.51 6.22 9.89 6.38Q9.27 6.54 8.70 6.85L8.70 6.85L8.70 5.69Q9.39 5.42 10.04 5.29Q10.68 5.15 11.30 5.15L11.30 5.15Q12.96 5.15 13.78 6.02Q14.60 6.88 14.60 8.63ZM12.33 3.63L12.33 3.63L11.94 3.25Q11.79 3.12 11.68 3.05Q11.57 2.99 11.48 2.99L11.48 2.99Q11.22 2.99 11.09 3.24Q10.97 3.49 10.96 4.05L10.96 4.05L10.10 4.05Q10.12 3.12 10.47 2.62Q10.81 2.12 11.44 2.12L11.44 2.12Q11.70 2.12 11.92 2.21Q12.13 2.31 12.39 2.54L12.39 2.54L12.78 2.91Q12.93 3.05 13.04 3.11Q13.15 3.18 13.24 3.18L13.24 3.18Q13.50 3.18 13.62 2.93Q13.75 2.68 13.76 2.12L13.76 2.12L14.62 2.12Q14.60 3.04 14.25 3.54Q13.90 4.05 13.28 4.05L13.28 4.05Q13.02 4.05 12.80 3.95Q12.58 3.86 12.33 3.63ZM19.46 5.34L19.46 5.34Q20.08 5.46 20.43 5.83Q20.77 6.21 20.77 6.77L20.77 6.77Q20.77 7.62 20.13 8.07Q19.48 8.53 18.27 8.53L18.27 8.53Q17.88 8.53 17.45 8.46Q17.02 8.39 16.54 8.25L16.54 8.25L16.54 7.42Q16.90 7.61 17.31 7.70Q17.71 7.79 18.17 7.79L18.17 7.79Q18.92 7.79 19.33 7.52Q19.74 7.25 19.74 6.77L19.74 6.77Q19.74 6.26 19.36 6.00Q18.98 5.74 18.24 5.74L18.24 5.74L17.65 5.74L17.65 5.00L18.29 5.00Q18.94 5.00 19.27 4.79Q19.60 4.57 19.60 4.16L19.60 4.16Q19.60 3.77 19.26 3.56Q18.92 3.35 18.27 3.35L18.27 3.35Q17.99 3.35 17.64 3.41Q17.29 3.47 16.74 3.63L16.74 3.63L16.74 2.84Q17.24 2.73 17.68 2.67Q18.12 2.60 18.49 2.60L18.49 2.60Q19.48 2.60 20.05 3.01Q20.63 3.41 20.63 4.09L20.63 4.09Q20.63 4.56 20.32 4.89Q20.02 5.22 19.46 5.34ZM25.07 5.34L25.07 5.34Q25.70 5.46 26.04 5.83Q26.39 6.21 26.39 6.77L26.39 6.77Q26.39 7.62 25.74 8.07Q25.09 8.53 23.88 8.53L23.88 8.53Q23.49 8.53 23.06 8.46Q22.63 8.39 22.16 8.25L22.16 8.25L22.16 7.42Q22.51 7.61 22.92 7.70Q23.32 7.79 23.78 7.79L23.78 7.79Q24.53 7.79 24.94 7.52Q25.35 7.25 25.35 6.77L25.35 6.77Q25.35 6.26 24.97 6.00Q24.59 5.74 23.85 5.74L23.85 5.74L23.26 5.74L23.26 5.00L23.91 5.00Q24.55 5.00 24.88 4.79Q25.21 4.57 25.21 4.16L25.21 4.16Q25.21 3.77 24.87 3.56Q24.53 3.35 23.88 3.35L23.88 3.35Q23.60 3.35 23.26 3.41Q22.91 3.47 22.35 3.63L22.35 3.63L22.35 2.84Q22.85 2.73 23.29 2.67Q23.73 2.60 24.10 2.60L24.10 2.60Q25.09 2.60 25.67 3.01Q26.24 3.41 26.24 4.09L26.24 4.09Q26.24 4.56 25.94 4.89Q25.63 5.22 25.07 5.34ZM30.36 6.41L30.36 3.55L28.25 6.41L30.36 6.41ZM27.53 6.33L30.21 2.72L31.34 2.72L31.34 6.41L32.27 6.41L32.27 7.16L31.34 7.16L31.34 8.43L30.36 8.43L30.36 7.16L27.53 7.16L27.53 6.33Z"></path></svg>