<svg height="16.296875" width="27.4052734375" xmlns="http://www.w3.org/2000/svg" ><path d="M6.20 5.56L6.20 5.56L6.20 6.75Q5.67 6.48 5.09 6.34Q4.52 6.21 3.90 6.21L3.90 6.21Q2.97 6.21 2.50 6.49Q2.03 6.78 2.03 7.36L2.03 7.36Q2.03 7.79 2.37 8.04Q2.70 8.29 3.71 8.52L3.71 8.52L4.14 8.61Q5.48 8.90 6.05 9.42Q6.61 9.95 6.61 10.88L6.61 10.88Q6.61 11.95 5.77 12.57Q4.92 13.19 3.45 13.19L3.45 13.19Q2.83 13.19 2.16 13.07Q1.50 12.95 0.76 12.71L0.76 12.71L0.76 11.42Q1.46 11.78 2.13 11.96Q2.81 12.14 3.47 12.14L3.47 12.14Q4.36 12.14 4.84 11.84Q5.32 11.53 5.32 10.98L5.32 10.98Q5.32 10.47 4.97 10.19Q4.63 9.92 3.46 9.67L3.46 9.67L3.02 9.56Q1.85 9.32 1.33 8.81Q0.81 8.30 0.81 7.41L0.81 7.41Q0.81 6.33 1.58 5.74Q2.34 5.15 3.75 5.15L3.75 5.15Q4.45 5.15 5.07 5.26Q5.68 5.36 6.20 5.56ZM13.65 6.50L13.65 6.50L13.65 5.34L14.91 5.34L14.91 13.00L13.65 13.00L13.65 11.85Q13.25 12.53 12.65 12.86Q12.04 13.19 11.20 13.19L11.20 13.19Q9.81 13.19 8.94 12.09Q8.07 10.98 8.07 9.17L8.07 9.17Q8.07 7.37 8.94 6.26Q9.81 5.15 11.20 5.15L11.20 5.15Q12.04 5.15 12.65 5.49Q13.25 5.82 13.65 6.50ZM9.37 9.17L9.37 9.17Q9.37 10.56 9.94 11.35Q10.51 12.14 11.50 12.14L11.50 12.14Q12.50 12.14 13.08 11.35Q13.65 10.56 13.65 9.17L13.65 9.17Q13.65 7.79 13.08 7.00Q12.50 6.21 11.50 6.21L11.50 6.21Q10.51 6.21 9.94 7.00Q9.37 7.79 9.37 9.17ZM12.64 3.63L12.64 3.63L12.25 3.25Q12.10 3.12 11.99 3.05Q11.87 2.99 11.79 2.99L11.79 2.99Q11.53 2.99 11.40 3.24Q11.28 3.49 11.27 4.05L11.27 4.05L10.41 4.05Q10.42 3.12 10.77 2.62Q11.12 2.12 11.74 2.12L11.74 2.12Q12.00 2.12 12.22 2.21Q12.44 2.31 12.69 2.54L12.69 2.54L13.08 2.91Q13.23 3.05 13.35 3.11Q13.46 3.18 13.55 3.18L13.55 3.18Q13.81 3.18 13.93 2.93Q14.05 2.68 14.07 2.12L14.07 2.12L14.92 2.12Q14.91 3.04 14.56 3.54Q14.21 4.05 13.59 4.05L13.59 4.05Q13.33 4.05 13.11 3.95Q12.89 3.86 12.64 3.63ZM17.15 5.58L17.15 2.72L20.64 2.72L20.64 3.37L17.96 3.37L17.96 4.76Q18.16 4.70 18.35 4.68L18.35 4.68Q18.55 4.65 18.74 4.65L18.74 4.65Q19.84 4.65 20.48 5.17L20.48 5.17Q21.12 5.69 21.12 6.59L21.12 6.59Q21.12 7.51 20.46 8.03L20.46 8.03Q19.80 8.53 18.60 8.53L18.60 8.53Q18.19 8.53 17.76 8.47Q17.33 8.41 16.88 8.29L16.88 8.29L16.88 7.51Q17.27 7.70 17.69 7.79L17.69 7.79Q18.12 7.88 18.59 7.88L18.59 7.88Q19.35 7.88 19.79 7.53Q20.23 7.18 20.23 6.59Q20.23 6.00 19.79 5.65Q19.35 5.30 18.59 5.30L18.59 5.30Q18.23 5.30 17.88 5.37Q17.52 5.43 17.15 5.58L17.15 5.58ZM25.38 5.34L25.38 5.34Q26.00 5.46 26.35 5.83Q26.69 6.21 26.69 6.77L26.69 6.77Q26.69 7.62 26.04 8.07Q25.40 8.53 24.19 8.53L24.19 8.53Q23.80 8.53 23.37 8.46Q22.94 8.39 22.46 8.25L22.46 8.25L22.46 7.42Q22.82 7.61 23.23 7.70Q23.63 7.79 24.09 7.79L24.09 7.79Q24.83 7.79 25.25 7.52Q25.66 7.25 25.66 6.77L25.66 6.77Q25.66 6.26 25.28 6.00Q24.90 5.74 24.16 5.74L24.16 5.74L23.57 5.74L23.57 5.00L24.21 5.00Q24.86 5.00 25.19 4.79Q25.52 4.57 25.52 4.16L25.52 4.16Q25.52 3.77 25.18 3.56Q24.83 3.35 24.19 3.35L24.19 3.35Q23.91 3.35 23.56 3.41Q23.21 3.47 22.66 3.63L22.66 3.63L22.66 2.84Q23.16 2.73 23.60 2.67Q24.04 2.60 24.41 2.60L24.41 2.60Q25.40 2.60 25.97 3.01Q26.55 3.41 26.55 4.09L26.55 4.09Q26.55 4.56 26.24 4.89Q25.94 5.22 25.38 5.34Z"></path></svg>