<svg height="16.296875" width="33.947265625" xmlns="http://www.w3.org/2000/svg" ><path d="M6.20 5.56L6.20 5.56L6.20 6.75Q5.67 6.48 5.09 6.34Q4.52 6.21 3.90 6.21L3.90 6.21Q2.97 6.21 2.50 6.49Q2.03 6.78 2.03 7.36L2.03 7.36Q2.03 7.79 2.37 8.04Q2.70 8.29 3.71 8.52L3.71 8.52L4.14 8.61Q5.48 8.90 6.05 9.42Q6.61 9.95 6.61 10.88L6.61 10.88Q6.61 11.95 5.77 12.57Q4.92 13.19 3.45 13.19L3.45 13.19Q2.83 13.19 2.16 13.07Q1.50 12.95 0.76 12.71L0.76 12.71L0.76 11.42Q1.46 11.78 2.13 11.96Q2.81 12.14 3.47 12.14L3.47 12.14Q4.36 12.14 4.84 11.84Q5.32 11.53 5.32 10.98L5.32 10.98Q5.32 10.47 4.97 10.19Q4.63 9.92 3.46 9.67L3.46 9.67L3.02 9.56Q1.85 9.32 1.33 8.81Q0.81 8.30 0.81 7.41L0.81 7.41Q0.81 6.33 1.58 5.74Q2.34 5.15 3.75 5.15L3.75 5.15Q4.45 5.15 5.07 5.26Q5.68 5.36 6.20 5.56ZM12.29 5.34L15.16 13.00L13.83 13.00L13.13 11.12L9.74 11.12L9.04 13.00L7.71 13.00L10.58 5.34L12.29 5.34ZM11.44 6.57L10.12 10.10L12.75 10.10L11.44 6.57ZM17.91 13.00L17.90 7.54L18.33 7.54Q19.65 7.54 20.23 6.76L20.23 6.76Q20.63 6.24 20.63 5.57L20.63 5.57Q20.62 4.66 20.23 4.22L20.23 4.22Q19.56 3.44 18.33 3.44L18.33 3.44Q17.79 3.44 17.25 3.59L17.25 3.59Q16.71 3.73 16.18 4.03L16.18 4.03L16.18 2.85Q16.70 2.61 17.25 2.50L17.25 2.50Q17.81 2.37 18.39 2.37L18.39 2.37Q20.27 2.37 21.21 3.45L21.21 3.45Q21.96 4.30 21.96 5.57L21.96 5.57Q21.96 6.73 21.22 7.52L21.22 7.52Q20.45 8.33 19.29 8.54L19.29 8.54L19.29 13.00L17.91 13.00ZM23.69 5.58L23.69 2.72L27.18 2.72L27.18 3.37L24.51 3.37L24.51 4.76Q24.70 4.70 24.90 4.68L24.90 4.68Q25.09 4.65 25.28 4.65L25.28 4.65Q26.38 4.65 27.02 5.17L27.02 5.17Q27.67 5.69 27.67 6.59L27.67 6.59Q27.67 7.51 27.00 8.03L27.00 8.03Q26.35 8.53 25.14 8.53L25.14 8.53Q24.73 8.53 24.30 8.47Q23.87 8.41 23.42 8.29L23.42 8.29L23.42 7.51Q23.81 7.70 24.23 7.79L24.23 7.79Q24.66 7.88 25.13 7.88L25.13 7.88Q25.89 7.88 26.33 7.53Q26.78 7.18 26.78 6.59Q26.78 6.00 26.33 5.65Q25.89 5.30 25.13 5.30L25.13 5.30Q24.77 5.30 24.42 5.37Q24.06 5.43 23.69 5.58L23.69 5.58ZM29.31 5.58L29.31 2.72L32.79 2.72L32.79 3.37L30.12 3.37L30.12 4.76Q30.31 4.70 30.51 4.68L30.51 4.68Q30.70 4.65 30.89 4.65L30.89 4.65Q31.99 4.65 32.63 5.17L32.63 5.17Q33.28 5.69 33.28 6.59L33.28 6.59Q33.28 7.51 32.61 8.03L32.61 8.03Q31.96 8.53 30.75 8.53L30.75 8.53Q30.34 8.53 29.91 8.47Q29.48 8.41 29.03 8.29L29.03 8.29L29.03 7.51Q29.42 7.70 29.85 7.79L29.85 7.79Q30.27 7.88 30.74 7.88L30.74 7.88Q31.50 7.88 31.94 7.53Q32.39 7.18 32.39 6.59Q32.39 6.00 31.94 5.65Q31.50 5.30 30.74 5.30L30.74 5.30Q30.39 5.30 30.03 5.37Q29.67 5.43 29.31 5.58L29.31 5.58Z"></path></svg>