<svg height="16.296875" width="26.208984375" xmlns="http://www.w3.org/2000/svg" ><path d="M6.20 5.56L6.20 5.56L6.20 6.75Q5.67 6.48 5.09 6.34Q4.52 6.21 3.90 6.21L3.90 6.21Q2.97 6.21 2.50 6.49Q2.03 6.78 2.03 7.36L2.03 7.36Q2.03 7.79 2.37 8.04Q2.70 8.29 3.71 8.52L3.71 8.52L4.14 8.61Q5.48 8.90 6.05 9.42Q6.61 9.95 6.61 10.88L6.61 10.88Q6.61 11.95 5.77 12.57Q4.92 13.19 3.45 13.19L3.45 13.19Q2.83 13.19 2.16 13.07Q1.50 12.95 0.76 12.71L0.76 12.71L0.76 11.42Q1.46 11.78 2.13 11.96Q2.81 12.14 3.47 12.14L3.47 12.14Q4.36 12.14 4.84 11.84Q5.32 11.53 5.32 10.98L5.32 10.98Q5.32 10.47 4.97 10.19Q4.63 9.92 3.46 9.67L3.46 9.67L3.02 9.56Q1.85 9.32 1.33 8.81Q0.81 8.30 0.81 7.41L0.81 7.41Q0.81 6.33 1.58 5.74Q2.34 5.15 3.75 5.15L3.75 5.15Q4.45 5.15 5.07 5.26Q5.68 5.36 6.20 5.56ZM8.16 6.81L8.16 5.65Q8.69 5.40 9.25 5.28Q9.82 5.15 10.45 5.15L10.45 5.15Q12.18 5.15 13.20 6.24Q14.22 7.33 14.22 9.17L14.22 9.17Q14.22 11.05 13.19 12.12Q12.16 13.19 10.37 13.19L10.37 13.19Q9.79 13.19 9.24 13.07Q8.68 12.95 8.16 12.71L8.16 12.71L8.16 11.54Q8.70 11.83 9.23 11.98Q9.77 12.13 10.32 12.13L10.32 12.13Q11.54 12.13 12.22 11.35Q12.89 10.58 12.89 9.17L12.89 9.17Q12.89 7.77 12.22 7.00Q11.54 6.22 10.32 6.22L10.32 6.22Q9.77 6.22 9.23 6.37Q8.70 6.51 8.16 6.81L8.16 6.81ZM15.96 5.58L15.96 2.72L19.44 2.72L19.44 3.37L16.77 3.37L16.77 4.76Q16.96 4.70 17.16 4.68L17.16 4.68Q17.35 4.65 17.54 4.65L17.54 4.65Q18.64 4.65 19.28 5.17L19.28 5.17Q19.93 5.69 19.93 6.59L19.93 6.59Q19.93 7.51 19.26 8.03L19.26 8.03Q18.61 8.53 17.40 8.53L17.40 8.53Q16.99 8.53 16.56 8.47Q16.13 8.41 15.68 8.29L15.68 8.29L15.68 7.51Q16.07 7.70 16.50 7.79L16.50 7.79Q16.92 7.88 17.39 7.88L17.39 7.88Q18.15 7.88 18.59 7.53Q19.04 7.18 19.04 6.59Q19.04 6.00 18.59 5.65Q18.15 5.30 17.39 5.30L17.39 5.30Q17.04 5.30 16.68 5.37Q16.32 5.43 15.96 5.58L15.96 5.58ZM24.18 5.34L24.18 5.34Q24.81 5.46 25.15 5.83Q25.50 6.21 25.50 6.77L25.50 6.77Q25.50 7.62 24.85 8.07Q24.20 8.53 22.99 8.53L22.99 8.53Q22.60 8.53 22.17 8.46Q21.75 8.39 21.27 8.25L21.27 8.25L21.27 7.42Q21.62 7.61 22.03 7.70Q22.44 7.79 22.89 7.79L22.89 7.79Q23.64 7.79 24.05 7.52Q24.46 7.25 24.46 6.77L24.46 6.77Q24.46 6.26 24.08 6.00Q23.70 5.74 22.96 5.74L22.96 5.74L22.37 5.74L22.37 5.00L23.02 5.00Q23.66 5.00 23.99 4.79Q24.32 4.57 24.32 4.16L24.32 4.16Q24.32 3.77 23.98 3.56Q23.64 3.35 22.99 3.35L22.99 3.35Q22.72 3.35 22.37 3.41Q22.02 3.47 21.46 3.63L21.46 3.63L21.46 2.84Q21.96 2.73 22.40 2.67Q22.84 2.60 23.21 2.60L23.21 2.60Q24.20 2.60 24.78 3.01Q25.35 3.41 25.35 4.09L25.35 4.09Q25.35 4.56 25.05 4.89Q24.74 5.22 24.18 5.34Z"></path></svg>