<svg height="16.296875" width="31.0009765625" xmlns="http://www.w3.org/2000/svg" ><path d="M6.20 5.56L6.20 5.56L6.20 6.75Q5.67 6.48 5.09 6.34Q4.52 6.21 3.90 6.21L3.90 6.21Q2.97 6.21 2.50 6.49Q2.03 6.78 2.03 7.36L2.03 7.36Q2.03 7.79 2.37 8.04Q2.70 8.29 3.71 8.52L3.71 8.52L4.14 8.61Q5.48 8.90 6.05 9.42Q6.61 9.95 6.61 10.88L6.61 10.88Q6.61 11.95 5.77 12.57Q4.92 13.19 3.45 13.19L3.45 13.19Q2.83 13.19 2.16 13.07Q1.50 12.95 0.76 12.71L0.76 12.71L0.76 11.42Q1.46 11.78 2.13 11.96Q2.81 12.14 3.47 12.14L3.47 12.14Q4.36 12.14 4.84 11.84Q5.32 11.53 5.32 10.98L5.32 10.98Q5.32 10.47 4.97 10.19Q4.63 9.92 3.46 9.67L3.46 9.67L3.02 9.56Q1.85 9.32 1.33 8.81Q0.81 8.30 0.81 7.41L0.81 7.41Q0.81 6.33 1.58 5.74Q2.34 5.15 3.75 5.15L3.75 5.15Q4.45 5.15 5.07 5.26Q5.68 5.36 6.20 5.56ZM8.57 13.00L8.57 5.34L13.41 5.34L13.41 6.35L9.84 6.35L9.84 8.41L13.25 8.41L13.25 9.42L9.84 9.42L9.84 11.99L13.49 11.99L13.49 13.00L8.57 13.00ZM17.75 5.34L17.75 5.34Q18.38 5.46 18.72 5.83Q19.07 6.21 19.07 6.77L19.07 6.77Q19.07 7.62 18.42 8.07Q17.77 8.53 16.56 8.53L16.56 8.53Q16.17 8.53 15.74 8.46Q15.31 8.39 14.83 8.25L14.83 8.25L14.83 7.42Q15.19 7.61 15.60 7.70Q16.00 7.79 16.46 7.79L16.46 7.79Q17.21 7.79 17.62 7.52Q18.03 7.25 18.03 6.77L18.03 6.77Q18.03 6.26 17.65 6.00Q17.27 5.74 16.53 5.74L16.53 5.74L15.94 5.74L15.94 5.00L16.58 5.00Q17.23 5.00 17.56 4.79Q17.89 4.57 17.89 4.16L17.89 4.16Q17.89 3.77 17.55 3.56Q17.21 3.35 16.56 3.35L16.56 3.35Q16.28 3.35 15.93 3.41Q15.59 3.47 15.03 3.63L15.03 3.63L15.03 2.84Q15.53 2.73 15.97 2.67Q16.41 2.60 16.78 2.60L16.78 2.60Q17.77 2.60 18.34 3.01Q18.92 3.41 18.92 4.09L18.92 4.09Q18.92 4.56 18.61 4.89Q18.31 5.22 17.75 5.34ZM23.36 5.34L23.36 5.34Q23.99 5.46 24.33 5.83Q24.68 6.21 24.68 6.77L24.68 6.77Q24.68 7.62 24.03 8.07Q23.38 8.53 22.17 8.53L22.17 8.53Q21.78 8.53 21.35 8.46Q20.92 8.39 20.45 8.25L20.45 8.25L20.45 7.42Q20.80 7.61 21.21 7.70Q21.62 7.79 22.07 7.79L22.07 7.79Q22.82 7.79 23.23 7.52Q23.64 7.25 23.64 6.77L23.64 6.77Q23.64 6.26 23.26 6.00Q22.88 5.74 22.14 5.74L22.14 5.74L21.55 5.74L21.55 5.00L22.20 5.00Q22.84 5.00 23.17 4.79Q23.50 4.57 23.50 4.16L23.50 4.16Q23.50 3.77 23.16 3.56Q22.82 3.35 22.17 3.35L22.17 3.35Q21.90 3.35 21.55 3.41Q21.20 3.47 20.64 3.63L20.64 3.63L20.64 2.84Q21.14 2.73 21.58 2.67Q22.02 2.60 22.39 2.60L22.39 2.60Q23.38 2.60 23.96 3.01Q24.53 3.41 24.53 4.09L24.53 4.09Q24.53 4.56 24.23 4.89Q23.92 5.22 23.36 5.34ZM28.65 6.41L28.65 3.55L26.54 6.41L28.65 6.41ZM25.82 6.33L28.50 2.72L29.63 2.72L29.63 6.41L30.56 6.41L30.56 7.16L29.63 7.16L29.63 8.43L28.65 8.43L28.65 7.16L25.82 7.16L25.82 6.33Z"></path></svg>