<svg height="16.296875" width="36.0048828125" xmlns="http://www.w3.org/2000/svg" ><path d="M6.20 5.56L6.20 5.56L6.20 6.75Q5.67 6.48 5.09 6.34Q4.52 6.21 3.90 6.21L3.90 6.21Q2.97 6.21 2.50 6.49Q2.03 6.78 2.03 7.36L2.03 7.36Q2.03 7.79 2.37 8.04Q2.70 8.29 3.71 8.52L3.71 8.52L4.14 8.61Q5.48 8.90 6.05 9.42Q6.61 9.95 6.61 10.88L6.61 10.88Q6.61 11.95 5.77 12.57Q4.92 13.19 3.45 13.19L3.45 13.19Q2.83 13.19 2.16 13.07Q1.50 12.95 0.76 12.71L0.76 12.71L0.76 11.42Q1.46 11.78 2.13 11.96Q2.81 12.14 3.47 12.14L3.47 12.14Q4.36 12.14 4.84 11.84Q5.32 11.53 5.32 10.98L5.32 10.98Q5.32 10.47 4.97 10.19Q4.63 9.92 3.46 9.67L3.46 9.67L3.02 9.56Q1.85 9.32 1.33 8.81Q0.81 8.30 0.81 7.41L0.81 7.41Q0.81 6.33 1.58 5.74Q2.34 5.15 3.75 5.15L3.75 5.15Q4.45 5.15 5.07 5.26Q5.68 5.36 6.20 5.56ZM8.07 9.50L8.07 9.50L8.07 8.88L13.85 8.88Q13.77 7.58 13.07 6.90Q12.37 6.22 11.12 6.22L11.12 6.22Q10.39 6.22 9.71 6.40Q9.03 6.58 8.36 6.93L8.36 6.93L8.36 5.74Q9.04 5.46 9.75 5.30Q10.46 5.15 11.19 5.15L11.19 5.15Q13.02 5.15 14.09 6.22Q15.16 7.29 15.16 9.11L15.16 9.11Q15.16 10.99 14.15 12.09Q13.13 13.19 11.41 13.19L11.41 13.19Q9.86 13.19 8.97 12.20Q8.07 11.20 8.07 9.50ZM13.81 9.86L9.32 9.86Q9.34 10.90 9.90 11.51Q10.47 12.13 11.40 12.13L11.40 12.13Q12.45 12.13 13.08 11.53Q13.71 10.94 13.81 9.86L13.81 9.86ZM23.59 8.37L23.59 8.37L23.59 13.00L22.33 13.00L22.33 8.42Q22.33 7.33 21.91 6.79Q21.49 6.25 20.64 6.25L20.64 6.25Q19.62 6.25 19.03 6.90Q18.44 7.55 18.44 8.67L18.44 8.67L18.44 13.00L17.18 13.00L17.18 5.34L18.44 5.34L18.44 6.53Q18.89 5.84 19.51 5.50Q20.12 5.15 20.92 5.15L20.92 5.15Q22.24 5.15 22.91 5.97Q23.59 6.79 23.59 8.37ZM25.75 5.58L25.75 2.72L29.24 2.72L29.24 3.37L26.56 3.37L26.56 4.76Q26.76 4.70 26.95 4.68L26.95 4.68Q27.15 4.65 27.34 4.65L27.34 4.65Q28.44 4.65 29.08 5.17L29.08 5.17Q29.72 5.69 29.72 6.59L29.72 6.59Q29.72 7.51 29.06 8.03L29.06 8.03Q28.40 8.53 27.20 8.53L27.20 8.53Q26.79 8.53 26.36 8.47Q25.93 8.41 25.48 8.29L25.48 8.29L25.48 7.51Q25.87 7.70 26.29 7.79L26.29 7.79Q26.71 7.88 27.19 7.88L27.19 7.88Q27.95 7.88 28.39 7.53Q28.83 7.18 28.83 6.59Q28.83 6.00 28.39 5.65Q27.95 5.30 27.19 5.30L27.19 5.30Q26.83 5.30 26.48 5.37Q26.12 5.43 25.75 5.58L25.75 5.58ZM33.97 5.34L33.97 5.34Q34.60 5.46 34.95 5.83Q35.29 6.21 35.29 6.77L35.29 6.77Q35.29 7.62 34.64 8.07Q34.00 8.53 32.79 8.53L32.79 8.53Q32.40 8.53 31.97 8.46Q31.54 8.39 31.06 8.25L31.06 8.25L31.06 7.42Q31.42 7.61 31.82 7.70Q32.23 7.79 32.69 7.79L32.69 7.79Q33.43 7.79 33.84 7.52Q34.25 7.25 34.25 6.77L34.25 6.77Q34.25 6.26 33.88 6.00Q33.50 5.74 32.76 5.74L32.76 5.74L32.17 5.74L32.17 5.00L32.81 5.00Q33.46 5.00 33.79 4.79Q34.12 4.57 34.12 4.16L34.12 4.16Q34.12 3.77 33.78 3.56Q33.43 3.35 32.79 3.35L32.79 3.35Q32.51 3.35 32.16 3.41Q31.81 3.47 31.26 3.63L31.26 3.63L31.26 2.84Q31.76 2.73 32.20 2.67Q32.63 2.60 33.01 2.60L33.01 2.60Q34.00 2.60 34.57 3.01Q35.15 3.41 35.15 4.09L35.15 4.09Q35.15 4.56 34.84 4.89Q34.54 5.22 33.97 5.34Z"></path></svg>