<svg height="16.296875" width="34.275390625" xmlns="http://www.w3.org/2000/svg" ><path d="M6.20 5.56L6.20 5.56L6.20 6.75Q5.67 6.48 5.09 6.34Q4.52 6.21 3.90 6.21L3.90 6.21Q2.97 6.21 2.50 6.49Q2.03 6.78 2.03 7.36L2.03 7.36Q2.03 7.79 2.37 8.04Q2.70 8.29 3.71 8.52L3.71 8.52L4.14 8.61Q5.48 8.90 6.05 9.42Q6.61 9.95 6.61 10.88L6.61 10.88Q6.61 11.95 5.77 12.57Q4.92 13.19 3.45 13.19L3.45 13.19Q2.83 13.19 2.16 13.07Q1.50 12.95 0.76 12.71L0.76 12.71L0.76 11.42Q1.46 11.78 2.13 11.96Q2.81 12.14 3.47 12.14L3.47 12.14Q4.36 12.14 4.84 11.84Q5.32 11.53 5.32 10.98L5.32 10.98Q5.32 10.47 4.97 10.19Q4.63 9.92 3.46 9.67L3.46 9.67L3.02 9.56Q1.85 9.32 1.33 8.81Q0.81 8.30 0.81 7.41L0.81 7.41Q0.81 6.33 1.58 5.74Q2.34 5.15 3.75 5.15L3.75 5.15Q4.45 5.15 5.07 5.26Q5.68 5.36 6.20 5.56ZM8.07 9.50L8.07 9.50L8.07 8.88L13.85 8.88Q13.77 7.58 13.07 6.90Q12.37 6.22 11.12 6.22L11.12 6.22Q10.39 6.22 9.71 6.40Q9.03 6.58 8.36 6.93L8.36 6.93L8.36 5.74Q9.04 5.46 9.75 5.30Q10.46 5.15 11.19 5.15L11.19 5.15Q13.02 5.15 14.09 6.22Q15.16 7.29 15.16 9.11L15.16 9.11Q15.16 10.99 14.15 12.09Q13.13 13.19 11.41 13.19L11.41 13.19Q9.86 13.19 8.97 12.20Q8.07 11.20 8.07 9.50ZM13.81 9.86L9.32 9.86Q9.34 10.90 9.90 11.51Q10.47 12.13 11.40 12.13L11.40 12.13Q12.45 12.13 13.08 11.53Q13.71 10.94 13.81 9.86L13.81 9.86ZM18.24 13.00L18.23 7.54L18.66 7.54Q19.97 7.54 20.56 6.76L20.56 6.76Q20.96 6.24 20.96 5.57L20.96 5.57Q20.95 4.66 20.56 4.22L20.56 4.22Q19.89 3.44 18.66 3.44L18.66 3.44Q18.12 3.44 17.58 3.59L17.58 3.59Q17.04 3.73 16.51 4.03L16.51 4.03L16.51 2.85Q17.03 2.61 17.58 2.50L17.58 2.50Q18.14 2.37 18.72 2.37L18.72 2.37Q20.60 2.37 21.54 3.45L21.54 3.45Q22.29 4.30 22.29 5.57L22.29 5.57Q22.29 6.73 21.55 7.52L21.55 7.52Q20.78 8.33 19.62 8.54L19.62 8.54L19.62 13.00L18.24 13.00ZM24.02 5.58L24.02 2.72L27.51 2.72L27.51 3.37L24.83 3.37L24.83 4.76Q25.03 4.70 25.22 4.68L25.22 4.68Q25.42 4.65 25.61 4.65L25.61 4.65Q26.71 4.65 27.35 5.17L27.35 5.17Q27.99 5.69 27.99 6.59L27.99 6.59Q27.99 7.51 27.33 8.03L27.33 8.03Q26.67 8.53 25.47 8.53L25.47 8.53Q25.06 8.53 24.63 8.47Q24.20 8.41 23.75 8.29L23.75 8.29L23.75 7.51Q24.14 7.70 24.56 7.79L24.56 7.79Q24.99 7.88 25.46 7.88L25.46 7.88Q26.22 7.88 26.66 7.53Q27.10 7.18 27.10 6.59Q27.10 6.00 26.66 5.65Q26.22 5.30 25.46 5.30L25.46 5.30Q25.10 5.30 24.75 5.37Q24.39 5.43 24.02 5.58L24.02 5.58ZM29.63 5.58L29.63 2.72L33.12 2.72L33.12 3.37L30.45 3.37L30.45 4.76Q30.64 4.70 30.84 4.68L30.84 4.68Q31.03 4.65 31.22 4.65L31.22 4.65Q32.32 4.65 32.96 5.17L32.96 5.17Q33.61 5.69 33.61 6.59L33.61 6.59Q33.61 7.51 32.94 8.03L32.94 8.03Q32.29 8.53 31.08 8.53L31.08 8.53Q30.67 8.53 30.24 8.47Q29.81 8.41 29.36 8.29L29.36 8.29L29.36 7.51Q29.75 7.70 30.17 7.79L30.17 7.79Q30.60 7.88 31.07 7.88L31.07 7.88Q31.83 7.88 32.27 7.53Q32.72 7.18 32.72 6.59Q32.72 6.00 32.27 5.65Q31.83 5.30 31.07 5.30L31.07 5.30Q30.71 5.30 30.36 5.37Q30.00 5.43 29.63 5.58L29.63 5.58Z"></path></svg>