<svg height="16.296875" width="32.470703125" xmlns="http://www.w3.org/2000/svg" ><path d="M6.20 5.56L6.20 5.56L6.20 6.75Q5.67 6.48 5.09 6.34Q4.52 6.21 3.90 6.21L3.90 6.21Q2.97 6.21 2.50 6.49Q2.03 6.78 2.03 7.36L2.03 7.36Q2.03 7.79 2.37 8.04Q2.70 8.29 3.71 8.52L3.71 8.52L4.14 8.61Q5.48 8.90 6.05 9.42Q6.61 9.95 6.61 10.88L6.61 10.88Q6.61 11.95 5.77 12.57Q4.92 13.19 3.45 13.19L3.45 13.19Q2.83 13.19 2.16 13.07Q1.50 12.95 0.76 12.71L0.76 12.71L0.76 11.42Q1.46 11.78 2.13 11.96Q2.81 12.14 3.47 12.14L3.47 12.14Q4.36 12.14 4.84 11.84Q5.32 11.53 5.32 10.98L5.32 10.98Q5.32 10.47 4.97 10.19Q4.63 9.92 3.46 9.67L3.46 9.67L3.02 9.56Q1.85 9.32 1.33 8.81Q0.81 8.30 0.81 7.41L0.81 7.41Q0.81 6.33 1.58 5.74Q2.34 5.15 3.75 5.15L3.75 5.15Q4.45 5.15 5.07 5.26Q5.68 5.36 6.20 5.56ZM9.43 5.34L11.46 8.07L13.49 5.34L14.98 5.34L12.26 8.99Q12.74 9.66 13.04 10.18L13.04 10.18Q13.51 11.00 13.51 11.42L13.51 11.42Q13.51 12.31 13.00 12.75Q12.49 13.19 11.46 13.19L11.46 13.19Q10.44 13.19 9.93 12.75Q9.41 12.31 9.41 11.42L9.41 11.42Q9.41 11.00 9.88 10.18L9.88 10.18Q10.19 9.66 10.67 8.99L10.67 8.99L7.95 5.34L9.43 5.34ZM11.46 12.13L11.46 12.13Q11.92 12.13 12.13 11.94L12.13 11.94Q12.33 11.78 12.33 11.47L12.33 11.47Q12.33 11.25 12.06 10.81L12.06 10.81Q11.85 10.47 11.46 9.99L11.46 9.99Q11.08 10.47 10.87 10.81L10.87 10.81Q10.60 11.25 10.60 11.47L10.60 11.47Q10.60 11.78 10.79 11.94L10.79 11.94Q11.01 12.13 11.46 12.13ZM19.22 5.34L19.22 5.34Q19.84 5.46 20.19 5.83Q20.54 6.21 20.54 6.77L20.54 6.77Q20.54 7.62 19.89 8.07Q19.24 8.53 18.03 8.53L18.03 8.53Q17.64 8.53 17.21 8.46Q16.78 8.39 16.30 8.25L16.30 8.25L16.30 7.42Q16.66 7.61 17.07 7.70Q17.47 7.79 17.93 7.79L17.93 7.79Q18.68 7.79 19.09 7.52Q19.50 7.25 19.50 6.77L19.50 6.77Q19.50 6.26 19.12 6.00Q18.74 5.74 18.00 5.74L18.00 5.74L17.41 5.74L17.41 5.00L18.05 5.00Q18.70 5.00 19.03 4.79Q19.36 4.57 19.36 4.16L19.36 4.16Q19.36 3.77 19.02 3.56Q18.68 3.35 18.03 3.35L18.03 3.35Q17.75 3.35 17.40 3.41Q17.06 3.47 16.50 3.63L16.50 3.63L16.50 2.84Q17.00 2.73 17.44 2.67Q17.88 2.60 18.25 2.60L18.25 2.60Q19.24 2.60 19.81 3.01Q20.39 3.41 20.39 4.09L20.39 4.09Q20.39 4.56 20.08 4.89Q19.78 5.22 19.22 5.34ZM24.83 5.34L24.83 5.34Q25.46 5.46 25.80 5.83Q26.15 6.21 26.15 6.77L26.15 6.77Q26.15 7.62 25.50 8.07Q24.85 8.53 23.64 8.53L23.64 8.53Q23.25 8.53 22.82 8.46Q22.39 8.39 21.92 8.25L21.92 8.25L21.92 7.42Q22.27 7.61 22.68 7.70Q23.08 7.79 23.54 7.79L23.54 7.79Q24.29 7.79 24.70 7.52Q25.11 7.25 25.11 6.77L25.11 6.77Q25.11 6.26 24.73 6.00Q24.35 5.74 23.61 5.74L23.61 5.74L23.02 5.74L23.02 5.00L23.67 5.00Q24.31 5.00 24.64 4.79Q24.97 4.57 24.97 4.16L24.97 4.16Q24.97 3.77 24.63 3.56Q24.29 3.35 23.64 3.35L23.64 3.35Q23.37 3.35 23.02 3.41Q22.67 3.47 22.11 3.63L22.11 3.63L22.11 2.84Q22.61 2.73 23.05 2.67Q23.49 2.60 23.86 2.60L23.86 2.60Q24.85 2.60 25.43 3.01Q26.00 3.41 26.00 4.09L26.00 4.09Q26.00 4.56 25.70 4.89Q25.39 5.22 24.83 5.34ZM30.12 6.41L30.12 3.55L28.01 6.41L30.12 6.41ZM27.29 6.33L29.97 2.72L31.10 2.72L31.10 6.41L32.03 6.41L32.03 7.16L31.10 7.16L31.10 8.43L30.12 8.43L30.12 7.16L27.29 7.16L27.29 6.33Z"></path></svg>