<svg height="16.296875" width="28.423828125" xmlns="http://www.w3.org/2000/svg" ><path d="M6.83 5.63L6.83 5.63L6.83 6.81Q6.30 6.51 5.76 6.37Q5.22 6.22 4.68 6.22L4.68 6.22Q3.45 6.22 2.78 7.00Q2.10 7.77 2.10 9.17L2.10 9.17Q2.10 10.58 2.78 11.35L2.78 11.35Q2.82 11.41 2.86 11.45L2.86 11.45Q3.13 10.90 3.55 10.60L3.55 10.60Q4.05 10.25 4.78 10.25L4.78 10.25Q5.89 10.25 6.40 10.74L6.40 10.74Q6.83 11.16 6.83 11.76L6.83 11.76Q6.83 12.62 6.18 12.94L6.18 12.94Q5.61 13.22 4.55 13.22L4.55 13.22Q4.01 13.22 3.51 13.10L3.51 13.10Q3.47 13.49 3.47 13.96L3.47 13.96L2.42 13.96Q2.42 13.25 2.50 12.69L2.50 12.69Q2.11 12.46 1.79 12.11L1.79 12.11Q0.77 11.01 0.77 9.17L0.77 9.17Q0.77 7.30 1.80 6.23Q2.83 5.15 4.62 5.15L4.62 5.15Q5.20 5.15 5.76 5.27Q6.31 5.39 6.83 5.63ZM3.75 12.00L3.75 12.00Q4.15 12.13 4.68 12.13L4.68 12.13Q5.67 12.13 5.67 11.74L5.67 11.74Q5.67 11.22 4.77 11.22L4.77 11.22Q4.08 11.22 3.75 12.00ZM9.02 13.00L9.02 5.34L10.27 5.34L10.27 13.00L9.02 13.00ZM9.02 3.95L9.02 2.36L10.27 2.36L10.27 3.95L9.02 3.95ZM15.17 5.34L15.17 5.34Q15.80 5.46 16.14 5.83Q16.49 6.21 16.49 6.77L16.49 6.77Q16.49 7.62 15.84 8.07Q15.19 8.53 13.98 8.53L13.98 8.53Q13.59 8.53 13.16 8.46Q12.74 8.39 12.26 8.25L12.26 8.25L12.26 7.42Q12.61 7.61 13.02 7.70Q13.43 7.79 13.88 7.79L13.88 7.79Q14.63 7.79 15.04 7.52Q15.45 7.25 15.45 6.77L15.45 6.77Q15.45 6.26 15.07 6.00Q14.69 5.74 13.95 5.74L13.95 5.74L13.36 5.74L13.36 5.00L14.01 5.00Q14.65 5.00 14.98 4.79Q15.31 4.57 15.31 4.16L15.31 4.16Q15.31 3.77 14.97 3.56Q14.63 3.35 13.98 3.35L13.98 3.35Q13.71 3.35 13.36 3.41Q13.01 3.47 12.46 3.63L12.46 3.63L12.46 2.84Q12.95 2.73 13.39 2.67Q13.83 2.60 14.21 2.60L14.21 2.60Q15.19 2.60 15.77 3.01Q16.34 3.41 16.34 4.09L16.34 4.09Q16.34 4.56 16.04 4.89Q15.73 5.22 15.17 5.34ZM20.78 5.34L20.78 5.34Q21.41 5.46 21.76 5.83Q22.10 6.21 22.10 6.77L22.10 6.77Q22.10 7.62 21.45 8.07Q20.80 8.53 19.59 8.53L19.59 8.53Q19.20 8.53 18.77 8.46Q18.35 8.39 17.87 8.25L17.87 8.25L17.87 7.42Q18.22 7.61 18.63 7.70Q19.04 7.79 19.50 7.79L19.50 7.79Q20.24 7.79 20.65 7.52Q21.06 7.25 21.06 6.77L21.06 6.77Q21.06 6.26 20.68 6.00Q20.30 5.74 19.56 5.74L19.56 5.74L18.98 5.74L18.98 5.00L19.62 5.00Q20.26 5.00 20.59 4.79Q20.92 4.57 20.92 4.16L20.92 4.16Q20.92 3.77 20.58 3.56Q20.24 3.35 19.59 3.35L19.59 3.35Q19.32 3.35 18.97 3.41Q18.62 3.47 18.07 3.63L18.07 3.63L18.07 2.84Q18.57 2.73 19.00 2.67Q19.44 2.60 19.82 2.60L19.82 2.60Q20.80 2.60 21.38 3.01Q21.96 3.41 21.96 4.09L21.96 4.09Q21.96 4.56 21.65 4.89Q21.34 5.22 20.78 5.34ZM26.07 6.41L26.07 3.55L23.96 6.41L26.07 6.41ZM23.24 6.33L25.92 2.72L27.06 2.72L27.06 6.41L27.98 6.41L27.98 7.16L27.06 7.16L27.06 8.43L26.07 8.43L26.07 7.16L23.24 7.16L23.24 6.33Z"></path></svg>