<svg height="16.296875" width="36.708984375" xmlns="http://www.w3.org/2000/svg" ><path d="M6.83 5.63L6.83 5.63L6.83 6.81Q6.30 6.51 5.76 6.37Q5.22 6.22 4.68 6.22L4.68 6.22Q3.45 6.22 2.78 7.00Q2.10 7.77 2.10 9.17L2.10 9.17Q2.10 10.58 2.78 11.35L2.78 11.35Q2.82 11.41 2.86 11.45L2.86 11.45Q3.13 10.90 3.55 10.60L3.55 10.60Q4.05 10.25 4.78 10.25L4.78 10.25Q5.89 10.25 6.40 10.74L6.40 10.74Q6.83 11.16 6.83 11.76L6.83 11.76Q6.83 12.62 6.18 12.94L6.18 12.94Q5.61 13.22 4.55 13.22L4.55 13.22Q4.01 13.22 3.51 13.10L3.51 13.10Q3.47 13.49 3.47 13.96L3.47 13.96L2.42 13.96Q2.42 13.25 2.50 12.69L2.50 12.69Q2.11 12.46 1.79 12.11L1.79 12.11Q0.77 11.01 0.77 9.17L0.77 9.17Q0.77 7.30 1.80 6.23Q2.83 5.15 4.62 5.15L4.62 5.15Q5.20 5.15 5.76 5.27Q6.31 5.39 6.83 5.63ZM3.75 12.00L3.75 12.00Q4.15 12.13 4.68 12.13L4.68 12.13Q5.67 12.13 5.67 11.74L5.67 11.74Q5.67 11.22 4.77 11.22L4.77 11.22Q4.08 11.22 3.75 12.00ZM9.02 13.00L9.02 5.34L10.27 5.34L10.27 13.00L9.02 13.00ZM9.02 3.95L9.02 2.36L10.27 2.36L10.27 3.95L9.02 3.95ZM16.58 5.34L19.46 13.00L18.12 13.00L17.42 11.12L14.03 11.12L13.34 13.00L12.00 13.00L14.88 5.34L16.58 5.34ZM15.73 6.57L14.42 10.10L17.04 10.10L15.73 6.57ZM23.45 5.34L23.45 5.34Q24.08 5.46 24.43 5.83Q24.77 6.21 24.77 6.77L24.77 6.77Q24.77 7.62 24.12 8.07Q23.47 8.53 22.26 8.53L22.26 8.53Q21.88 8.53 21.45 8.46Q21.02 8.39 20.54 8.25L20.54 8.25L20.54 7.42Q20.90 7.61 21.30 7.70Q21.71 7.79 22.17 7.79L22.17 7.79Q22.91 7.79 23.32 7.52Q23.73 7.25 23.73 6.77L23.73 6.77Q23.73 6.26 23.35 6.00Q22.98 5.74 22.24 5.74L22.24 5.74L21.65 5.74L21.65 5.00L22.29 5.00Q22.93 5.00 23.27 4.79Q23.60 4.57 23.60 4.16L23.60 4.16Q23.60 3.77 23.26 3.56Q22.91 3.35 22.26 3.35L22.26 3.35Q21.99 3.35 21.64 3.41Q21.29 3.47 20.74 3.63L20.74 3.63L20.74 2.84Q21.24 2.73 21.68 2.67Q22.11 2.60 22.49 2.60L22.49 2.60Q23.47 2.60 24.05 3.01Q24.63 3.41 24.63 4.09L24.63 4.09Q24.63 4.56 24.32 4.89Q24.01 5.22 23.45 5.34ZM29.07 5.34L29.07 5.34Q29.70 5.46 30.04 5.83Q30.39 6.21 30.39 6.77L30.39 6.77Q30.39 7.62 29.74 8.07Q29.09 8.53 27.88 8.53L27.88 8.53Q27.49 8.53 27.06 8.46Q26.63 8.39 26.15 8.25L26.15 8.25L26.15 7.42Q26.51 7.61 26.92 7.70Q27.32 7.79 27.78 7.79L27.78 7.79Q28.53 7.79 28.94 7.52Q29.35 7.25 29.35 6.77L29.35 6.77Q29.35 6.26 28.97 6.00Q28.59 5.74 27.85 5.74L27.85 5.74L27.26 5.74L27.26 5.00L27.90 5.00Q28.55 5.00 28.88 4.79Q29.21 4.57 29.21 4.16L29.21 4.16Q29.21 3.77 28.87 3.56Q28.53 3.35 27.88 3.35L27.88 3.35Q27.60 3.35 27.25 3.41Q26.91 3.47 26.35 3.63L26.35 3.63L26.35 2.84Q26.85 2.73 27.29 2.67Q27.73 2.60 28.10 2.60L28.10 2.60Q29.09 2.60 29.66 3.01Q30.24 3.41 30.24 4.09L30.24 4.09Q30.24 4.56 29.93 4.89Q29.63 5.22 29.07 5.34ZM34.36 6.41L34.36 3.55L32.25 6.41L34.36 6.41ZM31.53 6.33L34.21 2.72L35.34 2.72L35.34 6.41L36.26 6.41L36.26 7.16L35.34 7.16L35.34 8.43L34.36 8.43L34.36 7.16L31.53 7.16L31.53 6.33Z"></path></svg>