<svg height="16.296875" width="37.0029296875" xmlns="http://www.w3.org/2000/svg" ><path d="M6.83 5.63L6.83 5.63L6.83 6.81Q6.30 6.51 5.76 6.37Q5.22 6.22 4.68 6.22L4.68 6.22Q3.45 6.22 2.78 7.00Q2.10 7.77 2.10 9.17L2.10 9.17Q2.10 10.58 2.78 11.35L2.78 11.35Q2.82 11.41 2.86 11.45L2.86 11.45Q3.13 10.90 3.55 10.60L3.55 10.60Q4.05 10.25 4.78 10.25L4.78 10.25Q5.89 10.25 6.40 10.74L6.40 10.74Q6.83 11.16 6.83 11.76L6.83 11.76Q6.83 12.62 6.18 12.94L6.18 12.94Q5.61 13.22 4.55 13.22L4.55 13.22Q4.01 13.22 3.51 13.10L3.51 13.10Q3.47 13.49 3.47 13.96L3.47 13.96L2.42 13.96Q2.42 13.25 2.50 12.69L2.50 12.69Q2.11 12.46 1.79 12.11L1.79 12.11Q0.77 11.01 0.77 9.17L0.77 9.17Q0.77 7.30 1.80 6.23Q2.83 5.15 4.62 5.15L4.62 5.15Q5.20 5.15 5.76 5.27Q6.31 5.39 6.83 5.63ZM3.75 12.00L3.75 12.00Q4.15 12.13 4.68 12.13L4.68 12.13Q5.67 12.13 5.67 11.74L5.67 11.74Q5.67 11.22 4.77 11.22L4.77 11.22Q4.08 11.22 3.75 12.00ZM9.02 13.00L9.02 5.34L10.27 5.34L10.27 13.00L9.02 13.00ZM9.02 3.95L9.02 2.36L10.27 2.36L10.27 3.95L9.02 3.95ZM17.64 9.15L16.39 9.15Q14.86 9.15 14.27 9.50Q13.69 9.84 13.69 10.68L13.69 10.68Q13.69 11.35 14.13 11.75Q14.57 12.14 15.33 12.14L15.33 12.14Q16.37 12.14 17.00 11.40Q17.64 10.66 17.64 9.43L17.64 9.43L17.64 9.15ZM18.89 8.63L18.89 8.63L18.89 13.00L17.64 13.00L17.64 11.83Q17.21 12.53 16.56 12.86Q15.92 13.19 14.99 13.19L14.99 13.19Q13.82 13.19 13.12 12.53Q12.43 11.87 12.43 10.77L12.43 10.77Q12.43 9.47 13.29 8.82Q14.16 8.16 15.87 8.16L15.87 8.16L17.64 8.16L17.64 8.04Q17.64 7.17 17.07 6.70Q16.50 6.22 15.46 6.22L15.46 6.22Q14.81 6.22 14.18 6.38Q13.56 6.54 12.99 6.85L12.99 6.85L12.99 5.69Q13.68 5.42 14.33 5.29Q14.98 5.15 15.59 5.15L15.59 5.15Q17.25 5.15 18.07 6.02Q18.89 6.88 18.89 8.63ZM16.63 3.63L16.63 3.63L16.24 3.25Q16.08 3.12 15.97 3.05Q15.86 2.99 15.77 2.99L15.77 2.99Q15.51 2.99 15.39 3.24Q15.26 3.49 15.25 4.05L15.25 4.05L14.40 4.05Q14.41 3.12 14.76 2.62Q15.11 2.12 15.73 2.12L15.73 2.12Q15.99 2.12 16.21 2.21Q16.43 2.31 16.68 2.54L16.68 2.54L17.07 2.91Q17.22 3.05 17.33 3.11Q17.45 3.18 17.53 3.18L17.53 3.18Q17.79 3.18 17.92 2.93Q18.04 2.68 18.05 2.12L18.05 2.12L18.91 2.12Q18.89 3.04 18.55 3.54Q18.20 4.05 17.58 4.05L17.58 4.05Q17.32 4.05 17.10 3.95Q16.88 3.86 16.63 3.63ZM23.75 5.34L23.75 5.34Q24.38 5.46 24.72 5.83Q25.07 6.21 25.07 6.77L25.07 6.77Q25.07 7.62 24.42 8.07Q23.77 8.53 22.56 8.53L22.56 8.53Q22.17 8.53 21.74 8.46Q21.31 8.39 20.84 8.25L20.84 8.25L20.84 7.42Q21.19 7.61 21.60 7.70Q22.00 7.79 22.46 7.79L22.46 7.79Q23.21 7.79 23.62 7.52Q24.03 7.25 24.03 6.77L24.03 6.77Q24.03 6.26 23.65 6.00Q23.27 5.74 22.53 5.74L22.53 5.74L21.94 5.74L21.94 5.00L22.59 5.00Q23.23 5.00 23.56 4.79Q23.89 4.57 23.89 4.16L23.89 4.16Q23.89 3.77 23.55 3.56Q23.21 3.35 22.56 3.35L22.56 3.35Q22.29 3.35 21.94 3.41Q21.59 3.47 21.03 3.63L21.03 3.63L21.03 2.84Q21.53 2.73 21.97 2.67Q22.41 2.60 22.78 2.60L22.78 2.60Q23.77 2.60 24.35 3.01Q24.92 3.41 24.92 4.09L24.92 4.09Q24.92 4.56 24.62 4.89Q24.31 5.22 23.75 5.34ZM29.36 5.34L29.36 5.34Q29.99 5.46 30.33 5.83Q30.68 6.21 30.68 6.77L30.68 6.77Q30.68 7.62 30.03 8.07Q29.38 8.53 28.17 8.53L28.17 8.53Q27.78 8.53 27.35 8.46Q26.93 8.39 26.45 8.25L26.45 8.25L26.45 7.42Q26.80 7.61 27.21 7.70Q27.62 7.79 28.08 7.79L28.08 7.79Q28.82 7.79 29.23 7.52Q29.64 7.25 29.64 6.77L29.64 6.77Q29.64 6.26 29.26 6.00Q28.88 5.74 28.14 5.74L28.14 5.74L27.56 5.74L27.56 5.00L28.20 5.00Q28.84 5.00 29.17 4.79Q29.50 4.57 29.50 4.16L29.50 4.16Q29.50 3.77 29.16 3.56Q28.82 3.35 28.17 3.35L28.17 3.35Q27.90 3.35 27.55 3.41Q27.20 3.47 26.65 3.63L26.65 3.63L26.65 2.84Q27.15 2.73 27.58 2.67Q28.02 2.60 28.40 2.60L28.40 2.60Q29.38 2.60 29.96 3.01Q30.54 3.41 30.54 4.09L30.54 4.09Q30.54 4.56 30.23 4.89Q29.92 5.22 29.36 5.34ZM34.65 6.41L34.65 3.55L32.54 6.41L34.65 6.41ZM31.82 6.33L34.50 2.72L35.64 2.72L35.64 6.41L36.56 6.41L36.56 7.16L35.64 7.16L35.64 8.43L34.65 8.43L34.65 7.16L31.82 7.16L31.82 6.33Z"></path></svg>