<svg height="16.296875" width="38.240234375" xmlns="http://www.w3.org/2000/svg" ><path d="M6.83 5.63L6.83 5.63L6.83 6.81Q6.30 6.51 5.76 6.37Q5.22 6.22 4.68 6.22L4.68 6.22Q3.45 6.22 2.78 7.00Q2.10 7.77 2.10 9.17L2.10 9.17Q2.10 10.58 2.78 11.35L2.78 11.35Q2.82 11.41 2.86 11.45L2.86 11.45Q3.13 10.90 3.55 10.60L3.55 10.60Q4.05 10.25 4.78 10.25L4.78 10.25Q5.89 10.25 6.40 10.74L6.40 10.74Q6.83 11.16 6.83 11.76L6.83 11.76Q6.83 12.62 6.18 12.94L6.18 12.94Q5.61 13.22 4.55 13.22L4.55 13.22Q4.01 13.22 3.51 13.10L3.51 13.10Q3.47 13.49 3.47 13.96L3.47 13.96L2.42 13.96Q2.42 13.25 2.50 12.69L2.50 12.69Q2.11 12.46 1.79 12.11L1.79 12.11Q0.77 11.01 0.77 9.17L0.77 9.17Q0.77 7.30 1.80 6.23Q2.83 5.15 4.62 5.15L4.62 5.15Q5.20 5.15 5.76 5.27Q6.31 5.39 6.83 5.63ZM3.75 12.00L3.75 12.00Q4.15 12.13 4.68 12.13L4.68 12.13Q5.67 12.13 5.67 11.74L5.67 11.74Q5.67 11.22 4.77 11.22L4.77 11.22Q4.08 11.22 3.75 12.00ZM9.02 13.00L9.02 5.34L10.27 5.34L10.27 13.00L9.02 13.00ZM9.02 3.95L9.02 2.36L10.27 2.36L10.27 3.95L9.02 3.95ZM16.58 5.34L19.46 13.00L18.12 13.00L17.42 11.12L14.03 11.12L13.34 13.00L12.00 13.00L14.88 5.34L16.58 5.34ZM15.73 6.57L14.42 10.10L17.04 10.10L15.73 6.57ZM22.20 13.00L22.20 7.54L22.63 7.54Q23.94 7.54 24.53 6.76L24.53 6.76Q24.92 6.24 24.92 5.57L24.92 5.57Q24.92 4.66 24.53 4.22L24.53 4.22Q23.85 3.44 22.63 3.44L22.63 3.44Q22.08 3.44 21.54 3.59L21.54 3.59Q21.01 3.73 20.47 4.03L20.47 4.03L20.47 2.85Q20.99 2.61 21.55 2.50L21.55 2.50Q22.10 2.37 22.68 2.37L22.68 2.37Q24.56 2.37 25.50 3.45L25.50 3.45Q26.25 4.30 26.25 5.57L26.25 5.57Q26.25 6.73 25.51 7.52L25.51 7.52Q24.75 8.33 23.58 8.54L23.58 8.54L23.58 13.00L22.20 13.00ZM27.99 5.58L27.99 2.72L31.47 2.72L31.47 3.37L28.80 3.37L28.80 4.76Q28.99 4.70 29.19 4.68L29.19 4.68Q29.38 4.65 29.57 4.65L29.57 4.65Q30.67 4.65 31.32 5.17L31.32 5.17Q31.96 5.69 31.96 6.59L31.96 6.59Q31.96 7.51 31.29 8.03L31.29 8.03Q30.64 8.53 29.44 8.53L29.44 8.53Q29.03 8.53 28.59 8.47Q28.16 8.41 27.71 8.29L27.71 8.29L27.71 7.51Q28.10 7.70 28.53 7.79L28.53 7.79Q28.95 7.88 29.42 7.88L29.42 7.88Q30.18 7.88 30.63 7.53Q31.07 7.18 31.07 6.59Q31.07 6.00 30.63 5.65Q30.18 5.30 29.42 5.30L29.42 5.30Q29.07 5.30 28.71 5.37Q28.36 5.43 27.99 5.58L27.99 5.58ZM33.60 5.58L33.60 2.72L37.08 2.72L37.08 3.37L34.41 3.37L34.41 4.76Q34.60 4.70 34.80 4.68L34.80 4.68Q34.99 4.65 35.18 4.65L35.18 4.65Q36.29 4.65 36.93 5.17L36.93 5.17Q37.57 5.69 37.57 6.59L37.57 6.59Q37.57 7.51 36.91 8.03L36.91 8.03Q36.25 8.53 35.05 8.53L35.05 8.53Q34.64 8.53 34.21 8.47Q33.78 8.41 33.33 8.29L33.33 8.29L33.33 7.51Q33.71 7.70 34.14 7.79L34.14 7.79Q34.56 7.88 35.03 7.88L35.03 7.88Q35.79 7.88 36.24 7.53Q36.68 7.18 36.68 6.59Q36.68 6.00 36.24 5.65Q35.79 5.30 35.03 5.30L35.03 5.30Q34.68 5.30 34.32 5.37Q33.97 5.43 33.60 5.58L33.60 5.58Z"></path></svg>