<svg height="16.296875" width="30.501953125" xmlns="http://www.w3.org/2000/svg" ><path d="M6.83 5.63L6.83 5.63L6.83 6.81Q6.30 6.51 5.76 6.37Q5.22 6.22 4.68 6.22L4.68 6.22Q3.45 6.22 2.78 7.00Q2.10 7.77 2.10 9.17L2.10 9.17Q2.10 10.58 2.78 11.35L2.78 11.35Q2.82 11.41 2.86 11.45L2.86 11.45Q3.13 10.90 3.55 10.60L3.55 10.60Q4.05 10.25 4.78 10.25L4.78 10.25Q5.89 10.25 6.40 10.74L6.40 10.74Q6.83 11.16 6.83 11.76L6.83 11.76Q6.83 12.62 6.18 12.94L6.18 12.94Q5.61 13.22 4.55 13.22L4.55 13.22Q4.01 13.22 3.51 13.10L3.51 13.10Q3.47 13.49 3.47 13.96L3.47 13.96L2.42 13.96Q2.42 13.25 2.50 12.69L2.50 12.69Q2.11 12.46 1.79 12.11L1.79 12.11Q0.77 11.01 0.77 9.17L0.77 9.17Q0.77 7.30 1.80 6.23Q2.83 5.15 4.62 5.15L4.62 5.15Q5.20 5.15 5.76 5.27Q6.31 5.39 6.83 5.63ZM3.75 12.00L3.75 12.00Q4.15 12.13 4.68 12.13L4.68 12.13Q5.67 12.13 5.67 11.74L5.67 11.74Q5.67 11.22 4.77 11.22L4.77 11.22Q4.08 11.22 3.75 12.00ZM9.02 13.00L9.02 5.34L10.27 5.34L10.27 13.00L9.02 13.00ZM9.02 3.95L9.02 2.36L10.27 2.36L10.27 3.95L9.02 3.95ZM12.46 6.81L12.46 5.65Q12.98 5.40 13.55 5.28Q14.11 5.15 14.75 5.15L14.75 5.15Q16.47 5.15 17.49 6.24Q18.51 7.33 18.51 9.17L18.51 9.17Q18.51 11.05 17.48 12.12Q16.45 13.19 14.66 13.19L14.66 13.19Q14.08 13.19 13.53 13.07Q12.97 12.95 12.46 12.71L12.46 12.71L12.46 11.54Q12.99 11.83 13.52 11.98Q14.06 12.13 14.61 12.13L14.61 12.13Q15.83 12.13 16.51 11.35Q17.19 10.58 17.19 9.17L17.19 9.17Q17.19 7.77 16.51 7.00Q15.83 6.22 14.61 6.22L14.61 6.22Q14.06 6.22 13.52 6.37Q12.99 6.51 12.46 6.81L12.46 6.81ZM20.25 5.58L20.25 2.72L23.73 2.72L23.73 3.37L21.06 3.37L21.06 4.76Q21.25 4.70 21.45 4.68L21.45 4.68Q21.64 4.65 21.83 4.65L21.83 4.65Q22.93 4.65 23.58 5.17L23.58 5.17Q24.22 5.69 24.22 6.59L24.22 6.59Q24.22 7.51 23.56 8.03L23.56 8.03Q22.90 8.53 21.70 8.53L21.70 8.53Q21.29 8.53 20.86 8.47Q20.43 8.41 19.97 8.29L19.97 8.29L19.97 7.51Q20.36 7.70 20.79 7.79L20.79 7.79Q21.21 7.88 21.68 7.88L21.68 7.88Q22.44 7.88 22.89 7.53Q23.33 7.18 23.33 6.59Q23.33 6.00 22.89 5.65Q22.44 5.30 21.68 5.30L21.68 5.30Q21.33 5.30 20.97 5.37Q20.62 5.43 20.25 5.58L20.25 5.58ZM28.47 5.34L28.47 5.34Q29.10 5.46 29.45 5.83Q29.79 6.21 29.79 6.77L29.79 6.77Q29.79 7.62 29.14 8.07Q28.49 8.53 27.28 8.53L27.28 8.53Q26.89 8.53 26.47 8.46Q26.04 8.39 25.56 8.25L25.56 8.25L25.56 7.42Q25.92 7.61 26.32 7.70Q26.73 7.79 27.19 7.79L27.19 7.79Q27.93 7.79 28.34 7.52Q28.75 7.25 28.75 6.77L28.75 6.77Q28.75 6.26 28.37 6.00Q27.99 5.74 27.25 5.74L27.25 5.74L26.67 5.74L26.67 5.00L27.31 5.00Q27.95 5.00 28.28 4.79Q28.62 4.57 28.62 4.16L28.62 4.16Q28.62 3.77 28.27 3.56Q27.93 3.35 27.28 3.35L27.28 3.35Q27.01 3.35 26.66 3.41Q26.31 3.47 25.76 3.63L25.76 3.63L25.76 2.84Q26.26 2.73 26.69 2.67Q27.13 2.60 27.51 2.60L27.51 2.60Q28.49 2.60 29.07 3.01Q29.65 3.41 29.65 4.09L29.65 4.09Q29.65 4.56 29.34 4.89Q29.03 5.22 28.47 5.34Z"></path></svg>