<svg height="16.296875" width="36.1142578125" xmlns="http://www.w3.org/2000/svg" ><path d="M6.83 5.63L6.83 5.63L6.83 6.81Q6.30 6.51 5.76 6.37Q5.22 6.22 4.68 6.22L4.68 6.22Q3.45 6.22 2.78 7.00Q2.10 7.77 2.10 9.17L2.10 9.17Q2.10 10.58 2.78 11.35L2.78 11.35Q2.82 11.41 2.86 11.45L2.86 11.45Q3.13 10.90 3.55 10.60L3.55 10.60Q4.05 10.25 4.78 10.25L4.78 10.25Q5.89 10.25 6.40 10.74L6.40 10.74Q6.83 11.16 6.83 11.76L6.83 11.76Q6.83 12.62 6.18 12.94L6.18 12.94Q5.61 13.22 4.55 13.22L4.55 13.22Q4.01 13.22 3.51 13.10L3.51 13.10Q3.47 13.49 3.47 13.96L3.47 13.96L2.42 13.96Q2.42 13.25 2.50 12.69L2.50 12.69Q2.11 12.46 1.79 12.11L1.79 12.11Q0.77 11.01 0.77 9.17L0.77 9.17Q0.77 7.30 1.80 6.23Q2.83 5.15 4.62 5.15L4.62 5.15Q5.20 5.15 5.76 5.27Q6.31 5.39 6.83 5.63ZM3.75 12.00L3.75 12.00Q4.15 12.13 4.68 12.13L4.68 12.13Q5.67 12.13 5.67 11.74L5.67 11.74Q5.67 11.22 4.77 11.22L4.77 11.22Q4.08 11.22 3.75 12.00ZM9.02 13.00L9.02 5.34L10.27 5.34L10.27 13.00L9.02 13.00ZM9.02 3.95L9.02 2.36L10.27 2.36L10.27 3.95L9.02 3.95ZM12.46 6.81L12.46 5.65Q12.98 5.40 13.55 5.28Q14.11 5.15 14.75 5.15L14.75 5.15Q16.47 5.15 17.49 6.24Q18.51 7.33 18.51 9.17L18.51 9.17Q18.51 11.05 17.48 12.12Q16.45 13.19 14.66 13.19L14.66 13.19Q14.08 13.19 13.53 13.07Q12.97 12.95 12.46 12.71L12.46 12.71L12.46 11.54Q12.99 11.83 13.52 11.98Q14.06 12.13 14.61 12.13L14.61 12.13Q15.83 12.13 16.51 11.35Q17.19 10.58 17.19 9.17L17.19 9.17Q17.19 7.77 16.51 7.00Q15.83 6.22 14.61 6.22L14.61 6.22Q14.06 6.22 13.52 6.37Q12.99 6.51 12.46 6.81L12.46 6.81ZM22.86 5.34L22.86 5.34Q23.49 5.46 23.83 5.83Q24.18 6.21 24.18 6.77L24.18 6.77Q24.18 7.62 23.53 8.07Q22.88 8.53 21.67 8.53L21.67 8.53Q21.28 8.53 20.85 8.46Q20.43 8.39 19.95 8.25L19.95 8.25L19.95 7.42Q20.30 7.61 20.71 7.70Q21.12 7.79 21.57 7.79L21.57 7.79Q22.32 7.79 22.73 7.52Q23.14 7.25 23.14 6.77L23.14 6.77Q23.14 6.26 22.76 6.00Q22.38 5.74 21.64 5.74L21.64 5.74L21.05 5.74L21.05 5.00L21.70 5.00Q22.34 5.00 22.67 4.79Q23.00 4.57 23.00 4.16L23.00 4.16Q23.00 3.77 22.66 3.56Q22.32 3.35 21.67 3.35L21.67 3.35Q21.40 3.35 21.05 3.41Q20.70 3.47 20.15 3.63L20.15 3.63L20.15 2.84Q20.64 2.73 21.08 2.67Q21.52 2.60 21.90 2.60L21.90 2.60Q22.88 2.60 23.46 3.01Q24.04 3.41 24.04 4.09L24.04 4.09Q24.04 4.56 23.73 4.89Q23.42 5.22 22.86 5.34ZM28.47 5.34L28.47 5.34Q29.10 5.46 29.45 5.83Q29.79 6.21 29.79 6.77L29.79 6.77Q29.79 7.62 29.14 8.07Q28.49 8.53 27.28 8.53L27.28 8.53Q26.89 8.53 26.47 8.46Q26.04 8.39 25.56 8.25L25.56 8.25L25.56 7.42Q25.92 7.61 26.32 7.70Q26.73 7.79 27.19 7.79L27.19 7.79Q27.93 7.79 28.34 7.52Q28.75 7.25 28.75 6.77L28.75 6.77Q28.75 6.26 28.37 6.00Q27.99 5.74 27.25 5.74L27.25 5.74L26.67 5.74L26.67 5.00L27.31 5.00Q27.95 5.00 28.28 4.79Q28.62 4.57 28.62 4.16L28.62 4.16Q28.62 3.77 28.27 3.56Q27.93 3.35 27.28 3.35L27.28 3.35Q27.01 3.35 26.66 3.41Q26.31 3.47 25.76 3.63L25.76 3.63L25.76 2.84Q26.26 2.73 26.69 2.67Q27.13 2.60 27.51 2.60L27.51 2.60Q28.49 2.60 29.07 3.01Q29.65 3.41 29.65 4.09L29.65 4.09Q29.65 4.56 29.34 4.89Q29.03 5.22 28.47 5.34ZM33.76 6.41L33.76 3.55L31.65 6.41L33.76 6.41ZM30.93 6.33L33.61 2.72L34.75 2.72L34.75 6.41L35.67 6.41L35.67 7.16L34.75 7.16L34.75 8.43L33.76 8.43L33.76 7.16L30.93 7.16L30.93 6.33Z"></path></svg>