<svg height="16.296875" width="31.1513671875" xmlns="http://www.w3.org/2000/svg" ><path d="M6.83 5.63L6.83 5.63L6.83 6.81Q6.30 6.51 5.76 6.37Q5.22 6.22 4.68 6.22L4.68 6.22Q3.45 6.22 2.78 7.00Q2.10 7.77 2.10 9.17L2.10 9.17Q2.10 10.58 2.78 11.35L2.78 11.35Q2.82 11.41 2.86 11.45L2.86 11.45Q3.13 10.90 3.55 10.60L3.55 10.60Q4.05 10.25 4.78 10.25L4.78 10.25Q5.89 10.25 6.40 10.74L6.40 10.74Q6.83 11.16 6.83 11.76L6.83 11.76Q6.83 12.62 6.18 12.94L6.18 12.94Q5.61 13.22 4.55 13.22L4.55 13.22Q4.01 13.22 3.51 13.10L3.51 13.10Q3.47 13.49 3.47 13.96L3.47 13.96L2.42 13.96Q2.42 13.25 2.50 12.69L2.50 12.69Q2.11 12.46 1.79 12.11L1.79 12.11Q0.77 11.01 0.77 9.17L0.77 9.17Q0.77 7.30 1.80 6.23Q2.83 5.15 4.62 5.15L4.62 5.15Q5.20 5.15 5.76 5.27Q6.31 5.39 6.83 5.63ZM3.75 12.00L3.75 12.00Q4.15 12.13 4.68 12.13L4.68 12.13Q5.67 12.13 5.67 11.74L5.67 11.74Q5.67 11.22 4.77 11.22L4.77 11.22Q4.08 11.22 3.75 12.00ZM9.02 13.00L9.02 5.34L10.27 5.34L10.27 13.00L9.02 13.00ZM9.02 3.95L9.02 2.36L10.27 2.36L10.27 3.95L9.02 3.95ZM13.73 5.34L15.76 8.07L17.79 5.34L19.27 5.34L16.55 8.99Q17.04 9.66 17.34 10.18L17.34 10.18Q17.81 11.00 17.81 11.42L17.81 11.42Q17.81 12.31 17.29 12.75Q16.78 13.19 15.76 13.19L15.76 13.19Q14.73 13.19 14.22 12.75Q13.71 12.31 13.71 11.42L13.71 11.42Q13.71 11.00 14.18 10.18L14.18 10.18Q14.48 9.66 14.96 8.99L14.96 8.99L12.24 5.34L13.73 5.34ZM15.76 12.13L15.76 12.13Q16.21 12.13 16.43 11.94L16.43 11.94Q16.62 11.78 16.62 11.47L16.62 11.47Q16.62 11.25 16.35 10.81L16.35 10.81Q16.14 10.47 15.76 9.99L15.76 9.99Q15.37 10.47 15.16 10.81L15.16 10.81Q14.90 11.25 14.90 11.47L14.90 11.47Q14.90 11.78 15.09 11.94L15.09 11.94Q15.30 12.13 15.76 12.13ZM20.90 5.58L20.90 2.72L24.38 2.72L24.38 3.37L21.71 3.37L21.71 4.76Q21.90 4.70 22.10 4.68L22.10 4.68Q22.29 4.65 22.48 4.65L22.48 4.65Q23.58 4.65 24.23 5.17L24.23 5.17Q24.87 5.69 24.87 6.59L24.87 6.59Q24.87 7.51 24.21 8.03L24.21 8.03Q23.55 8.53 22.35 8.53L22.35 8.53Q21.94 8.53 21.51 8.47Q21.08 8.41 20.62 8.29L20.62 8.29L20.62 7.51Q21.01 7.70 21.44 7.79L21.44 7.79Q21.86 7.88 22.33 7.88L22.33 7.88Q23.09 7.88 23.54 7.53Q23.98 7.18 23.98 6.59Q23.98 6.00 23.54 5.65Q23.09 5.30 22.33 5.30L22.33 5.30Q21.98 5.30 21.62 5.37Q21.27 5.43 20.90 5.58L20.90 5.58ZM29.12 5.34L29.12 5.34Q29.75 5.46 30.10 5.83Q30.44 6.21 30.44 6.77L30.44 6.77Q30.44 7.62 29.79 8.07Q29.14 8.53 27.93 8.53L27.93 8.53Q27.54 8.53 27.11 8.46Q26.69 8.39 26.21 8.25L26.21 8.25L26.21 7.42Q26.56 7.61 26.97 7.70Q27.38 7.79 27.84 7.79L27.84 7.79Q28.58 7.79 28.99 7.52Q29.40 7.25 29.40 6.77L29.40 6.77Q29.40 6.26 29.02 6.00Q28.64 5.74 27.90 5.74L27.90 5.74L27.32 5.74L27.32 5.00L27.96 5.00Q28.60 5.00 28.93 4.79Q29.26 4.57 29.26 4.16L29.26 4.16Q29.26 3.77 28.92 3.56Q28.58 3.35 27.93 3.35L27.93 3.35Q27.66 3.35 27.31 3.41Q26.96 3.47 26.41 3.63L26.41 3.63L26.41 2.84Q26.91 2.73 27.34 2.67Q27.78 2.60 28.16 2.60L28.16 2.60Q29.14 2.60 29.72 3.01Q30.30 3.41 30.30 4.09L30.30 4.09Q30.30 4.56 29.99 4.89Q29.68 5.22 29.12 5.34Z"></path></svg>