<svg height="16.296875" width="31.6845703125" xmlns="http://www.w3.org/2000/svg" ><path d="M6.83 5.63L6.83 5.63L6.83 6.81Q6.30 6.51 5.76 6.37Q5.22 6.22 4.68 6.22L4.68 6.22Q3.45 6.22 2.78 7.00Q2.10 7.77 2.10 9.17L2.10 9.17Q2.10 10.58 2.78 11.35L2.78 11.35Q2.82 11.41 2.86 11.45L2.86 11.45Q3.13 10.90 3.55 10.60L3.55 10.60Q4.05 10.25 4.78 10.25L4.78 10.25Q5.89 10.25 6.40 10.74L6.40 10.74Q6.83 11.16 6.83 11.76L6.83 11.76Q6.83 12.62 6.18 12.94L6.18 12.94Q5.61 13.22 4.55 13.22L4.55 13.22Q4.01 13.22 3.51 13.10L3.51 13.10Q3.47 13.49 3.47 13.96L3.47 13.96L2.42 13.96Q2.42 13.25 2.50 12.69L2.50 12.69Q2.11 12.46 1.79 12.11L1.79 12.11Q0.77 11.01 0.77 9.17L0.77 9.17Q0.77 7.30 1.80 6.23Q2.83 5.15 4.62 5.15L4.62 5.15Q5.20 5.15 5.76 5.27Q6.31 5.39 6.83 5.63ZM3.75 12.00L3.75 12.00Q4.15 12.13 4.68 12.13L4.68 12.13Q5.67 12.13 5.67 11.74L5.67 11.74Q5.67 11.22 4.77 11.22L4.77 11.22Q4.08 11.22 3.75 12.00ZM9.02 13.00L9.02 5.34L10.27 5.34L10.27 13.00L9.02 13.00ZM9.02 3.95L9.02 2.36L10.27 2.36L10.27 3.95L9.02 3.95ZM19.27 8.37L19.27 8.37L19.27 13.00L18.01 13.00L18.01 8.42Q18.01 7.33 17.59 6.79Q17.17 6.25 16.32 6.25L16.32 6.25Q15.30 6.25 14.71 6.90Q14.12 7.55 14.12 8.67L14.12 8.67L14.12 13.00L12.86 13.00L12.86 5.34L14.12 5.34L14.12 6.53Q14.57 5.84 15.19 5.50Q15.80 5.15 16.60 5.15L16.60 5.15Q17.92 5.15 18.59 5.97Q19.27 6.79 19.27 8.37ZM21.43 5.58L21.43 2.72L24.92 2.72L24.92 3.37L22.24 3.37L22.24 4.76Q22.44 4.70 22.63 4.68L22.63 4.68Q22.83 4.65 23.02 4.65L23.02 4.65Q24.12 4.65 24.76 5.17L24.76 5.17Q25.40 5.69 25.40 6.59L25.40 6.59Q25.40 7.51 24.74 8.03L24.74 8.03Q24.08 8.53 22.88 8.53L22.88 8.53Q22.47 8.53 22.04 8.47Q21.61 8.41 21.16 8.29L21.16 8.29L21.16 7.51Q21.55 7.70 21.97 7.79L21.97 7.79Q22.39 7.88 22.87 7.88L22.87 7.88Q23.63 7.88 24.07 7.53Q24.51 7.18 24.51 6.59Q24.51 6.00 24.07 5.65Q23.63 5.30 22.87 5.30L22.87 5.30Q22.51 5.30 22.16 5.37Q21.80 5.43 21.43 5.58L21.43 5.58ZM29.65 5.34L29.65 5.34Q30.28 5.46 30.63 5.83Q30.97 6.21 30.97 6.77L30.97 6.77Q30.97 7.62 30.32 8.07Q29.67 8.53 28.46 8.53L28.46 8.53Q28.08 8.53 27.65 8.46Q27.22 8.39 26.74 8.25L26.74 8.25L26.74 7.42Q27.10 7.61 27.50 7.70Q27.91 7.79 28.37 7.79L28.37 7.79Q29.11 7.79 29.52 7.52Q29.93 7.25 29.93 6.77L29.93 6.77Q29.93 6.26 29.56 6.00Q29.18 5.74 28.44 5.74L28.44 5.74L27.85 5.74L27.85 5.00L28.49 5.00Q29.13 5.00 29.47 4.79Q29.80 4.57 29.80 4.16L29.80 4.16Q29.80 3.77 29.46 3.56Q29.11 3.35 28.46 3.35L28.46 3.35Q28.19 3.35 27.84 3.41Q27.49 3.47 26.94 3.63L26.94 3.63L26.94 2.84Q27.44 2.73 27.88 2.67Q28.31 2.60 28.69 2.60L28.69 2.60Q29.67 2.60 30.25 3.01Q30.83 3.41 30.83 4.09L30.83 4.09Q30.83 4.56 30.52 4.89Q30.21 5.22 29.65 5.34Z"></path></svg>