<svg height="16.296875" width="40.25" xmlns="http://www.w3.org/2000/svg" ><path d="M6.83 5.63L6.83 5.63L6.83 6.81Q6.30 6.51 5.76 6.37Q5.22 6.22 4.68 6.22L4.68 6.22Q3.45 6.22 2.78 7.00Q2.10 7.77 2.10 9.17L2.10 9.17Q2.10 10.58 2.78 11.35L2.78 11.35Q2.82 11.41 2.86 11.45L2.86 11.45Q3.13 10.90 3.55 10.60L3.55 10.60Q4.05 10.25 4.78 10.25L4.78 10.25Q5.89 10.25 6.40 10.74L6.40 10.74Q6.83 11.16 6.83 11.76L6.83 11.76Q6.83 12.62 6.18 12.94L6.18 12.94Q5.61 13.22 4.55 13.22L4.55 13.22Q4.01 13.22 3.51 13.10L3.51 13.10Q3.47 13.49 3.47 13.96L3.47 13.96L2.42 13.96Q2.42 13.25 2.50 12.69L2.50 12.69Q2.11 12.46 1.79 12.11L1.79 12.11Q0.77 11.01 0.77 9.17L0.77 9.17Q0.77 7.30 1.80 6.23Q2.83 5.15 4.62 5.15L4.62 5.15Q5.20 5.15 5.76 5.27Q6.31 5.39 6.83 5.63ZM3.75 12.00L3.75 12.00Q4.15 12.13 4.68 12.13L4.68 12.13Q5.67 12.13 5.67 11.74L5.67 11.74Q5.67 11.22 4.77 11.22L4.77 11.22Q4.08 11.22 3.75 12.00ZM9.02 13.00L9.02 5.34L10.27 5.34L10.27 13.00L9.02 13.00ZM9.02 3.95L9.02 2.36L10.27 2.36L10.27 3.95L9.02 3.95ZM15.87 6.22L15.87 6.22Q14.86 6.22 14.27 7.01Q13.69 7.80 13.69 9.17L13.69 9.17Q13.69 10.55 14.27 11.34Q14.85 12.13 15.87 12.13L15.87 12.13Q16.88 12.13 17.47 11.33Q18.05 10.54 18.05 9.17L18.05 9.17Q18.05 7.81 17.47 7.02Q16.88 6.22 15.87 6.22ZM15.87 5.15L15.87 5.15Q17.51 5.15 18.45 6.22Q19.39 7.29 19.39 9.17L19.39 9.17Q19.39 11.05 18.45 12.12Q17.51 13.19 15.87 13.19L15.87 13.19Q14.23 13.19 13.29 12.12Q12.36 11.05 12.36 9.17L12.36 9.17Q12.36 7.29 13.29 6.22Q14.23 5.15 15.87 5.15ZM27.84 8.37L27.84 8.37L27.84 13.13Q27.84 14.59 27.28 15.25L27.28 15.25Q26.72 15.91 25.48 15.91L25.48 15.91L23.75 15.91L23.75 14.84L25.34 14.84Q26.06 14.84 26.32 14.51L26.32 14.51Q26.58 14.18 26.58 13.13L26.58 13.13L26.58 8.42Q26.58 7.33 26.15 6.79Q25.73 6.25 24.88 6.25L24.88 6.25Q23.86 6.25 23.28 6.90Q22.69 7.55 22.69 8.67L22.69 8.67L22.69 13.00L21.42 13.00L21.42 5.34L22.69 5.34L22.69 6.53Q23.14 5.84 23.75 5.50L23.75 5.50Q24.36 5.15 25.16 5.15L25.16 5.15Q26.48 5.15 27.16 5.97L27.16 5.97Q27.84 6.79 27.84 8.37ZM30.00 5.58L30.00 2.72L33.48 2.72L33.48 3.37L30.81 3.37L30.81 4.76Q31.00 4.70 31.20 4.68L31.20 4.68Q31.39 4.65 31.58 4.65L31.58 4.65Q32.68 4.65 33.33 5.17L33.33 5.17Q33.97 5.69 33.97 6.59L33.97 6.59Q33.97 7.51 33.30 8.03L33.30 8.03Q32.65 8.53 31.45 8.53L31.45 8.53Q31.04 8.53 30.60 8.47Q30.17 8.41 29.72 8.29L29.72 8.29L29.72 7.51Q30.11 7.70 30.54 7.79L30.54 7.79Q30.96 7.88 31.43 7.88L31.43 7.88Q32.19 7.88 32.63 7.53Q33.08 7.18 33.08 6.59Q33.08 6.00 32.63 5.65Q32.19 5.30 31.43 5.30L31.43 5.30Q31.08 5.30 30.72 5.37Q30.37 5.43 30.00 5.58L30.00 5.58ZM38.22 5.34L38.22 5.34Q38.85 5.46 39.19 5.83Q39.54 6.21 39.54 6.77L39.54 6.77Q39.54 7.62 38.89 8.07Q38.24 8.53 37.03 8.53L37.03 8.53Q36.64 8.53 36.21 8.46Q35.79 8.39 35.31 8.25L35.31 8.25L35.31 7.42Q35.66 7.61 36.07 7.70Q36.48 7.79 36.93 7.79L36.93 7.79Q37.68 7.79 38.09 7.52Q38.50 7.25 38.50 6.77L38.50 6.77Q38.50 6.26 38.12 6.00Q37.74 5.74 37.00 5.74L37.00 5.74L36.42 5.74L36.42 5.00L37.06 5.00Q37.70 5.00 38.03 4.79Q38.36 4.57 38.36 4.16L38.36 4.16Q38.36 3.77 38.02 3.56Q37.68 3.35 37.03 3.35L37.03 3.35Q36.76 3.35 36.41 3.41Q36.06 3.47 35.51 3.63L35.51 3.63L35.51 2.84Q36.00 2.73 36.44 2.67Q36.88 2.60 37.26 2.60L37.26 2.60Q38.24 2.60 38.82 3.01Q39.40 3.41 39.40 4.09L39.40 4.09Q39.40 4.56 39.09 4.89Q38.78 5.22 38.22 5.34Z"></path></svg>