<svg height="16.296875" width="35.7724609375" xmlns="http://www.w3.org/2000/svg" ><path d="M6.83 5.63L6.83 5.63L6.83 6.81Q6.30 6.51 5.76 6.37Q5.22 6.22 4.68 6.22L4.68 6.22Q3.45 6.22 2.78 7.00Q2.10 7.77 2.10 9.17L2.10 9.17Q2.10 10.58 2.78 11.35L2.78 11.35Q2.82 11.41 2.86 11.45L2.86 11.45Q3.13 10.90 3.55 10.60L3.55 10.60Q4.05 10.25 4.78 10.25L4.78 10.25Q5.89 10.25 6.40 10.74L6.40 10.74Q6.83 11.16 6.83 11.76L6.83 11.76Q6.83 12.62 6.18 12.94L6.18 12.94Q5.61 13.22 4.55 13.22L4.55 13.22Q4.01 13.22 3.51 13.10L3.51 13.10Q3.47 13.49 3.47 13.96L3.47 13.96L2.42 13.96Q2.42 13.25 2.50 12.69L2.50 12.69Q2.11 12.46 1.79 12.11L1.79 12.11Q0.77 11.01 0.77 9.17L0.77 9.17Q0.77 7.30 1.80 6.23Q2.83 5.15 4.62 5.15L4.62 5.15Q5.20 5.15 5.76 5.27Q6.31 5.39 6.83 5.63ZM3.75 12.00L3.75 12.00Q4.15 12.13 4.68 12.13L4.68 12.13Q5.67 12.13 5.67 11.74L5.67 11.74Q5.67 11.22 4.77 11.22L4.77 11.22Q4.08 11.22 3.75 12.00ZM15.57 5.34L12.20 13.71Q11.67 15.07 11.16 15.49Q10.66 15.91 9.81 15.91L9.81 15.91L8.80 15.91L8.80 14.85L9.54 14.85Q10.06 14.85 10.35 14.61Q10.64 14.36 10.99 13.45L10.99 13.45L11.21 12.87L8.11 5.34L9.45 5.34L11.84 11.33L14.23 5.34L15.57 5.34ZM22.17 7.52L22.17 7.52L18.84 11.57Q19.12 11.85 19.47 11.99Q19.82 12.13 20.27 12.13L20.27 12.13Q21.27 12.13 21.86 11.33Q22.45 10.54 22.45 9.17L22.45 9.17Q22.45 8.63 22.38 8.23Q22.31 7.83 22.17 7.52ZM18.35 10.83L21.68 6.78Q21.40 6.50 21.04 6.36Q20.69 6.22 20.27 6.22L20.27 6.22Q19.24 6.22 18.66 7.02Q18.08 7.83 18.08 9.27L18.08 9.27Q18.08 9.76 18.15 10.14Q18.21 10.51 18.35 10.83L18.35 10.83ZM16.47 13.10L17.49 11.86Q17.12 11.33 16.94 10.66Q16.75 9.99 16.75 9.17L16.75 9.17Q16.75 7.29 17.69 6.22Q18.62 5.15 20.27 5.15L20.27 5.15Q20.90 5.15 21.45 5.33Q21.99 5.50 22.45 5.86L22.45 5.86L23.40 4.71L24.05 5.25L23.05 6.47Q23.41 7 23.60 7.68Q23.78 8.35 23.78 9.17L23.78 9.17Q23.78 11.05 22.85 12.12Q21.91 13.19 20.27 13.19L20.27 13.19Q19.61 13.19 19.06 13.02Q18.51 12.84 18.08 12.49L18.08 12.49L17.13 13.64L16.47 13.10ZM25.52 5.58L25.52 2.72L29.00 2.72L29.00 3.37L26.33 3.37L26.33 4.76Q26.52 4.70 26.72 4.68L26.72 4.68Q26.91 4.65 27.10 4.65L27.10 4.65Q28.21 4.65 28.85 5.17L28.85 5.17Q29.49 5.69 29.49 6.59L29.49 6.59Q29.49 7.51 28.83 8.03L28.83 8.03Q28.17 8.53 26.97 8.53L26.97 8.53Q26.56 8.53 26.13 8.47Q25.70 8.41 25.25 8.29L25.25 8.29L25.25 7.51Q25.63 7.70 26.06 7.79L26.06 7.79Q26.48 7.88 26.95 7.88L26.95 7.88Q27.71 7.88 28.16 7.53Q28.60 7.18 28.60 6.59Q28.60 6.00 28.16 5.65Q27.71 5.30 26.95 5.30L26.95 5.30Q26.60 5.30 26.24 5.37Q25.89 5.43 25.52 5.58L25.52 5.58ZM33.74 5.34L33.74 5.34Q34.37 5.46 34.72 5.83Q35.06 6.21 35.06 6.77L35.06 6.77Q35.06 7.62 34.41 8.07Q33.76 8.53 32.55 8.53L32.55 8.53Q32.16 8.53 31.74 8.46Q31.31 8.39 30.83 8.25L30.83 8.25L30.83 7.42Q31.19 7.61 31.59 7.70Q32.00 7.79 32.46 7.79L32.46 7.79Q33.20 7.79 33.61 7.52Q34.02 7.25 34.02 6.77L34.02 6.77Q34.02 6.26 33.64 6.00Q33.26 5.74 32.53 5.74L32.53 5.74L31.94 5.74L31.94 5.00L32.58 5.00Q33.22 5.00 33.55 4.79Q33.89 4.57 33.89 4.16L33.89 4.16Q33.89 3.77 33.54 3.56Q33.20 3.35 32.55 3.35L32.55 3.35Q32.28 3.35 31.93 3.41Q31.58 3.47 31.03 3.63L31.03 3.63L31.03 2.84Q31.53 2.73 31.96 2.67Q32.40 2.60 32.78 2.60L32.78 2.60Q33.76 2.60 34.34 3.01Q34.92 3.41 34.92 4.09L34.92 4.09Q34.92 4.56 34.61 4.89Q34.30 5.22 33.74 5.34Z"></path></svg>