<svg height="16.296875" width="38.5205078125" xmlns="http://www.w3.org/2000/svg" ><path d="M6.83 5.63L6.83 5.63L6.83 6.81Q6.30 6.51 5.76 6.37Q5.22 6.22 4.68 6.22L4.68 6.22Q3.45 6.22 2.78 7.00Q2.10 7.77 2.10 9.17L2.10 9.17Q2.10 10.58 2.78 11.35L2.78 11.35Q2.82 11.41 2.86 11.45L2.86 11.45Q3.13 10.90 3.55 10.60L3.55 10.60Q4.05 10.25 4.78 10.25L4.78 10.25Q5.89 10.25 6.40 10.74L6.40 10.74Q6.83 11.16 6.83 11.76L6.83 11.76Q6.83 12.62 6.18 12.94L6.18 12.94Q5.61 13.22 4.55 13.22L4.55 13.22Q4.01 13.22 3.51 13.10L3.51 13.10Q3.47 13.49 3.47 13.96L3.47 13.96L2.42 13.96Q2.42 13.25 2.50 12.69L2.50 12.69Q2.11 12.46 1.79 12.11L1.79 12.11Q0.77 11.01 0.77 9.17L0.77 9.17Q0.77 7.30 1.80 6.23Q2.83 5.15 4.62 5.15L4.62 5.15Q5.20 5.15 5.76 5.27Q6.31 5.39 6.83 5.63ZM3.75 12.00L3.75 12.00Q4.15 12.13 4.68 12.13L4.68 12.13Q5.67 12.13 5.67 11.74L5.67 11.74Q5.67 11.22 4.77 11.22L4.77 11.22Q4.08 11.22 3.75 12.00ZM9.02 13.00L9.02 5.34L10.27 5.34L10.27 13.00L9.02 13.00ZM9.02 3.95L9.02 2.36L10.27 2.36L10.27 3.95L9.02 3.95ZM15.87 6.22L15.87 6.22Q14.86 6.22 14.27 7.01Q13.69 7.80 13.69 9.17L13.69 9.17Q13.69 10.55 14.27 11.34Q14.85 12.13 15.87 12.13L15.87 12.13Q16.88 12.13 17.47 11.33Q18.05 10.54 18.05 9.17L18.05 9.17Q18.05 7.81 17.47 7.02Q16.88 6.22 15.87 6.22ZM15.87 5.15L15.87 5.15Q17.51 5.15 18.45 6.22Q19.39 7.29 19.39 9.17L19.39 9.17Q19.39 11.05 18.45 12.12Q17.51 13.19 15.87 13.19L15.87 13.19Q14.23 13.19 13.29 12.12Q12.36 11.05 12.36 9.17L12.36 9.17Q12.36 7.29 13.29 6.22Q14.23 5.15 15.87 5.15ZM22.48 13.00L22.48 7.54L22.91 7.54Q24.22 7.54 24.81 6.76L24.81 6.76Q25.20 6.24 25.20 5.57L25.20 5.57Q25.20 4.66 24.81 4.22L24.81 4.22Q24.13 3.44 22.91 3.44L22.91 3.44Q22.36 3.44 21.82 3.59L21.82 3.59Q21.29 3.73 20.75 4.03L20.75 4.03L20.75 2.85Q21.27 2.61 21.83 2.50L21.83 2.50Q22.38 2.37 22.96 2.37L22.96 2.37Q24.84 2.37 25.79 3.45L25.79 3.45Q26.53 4.30 26.53 5.57L26.53 5.57Q26.53 6.73 25.79 7.52L25.79 7.52Q25.03 8.33 23.86 8.54L23.86 8.54L23.86 13.00L22.48 13.00ZM28.27 5.58L28.27 2.72L31.75 2.72L31.75 3.37L29.08 3.37L29.08 4.76Q29.27 4.70 29.47 4.68L29.47 4.68Q29.66 4.65 29.85 4.65L29.85 4.65Q30.95 4.65 31.60 5.17L31.60 5.17Q32.24 5.69 32.24 6.59L32.24 6.59Q32.24 7.51 31.58 8.03L31.58 8.03Q30.92 8.53 29.72 8.53L29.72 8.53Q29.31 8.53 28.88 8.47Q28.44 8.41 27.99 8.29L27.99 8.29L27.99 7.51Q28.38 7.70 28.81 7.79L28.81 7.79Q29.23 7.88 29.70 7.88L29.70 7.88Q30.46 7.88 30.91 7.53Q31.35 7.18 31.35 6.59Q31.35 6.00 30.91 5.65Q30.46 5.30 29.70 5.30L29.70 5.30Q29.35 5.30 28.99 5.37Q28.64 5.43 28.27 5.58L28.27 5.58ZM33.88 5.58L33.88 2.72L37.37 2.72L37.37 3.37L34.69 3.37L34.69 4.76Q34.88 4.70 35.08 4.68L35.08 4.68Q35.27 4.65 35.46 4.65L35.46 4.65Q36.57 4.65 37.21 5.17L37.21 5.17Q37.85 5.69 37.85 6.59L37.85 6.59Q37.85 7.51 37.19 8.03L37.19 8.03Q36.53 8.53 35.33 8.53L35.33 8.53Q34.92 8.53 34.49 8.47Q34.06 8.41 33.61 8.29L33.61 8.29L33.61 7.51Q34.00 7.70 34.42 7.79L34.42 7.79Q34.84 7.88 35.31 7.88L35.31 7.88Q36.07 7.88 36.52 7.53Q36.96 7.18 36.96 6.59Q36.96 6.00 36.52 5.65Q36.07 5.30 35.31 5.30L35.31 5.30Q34.96 5.30 34.60 5.37Q34.25 5.43 33.88 5.58L33.88 5.58Z"></path></svg>