<svg height="16.296875" width="35.1572265625" xmlns="http://www.w3.org/2000/svg" ><path d="M6.83 5.63L6.83 5.63L6.83 6.81Q6.30 6.51 5.76 6.37Q5.22 6.22 4.68 6.22L4.68 6.22Q3.45 6.22 2.78 7.00Q2.10 7.77 2.10 9.17L2.10 9.17Q2.10 10.58 2.78 11.35L2.78 11.35Q2.82 11.41 2.86 11.45L2.86 11.45Q3.13 10.90 3.55 10.60L3.55 10.60Q4.05 10.25 4.78 10.25L4.78 10.25Q5.89 10.25 6.40 10.74L6.40 10.74Q6.83 11.16 6.83 11.76L6.83 11.76Q6.83 12.62 6.18 12.94L6.18 12.94Q5.61 13.22 4.55 13.22L4.55 13.22Q4.01 13.22 3.51 13.10L3.51 13.10Q3.47 13.49 3.47 13.96L3.47 13.96L2.42 13.96Q2.42 13.25 2.50 12.69L2.50 12.69Q2.11 12.46 1.79 12.11L1.79 12.11Q0.77 11.01 0.77 9.17L0.77 9.17Q0.77 7.30 1.80 6.23Q2.83 5.15 4.62 5.15L4.62 5.15Q5.20 5.15 5.76 5.27Q6.31 5.39 6.83 5.63ZM3.75 12.00L3.75 12.00Q4.15 12.13 4.68 12.13L4.68 12.13Q5.67 12.13 5.67 11.74L5.67 11.74Q5.67 11.22 4.77 11.22L4.77 11.22Q4.08 11.22 3.75 12.00ZM9.02 13.00L9.02 5.34L10.27 5.34L10.27 13.00L9.02 13.00ZM9.02 3.95L9.02 2.36L10.27 2.36L10.27 3.95L9.02 3.95ZM13.58 6.46L12.38 6.46L12.38 5.34L15.99 5.34L15.99 6.46L14.84 6.46L14.84 11.87L15.99 11.87L15.99 13.00L12.38 13.00L12.38 11.87L13.58 11.87L13.58 6.46ZM19.12 13.00L19.11 7.54L19.54 7.54Q20.86 7.54 21.44 6.76L21.44 6.76Q21.84 6.24 21.84 5.57L21.84 5.57Q21.83 4.66 21.44 4.22L21.44 4.22Q20.77 3.44 19.54 3.44L19.54 3.44Q19.00 3.44 18.46 3.59L18.46 3.59Q17.92 3.73 17.39 4.03L17.39 4.03L17.39 2.85Q17.91 2.61 18.46 2.50L18.46 2.50Q19.02 2.37 19.60 2.37L19.60 2.37Q21.48 2.37 22.42 3.45L22.42 3.45Q23.17 4.30 23.17 5.57L23.17 5.57Q23.17 6.73 22.43 7.52L22.43 7.52Q21.66 8.33 20.50 8.54L20.50 8.54L20.50 13.00L19.12 13.00ZM24.90 5.58L24.90 2.72L28.39 2.72L28.39 3.37L25.72 3.37L25.72 4.76Q25.91 4.70 26.11 4.68L26.11 4.68Q26.30 4.65 26.49 4.65L26.49 4.65Q27.59 4.65 28.23 5.17L28.23 5.17Q28.88 5.69 28.88 6.59L28.88 6.59Q28.88 7.51 28.21 8.03L28.21 8.03Q27.56 8.53 26.35 8.53L26.35 8.53Q25.94 8.53 25.51 8.47Q25.08 8.41 24.63 8.29L24.63 8.29L24.63 7.51Q25.02 7.70 25.44 7.79L25.44 7.79Q25.87 7.88 26.34 7.88L26.34 7.88Q27.10 7.88 27.54 7.53Q27.99 7.18 27.99 6.59Q27.99 6.00 27.54 5.65Q27.10 5.30 26.34 5.30L26.34 5.30Q25.98 5.30 25.63 5.37Q25.27 5.43 24.90 5.58L24.90 5.58ZM30.52 5.58L30.52 2.72L34.00 2.72L34.00 3.37L31.33 3.37L31.33 4.76Q31.52 4.70 31.72 4.68L31.72 4.68Q31.91 4.65 32.10 4.65L32.10 4.65Q33.20 4.65 33.84 5.17L33.84 5.17Q34.49 5.69 34.49 6.59L34.49 6.59Q34.49 7.51 33.82 8.03L33.82 8.03Q33.17 8.53 31.96 8.53L31.96 8.53Q31.55 8.53 31.12 8.47Q30.69 8.41 30.24 8.29L30.24 8.29L30.24 7.51Q30.63 7.70 31.06 7.79L31.06 7.79Q31.48 7.88 31.95 7.88L31.95 7.88Q32.71 7.88 33.15 7.53Q33.60 7.18 33.60 6.59Q33.60 6.00 33.15 5.65Q32.71 5.30 31.95 5.30L31.95 5.30Q31.60 5.30 31.24 5.37Q30.88 5.43 30.52 5.58L30.52 5.58Z"></path></svg>