<svg height="16.296875" width="41.6923828125" xmlns="http://www.w3.org/2000/svg" ><path d="M6.83 5.63L6.83 5.63L6.83 6.81Q6.30 6.51 5.76 6.37Q5.22 6.22 4.68 6.22L4.68 6.22Q3.45 6.22 2.78 7.00Q2.10 7.77 2.10 9.17L2.10 9.17Q2.10 10.58 2.78 11.35L2.78 11.35Q2.82 11.41 2.86 11.45L2.86 11.45Q3.13 10.90 3.55 10.60L3.55 10.60Q4.05 10.25 4.78 10.25L4.78 10.25Q5.89 10.25 6.40 10.74L6.40 10.74Q6.83 11.16 6.83 11.76L6.83 11.76Q6.83 12.62 6.18 12.94L6.18 12.94Q5.61 13.22 4.55 13.22L4.55 13.22Q4.01 13.22 3.51 13.10L3.51 13.10Q3.47 13.49 3.47 13.96L3.47 13.96L2.42 13.96Q2.42 13.25 2.50 12.69L2.50 12.69Q2.11 12.46 1.79 12.11L1.79 12.11Q0.77 11.01 0.77 9.17L0.77 9.17Q0.77 7.30 1.80 6.23Q2.83 5.15 4.62 5.15L4.62 5.15Q5.20 5.15 5.76 5.27Q6.31 5.39 6.83 5.63ZM3.75 12.00L3.75 12.00Q4.15 12.13 4.68 12.13L4.68 12.13Q5.67 12.13 5.67 11.74L5.67 11.74Q5.67 11.22 4.77 11.22L4.77 11.22Q4.08 11.22 3.75 12.00ZM15.57 5.34L12.20 13.71Q11.67 15.07 11.16 15.49Q10.66 15.91 9.81 15.91L9.81 15.91L8.80 15.91L8.80 14.85L9.54 14.85Q10.06 14.85 10.35 14.61Q10.64 14.36 10.99 13.45L10.99 13.45L11.21 12.87L8.11 5.34L9.45 5.34L11.84 11.33L14.23 5.34L15.57 5.34ZM23.67 8.37L23.67 8.37L23.67 13.00L22.41 13.00L22.41 8.42Q22.41 7.33 21.98 6.79Q21.56 6.25 20.71 6.25L20.71 6.25Q19.69 6.25 19.11 6.90Q18.52 7.55 18.52 8.67L18.52 8.67L18.52 13.00L17.25 13.00L17.25 5.34L18.52 5.34L18.52 6.53Q18.97 5.84 19.58 5.50Q20.19 5.15 20.99 5.15L20.99 5.15Q22.31 5.15 22.99 5.97Q23.67 6.79 23.67 8.37ZM28.44 5.34L28.44 5.34Q29.07 5.46 29.41 5.83Q29.76 6.21 29.76 6.77L29.76 6.77Q29.76 7.62 29.11 8.07Q28.46 8.53 27.25 8.53L27.25 8.53Q26.86 8.53 26.43 8.46Q26.00 8.39 25.53 8.25L25.53 8.25L25.53 7.42Q25.88 7.61 26.29 7.70Q26.69 7.79 27.15 7.79L27.15 7.79Q27.90 7.79 28.31 7.52Q28.72 7.25 28.72 6.77L28.72 6.77Q28.72 6.26 28.34 6.00Q27.96 5.74 27.22 5.74L27.22 5.74L26.63 5.74L26.63 5.00L27.28 5.00Q27.92 5.00 28.25 4.79Q28.58 4.57 28.58 4.16L28.58 4.16Q28.58 3.77 28.24 3.56Q27.90 3.35 27.25 3.35L27.25 3.35Q26.97 3.35 26.63 3.41Q26.28 3.47 25.72 3.63L25.72 3.63L25.72 2.84Q26.22 2.73 26.66 2.67Q27.10 2.60 27.47 2.60L27.47 2.60Q28.46 2.60 29.04 3.01Q29.61 3.41 29.61 4.09L29.61 4.09Q29.61 4.56 29.31 4.89Q29.00 5.22 28.44 5.34ZM34.05 5.34L34.05 5.34Q34.68 5.46 35.02 5.83Q35.37 6.21 35.37 6.77L35.37 6.77Q35.37 7.62 34.72 8.07Q34.07 8.53 32.86 8.53L32.86 8.53Q32.47 8.53 32.04 8.46Q31.62 8.39 31.14 8.25L31.14 8.25L31.14 7.42Q31.49 7.61 31.90 7.70Q32.31 7.79 32.76 7.79L32.76 7.79Q33.51 7.79 33.92 7.52Q34.33 7.25 34.33 6.77L34.33 6.77Q34.33 6.26 33.95 6.00Q33.57 5.74 32.83 5.74L32.83 5.74L32.25 5.74L32.25 5.00L32.89 5.00Q33.53 5.00 33.86 4.79Q34.19 4.57 34.19 4.16L34.19 4.16Q34.19 3.77 33.85 3.56Q33.51 3.35 32.86 3.35L32.86 3.35Q32.59 3.35 32.24 3.41Q31.89 3.47 31.34 3.63L31.34 3.63L31.34 2.84Q31.83 2.73 32.27 2.67Q32.71 2.60 33.09 2.60L33.09 2.60Q34.07 2.60 34.65 3.01Q35.23 3.41 35.23 4.09L35.23 4.09Q35.23 4.56 34.92 4.89Q34.61 5.22 34.05 5.34ZM39.34 6.41L39.34 3.55L37.23 6.41L39.34 6.41ZM36.51 6.33L39.19 2.72L40.33 2.72L40.33 6.41L41.25 6.41L41.25 7.16L40.33 7.16L40.33 8.43L39.34 8.43L39.34 7.16L36.51 7.16L36.51 6.33Z"></path></svg>