<svg height="16.296875" width="36.080078125" xmlns="http://www.w3.org/2000/svg" ><path d="M6.83 5.63L6.83 5.63L6.83 6.81Q6.30 6.51 5.76 6.37Q5.22 6.22 4.68 6.22L4.68 6.22Q3.45 6.22 2.78 7.00Q2.10 7.77 2.10 9.17L2.10 9.17Q2.10 10.58 2.78 11.35L2.78 11.35Q2.82 11.41 2.86 11.45L2.86 11.45Q3.13 10.90 3.55 10.60L3.55 10.60Q4.05 10.25 4.78 10.25L4.78 10.25Q5.89 10.25 6.40 10.74L6.40 10.74Q6.83 11.16 6.83 11.76L6.83 11.76Q6.83 12.62 6.18 12.94L6.18 12.94Q5.61 13.22 4.55 13.22L4.55 13.22Q4.01 13.22 3.51 13.10L3.51 13.10Q3.47 13.49 3.47 13.96L3.47 13.96L2.42 13.96Q2.42 13.25 2.50 12.69L2.50 12.69Q2.11 12.46 1.79 12.11L1.79 12.11Q0.77 11.01 0.77 9.17L0.77 9.17Q0.77 7.30 1.80 6.23Q2.83 5.15 4.62 5.15L4.62 5.15Q5.20 5.15 5.76 5.27Q6.31 5.39 6.83 5.63ZM3.75 12.00L3.75 12.00Q4.15 12.13 4.68 12.13L4.68 12.13Q5.67 12.13 5.67 11.74L5.67 11.74Q5.67 11.22 4.77 11.22L4.77 11.22Q4.08 11.22 3.75 12.00ZM15.57 5.34L12.20 13.71Q11.67 15.07 11.16 15.49Q10.66 15.91 9.81 15.91L9.81 15.91L8.80 15.91L8.80 14.85L9.54 14.85Q10.06 14.85 10.35 14.61Q10.64 14.36 10.99 13.45L10.99 13.45L11.21 12.87L8.11 5.34L9.45 5.34L11.84 11.33L14.23 5.34L15.57 5.34ZM23.67 8.37L23.67 8.37L23.67 13.00L22.41 13.00L22.41 8.42Q22.41 7.33 21.98 6.79Q21.56 6.25 20.71 6.25L20.71 6.25Q19.69 6.25 19.11 6.90Q18.52 7.55 18.52 8.67L18.52 8.67L18.52 13.00L17.25 13.00L17.25 5.34L18.52 5.34L18.52 6.53Q18.97 5.84 19.58 5.50Q20.19 5.15 20.99 5.15L20.99 5.15Q22.31 5.15 22.99 5.97Q23.67 6.79 23.67 8.37ZM25.83 5.58L25.83 2.72L29.31 2.72L29.31 3.37L26.64 3.37L26.64 4.76Q26.83 4.70 27.03 4.68L27.03 4.68Q27.22 4.65 27.41 4.65L27.41 4.65Q28.51 4.65 29.16 5.17L29.16 5.17Q29.80 5.69 29.80 6.59L29.80 6.59Q29.80 7.51 29.13 8.03L29.13 8.03Q28.48 8.53 27.28 8.53L27.28 8.53Q26.87 8.53 26.43 8.47Q26.00 8.41 25.55 8.29L25.55 8.29L25.55 7.51Q25.94 7.70 26.37 7.79L26.37 7.79Q26.79 7.88 27.26 7.88L27.26 7.88Q28.02 7.88 28.46 7.53Q28.91 7.18 28.91 6.59Q28.91 6.00 28.46 5.65Q28.02 5.30 27.26 5.30L27.26 5.30Q26.91 5.30 26.55 5.37Q26.20 5.43 25.83 5.58L25.83 5.58ZM34.05 5.34L34.05 5.34Q34.68 5.46 35.02 5.83Q35.37 6.21 35.37 6.77L35.37 6.77Q35.37 7.62 34.72 8.07Q34.07 8.53 32.86 8.53L32.86 8.53Q32.47 8.53 32.04 8.46Q31.62 8.39 31.14 8.25L31.14 8.25L31.14 7.42Q31.49 7.61 31.90 7.70Q32.31 7.79 32.76 7.79L32.76 7.79Q33.51 7.79 33.92 7.52Q34.33 7.25 34.33 6.77L34.33 6.77Q34.33 6.26 33.95 6.00Q33.57 5.74 32.83 5.74L32.83 5.74L32.25 5.74L32.25 5.00L32.89 5.00Q33.53 5.00 33.86 4.79Q34.19 4.57 34.19 4.16L34.19 4.16Q34.19 3.77 33.85 3.56Q33.51 3.35 32.86 3.35L32.86 3.35Q32.59 3.35 32.24 3.41Q31.89 3.47 31.34 3.63L31.34 3.63L31.34 2.84Q31.83 2.73 32.27 2.67Q32.71 2.60 33.09 2.60L33.09 2.60Q34.07 2.60 34.65 3.01Q35.23 3.41 35.23 4.09L35.23 4.09Q35.23 4.56 34.92 4.89Q34.61 5.22 34.05 5.34Z"></path></svg>