<svg height="16.296875" width="27.20703125" xmlns="http://www.w3.org/2000/svg" ><path d="M6.83 5.63L6.83 5.63L6.83 6.81Q6.30 6.51 5.76 6.37Q5.22 6.22 4.68 6.22L4.68 6.22Q3.45 6.22 2.78 7.00Q2.10 7.77 2.10 9.17L2.10 9.17Q2.10 10.58 2.78 11.35L2.78 11.35Q2.82 11.41 2.86 11.45L2.86 11.45Q3.13 10.90 3.55 10.60L3.55 10.60Q4.05 10.25 4.78 10.25L4.78 10.25Q5.89 10.25 6.40 10.74L6.40 10.74Q6.83 11.16 6.83 11.76L6.83 11.76Q6.83 12.62 6.18 12.94L6.18 12.94Q5.61 13.22 4.55 13.22L4.55 13.22Q4.01 13.22 3.51 13.10L3.51 13.10Q3.47 13.49 3.47 13.96L3.47 13.96L2.42 13.96Q2.42 13.25 2.50 12.69L2.50 12.69Q2.11 12.46 1.79 12.11L1.79 12.11Q0.77 11.01 0.77 9.17L0.77 9.17Q0.77 7.30 1.80 6.23Q2.83 5.15 4.62 5.15L4.62 5.15Q5.20 5.15 5.76 5.27Q6.31 5.39 6.83 5.63ZM3.75 12.00L3.75 12.00Q4.15 12.13 4.68 12.13L4.68 12.13Q5.67 12.13 5.67 11.74L5.67 11.74Q5.67 11.22 4.77 11.22L4.77 11.22Q4.08 11.22 3.75 12.00ZM15.57 5.34L12.20 13.71Q11.67 15.07 11.16 15.49Q10.66 15.91 9.81 15.91L9.81 15.91L8.80 15.91L8.80 14.85L9.54 14.85Q10.06 14.85 10.35 14.61Q10.64 14.36 10.99 13.45L10.99 13.45L11.21 12.87L8.11 5.34L9.45 5.34L11.84 11.33L14.23 5.34L15.57 5.34ZM16.95 5.58L16.95 2.72L20.44 2.72L20.44 3.37L17.77 3.37L17.77 4.76Q17.96 4.70 18.16 4.68L18.16 4.68Q18.35 4.65 18.54 4.65L18.54 4.65Q19.64 4.65 20.28 5.17L20.28 5.17Q20.92 5.69 20.92 6.59L20.92 6.59Q20.92 7.51 20.26 8.03L20.26 8.03Q19.61 8.53 18.40 8.53L18.40 8.53Q17.99 8.53 17.56 8.47Q17.13 8.41 16.68 8.29L16.68 8.29L16.68 7.51Q17.07 7.70 17.49 7.79L17.49 7.79Q17.92 7.88 18.39 7.88L18.39 7.88Q19.15 7.88 19.59 7.53Q20.04 7.18 20.04 6.59Q20.04 6.00 19.59 5.65Q19.15 5.30 18.39 5.30L18.39 5.30Q18.03 5.30 17.68 5.37Q17.32 5.43 16.95 5.58L16.95 5.58ZM25.18 5.34L25.18 5.34Q25.81 5.46 26.15 5.83Q26.50 6.21 26.50 6.77L26.50 6.77Q26.50 7.62 25.85 8.07Q25.20 8.53 23.99 8.53L23.99 8.53Q23.60 8.53 23.17 8.46Q22.74 8.39 22.26 8.25L22.26 8.25L22.26 7.42Q22.62 7.61 23.03 7.70Q23.43 7.79 23.89 7.79L23.89 7.79Q24.64 7.79 25.05 7.52Q25.46 7.25 25.46 6.77L25.46 6.77Q25.46 6.26 25.08 6.00Q24.70 5.74 23.96 5.74L23.96 5.74L23.37 5.74L23.37 5.00L24.01 5.00Q24.66 5.00 24.99 4.79Q25.32 4.57 25.32 4.16L25.32 4.16Q25.32 3.77 24.98 3.56Q24.64 3.35 23.99 3.35L23.99 3.35Q23.71 3.35 23.37 3.41Q23.02 3.47 22.46 3.63L22.46 3.63L22.46 2.84Q22.96 2.73 23.40 2.67Q23.84 2.60 24.21 2.60L24.21 2.60Q25.20 2.60 25.77 3.01Q26.35 3.41 26.35 4.09L26.35 4.09Q26.35 4.56 26.04 4.89Q25.74 5.22 25.18 5.34Z"></path></svg>