<svg height="16.296875" width="32.8193359375" xmlns="http://www.w3.org/2000/svg" ><path d="M6.83 5.63L6.83 5.63L6.83 6.81Q6.30 6.51 5.76 6.37Q5.22 6.22 4.68 6.22L4.68 6.22Q3.45 6.22 2.78 7.00Q2.10 7.77 2.10 9.17L2.10 9.17Q2.10 10.58 2.78 11.35L2.78 11.35Q2.82 11.41 2.86 11.45L2.86 11.45Q3.13 10.90 3.55 10.60L3.55 10.60Q4.05 10.25 4.78 10.25L4.78 10.25Q5.89 10.25 6.40 10.74L6.40 10.74Q6.83 11.16 6.83 11.76L6.83 11.76Q6.83 12.62 6.18 12.94L6.18 12.94Q5.61 13.22 4.55 13.22L4.55 13.22Q4.01 13.22 3.51 13.10L3.51 13.10Q3.47 13.49 3.47 13.96L3.47 13.96L2.42 13.96Q2.42 13.25 2.50 12.69L2.50 12.69Q2.11 12.46 1.79 12.11L1.79 12.11Q0.77 11.01 0.77 9.17L0.77 9.17Q0.77 7.30 1.80 6.23Q2.83 5.15 4.62 5.15L4.62 5.15Q5.20 5.15 5.76 5.27Q6.31 5.39 6.83 5.63ZM3.75 12.00L3.75 12.00Q4.15 12.13 4.68 12.13L4.68 12.13Q5.67 12.13 5.67 11.74L5.67 11.74Q5.67 11.22 4.77 11.22L4.77 11.22Q4.08 11.22 3.75 12.00ZM15.57 5.34L12.20 13.71Q11.67 15.07 11.16 15.49Q10.66 15.91 9.81 15.91L9.81 15.91L8.80 15.91L8.80 14.85L9.54 14.85Q10.06 14.85 10.35 14.61Q10.64 14.36 10.99 13.45L10.99 13.45L11.21 12.87L8.11 5.34L9.45 5.34L11.84 11.33L14.23 5.34L15.57 5.34ZM19.56 5.34L19.56 5.34Q20.19 5.46 20.54 5.83Q20.88 6.21 20.88 6.77L20.88 6.77Q20.88 7.62 20.23 8.07Q19.58 8.53 18.38 8.53L18.38 8.53Q17.99 8.53 17.56 8.46Q17.13 8.39 16.65 8.25L16.65 8.25L16.65 7.42Q17.01 7.61 17.41 7.70Q17.82 7.79 18.28 7.79L18.28 7.79Q19.02 7.79 19.43 7.52Q19.84 7.25 19.84 6.77L19.84 6.77Q19.84 6.26 19.47 6.00Q19.09 5.74 18.35 5.74L18.35 5.74L17.76 5.74L17.76 5.00L18.40 5.00Q19.04 5.00 19.38 4.79Q19.71 4.57 19.71 4.16L19.71 4.16Q19.71 3.77 19.37 3.56Q19.02 3.35 18.38 3.35L18.38 3.35Q18.10 3.35 17.75 3.41Q17.40 3.47 16.85 3.63L16.85 3.63L16.85 2.84Q17.35 2.73 17.79 2.67Q18.22 2.60 18.60 2.60L18.60 2.60Q19.58 2.60 20.16 3.01Q20.74 3.41 20.74 4.09L20.74 4.09Q20.74 4.56 20.43 4.89Q20.13 5.22 19.56 5.34ZM25.18 5.34L25.18 5.34Q25.81 5.46 26.15 5.83Q26.50 6.21 26.50 6.77L26.50 6.77Q26.50 7.62 25.85 8.07Q25.20 8.53 23.99 8.53L23.99 8.53Q23.60 8.53 23.17 8.46Q22.74 8.39 22.26 8.25L22.26 8.25L22.26 7.42Q22.62 7.61 23.03 7.70Q23.43 7.79 23.89 7.79L23.89 7.79Q24.64 7.79 25.05 7.52Q25.46 7.25 25.46 6.77L25.46 6.77Q25.46 6.26 25.08 6.00Q24.70 5.74 23.96 5.74L23.96 5.74L23.37 5.74L23.37 5.00L24.01 5.00Q24.66 5.00 24.99 4.79Q25.32 4.57 25.32 4.16L25.32 4.16Q25.32 3.77 24.98 3.56Q24.64 3.35 23.99 3.35L23.99 3.35Q23.71 3.35 23.37 3.41Q23.02 3.47 22.46 3.63L22.46 3.63L22.46 2.84Q22.96 2.73 23.40 2.67Q23.84 2.60 24.21 2.60L24.21 2.60Q25.20 2.60 25.77 3.01Q26.35 3.41 26.35 4.09L26.35 4.09Q26.35 4.56 26.04 4.89Q25.74 5.22 25.18 5.34ZM30.47 6.41L30.47 3.55L28.36 6.41L30.47 6.41ZM27.64 6.33L30.32 2.72L31.45 2.72L31.45 6.41L32.38 6.41L32.38 7.16L31.45 7.16L31.45 8.43L30.47 8.43L30.47 7.16L27.64 7.16L27.64 6.33Z"></path></svg>