<svg height="16.296875" width="39.552734375" xmlns="http://www.w3.org/2000/svg" ><path d="M6.83 5.63L6.83 5.63L6.83 6.81Q6.30 6.51 5.76 6.37Q5.22 6.22 4.68 6.22L4.68 6.22Q3.45 6.22 2.78 7.00Q2.10 7.77 2.10 9.17L2.10 9.17Q2.10 10.58 2.78 11.35L2.78 11.35Q2.82 11.41 2.86 11.45L2.86 11.45Q3.13 10.90 3.55 10.60L3.55 10.60Q4.05 10.25 4.78 10.25L4.78 10.25Q5.89 10.25 6.40 10.74L6.40 10.74Q6.83 11.16 6.83 11.76L6.83 11.76Q6.83 12.62 6.18 12.94L6.18 12.94Q5.61 13.22 4.55 13.22L4.55 13.22Q4.01 13.22 3.51 13.10L3.51 13.10Q3.47 13.49 3.47 13.96L3.47 13.96L2.42 13.96Q2.42 13.25 2.50 12.69L2.50 12.69Q2.11 12.46 1.79 12.11L1.79 12.11Q0.77 11.01 0.77 9.17L0.77 9.17Q0.77 7.30 1.80 6.23Q2.83 5.15 4.62 5.15L4.62 5.15Q5.20 5.15 5.76 5.27Q6.31 5.39 6.83 5.63ZM3.75 12.00L3.75 12.00Q4.15 12.13 4.68 12.13L4.68 12.13Q5.67 12.13 5.67 11.74L5.67 11.74Q5.67 11.22 4.77 11.22L4.77 11.22Q4.08 11.22 3.75 12.00ZM15.57 5.34L12.20 13.71Q11.67 15.07 11.16 15.49Q10.66 15.91 9.81 15.91L9.81 15.91L8.80 15.91L8.80 14.85L9.54 14.85Q10.06 14.85 10.35 14.61Q10.64 14.36 10.99 13.45L10.99 13.45L11.21 12.87L8.11 5.34L9.45 5.34L11.84 11.33L14.23 5.34L15.57 5.34ZM17.98 6.46L16.78 6.46L16.78 5.34L20.38 5.34L20.38 6.46L19.24 6.46L19.24 11.87L20.38 11.87L20.38 13.00L16.78 13.00L16.78 11.87L17.98 11.87L17.98 6.46ZM23.52 13.00L23.51 7.54L23.94 7.54Q25.25 7.54 25.84 6.76L25.84 6.76Q26.24 6.24 26.24 5.57L26.24 5.57Q26.23 4.66 25.84 4.22L25.84 4.22Q25.16 3.44 23.94 3.44L23.94 3.44Q23.39 3.44 22.85 3.59L22.85 3.59Q22.32 3.73 21.79 4.03L21.79 4.03L21.79 2.85Q22.31 2.61 22.86 2.50L22.86 2.50Q23.41 2.37 23.99 2.37L23.99 2.37Q25.87 2.37 26.82 3.45L26.82 3.45Q27.56 4.30 27.56 5.57L27.56 5.57Q27.56 6.73 26.82 7.52L26.82 7.52Q26.06 8.33 24.90 8.54L24.90 8.54L24.90 13.00L23.52 13.00ZM29.30 5.58L29.30 2.72L32.79 2.72L32.79 3.37L30.11 3.37L30.11 4.76Q30.30 4.70 30.50 4.68L30.50 4.68Q30.69 4.65 30.88 4.65L30.88 4.65Q31.99 4.65 32.63 5.17L32.63 5.17Q33.27 5.69 33.27 6.59L33.27 6.59Q33.27 7.51 32.61 8.03L32.61 8.03Q31.95 8.53 30.75 8.53L30.75 8.53Q30.34 8.53 29.91 8.47Q29.48 8.41 29.03 8.29L29.03 8.29L29.03 7.51Q29.42 7.70 29.84 7.79L29.84 7.79Q30.26 7.88 30.73 7.88L30.73 7.88Q31.49 7.88 31.94 7.53Q32.38 7.18 32.38 6.59Q32.38 6.00 31.94 5.65Q31.49 5.30 30.73 5.30L30.73 5.30Q30.38 5.30 30.02 5.37Q29.67 5.43 29.30 5.58L29.30 5.58ZM34.91 5.58L34.91 2.72L38.40 2.72L38.40 3.37L35.72 3.37L35.72 4.76Q35.92 4.70 36.11 4.68L36.11 4.68Q36.31 4.65 36.50 4.65L36.50 4.65Q37.60 4.65 38.24 5.17L38.24 5.17Q38.88 5.69 38.88 6.59L38.88 6.59Q38.88 7.51 38.22 8.03L38.22 8.03Q37.56 8.53 36.36 8.53L36.36 8.53Q35.95 8.53 35.52 8.47Q35.09 8.41 34.64 8.29L34.64 8.29L34.64 7.51Q35.03 7.70 35.45 7.79L35.45 7.79Q35.88 7.88 36.35 7.88L36.35 7.88Q37.11 7.88 37.55 7.53Q37.99 7.18 37.99 6.59Q37.99 6.00 37.55 5.65Q37.11 5.30 36.35 5.30L36.35 5.30Q35.99 5.30 35.64 5.37Q35.28 5.43 34.91 5.58L34.91 5.58Z"></path></svg>