<svg height="16.296875" width="32.6962890625" xmlns="http://www.w3.org/2000/svg" ><path d="M6.20 5.56L6.20 5.56L6.20 6.75Q5.67 6.48 5.09 6.34Q4.52 6.21 3.90 6.21L3.90 6.21Q2.97 6.21 2.50 6.49Q2.03 6.78 2.03 7.36L2.03 7.36Q2.03 7.79 2.37 8.04Q2.70 8.29 3.71 8.52L3.71 8.52L4.14 8.61Q5.48 8.90 6.05 9.42Q6.61 9.95 6.61 10.88L6.61 10.88Q6.61 11.95 5.77 12.57Q4.92 13.19 3.45 13.19L3.45 13.19Q2.83 13.19 2.16 13.07Q1.50 12.95 0.76 12.71L0.76 12.71L0.76 11.42Q1.46 11.78 2.13 11.96Q2.81 12.14 3.47 12.14L3.47 12.14Q4.36 12.14 4.84 11.84Q5.32 11.53 5.32 10.98L5.32 10.98Q5.32 10.47 4.97 10.19Q4.63 9.92 3.46 9.67L3.46 9.67L3.02 9.56Q1.85 9.32 1.33 8.81Q0.81 8.30 0.81 7.41L0.81 7.41Q0.81 6.33 1.58 5.74Q2.34 5.15 3.75 5.15L3.75 5.15Q4.45 5.15 5.07 5.26Q5.68 5.36 6.20 5.56ZM11.58 6.22L11.58 6.22Q10.57 6.22 9.98 7.01Q9.39 7.80 9.39 9.17L9.39 9.17Q9.39 10.55 9.98 11.34Q10.56 12.13 11.58 12.13L11.58 12.13Q12.58 12.13 13.17 11.33Q13.76 10.54 13.76 9.17L13.76 9.17Q13.76 7.81 13.17 7.02Q12.58 6.22 11.58 6.22ZM11.58 5.15L11.58 5.15Q13.22 5.15 14.16 6.22Q15.09 7.29 15.09 9.17L15.09 9.17Q15.09 11.05 14.16 12.12Q13.22 13.19 11.58 13.19L11.58 13.19Q9.93 13.19 9.00 12.12Q8.07 11.05 8.07 9.17L8.07 9.17Q8.07 7.29 9.00 6.22Q9.93 5.15 11.58 5.15ZM19.44 5.34L19.44 5.34Q20.07 5.46 20.42 5.83Q20.76 6.21 20.76 6.77L20.76 6.77Q20.76 7.62 20.11 8.07Q19.46 8.53 18.25 8.53L18.25 8.53Q17.86 8.53 17.44 8.46Q17.01 8.39 16.53 8.25L16.53 8.25L16.53 7.42Q16.88 7.61 17.29 7.70Q17.70 7.79 18.16 7.79L18.16 7.79Q18.90 7.79 19.31 7.52Q19.72 7.25 19.72 6.77L19.72 6.77Q19.72 6.26 19.34 6.00Q18.96 5.74 18.22 5.74L18.22 5.74L17.64 5.74L17.64 5.00L18.28 5.00Q18.92 5.00 19.25 4.79Q19.58 4.57 19.58 4.16L19.58 4.16Q19.58 3.77 19.24 3.56Q18.90 3.35 18.25 3.35L18.25 3.35Q17.98 3.35 17.63 3.41Q17.28 3.47 16.73 3.63L16.73 3.63L16.73 2.84Q17.23 2.73 17.66 2.67Q18.10 2.60 18.48 2.60L18.48 2.60Q19.46 2.60 20.04 3.01Q20.62 3.41 20.62 4.09L20.62 4.09Q20.62 4.56 20.31 4.89Q20.00 5.22 19.44 5.34ZM25.05 5.34L25.05 5.34Q25.68 5.46 26.03 5.83Q26.37 6.21 26.37 6.77L26.37 6.77Q26.37 7.62 25.72 8.07Q25.07 8.53 23.86 8.53L23.86 8.53Q23.47 8.53 23.05 8.46Q22.62 8.39 22.14 8.25L22.14 8.25L22.14 7.42Q22.50 7.61 22.90 7.70Q23.31 7.79 23.77 7.79L23.77 7.79Q24.51 7.79 24.92 7.52Q25.33 7.25 25.33 6.77L25.33 6.77Q25.33 6.26 24.95 6.00Q24.58 5.74 23.84 5.74L23.84 5.74L23.25 5.74L23.25 5.00L23.89 5.00Q24.53 5.00 24.87 4.79Q25.20 4.57 25.20 4.16L25.20 4.16Q25.20 3.77 24.86 3.56Q24.51 3.35 23.86 3.35L23.86 3.35Q23.59 3.35 23.24 3.41Q22.89 3.47 22.34 3.63L22.34 3.63L22.34 2.84Q22.84 2.73 23.28 2.67Q23.71 2.60 24.09 2.60L24.09 2.60Q25.07 2.60 25.65 3.01Q26.23 3.41 26.23 4.09L26.23 4.09Q26.23 4.56 25.92 4.89Q25.61 5.22 25.05 5.34ZM30.34 6.41L30.34 3.55L28.23 6.41L30.34 6.41ZM27.51 6.33L30.19 2.72L31.33 2.72L31.33 6.41L32.25 6.41L32.25 7.16L31.33 7.16L31.33 8.43L30.34 8.43L30.34 7.16L27.51 7.16L27.51 6.33Z"></path></svg>