<svg height="16.296875" width="27.083984375" xmlns="http://www.w3.org/2000/svg" ><path d="M6.20 5.56L6.20 5.56L6.20 6.75Q5.67 6.48 5.09 6.34Q4.52 6.21 3.90 6.21L3.90 6.21Q2.97 6.21 2.50 6.49Q2.03 6.78 2.03 7.36L2.03 7.36Q2.03 7.79 2.37 8.04Q2.70 8.29 3.71 8.52L3.71 8.52L4.14 8.61Q5.48 8.90 6.05 9.42Q6.61 9.95 6.61 10.88L6.61 10.88Q6.61 11.95 5.77 12.57Q4.92 13.19 3.45 13.19L3.45 13.19Q2.83 13.19 2.16 13.07Q1.50 12.95 0.76 12.71L0.76 12.71L0.76 11.42Q1.46 11.78 2.13 11.96Q2.81 12.14 3.47 12.14L3.47 12.14Q4.36 12.14 4.84 11.84Q5.32 11.53 5.32 10.98L5.32 10.98Q5.32 10.47 4.97 10.19Q4.63 9.92 3.46 9.67L3.46 9.67L3.02 9.56Q1.85 9.32 1.33 8.81Q0.81 8.30 0.81 7.41L0.81 7.41Q0.81 6.33 1.58 5.74Q2.34 5.15 3.75 5.15L3.75 5.15Q4.45 5.15 5.07 5.26Q5.68 5.36 6.20 5.56ZM13.48 7.52L13.48 7.52L10.15 11.57Q10.43 11.85 10.78 11.99Q11.14 12.13 11.58 12.13L11.58 12.13Q12.58 12.13 13.17 11.33Q13.76 10.54 13.76 9.17L13.76 9.17Q13.76 8.63 13.69 8.23Q13.62 7.83 13.48 7.52ZM9.66 10.83L13.00 6.78Q12.71 6.50 12.36 6.36Q12.00 6.22 11.58 6.22L11.58 6.22Q10.55 6.22 9.97 7.02Q9.39 7.83 9.39 9.27L9.39 9.27Q9.39 9.76 9.46 10.14Q9.52 10.51 9.66 10.83L9.66 10.83ZM7.79 13.10L8.80 11.86Q8.44 11.33 8.25 10.66Q8.07 9.99 8.07 9.17L8.07 9.17Q8.07 7.29 9.00 6.22Q9.93 5.15 11.58 5.15L11.58 5.15Q12.22 5.15 12.76 5.33Q13.30 5.50 13.76 5.86L13.76 5.86L14.71 4.71L15.36 5.25L14.36 6.47Q14.72 7 14.91 7.68Q15.09 8.35 15.09 9.17L15.09 9.17Q15.09 11.05 14.16 12.12Q13.22 13.19 11.58 13.19L11.58 13.19Q10.92 13.19 10.37 13.02Q9.82 12.84 9.39 12.49L9.39 12.49L8.44 13.64L7.79 13.10ZM16.83 5.58L16.83 2.72L20.32 2.72L20.32 3.37L17.64 3.37L17.64 4.76Q17.83 4.70 18.03 4.68L18.03 4.68Q18.22 4.65 18.42 4.65L18.42 4.65Q19.52 4.65 20.16 5.17L20.16 5.17Q20.80 5.69 20.80 6.59L20.80 6.59Q20.80 7.51 20.14 8.03L20.14 8.03Q19.48 8.53 18.28 8.53L18.28 8.53Q17.87 8.53 17.44 8.47Q17.01 8.41 16.56 8.29L16.56 8.29L16.56 7.51Q16.95 7.70 17.37 7.79L17.37 7.79Q17.79 7.88 18.27 7.88L18.27 7.88Q19.02 7.88 19.47 7.53Q19.91 7.18 19.91 6.59Q19.91 6.00 19.47 5.65Q19.02 5.30 18.27 5.30L18.27 5.30Q17.91 5.30 17.55 5.37Q17.20 5.43 16.83 5.58L16.83 5.58ZM25.05 5.34L25.05 5.34Q25.68 5.46 26.03 5.83Q26.37 6.21 26.37 6.77L26.37 6.77Q26.37 7.62 25.72 8.07Q25.07 8.53 23.86 8.53L23.86 8.53Q23.47 8.53 23.05 8.46Q22.62 8.39 22.14 8.25L22.14 8.25L22.14 7.42Q22.50 7.61 22.90 7.70Q23.31 7.79 23.77 7.79L23.77 7.79Q24.51 7.79 24.92 7.52Q25.33 7.25 25.33 6.77L25.33 6.77Q25.33 6.26 24.95 6.00Q24.58 5.74 23.84 5.74L23.84 5.74L23.25 5.74L23.25 5.00L23.89 5.00Q24.53 5.00 24.87 4.79Q25.20 4.57 25.20 4.16L25.20 4.16Q25.20 3.77 24.86 3.56Q24.51 3.35 23.86 3.35L23.86 3.35Q23.59 3.35 23.24 3.41Q22.89 3.47 22.34 3.63L22.34 3.63L22.34 2.84Q22.84 2.73 23.28 2.67Q23.71 2.60 24.09 2.60L24.09 2.60Q25.07 2.60 25.65 3.01Q26.23 3.41 26.23 4.09L26.23 4.09Q26.23 4.56 25.92 4.89Q25.61 5.22 25.05 5.34Z"></path></svg>