<svg height="16.296875" width="41.5693359375" xmlns="http://www.w3.org/2000/svg" ><path d="M6.20 5.56L6.20 5.56L6.20 6.75Q5.67 6.48 5.09 6.34Q4.52 6.21 3.90 6.21L3.90 6.21Q2.97 6.21 2.50 6.49Q2.03 6.78 2.03 7.36L2.03 7.36Q2.03 7.79 2.37 8.04Q2.70 8.29 3.71 8.52L3.71 8.52L4.14 8.61Q5.48 8.90 6.05 9.42Q6.61 9.95 6.61 10.88L6.61 10.88Q6.61 11.95 5.77 12.57Q4.92 13.19 3.45 13.19L3.45 13.19Q2.83 13.19 2.16 13.07Q1.50 12.95 0.76 12.71L0.76 12.71L0.76 11.42Q1.46 11.78 2.13 11.96Q2.81 12.14 3.47 12.14L3.47 12.14Q4.36 12.14 4.84 11.84Q5.32 11.53 5.32 10.98L5.32 10.98Q5.32 10.47 4.97 10.19Q4.63 9.92 3.46 9.67L3.46 9.67L3.02 9.56Q1.85 9.32 1.33 8.81Q0.81 8.30 0.81 7.41L0.81 7.41Q0.81 6.33 1.58 5.74Q2.34 5.15 3.75 5.15L3.75 5.15Q4.45 5.15 5.07 5.26Q5.68 5.36 6.20 5.56ZM11.58 6.22L11.58 6.22Q10.57 6.22 9.98 7.01Q9.39 7.80 9.39 9.17L9.39 9.17Q9.39 10.55 9.98 11.34Q10.56 12.13 11.58 12.13L11.58 12.13Q12.58 12.13 13.17 11.33Q13.76 10.54 13.76 9.17L13.76 9.17Q13.76 7.81 13.17 7.02Q12.58 6.22 11.58 6.22ZM11.58 5.15L11.58 5.15Q13.22 5.15 14.16 6.22Q15.09 7.29 15.09 9.17L15.09 9.17Q15.09 11.05 14.16 12.12Q13.22 13.19 11.58 13.19L11.58 13.19Q9.93 13.19 9.00 12.12Q8.07 11.05 8.07 9.17L8.07 9.17Q8.07 7.29 9.00 6.22Q9.93 5.15 11.58 5.15ZM23.54 8.37L23.54 8.37L23.54 13.13Q23.54 14.59 22.98 15.25L22.98 15.25Q22.43 15.91 21.19 15.91L21.19 15.91L19.46 15.91L19.46 14.84L21.05 14.84Q21.77 14.84 22.03 14.51L22.03 14.51Q22.29 14.18 22.29 13.13L22.29 13.13L22.29 8.42Q22.29 7.33 21.86 6.79Q21.44 6.25 20.59 6.25L20.59 6.25Q19.57 6.25 18.98 6.90Q18.40 7.55 18.40 8.67L18.40 8.67L18.40 13.00L17.13 13.00L17.13 5.34L18.40 5.34L18.40 6.53Q18.85 5.84 19.46 5.50L19.46 5.50Q20.07 5.15 20.87 5.15L20.87 5.15Q22.19 5.15 22.87 5.97L22.87 5.97Q23.54 6.79 23.54 8.37ZM28.31 5.34L28.31 5.34Q28.94 5.46 29.29 5.83Q29.63 6.21 29.63 6.77L29.63 6.77Q29.63 7.62 28.98 8.07Q28.33 8.53 27.13 8.53L27.13 8.53Q26.74 8.53 26.31 8.46Q25.88 8.39 25.40 8.25L25.40 8.25L25.40 7.42Q25.76 7.61 26.16 7.70Q26.57 7.79 27.03 7.79L27.03 7.79Q27.77 7.79 28.18 7.52Q28.59 7.25 28.59 6.77L28.59 6.77Q28.59 6.26 28.22 6.00Q27.84 5.74 27.10 5.74L27.10 5.74L26.51 5.74L26.51 5.00L27.15 5.00Q27.79 5.00 28.13 4.79Q28.46 4.57 28.46 4.16L28.46 4.16Q28.46 3.77 28.12 3.56Q27.77 3.35 27.13 3.35L27.13 3.35Q26.85 3.35 26.50 3.41Q26.15 3.47 25.60 3.63L25.60 3.63L25.60 2.84Q26.10 2.73 26.54 2.67Q26.97 2.60 27.35 2.60L27.35 2.60Q28.33 2.60 28.91 3.01Q29.49 3.41 29.49 4.09L29.49 4.09Q29.49 4.56 29.18 4.89Q28.88 5.22 28.31 5.34ZM33.93 5.34L33.93 5.34Q34.56 5.46 34.90 5.83Q35.25 6.21 35.25 6.77L35.25 6.77Q35.25 7.62 34.60 8.07Q33.95 8.53 32.74 8.53L32.74 8.53Q32.35 8.53 31.92 8.46Q31.49 8.39 31.01 8.25L31.01 8.25L31.01 7.42Q31.37 7.61 31.78 7.70Q32.18 7.79 32.64 7.79L32.64 7.79Q33.39 7.79 33.80 7.52Q34.21 7.25 34.21 6.77L34.21 6.77Q34.21 6.26 33.83 6.00Q33.45 5.74 32.71 5.74L32.71 5.74L32.12 5.74L32.12 5.00L32.76 5.00Q33.41 5.00 33.74 4.79Q34.07 4.57 34.07 4.16L34.07 4.16Q34.07 3.77 33.73 3.56Q33.39 3.35 32.74 3.35L32.74 3.35Q32.46 3.35 32.12 3.41Q31.77 3.47 31.21 3.63L31.21 3.63L31.21 2.84Q31.71 2.73 32.15 2.67Q32.59 2.60 32.96 2.60L32.96 2.60Q33.95 2.60 34.52 3.01Q35.10 3.41 35.10 4.09L35.10 4.09Q35.10 4.56 34.79 4.89Q34.49 5.22 33.93 5.34ZM39.22 6.41L39.22 3.55L37.11 6.41L39.22 6.41ZM36.39 6.33L39.07 2.72L40.20 2.72L40.20 6.41L41.13 6.41L41.13 7.16L40.20 7.16L40.20 8.43L39.22 8.43L39.22 7.16L36.39 7.16L36.39 6.33Z"></path></svg>