<svg height="16.296875" width="34.2275390625" xmlns="http://www.w3.org/2000/svg" ><path d="M6.20 5.56L6.20 5.56L6.20 6.75Q5.67 6.48 5.09 6.34Q4.52 6.21 3.90 6.21L3.90 6.21Q2.97 6.21 2.50 6.49Q2.03 6.78 2.03 7.36L2.03 7.36Q2.03 7.79 2.37 8.04Q2.70 8.29 3.71 8.52L3.71 8.52L4.14 8.61Q5.48 8.90 6.05 9.42Q6.61 9.95 6.61 10.88L6.61 10.88Q6.61 11.95 5.77 12.57Q4.92 13.19 3.45 13.19L3.45 13.19Q2.83 13.19 2.16 13.07Q1.50 12.95 0.76 12.71L0.76 12.71L0.76 11.42Q1.46 11.78 2.13 11.96Q2.81 12.14 3.47 12.14L3.47 12.14Q4.36 12.14 4.84 11.84Q5.32 11.53 5.32 10.98L5.32 10.98Q5.32 10.47 4.97 10.19Q4.63 9.92 3.46 9.67L3.46 9.67L3.02 9.56Q1.85 9.32 1.33 8.81Q0.81 8.30 0.81 7.41L0.81 7.41Q0.81 6.33 1.58 5.74Q2.34 5.15 3.75 5.15L3.75 5.15Q4.45 5.15 5.07 5.26Q5.68 5.36 6.20 5.56ZM11.58 6.22L11.58 6.22Q10.57 6.22 9.98 7.01Q9.39 7.80 9.39 9.17L9.39 9.17Q9.39 10.55 9.98 11.34Q10.56 12.13 11.58 12.13L11.58 12.13Q12.58 12.13 13.17 11.33Q13.76 10.54 13.76 9.17L13.76 9.17Q13.76 7.81 13.17 7.02Q12.58 6.22 11.58 6.22ZM11.58 5.15L11.58 5.15Q13.22 5.15 14.16 6.22Q15.09 7.29 15.09 9.17L15.09 9.17Q15.09 11.05 14.16 12.12Q13.22 13.19 11.58 13.19L11.58 13.19Q9.93 13.19 9.00 12.12Q8.07 11.05 8.07 9.17L8.07 9.17Q8.07 7.29 9.00 6.22Q9.93 5.15 11.58 5.15ZM18.19 13.00L18.18 7.54L18.61 7.54Q19.93 7.54 20.51 6.76L20.51 6.76Q20.91 6.24 20.91 5.57L20.91 5.57Q20.90 4.66 20.51 4.22L20.51 4.22Q19.84 3.44 18.61 3.44L18.61 3.44Q18.07 3.44 17.53 3.59L17.53 3.59Q16.99 3.73 16.46 4.03L16.46 4.03L16.46 2.85Q16.98 2.61 17.53 2.50L17.53 2.50Q18.09 2.37 18.67 2.37L18.67 2.37Q20.55 2.37 21.49 3.45L21.49 3.45Q22.24 4.30 22.24 5.57L22.24 5.57Q22.24 6.73 21.50 7.52L21.50 7.52Q20.73 8.33 19.57 8.54L19.57 8.54L19.57 13.00L18.19 13.00ZM23.97 5.58L23.97 2.72L27.46 2.72L27.46 3.37L24.79 3.37L24.79 4.76Q24.98 4.70 25.18 4.68L25.18 4.68Q25.37 4.65 25.56 4.65L25.56 4.65Q26.66 4.65 27.30 5.17L27.30 5.17Q27.95 5.69 27.95 6.59L27.95 6.59Q27.95 7.51 27.28 8.03L27.28 8.03Q26.63 8.53 25.42 8.53L25.42 8.53Q25.01 8.53 24.58 8.47Q24.15 8.41 23.70 8.29L23.70 8.29L23.70 7.51Q24.09 7.70 24.51 7.79L24.51 7.79Q24.94 7.88 25.41 7.88L25.41 7.88Q26.17 7.88 26.61 7.53Q27.06 7.18 27.06 6.59Q27.06 6.00 26.61 5.65Q26.17 5.30 25.41 5.30L25.41 5.30Q25.05 5.30 24.70 5.37Q24.34 5.43 23.97 5.58L23.97 5.58ZM29.59 5.58L29.59 2.72L33.07 2.72L33.07 3.37L30.40 3.37L30.40 4.76Q30.59 4.70 30.79 4.68L30.79 4.68Q30.98 4.65 31.17 4.65L31.17 4.65Q32.27 4.65 32.92 5.17L32.92 5.17Q33.56 5.69 33.56 6.59L33.56 6.59Q33.56 7.51 32.89 8.03L32.89 8.03Q32.24 8.53 31.04 8.53L31.04 8.53Q30.63 8.53 30.19 8.47Q29.76 8.41 29.31 8.29L29.31 8.29L29.31 7.51Q29.70 7.70 30.13 7.79L30.13 7.79Q30.55 7.88 31.02 7.88L31.02 7.88Q31.78 7.88 32.22 7.53Q32.67 7.18 32.67 6.59Q32.67 6.00 32.22 5.65Q31.78 5.30 31.02 5.30L31.02 5.30Q30.67 5.30 30.31 5.37Q29.96 5.43 29.59 5.58L29.59 5.58Z"></path></svg>