<svg height="16.296875" width="27.3916015625" xmlns="http://www.w3.org/2000/svg" ><path d="M6.20 5.56L6.20 5.56L6.20 6.75Q5.67 6.48 5.09 6.34Q4.52 6.21 3.90 6.21L3.90 6.21Q2.97 6.21 2.50 6.49Q2.03 6.78 2.03 7.36L2.03 7.36Q2.03 7.79 2.37 8.04Q2.70 8.29 3.71 8.52L3.71 8.52L4.14 8.61Q5.48 8.90 6.05 9.42Q6.61 9.95 6.61 10.88L6.61 10.88Q6.61 11.95 5.77 12.57Q4.92 13.19 3.45 13.19L3.45 13.19Q2.83 13.19 2.16 13.07Q1.50 12.95 0.76 12.71L0.76 12.71L0.76 11.42Q1.46 11.78 2.13 11.96Q2.81 12.14 3.47 12.14L3.47 12.14Q4.36 12.14 4.84 11.84Q5.32 11.53 5.32 10.98L5.32 10.98Q5.32 10.47 4.97 10.19Q4.63 9.92 3.46 9.67L3.46 9.67L3.02 9.56Q1.85 9.32 1.33 8.81Q0.81 8.30 0.81 7.41L0.81 7.41Q0.81 6.33 1.58 5.74Q2.34 5.15 3.75 5.15L3.75 5.15Q4.45 5.15 5.07 5.26Q5.68 5.36 6.20 5.56ZM8.48 9.97L8.48 9.97L8.48 5.34L9.74 5.34L9.74 9.93Q9.74 11.01 10.17 11.56Q10.59 12.10 11.44 12.10L11.44 12.10Q12.46 12.10 13.05 11.45Q13.64 10.80 13.64 9.68L13.64 9.68L13.64 5.34L14.90 5.34L14.90 13.00L13.64 13.00L13.64 11.82Q13.18 12.52 12.57 12.85Q11.97 13.19 11.17 13.19L11.17 13.19Q9.85 13.19 9.17 12.37Q8.48 11.55 8.48 9.97ZM11.65 5.15L11.65 5.15ZM17.14 5.58L17.14 2.72L20.62 2.72L20.62 3.37L17.95 3.37L17.95 4.76Q18.14 4.70 18.34 4.68L18.34 4.68Q18.53 4.65 18.72 4.65L18.72 4.65Q19.82 4.65 20.47 5.17L20.47 5.17Q21.11 5.69 21.11 6.59L21.11 6.59Q21.11 7.51 20.45 8.03L20.45 8.03Q19.79 8.53 18.59 8.53L18.59 8.53Q18.18 8.53 17.75 8.47Q17.32 8.41 16.86 8.29L16.86 8.29L16.86 7.51Q17.25 7.70 17.68 7.79L17.68 7.79Q18.10 7.88 18.57 7.88L18.57 7.88Q19.33 7.88 19.78 7.53Q20.22 7.18 20.22 6.59Q20.22 6.00 19.78 5.65Q19.33 5.30 18.57 5.30L18.57 5.30Q18.22 5.30 17.86 5.37Q17.51 5.43 17.14 5.58L17.14 5.58ZM25.36 5.34L25.36 5.34Q25.99 5.46 26.34 5.83Q26.68 6.21 26.68 6.77L26.68 6.77Q26.68 7.62 26.03 8.07Q25.38 8.53 24.17 8.53L24.17 8.53Q23.78 8.53 23.35 8.46Q22.93 8.39 22.45 8.25L22.45 8.25L22.45 7.42Q22.80 7.61 23.21 7.70Q23.62 7.79 24.08 7.79L24.08 7.79Q24.82 7.79 25.23 7.52Q25.64 7.25 25.64 6.77L25.64 6.77Q25.64 6.26 25.26 6.00Q24.88 5.74 24.14 5.74L24.14 5.74L23.56 5.74L23.56 5.00L24.20 5.00Q24.84 5.00 25.17 4.79Q25.50 4.57 25.50 4.16L25.50 4.16Q25.50 3.77 25.16 3.56Q24.82 3.35 24.17 3.35L24.17 3.35Q23.90 3.35 23.55 3.41Q23.20 3.47 22.65 3.63L22.65 3.63L22.65 2.84Q23.15 2.73 23.58 2.67Q24.02 2.60 24.40 2.60L24.40 2.60Q25.38 2.60 25.96 3.01Q26.54 3.41 26.54 4.09L26.54 4.09Q26.54 4.56 26.23 4.89Q25.92 5.22 25.36 5.34Z"></path></svg>