<svg height="16.296875" width="33.00390625" xmlns="http://www.w3.org/2000/svg" ><path d="M6.20 5.56L6.20 5.56L6.20 6.75Q5.67 6.48 5.09 6.34Q4.52 6.21 3.90 6.21L3.90 6.21Q2.97 6.21 2.50 6.49Q2.03 6.78 2.03 7.36L2.03 7.36Q2.03 7.79 2.37 8.04Q2.70 8.29 3.71 8.52L3.71 8.52L4.14 8.61Q5.48 8.90 6.05 9.42Q6.61 9.95 6.61 10.88L6.61 10.88Q6.61 11.95 5.77 12.57Q4.92 13.19 3.45 13.19L3.45 13.19Q2.83 13.19 2.16 13.07Q1.50 12.95 0.76 12.71L0.76 12.71L0.76 11.42Q1.46 11.78 2.13 11.96Q2.81 12.14 3.47 12.14L3.47 12.14Q4.36 12.14 4.84 11.84Q5.32 11.53 5.32 10.98L5.32 10.98Q5.32 10.47 4.97 10.19Q4.63 9.92 3.46 9.67L3.46 9.67L3.02 9.56Q1.85 9.32 1.33 8.81Q0.81 8.30 0.81 7.41L0.81 7.41Q0.81 6.33 1.58 5.74Q2.34 5.15 3.75 5.15L3.75 5.15Q4.45 5.15 5.07 5.26Q5.68 5.36 6.20 5.56ZM8.48 9.97L8.48 9.97L8.48 5.34L9.74 5.34L9.74 9.93Q9.74 11.01 10.17 11.56Q10.59 12.10 11.44 12.10L11.44 12.10Q12.46 12.10 13.05 11.45Q13.64 10.80 13.64 9.68L13.64 9.68L13.64 5.34L14.90 5.34L14.90 13.00L13.64 13.00L13.64 11.82Q13.18 12.52 12.57 12.85Q11.97 13.19 11.17 13.19L11.17 13.19Q9.85 13.19 9.17 12.37Q8.48 11.55 8.48 9.97ZM11.65 5.15L11.65 5.15ZM19.75 5.34L19.75 5.34Q20.38 5.46 20.72 5.83Q21.07 6.21 21.07 6.77L21.07 6.77Q21.07 7.62 20.42 8.07Q19.77 8.53 18.56 8.53L18.56 8.53Q18.17 8.53 17.74 8.46Q17.32 8.39 16.84 8.25L16.84 8.25L16.84 7.42Q17.19 7.61 17.60 7.70Q18.01 7.79 18.46 7.79L18.46 7.79Q19.21 7.79 19.62 7.52Q20.03 7.25 20.03 6.77L20.03 6.77Q20.03 6.26 19.65 6.00Q19.27 5.74 18.53 5.74L18.53 5.74L17.94 5.74L17.94 5.00L18.59 5.00Q19.23 5.00 19.56 4.79Q19.89 4.57 19.89 4.16L19.89 4.16Q19.89 3.77 19.55 3.56Q19.21 3.35 18.56 3.35L18.56 3.35Q18.29 3.35 17.94 3.41Q17.59 3.47 17.04 3.63L17.04 3.63L17.04 2.84Q17.53 2.73 17.97 2.67Q18.41 2.60 18.79 2.60L18.79 2.60Q19.77 2.60 20.35 3.01Q20.92 3.41 20.92 4.09L20.92 4.09Q20.92 4.56 20.62 4.89Q20.31 5.22 19.75 5.34ZM25.36 5.34L25.36 5.34Q25.99 5.46 26.34 5.83Q26.68 6.21 26.68 6.77L26.68 6.77Q26.68 7.62 26.03 8.07Q25.38 8.53 24.17 8.53L24.17 8.53Q23.78 8.53 23.35 8.46Q22.93 8.39 22.45 8.25L22.45 8.25L22.45 7.42Q22.80 7.61 23.21 7.70Q23.62 7.79 24.08 7.79L24.08 7.79Q24.82 7.79 25.23 7.52Q25.64 7.25 25.64 6.77L25.64 6.77Q25.64 6.26 25.26 6.00Q24.88 5.74 24.14 5.74L24.14 5.74L23.56 5.74L23.56 5.00L24.20 5.00Q24.84 5.00 25.17 4.79Q25.50 4.57 25.50 4.16L25.50 4.16Q25.50 3.77 25.16 3.56Q24.82 3.35 24.17 3.35L24.17 3.35Q23.90 3.35 23.55 3.41Q23.20 3.47 22.65 3.63L22.65 3.63L22.65 2.84Q23.15 2.73 23.58 2.67Q24.02 2.60 24.40 2.60L24.40 2.60Q25.38 2.60 25.96 3.01Q26.54 3.41 26.54 4.09L26.54 4.09Q26.54 4.56 26.23 4.89Q25.92 5.22 25.36 5.34ZM30.65 6.41L30.65 3.55L28.54 6.41L30.65 6.41ZM27.82 6.33L30.50 2.72L31.64 2.72L31.64 6.41L32.56 6.41L32.56 7.16L31.64 7.16L31.64 8.43L30.65 8.43L30.65 7.16L27.82 7.16L27.82 6.33Z"></path></svg>