<svg height="16.296875" width="25.9423828125" xmlns="http://www.w3.org/2000/svg" ><path d="M6.20 5.56L6.20 5.56L6.20 6.75Q5.67 6.48 5.09 6.34Q4.52 6.21 3.90 6.21L3.90 6.21Q2.97 6.21 2.50 6.49Q2.03 6.78 2.03 7.36L2.03 7.36Q2.03 7.79 2.37 8.04Q2.70 8.29 3.71 8.52L3.71 8.52L4.14 8.61Q5.48 8.90 6.05 9.42Q6.61 9.95 6.61 10.88L6.61 10.88Q6.61 11.95 5.77 12.57Q4.92 13.19 3.45 13.19L3.45 13.19Q2.83 13.19 2.16 13.07Q1.50 12.95 0.76 12.71L0.76 12.71L0.76 11.42Q1.46 11.78 2.13 11.96Q2.81 12.14 3.47 12.14L3.47 12.14Q4.36 12.14 4.84 11.84Q5.32 11.53 5.32 10.98L5.32 10.98Q5.32 10.47 4.97 10.19Q4.63 9.92 3.46 9.67L3.46 9.67L3.02 9.56Q1.85 9.32 1.33 8.81Q0.81 8.30 0.81 7.41L0.81 7.41Q0.81 6.33 1.58 5.74Q2.34 5.15 3.75 5.15L3.75 5.15Q4.45 5.15 5.07 5.26Q5.68 5.36 6.20 5.56ZM12.17 7.93L12.17 7.93L12.17 11.87L13.41 11.87L13.41 13.00L9.80 13.00L9.80 11.87L10.92 11.87L10.92 7.93Q10.92 6.88 10.66 6.55Q10.40 6.22 9.68 6.22L9.68 6.22L8.09 6.22L8.09 5.15L9.82 5.15Q11.06 5.15 11.62 5.81Q12.17 6.47 12.17 7.93ZM15.69 5.58L15.69 2.72L19.17 2.72L19.17 3.37L16.50 3.37L16.50 4.76Q16.69 4.70 16.89 4.68L16.89 4.68Q17.08 4.65 17.27 4.65L17.27 4.65Q18.38 4.65 19.02 5.17L19.02 5.17Q19.66 5.69 19.66 6.59L19.66 6.59Q19.66 7.51 19.00 8.03L19.00 8.03Q18.34 8.53 17.14 8.53L17.14 8.53Q16.73 8.53 16.30 8.47Q15.87 8.41 15.42 8.29L15.42 8.29L15.42 7.51Q15.80 7.70 16.23 7.79L16.23 7.79Q16.65 7.88 17.12 7.88L17.12 7.88Q17.88 7.88 18.33 7.53Q18.77 7.18 18.77 6.59Q18.77 6.00 18.33 5.65Q17.88 5.30 17.12 5.30L17.12 5.30Q16.77 5.30 16.41 5.37Q16.06 5.43 15.69 5.58L15.69 5.58ZM23.91 5.34L23.91 5.34Q24.54 5.46 24.89 5.83Q25.23 6.21 25.23 6.77L25.23 6.77Q25.23 7.62 24.58 8.07Q23.93 8.53 22.72 8.53L22.72 8.53Q22.33 8.53 21.91 8.46Q21.48 8.39 21 8.25L21 8.25L21 7.42Q21.36 7.61 21.76 7.70Q22.17 7.79 22.63 7.79L22.63 7.79Q23.37 7.79 23.78 7.52Q24.19 7.25 24.19 6.77L24.19 6.77Q24.19 6.26 23.81 6.00Q23.43 5.74 22.70 5.74L22.70 5.74L22.11 5.74L22.11 5.00L22.75 5.00Q23.39 5.00 23.72 4.79Q24.06 4.57 24.06 4.16L24.06 4.16Q24.06 3.77 23.71 3.56Q23.37 3.35 22.72 3.35L22.72 3.35Q22.45 3.35 22.10 3.41Q21.75 3.47 21.20 3.63L21.20 3.63L21.20 2.84Q21.70 2.73 22.13 2.67Q22.57 2.60 22.95 2.60L22.95 2.60Q23.93 2.60 24.51 3.01Q25.09 3.41 25.09 4.09L25.09 4.09Q25.09 4.56 24.78 4.89Q24.47 5.22 23.91 5.34Z"></path></svg>