<svg height="16.296875" width="31.5546875" xmlns="http://www.w3.org/2000/svg" ><path d="M6.20 5.56L6.20 5.56L6.20 6.75Q5.67 6.48 5.09 6.34Q4.52 6.21 3.90 6.21L3.90 6.21Q2.97 6.21 2.50 6.49Q2.03 6.78 2.03 7.36L2.03 7.36Q2.03 7.79 2.37 8.04Q2.70 8.29 3.71 8.52L3.71 8.52L4.14 8.61Q5.48 8.90 6.05 9.42Q6.61 9.95 6.61 10.88L6.61 10.88Q6.61 11.95 5.77 12.57Q4.92 13.19 3.45 13.19L3.45 13.19Q2.83 13.19 2.16 13.07Q1.50 12.95 0.76 12.71L0.76 12.71L0.76 11.42Q1.46 11.78 2.13 11.96Q2.81 12.14 3.47 12.14L3.47 12.14Q4.36 12.14 4.84 11.84Q5.32 11.53 5.32 10.98L5.32 10.98Q5.32 10.47 4.97 10.19Q4.63 9.92 3.46 9.67L3.46 9.67L3.02 9.56Q1.85 9.32 1.33 8.81Q0.81 8.30 0.81 7.41L0.81 7.41Q0.81 6.33 1.58 5.74Q2.34 5.15 3.75 5.15L3.75 5.15Q4.45 5.15 5.07 5.26Q5.68 5.36 6.20 5.56ZM12.17 7.93L12.17 7.93L12.17 11.87L13.41 11.87L13.41 13.00L9.80 13.00L9.80 11.87L10.92 11.87L10.92 7.93Q10.92 6.88 10.66 6.55Q10.40 6.22 9.68 6.22L9.68 6.22L8.09 6.22L8.09 5.15L9.82 5.15Q11.06 5.15 11.62 5.81Q12.17 6.47 12.17 7.93ZM18.30 5.34L18.30 5.34Q18.93 5.46 19.27 5.83Q19.62 6.21 19.62 6.77L19.62 6.77Q19.62 7.62 18.97 8.07Q18.32 8.53 17.11 8.53L17.11 8.53Q16.72 8.53 16.29 8.46Q15.87 8.39 15.39 8.25L15.39 8.25L15.39 7.42Q15.74 7.61 16.15 7.70Q16.56 7.79 17.01 7.79L17.01 7.79Q17.76 7.79 18.17 7.52Q18.58 7.25 18.58 6.77L18.58 6.77Q18.58 6.26 18.20 6.00Q17.82 5.74 17.08 5.74L17.08 5.74L16.50 5.74L16.50 5.00L17.14 5.00Q17.78 5.00 18.11 4.79Q18.44 4.57 18.44 4.16L18.44 4.16Q18.44 3.77 18.10 3.56Q17.76 3.35 17.11 3.35L17.11 3.35Q16.84 3.35 16.49 3.41Q16.14 3.47 15.59 3.63L15.59 3.63L15.59 2.84Q16.08 2.73 16.52 2.67Q16.96 2.60 17.34 2.60L17.34 2.60Q18.32 2.60 18.90 3.01Q19.48 3.41 19.48 4.09L19.48 4.09Q19.48 4.56 19.17 4.89Q18.86 5.22 18.30 5.34ZM23.91 5.34L23.91 5.34Q24.54 5.46 24.89 5.83Q25.23 6.21 25.23 6.77L25.23 6.77Q25.23 7.62 24.58 8.07Q23.93 8.53 22.72 8.53L22.72 8.53Q22.33 8.53 21.91 8.46Q21.48 8.39 21 8.25L21 8.25L21 7.42Q21.36 7.61 21.76 7.70Q22.17 7.79 22.63 7.79L22.63 7.79Q23.37 7.79 23.78 7.52Q24.19 7.25 24.19 6.77L24.19 6.77Q24.19 6.26 23.81 6.00Q23.43 5.74 22.70 5.74L22.70 5.74L22.11 5.74L22.11 5.00L22.75 5.00Q23.39 5.00 23.72 4.79Q24.06 4.57 24.06 4.16L24.06 4.16Q24.06 3.77 23.71 3.56Q23.37 3.35 22.72 3.35L22.72 3.35Q22.45 3.35 22.10 3.41Q21.75 3.47 21.20 3.63L21.20 3.63L21.20 2.84Q21.70 2.73 22.13 2.67Q22.57 2.60 22.95 2.60L22.95 2.60Q23.93 2.60 24.51 3.01Q25.09 3.41 25.09 4.09L25.09 4.09Q25.09 4.56 24.78 4.89Q24.47 5.22 23.91 5.34ZM29.20 6.41L29.20 3.55L27.09 6.41L29.20 6.41ZM26.37 6.33L29.05 2.72L30.19 2.72L30.19 6.41L31.11 6.41L31.11 7.16L30.19 7.16L30.19 8.43L29.20 8.43L29.20 7.16L26.37 7.16L26.37 6.33Z"></path></svg>