<svg height="16.296875" width="24.9990234375" xmlns="http://www.w3.org/2000/svg" ><path d="M1.30 3.17L2.56 3.17L2.56 5.34L5.15 5.34L5.15 6.32L2.56 6.32L2.56 10.47Q2.56 11.41 2.82 11.68Q3.08 11.94 3.86 11.94L3.86 11.94L5.15 11.94L5.15 13.00L3.86 13.00Q2.41 13.00 1.85 12.45Q1.30 11.91 1.30 10.47L1.30 10.47L1.30 6.32L0.38 6.32L0.38 5.34L1.30 5.34L1.30 3.17ZM10.49 5.34L13.36 13.00L12.02 13.00L11.33 11.12L7.94 11.12L7.24 13.00L5.91 13.00L8.78 5.34L10.49 5.34ZM9.63 6.57L8.32 10.10L10.94 10.10L9.63 6.57ZM14.75 5.58L14.75 2.72L18.23 2.72L18.23 3.37L15.56 3.37L15.56 4.76Q15.75 4.70 15.95 4.68L15.95 4.68Q16.14 4.65 16.33 4.65L16.33 4.65Q17.43 4.65 18.07 5.17L18.07 5.17Q18.72 5.69 18.72 6.59L18.72 6.59Q18.72 7.51 18.05 8.03L18.05 8.03Q17.40 8.53 16.19 8.53L16.19 8.53Q15.78 8.53 15.35 8.47Q14.92 8.41 14.47 8.29L14.47 8.29L14.47 7.51Q14.86 7.70 15.29 7.79L15.29 7.79Q15.71 7.88 16.18 7.88L16.18 7.88Q16.94 7.88 17.38 7.53Q17.83 7.18 17.83 6.59Q17.83 6.00 17.38 5.65Q16.94 5.30 16.18 5.30L16.18 5.30Q15.83 5.30 15.47 5.37Q15.11 5.43 14.75 5.58L14.75 5.58ZM22.97 5.34L22.97 5.34Q23.60 5.46 23.94 5.83Q24.29 6.21 24.29 6.77L24.29 6.77Q24.29 7.62 23.64 8.07Q22.99 8.53 21.78 8.53L21.78 8.53Q21.39 8.53 20.96 8.46Q20.54 8.39 20.06 8.25L20.06 8.25L20.06 7.42Q20.41 7.61 20.82 7.70Q21.23 7.79 21.68 7.79L21.68 7.79Q22.43 7.79 22.84 7.52Q23.25 7.25 23.25 6.77L23.25 6.77Q23.25 6.26 22.87 6.00Q22.49 5.74 21.75 5.74L21.75 5.74L21.16 5.74L21.16 5.00L21.81 5.00Q22.45 5.00 22.78 4.79Q23.11 4.57 23.11 4.16L23.11 4.16Q23.11 3.77 22.77 3.56Q22.43 3.35 21.78 3.35L21.78 3.35Q21.51 3.35 21.16 3.41Q20.81 3.47 20.25 3.63L20.25 3.63L20.25 2.84Q20.75 2.73 21.19 2.67Q21.63 2.60 22.00 2.60L22.00 2.60Q22.99 2.60 23.57 3.01Q24.14 3.41 24.14 4.09L24.14 4.09Q24.14 4.56 23.84 4.89Q23.53 5.22 22.97 5.34Z"></path></svg>