<svg height="16.296875" width="30.611328125" xmlns="http://www.w3.org/2000/svg" ><path d="M1.30 3.17L2.56 3.17L2.56 5.34L5.15 5.34L5.15 6.32L2.56 6.32L2.56 10.47Q2.56 11.41 2.82 11.68Q3.08 11.94 3.86 11.94L3.86 11.94L5.15 11.94L5.15 13.00L3.86 13.00Q2.41 13.00 1.85 12.45Q1.30 11.91 1.30 10.47L1.30 10.47L1.30 6.32L0.38 6.32L0.38 5.34L1.30 5.34L1.30 3.17ZM10.49 5.34L13.36 13.00L12.02 13.00L11.33 11.12L7.94 11.12L7.24 13.00L5.91 13.00L8.78 5.34L10.49 5.34ZM9.63 6.57L8.32 10.10L10.94 10.10L9.63 6.57ZM17.36 5.34L17.36 5.34Q17.99 5.46 18.33 5.83Q18.68 6.21 18.68 6.77L18.68 6.77Q18.68 7.62 18.03 8.07Q17.38 8.53 16.17 8.53L16.17 8.53Q15.78 8.53 15.35 8.46Q14.92 8.39 14.44 8.25L14.44 8.25L14.44 7.42Q14.80 7.61 15.21 7.70Q15.61 7.79 16.07 7.79L16.07 7.79Q16.82 7.79 17.23 7.52Q17.64 7.25 17.64 6.77L17.64 6.77Q17.64 6.26 17.26 6.00Q16.88 5.74 16.14 5.74L16.14 5.74L15.55 5.74L15.55 5.00L16.19 5.00Q16.84 5.00 17.17 4.79Q17.50 4.57 17.50 4.16L17.50 4.16Q17.50 3.77 17.16 3.56Q16.82 3.35 16.17 3.35L16.17 3.35Q15.89 3.35 15.54 3.41Q15.20 3.47 14.64 3.63L14.64 3.63L14.64 2.84Q15.14 2.73 15.58 2.67Q16.02 2.60 16.39 2.60L16.39 2.60Q17.38 2.60 17.95 3.01Q18.53 3.41 18.53 4.09L18.53 4.09Q18.53 4.56 18.22 4.89Q17.92 5.22 17.36 5.34ZM22.97 5.34L22.97 5.34Q23.60 5.46 23.94 5.83Q24.29 6.21 24.29 6.77L24.29 6.77Q24.29 7.62 23.64 8.07Q22.99 8.53 21.78 8.53L21.78 8.53Q21.39 8.53 20.96 8.46Q20.54 8.39 20.06 8.25L20.06 8.25L20.06 7.42Q20.41 7.61 20.82 7.70Q21.23 7.79 21.68 7.79L21.68 7.79Q22.43 7.79 22.84 7.52Q23.25 7.25 23.25 6.77L23.25 6.77Q23.25 6.26 22.87 6.00Q22.49 5.74 21.75 5.74L21.75 5.74L21.16 5.74L21.16 5.00L21.81 5.00Q22.45 5.00 22.78 4.79Q23.11 4.57 23.11 4.16L23.11 4.16Q23.11 3.77 22.77 3.56Q22.43 3.35 21.78 3.35L21.78 3.35Q21.51 3.35 21.16 3.41Q20.81 3.47 20.25 3.63L20.25 3.63L20.25 2.84Q20.75 2.73 21.19 2.67Q21.63 2.60 22.00 2.60L22.00 2.60Q22.99 2.60 23.57 3.01Q24.14 3.41 24.14 4.09L24.14 4.09Q24.14 4.56 23.84 4.89Q23.53 5.22 22.97 5.34ZM28.26 6.41L28.26 3.55L26.15 6.41L28.26 6.41ZM25.43 6.33L28.11 2.72L29.24 2.72L29.24 6.41L30.17 6.41L30.17 7.16L29.24 7.16L29.24 8.43L28.26 8.43L28.26 7.16L25.43 7.16L25.43 6.33Z"></path></svg>