<svg height="16.296875" width="30.9052734375" xmlns="http://www.w3.org/2000/svg" ><path d="M1.30 3.17L2.56 3.17L2.56 5.34L5.15 5.34L5.15 6.32L2.56 6.32L2.56 10.47Q2.56 11.41 2.82 11.68Q3.08 11.94 3.86 11.94L3.86 11.94L5.15 11.94L5.15 13.00L3.86 13.00Q2.41 13.00 1.85 12.45Q1.30 11.91 1.30 10.47L1.30 10.47L1.30 6.32L0.38 6.32L0.38 5.34L1.30 5.34L1.30 3.17ZM11.54 9.15L10.29 9.15Q8.76 9.15 8.18 9.50Q7.59 9.84 7.59 10.68L7.59 10.68Q7.59 11.35 8.03 11.75Q8.47 12.14 9.23 12.14L9.23 12.14Q10.27 12.14 10.91 11.40Q11.54 10.66 11.54 9.43L11.54 9.43L11.54 9.15ZM12.80 8.63L12.80 8.63L12.80 13.00L11.54 13.00L11.54 11.83Q11.11 12.53 10.47 12.86Q9.82 13.19 8.89 13.19L8.89 13.19Q7.72 13.19 7.02 12.53Q6.33 11.87 6.33 10.77L6.33 10.77Q6.33 9.47 7.19 8.82Q8.06 8.16 9.78 8.16L9.78 8.16L11.54 8.16L11.54 8.04Q11.54 7.17 10.97 6.70Q10.40 6.22 9.37 6.22L9.37 6.22Q8.71 6.22 8.09 6.38Q7.46 6.54 6.89 6.85L6.89 6.85L6.89 5.69Q7.58 5.42 8.23 5.29Q8.88 5.15 9.50 5.15L9.50 5.15Q11.16 5.15 11.98 6.02Q12.80 6.88 12.80 8.63ZM10.53 3.63L10.53 3.63L10.14 3.25Q9.99 3.12 9.87 3.05Q9.76 2.99 9.67 2.99L9.67 2.99Q9.41 2.99 9.29 3.24Q9.17 3.49 9.15 4.05L9.15 4.05L8.30 4.05Q8.31 3.12 8.66 2.62Q9.01 2.12 9.63 2.12L9.63 2.12Q9.89 2.12 10.11 2.21Q10.33 2.31 10.58 2.54L10.58 2.54L10.97 2.91Q11.12 3.05 11.23 3.11Q11.35 3.18 11.44 3.18L11.44 3.18Q11.70 3.18 11.82 2.93Q11.94 2.68 11.96 2.12L11.96 2.12L12.81 2.12Q12.80 3.04 12.45 3.54Q12.10 4.05 11.48 4.05L11.48 4.05Q11.22 4.05 11.00 3.95Q10.78 3.86 10.53 3.63ZM17.65 5.34L17.65 5.34Q18.28 5.46 18.62 5.83Q18.97 6.21 18.97 6.77L18.97 6.77Q18.97 7.62 18.32 8.07Q17.67 8.53 16.46 8.53L16.46 8.53Q16.07 8.53 15.64 8.46Q15.22 8.39 14.74 8.25L14.74 8.25L14.74 7.42Q15.09 7.61 15.50 7.70Q15.91 7.79 16.37 7.79L16.37 7.79Q17.11 7.79 17.52 7.52Q17.93 7.25 17.93 6.77L17.93 6.77Q17.93 6.26 17.55 6.00Q17.17 5.74 16.43 5.74L16.43 5.74L15.85 5.74L15.85 5.00L16.49 5.00Q17.13 5.00 17.46 4.79Q17.79 4.57 17.79 4.16L17.79 4.16Q17.79 3.77 17.45 3.56Q17.11 3.35 16.46 3.35L16.46 3.35Q16.19 3.35 15.84 3.41Q15.49 3.47 14.94 3.63L14.94 3.63L14.94 2.84Q15.44 2.73 15.87 2.67Q16.31 2.60 16.69 2.60L16.69 2.60Q17.67 2.60 18.25 3.01Q18.83 3.41 18.83 4.09L18.83 4.09Q18.83 4.56 18.52 4.89Q18.21 5.22 17.65 5.34ZM23.26 5.34L23.26 5.34Q23.89 5.46 24.24 5.83Q24.58 6.21 24.58 6.77L24.58 6.77Q24.58 7.62 23.93 8.07Q23.28 8.53 22.07 8.53L22.07 8.53Q21.68 8.53 21.26 8.46Q20.83 8.39 20.35 8.25L20.35 8.25L20.35 7.42Q20.71 7.61 21.11 7.70Q21.52 7.79 21.98 7.79L21.98 7.79Q22.72 7.79 23.13 7.52Q23.54 7.25 23.54 6.77L23.54 6.77Q23.54 6.26 23.16 6.00Q22.78 5.74 22.05 5.74L22.05 5.74L21.46 5.74L21.46 5.00L22.10 5.00Q22.74 5.00 23.07 4.79Q23.41 4.57 23.41 4.16L23.41 4.16Q23.41 3.77 23.06 3.56Q22.72 3.35 22.07 3.35L22.07 3.35Q21.80 3.35 21.45 3.41Q21.10 3.47 20.55 3.63L20.55 3.63L20.55 2.84Q21.05 2.73 21.49 2.67Q21.92 2.60 22.30 2.60L22.30 2.60Q23.28 2.60 23.86 3.01Q24.44 3.41 24.44 4.09L24.44 4.09Q24.44 4.56 24.13 4.89Q23.82 5.22 23.26 5.34ZM28.55 6.41L28.55 3.55L26.44 6.41L28.55 6.41ZM25.72 6.33L28.40 2.72L29.54 2.72L29.54 6.41L30.46 6.41L30.46 7.16L29.54 7.16L29.54 8.43L28.55 8.43L28.55 7.16L25.72 7.16L25.72 6.33Z"></path></svg>