<svg height="16.296875" width="31.212890625" xmlns="http://www.w3.org/2000/svg" ><path d="M1.30 3.17L2.56 3.17L2.56 5.34L5.15 5.34L5.15 6.32L2.56 6.32L2.56 10.47Q2.56 11.41 2.82 11.68Q3.08 11.94 3.86 11.94L3.86 11.94L5.15 11.94L5.15 13.00L3.86 13.00Q2.41 13.00 1.85 12.45Q1.30 11.91 1.30 10.47L1.30 10.47L1.30 6.32L0.38 6.32L0.38 5.34L1.30 5.34L1.30 3.17ZM11.85 6.50L11.85 6.50L11.85 5.34L13.10 5.34L13.10 13.00L11.85 13.00L11.85 11.85Q11.45 12.53 10.85 12.86Q10.24 13.19 9.39 13.19L9.39 13.19Q8.00 13.19 7.13 12.09Q6.26 10.98 6.26 9.17L6.26 9.17Q6.26 7.37 7.13 6.26Q8.00 5.15 9.39 5.15L9.39 5.15Q10.24 5.15 10.85 5.49Q11.45 5.82 11.85 6.50ZM7.56 9.17L7.56 9.17Q7.56 10.56 8.13 11.35Q8.70 12.14 9.70 12.14L9.70 12.14Q10.70 12.14 11.27 11.35Q11.85 10.56 11.85 9.17L11.85 9.17Q11.85 7.79 11.27 7.00Q10.70 6.21 9.70 6.21L9.70 6.21Q8.70 6.21 8.13 7.00Q7.56 7.79 7.56 9.17ZM10.83 3.63L10.83 3.63L10.45 3.25Q10.29 3.12 10.18 3.05Q10.07 2.99 9.98 2.99L9.98 2.99Q9.72 2.99 9.60 3.24Q9.47 3.49 9.46 4.05L9.46 4.05L8.61 4.05Q8.62 3.12 8.97 2.62Q9.32 2.12 9.94 2.12L9.94 2.12Q10.20 2.12 10.42 2.21Q10.64 2.31 10.89 2.54L10.89 2.54L11.28 2.91Q11.43 3.05 11.54 3.11Q11.66 3.18 11.74 3.18L11.74 3.18Q12.00 3.18 12.13 2.93Q12.25 2.68 12.26 2.12L12.26 2.12L13.12 2.12Q13.10 3.04 12.76 3.54Q12.41 4.05 11.79 4.05L11.79 4.05Q11.53 4.05 11.31 3.95Q11.09 3.86 10.83 3.63ZM17.96 5.34L17.96 5.34Q18.59 5.46 18.93 5.83Q19.28 6.21 19.28 6.77L19.28 6.77Q19.28 7.62 18.63 8.07Q17.98 8.53 16.77 8.53L16.77 8.53Q16.38 8.53 15.95 8.46Q15.52 8.39 15.05 8.25L15.05 8.25L15.05 7.42Q15.40 7.61 15.81 7.70Q16.21 7.79 16.67 7.79L16.67 7.79Q17.42 7.79 17.83 7.52Q18.24 7.25 18.24 6.77L18.24 6.77Q18.24 6.26 17.86 6.00Q17.48 5.74 16.74 5.74L16.74 5.74L16.15 5.74L16.15 5.00L16.80 5.00Q17.44 5.00 17.77 4.79Q18.10 4.57 18.10 4.16L18.10 4.16Q18.10 3.77 17.76 3.56Q17.42 3.35 16.77 3.35L16.77 3.35Q16.50 3.35 16.15 3.41Q15.80 3.47 15.24 3.63L15.24 3.63L15.24 2.84Q15.74 2.73 16.18 2.67Q16.62 2.60 16.99 2.60L16.99 2.60Q17.98 2.60 18.56 3.01Q19.13 3.41 19.13 4.09L19.13 4.09Q19.13 4.56 18.83 4.89Q18.52 5.22 17.96 5.34ZM23.57 5.34L23.57 5.34Q24.20 5.46 24.54 5.83Q24.89 6.21 24.89 6.77L24.89 6.77Q24.89 7.62 24.24 8.07Q23.59 8.53 22.38 8.53L22.38 8.53Q21.99 8.53 21.56 8.46Q21.14 8.39 20.66 8.25L20.66 8.25L20.66 7.42Q21.01 7.61 21.42 7.70Q21.83 7.79 22.29 7.79L22.29 7.79Q23.03 7.79 23.44 7.52Q23.85 7.25 23.85 6.77L23.85 6.77Q23.85 6.26 23.47 6.00Q23.09 5.74 22.35 5.74L22.35 5.74L21.77 5.74L21.77 5.00L22.41 5.00Q23.05 5.00 23.38 4.79Q23.71 4.57 23.71 4.16L23.71 4.16Q23.71 3.77 23.37 3.56Q23.03 3.35 22.38 3.35L22.38 3.35Q22.11 3.35 21.76 3.41Q21.41 3.47 20.86 3.63L20.86 3.63L20.86 2.84Q21.36 2.73 21.79 2.67Q22.23 2.60 22.61 2.60L22.61 2.60Q23.59 2.60 24.17 3.01Q24.75 3.41 24.75 4.09L24.75 4.09Q24.75 4.56 24.44 4.89Q24.13 5.22 23.57 5.34ZM28.86 6.41L28.86 3.55L26.75 6.41L28.86 6.41ZM26.03 6.33L28.71 2.72L29.85 2.72L29.85 6.41L30.77 6.41L30.77 7.16L29.85 7.16L29.85 8.43L28.86 8.43L28.86 7.16L26.03 7.16L26.03 6.33Z"></path></svg>