<svg height="16.296875" width="32.142578125" xmlns="http://www.w3.org/2000/svg" ><path d="M1.30 3.17L2.56 3.17L2.56 5.34L5.15 5.34L5.15 6.32L2.56 6.32L2.56 10.47Q2.56 11.41 2.82 11.68Q3.08 11.94 3.86 11.94L3.86 11.94L5.15 11.94L5.15 13.00L3.86 13.00Q2.41 13.00 1.85 12.45Q1.30 11.91 1.30 10.47L1.30 10.47L1.30 6.32L0.38 6.32L0.38 5.34L1.30 5.34L1.30 3.17ZM10.49 5.34L13.36 13.00L12.02 13.00L11.33 11.12L7.94 11.12L7.24 13.00L5.91 13.00L8.78 5.34L10.49 5.34ZM9.63 6.57L8.32 10.10L10.94 10.10L9.63 6.57ZM16.11 13.00L16.10 7.54L16.53 7.54Q17.84 7.54 18.43 6.76L18.43 6.76Q18.83 6.24 18.83 5.57L18.83 5.57Q18.82 4.66 18.43 4.22L18.43 4.22Q17.75 3.44 16.53 3.44L16.53 3.44Q15.98 3.44 15.44 3.59L15.44 3.59Q14.91 3.73 14.38 4.03L14.38 4.03L14.38 2.85Q14.90 2.61 15.45 2.50L15.45 2.50Q16.00 2.37 16.58 2.37L16.58 2.37Q18.46 2.37 19.41 3.45L19.41 3.45Q20.15 4.30 20.15 5.57L20.15 5.57Q20.15 6.73 19.41 7.52L19.41 7.52Q18.65 8.33 17.49 8.54L17.49 8.54L17.49 13.00L16.11 13.00ZM21.89 5.58L21.89 2.72L25.38 2.72L25.38 3.37L22.70 3.37L22.70 4.76Q22.89 4.70 23.09 4.68L23.09 4.68Q23.28 4.65 23.47 4.65L23.47 4.65Q24.58 4.65 25.22 5.17L25.22 5.17Q25.86 5.69 25.86 6.59L25.86 6.59Q25.86 7.51 25.20 8.03L25.20 8.03Q24.54 8.53 23.34 8.53L23.34 8.53Q22.93 8.53 22.50 8.47Q22.07 8.41 21.62 8.29L21.62 8.29L21.62 7.51Q22.00 7.70 22.43 7.79L22.43 7.79Q22.85 7.88 23.32 7.88L23.32 7.88Q24.08 7.88 24.53 7.53Q24.97 7.18 24.97 6.59Q24.97 6.00 24.53 5.65Q24.08 5.30 23.32 5.30L23.32 5.30Q22.97 5.30 22.61 5.37Q22.26 5.43 21.89 5.58L21.89 5.58ZM27.50 5.58L27.50 2.72L30.99 2.72L30.99 3.37L28.31 3.37L28.31 4.76Q28.51 4.70 28.70 4.68L28.70 4.68Q28.90 4.65 29.09 4.65L29.09 4.65Q30.19 4.65 30.83 5.17L30.83 5.17Q31.47 5.69 31.47 6.59L31.47 6.59Q31.47 7.51 30.81 8.03L30.81 8.03Q30.15 8.53 28.95 8.53L28.95 8.53Q28.54 8.53 28.11 8.47Q27.68 8.41 27.23 8.29L27.23 8.29L27.23 7.51Q27.62 7.70 28.04 7.79L28.04 7.79Q28.46 7.88 28.94 7.88L28.94 7.88Q29.70 7.88 30.14 7.53Q30.58 7.18 30.58 6.59Q30.58 6.00 30.14 5.65Q29.70 5.30 28.94 5.30L28.94 5.30Q28.58 5.30 28.23 5.37Q27.87 5.43 27.50 5.58L27.50 5.58Z"></path></svg>