<svg height="16.296875" width="24.404296875" xmlns="http://www.w3.org/2000/svg" ><path d="M1.30 3.17L2.56 3.17L2.56 5.34L5.15 5.34L5.15 6.32L2.56 6.32L2.56 10.47Q2.56 11.41 2.82 11.68Q3.08 11.94 3.86 11.94L3.86 11.94L5.15 11.94L5.15 13.00L3.86 13.00Q2.41 13.00 1.85 12.45Q1.30 11.91 1.30 10.47L1.30 10.47L1.30 6.32L0.38 6.32L0.38 5.34L1.30 5.34L1.30 3.17ZM6.36 6.81L6.36 5.65Q6.88 5.40 7.45 5.28Q8.01 5.15 8.65 5.15L8.65 5.15Q10.38 5.15 11.40 6.24Q12.41 7.33 12.41 9.17L12.41 9.17Q12.41 11.05 11.39 12.12Q10.36 13.19 8.57 13.19L8.57 13.19Q7.98 13.19 7.43 13.07Q6.88 12.95 6.36 12.71L6.36 12.71L6.36 11.54Q6.89 11.83 7.43 11.98Q7.96 12.13 8.51 12.13L8.51 12.13Q9.73 12.13 10.41 11.35Q11.09 10.58 11.09 9.17L11.09 9.17Q11.09 7.77 10.41 7.00Q9.73 6.22 8.51 6.22L8.51 6.22Q7.96 6.22 7.43 6.37Q6.89 6.51 6.36 6.81L6.36 6.81ZM14.15 5.58L14.15 2.72L17.64 2.72L17.64 3.37L14.96 3.37L14.96 4.76Q15.16 4.70 15.35 4.68L15.35 4.68Q15.54 4.65 15.74 4.65L15.74 4.65Q16.84 4.65 17.48 5.17L17.48 5.17Q18.12 5.69 18.12 6.59L18.12 6.59Q18.12 7.51 17.46 8.03L17.46 8.03Q16.80 8.53 15.60 8.53L15.60 8.53Q15.19 8.53 14.76 8.47Q14.33 8.41 13.88 8.29L13.88 8.29L13.88 7.51Q14.27 7.70 14.69 7.79L14.69 7.79Q15.11 7.88 15.59 7.88L15.59 7.88Q16.34 7.88 16.79 7.53Q17.23 7.18 17.23 6.59Q17.23 6.00 16.79 5.65Q16.34 5.30 15.59 5.30L15.59 5.30Q15.23 5.30 14.88 5.37Q14.52 5.43 14.15 5.58L14.15 5.58ZM22.37 5.34L22.37 5.34Q23.00 5.46 23.35 5.83Q23.69 6.21 23.69 6.77L23.69 6.77Q23.69 7.62 23.04 8.07Q22.39 8.53 21.18 8.53L21.18 8.53Q20.79 8.53 20.37 8.46Q19.94 8.39 19.46 8.25L19.46 8.25L19.46 7.42Q19.82 7.61 20.22 7.70Q20.63 7.79 21.09 7.79L21.09 7.79Q21.83 7.79 22.24 7.52Q22.65 7.25 22.65 6.77L22.65 6.77Q22.65 6.26 22.27 6.00Q21.90 5.74 21.16 5.74L21.16 5.74L20.57 5.74L20.57 5.00L21.21 5.00Q21.85 5.00 22.19 4.79Q22.52 4.57 22.52 4.16L22.52 4.16Q22.52 3.77 22.18 3.56Q21.83 3.35 21.18 3.35L21.18 3.35Q20.91 3.35 20.56 3.41Q20.21 3.47 19.66 3.63L19.66 3.63L19.66 2.84Q20.16 2.73 20.60 2.67Q21.03 2.60 21.41 2.60L21.41 2.60Q22.39 2.60 22.97 3.01Q23.55 3.41 23.55 4.09L23.55 4.09Q23.55 4.56 23.24 4.89Q22.93 5.22 22.37 5.34Z"></path></svg>