<svg height="16.296875" width="30.0166015625" xmlns="http://www.w3.org/2000/svg" ><path d="M1.30 3.17L2.56 3.17L2.56 5.34L5.15 5.34L5.15 6.32L2.56 6.32L2.56 10.47Q2.56 11.41 2.82 11.68Q3.08 11.94 3.86 11.94L3.86 11.94L5.15 11.94L5.15 13.00L3.86 13.00Q2.41 13.00 1.85 12.45Q1.30 11.91 1.30 10.47L1.30 10.47L1.30 6.32L0.38 6.32L0.38 5.34L1.30 5.34L1.30 3.17ZM6.36 6.81L6.36 5.65Q6.88 5.40 7.45 5.28Q8.01 5.15 8.65 5.15L8.65 5.15Q10.38 5.15 11.40 6.24Q12.41 7.33 12.41 9.17L12.41 9.17Q12.41 11.05 11.39 12.12Q10.36 13.19 8.57 13.19L8.57 13.19Q7.98 13.19 7.43 13.07Q6.88 12.95 6.36 12.71L6.36 12.71L6.36 11.54Q6.89 11.83 7.43 11.98Q7.96 12.13 8.51 12.13L8.51 12.13Q9.73 12.13 10.41 11.35Q11.09 10.58 11.09 9.17L11.09 9.17Q11.09 7.77 10.41 7.00Q9.73 6.22 8.51 6.22L8.51 6.22Q7.96 6.22 7.43 6.37Q6.89 6.51 6.36 6.81L6.36 6.81ZM16.76 5.34L16.76 5.34Q17.39 5.46 17.74 5.83Q18.08 6.21 18.08 6.77L18.08 6.77Q18.08 7.62 17.43 8.07Q16.78 8.53 15.57 8.53L15.57 8.53Q15.18 8.53 14.76 8.46Q14.33 8.39 13.85 8.25L13.85 8.25L13.85 7.42Q14.21 7.61 14.61 7.70Q15.02 7.79 15.48 7.79L15.48 7.79Q16.22 7.79 16.63 7.52Q17.04 7.25 17.04 6.77L17.04 6.77Q17.04 6.26 16.66 6.00Q16.28 5.74 15.54 5.74L15.54 5.74L14.96 5.74L14.96 5.00L15.60 5.00Q16.24 5.00 16.57 4.79Q16.91 4.57 16.91 4.16L16.91 4.16Q16.91 3.77 16.56 3.56Q16.22 3.35 15.57 3.35L15.57 3.35Q15.30 3.35 14.95 3.41Q14.60 3.47 14.05 3.63L14.05 3.63L14.05 2.84Q14.55 2.73 14.98 2.67Q15.42 2.60 15.80 2.60L15.80 2.60Q16.78 2.60 17.36 3.01Q17.94 3.41 17.94 4.09L17.94 4.09Q17.94 4.56 17.63 4.89Q17.32 5.22 16.76 5.34ZM22.37 5.34L22.37 5.34Q23.00 5.46 23.35 5.83Q23.69 6.21 23.69 6.77L23.69 6.77Q23.69 7.62 23.04 8.07Q22.39 8.53 21.18 8.53L21.18 8.53Q20.79 8.53 20.37 8.46Q19.94 8.39 19.46 8.25L19.46 8.25L19.46 7.42Q19.82 7.61 20.22 7.70Q20.63 7.79 21.09 7.79L21.09 7.79Q21.83 7.79 22.24 7.52Q22.65 7.25 22.65 6.77L22.65 6.77Q22.65 6.26 22.27 6.00Q21.90 5.74 21.16 5.74L21.16 5.74L20.57 5.74L20.57 5.00L21.21 5.00Q21.85 5.00 22.19 4.79Q22.52 4.57 22.52 4.16L22.52 4.16Q22.52 3.77 22.18 3.56Q21.83 3.35 21.18 3.35L21.18 3.35Q20.91 3.35 20.56 3.41Q20.21 3.47 19.66 3.63L19.66 3.63L19.66 2.84Q20.16 2.73 20.60 2.67Q21.03 2.60 21.41 2.60L21.41 2.60Q22.39 2.60 22.97 3.01Q23.55 3.41 23.55 4.09L23.55 4.09Q23.55 4.56 23.24 4.89Q22.93 5.22 22.37 5.34ZM27.67 6.41L27.67 3.55L25.55 6.41L27.67 6.41ZM24.83 6.33L27.51 2.72L28.65 2.72L28.65 6.41L29.57 6.41L29.57 7.16L28.65 7.16L28.65 8.43L27.67 8.43L27.67 7.16L24.83 7.16L24.83 6.33Z"></path></svg>