<svg height="16.296875" width="23.583984375" xmlns="http://www.w3.org/2000/svg" ><path d="M1.30 3.17L2.56 3.17L2.56 5.34L5.15 5.34L5.15 6.32L2.56 6.32L2.56 10.47Q2.56 11.41 2.82 11.68Q3.08 11.94 3.86 11.94L3.86 11.94L5.15 11.94L5.15 13.00L3.86 13.00Q2.41 13.00 1.85 12.45Q1.30 11.91 1.30 10.47L1.30 10.47L1.30 6.32L0.38 6.32L0.38 5.34L1.30 5.34L1.30 3.17ZM6.76 13.00L6.76 5.34L11.60 5.34L11.60 6.35L8.03 6.35L8.03 8.41L11.44 8.41L11.44 9.42L8.03 9.42L8.03 11.99L11.69 11.99L11.69 13.00L6.76 13.00ZM13.33 5.58L13.33 2.72L16.82 2.72L16.82 3.37L14.14 3.37L14.14 4.76Q14.33 4.70 14.53 4.68L14.53 4.68Q14.72 4.65 14.92 4.65L14.92 4.65Q16.02 4.65 16.66 5.17L16.66 5.17Q17.30 5.69 17.30 6.59L17.30 6.59Q17.30 7.51 16.64 8.03L16.64 8.03Q15.98 8.53 14.78 8.53L14.78 8.53Q14.37 8.53 13.94 8.47Q13.51 8.41 13.06 8.29L13.06 8.29L13.06 7.51Q13.45 7.70 13.87 7.79L13.87 7.79Q14.29 7.88 14.77 7.88L14.77 7.88Q15.52 7.88 15.97 7.53Q16.41 7.18 16.41 6.59Q16.41 6.00 15.97 5.65Q15.52 5.30 14.77 5.30L14.77 5.30Q14.41 5.30 14.05 5.37Q13.70 5.43 13.33 5.58L13.33 5.58ZM21.55 5.34L21.55 5.34Q22.18 5.46 22.53 5.83Q22.87 6.21 22.87 6.77L22.87 6.77Q22.87 7.62 22.22 8.07Q21.57 8.53 20.36 8.53L20.36 8.53Q19.97 8.53 19.55 8.46Q19.12 8.39 18.64 8.25L18.64 8.25L18.64 7.42Q19.00 7.61 19.40 7.70Q19.81 7.79 20.27 7.79L20.27 7.79Q21.01 7.79 21.42 7.52Q21.83 7.25 21.83 6.77L21.83 6.77Q21.83 6.26 21.45 6.00Q21.08 5.74 20.34 5.74L20.34 5.74L19.75 5.74L19.75 5.00L20.39 5.00Q21.03 5.00 21.37 4.79Q21.70 4.57 21.70 4.16L21.70 4.16Q21.70 3.77 21.36 3.56Q21.01 3.35 20.36 3.35L20.36 3.35Q20.09 3.35 19.74 3.41Q19.39 3.47 18.84 3.63L18.84 3.63L18.84 2.84Q19.34 2.73 19.78 2.67Q20.21 2.60 20.59 2.60L20.59 2.60Q21.57 2.60 22.15 3.01Q22.73 3.41 22.73 4.09L22.73 4.09Q22.73 4.56 22.42 4.89Q22.11 5.22 21.55 5.34Z"></path></svg>