<svg height="16.296875" width="29.1962890625" xmlns="http://www.w3.org/2000/svg" ><path d="M1.30 3.17L2.56 3.17L2.56 5.34L5.15 5.34L5.15 6.32L2.56 6.32L2.56 10.47Q2.56 11.41 2.82 11.68Q3.08 11.94 3.86 11.94L3.86 11.94L5.15 11.94L5.15 13.00L3.86 13.00Q2.41 13.00 1.85 12.45Q1.30 11.91 1.30 10.47L1.30 10.47L1.30 6.32L0.38 6.32L0.38 5.34L1.30 5.34L1.30 3.17ZM6.76 13.00L6.76 5.34L11.60 5.34L11.60 6.35L8.03 6.35L8.03 8.41L11.44 8.41L11.44 9.42L8.03 9.42L8.03 11.99L11.69 11.99L11.69 13.00L6.76 13.00ZM15.94 5.34L15.94 5.34Q16.57 5.46 16.92 5.83Q17.26 6.21 17.26 6.77L17.26 6.77Q17.26 7.62 16.61 8.07Q15.96 8.53 14.75 8.53L14.75 8.53Q14.36 8.53 13.94 8.46Q13.51 8.39 13.03 8.25L13.03 8.25L13.03 7.42Q13.38 7.61 13.79 7.70Q14.20 7.79 14.66 7.79L14.66 7.79Q15.40 7.79 15.81 7.52Q16.22 7.25 16.22 6.77L16.22 6.77Q16.22 6.26 15.84 6.00Q15.46 5.74 14.72 5.74L14.72 5.74L14.14 5.74L14.14 5.00L14.78 5.00Q15.42 5.00 15.75 4.79Q16.08 4.57 16.08 4.16L16.08 4.16Q16.08 3.77 15.74 3.56Q15.40 3.35 14.75 3.35L14.75 3.35Q14.48 3.35 14.13 3.41Q13.78 3.47 13.23 3.63L13.23 3.63L13.23 2.84Q13.73 2.73 14.16 2.67Q14.60 2.60 14.98 2.60L14.98 2.60Q15.96 2.60 16.54 3.01Q17.12 3.41 17.12 4.09L17.12 4.09Q17.12 4.56 16.81 4.89Q16.50 5.22 15.94 5.34ZM21.55 5.34L21.55 5.34Q22.18 5.46 22.53 5.83Q22.87 6.21 22.87 6.77L22.87 6.77Q22.87 7.62 22.22 8.07Q21.57 8.53 20.36 8.53L20.36 8.53Q19.97 8.53 19.55 8.46Q19.12 8.39 18.64 8.25L18.64 8.25L18.64 7.42Q19.00 7.61 19.40 7.70Q19.81 7.79 20.27 7.79L20.27 7.79Q21.01 7.79 21.42 7.52Q21.83 7.25 21.83 6.77L21.83 6.77Q21.83 6.26 21.45 6.00Q21.08 5.74 20.34 5.74L20.34 5.74L19.75 5.74L19.75 5.00L20.39 5.00Q21.03 5.00 21.37 4.79Q21.70 4.57 21.70 4.16L21.70 4.16Q21.70 3.77 21.36 3.56Q21.01 3.35 20.36 3.35L20.36 3.35Q20.09 3.35 19.74 3.41Q19.39 3.47 18.84 3.63L18.84 3.63L18.84 2.84Q19.34 2.73 19.78 2.67Q20.21 2.60 20.59 2.60L20.59 2.60Q21.57 2.60 22.15 3.01Q22.73 3.41 22.73 4.09L22.73 4.09Q22.73 4.56 22.42 4.89Q22.11 5.22 21.55 5.34ZM26.84 6.41L26.84 3.55L24.73 6.41L26.84 6.41ZM24.01 6.33L26.69 2.72L27.83 2.72L27.83 6.41L28.75 6.41L28.75 7.16L27.83 7.16L27.83 8.43L26.84 8.43L26.84 7.16L24.01 7.16L24.01 6.33Z"></path></svg>