<svg height="16.296875" width="39.8125" xmlns="http://www.w3.org/2000/svg" ><path d="M1.30 3.17L2.56 3.17L2.56 5.34L5.15 5.34L5.15 6.32L2.56 6.32L2.56 10.47Q2.56 11.41 2.82 11.68Q3.08 11.94 3.86 11.94L3.86 11.94L5.15 11.94L5.15 13.00L3.86 13.00Q2.41 13.00 1.85 12.45Q1.30 11.91 1.30 10.47L1.30 10.47L1.30 6.32L0.38 6.32L0.38 5.34L1.30 5.34L1.30 3.17ZM6.26 9.50L6.26 9.50L6.26 8.88L12.04 8.88Q11.96 7.58 11.26 6.90Q10.56 6.22 9.31 6.22L9.31 6.22Q8.59 6.22 7.91 6.40Q7.23 6.58 6.56 6.93L6.56 6.93L6.56 5.74Q7.23 5.46 7.94 5.30Q8.65 5.15 9.39 5.15L9.39 5.15Q11.22 5.15 12.29 6.22Q13.36 7.29 13.36 9.11L13.36 9.11Q13.36 10.99 12.34 12.09Q11.33 13.19 9.60 13.19L9.60 13.19Q8.06 13.19 7.16 12.20Q6.26 11.20 6.26 9.50ZM12.00 9.86L7.52 9.86Q7.53 10.90 8.10 11.51Q8.66 12.13 9.59 12.13L9.59 12.13Q10.64 12.13 11.28 11.53Q11.91 10.94 12.00 9.86L12.00 9.86ZM21.79 8.37L21.79 8.37L21.79 13.00L20.53 13.00L20.53 8.42Q20.53 7.33 20.10 6.79Q19.68 6.25 18.83 6.25L18.83 6.25Q17.81 6.25 17.23 6.90Q16.64 7.55 16.64 8.67L16.64 8.67L16.64 13.00L15.37 13.00L15.37 5.34L16.64 5.34L16.64 6.53Q17.09 5.84 17.70 5.50Q18.31 5.15 19.11 5.15L19.11 5.15Q20.43 5.15 21.11 5.97Q21.79 6.79 21.79 8.37ZM26.56 5.34L26.56 5.34Q27.19 5.46 27.53 5.83Q27.88 6.21 27.88 6.77L27.88 6.77Q27.88 7.62 27.23 8.07Q26.58 8.53 25.37 8.53L25.37 8.53Q24.98 8.53 24.55 8.46Q24.12 8.39 23.65 8.25L23.65 8.25L23.65 7.42Q24.00 7.61 24.41 7.70Q24.81 7.79 25.27 7.79L25.27 7.79Q26.02 7.79 26.43 7.52Q26.84 7.25 26.84 6.77L26.84 6.77Q26.84 6.26 26.46 6.00Q26.08 5.74 25.34 5.74L25.34 5.74L24.75 5.74L24.75 5.00L25.40 5.00Q26.04 5.00 26.37 4.79Q26.70 4.57 26.70 4.16L26.70 4.16Q26.70 3.77 26.36 3.56Q26.02 3.35 25.37 3.35L25.37 3.35Q25.09 3.35 24.75 3.41Q24.40 3.47 23.84 3.63L23.84 3.63L23.84 2.84Q24.34 2.73 24.78 2.67Q25.22 2.60 25.59 2.60L25.59 2.60Q26.58 2.60 27.16 3.01Q27.73 3.41 27.73 4.09L27.73 4.09Q27.73 4.56 27.43 4.89Q27.12 5.22 26.56 5.34ZM32.17 5.34L32.17 5.34Q32.80 5.46 33.14 5.83Q33.49 6.21 33.49 6.77L33.49 6.77Q33.49 7.62 32.84 8.07Q32.19 8.53 30.98 8.53L30.98 8.53Q30.59 8.53 30.16 8.46Q29.74 8.39 29.26 8.25L29.26 8.25L29.26 7.42Q29.61 7.61 30.02 7.70Q30.43 7.79 30.88 7.79L30.88 7.79Q31.63 7.79 32.04 7.52Q32.45 7.25 32.45 6.77L32.45 6.77Q32.45 6.26 32.07 6.00Q31.69 5.74 30.95 5.74L30.95 5.74L30.37 5.74L30.37 5.00L31.01 5.00Q31.65 5.00 31.98 4.79Q32.31 4.57 32.31 4.16L32.31 4.16Q32.31 3.77 31.97 3.56Q31.63 3.35 30.98 3.35L30.98 3.35Q30.71 3.35 30.36 3.41Q30.01 3.47 29.46 3.63L29.46 3.63L29.46 2.84Q29.96 2.73 30.39 2.67Q30.83 2.60 31.21 2.60L31.21 2.60Q32.19 2.60 32.77 3.01Q33.35 3.41 33.35 4.09L33.35 4.09Q33.35 4.56 33.04 4.89Q32.73 5.22 32.17 5.34ZM37.46 6.41L37.46 3.55L35.35 6.41L37.46 6.41ZM34.63 6.33L37.31 2.72L38.45 2.72L38.45 6.41L39.37 6.41L39.37 7.16L38.45 7.16L38.45 8.43L37.46 8.43L37.46 7.16L34.63 7.16L34.63 6.33Z"></path></svg>