<svg height="16.296875" width="32.470703125" xmlns="http://www.w3.org/2000/svg" ><path d="M1.30 3.17L2.56 3.17L2.56 5.34L5.15 5.34L5.15 6.32L2.56 6.32L2.56 10.47Q2.56 11.41 2.82 11.68Q3.08 11.94 3.86 11.94L3.86 11.94L5.15 11.94L5.15 13.00L3.86 13.00Q2.41 13.00 1.85 12.45Q1.30 11.91 1.30 10.47L1.30 10.47L1.30 6.32L0.38 6.32L0.38 5.34L1.30 5.34L1.30 3.17ZM6.26 9.50L6.26 9.50L6.26 8.88L12.04 8.88Q11.96 7.58 11.26 6.90Q10.56 6.22 9.31 6.22L9.31 6.22Q8.59 6.22 7.91 6.40Q7.23 6.58 6.56 6.93L6.56 6.93L6.56 5.74Q7.23 5.46 7.94 5.30Q8.65 5.15 9.39 5.15L9.39 5.15Q11.22 5.15 12.29 6.22Q13.36 7.29 13.36 9.11L13.36 9.11Q13.36 10.99 12.34 12.09Q11.33 13.19 9.60 13.19L9.60 13.19Q8.06 13.19 7.16 12.20Q6.26 11.20 6.26 9.50ZM12.00 9.86L7.52 9.86Q7.53 10.90 8.10 11.51Q8.66 12.13 9.59 12.13L9.59 12.13Q10.64 12.13 11.28 11.53Q11.91 10.94 12.00 9.86L12.00 9.86ZM16.43 13.00L16.43 7.54L16.86 7.54Q18.17 7.54 18.76 6.76L18.76 6.76Q19.15 6.24 19.15 5.57L19.15 5.57Q19.15 4.66 18.76 4.22L18.76 4.22Q18.08 3.44 16.86 3.44L16.86 3.44Q16.31 3.44 15.77 3.59L15.77 3.59Q15.24 3.73 14.70 4.03L14.70 4.03L14.70 2.85Q15.22 2.61 15.78 2.50L15.78 2.50Q16.33 2.37 16.91 2.37L16.91 2.37Q18.79 2.37 19.74 3.45L19.74 3.45Q20.48 4.30 20.48 5.57L20.48 5.57Q20.48 6.73 19.74 7.52L19.74 7.52Q18.98 8.33 17.81 8.54L17.81 8.54L17.81 13.00L16.43 13.00ZM22.22 5.58L22.22 2.72L25.70 2.72L25.70 3.37L23.03 3.37L23.03 4.76Q23.22 4.70 23.42 4.68L23.42 4.68Q23.61 4.65 23.80 4.65L23.80 4.65Q24.90 4.65 25.55 5.17L25.55 5.17Q26.19 5.69 26.19 6.59L26.19 6.59Q26.19 7.51 25.53 8.03L25.53 8.03Q24.87 8.53 23.67 8.53L23.67 8.53Q23.26 8.53 22.83 8.47Q22.39 8.41 21.94 8.29L21.94 8.29L21.94 7.51Q22.33 7.70 22.76 7.79L22.76 7.79Q23.18 7.88 23.65 7.88L23.65 7.88Q24.41 7.88 24.86 7.53Q25.30 7.18 25.30 6.59Q25.30 6.00 24.86 5.65Q24.41 5.30 23.65 5.30L23.65 5.30Q23.30 5.30 22.94 5.37Q22.59 5.43 22.22 5.58L22.22 5.58ZM27.83 5.58L27.83 2.72L31.32 2.72L31.32 3.37L28.64 3.37L28.64 4.76Q28.83 4.70 29.03 4.68L29.03 4.68Q29.22 4.65 29.42 4.65L29.42 4.65Q30.52 4.65 31.16 5.17L31.16 5.17Q31.80 5.69 31.80 6.59L31.80 6.59Q31.80 7.51 31.14 8.03L31.14 8.03Q30.48 8.53 29.28 8.53L29.28 8.53Q28.87 8.53 28.44 8.47Q28.01 8.41 27.56 8.29L27.56 8.29L27.56 7.51Q27.95 7.70 28.37 7.79L28.37 7.79Q28.79 7.88 29.26 7.88L29.26 7.88Q30.02 7.88 30.47 7.53Q30.91 7.18 30.91 6.59Q30.91 6.00 30.47 5.65Q30.02 5.30 29.26 5.30L29.26 5.30Q28.91 5.30 28.55 5.37Q28.20 5.43 27.83 5.58L27.83 5.58Z"></path></svg>