<svg height="16.296875" width="25.0537109375" xmlns="http://www.w3.org/2000/svg" ><path d="M1.30 3.17L2.56 3.17L2.56 5.34L5.15 5.34L5.15 6.32L2.56 6.32L2.56 10.47Q2.56 11.41 2.82 11.68Q3.08 11.94 3.86 11.94L3.86 11.94L5.15 11.94L5.15 13.00L3.86 13.00Q2.41 13.00 1.85 12.45Q1.30 11.91 1.30 10.47L1.30 10.47L1.30 6.32L0.38 6.32L0.38 5.34L1.30 5.34L1.30 3.17ZM7.63 5.34L9.66 8.07L11.69 5.34L13.17 5.34L10.45 8.99Q10.94 9.66 11.24 10.18L11.24 10.18Q11.71 11.00 11.71 11.42L11.71 11.42Q11.71 12.31 11.20 12.75Q10.68 13.19 9.66 13.19L9.66 13.19Q8.63 13.19 8.12 12.75Q7.61 12.31 7.61 11.42L7.61 11.42Q7.61 11.00 8.08 10.18L8.08 10.18Q8.38 9.66 8.87 8.99L8.87 8.99L6.15 5.34L7.63 5.34ZM9.66 12.13L9.66 12.13Q10.12 12.13 10.33 11.94L10.33 11.94Q10.52 11.78 10.52 11.47L10.52 11.47Q10.52 11.25 10.25 10.81L10.25 10.81Q10.04 10.47 9.66 9.99L9.66 9.99Q9.28 10.47 9.06 10.81L9.06 10.81Q8.80 11.25 8.80 11.47L8.80 11.47Q8.80 11.78 8.99 11.94L8.99 11.94Q9.20 12.13 9.66 12.13ZM14.80 5.58L14.80 2.72L18.29 2.72L18.29 3.37L15.61 3.37L15.61 4.76Q15.80 4.70 16.00 4.68L16.00 4.68Q16.19 4.65 16.39 4.65L16.39 4.65Q17.49 4.65 18.13 5.17L18.13 5.17Q18.77 5.69 18.77 6.59L18.77 6.59Q18.77 7.51 18.11 8.03L18.11 8.03Q17.45 8.53 16.25 8.53L16.25 8.53Q15.84 8.53 15.41 8.47Q14.98 8.41 14.53 8.29L14.53 8.29L14.53 7.51Q14.92 7.70 15.34 7.79L15.34 7.79Q15.76 7.88 16.24 7.88L16.24 7.88Q16.99 7.88 17.44 7.53Q17.88 7.18 17.88 6.59Q17.88 6.00 17.44 5.65Q16.99 5.30 16.24 5.30L16.24 5.30Q15.88 5.30 15.52 5.37Q15.17 5.43 14.80 5.58L14.80 5.58ZM23.02 5.34L23.02 5.34Q23.65 5.46 24.00 5.83Q24.34 6.21 24.34 6.77L24.34 6.77Q24.34 7.62 23.69 8.07Q23.04 8.53 21.83 8.53L21.83 8.53Q21.44 8.53 21.02 8.46Q20.59 8.39 20.11 8.25L20.11 8.25L20.11 7.42Q20.47 7.61 20.87 7.70Q21.28 7.79 21.74 7.79L21.74 7.79Q22.48 7.79 22.89 7.52Q23.30 7.25 23.30 6.77L23.30 6.77Q23.30 6.26 22.92 6.00Q22.54 5.74 21.81 5.74L21.81 5.74L21.22 5.74L21.22 5.00L21.86 5.00Q22.50 5.00 22.84 4.79Q23.17 4.57 23.17 4.16L23.17 4.16Q23.17 3.77 22.83 3.56Q22.48 3.35 21.83 3.35L21.83 3.35Q21.56 3.35 21.21 3.41Q20.86 3.47 20.31 3.63L20.31 3.63L20.31 2.84Q20.81 2.73 21.25 2.67Q21.68 2.60 22.06 2.60L22.06 2.60Q23.04 2.60 23.62 3.01Q24.20 3.41 24.20 4.09L24.20 4.09Q24.20 4.56 23.89 4.89Q23.58 5.22 23.02 5.34Z"></path></svg>