<svg height="16.296875" width="30.666015625" xmlns="http://www.w3.org/2000/svg" ><path d="M1.30 3.17L2.56 3.17L2.56 5.34L5.15 5.34L5.15 6.32L2.56 6.32L2.56 10.47Q2.56 11.41 2.82 11.68Q3.08 11.94 3.86 11.94L3.86 11.94L5.15 11.94L5.15 13.00L3.86 13.00Q2.41 13.00 1.85 12.45Q1.30 11.91 1.30 10.47L1.30 10.47L1.30 6.32L0.38 6.32L0.38 5.34L1.30 5.34L1.30 3.17ZM7.63 5.34L9.66 8.07L11.69 5.34L13.17 5.34L10.45 8.99Q10.94 9.66 11.24 10.18L11.24 10.18Q11.71 11.00 11.71 11.42L11.71 11.42Q11.71 12.31 11.20 12.75Q10.68 13.19 9.66 13.19L9.66 13.19Q8.63 13.19 8.12 12.75Q7.61 12.31 7.61 11.42L7.61 11.42Q7.61 11.00 8.08 10.18L8.08 10.18Q8.38 9.66 8.87 8.99L8.87 8.99L6.15 5.34L7.63 5.34ZM9.66 12.13L9.66 12.13Q10.12 12.13 10.33 11.94L10.33 11.94Q10.52 11.78 10.52 11.47L10.52 11.47Q10.52 11.25 10.25 10.81L10.25 10.81Q10.04 10.47 9.66 9.99L9.66 9.99Q9.28 10.47 9.06 10.81L9.06 10.81Q8.80 11.25 8.80 11.47L8.80 11.47Q8.80 11.78 8.99 11.94L8.99 11.94Q9.20 12.13 9.66 12.13ZM17.41 5.34L17.41 5.34Q18.04 5.46 18.39 5.83Q18.73 6.21 18.73 6.77L18.73 6.77Q18.73 7.62 18.08 8.07Q17.43 8.53 16.22 8.53L16.22 8.53Q15.83 8.53 15.40 8.46Q14.98 8.39 14.50 8.25L14.50 8.25L14.50 7.42Q14.85 7.61 15.26 7.70Q15.67 7.79 16.13 7.79L16.13 7.79Q16.87 7.79 17.28 7.52Q17.69 7.25 17.69 6.77L17.69 6.77Q17.69 6.26 17.31 6.00Q16.93 5.74 16.19 5.74L16.19 5.74L15.61 5.74L15.61 5.00L16.25 5.00Q16.89 5.00 17.22 4.79Q17.55 4.57 17.55 4.16L17.55 4.16Q17.55 3.77 17.21 3.56Q16.87 3.35 16.22 3.35L16.22 3.35Q15.95 3.35 15.60 3.41Q15.25 3.47 14.70 3.63L14.70 3.63L14.70 2.84Q15.20 2.73 15.63 2.67Q16.07 2.60 16.45 2.60L16.45 2.60Q17.43 2.60 18.01 3.01Q18.59 3.41 18.59 4.09L18.59 4.09Q18.59 4.56 18.28 4.89Q17.97 5.22 17.41 5.34ZM23.02 5.34L23.02 5.34Q23.65 5.46 24.00 5.83Q24.34 6.21 24.34 6.77L24.34 6.77Q24.34 7.62 23.69 8.07Q23.04 8.53 21.83 8.53L21.83 8.53Q21.44 8.53 21.02 8.46Q20.59 8.39 20.11 8.25L20.11 8.25L20.11 7.42Q20.47 7.61 20.87 7.70Q21.28 7.79 21.74 7.79L21.74 7.79Q22.48 7.79 22.89 7.52Q23.30 7.25 23.30 6.77L23.30 6.77Q23.30 6.26 22.92 6.00Q22.54 5.74 21.81 5.74L21.81 5.74L21.22 5.74L21.22 5.00L21.86 5.00Q22.50 5.00 22.84 4.79Q23.17 4.57 23.17 4.16L23.17 4.16Q23.17 3.77 22.83 3.56Q22.48 3.35 21.83 3.35L21.83 3.35Q21.56 3.35 21.21 3.41Q20.86 3.47 20.31 3.63L20.31 3.63L20.31 2.84Q20.81 2.73 21.25 2.67Q21.68 2.60 22.06 2.60L22.06 2.60Q23.04 2.60 23.62 3.01Q24.20 3.41 24.20 4.09L24.20 4.09Q24.20 4.56 23.89 4.89Q23.58 5.22 23.02 5.34ZM28.31 6.41L28.31 3.55L26.20 6.41L28.31 6.41ZM25.48 6.33L28.16 2.72L29.30 2.72L29.30 6.41L30.22 6.41L30.22 7.16L29.30 7.16L29.30 8.43L28.31 8.43L28.31 7.16L25.48 7.16L25.48 6.33Z"></path></svg>