<svg height="16.296875" width="30.6591796875" xmlns="http://www.w3.org/2000/svg" ><path d="M1.30 3.17L2.56 3.17L2.56 5.34L5.15 5.34L5.15 6.32L2.56 6.32L2.56 10.47Q2.56 11.41 2.82 11.68Q3.08 11.94 3.86 11.94L3.86 11.94L5.15 11.94L5.15 13.00L3.86 13.00Q2.41 13.00 1.85 12.45Q1.30 11.91 1.30 10.47L1.30 10.47L1.30 6.32L0.38 6.32L0.38 5.34L1.30 5.34L1.30 3.17ZM10.33 5.84L10.33 5.84L10.33 8.43L9.54 8.43L9.54 5.87Q9.54 5.26 9.27 4.95Q9.00 4.65 8.47 4.65L8.47 4.65Q7.83 4.65 7.46 5.01Q7.09 5.38 7.09 6.01L7.09 6.01L7.09 8.43L6.29 8.43L6.29 2.47L7.09 2.47L7.09 4.81Q7.37 4.42 7.76 4.23Q8.14 4.04 8.65 4.04L8.65 4.04Q9.47 4.04 9.90 4.50Q10.33 4.96 10.33 5.84ZM16.15 5.34L19.02 13.00L17.68 13.00L16.99 11.12L13.60 11.12L12.90 13.00L11.57 13.00L14.44 5.34L16.15 5.34ZM15.29 6.57L13.98 10.10L16.60 10.10L15.29 6.57ZM20.41 5.58L20.41 2.72L23.89 2.72L23.89 3.37L21.22 3.37L21.22 4.76Q21.41 4.70 21.61 4.68L21.61 4.68Q21.80 4.65 21.99 4.65L21.99 4.65Q23.09 4.65 23.73 5.17L23.73 5.17Q24.38 5.69 24.38 6.59L24.38 6.59Q24.38 7.51 23.71 8.03L23.71 8.03Q23.06 8.53 21.85 8.53L21.85 8.53Q21.44 8.53 21.01 8.47Q20.58 8.41 20.13 8.29L20.13 8.29L20.13 7.51Q20.52 7.70 20.95 7.79L20.95 7.79Q21.37 7.88 21.84 7.88L21.84 7.88Q22.60 7.88 23.04 7.53Q23.49 7.18 23.49 6.59Q23.49 6.00 23.04 5.65Q22.60 5.30 21.84 5.30L21.84 5.30Q21.49 5.30 21.13 5.37Q20.77 5.43 20.41 5.58L20.41 5.58ZM28.63 5.34L28.63 5.34Q29.26 5.46 29.60 5.83Q29.95 6.21 29.95 6.77L29.95 6.77Q29.95 7.62 29.30 8.07Q28.65 8.53 27.44 8.53L27.44 8.53Q27.05 8.53 26.62 8.46Q26.20 8.39 25.72 8.25L25.72 8.25L25.72 7.42Q26.07 7.61 26.48 7.70Q26.89 7.79 27.34 7.79L27.34 7.79Q28.09 7.79 28.50 7.52Q28.91 7.25 28.91 6.77L28.91 6.77Q28.91 6.26 28.53 6.00Q28.15 5.74 27.41 5.74L27.41 5.74L26.82 5.74L26.82 5.00L27.47 5.00Q28.11 5.00 28.44 4.79Q28.77 4.57 28.77 4.16L28.77 4.16Q28.77 3.77 28.43 3.56Q28.09 3.35 27.44 3.35L27.44 3.35Q27.17 3.35 26.82 3.41Q26.47 3.47 25.92 3.63L25.92 3.63L25.92 2.84Q26.41 2.73 26.85 2.67Q27.29 2.60 27.67 2.60L27.67 2.60Q28.65 2.60 29.23 3.01Q29.80 3.41 29.80 4.09L29.80 4.09Q29.80 4.56 29.50 4.89Q29.19 5.22 28.63 5.34Z"></path></svg>