<svg height="16.296875" width="36.271484375" xmlns="http://www.w3.org/2000/svg" ><path d="M1.30 3.17L2.56 3.17L2.56 5.34L5.15 5.34L5.15 6.32L2.56 6.32L2.56 10.47Q2.56 11.41 2.82 11.68Q3.08 11.94 3.86 11.94L3.86 11.94L5.15 11.94L5.15 13.00L3.86 13.00Q2.41 13.00 1.85 12.45Q1.30 11.91 1.30 10.47L1.30 10.47L1.30 6.32L0.38 6.32L0.38 5.34L1.30 5.34L1.30 3.17ZM10.33 5.84L10.33 5.84L10.33 8.43L9.54 8.43L9.54 5.87Q9.54 5.26 9.27 4.95Q9.00 4.65 8.47 4.65L8.47 4.65Q7.83 4.65 7.46 5.01Q7.09 5.38 7.09 6.01L7.09 6.01L7.09 8.43L6.29 8.43L6.29 2.47L7.09 2.47L7.09 4.81Q7.37 4.42 7.76 4.23Q8.14 4.04 8.65 4.04L8.65 4.04Q9.47 4.04 9.90 4.50Q10.33 4.96 10.33 5.84ZM16.15 5.34L19.02 13.00L17.68 13.00L16.99 11.12L13.60 11.12L12.90 13.00L11.57 13.00L14.44 5.34L16.15 5.34ZM15.29 6.57L13.98 10.10L16.60 10.10L15.29 6.57ZM23.02 5.34L23.02 5.34Q23.65 5.46 23.99 5.83Q24.34 6.21 24.34 6.77L24.34 6.77Q24.34 7.62 23.69 8.07Q23.04 8.53 21.83 8.53L21.83 8.53Q21.44 8.53 21.01 8.46Q20.58 8.39 20.10 8.25L20.10 8.25L20.10 7.42Q20.46 7.61 20.87 7.70Q21.27 7.79 21.73 7.79L21.73 7.79Q22.48 7.79 22.89 7.52Q23.30 7.25 23.30 6.77L23.30 6.77Q23.30 6.26 22.92 6.00Q22.54 5.74 21.80 5.74L21.80 5.74L21.21 5.74L21.21 5.00L21.85 5.00Q22.50 5.00 22.83 4.79Q23.16 4.57 23.16 4.16L23.16 4.16Q23.16 3.77 22.82 3.56Q22.48 3.35 21.83 3.35L21.83 3.35Q21.55 3.35 21.21 3.41Q20.86 3.47 20.30 3.63L20.30 3.63L20.30 2.84Q20.80 2.73 21.24 2.67Q21.68 2.60 22.05 2.60L22.05 2.60Q23.04 2.60 23.61 3.01Q24.19 3.41 24.19 4.09L24.19 4.09Q24.19 4.56 23.88 4.89Q23.58 5.22 23.02 5.34ZM28.63 5.34L28.63 5.34Q29.26 5.46 29.60 5.83Q29.95 6.21 29.95 6.77L29.95 6.77Q29.95 7.62 29.30 8.07Q28.65 8.53 27.44 8.53L27.44 8.53Q27.05 8.53 26.62 8.46Q26.20 8.39 25.72 8.25L25.72 8.25L25.72 7.42Q26.07 7.61 26.48 7.70Q26.89 7.79 27.34 7.79L27.34 7.79Q28.09 7.79 28.50 7.52Q28.91 7.25 28.91 6.77L28.91 6.77Q28.91 6.26 28.53 6.00Q28.15 5.74 27.41 5.74L27.41 5.74L26.82 5.74L26.82 5.00L27.47 5.00Q28.11 5.00 28.44 4.79Q28.77 4.57 28.77 4.16L28.77 4.16Q28.77 3.77 28.43 3.56Q28.09 3.35 27.44 3.35L27.44 3.35Q27.17 3.35 26.82 3.41Q26.47 3.47 25.92 3.63L25.92 3.63L25.92 2.84Q26.41 2.73 26.85 2.67Q27.29 2.60 27.67 2.60L27.67 2.60Q28.65 2.60 29.23 3.01Q29.80 3.41 29.80 4.09L29.80 4.09Q29.80 4.56 29.50 4.89Q29.19 5.22 28.63 5.34ZM33.92 6.41L33.92 3.55L31.81 6.41L33.92 6.41ZM31.09 6.33L33.77 2.72L34.90 2.72L34.90 6.41L35.83 6.41L35.83 7.16L34.90 7.16L34.90 8.43L33.92 8.43L33.92 7.16L31.09 7.16L31.09 6.33Z"></path></svg>