<svg height="16.296875" width="36.5654296875" xmlns="http://www.w3.org/2000/svg" ><path d="M1.30 3.17L2.56 3.17L2.56 5.34L5.15 5.34L5.15 6.32L2.56 6.32L2.56 10.47Q2.56 11.41 2.82 11.68Q3.08 11.94 3.86 11.94L3.86 11.94L5.15 11.94L5.15 13.00L3.86 13.00Q2.41 13.00 1.85 12.45Q1.30 11.91 1.30 10.47L1.30 10.47L1.30 6.32L0.38 6.32L0.38 5.34L1.30 5.34L1.30 3.17ZM10.33 5.84L10.33 5.84L10.33 8.43L9.54 8.43L9.54 5.87Q9.54 5.26 9.27 4.95Q9.00 4.65 8.47 4.65L8.47 4.65Q7.83 4.65 7.46 5.01Q7.09 5.38 7.09 6.01L7.09 6.01L7.09 8.43L6.29 8.43L6.29 2.47L7.09 2.47L7.09 4.81Q7.37 4.42 7.76 4.23Q8.14 4.04 8.65 4.04L8.65 4.04Q9.47 4.04 9.90 4.50Q10.33 4.96 10.33 5.84ZM17.20 9.15L15.95 9.15Q14.42 9.15 13.84 9.50Q13.25 9.84 13.25 10.68L13.25 10.68Q13.25 11.35 13.69 11.75Q14.13 12.14 14.89 12.14L14.89 12.14Q15.93 12.14 16.57 11.40Q17.20 10.66 17.20 9.43L17.20 9.43L17.20 9.15ZM18.46 8.63L18.46 8.63L18.46 13.00L17.20 13.00L17.20 11.83Q16.77 12.53 16.13 12.86Q15.48 13.19 14.55 13.19L14.55 13.19Q13.38 13.19 12.68 12.53Q11.99 11.87 11.99 10.77L11.99 10.77Q11.99 9.47 12.85 8.82Q13.72 8.16 15.44 8.16L15.44 8.16L17.20 8.16L17.20 8.04Q17.20 7.17 16.63 6.70Q16.06 6.22 15.03 6.22L15.03 6.22Q14.37 6.22 13.75 6.38Q13.13 6.54 12.55 6.85L12.55 6.85L12.55 5.69Q13.24 5.42 13.89 5.29Q14.54 5.15 15.16 5.15L15.16 5.15Q16.82 5.15 17.64 6.02Q18.46 6.88 18.46 8.63ZM16.19 3.63L16.19 3.63L15.80 3.25Q15.65 3.12 15.53 3.05Q15.42 2.99 15.33 2.99L15.33 2.99Q15.07 2.99 14.95 3.24Q14.83 3.49 14.81 4.05L14.81 4.05L13.96 4.05Q13.97 3.12 14.32 2.62Q14.67 2.12 15.29 2.12L15.29 2.12Q15.55 2.12 15.77 2.21Q15.99 2.31 16.24 2.54L16.24 2.54L16.63 2.91Q16.78 3.05 16.90 3.11Q17.01 3.18 17.10 3.18L17.10 3.18Q17.36 3.18 17.48 2.93Q17.60 2.68 17.62 2.12L17.62 2.12L18.47 2.12Q18.46 3.04 18.11 3.54Q17.76 4.05 17.14 4.05L17.14 4.05Q16.88 4.05 16.66 3.95Q16.44 3.86 16.19 3.63ZM23.31 5.34L23.31 5.34Q23.94 5.46 24.28 5.83Q24.63 6.21 24.63 6.77L24.63 6.77Q24.63 7.62 23.98 8.07Q23.33 8.53 22.12 8.53L22.12 8.53Q21.73 8.53 21.30 8.46Q20.88 8.39 20.40 8.25L20.40 8.25L20.40 7.42Q20.75 7.61 21.16 7.70Q21.57 7.79 22.03 7.79L22.03 7.79Q22.77 7.79 23.18 7.52Q23.59 7.25 23.59 6.77L23.59 6.77Q23.59 6.26 23.21 6.00Q22.83 5.74 22.09 5.74L22.09 5.74L21.51 5.74L21.51 5.00L22.15 5.00Q22.79 5.00 23.12 4.79Q23.45 4.57 23.45 4.16L23.45 4.16Q23.45 3.77 23.11 3.56Q22.77 3.35 22.12 3.35L22.12 3.35Q21.85 3.35 21.50 3.41Q21.15 3.47 20.60 3.63L20.60 3.63L20.60 2.84Q21.10 2.73 21.53 2.67Q21.97 2.60 22.35 2.60L22.35 2.60Q23.33 2.60 23.91 3.01Q24.49 3.41 24.49 4.09L24.49 4.09Q24.49 4.56 24.18 4.89Q23.87 5.22 23.31 5.34ZM28.92 5.34L28.92 5.34Q29.55 5.46 29.90 5.83Q30.24 6.21 30.24 6.77L30.24 6.77Q30.24 7.62 29.59 8.07Q28.94 8.53 27.73 8.53L27.73 8.53Q27.34 8.53 26.92 8.46Q26.49 8.39 26.01 8.25L26.01 8.25L26.01 7.42Q26.37 7.61 26.77 7.70Q27.18 7.79 27.64 7.79L27.64 7.79Q28.38 7.79 28.79 7.52Q29.20 7.25 29.20 6.77L29.20 6.77Q29.20 6.26 28.82 6.00Q28.44 5.74 27.71 5.74L27.71 5.74L27.12 5.74L27.12 5.00L27.76 5.00Q28.40 5.00 28.73 4.79Q29.07 4.57 29.07 4.16L29.07 4.16Q29.07 3.77 28.72 3.56Q28.38 3.35 27.73 3.35L27.73 3.35Q27.46 3.35 27.11 3.41Q26.76 3.47 26.21 3.63L26.21 3.63L26.21 2.84Q26.71 2.73 27.15 2.67Q27.58 2.60 27.96 2.60L27.96 2.60Q28.94 2.60 29.52 3.01Q30.10 3.41 30.10 4.09L30.10 4.09Q30.10 4.56 29.79 4.89Q29.48 5.22 28.92 5.34ZM34.21 6.41L34.21 3.55L32.10 6.41L34.21 6.41ZM31.38 6.33L34.06 2.72L35.20 2.72L35.20 6.41L36.12 6.41L36.12 7.16L35.20 7.16L35.20 8.43L34.21 8.43L34.21 7.16L31.38 7.16L31.38 6.33Z"></path></svg>