<svg height="16.296875" width="36.873046875" xmlns="http://www.w3.org/2000/svg" ><path d="M1.30 3.17L2.56 3.17L2.56 5.34L5.15 5.34L5.15 6.32L2.56 6.32L2.56 10.47Q2.56 11.41 2.82 11.68Q3.08 11.94 3.86 11.94L3.86 11.94L5.15 11.94L5.15 13.00L3.86 13.00Q2.41 13.00 1.85 12.45Q1.30 11.91 1.30 10.47L1.30 10.47L1.30 6.32L0.38 6.32L0.38 5.34L1.30 5.34L1.30 3.17ZM10.33 5.84L10.33 5.84L10.33 8.43L9.54 8.43L9.54 5.87Q9.54 5.26 9.27 4.95Q9.00 4.65 8.47 4.65L8.47 4.65Q7.83 4.65 7.46 5.01Q7.09 5.38 7.09 6.01L7.09 6.01L7.09 8.43L6.29 8.43L6.29 2.47L7.09 2.47L7.09 4.81Q7.37 4.42 7.76 4.23Q8.14 4.04 8.65 4.04L8.65 4.04Q9.47 4.04 9.90 4.50Q10.33 4.96 10.33 5.84ZM17.51 6.50L17.51 6.50L17.51 5.34L18.76 5.34L18.76 13.00L17.51 13.00L17.51 11.85Q17.11 12.53 16.51 12.86Q15.90 13.19 15.05 13.19L15.05 13.19Q13.67 13.19 12.79 12.09Q11.92 10.98 11.92 9.17L11.92 9.17Q11.92 7.37 12.79 6.26Q13.67 5.15 15.05 5.15L15.05 5.15Q15.90 5.15 16.51 5.49Q17.11 5.82 17.51 6.50ZM13.22 9.17L13.22 9.17Q13.22 10.56 13.79 11.35Q14.36 12.14 15.36 12.14L15.36 12.14Q16.36 12.14 16.93 11.35Q17.51 10.56 17.51 9.17L17.51 9.17Q17.51 7.79 16.93 7.00Q16.36 6.21 15.36 6.21L15.36 6.21Q14.36 6.21 13.79 7.00Q13.22 7.79 13.22 9.17ZM16.50 3.63L16.50 3.63L16.11 3.25Q15.96 3.12 15.84 3.05Q15.73 2.99 15.64 2.99L15.64 2.99Q15.38 2.99 15.26 3.24Q15.13 3.49 15.12 4.05L15.12 4.05L14.27 4.05Q14.28 3.12 14.63 2.62Q14.98 2.12 15.60 2.12L15.60 2.12Q15.86 2.12 16.08 2.21Q16.30 2.31 16.55 2.54L16.55 2.54L16.94 2.91Q17.09 3.05 17.20 3.11Q17.32 3.18 17.40 3.18L17.40 3.18Q17.66 3.18 17.79 2.93Q17.91 2.68 17.92 2.12L17.92 2.12L18.78 2.12Q18.76 3.04 18.42 3.54Q18.07 4.05 17.45 4.05L17.45 4.05Q17.19 4.05 16.97 3.95Q16.75 3.86 16.50 3.63ZM23.62 5.34L23.62 5.34Q24.25 5.46 24.59 5.83Q24.94 6.21 24.94 6.77L24.94 6.77Q24.94 7.62 24.29 8.07Q23.64 8.53 22.43 8.53L22.43 8.53Q22.04 8.53 21.61 8.46Q21.18 8.39 20.71 8.25L20.71 8.25L20.71 7.42Q21.06 7.61 21.47 7.70Q21.88 7.79 22.33 7.79L22.33 7.79Q23.08 7.79 23.49 7.52Q23.90 7.25 23.90 6.77L23.90 6.77Q23.90 6.26 23.52 6.00Q23.14 5.74 22.40 5.74L22.40 5.74L21.81 5.74L21.81 5.00L22.46 5.00Q23.10 5.00 23.43 4.79Q23.76 4.57 23.76 4.16L23.76 4.16Q23.76 3.77 23.42 3.56Q23.08 3.35 22.43 3.35L22.43 3.35Q22.16 3.35 21.81 3.41Q21.46 3.47 20.90 3.63L20.90 3.63L20.90 2.84Q21.40 2.73 21.84 2.67Q22.28 2.60 22.65 2.60L22.65 2.60Q23.64 2.60 24.22 3.01Q24.79 3.41 24.79 4.09L24.79 4.09Q24.79 4.56 24.49 4.89Q24.18 5.22 23.62 5.34ZM29.23 5.34L29.23 5.34Q29.86 5.46 30.20 5.83Q30.55 6.21 30.55 6.77L30.55 6.77Q30.55 7.62 29.90 8.07Q29.25 8.53 28.04 8.53L28.04 8.53Q27.65 8.53 27.22 8.46Q26.80 8.39 26.32 8.25L26.32 8.25L26.32 7.42Q26.67 7.61 27.08 7.70Q27.49 7.79 27.95 7.79L27.95 7.79Q28.69 7.79 29.10 7.52Q29.51 7.25 29.51 6.77L29.51 6.77Q29.51 6.26 29.13 6.00Q28.75 5.74 28.01 5.74L28.01 5.74L27.43 5.74L27.43 5.00L28.07 5.00Q28.71 5.00 29.04 4.79Q29.37 4.57 29.37 4.16L29.37 4.16Q29.37 3.77 29.03 3.56Q28.69 3.35 28.04 3.35L28.04 3.35Q27.77 3.35 27.42 3.41Q27.07 3.47 26.52 3.63L26.52 3.63L26.52 2.84Q27.02 2.73 27.45 2.67Q27.89 2.60 28.27 2.60L28.27 2.60Q29.25 2.60 29.83 3.01Q30.41 3.41 30.41 4.09L30.41 4.09Q30.41 4.56 30.10 4.89Q29.79 5.22 29.23 5.34ZM34.52 6.41L34.52 3.55L32.41 6.41L34.52 6.41ZM31.69 6.33L34.37 2.72L35.51 2.72L35.51 6.41L36.43 6.41L36.43 7.16L35.51 7.16L35.51 8.43L34.52 8.43L34.52 7.16L31.69 7.16L31.69 6.33Z"></path></svg>