<svg height="16.296875" width="31.2607421875" xmlns="http://www.w3.org/2000/svg" ><path d="M1.30 3.17L2.56 3.17L2.56 5.34L5.15 5.34L5.15 6.32L2.56 6.32L2.56 10.47Q2.56 11.41 2.82 11.68Q3.08 11.94 3.86 11.94L3.86 11.94L5.15 11.94L5.15 13.00L3.86 13.00Q2.41 13.00 1.85 12.45Q1.30 11.91 1.30 10.47L1.30 10.47L1.30 6.32L0.38 6.32L0.38 5.34L1.30 5.34L1.30 3.17ZM10.33 5.84L10.33 5.84L10.33 8.43L9.54 8.43L9.54 5.87Q9.54 5.26 9.27 4.95Q9.00 4.65 8.47 4.65L8.47 4.65Q7.83 4.65 7.46 5.01Q7.09 5.38 7.09 6.01L7.09 6.01L7.09 8.43L6.29 8.43L6.29 2.47L7.09 2.47L7.09 4.81Q7.37 4.42 7.76 4.23Q8.14 4.04 8.65 4.04L8.65 4.04Q9.47 4.04 9.90 4.50Q10.33 4.96 10.33 5.84ZM17.51 6.50L17.51 6.50L17.51 5.34L18.76 5.34L18.76 13.00L17.51 13.00L17.51 11.85Q17.11 12.53 16.51 12.86Q15.90 13.19 15.05 13.19L15.05 13.19Q13.67 13.19 12.79 12.09Q11.92 10.98 11.92 9.17L11.92 9.17Q11.92 7.37 12.79 6.26Q13.67 5.15 15.05 5.15L15.05 5.15Q15.90 5.15 16.51 5.49Q17.11 5.82 17.51 6.50ZM13.22 9.17L13.22 9.17Q13.22 10.56 13.79 11.35Q14.36 12.14 15.36 12.14L15.36 12.14Q16.36 12.14 16.93 11.35Q17.51 10.56 17.51 9.17L17.51 9.17Q17.51 7.79 16.93 7.00Q16.36 6.21 15.36 6.21L15.36 6.21Q14.36 6.21 13.79 7.00Q13.22 7.79 13.22 9.17ZM16.50 3.63L16.50 3.63L16.11 3.25Q15.96 3.12 15.84 3.05Q15.73 2.99 15.64 2.99L15.64 2.99Q15.38 2.99 15.26 3.24Q15.13 3.49 15.12 4.05L15.12 4.05L14.27 4.05Q14.28 3.12 14.63 2.62Q14.98 2.12 15.60 2.12L15.60 2.12Q15.86 2.12 16.08 2.21Q16.30 2.31 16.55 2.54L16.55 2.54L16.94 2.91Q17.09 3.05 17.20 3.11Q17.32 3.18 17.40 3.18L17.40 3.18Q17.66 3.18 17.79 2.93Q17.91 2.68 17.92 2.12L17.92 2.12L18.78 2.12Q18.76 3.04 18.42 3.54Q18.07 4.05 17.45 4.05L17.45 4.05Q17.19 4.05 16.97 3.95Q16.75 3.86 16.50 3.63ZM21.01 5.58L21.01 2.72L24.49 2.72L24.49 3.37L21.82 3.37L21.82 4.76Q22.01 4.70 22.21 4.68L22.21 4.68Q22.40 4.65 22.59 4.65L22.59 4.65Q23.69 4.65 24.34 5.17L24.34 5.17Q24.98 5.69 24.98 6.59L24.98 6.59Q24.98 7.51 24.32 8.03L24.32 8.03Q23.66 8.53 22.46 8.53L22.46 8.53Q22.05 8.53 21.62 8.47Q21.18 8.41 20.73 8.29L20.73 8.29L20.73 7.51Q21.12 7.70 21.55 7.79L21.55 7.79Q21.97 7.88 22.44 7.88L22.44 7.88Q23.20 7.88 23.65 7.53Q24.09 7.18 24.09 6.59Q24.09 6.00 23.65 5.65Q23.20 5.30 22.44 5.30L22.44 5.30Q22.09 5.30 21.73 5.37Q21.38 5.43 21.01 5.58L21.01 5.58ZM29.23 5.34L29.23 5.34Q29.86 5.46 30.20 5.83Q30.55 6.21 30.55 6.77L30.55 6.77Q30.55 7.62 29.90 8.07Q29.25 8.53 28.04 8.53L28.04 8.53Q27.65 8.53 27.22 8.46Q26.80 8.39 26.32 8.25L26.32 8.25L26.32 7.42Q26.67 7.61 27.08 7.70Q27.49 7.79 27.95 7.79L27.95 7.79Q28.69 7.79 29.10 7.52Q29.51 7.25 29.51 6.77L29.51 6.77Q29.51 6.26 29.13 6.00Q28.75 5.74 28.01 5.74L28.01 5.74L27.43 5.74L27.43 5.00L28.07 5.00Q28.71 5.00 29.04 4.79Q29.37 4.57 29.37 4.16L29.37 4.16Q29.37 3.77 29.03 3.56Q28.69 3.35 28.04 3.35L28.04 3.35Q27.77 3.35 27.42 3.41Q27.07 3.47 26.52 3.63L26.52 3.63L26.52 2.84Q27.02 2.73 27.45 2.67Q27.89 2.60 28.27 2.60L28.27 2.60Q29.25 2.60 29.83 3.01Q30.41 3.41 30.41 4.09L30.41 4.09Q30.41 4.56 30.10 4.89Q29.79 5.22 29.23 5.34Z"></path></svg>