<svg height="16.296875" width="37.802734375" xmlns="http://www.w3.org/2000/svg" ><path d="M1.30 3.17L2.56 3.17L2.56 5.34L5.15 5.34L5.15 6.32L2.56 6.32L2.56 10.47Q2.56 11.41 2.82 11.68Q3.08 11.94 3.86 11.94L3.86 11.94L5.15 11.94L5.15 13.00L3.86 13.00Q2.41 13.00 1.85 12.45Q1.30 11.91 1.30 10.47L1.30 10.47L1.30 6.32L0.38 6.32L0.38 5.34L1.30 5.34L1.30 3.17ZM10.33 5.84L10.33 5.84L10.33 8.43L9.54 8.43L9.54 5.87Q9.54 5.26 9.27 4.95Q9.00 4.65 8.47 4.65L8.47 4.65Q7.83 4.65 7.46 5.01Q7.09 5.38 7.09 6.01L7.09 6.01L7.09 8.43L6.29 8.43L6.29 2.47L7.09 2.47L7.09 4.81Q7.37 4.42 7.76 4.23Q8.14 4.04 8.65 4.04L8.65 4.04Q9.47 4.04 9.90 4.50Q10.33 4.96 10.33 5.84ZM16.15 5.34L19.02 13.00L17.68 13.00L16.99 11.12L13.60 11.12L12.90 13.00L11.57 13.00L14.44 5.34L16.15 5.34ZM15.29 6.57L13.98 10.10L16.60 10.10L15.29 6.57ZM21.77 13.00L21.76 7.54L22.19 7.54Q23.50 7.54 24.09 6.76L24.09 6.76Q24.49 6.24 24.49 5.57L24.49 5.57Q24.48 4.66 24.09 4.22L24.09 4.22Q23.41 3.44 22.19 3.44L22.19 3.44Q21.64 3.44 21.10 3.59L21.10 3.59Q20.57 3.73 20.04 4.03L20.04 4.03L20.04 2.85Q20.56 2.61 21.11 2.50L21.11 2.50Q21.66 2.37 22.24 2.37L22.24 2.37Q24.12 2.37 25.07 3.45L25.07 3.45Q25.81 4.30 25.81 5.57L25.81 5.57Q25.81 6.73 25.07 7.52L25.07 7.52Q24.31 8.33 23.15 8.54L23.15 8.54L23.15 13.00L21.77 13.00ZM27.55 5.58L27.55 2.72L31.04 2.72L31.04 3.37L28.36 3.37L28.36 4.76Q28.55 4.70 28.75 4.68L28.75 4.68Q28.94 4.65 29.13 4.65L29.13 4.65Q30.24 4.65 30.88 5.17L30.88 5.17Q31.52 5.69 31.52 6.59L31.52 6.59Q31.52 7.51 30.86 8.03L30.86 8.03Q30.20 8.53 29.00 8.53L29.00 8.53Q28.59 8.53 28.16 8.47Q27.73 8.41 27.28 8.29L27.28 8.29L27.28 7.51Q27.67 7.70 28.09 7.79L28.09 7.79Q28.51 7.88 28.98 7.88L28.98 7.88Q29.74 7.88 30.19 7.53Q30.63 7.18 30.63 6.59Q30.63 6.00 30.19 5.65Q29.74 5.30 28.98 5.30L28.98 5.30Q28.63 5.30 28.27 5.37Q27.92 5.43 27.55 5.58L27.55 5.58ZM33.16 5.58L33.16 2.72L36.65 2.72L36.65 3.37L33.97 3.37L33.97 4.76Q34.17 4.70 34.36 4.68L34.36 4.68Q34.56 4.65 34.75 4.65L34.75 4.65Q35.85 4.65 36.49 5.17L36.49 5.17Q37.13 5.69 37.13 6.59L37.13 6.59Q37.13 7.51 36.47 8.03L36.47 8.03Q35.81 8.53 34.61 8.53L34.61 8.53Q34.20 8.53 33.77 8.47Q33.34 8.41 32.89 8.29L32.89 8.29L32.89 7.51Q33.28 7.70 33.70 7.79L33.70 7.79Q34.13 7.88 34.60 7.88L34.60 7.88Q35.36 7.88 35.80 7.53Q36.24 7.18 36.24 6.59Q36.24 6.00 35.80 5.65Q35.36 5.30 34.60 5.30L34.60 5.30Q34.24 5.30 33.89 5.37Q33.53 5.43 33.16 5.58L33.16 5.58Z"></path></svg>