<svg height="16.296875" width="35.6767578125" xmlns="http://www.w3.org/2000/svg" ><path d="M1.30 3.17L2.56 3.17L2.56 5.34L5.15 5.34L5.15 6.32L2.56 6.32L2.56 10.47Q2.56 11.41 2.82 11.68Q3.08 11.94 3.86 11.94L3.86 11.94L5.15 11.94L5.15 13.00L3.86 13.00Q2.41 13.00 1.85 12.45Q1.30 11.91 1.30 10.47L1.30 10.47L1.30 6.32L0.38 6.32L0.38 5.34L1.30 5.34L1.30 3.17ZM10.33 5.84L10.33 5.84L10.33 8.43L9.54 8.43L9.54 5.87Q9.54 5.26 9.27 4.95Q9.00 4.65 8.47 4.65L8.47 4.65Q7.83 4.65 7.46 5.01Q7.09 5.38 7.09 6.01L7.09 6.01L7.09 8.43L6.29 8.43L6.29 2.47L7.09 2.47L7.09 4.81Q7.37 4.42 7.76 4.23Q8.14 4.04 8.65 4.04L8.65 4.04Q9.47 4.04 9.90 4.50Q10.33 4.96 10.33 5.84ZM12.02 6.81L12.02 5.65Q12.54 5.40 13.11 5.28Q13.67 5.15 14.31 5.15L14.31 5.15Q16.04 5.15 17.06 6.24Q18.07 7.33 18.07 9.17L18.07 9.17Q18.07 11.05 17.05 12.12Q16.02 13.19 14.23 13.19L14.23 13.19Q13.64 13.19 13.09 13.07Q12.54 12.95 12.02 12.71L12.02 12.71L12.02 11.54Q12.55 11.83 13.09 11.98Q13.62 12.13 14.17 12.13L14.17 12.13Q15.39 12.13 16.07 11.35Q16.75 10.58 16.75 9.17L16.75 9.17Q16.75 7.77 16.07 7.00Q15.39 6.22 14.17 6.22L14.17 6.22Q13.62 6.22 13.09 6.37Q12.55 6.51 12.02 6.81L12.02 6.81ZM22.42 5.34L22.42 5.34Q23.05 5.46 23.40 5.83Q23.74 6.21 23.74 6.77L23.74 6.77Q23.74 7.62 23.09 8.07Q22.44 8.53 21.23 8.53L21.23 8.53Q20.84 8.53 20.42 8.46Q19.99 8.39 19.51 8.25L19.51 8.25L19.51 7.42Q19.87 7.61 20.27 7.70Q20.68 7.79 21.14 7.79L21.14 7.79Q21.88 7.79 22.29 7.52Q22.70 7.25 22.70 6.77L22.70 6.77Q22.70 6.26 22.32 6.00Q21.94 5.74 21.21 5.74L21.21 5.74L20.62 5.74L20.62 5.00L21.26 5.00Q21.90 5.00 22.23 4.79Q22.57 4.57 22.57 4.16L22.57 4.16Q22.57 3.77 22.22 3.56Q21.88 3.35 21.23 3.35L21.23 3.35Q20.96 3.35 20.61 3.41Q20.26 3.47 19.71 3.63L19.71 3.63L19.71 2.84Q20.21 2.73 20.64 2.67Q21.08 2.60 21.46 2.60L21.46 2.60Q22.44 2.60 23.02 3.01Q23.60 3.41 23.60 4.09L23.60 4.09Q23.60 4.56 23.29 4.89Q22.98 5.22 22.42 5.34ZM28.03 5.34L28.03 5.34Q28.66 5.46 29.01 5.83Q29.35 6.21 29.35 6.77L29.35 6.77Q29.35 7.62 28.70 8.07Q28.05 8.53 26.84 8.53L26.84 8.53Q26.46 8.53 26.03 8.46Q25.60 8.39 25.12 8.25L25.12 8.25L25.12 7.42Q25.48 7.61 25.88 7.70Q26.29 7.79 26.75 7.79L26.75 7.79Q27.49 7.79 27.90 7.52Q28.31 7.25 28.31 6.77L28.31 6.77Q28.31 6.26 27.94 6.00Q27.56 5.74 26.82 5.74L26.82 5.74L26.23 5.74L26.23 5.00L26.87 5.00Q27.51 5.00 27.85 4.79Q28.18 4.57 28.18 4.16L28.18 4.16Q28.18 3.77 27.84 3.56Q27.49 3.35 26.84 3.35L26.84 3.35Q26.57 3.35 26.22 3.41Q25.87 3.47 25.32 3.63L25.32 3.63L25.32 2.84Q25.82 2.73 26.26 2.67Q26.69 2.60 27.07 2.60L27.07 2.60Q28.05 2.60 28.63 3.01Q29.21 3.41 29.21 4.09L29.21 4.09Q29.21 4.56 28.90 4.89Q28.59 5.22 28.03 5.34ZM33.33 6.41L33.33 3.55L31.21 6.41L33.33 6.41ZM30.50 6.33L33.17 2.72L34.31 2.72L34.31 6.41L35.23 6.41L35.23 7.16L34.31 7.16L34.31 8.43L33.33 8.43L33.33 7.16L30.50 7.16L30.50 6.33Z"></path></svg>