<svg height="16.296875" width="30.064453125" xmlns="http://www.w3.org/2000/svg" ><path d="M1.30 3.17L2.56 3.17L2.56 5.34L5.15 5.34L5.15 6.32L2.56 6.32L2.56 10.47Q2.56 11.41 2.82 11.68Q3.08 11.94 3.86 11.94L3.86 11.94L5.15 11.94L5.15 13.00L3.86 13.00Q2.41 13.00 1.85 12.45Q1.30 11.91 1.30 10.47L1.30 10.47L1.30 6.32L0.38 6.32L0.38 5.34L1.30 5.34L1.30 3.17ZM10.33 5.84L10.33 5.84L10.33 8.43L9.54 8.43L9.54 5.87Q9.54 5.26 9.27 4.95Q9.00 4.65 8.47 4.65L8.47 4.65Q7.83 4.65 7.46 5.01Q7.09 5.38 7.09 6.01L7.09 6.01L7.09 8.43L6.29 8.43L6.29 2.47L7.09 2.47L7.09 4.81Q7.37 4.42 7.76 4.23Q8.14 4.04 8.65 4.04L8.65 4.04Q9.47 4.04 9.90 4.50Q10.33 4.96 10.33 5.84ZM12.02 6.81L12.02 5.65Q12.54 5.40 13.11 5.28Q13.67 5.15 14.31 5.15L14.31 5.15Q16.04 5.15 17.06 6.24Q18.07 7.33 18.07 9.17L18.07 9.17Q18.07 11.05 17.05 12.12Q16.02 13.19 14.23 13.19L14.23 13.19Q13.64 13.19 13.09 13.07Q12.54 12.95 12.02 12.71L12.02 12.71L12.02 11.54Q12.55 11.83 13.09 11.98Q13.62 12.13 14.17 12.13L14.17 12.13Q15.39 12.13 16.07 11.35Q16.75 10.58 16.75 9.17L16.75 9.17Q16.75 7.77 16.07 7.00Q15.39 6.22 14.17 6.22L14.17 6.22Q13.62 6.22 13.09 6.37Q12.55 6.51 12.02 6.81L12.02 6.81ZM19.81 5.58L19.81 2.72L23.30 2.72L23.30 3.37L20.62 3.37L20.62 4.76Q20.82 4.70 21.01 4.68L21.01 4.68Q21.21 4.65 21.40 4.65L21.40 4.65Q22.50 4.65 23.14 5.17L23.14 5.17Q23.78 5.69 23.78 6.59L23.78 6.59Q23.78 7.51 23.12 8.03L23.12 8.03Q22.46 8.53 21.26 8.53L21.26 8.53Q20.85 8.53 20.42 8.47Q19.99 8.41 19.54 8.29L19.54 8.29L19.54 7.51Q19.93 7.70 20.35 7.79L20.35 7.79Q20.77 7.88 21.25 7.88L21.25 7.88Q22.00 7.88 22.45 7.53Q22.89 7.18 22.89 6.59Q22.89 6.00 22.45 5.65Q22.00 5.30 21.25 5.30L21.25 5.30Q20.89 5.30 20.54 5.37Q20.18 5.43 19.81 5.58L19.81 5.58ZM28.03 5.34L28.03 5.34Q28.66 5.46 29.01 5.83Q29.35 6.21 29.35 6.77L29.35 6.77Q29.35 7.62 28.70 8.07Q28.05 8.53 26.84 8.53L26.84 8.53Q26.46 8.53 26.03 8.46Q25.60 8.39 25.12 8.25L25.12 8.25L25.12 7.42Q25.48 7.61 25.88 7.70Q26.29 7.79 26.75 7.79L26.75 7.79Q27.49 7.79 27.90 7.52Q28.31 7.25 28.31 6.77L28.31 6.77Q28.31 6.26 27.94 6.00Q27.56 5.74 26.82 5.74L26.82 5.74L26.23 5.74L26.23 5.00L26.87 5.00Q27.51 5.00 27.85 4.79Q28.18 4.57 28.18 4.16L28.18 4.16Q28.18 3.77 27.84 3.56Q27.49 3.35 26.84 3.35L26.84 3.35Q26.57 3.35 26.22 3.41Q25.87 3.47 25.32 3.63L25.32 3.63L25.32 2.84Q25.82 2.73 26.26 2.67Q26.69 2.60 27.07 2.60L27.07 2.60Q28.05 2.60 28.63 3.01Q29.21 3.41 29.21 4.09L29.21 4.09Q29.21 4.56 28.90 4.89Q28.59 5.22 28.03 5.34Z"></path></svg>