<svg height="16.296875" width="29.244140625" xmlns="http://www.w3.org/2000/svg" ><path d="M1.30 3.17L2.56 3.17L2.56 5.34L5.15 5.34L5.15 6.32L2.56 6.32L2.56 10.47Q2.56 11.41 2.82 11.68Q3.08 11.94 3.86 11.94L3.86 11.94L5.15 11.94L5.15 13.00L3.86 13.00Q2.41 13.00 1.85 12.45Q1.30 11.91 1.30 10.47L1.30 10.47L1.30 6.32L0.38 6.32L0.38 5.34L1.30 5.34L1.30 3.17ZM10.33 5.84L10.33 5.84L10.33 8.43L9.54 8.43L9.54 5.87Q9.54 5.26 9.27 4.95Q9.00 4.65 8.47 4.65L8.47 4.65Q7.83 4.65 7.46 5.01Q7.09 5.38 7.09 6.01L7.09 6.01L7.09 8.43L6.29 8.43L6.29 2.47L7.09 2.47L7.09 4.81Q7.37 4.42 7.76 4.23Q8.14 4.04 8.65 4.04L8.65 4.04Q9.47 4.04 9.90 4.50Q10.33 4.96 10.33 5.84ZM12.42 13.00L12.42 5.34L17.26 5.34L17.26 6.35L13.69 6.35L13.69 8.41L17.10 8.41L17.10 9.42L13.69 9.42L13.69 11.99L17.35 11.99L17.35 13.00L12.42 13.00ZM18.99 5.58L18.99 2.72L22.48 2.72L22.48 3.37L19.80 3.37L19.80 4.76Q20.00 4.70 20.19 4.68L20.19 4.68Q20.38 4.65 20.58 4.65L20.58 4.65Q21.68 4.65 22.32 5.17L22.32 5.17Q22.96 5.69 22.96 6.59L22.96 6.59Q22.96 7.51 22.30 8.03L22.30 8.03Q21.64 8.53 20.44 8.53L20.44 8.53Q20.03 8.53 19.60 8.47Q19.17 8.41 18.72 8.29L18.72 8.29L18.72 7.51Q19.11 7.70 19.53 7.79L19.53 7.79Q19.95 7.88 20.43 7.88L20.43 7.88Q21.18 7.88 21.63 7.53Q22.07 7.18 22.07 6.59Q22.07 6.00 21.63 5.65Q21.18 5.30 20.43 5.30L20.43 5.30Q20.07 5.30 19.71 5.37Q19.36 5.43 18.99 5.58L18.99 5.58ZM27.21 5.34L27.21 5.34Q27.84 5.46 28.19 5.83Q28.53 6.21 28.53 6.77L28.53 6.77Q28.53 7.62 27.88 8.07Q27.23 8.53 26.02 8.53L26.02 8.53Q25.63 8.53 25.21 8.46Q24.78 8.39 24.30 8.25L24.30 8.25L24.30 7.42Q24.66 7.61 25.06 7.70Q25.47 7.79 25.93 7.79L25.93 7.79Q26.67 7.79 27.08 7.52Q27.49 7.25 27.49 6.77L27.49 6.77Q27.49 6.26 27.11 6.00Q26.74 5.74 26.00 5.74L26.00 5.74L25.41 5.74L25.41 5.00L26.05 5.00Q26.69 5.00 27.03 4.79Q27.36 4.57 27.36 4.16L27.36 4.16Q27.36 3.77 27.02 3.56Q26.67 3.35 26.02 3.35L26.02 3.35Q25.75 3.35 25.40 3.41Q25.05 3.47 24.50 3.63L24.50 3.63L24.50 2.84Q25.00 2.73 25.44 2.67Q25.87 2.60 26.25 2.60L26.25 2.60Q27.23 2.60 27.81 3.01Q28.39 3.41 28.39 4.09L28.39 4.09Q28.39 4.56 28.08 4.89Q27.77 5.22 27.21 5.34Z"></path></svg>