<svg height="16.296875" width="34.8564453125" xmlns="http://www.w3.org/2000/svg" ><path d="M1.30 3.17L2.56 3.17L2.56 5.34L5.15 5.34L5.15 6.32L2.56 6.32L2.56 10.47Q2.56 11.41 2.82 11.68Q3.08 11.94 3.86 11.94L3.86 11.94L5.15 11.94L5.15 13.00L3.86 13.00Q2.41 13.00 1.85 12.45Q1.30 11.91 1.30 10.47L1.30 10.47L1.30 6.32L0.38 6.32L0.38 5.34L1.30 5.34L1.30 3.17ZM10.33 5.84L10.33 5.84L10.33 8.43L9.54 8.43L9.54 5.87Q9.54 5.26 9.27 4.95Q9.00 4.65 8.47 4.65L8.47 4.65Q7.83 4.65 7.46 5.01Q7.09 5.38 7.09 6.01L7.09 6.01L7.09 8.43L6.29 8.43L6.29 2.47L7.09 2.47L7.09 4.81Q7.37 4.42 7.76 4.23Q8.14 4.04 8.65 4.04L8.65 4.04Q9.47 4.04 9.90 4.50Q10.33 4.96 10.33 5.84ZM12.42 13.00L12.42 5.34L17.26 5.34L17.26 6.35L13.69 6.35L13.69 8.41L17.10 8.41L17.10 9.42L13.69 9.42L13.69 11.99L17.35 11.99L17.35 13.00L12.42 13.00ZM21.60 5.34L21.60 5.34Q22.23 5.46 22.58 5.83Q22.92 6.21 22.92 6.77L22.92 6.77Q22.92 7.62 22.27 8.07Q21.62 8.53 20.41 8.53L20.41 8.53Q20.02 8.53 19.60 8.46Q19.17 8.39 18.69 8.25L18.69 8.25L18.69 7.42Q19.04 7.61 19.45 7.70Q19.86 7.79 20.32 7.79L20.32 7.79Q21.06 7.79 21.47 7.52Q21.88 7.25 21.88 6.77L21.88 6.77Q21.88 6.26 21.50 6.00Q21.12 5.74 20.38 5.74L20.38 5.74L19.80 5.74L19.80 5.00L20.44 5.00Q21.08 5.00 21.41 4.79Q21.75 4.57 21.75 4.16L21.75 4.16Q21.75 3.77 21.40 3.56Q21.06 3.35 20.41 3.35L20.41 3.35Q20.14 3.35 19.79 3.41Q19.44 3.47 18.89 3.63L18.89 3.63L18.89 2.84Q19.39 2.73 19.82 2.67Q20.26 2.60 20.64 2.60L20.64 2.60Q21.62 2.60 22.20 3.01Q22.78 3.41 22.78 4.09L22.78 4.09Q22.78 4.56 22.47 4.89Q22.16 5.22 21.60 5.34ZM27.21 5.34L27.21 5.34Q27.84 5.46 28.19 5.83Q28.53 6.21 28.53 6.77L28.53 6.77Q28.53 7.62 27.88 8.07Q27.23 8.53 26.02 8.53L26.02 8.53Q25.63 8.53 25.21 8.46Q24.78 8.39 24.30 8.25L24.30 8.25L24.30 7.42Q24.66 7.61 25.06 7.70Q25.47 7.79 25.93 7.79L25.93 7.79Q26.67 7.79 27.08 7.52Q27.49 7.25 27.49 6.77L27.49 6.77Q27.49 6.26 27.11 6.00Q26.74 5.74 26.00 5.74L26.00 5.74L25.41 5.74L25.41 5.00L26.05 5.00Q26.69 5.00 27.03 4.79Q27.36 4.57 27.36 4.16L27.36 4.16Q27.36 3.77 27.02 3.56Q26.67 3.35 26.02 3.35L26.02 3.35Q25.75 3.35 25.40 3.41Q25.05 3.47 24.50 3.63L24.50 3.63L24.50 2.84Q25.00 2.73 25.44 2.67Q25.87 2.60 26.25 2.60L26.25 2.60Q27.23 2.60 27.81 3.01Q28.39 3.41 28.39 4.09L28.39 4.09Q28.39 4.56 28.08 4.89Q27.77 5.22 27.21 5.34ZM32.50 6.41L32.50 3.55L30.39 6.41L32.50 6.41ZM29.67 6.33L32.35 2.72L33.49 2.72L33.49 6.41L34.41 6.41L34.41 7.16L33.49 7.16L33.49 8.43L32.50 8.43L32.50 7.16L29.67 7.16L29.67 6.33Z"></path></svg>