<svg height="16.296875" width="39.8603515625" xmlns="http://www.w3.org/2000/svg" ><path d="M1.30 3.17L2.56 3.17L2.56 5.34L5.15 5.34L5.15 6.32L2.56 6.32L2.56 10.47Q2.56 11.41 2.82 11.68Q3.08 11.94 3.86 11.94L3.86 11.94L5.15 11.94L5.15 13.00L3.86 13.00Q2.41 13.00 1.85 12.45Q1.30 11.91 1.30 10.47L1.30 10.47L1.30 6.32L0.38 6.32L0.38 5.34L1.30 5.34L1.30 3.17ZM10.33 5.84L10.33 5.84L10.33 8.43L9.54 8.43L9.54 5.87Q9.54 5.26 9.27 4.95Q9.00 4.65 8.47 4.65L8.47 4.65Q7.83 4.65 7.46 5.01Q7.09 5.38 7.09 6.01L7.09 6.01L7.09 8.43L6.29 8.43L6.29 2.47L7.09 2.47L7.09 4.81Q7.37 4.42 7.76 4.23Q8.14 4.04 8.65 4.04L8.65 4.04Q9.47 4.04 9.90 4.50Q10.33 4.96 10.33 5.84ZM11.92 9.50L11.92 9.50L11.92 8.88L17.71 8.88Q17.62 7.58 16.92 6.90Q16.22 6.22 14.97 6.22L14.97 6.22Q14.25 6.22 13.57 6.40Q12.89 6.58 12.22 6.93L12.22 6.93L12.22 5.74Q12.89 5.46 13.60 5.30Q14.31 5.15 15.05 5.15L15.05 5.15Q16.88 5.15 17.95 6.22Q19.02 7.29 19.02 9.11L19.02 9.11Q19.02 10.99 18.00 12.09Q16.99 13.19 15.26 13.19L15.26 13.19Q13.72 13.19 12.82 12.20Q11.92 11.20 11.92 9.50ZM17.66 9.86L13.18 9.86Q13.19 10.90 13.76 11.51Q14.32 12.13 15.25 12.13L15.25 12.13Q16.30 12.13 16.94 11.53Q17.57 10.94 17.66 9.86L17.66 9.86ZM27.45 8.37L27.45 8.37L27.45 13.00L26.19 13.00L26.19 8.42Q26.19 7.33 25.76 6.79Q25.34 6.25 24.49 6.25L24.49 6.25Q23.47 6.25 22.89 6.90Q22.30 7.55 22.30 8.67L22.30 8.67L22.30 13.00L21.03 13.00L21.03 5.34L22.30 5.34L22.30 6.53Q22.75 5.84 23.36 5.50Q23.97 5.15 24.77 5.15L24.77 5.15Q26.09 5.15 26.77 5.97Q27.45 6.79 27.45 8.37ZM29.61 5.58L29.61 2.72L33.09 2.72L33.09 3.37L30.42 3.37L30.42 4.76Q30.61 4.70 30.81 4.68L30.81 4.68Q31.00 4.65 31.19 4.65L31.19 4.65Q32.29 4.65 32.94 5.17L32.94 5.17Q33.58 5.69 33.58 6.59L33.58 6.59Q33.58 7.51 32.92 8.03L32.92 8.03Q32.26 8.53 31.06 8.53L31.06 8.53Q30.65 8.53 30.21 8.47Q29.78 8.41 29.33 8.29L29.33 8.29L29.33 7.51Q29.72 7.70 30.15 7.79L30.15 7.79Q30.57 7.88 31.04 7.88L31.04 7.88Q31.80 7.88 32.25 7.53Q32.69 7.18 32.69 6.59Q32.69 6.00 32.25 5.65Q31.80 5.30 31.04 5.30L31.04 5.30Q30.69 5.30 30.33 5.37Q29.98 5.43 29.61 5.58L29.61 5.58ZM37.83 5.34L37.83 5.34Q38.46 5.46 38.80 5.83Q39.15 6.21 39.15 6.77L39.15 6.77Q39.15 7.62 38.50 8.07Q37.85 8.53 36.64 8.53L36.64 8.53Q36.25 8.53 35.82 8.46Q35.40 8.39 34.92 8.25L34.92 8.25L34.92 7.42Q35.27 7.61 35.68 7.70Q36.09 7.79 36.54 7.79L36.54 7.79Q37.29 7.79 37.70 7.52Q38.11 7.25 38.11 6.77L38.11 6.77Q38.11 6.26 37.73 6.00Q37.35 5.74 36.61 5.74L36.61 5.74L36.03 5.74L36.03 5.00L36.67 5.00Q37.31 5.00 37.64 4.79Q37.97 4.57 37.97 4.16L37.97 4.16Q37.97 3.77 37.63 3.56Q37.29 3.35 36.64 3.35L36.64 3.35Q36.37 3.35 36.02 3.41Q35.67 3.47 35.12 3.63L35.12 3.63L35.12 2.84Q35.62 2.73 36.05 2.67Q36.49 2.60 36.87 2.60L36.87 2.60Q37.85 2.60 38.43 3.01Q39.01 3.41 39.01 4.09L39.01 4.09Q39.01 4.56 38.70 4.89Q38.39 5.22 37.83 5.34Z"></path></svg>