<svg height="16.296875" width="38.130859375" xmlns="http://www.w3.org/2000/svg" ><path d="M1.30 3.17L2.56 3.17L2.56 5.34L5.15 5.34L5.15 6.32L2.56 6.32L2.56 10.47Q2.56 11.41 2.82 11.68Q3.08 11.94 3.86 11.94L3.86 11.94L5.15 11.94L5.15 13.00L3.86 13.00Q2.41 13.00 1.85 12.45Q1.30 11.91 1.30 10.47L1.30 10.47L1.30 6.32L0.38 6.32L0.38 5.34L1.30 5.34L1.30 3.17ZM10.33 5.84L10.33 5.84L10.33 8.43L9.54 8.43L9.54 5.87Q9.54 5.26 9.27 4.95Q9.00 4.65 8.47 4.65L8.47 4.65Q7.83 4.65 7.46 5.01Q7.09 5.38 7.09 6.01L7.09 6.01L7.09 8.43L6.29 8.43L6.29 2.47L7.09 2.47L7.09 4.81Q7.37 4.42 7.76 4.23Q8.14 4.04 8.65 4.04L8.65 4.04Q9.47 4.04 9.90 4.50Q10.33 4.96 10.33 5.84ZM11.92 9.50L11.92 9.50L11.92 8.88L17.71 8.88Q17.62 7.58 16.92 6.90Q16.22 6.22 14.97 6.22L14.97 6.22Q14.25 6.22 13.57 6.40Q12.89 6.58 12.22 6.93L12.22 6.93L12.22 5.74Q12.89 5.46 13.60 5.30Q14.31 5.15 15.05 5.15L15.05 5.15Q16.88 5.15 17.95 6.22Q19.02 7.29 19.02 9.11L19.02 9.11Q19.02 10.99 18.00 12.09Q16.99 13.19 15.26 13.19L15.26 13.19Q13.72 13.19 12.82 12.20Q11.92 11.20 11.92 9.50ZM17.66 9.86L13.18 9.86Q13.19 10.90 13.76 11.51Q14.32 12.13 15.25 12.13L15.25 12.13Q16.30 12.13 16.94 11.53Q17.57 10.94 17.66 9.86L17.66 9.86ZM22.09 13.00L22.09 7.54L22.52 7.54Q23.83 7.54 24.42 6.76L24.42 6.76Q24.81 6.24 24.81 5.57L24.81 5.57Q24.81 4.66 24.42 4.22L24.42 4.22Q23.74 3.44 22.52 3.44L22.52 3.44Q21.97 3.44 21.43 3.59L21.43 3.59Q20.90 3.73 20.36 4.03L20.36 4.03L20.36 2.85Q20.88 2.61 21.44 2.50L21.44 2.50Q21.99 2.37 22.57 2.37L22.57 2.37Q24.45 2.37 25.40 3.45L25.40 3.45Q26.14 4.30 26.14 5.57L26.14 5.57Q26.14 6.73 25.40 7.52L25.40 7.52Q24.64 8.33 23.47 8.54L23.47 8.54L23.47 13.00L22.09 13.00ZM27.88 5.58L27.88 2.72L31.36 2.72L31.36 3.37L28.69 3.37L28.69 4.76Q28.88 4.70 29.08 4.68L29.08 4.68Q29.27 4.65 29.46 4.65L29.46 4.65Q30.56 4.65 31.21 5.17L31.21 5.17Q31.85 5.69 31.85 6.59L31.85 6.59Q31.85 7.51 31.19 8.03L31.19 8.03Q30.53 8.53 29.33 8.53L29.33 8.53Q28.92 8.53 28.49 8.47Q28.05 8.41 27.60 8.29L27.60 8.29L27.60 7.51Q27.99 7.70 28.42 7.79L28.42 7.79Q28.84 7.88 29.31 7.88L29.31 7.88Q30.07 7.88 30.52 7.53Q30.96 7.18 30.96 6.59Q30.96 6.00 30.52 5.65Q30.07 5.30 29.31 5.30L29.31 5.30Q28.96 5.30 28.60 5.37Q28.25 5.43 27.88 5.58L27.88 5.58ZM33.49 5.58L33.49 2.72L36.98 2.72L36.98 3.37L34.30 3.37L34.30 4.76Q34.49 4.70 34.69 4.68L34.69 4.68Q34.88 4.65 35.08 4.65L35.08 4.65Q36.18 4.65 36.82 5.17L36.82 5.17Q37.46 5.69 37.46 6.59L37.46 6.59Q37.46 7.51 36.80 8.03L36.80 8.03Q36.14 8.53 34.94 8.53L34.94 8.53Q34.53 8.53 34.10 8.47Q33.67 8.41 33.22 8.29L33.22 8.29L33.22 7.51Q33.61 7.70 34.03 7.79L34.03 7.79Q34.45 7.88 34.92 7.88L34.92 7.88Q35.68 7.88 36.13 7.53Q36.57 7.18 36.57 6.59Q36.57 6.00 36.13 5.65Q35.68 5.30 34.92 5.30L34.92 5.30Q34.57 5.30 34.21 5.37Q33.86 5.43 33.49 5.58L33.49 5.58Z"></path></svg>