<svg height="16.296875" width="36.326171875" xmlns="http://www.w3.org/2000/svg" ><path d="M1.30 3.17L2.56 3.17L2.56 5.34L5.15 5.34L5.15 6.32L2.56 6.32L2.56 10.47Q2.56 11.41 2.82 11.68Q3.08 11.94 3.86 11.94L3.86 11.94L5.15 11.94L5.15 13.00L3.86 13.00Q2.41 13.00 1.85 12.45Q1.30 11.91 1.30 10.47L1.30 10.47L1.30 6.32L0.38 6.32L0.38 5.34L1.30 5.34L1.30 3.17ZM10.33 5.84L10.33 5.84L10.33 8.43L9.54 8.43L9.54 5.87Q9.54 5.26 9.27 4.95Q9.00 4.65 8.47 4.65L8.47 4.65Q7.83 4.65 7.46 5.01Q7.09 5.38 7.09 6.01L7.09 6.01L7.09 8.43L6.29 8.43L6.29 2.47L7.09 2.47L7.09 4.81Q7.37 4.42 7.76 4.23Q8.14 4.04 8.65 4.04L8.65 4.04Q9.47 4.04 9.90 4.50Q10.33 4.96 10.33 5.84ZM13.29 5.34L15.32 8.07L17.35 5.34L18.83 5.34L16.11 8.99Q16.60 9.66 16.90 10.18L16.90 10.18Q17.37 11.00 17.37 11.42L17.37 11.42Q17.37 12.31 16.86 12.75Q16.34 13.19 15.32 13.19L15.32 13.19Q14.29 13.19 13.78 12.75Q13.27 12.31 13.27 11.42L13.27 11.42Q13.27 11.00 13.74 10.18L13.74 10.18Q14.04 9.66 14.53 8.99L14.53 8.99L11.81 5.34L13.29 5.34ZM15.32 12.13L15.32 12.13Q15.78 12.13 15.99 11.94L15.99 11.94Q16.18 11.78 16.18 11.47L16.18 11.47Q16.18 11.25 15.91 10.81L15.91 10.81Q15.70 10.47 15.32 9.99L15.32 9.99Q14.94 10.47 14.72 10.81L14.72 10.81Q14.46 11.25 14.46 11.47L14.46 11.47Q14.46 11.78 14.65 11.94L14.65 11.94Q14.86 12.13 15.32 12.13ZM23.07 5.34L23.07 5.34Q23.70 5.46 24.05 5.83Q24.39 6.21 24.39 6.77L24.39 6.77Q24.39 7.62 23.74 8.07Q23.09 8.53 21.88 8.53L21.88 8.53Q21.49 8.53 21.06 8.46Q20.64 8.39 20.16 8.25L20.16 8.25L20.16 7.42Q20.51 7.61 20.92 7.70Q21.33 7.79 21.79 7.79L21.79 7.79Q22.53 7.79 22.94 7.52Q23.35 7.25 23.35 6.77L23.35 6.77Q23.35 6.26 22.97 6.00Q22.59 5.74 21.85 5.74L21.85 5.74L21.27 5.74L21.27 5.00L21.91 5.00Q22.55 5.00 22.88 4.79Q23.21 4.57 23.21 4.16L23.21 4.16Q23.21 3.77 22.87 3.56Q22.53 3.35 21.88 3.35L21.88 3.35Q21.61 3.35 21.26 3.41Q20.91 3.47 20.36 3.63L20.36 3.63L20.36 2.84Q20.86 2.73 21.29 2.67Q21.73 2.60 22.11 2.60L22.11 2.60Q23.09 2.60 23.67 3.01Q24.25 3.41 24.25 4.09L24.25 4.09Q24.25 4.56 23.94 4.89Q23.63 5.22 23.07 5.34ZM28.68 5.34L28.68 5.34Q29.31 5.46 29.66 5.83Q30.00 6.21 30.00 6.77L30.00 6.77Q30.00 7.62 29.35 8.07Q28.70 8.53 27.49 8.53L27.49 8.53Q27.10 8.53 26.68 8.46Q26.25 8.39 25.77 8.25L25.77 8.25L25.77 7.42Q26.13 7.61 26.53 7.70Q26.94 7.79 27.40 7.79L27.40 7.79Q28.14 7.79 28.55 7.52Q28.96 7.25 28.96 6.77L28.96 6.77Q28.96 6.26 28.58 6.00Q28.21 5.74 27.47 5.74L27.47 5.74L26.88 5.74L26.88 5.00L27.52 5.00Q28.16 5.00 28.50 4.79Q28.83 4.57 28.83 4.16L28.83 4.16Q28.83 3.77 28.49 3.56Q28.14 3.35 27.49 3.35L27.49 3.35Q27.22 3.35 26.87 3.41Q26.52 3.47 25.97 3.63L25.97 3.63L25.97 2.84Q26.47 2.73 26.91 2.67Q27.34 2.60 27.72 2.60L27.72 2.60Q28.70 2.60 29.28 3.01Q29.86 3.41 29.86 4.09L29.86 4.09Q29.86 4.56 29.55 4.89Q29.24 5.22 28.68 5.34ZM33.97 6.41L33.97 3.55L31.86 6.41L33.97 6.41ZM31.14 6.33L33.82 2.72L34.96 2.72L34.96 6.41L35.88 6.41L35.88 7.16L34.96 7.16L34.96 8.43L33.97 8.43L33.97 7.16L31.14 7.16L31.14 6.33Z"></path></svg>