<svg height="16.296875" width="26.263671875" xmlns="http://www.w3.org/2000/svg" ><path d="M1.30 3.17L2.56 3.17L2.56 5.34L5.15 5.34L5.15 6.32L2.56 6.32L2.56 10.47Q2.56 11.41 2.82 11.68Q3.08 11.94 3.86 11.94L3.86 11.94L5.15 11.94L5.15 13.00L3.86 13.00Q2.41 13.00 1.85 12.45Q1.30 11.91 1.30 10.47L1.30 10.47L1.30 6.32L0.38 6.32L0.38 5.34L1.30 5.34L1.30 3.17ZM10.33 5.84L10.33 5.84L10.33 8.43L9.54 8.43L9.54 5.87Q9.54 5.26 9.27 4.95Q9.00 4.65 8.47 4.65L8.47 4.65Q7.83 4.65 7.46 5.01Q7.09 5.38 7.09 6.01L7.09 6.01L7.09 8.43L6.29 8.43L6.29 2.47L7.09 2.47L7.09 4.81Q7.37 4.42 7.76 4.23Q8.14 4.04 8.65 4.04L8.65 4.04Q9.47 4.04 9.90 4.50Q10.33 4.96 10.33 5.84ZM12.47 13.00L12.47 5.34L13.73 5.34L13.73 13.00L12.47 13.00ZM12.47 3.95L12.47 2.36L13.73 2.36L13.73 3.95L12.47 3.95ZM16.01 5.58L16.01 2.72L19.50 2.72L19.50 3.37L16.82 3.37L16.82 4.76Q17.01 4.70 17.21 4.68L17.21 4.68Q17.40 4.65 17.60 4.65L17.60 4.65Q18.70 4.65 19.34 5.17L19.34 5.17Q19.98 5.69 19.98 6.59L19.98 6.59Q19.98 7.51 19.32 8.03L19.32 8.03Q18.66 8.53 17.46 8.53L17.46 8.53Q17.05 8.53 16.62 8.47Q16.19 8.41 15.74 8.29L15.74 8.29L15.74 7.51Q16.13 7.70 16.55 7.79L16.55 7.79Q16.97 7.88 17.45 7.88L17.45 7.88Q18.20 7.88 18.65 7.53Q19.09 7.18 19.09 6.59Q19.09 6.00 18.65 5.65Q18.20 5.30 17.45 5.30L17.45 5.30Q17.09 5.30 16.73 5.37Q16.38 5.43 16.01 5.58L16.01 5.58ZM24.23 5.34L24.23 5.34Q24.86 5.46 25.21 5.83Q25.55 6.21 25.55 6.77L25.55 6.77Q25.55 7.62 24.90 8.07Q24.25 8.53 23.04 8.53L23.04 8.53Q22.65 8.53 22.23 8.46Q21.80 8.39 21.32 8.25L21.32 8.25L21.32 7.42Q21.68 7.61 22.08 7.70Q22.49 7.79 22.95 7.79L22.95 7.79Q23.69 7.79 24.10 7.52Q24.51 7.25 24.51 6.77L24.51 6.77Q24.51 6.26 24.13 6.00Q23.75 5.74 23.02 5.74L23.02 5.74L22.43 5.74L22.43 5.00L23.07 5.00Q23.71 5.00 24.05 4.79Q24.38 4.57 24.38 4.16L24.38 4.16Q24.38 3.77 24.04 3.56Q23.69 3.35 23.04 3.35L23.04 3.35Q22.77 3.35 22.42 3.41Q22.07 3.47 21.52 3.63L21.52 3.63L21.52 2.84Q22.02 2.73 22.46 2.67Q22.89 2.60 23.27 2.60L23.27 2.60Q24.25 2.60 24.83 3.01Q25.41 3.41 25.41 4.09L25.41 4.09Q25.41 4.56 25.10 4.89Q24.79 5.22 24.23 5.34Z"></path></svg>