<svg height="16.296875" width="31.8759765625" xmlns="http://www.w3.org/2000/svg" ><path d="M1.30 3.17L2.56 3.17L2.56 5.34L5.15 5.34L5.15 6.32L2.56 6.32L2.56 10.47Q2.56 11.41 2.82 11.68Q3.08 11.94 3.86 11.94L3.86 11.94L5.15 11.94L5.15 13.00L3.86 13.00Q2.41 13.00 1.85 12.45Q1.30 11.91 1.30 10.47L1.30 10.47L1.30 6.32L0.38 6.32L0.38 5.34L1.30 5.34L1.30 3.17ZM10.33 5.84L10.33 5.84L10.33 8.43L9.54 8.43L9.54 5.87Q9.54 5.26 9.27 4.95Q9.00 4.65 8.47 4.65L8.47 4.65Q7.83 4.65 7.46 5.01Q7.09 5.38 7.09 6.01L7.09 6.01L7.09 8.43L6.29 8.43L6.29 2.47L7.09 2.47L7.09 4.81Q7.37 4.42 7.76 4.23Q8.14 4.04 8.65 4.04L8.65 4.04Q9.47 4.04 9.90 4.50Q10.33 4.96 10.33 5.84ZM12.47 13.00L12.47 5.34L13.73 5.34L13.73 13.00L12.47 13.00ZM12.47 3.95L12.47 2.36L13.73 2.36L13.73 3.95L12.47 3.95ZM18.62 5.34L18.62 5.34Q19.25 5.46 19.60 5.83Q19.94 6.21 19.94 6.77L19.94 6.77Q19.94 7.62 19.29 8.07Q18.64 8.53 17.43 8.53L17.43 8.53Q17.04 8.53 16.61 8.46Q16.19 8.39 15.71 8.25L15.71 8.25L15.71 7.42Q16.06 7.61 16.47 7.70Q16.88 7.79 17.34 7.79L17.34 7.79Q18.08 7.79 18.49 7.52Q18.90 7.25 18.90 6.77L18.90 6.77Q18.90 6.26 18.52 6.00Q18.14 5.74 17.40 5.74L17.40 5.74L16.82 5.74L16.82 5.00L17.46 5.00Q18.10 5.00 18.43 4.79Q18.76 4.57 18.76 4.16L18.76 4.16Q18.76 3.77 18.42 3.56Q18.08 3.35 17.43 3.35L17.43 3.35Q17.16 3.35 16.81 3.41Q16.46 3.47 15.91 3.63L15.91 3.63L15.91 2.84Q16.41 2.73 16.84 2.67Q17.28 2.60 17.66 2.60L17.66 2.60Q18.64 2.60 19.22 3.01Q19.80 3.41 19.80 4.09L19.80 4.09Q19.80 4.56 19.49 4.89Q19.18 5.22 18.62 5.34ZM24.23 5.34L24.23 5.34Q24.86 5.46 25.21 5.83Q25.55 6.21 25.55 6.77L25.55 6.77Q25.55 7.62 24.90 8.07Q24.25 8.53 23.04 8.53L23.04 8.53Q22.65 8.53 22.23 8.46Q21.80 8.39 21.32 8.25L21.32 8.25L21.32 7.42Q21.68 7.61 22.08 7.70Q22.49 7.79 22.95 7.79L22.95 7.79Q23.69 7.79 24.10 7.52Q24.51 7.25 24.51 6.77L24.51 6.77Q24.51 6.26 24.13 6.00Q23.75 5.74 23.02 5.74L23.02 5.74L22.43 5.74L22.43 5.00L23.07 5.00Q23.71 5.00 24.05 4.79Q24.38 4.57 24.38 4.16L24.38 4.16Q24.38 3.77 24.04 3.56Q23.69 3.35 23.04 3.35L23.04 3.35Q22.77 3.35 22.42 3.41Q22.07 3.47 21.52 3.63L21.52 3.63L21.52 2.84Q22.02 2.73 22.46 2.67Q22.89 2.60 23.27 2.60L23.27 2.60Q24.25 2.60 24.83 3.01Q25.41 3.41 25.41 4.09L25.41 4.09Q25.41 4.56 25.10 4.89Q24.79 5.22 24.23 5.34ZM29.52 6.41L29.52 3.55L27.41 6.41L29.52 6.41ZM26.69 6.33L29.37 2.72L30.51 2.72L30.51 6.41L31.43 6.41L31.43 7.16L30.51 7.16L30.51 8.43L29.52 8.43L29.52 7.16L26.69 7.16L26.69 6.33Z"></path></svg>