<svg height="16.296875" width="33.9541015625" xmlns="http://www.w3.org/2000/svg" ><path d="M1.30 3.17L2.56 3.17L2.56 5.34L5.15 5.34L5.15 6.32L2.56 6.32L2.56 10.47Q2.56 11.41 2.82 11.68Q3.08 11.94 3.86 11.94L3.86 11.94L5.15 11.94L5.15 13.00L3.86 13.00Q2.41 13.00 1.85 12.45Q1.30 11.91 1.30 10.47L1.30 10.47L1.30 6.32L0.38 6.32L0.38 5.34L1.30 5.34L1.30 3.17ZM10.33 5.84L10.33 5.84L10.33 8.43L9.54 8.43L9.54 5.87Q9.54 5.26 9.27 4.95Q9.00 4.65 8.47 4.65L8.47 4.65Q7.83 4.65 7.46 5.01Q7.09 5.38 7.09 6.01L7.09 6.01L7.09 8.43L6.29 8.43L6.29 2.47L7.09 2.47L7.09 4.81Q7.37 4.42 7.76 4.23Q8.14 4.04 8.65 4.04L8.65 4.04Q9.47 4.04 9.90 4.50Q10.33 4.96 10.33 5.84ZM12.47 13.00L12.47 5.34L13.73 5.34L13.73 13.00L12.47 13.00ZM12.47 3.95L12.47 2.36L13.73 2.36L13.73 3.95L12.47 3.95ZM15.91 6.81L15.91 5.65Q16.43 5.40 17.00 5.28Q17.56 5.15 18.20 5.15L18.20 5.15Q19.93 5.15 20.95 6.24Q21.96 7.33 21.96 9.17L21.96 9.17Q21.96 11.05 20.94 12.12Q19.91 13.19 18.12 13.19L18.12 13.19Q17.53 13.19 16.98 13.07Q16.43 12.95 15.91 12.71L15.91 12.71L15.91 11.54Q16.44 11.83 16.98 11.98Q17.51 12.13 18.06 12.13L18.06 12.13Q19.28 12.13 19.96 11.35Q20.64 10.58 20.64 9.17L20.64 9.17Q20.64 7.77 19.96 7.00Q19.28 6.22 18.06 6.22L18.06 6.22Q17.51 6.22 16.98 6.37Q16.44 6.51 15.91 6.81L15.91 6.81ZM23.70 5.58L23.70 2.72L27.19 2.72L27.19 3.37L24.51 3.37L24.51 4.76Q24.71 4.70 24.90 4.68L24.90 4.68Q25.09 4.65 25.29 4.65L25.29 4.65Q26.39 4.65 27.03 5.17L27.03 5.17Q27.67 5.69 27.67 6.59L27.67 6.59Q27.67 7.51 27.01 8.03L27.01 8.03Q26.35 8.53 25.15 8.53L25.15 8.53Q24.74 8.53 24.31 8.47Q23.88 8.41 23.43 8.29L23.43 8.29L23.43 7.51Q23.82 7.70 24.24 7.79L24.24 7.79Q24.66 7.88 25.14 7.88L25.14 7.88Q25.89 7.88 26.34 7.53Q26.78 7.18 26.78 6.59Q26.78 6.00 26.34 5.65Q25.89 5.30 25.14 5.30L25.14 5.30Q24.78 5.30 24.42 5.37Q24.07 5.43 23.70 5.58L23.70 5.58ZM31.92 5.34L31.92 5.34Q32.55 5.46 32.90 5.83Q33.24 6.21 33.24 6.77L33.24 6.77Q33.24 7.62 32.59 8.07Q31.94 8.53 30.73 8.53L30.73 8.53Q30.34 8.53 29.92 8.46Q29.49 8.39 29.01 8.25L29.01 8.25L29.01 7.42Q29.37 7.61 29.77 7.70Q30.18 7.79 30.64 7.79L30.64 7.79Q31.38 7.79 31.79 7.52Q32.20 7.25 32.20 6.77L32.20 6.77Q32.20 6.26 31.82 6.00Q31.45 5.74 30.71 5.74L30.71 5.74L30.12 5.74L30.12 5.00L30.76 5.00Q31.40 5.00 31.74 4.79Q32.07 4.57 32.07 4.16L32.07 4.16Q32.07 3.77 31.73 3.56Q31.38 3.35 30.73 3.35L30.73 3.35Q30.46 3.35 30.11 3.41Q29.76 3.47 29.21 3.63L29.21 3.63L29.21 2.84Q29.71 2.73 30.15 2.67Q30.58 2.60 30.96 2.60L30.96 2.60Q31.94 2.60 32.52 3.01Q33.10 3.41 33.10 4.09L33.10 4.09Q33.10 4.56 32.79 4.89Q32.48 5.22 31.92 5.34Z"></path></svg>