<svg height="16.296875" width="39.56640625" xmlns="http://www.w3.org/2000/svg" ><path d="M1.30 3.17L2.56 3.17L2.56 5.34L5.15 5.34L5.15 6.32L2.56 6.32L2.56 10.47Q2.56 11.41 2.82 11.68Q3.08 11.94 3.86 11.94L3.86 11.94L5.15 11.94L5.15 13.00L3.86 13.00Q2.41 13.00 1.85 12.45Q1.30 11.91 1.30 10.47L1.30 10.47L1.30 6.32L0.38 6.32L0.38 5.34L1.30 5.34L1.30 3.17ZM10.33 5.84L10.33 5.84L10.33 8.43L9.54 8.43L9.54 5.87Q9.54 5.26 9.27 4.95Q9.00 4.65 8.47 4.65L8.47 4.65Q7.83 4.65 7.46 5.01Q7.09 5.38 7.09 6.01L7.09 6.01L7.09 8.43L6.29 8.43L6.29 2.47L7.09 2.47L7.09 4.81Q7.37 4.42 7.76 4.23Q8.14 4.04 8.65 4.04L8.65 4.04Q9.47 4.04 9.90 4.50Q10.33 4.96 10.33 5.84ZM12.47 13.00L12.47 5.34L13.73 5.34L13.73 13.00L12.47 13.00ZM12.47 3.95L12.47 2.36L13.73 2.36L13.73 3.95L12.47 3.95ZM15.91 6.81L15.91 5.65Q16.43 5.40 17.00 5.28Q17.56 5.15 18.20 5.15L18.20 5.15Q19.93 5.15 20.95 6.24Q21.96 7.33 21.96 9.17L21.96 9.17Q21.96 11.05 20.94 12.12Q19.91 13.19 18.12 13.19L18.12 13.19Q17.53 13.19 16.98 13.07Q16.43 12.95 15.91 12.71L15.91 12.71L15.91 11.54Q16.44 11.83 16.98 11.98Q17.51 12.13 18.06 12.13L18.06 12.13Q19.28 12.13 19.96 11.35Q20.64 10.58 20.64 9.17L20.64 9.17Q20.64 7.77 19.96 7.00Q19.28 6.22 18.06 6.22L18.06 6.22Q17.51 6.22 16.98 6.37Q16.44 6.51 15.91 6.81L15.91 6.81ZM26.31 5.34L26.31 5.34Q26.94 5.46 27.29 5.83Q27.63 6.21 27.63 6.77L27.63 6.77Q27.63 7.62 26.98 8.07Q26.33 8.53 25.12 8.53L25.12 8.53Q24.73 8.53 24.31 8.46Q23.88 8.39 23.40 8.25L23.40 8.25L23.40 7.42Q23.75 7.61 24.16 7.70Q24.57 7.79 25.03 7.79L25.03 7.79Q25.77 7.79 26.18 7.52Q26.59 7.25 26.59 6.77L26.59 6.77Q26.59 6.26 26.21 6.00Q25.83 5.74 25.09 5.74L25.09 5.74L24.51 5.74L24.51 5.00L25.15 5.00Q25.79 5.00 26.12 4.79Q26.46 4.57 26.46 4.16L26.46 4.16Q26.46 3.77 26.11 3.56Q25.77 3.35 25.12 3.35L25.12 3.35Q24.85 3.35 24.50 3.41Q24.15 3.47 23.60 3.63L23.60 3.63L23.60 2.84Q24.10 2.73 24.53 2.67Q24.97 2.60 25.35 2.60L25.35 2.60Q26.33 2.60 26.91 3.01Q27.49 3.41 27.49 4.09L27.49 4.09Q27.49 4.56 27.18 4.89Q26.87 5.22 26.31 5.34ZM31.92 5.34L31.92 5.34Q32.55 5.46 32.90 5.83Q33.24 6.21 33.24 6.77L33.24 6.77Q33.24 7.62 32.59 8.07Q31.94 8.53 30.73 8.53L30.73 8.53Q30.34 8.53 29.92 8.46Q29.49 8.39 29.01 8.25L29.01 8.25L29.01 7.42Q29.37 7.61 29.77 7.70Q30.18 7.79 30.64 7.79L30.64 7.79Q31.38 7.79 31.79 7.52Q32.20 7.25 32.20 6.77L32.20 6.77Q32.20 6.26 31.82 6.00Q31.45 5.74 30.71 5.74L30.71 5.74L30.12 5.74L30.12 5.00L30.76 5.00Q31.40 5.00 31.74 4.79Q32.07 4.57 32.07 4.16L32.07 4.16Q32.07 3.77 31.73 3.56Q31.38 3.35 30.73 3.35L30.73 3.35Q30.46 3.35 30.11 3.41Q29.76 3.47 29.21 3.63L29.21 3.63L29.21 2.84Q29.71 2.73 30.15 2.67Q30.58 2.60 30.96 2.60L30.96 2.60Q31.94 2.60 32.52 3.01Q33.10 3.41 33.10 4.09L33.10 4.09Q33.10 4.56 32.79 4.89Q32.48 5.22 31.92 5.34ZM37.21 6.41L37.21 3.55L35.10 6.41L37.21 6.41ZM34.38 6.33L37.06 2.72L38.20 2.72L38.20 6.41L39.12 6.41L39.12 7.16L38.20 7.16L38.20 8.43L37.21 8.43L37.21 7.16L34.38 7.16L34.38 6.33Z"></path></svg>