<svg height="16.296875" width="40.7490234375" xmlns="http://www.w3.org/2000/svg" ><path d="M1.30 3.17L2.56 3.17L2.56 5.34L5.15 5.34L5.15 6.32L2.56 6.32L2.56 10.47Q2.56 11.41 2.82 11.68Q3.08 11.94 3.86 11.94L3.86 11.94L5.15 11.94L5.15 13.00L3.86 13.00Q2.41 13.00 1.85 12.45Q1.30 11.91 1.30 10.47L1.30 10.47L1.30 6.32L0.38 6.32L0.38 5.34L1.30 5.34L1.30 3.17ZM10.33 5.84L10.33 5.84L10.33 8.43L9.54 8.43L9.54 5.87Q9.54 5.26 9.27 4.95Q9.00 4.65 8.47 4.65L8.47 4.65Q7.83 4.65 7.46 5.01Q7.09 5.38 7.09 6.01L7.09 6.01L7.09 8.43L6.29 8.43L6.29 2.47L7.09 2.47L7.09 4.81Q7.37 4.42 7.76 4.23Q8.14 4.04 8.65 4.04L8.65 4.04Q9.47 4.04 9.90 4.50Q10.33 4.96 10.33 5.84ZM12.47 13.00L12.47 5.34L13.73 5.34L13.73 13.00L12.47 13.00ZM12.47 3.95L12.47 2.36L13.73 2.36L13.73 3.95L12.47 3.95ZM22.72 8.37L22.72 8.37L22.72 13.00L21.46 13.00L21.46 8.42Q21.46 7.33 21.04 6.79Q20.62 6.25 19.77 6.25L19.77 6.25Q18.75 6.25 18.16 6.90Q17.58 7.55 17.58 8.67L17.58 8.67L17.58 13.00L16.31 13.00L16.31 5.34L17.58 5.34L17.58 6.53Q18.03 5.84 18.64 5.50Q19.25 5.15 20.05 5.15L20.05 5.15Q21.37 5.15 22.05 5.97Q22.72 6.79 22.72 8.37ZM27.49 5.34L27.49 5.34Q28.12 5.46 28.47 5.83Q28.81 6.21 28.81 6.77L28.81 6.77Q28.81 7.62 28.16 8.07Q27.51 8.53 26.30 8.53L26.30 8.53Q25.92 8.53 25.49 8.46Q25.06 8.39 24.58 8.25L24.58 8.25L24.58 7.42Q24.94 7.61 25.34 7.70Q25.75 7.79 26.21 7.79L26.21 7.79Q26.95 7.79 27.36 7.52Q27.77 7.25 27.77 6.77L27.77 6.77Q27.77 6.26 27.40 6.00Q27.02 5.74 26.28 5.74L26.28 5.74L25.69 5.74L25.69 5.00L26.33 5.00Q26.97 5.00 27.31 4.79Q27.64 4.57 27.64 4.16L27.64 4.16Q27.64 3.77 27.30 3.56Q26.95 3.35 26.30 3.35L26.30 3.35Q26.03 3.35 25.68 3.41Q25.33 3.47 24.78 3.63L24.78 3.63L24.78 2.84Q25.28 2.73 25.72 2.67Q26.15 2.60 26.53 2.60L26.53 2.60Q27.51 2.60 28.09 3.01Q28.67 3.41 28.67 4.09L28.67 4.09Q28.67 4.56 28.36 4.89Q28.05 5.22 27.49 5.34ZM33.11 5.34L33.11 5.34Q33.74 5.46 34.08 5.83Q34.43 6.21 34.43 6.77L34.43 6.77Q34.43 7.62 33.78 8.07Q33.13 8.53 31.92 8.53L31.92 8.53Q31.53 8.53 31.10 8.46Q30.67 8.39 30.19 8.25L30.19 8.25L30.19 7.42Q30.55 7.61 30.96 7.70Q31.36 7.79 31.82 7.79L31.82 7.79Q32.57 7.79 32.98 7.52Q33.39 7.25 33.39 6.77L33.39 6.77Q33.39 6.26 33.01 6.00Q32.63 5.74 31.89 5.74L31.89 5.74L31.30 5.74L31.30 5.00L31.94 5.00Q32.59 5.00 32.92 4.79Q33.25 4.57 33.25 4.16L33.25 4.16Q33.25 3.77 32.91 3.56Q32.57 3.35 31.92 3.35L31.92 3.35Q31.64 3.35 31.29 3.41Q30.95 3.47 30.39 3.63L30.39 3.63L30.39 2.84Q30.89 2.73 31.33 2.67Q31.77 2.60 32.14 2.60L32.14 2.60Q33.13 2.60 33.70 3.01Q34.28 3.41 34.28 4.09L34.28 4.09Q34.28 4.56 33.97 4.89Q33.67 5.22 33.11 5.34ZM38.40 6.41L38.40 3.55L36.29 6.41L38.40 6.41ZM35.57 6.33L38.25 2.72L39.38 2.72L39.38 6.41L40.30 6.41L40.30 7.16L39.38 7.16L39.38 8.43L38.40 8.43L38.40 7.16L35.57 7.16L35.57 6.33Z"></path></svg>