<svg height="16.296875" width="35.13671875" xmlns="http://www.w3.org/2000/svg" ><path d="M1.30 3.17L2.56 3.17L2.56 5.34L5.15 5.34L5.15 6.32L2.56 6.32L2.56 10.47Q2.56 11.41 2.82 11.68Q3.08 11.94 3.86 11.94L3.86 11.94L5.15 11.94L5.15 13.00L3.86 13.00Q2.41 13.00 1.85 12.45Q1.30 11.91 1.30 10.47L1.30 10.47L1.30 6.32L0.38 6.32L0.38 5.34L1.30 5.34L1.30 3.17ZM10.33 5.84L10.33 5.84L10.33 8.43L9.54 8.43L9.54 5.87Q9.54 5.26 9.27 4.95Q9.00 4.65 8.47 4.65L8.47 4.65Q7.83 4.65 7.46 5.01Q7.09 5.38 7.09 6.01L7.09 6.01L7.09 8.43L6.29 8.43L6.29 2.47L7.09 2.47L7.09 4.81Q7.37 4.42 7.76 4.23Q8.14 4.04 8.65 4.04L8.65 4.04Q9.47 4.04 9.90 4.50Q10.33 4.96 10.33 5.84ZM12.47 13.00L12.47 5.34L13.73 5.34L13.73 13.00L12.47 13.00ZM12.47 3.95L12.47 2.36L13.73 2.36L13.73 3.95L12.47 3.95ZM22.72 8.37L22.72 8.37L22.72 13.00L21.46 13.00L21.46 8.42Q21.46 7.33 21.04 6.79Q20.62 6.25 19.77 6.25L19.77 6.25Q18.75 6.25 18.16 6.90Q17.58 7.55 17.58 8.67L17.58 8.67L17.58 13.00L16.31 13.00L16.31 5.34L17.58 5.34L17.58 6.53Q18.03 5.84 18.64 5.50Q19.25 5.15 20.05 5.15L20.05 5.15Q21.37 5.15 22.05 5.97Q22.72 6.79 22.72 8.37ZM24.88 5.58L24.88 2.72L28.37 2.72L28.37 3.37L25.70 3.37L25.70 4.76Q25.89 4.70 26.09 4.68L26.09 4.68Q26.28 4.65 26.47 4.65L26.47 4.65Q27.57 4.65 28.21 5.17L28.21 5.17Q28.85 5.69 28.85 6.59L28.85 6.59Q28.85 7.51 28.19 8.03L28.19 8.03Q27.54 8.53 26.33 8.53L26.33 8.53Q25.92 8.53 25.49 8.47Q25.06 8.41 24.61 8.29L24.61 8.29L24.61 7.51Q25.00 7.70 25.42 7.79L25.42 7.79Q25.85 7.88 26.32 7.88L26.32 7.88Q27.08 7.88 27.52 7.53Q27.97 7.18 27.97 6.59Q27.97 6.00 27.52 5.65Q27.08 5.30 26.32 5.30L26.32 5.30Q25.96 5.30 25.61 5.37Q25.25 5.43 24.88 5.58L24.88 5.58ZM33.11 5.34L33.11 5.34Q33.74 5.46 34.08 5.83Q34.43 6.21 34.43 6.77L34.43 6.77Q34.43 7.62 33.78 8.07Q33.13 8.53 31.92 8.53L31.92 8.53Q31.53 8.53 31.10 8.46Q30.67 8.39 30.19 8.25L30.19 8.25L30.19 7.42Q30.55 7.61 30.96 7.70Q31.36 7.79 31.82 7.79L31.82 7.79Q32.57 7.79 32.98 7.52Q33.39 7.25 33.39 6.77L33.39 6.77Q33.39 6.26 33.01 6.00Q32.63 5.74 31.89 5.74L31.89 5.74L31.30 5.74L31.30 5.00L31.94 5.00Q32.59 5.00 32.92 4.79Q33.25 4.57 33.25 4.16L33.25 4.16Q33.25 3.77 32.91 3.56Q32.57 3.35 31.92 3.35L31.92 3.35Q31.64 3.35 31.29 3.41Q30.95 3.47 30.39 3.63L30.39 3.63L30.39 2.84Q30.89 2.73 31.33 2.67Q31.77 2.60 32.14 2.60L32.14 2.60Q33.13 2.60 33.70 3.01Q34.28 3.41 34.28 4.09L34.28 4.09Q34.28 4.56 33.97 4.89Q33.67 5.22 33.11 5.34Z"></path></svg>