<svg height="16.296875" width="38.609375" xmlns="http://www.w3.org/2000/svg" ><path d="M1.30 3.17L2.56 3.17L2.56 5.34L5.15 5.34L5.15 6.32L2.56 6.32L2.56 10.47Q2.56 11.41 2.82 11.68Q3.08 11.94 3.86 11.94L3.86 11.94L5.15 11.94L5.15 13.00L3.86 13.00Q2.41 13.00 1.85 12.45Q1.30 11.91 1.30 10.47L1.30 10.47L1.30 6.32L0.38 6.32L0.38 5.34L1.30 5.34L1.30 3.17ZM10.33 5.84L10.33 5.84L10.33 8.43L9.54 8.43L9.54 5.87Q9.54 5.26 9.27 4.95Q9.00 4.65 8.47 4.65L8.47 4.65Q7.83 4.65 7.46 5.01Q7.09 5.38 7.09 6.01L7.09 6.01L7.09 8.43L6.29 8.43L6.29 2.47L7.09 2.47L7.09 4.81Q7.37 4.42 7.76 4.23Q8.14 4.04 8.65 4.04L8.65 4.04Q9.47 4.04 9.90 4.50Q10.33 4.96 10.33 5.84ZM12.47 13.00L12.47 5.34L13.73 5.34L13.73 13.00L12.47 13.00ZM12.47 3.95L12.47 2.36L13.73 2.36L13.73 3.95L12.47 3.95ZM17.04 6.46L15.83 6.46L15.83 5.34L19.44 5.34L19.44 6.46L18.29 6.46L18.29 11.87L19.44 11.87L19.44 13.00L15.83 13.00L15.83 11.87L17.04 11.87L17.04 6.46ZM22.57 13.00L22.57 7.54L23.00 7.54Q24.31 7.54 24.90 6.76L24.90 6.76Q25.29 6.24 25.29 5.57L25.29 5.57Q25.29 4.66 24.90 4.22L24.90 4.22Q24.22 3.44 23.00 3.44L23.00 3.44Q22.45 3.44 21.91 3.59L21.91 3.59Q21.38 3.73 20.84 4.03L20.84 4.03L20.84 2.85Q21.36 2.61 21.92 2.50L21.92 2.50Q22.47 2.37 23.05 2.37L23.05 2.37Q24.93 2.37 25.87 3.45L25.87 3.45Q26.62 4.30 26.62 5.57L26.62 5.57Q26.62 6.73 25.88 7.52L25.88 7.52Q25.12 8.33 23.95 8.54L23.95 8.54L23.95 13.00L22.57 13.00ZM28.36 5.58L28.36 2.72L31.84 2.72L31.84 3.37L29.17 3.37L29.17 4.76Q29.36 4.70 29.56 4.68L29.56 4.68Q29.75 4.65 29.94 4.65L29.94 4.65Q31.04 4.65 31.68 5.17L31.68 5.17Q32.33 5.69 32.33 6.59L32.33 6.59Q32.33 7.51 31.66 8.03L31.66 8.03Q31.01 8.53 29.80 8.53L29.80 8.53Q29.39 8.53 28.96 8.47Q28.53 8.41 28.08 8.29L28.08 8.29L28.08 7.51Q28.47 7.70 28.90 7.79L28.90 7.79Q29.32 7.88 29.79 7.88L29.79 7.88Q30.55 7.88 30.99 7.53Q31.44 7.18 31.44 6.59Q31.44 6.00 30.99 5.65Q30.55 5.30 29.79 5.30L29.79 5.30Q29.44 5.30 29.08 5.37Q28.72 5.43 28.36 5.58L28.36 5.58ZM33.97 5.58L33.97 2.72L37.45 2.72L37.45 3.37L34.78 3.37L34.78 4.76Q34.97 4.70 35.17 4.68L35.17 4.68Q35.36 4.65 35.55 4.65L35.55 4.65Q36.65 4.65 37.30 5.17L37.30 5.17Q37.94 5.69 37.94 6.59L37.94 6.59Q37.94 7.51 37.28 8.03L37.28 8.03Q36.62 8.53 35.42 8.53L35.42 8.53Q35.01 8.53 34.58 8.47Q34.15 8.41 33.69 8.29L33.69 8.29L33.69 7.51Q34.08 7.70 34.51 7.79L34.51 7.79Q34.93 7.88 35.40 7.88L35.40 7.88Q36.16 7.88 36.61 7.53Q37.05 7.18 37.05 6.59Q37.05 6.00 36.61 5.65Q36.16 5.30 35.40 5.30L35.40 5.30Q35.05 5.30 34.69 5.37Q34.34 5.43 33.97 5.58L33.97 5.58Z"></path></svg>