<svg height="16.296875" width="36.5517578125" xmlns="http://www.w3.org/2000/svg" ><path d="M1.30 3.17L2.56 3.17L2.56 5.34L5.15 5.34L5.15 6.32L2.56 6.32L2.56 10.47Q2.56 11.41 2.82 11.68Q3.08 11.94 3.86 11.94L3.86 11.94L5.15 11.94L5.15 13.00L3.86 13.00Q2.41 13.00 1.85 12.45Q1.30 11.91 1.30 10.47L1.30 10.47L1.30 6.32L0.38 6.32L0.38 5.34L1.30 5.34L1.30 3.17ZM10.33 5.84L10.33 5.84L10.33 8.43L9.54 8.43L9.54 5.87Q9.54 5.26 9.27 4.95Q9.00 4.65 8.47 4.65L8.47 4.65Q7.83 4.65 7.46 5.01Q7.09 5.38 7.09 6.01L7.09 6.01L7.09 8.43L6.29 8.43L6.29 2.47L7.09 2.47L7.09 4.81Q7.37 4.42 7.76 4.23Q8.14 4.04 8.65 4.04L8.65 4.04Q9.47 4.04 9.90 4.50Q10.33 4.96 10.33 5.84ZM17.34 7.52L17.34 7.52L14.01 11.57Q14.29 11.85 14.64 11.99Q14.99 12.13 15.44 12.13L15.44 12.13Q16.44 12.13 17.03 11.33Q17.62 10.54 17.62 9.17L17.62 9.17Q17.62 8.63 17.55 8.23Q17.48 7.83 17.34 7.52ZM13.51 10.83L16.85 6.78Q16.56 6.50 16.21 6.36Q15.86 6.22 15.44 6.22L15.44 6.22Q14.40 6.22 13.83 7.02Q13.25 7.83 13.25 9.27L13.25 9.27Q13.25 9.76 13.31 10.14Q13.38 10.51 13.51 10.83L13.51 10.83ZM11.64 13.10L12.66 11.86Q12.29 11.33 12.11 10.66Q11.92 9.99 11.92 9.17L11.92 9.17Q11.92 7.29 12.85 6.22Q13.79 5.15 15.44 5.15L15.44 5.15Q16.07 5.15 16.61 5.33Q17.16 5.50 17.62 5.86L17.62 5.86L18.57 4.71L19.22 5.25L18.22 6.47Q18.58 7 18.76 7.68Q18.95 8.35 18.95 9.17L18.95 9.17Q18.95 11.05 18.01 12.12Q17.08 13.19 15.44 13.19L15.44 13.19Q14.78 13.19 14.23 13.02Q13.68 12.84 13.25 12.49L13.25 12.49L12.30 13.64L11.64 13.10ZM23.30 5.34L23.30 5.34Q23.93 5.46 24.27 5.83Q24.62 6.21 24.62 6.77L24.62 6.77Q24.62 7.62 23.97 8.07Q23.32 8.53 22.11 8.53L22.11 8.53Q21.72 8.53 21.29 8.46Q20.86 8.39 20.38 8.25L20.38 8.25L20.38 7.42Q20.74 7.61 21.15 7.70Q21.55 7.79 22.01 7.79L22.01 7.79Q22.76 7.79 23.17 7.52Q23.58 7.25 23.58 6.77L23.58 6.77Q23.58 6.26 23.20 6.00Q22.82 5.74 22.08 5.74L22.08 5.74L21.49 5.74L21.49 5.00L22.13 5.00Q22.78 5.00 23.11 4.79Q23.44 4.57 23.44 4.16L23.44 4.16Q23.44 3.77 23.10 3.56Q22.76 3.35 22.11 3.35L22.11 3.35Q21.83 3.35 21.49 3.41Q21.14 3.47 20.58 3.63L20.58 3.63L20.58 2.84Q21.08 2.73 21.52 2.67Q21.96 2.60 22.33 2.60L22.33 2.60Q23.32 2.60 23.90 3.01Q24.47 3.41 24.47 4.09L24.47 4.09Q24.47 4.56 24.17 4.89Q23.86 5.22 23.30 5.34ZM28.91 5.34L28.91 5.34Q29.54 5.46 29.88 5.83Q30.23 6.21 30.23 6.77L30.23 6.77Q30.23 7.62 29.58 8.07Q28.93 8.53 27.72 8.53L27.72 8.53Q27.33 8.53 26.90 8.46Q26.48 8.39 26.00 8.25L26.00 8.25L26.00 7.42Q26.35 7.61 26.76 7.70Q27.17 7.79 27.62 7.79L27.62 7.79Q28.37 7.79 28.78 7.52Q29.19 7.25 29.19 6.77L29.19 6.77Q29.19 6.26 28.81 6.00Q28.43 5.74 27.69 5.74L27.69 5.74L27.10 5.74L27.10 5.00L27.75 5.00Q28.39 5.00 28.72 4.79Q29.05 4.57 29.05 4.16L29.05 4.16Q29.05 3.77 28.71 3.56Q28.37 3.35 27.72 3.35L27.72 3.35Q27.45 3.35 27.10 3.41Q26.75 3.47 26.20 3.63L26.20 3.63L26.20 2.84Q26.69 2.73 27.13 2.67Q27.57 2.60 27.95 2.60L27.95 2.60Q28.93 2.60 29.51 3.01Q30.08 3.41 30.08 4.09L30.08 4.09Q30.08 4.56 29.78 4.89Q29.47 5.22 28.91 5.34ZM34.20 6.41L34.20 3.55L32.09 6.41L34.20 6.41ZM31.37 6.33L34.05 2.72L35.18 2.72L35.18 6.41L36.11 6.41L36.11 7.16L35.18 7.16L35.18 8.43L34.20 8.43L34.20 7.16L31.37 7.16L31.37 6.33Z"></path></svg>