<svg height="16.296875" width="45.4248046875" xmlns="http://www.w3.org/2000/svg" ><path d="M1.30 3.17L2.56 3.17L2.56 5.34L5.15 5.34L5.15 6.32L2.56 6.32L2.56 10.47Q2.56 11.41 2.82 11.68Q3.08 11.94 3.86 11.94L3.86 11.94L5.15 11.94L5.15 13.00L3.86 13.00Q2.41 13.00 1.85 12.45Q1.30 11.91 1.30 10.47L1.30 10.47L1.30 6.32L0.38 6.32L0.38 5.34L1.30 5.34L1.30 3.17ZM10.33 5.84L10.33 5.84L10.33 8.43L9.54 8.43L9.54 5.87Q9.54 5.26 9.27 4.95Q9.00 4.65 8.47 4.65L8.47 4.65Q7.83 4.65 7.46 5.01Q7.09 5.38 7.09 6.01L7.09 6.01L7.09 8.43L6.29 8.43L6.29 2.47L7.09 2.47L7.09 4.81Q7.37 4.42 7.76 4.23Q8.14 4.04 8.65 4.04L8.65 4.04Q9.47 4.04 9.90 4.50Q10.33 4.96 10.33 5.84ZM15.44 6.22L15.44 6.22Q14.42 6.22 13.84 7.01Q13.25 7.80 13.25 9.17L13.25 9.17Q13.25 10.55 13.83 11.34Q14.42 12.13 15.44 12.13L15.44 12.13Q16.44 12.13 17.03 11.33Q17.62 10.54 17.62 9.17L17.62 9.17Q17.62 7.81 17.03 7.02Q16.44 6.22 15.44 6.22ZM15.44 5.15L15.44 5.15Q17.08 5.15 18.01 6.22Q18.95 7.29 18.95 9.17L18.95 9.17Q18.95 11.05 18.01 12.12Q17.08 13.19 15.44 13.19L15.44 13.19Q13.79 13.19 12.85 12.12Q11.92 11.05 11.92 9.17L11.92 9.17Q11.92 7.29 12.85 6.22Q13.79 5.15 15.44 5.15ZM27.40 8.37L27.40 8.37L27.40 13.13Q27.40 14.59 26.84 15.25L26.84 15.25Q26.28 15.91 25.05 15.91L25.05 15.91L23.31 15.91L23.31 14.84L24.90 14.84Q25.62 14.84 25.88 14.51L25.88 14.51Q26.14 14.18 26.14 13.13L26.14 13.13L26.14 8.42Q26.14 7.33 25.72 6.79Q25.29 6.25 24.45 6.25L24.45 6.25Q23.43 6.25 22.84 6.90Q22.25 7.55 22.25 8.67L22.25 8.67L22.25 13.00L20.99 13.00L20.99 5.34L22.25 5.34L22.25 6.53Q22.70 5.84 23.31 5.50L23.31 5.50Q23.93 5.15 24.73 5.15L24.73 5.15Q26.04 5.15 26.72 5.97L26.72 5.97Q27.40 6.79 27.40 8.37ZM32.17 5.34L32.17 5.34Q32.80 5.46 33.14 5.83Q33.49 6.21 33.49 6.77L33.49 6.77Q33.49 7.62 32.84 8.07Q32.19 8.53 30.98 8.53L30.98 8.53Q30.59 8.53 30.16 8.46Q29.74 8.39 29.26 8.25L29.26 8.25L29.26 7.42Q29.61 7.61 30.02 7.70Q30.43 7.79 30.88 7.79L30.88 7.79Q31.63 7.79 32.04 7.52Q32.45 7.25 32.45 6.77L32.45 6.77Q32.45 6.26 32.07 6.00Q31.69 5.74 30.95 5.74L30.95 5.74L30.37 5.74L30.37 5.00L31.01 5.00Q31.65 5.00 31.98 4.79Q32.31 4.57 32.31 4.16L32.31 4.16Q32.31 3.77 31.97 3.56Q31.63 3.35 30.98 3.35L30.98 3.35Q30.71 3.35 30.36 3.41Q30.01 3.47 29.46 3.63L29.46 3.63L29.46 2.84Q29.96 2.73 30.39 2.67Q30.83 2.60 31.21 2.60L31.21 2.60Q32.19 2.60 32.77 3.01Q33.35 3.41 33.35 4.09L33.35 4.09Q33.35 4.56 33.04 4.89Q32.73 5.22 32.17 5.34ZM37.78 5.34L37.78 5.34Q38.41 5.46 38.76 5.83Q39.10 6.21 39.10 6.77L39.10 6.77Q39.10 7.62 38.45 8.07Q37.80 8.53 36.59 8.53L36.59 8.53Q36.20 8.53 35.78 8.46Q35.35 8.39 34.87 8.25L34.87 8.25L34.87 7.42Q35.23 7.61 35.63 7.70Q36.04 7.79 36.50 7.79L36.50 7.79Q37.24 7.79 37.65 7.52Q38.06 7.25 38.06 6.77L38.06 6.77Q38.06 6.26 37.68 6.00Q37.30 5.74 36.57 5.74L36.57 5.74L35.98 5.74L35.98 5.00L36.62 5.00Q37.26 5.00 37.59 4.79Q37.93 4.57 37.93 4.16L37.93 4.16Q37.93 3.77 37.58 3.56Q37.24 3.35 36.59 3.35L36.59 3.35Q36.32 3.35 35.97 3.41Q35.62 3.47 35.07 3.63L35.07 3.63L35.07 2.84Q35.57 2.73 36.00 2.67Q36.44 2.60 36.82 2.60L36.82 2.60Q37.80 2.60 38.38 3.01Q38.96 3.41 38.96 4.09L38.96 4.09Q38.96 4.56 38.65 4.89Q38.34 5.22 37.78 5.34ZM43.07 6.41L43.07 3.55L40.96 6.41L43.07 6.41ZM40.24 6.33L42.92 2.72L44.06 2.72L44.06 6.41L44.98 6.41L44.98 7.16L44.06 7.16L44.06 8.43L43.07 8.43L43.07 7.16L40.24 7.16L40.24 6.33Z"></path></svg>