<svg height="16.296875" width="38.0830078125" xmlns="http://www.w3.org/2000/svg" ><path d="M1.30 3.17L2.56 3.17L2.56 5.34L5.15 5.34L5.15 6.32L2.56 6.32L2.56 10.47Q2.56 11.41 2.82 11.68Q3.08 11.94 3.86 11.94L3.86 11.94L5.15 11.94L5.15 13.00L3.86 13.00Q2.41 13.00 1.85 12.45Q1.30 11.91 1.30 10.47L1.30 10.47L1.30 6.32L0.38 6.32L0.38 5.34L1.30 5.34L1.30 3.17ZM10.33 5.84L10.33 5.84L10.33 8.43L9.54 8.43L9.54 5.87Q9.54 5.26 9.27 4.95Q9.00 4.65 8.47 4.65L8.47 4.65Q7.83 4.65 7.46 5.01Q7.09 5.38 7.09 6.01L7.09 6.01L7.09 8.43L6.29 8.43L6.29 2.47L7.09 2.47L7.09 4.81Q7.37 4.42 7.76 4.23Q8.14 4.04 8.65 4.04L8.65 4.04Q9.47 4.04 9.90 4.50Q10.33 4.96 10.33 5.84ZM15.44 6.22L15.44 6.22Q14.42 6.22 13.84 7.01Q13.25 7.80 13.25 9.17L13.25 9.17Q13.25 10.55 13.83 11.34Q14.42 12.13 15.44 12.13L15.44 12.13Q16.44 12.13 17.03 11.33Q17.62 10.54 17.62 9.17L17.62 9.17Q17.62 7.81 17.03 7.02Q16.44 6.22 15.44 6.22ZM15.44 5.15L15.44 5.15Q17.08 5.15 18.01 6.22Q18.95 7.29 18.95 9.17L18.95 9.17Q18.95 11.05 18.01 12.12Q17.08 13.19 15.44 13.19L15.44 13.19Q13.79 13.19 12.85 12.12Q11.92 11.05 11.92 9.17L11.92 9.17Q11.92 7.29 12.85 6.22Q13.79 5.15 15.44 5.15ZM22.05 13.00L22.04 7.54L22.47 7.54Q23.78 7.54 24.37 6.76L24.37 6.76Q24.77 6.24 24.77 5.57L24.77 5.57Q24.76 4.66 24.37 4.22L24.37 4.22Q23.69 3.44 22.47 3.44L22.47 3.44Q21.92 3.44 21.38 3.59L21.38 3.59Q20.85 3.73 20.32 4.03L20.32 4.03L20.32 2.85Q20.84 2.61 21.39 2.50L21.39 2.50Q21.94 2.37 22.52 2.37L22.52 2.37Q24.40 2.37 25.35 3.45L25.35 3.45Q26.09 4.30 26.09 5.57L26.09 5.57Q26.09 6.73 25.35 7.52L25.35 7.52Q24.59 8.33 23.43 8.54L23.43 8.54L23.43 13.00L22.05 13.00ZM27.83 5.58L27.83 2.72L31.32 2.72L31.32 3.37L28.64 3.37L28.64 4.76Q28.83 4.70 29.03 4.68L29.03 4.68Q29.22 4.65 29.42 4.65L29.42 4.65Q30.52 4.65 31.16 5.17L31.16 5.17Q31.80 5.69 31.80 6.59L31.80 6.59Q31.80 7.51 31.14 8.03L31.14 8.03Q30.48 8.53 29.28 8.53L29.28 8.53Q28.87 8.53 28.44 8.47Q28.01 8.41 27.56 8.29L27.56 8.29L27.56 7.51Q27.95 7.70 28.37 7.79L28.37 7.79Q28.79 7.88 29.26 7.88L29.26 7.88Q30.02 7.88 30.47 7.53Q30.91 7.18 30.91 6.59Q30.91 6.00 30.47 5.65Q30.02 5.30 29.26 5.30L29.26 5.30Q28.91 5.30 28.55 5.37Q28.20 5.43 27.83 5.58L27.83 5.58ZM33.44 5.58L33.44 2.72L36.93 2.72L36.93 3.37L34.25 3.37L34.25 4.76Q34.45 4.70 34.64 4.68L34.64 4.68Q34.84 4.65 35.03 4.65L35.03 4.65Q36.13 4.65 36.77 5.17L36.77 5.17Q37.41 5.69 37.41 6.59L37.41 6.59Q37.41 7.51 36.75 8.03L36.75 8.03Q36.09 8.53 34.89 8.53L34.89 8.53Q34.48 8.53 34.05 8.47Q33.62 8.41 33.17 8.29L33.17 8.29L33.17 7.51Q33.56 7.70 33.98 7.79L33.98 7.79Q34.41 7.88 34.88 7.88L34.88 7.88Q35.64 7.88 36.08 7.53Q36.52 7.18 36.52 6.59Q36.52 6.00 36.08 5.65Q35.64 5.30 34.88 5.30L34.88 5.30Q34.52 5.30 34.17 5.37Q33.81 5.43 33.44 5.58L33.44 5.58Z"></path></svg>