<svg height="16.296875" width="36.859375" xmlns="http://www.w3.org/2000/svg" ><path d="M1.30 3.17L2.56 3.17L2.56 5.34L5.15 5.34L5.15 6.32L2.56 6.32L2.56 10.47Q2.56 11.41 2.82 11.68Q3.08 11.94 3.86 11.94L3.86 11.94L5.15 11.94L5.15 13.00L3.86 13.00Q2.41 13.00 1.85 12.45Q1.30 11.91 1.30 10.47L1.30 10.47L1.30 6.32L0.38 6.32L0.38 5.34L1.30 5.34L1.30 3.17ZM10.33 5.84L10.33 5.84L10.33 8.43L9.54 8.43L9.54 5.87Q9.54 5.26 9.27 4.95Q9.00 4.65 8.47 4.65L8.47 4.65Q7.83 4.65 7.46 5.01Q7.09 5.38 7.09 6.01L7.09 6.01L7.09 8.43L6.29 8.43L6.29 2.47L7.09 2.47L7.09 4.81Q7.37 4.42 7.76 4.23Q8.14 4.04 8.65 4.04L8.65 4.04Q9.47 4.04 9.90 4.50Q10.33 4.96 10.33 5.84ZM12.34 9.97L12.34 9.97L12.34 5.34L13.60 5.34L13.60 9.93Q13.60 11.01 14.02 11.56Q14.44 12.10 15.29 12.10L15.29 12.10Q16.31 12.10 16.90 11.45Q17.49 10.80 17.49 9.68L17.49 9.68L17.49 5.34L18.75 5.34L18.75 13.00L17.49 13.00L17.49 11.82Q17.04 12.52 16.43 12.85Q15.83 13.19 15.03 13.19L15.03 13.19Q13.71 13.19 13.02 12.37Q12.34 11.55 12.34 9.97ZM15.50 5.15L15.50 5.15ZM23.60 5.34L23.60 5.34Q24.23 5.46 24.58 5.83Q24.92 6.21 24.92 6.77L24.92 6.77Q24.92 7.62 24.27 8.07Q23.63 8.53 22.42 8.53L22.42 8.53Q22.03 8.53 21.60 8.46Q21.17 8.39 20.69 8.25L20.69 8.25L20.69 7.42Q21.05 7.61 21.45 7.70Q21.86 7.79 22.32 7.79L22.32 7.79Q23.06 7.79 23.47 7.52Q23.88 7.25 23.88 6.77L23.88 6.77Q23.88 6.26 23.51 6.00Q23.13 5.74 22.39 5.74L22.39 5.74L21.80 5.74L21.80 5.00L22.44 5.00Q23.08 5.00 23.42 4.79Q23.75 4.57 23.75 4.16L23.75 4.16Q23.75 3.77 23.41 3.56Q23.06 3.35 22.42 3.35L22.42 3.35Q22.14 3.35 21.79 3.41Q21.44 3.47 20.89 3.63L20.89 3.63L20.89 2.84Q21.39 2.73 21.83 2.67Q22.26 2.60 22.64 2.60L22.64 2.60Q23.63 2.60 24.20 3.01Q24.78 3.41 24.78 4.09L24.78 4.09Q24.78 4.56 24.47 4.89Q24.17 5.22 23.60 5.34ZM29.22 5.34L29.22 5.34Q29.85 5.46 30.19 5.83Q30.54 6.21 30.54 6.77L30.54 6.77Q30.54 7.62 29.89 8.07Q29.24 8.53 28.03 8.53L28.03 8.53Q27.64 8.53 27.21 8.46Q26.78 8.39 26.30 8.25L26.30 8.25L26.30 7.42Q26.66 7.61 27.07 7.70Q27.47 7.79 27.93 7.79L27.93 7.79Q28.68 7.79 29.09 7.52Q29.50 7.25 29.50 6.77L29.50 6.77Q29.50 6.26 29.12 6.00Q28.74 5.74 28 5.74L28 5.74L27.41 5.74L27.41 5.00L28.05 5.00Q28.70 5.00 29.03 4.79Q29.36 4.57 29.36 4.16L29.36 4.16Q29.36 3.77 29.02 3.56Q28.68 3.35 28.03 3.35L28.03 3.35Q27.75 3.35 27.41 3.41Q27.06 3.47 26.50 3.63L26.50 3.63L26.50 2.84Q27.00 2.73 27.44 2.67Q27.88 2.60 28.25 2.60L28.25 2.60Q29.24 2.60 29.81 3.01Q30.39 3.41 30.39 4.09L30.39 4.09Q30.39 4.56 30.08 4.89Q29.78 5.22 29.22 5.34ZM34.51 6.41L34.51 3.55L32.40 6.41L34.51 6.41ZM31.68 6.33L34.36 2.72L35.49 2.72L35.49 6.41L36.42 6.41L36.42 7.16L35.49 7.16L35.49 8.43L34.51 8.43L34.51 7.16L31.68 7.16L31.68 6.33Z"></path></svg>