<svg height="16.296875" width="20.603515625" xmlns="http://www.w3.org/2000/svg" ><path d="M1.30 3.17L2.56 3.17L2.56 5.34L5.15 5.34L5.15 6.32L2.56 6.32L2.56 10.47Q2.56 11.41 2.82 11.68Q3.08 11.94 3.86 11.94L3.86 11.94L5.15 11.94L5.15 13.00L3.86 13.00Q2.41 13.00 1.85 12.45Q1.30 11.91 1.30 10.47L1.30 10.47L1.30 6.32L0.38 6.32L0.38 5.34L1.30 5.34L1.30 3.17ZM6.81 13.00L6.81 5.34L8.07 5.34L8.07 13.00L6.81 13.00ZM6.81 3.95L6.81 2.36L8.07 2.36L8.07 3.95L6.81 3.95ZM10.35 5.58L10.35 2.72L13.84 2.72L13.84 3.37L11.16 3.37L11.16 4.76Q11.35 4.70 11.55 4.68L11.55 4.68Q11.74 4.65 11.94 4.65L11.94 4.65Q13.04 4.65 13.68 5.17L13.68 5.17Q14.32 5.69 14.32 6.59L14.32 6.59Q14.32 7.51 13.66 8.03L13.66 8.03Q13.00 8.53 11.80 8.53L11.80 8.53Q11.39 8.53 10.96 8.47Q10.53 8.41 10.08 8.29L10.08 8.29L10.08 7.51Q10.47 7.70 10.89 7.79L10.89 7.79Q11.31 7.88 11.79 7.88L11.79 7.88Q12.54 7.88 12.99 7.53Q13.43 7.18 13.43 6.59Q13.43 6.00 12.99 5.65Q12.54 5.30 11.79 5.30L11.79 5.30Q11.43 5.30 11.07 5.37Q10.72 5.43 10.35 5.58L10.35 5.58ZM18.57 5.34L18.57 5.34Q19.20 5.46 19.55 5.83Q19.89 6.21 19.89 6.77L19.89 6.77Q19.89 7.62 19.24 8.07Q18.59 8.53 17.38 8.53L17.38 8.53Q16.99 8.53 16.57 8.46Q16.14 8.39 15.66 8.25L15.66 8.25L15.66 7.42Q16.02 7.61 16.42 7.70Q16.83 7.79 17.29 7.79L17.29 7.79Q18.03 7.79 18.44 7.52Q18.85 7.25 18.85 6.77L18.85 6.77Q18.85 6.26 18.47 6.00Q18.09 5.74 17.36 5.74L17.36 5.74L16.77 5.74L16.77 5.00L17.41 5.00Q18.05 5.00 18.39 4.79Q18.72 4.57 18.72 4.16L18.72 4.16Q18.72 3.77 18.38 3.56Q18.03 3.35 17.38 3.35L17.38 3.35Q17.11 3.35 16.76 3.41Q16.41 3.47 15.86 3.63L15.86 3.63L15.86 2.84Q16.36 2.73 16.80 2.67Q17.23 2.60 17.61 2.60L17.61 2.60Q18.59 2.60 19.17 3.01Q19.75 3.41 19.75 4.09L19.75 4.09Q19.75 4.56 19.44 4.89Q19.13 5.22 18.57 5.34Z"></path></svg>