<svg height="16.296875" width="26.2158203125" xmlns="http://www.w3.org/2000/svg" ><path d="M1.30 3.17L2.56 3.17L2.56 5.34L5.15 5.34L5.15 6.32L2.56 6.32L2.56 10.47Q2.56 11.41 2.82 11.68Q3.08 11.94 3.86 11.94L3.86 11.94L5.15 11.94L5.15 13.00L3.86 13.00Q2.41 13.00 1.85 12.45Q1.30 11.91 1.30 10.47L1.30 10.47L1.30 6.32L0.38 6.32L0.38 5.34L1.30 5.34L1.30 3.17ZM6.81 13.00L6.81 5.34L8.07 5.34L8.07 13.00L6.81 13.00ZM6.81 3.95L6.81 2.36L8.07 2.36L8.07 3.95L6.81 3.95ZM12.96 5.34L12.96 5.34Q13.59 5.46 13.94 5.83Q14.28 6.21 14.28 6.77L14.28 6.77Q14.28 7.62 13.63 8.07Q12.98 8.53 11.77 8.53L11.77 8.53Q11.38 8.53 10.95 8.46Q10.53 8.39 10.05 8.25L10.05 8.25L10.05 7.42Q10.40 7.61 10.81 7.70Q11.22 7.79 11.68 7.79L11.68 7.79Q12.42 7.79 12.83 7.52Q13.24 7.25 13.24 6.77L13.24 6.77Q13.24 6.26 12.86 6.00Q12.48 5.74 11.74 5.74L11.74 5.74L11.16 5.74L11.16 5.00L11.80 5.00Q12.44 5.00 12.77 4.79Q13.10 4.57 13.10 4.16L13.10 4.16Q13.10 3.77 12.76 3.56Q12.42 3.35 11.77 3.35L11.77 3.35Q11.50 3.35 11.15 3.41Q10.80 3.47 10.25 3.63L10.25 3.63L10.25 2.84Q10.75 2.73 11.18 2.67Q11.62 2.60 12.00 2.60L12.00 2.60Q12.98 2.60 13.56 3.01Q14.14 3.41 14.14 4.09L14.14 4.09Q14.14 4.56 13.83 4.89Q13.52 5.22 12.96 5.34ZM18.57 5.34L18.57 5.34Q19.20 5.46 19.55 5.83Q19.89 6.21 19.89 6.77L19.89 6.77Q19.89 7.62 19.24 8.07Q18.59 8.53 17.38 8.53L17.38 8.53Q16.99 8.53 16.57 8.46Q16.14 8.39 15.66 8.25L15.66 8.25L15.66 7.42Q16.02 7.61 16.42 7.70Q16.83 7.79 17.29 7.79L17.29 7.79Q18.03 7.79 18.44 7.52Q18.85 7.25 18.85 6.77L18.85 6.77Q18.85 6.26 18.47 6.00Q18.09 5.74 17.36 5.74L17.36 5.74L16.77 5.74L16.77 5.00L17.41 5.00Q18.05 5.00 18.39 4.79Q18.72 4.57 18.72 4.16L18.72 4.16Q18.72 3.77 18.38 3.56Q18.03 3.35 17.38 3.35L17.38 3.35Q17.11 3.35 16.76 3.41Q16.41 3.47 15.86 3.63L15.86 3.63L15.86 2.84Q16.36 2.73 16.80 2.67Q17.23 2.60 17.61 2.60L17.61 2.60Q18.59 2.60 19.17 3.01Q19.75 3.41 19.75 4.09L19.75 4.09Q19.75 4.56 19.44 4.89Q19.13 5.22 18.57 5.34ZM23.86 6.41L23.86 3.55L21.75 6.41L23.86 6.41ZM21.03 6.33L23.71 2.72L24.85 2.72L24.85 6.41L25.77 6.41L25.77 7.16L24.85 7.16L24.85 8.43L23.86 8.43L23.86 7.16L21.03 7.16L21.03 6.33Z"></path></svg>