<svg height="16.296875" width="28.888671875" xmlns="http://www.w3.org/2000/svg" ><path d="M1.30 3.17L2.56 3.17L2.56 5.34L5.15 5.34L5.15 6.32L2.56 6.32L2.56 10.47Q2.56 11.41 2.82 11.68Q3.08 11.94 3.86 11.94L3.86 11.94L5.15 11.94L5.15 13.00L3.86 13.00Q2.41 13.00 1.85 12.45Q1.30 11.91 1.30 10.47L1.30 10.47L1.30 6.32L0.38 6.32L0.38 5.34L1.30 5.34L1.30 3.17ZM6.81 13.00L6.81 5.34L8.07 5.34L8.07 13.00L6.81 13.00ZM6.81 3.95L6.81 2.36L8.07 2.36L8.07 3.95L6.81 3.95ZM14.38 5.34L17.25 13.00L15.91 13.00L15.22 11.12L11.83 11.12L11.13 13.00L9.80 13.00L12.67 5.34L14.38 5.34ZM13.52 6.57L12.21 10.10L14.83 10.10L13.52 6.57ZM18.63 5.58L18.63 2.72L22.12 2.72L22.12 3.37L19.45 3.37L19.45 4.76Q19.64 4.70 19.84 4.68L19.84 4.68Q20.03 4.65 20.22 4.65L20.22 4.65Q21.32 4.65 21.96 5.17L21.96 5.17Q22.61 5.69 22.61 6.59L22.61 6.59Q22.61 7.51 21.94 8.03L21.94 8.03Q21.29 8.53 20.08 8.53L20.08 8.53Q19.67 8.53 19.24 8.47Q18.81 8.41 18.36 8.29L18.36 8.29L18.36 7.51Q18.75 7.70 19.17 7.79L19.17 7.79Q19.60 7.88 20.07 7.88L20.07 7.88Q20.83 7.88 21.27 7.53Q21.72 7.18 21.72 6.59Q21.72 6.00 21.27 5.65Q20.83 5.30 20.07 5.30L20.07 5.30Q19.71 5.30 19.36 5.37Q19.00 5.43 18.63 5.58L18.63 5.58ZM26.86 5.34L26.86 5.34Q27.49 5.46 27.83 5.83Q28.18 6.21 28.18 6.77L28.18 6.77Q28.18 7.62 27.53 8.07Q26.88 8.53 25.67 8.53L25.67 8.53Q25.28 8.53 24.85 8.46Q24.42 8.39 23.95 8.25L23.95 8.25L23.95 7.42Q24.30 7.61 24.71 7.70Q25.12 7.79 25.57 7.79L25.57 7.79Q26.32 7.79 26.73 7.52Q27.14 7.25 27.14 6.77L27.14 6.77Q27.14 6.26 26.76 6.00Q26.38 5.74 25.64 5.74L25.64 5.74L25.05 5.74L25.05 5.00L25.70 5.00Q26.34 5.00 26.67 4.79Q27.00 4.57 27.00 4.16L27.00 4.16Q27.00 3.77 26.66 3.56Q26.32 3.35 25.67 3.35L25.67 3.35Q25.40 3.35 25.05 3.41Q24.70 3.47 24.14 3.63L24.14 3.63L24.14 2.84Q24.64 2.73 25.08 2.67Q25.52 2.60 25.89 2.60L25.89 2.60Q26.88 2.60 27.46 3.01Q28.03 3.41 28.03 4.09L28.03 4.09Q28.03 4.56 27.73 4.89Q27.42 5.22 26.86 5.34Z"></path></svg>