<svg height="16.296875" width="34.5009765625" xmlns="http://www.w3.org/2000/svg" ><path d="M1.30 3.17L2.56 3.17L2.56 5.34L5.15 5.34L5.15 6.32L2.56 6.32L2.56 10.47Q2.56 11.41 2.82 11.68Q3.08 11.94 3.86 11.94L3.86 11.94L5.15 11.94L5.15 13.00L3.86 13.00Q2.41 13.00 1.85 12.45Q1.30 11.91 1.30 10.47L1.30 10.47L1.30 6.32L0.38 6.32L0.38 5.34L1.30 5.34L1.30 3.17ZM6.81 13.00L6.81 5.34L8.07 5.34L8.07 13.00L6.81 13.00ZM6.81 3.95L6.81 2.36L8.07 2.36L8.07 3.95L6.81 3.95ZM14.38 5.34L17.25 13.00L15.91 13.00L15.22 11.12L11.83 11.12L11.13 13.00L9.80 13.00L12.67 5.34L14.38 5.34ZM13.52 6.57L12.21 10.10L14.83 10.10L13.52 6.57ZM21.25 5.34L21.25 5.34Q21.88 5.46 22.22 5.83Q22.57 6.21 22.57 6.77L22.57 6.77Q22.57 7.62 21.92 8.07Q21.27 8.53 20.06 8.53L20.06 8.53Q19.67 8.53 19.24 8.46Q18.81 8.39 18.33 8.25L18.33 8.25L18.33 7.42Q18.69 7.61 19.10 7.70Q19.50 7.79 19.96 7.79L19.96 7.79Q20.71 7.79 21.12 7.52Q21.53 7.25 21.53 6.77L21.53 6.77Q21.53 6.26 21.15 6.00Q20.77 5.74 20.03 5.74L20.03 5.74L19.44 5.74L19.44 5.00L20.08 5.00Q20.73 5.00 21.06 4.79Q21.39 4.57 21.39 4.16L21.39 4.16Q21.39 3.77 21.05 3.56Q20.71 3.35 20.06 3.35L20.06 3.35Q19.78 3.35 19.43 3.41Q19.09 3.47 18.53 3.63L18.53 3.63L18.53 2.84Q19.03 2.73 19.47 2.67Q19.91 2.60 20.28 2.60L20.28 2.60Q21.27 2.60 21.84 3.01Q22.42 3.41 22.42 4.09L22.42 4.09Q22.42 4.56 22.11 4.89Q21.81 5.22 21.25 5.34ZM26.86 5.34L26.86 5.34Q27.49 5.46 27.83 5.83Q28.18 6.21 28.18 6.77L28.18 6.77Q28.18 7.62 27.53 8.07Q26.88 8.53 25.67 8.53L25.67 8.53Q25.28 8.53 24.85 8.46Q24.42 8.39 23.95 8.25L23.95 8.25L23.95 7.42Q24.30 7.61 24.71 7.70Q25.12 7.79 25.57 7.79L25.57 7.79Q26.32 7.79 26.73 7.52Q27.14 7.25 27.14 6.77L27.14 6.77Q27.14 6.26 26.76 6.00Q26.38 5.74 25.64 5.74L25.64 5.74L25.05 5.74L25.05 5.00L25.70 5.00Q26.34 5.00 26.67 4.79Q27.00 4.57 27.00 4.16L27.00 4.16Q27.00 3.77 26.66 3.56Q26.32 3.35 25.67 3.35L25.67 3.35Q25.40 3.35 25.05 3.41Q24.70 3.47 24.14 3.63L24.14 3.63L24.14 2.84Q24.64 2.73 25.08 2.67Q25.52 2.60 25.89 2.60L25.89 2.60Q26.88 2.60 27.46 3.01Q28.03 3.41 28.03 4.09L28.03 4.09Q28.03 4.56 27.73 4.89Q27.42 5.22 26.86 5.34ZM32.15 6.41L32.15 3.55L30.04 6.41L32.15 6.41ZM29.32 6.33L32.00 2.72L33.13 2.72L33.13 6.41L34.06 6.41L34.06 7.16L33.13 7.16L33.13 8.43L32.15 8.43L32.15 7.16L29.32 7.16L29.32 6.33Z"></path></svg>