<svg height="16.296875" width="33.90625" xmlns="http://www.w3.org/2000/svg" ><path d="M1.30 3.17L2.56 3.17L2.56 5.34L5.15 5.34L5.15 6.32L2.56 6.32L2.56 10.47Q2.56 11.41 2.82 11.68Q3.08 11.94 3.86 11.94L3.86 11.94L5.15 11.94L5.15 13.00L3.86 13.00Q2.41 13.00 1.85 12.45Q1.30 11.91 1.30 10.47L1.30 10.47L1.30 6.32L0.38 6.32L0.38 5.34L1.30 5.34L1.30 3.17ZM6.81 13.00L6.81 5.34L8.07 5.34L8.07 13.00L6.81 13.00ZM6.81 3.95L6.81 2.36L8.07 2.36L8.07 3.95L6.81 3.95ZM10.25 6.81L10.25 5.65Q10.77 5.40 11.34 5.28Q11.90 5.15 12.54 5.15L12.54 5.15Q14.27 5.15 15.29 6.24Q16.30 7.33 16.30 9.17L16.30 9.17Q16.30 11.05 15.27 12.12Q14.25 13.19 12.46 13.19L12.46 13.19Q11.87 13.19 11.32 13.07Q10.77 12.95 10.25 12.71L10.25 12.71L10.25 11.54Q10.78 11.83 11.32 11.98Q11.85 12.13 12.40 12.13L12.40 12.13Q13.62 12.13 14.30 11.35Q14.98 10.58 14.98 9.17L14.98 9.17Q14.98 7.77 14.30 7.00Q13.62 6.22 12.40 6.22L12.40 6.22Q11.85 6.22 11.32 6.37Q10.78 6.51 10.25 6.81L10.25 6.81ZM20.65 5.34L20.65 5.34Q21.28 5.46 21.63 5.83Q21.97 6.21 21.97 6.77L21.97 6.77Q21.97 7.62 21.32 8.07Q20.67 8.53 19.46 8.53L19.46 8.53Q19.07 8.53 18.65 8.46Q18.22 8.39 17.74 8.25L17.74 8.25L17.74 7.42Q18.09 7.61 18.50 7.70Q18.91 7.79 19.37 7.79L19.37 7.79Q20.11 7.79 20.52 7.52Q20.93 7.25 20.93 6.77L20.93 6.77Q20.93 6.26 20.55 6.00Q20.17 5.74 19.43 5.74L19.43 5.74L18.85 5.74L18.85 5.00L19.49 5.00Q20.13 5.00 20.46 4.79Q20.79 4.57 20.79 4.16L20.79 4.16Q20.79 3.77 20.45 3.56Q20.11 3.35 19.46 3.35L19.46 3.35Q19.19 3.35 18.84 3.41Q18.49 3.47 17.94 3.63L17.94 3.63L17.94 2.84Q18.44 2.73 18.87 2.67Q19.31 2.60 19.69 2.60L19.69 2.60Q20.67 2.60 21.25 3.01Q21.83 3.41 21.83 4.09L21.83 4.09Q21.83 4.56 21.52 4.89Q21.21 5.22 20.65 5.34ZM26.26 5.34L26.26 5.34Q26.89 5.46 27.24 5.83Q27.58 6.21 27.58 6.77L27.58 6.77Q27.58 7.62 26.93 8.07Q26.28 8.53 25.07 8.53L25.07 8.53Q24.68 8.53 24.26 8.46Q23.83 8.39 23.35 8.25L23.35 8.25L23.35 7.42Q23.71 7.61 24.11 7.70Q24.52 7.79 24.98 7.79L24.98 7.79Q25.72 7.79 26.13 7.52Q26.54 7.25 26.54 6.77L26.54 6.77Q26.54 6.26 26.16 6.00Q25.79 5.74 25.05 5.74L25.05 5.74L24.46 5.74L24.46 5.00L25.10 5.00Q25.74 5.00 26.08 4.79Q26.41 4.57 26.41 4.16L26.41 4.16Q26.41 3.77 26.07 3.56Q25.72 3.35 25.07 3.35L25.07 3.35Q24.80 3.35 24.45 3.41Q24.10 3.47 23.55 3.63L23.55 3.63L23.55 2.84Q24.05 2.73 24.49 2.67Q24.92 2.60 25.30 2.60L25.30 2.60Q26.28 2.60 26.86 3.01Q27.44 3.41 27.44 4.09L27.44 4.09Q27.44 4.56 27.13 4.89Q26.82 5.22 26.26 5.34ZM31.55 6.41L31.55 3.55L29.44 6.41L31.55 6.41ZM28.72 6.33L31.40 2.72L32.54 2.72L32.54 6.41L33.46 6.41L33.46 7.16L32.54 7.16L32.54 8.43L31.55 8.43L31.55 7.16L28.72 7.16L28.72 6.33Z"></path></svg>