<svg height="16.296875" width="28.2939453125" xmlns="http://www.w3.org/2000/svg" ><path d="M1.30 3.17L2.56 3.17L2.56 5.34L5.15 5.34L5.15 6.32L2.56 6.32L2.56 10.47Q2.56 11.41 2.82 11.68Q3.08 11.94 3.86 11.94L3.86 11.94L5.15 11.94L5.15 13.00L3.86 13.00Q2.41 13.00 1.85 12.45Q1.30 11.91 1.30 10.47L1.30 10.47L1.30 6.32L0.38 6.32L0.38 5.34L1.30 5.34L1.30 3.17ZM6.81 13.00L6.81 5.34L8.07 5.34L8.07 13.00L6.81 13.00ZM6.81 3.95L6.81 2.36L8.07 2.36L8.07 3.95L6.81 3.95ZM10.25 6.81L10.25 5.65Q10.77 5.40 11.34 5.28Q11.90 5.15 12.54 5.15L12.54 5.15Q14.27 5.15 15.29 6.24Q16.30 7.33 16.30 9.17L16.30 9.17Q16.30 11.05 15.27 12.12Q14.25 13.19 12.46 13.19L12.46 13.19Q11.87 13.19 11.32 13.07Q10.77 12.95 10.25 12.71L10.25 12.71L10.25 11.54Q10.78 11.83 11.32 11.98Q11.85 12.13 12.40 12.13L12.40 12.13Q13.62 12.13 14.30 11.35Q14.98 10.58 14.98 9.17L14.98 9.17Q14.98 7.77 14.30 7.00Q13.62 6.22 12.40 6.22L12.40 6.22Q11.85 6.22 11.32 6.37Q10.78 6.51 10.25 6.81L10.25 6.81ZM18.04 5.58L18.04 2.72L21.53 2.72L21.53 3.37L18.85 3.37L18.85 4.76Q19.04 4.70 19.24 4.68L19.24 4.68Q19.43 4.65 19.63 4.65L19.63 4.65Q20.73 4.65 21.37 5.17L21.37 5.17Q22.01 5.69 22.01 6.59L22.01 6.59Q22.01 7.51 21.35 8.03L21.35 8.03Q20.69 8.53 19.49 8.53L19.49 8.53Q19.08 8.53 18.65 8.47Q18.22 8.41 17.77 8.29L17.77 8.29L17.77 7.51Q18.16 7.70 18.58 7.79L18.58 7.79Q19.00 7.88 19.48 7.88L19.48 7.88Q20.23 7.88 20.68 7.53Q21.12 7.18 21.12 6.59Q21.12 6.00 20.68 5.65Q20.23 5.30 19.48 5.30L19.48 5.30Q19.12 5.30 18.76 5.37Q18.41 5.43 18.04 5.58L18.04 5.58ZM26.26 5.34L26.26 5.34Q26.89 5.46 27.24 5.83Q27.58 6.21 27.58 6.77L27.58 6.77Q27.58 7.62 26.93 8.07Q26.28 8.53 25.07 8.53L25.07 8.53Q24.68 8.53 24.26 8.46Q23.83 8.39 23.35 8.25L23.35 8.25L23.35 7.42Q23.71 7.61 24.11 7.70Q24.52 7.79 24.98 7.79L24.98 7.79Q25.72 7.79 26.13 7.52Q26.54 7.25 26.54 6.77L26.54 6.77Q26.54 6.26 26.16 6.00Q25.79 5.74 25.05 5.74L25.05 5.74L24.46 5.74L24.46 5.00L25.10 5.00Q25.74 5.00 26.08 4.79Q26.41 4.57 26.41 4.16L26.41 4.16Q26.41 3.77 26.07 3.56Q25.72 3.35 25.07 3.35L25.07 3.35Q24.80 3.35 24.45 3.41Q24.10 3.47 23.55 3.63L23.55 3.63L23.55 2.84Q24.05 2.73 24.49 2.67Q24.92 2.60 25.30 2.60L25.30 2.60Q26.28 2.60 26.86 3.01Q27.44 3.41 27.44 4.09L27.44 4.09Q27.44 4.56 27.13 4.89Q26.82 5.22 26.26 5.34Z"></path></svg>