<svg height="16.296875" width="28.943359375" xmlns="http://www.w3.org/2000/svg" ><path d="M1.30 3.17L2.56 3.17L2.56 5.34L5.15 5.34L5.15 6.32L2.56 6.32L2.56 10.47Q2.56 11.41 2.82 11.68Q3.08 11.94 3.86 11.94L3.86 11.94L5.15 11.94L5.15 13.00L3.86 13.00Q2.41 13.00 1.85 12.45Q1.30 11.91 1.30 10.47L1.30 10.47L1.30 6.32L0.38 6.32L0.38 5.34L1.30 5.34L1.30 3.17ZM6.81 13.00L6.81 5.34L8.07 5.34L8.07 13.00L6.81 13.00ZM6.81 3.95L6.81 2.36L8.07 2.36L8.07 3.95L6.81 3.95ZM11.52 5.34L13.55 8.07L15.58 5.34L17.06 5.34L14.34 8.99Q14.83 9.66 15.13 10.18L15.13 10.18Q15.60 11.00 15.60 11.42L15.60 11.42Q15.60 12.31 15.09 12.75Q14.57 13.19 13.55 13.19L13.55 13.19Q12.52 13.19 12.01 12.75Q11.50 12.31 11.50 11.42L11.50 11.42Q11.50 11.00 11.97 10.18L11.97 10.18Q12.27 9.66 12.76 8.99L12.76 8.99L10.04 5.34L11.52 5.34ZM13.55 12.13L13.55 12.13Q14.01 12.13 14.22 11.94L14.22 11.94Q14.41 11.78 14.41 11.47L14.41 11.47Q14.41 11.25 14.14 10.81L14.14 10.81Q13.93 10.47 13.55 9.99L13.55 9.99Q13.17 10.47 12.95 10.81L12.95 10.81Q12.69 11.25 12.69 11.47L12.69 11.47Q12.69 11.78 12.88 11.94L12.88 11.94Q13.09 12.13 13.55 12.13ZM18.69 5.58L18.69 2.72L22.18 2.72L22.18 3.37L19.50 3.37L19.50 4.76Q19.69 4.70 19.89 4.68L19.89 4.68Q20.08 4.65 20.28 4.65L20.28 4.65Q21.38 4.65 22.02 5.17L22.02 5.17Q22.66 5.69 22.66 6.59L22.66 6.59Q22.66 7.51 22.00 8.03L22.00 8.03Q21.34 8.53 20.14 8.53L20.14 8.53Q19.73 8.53 19.30 8.47Q18.87 8.41 18.42 8.29L18.42 8.29L18.42 7.51Q18.81 7.70 19.23 7.79L19.23 7.79Q19.65 7.88 20.13 7.88L20.13 7.88Q20.88 7.88 21.33 7.53Q21.77 7.18 21.77 6.59Q21.77 6.00 21.33 5.65Q20.88 5.30 20.13 5.30L20.13 5.30Q19.77 5.30 19.41 5.37Q19.06 5.43 18.69 5.58L18.69 5.58ZM26.91 5.34L26.91 5.34Q27.54 5.46 27.89 5.83Q28.23 6.21 28.23 6.77L28.23 6.77Q28.23 7.62 27.58 8.07Q26.93 8.53 25.72 8.53L25.72 8.53Q25.33 8.53 24.91 8.46Q24.48 8.39 24.00 8.25L24.00 8.25L24.00 7.42Q24.36 7.61 24.76 7.70Q25.17 7.79 25.63 7.79L25.63 7.79Q26.37 7.79 26.78 7.52Q27.19 7.25 27.19 6.77L27.19 6.77Q27.19 6.26 26.81 6.00Q26.43 5.74 25.70 5.74L25.70 5.74L25.11 5.74L25.11 5.00L25.75 5.00Q26.39 5.00 26.73 4.79Q27.06 4.57 27.06 4.16L27.06 4.16Q27.06 3.77 26.71 3.56Q26.37 3.35 25.72 3.35L25.72 3.35Q25.45 3.35 25.10 3.41Q24.75 3.47 24.20 3.63L24.20 3.63L24.20 2.84Q24.70 2.73 25.14 2.67Q25.57 2.60 25.95 2.60L25.95 2.60Q26.93 2.60 27.51 3.01Q28.09 3.41 28.09 4.09L28.09 4.09Q28.09 4.56 27.78 4.89Q27.47 5.22 26.91 5.34Z"></path></svg>