<svg height="16.296875" width="29.4765625" xmlns="http://www.w3.org/2000/svg" ><path d="M1.30 3.17L2.56 3.17L2.56 5.34L5.15 5.34L5.15 6.32L2.56 6.32L2.56 10.47Q2.56 11.41 2.82 11.68Q3.08 11.94 3.86 11.94L3.86 11.94L5.15 11.94L5.15 13.00L3.86 13.00Q2.41 13.00 1.85 12.45Q1.30 11.91 1.30 10.47L1.30 10.47L1.30 6.32L0.38 6.32L0.38 5.34L1.30 5.34L1.30 3.17ZM6.81 13.00L6.81 5.34L8.07 5.34L8.07 13.00L6.81 13.00ZM6.81 3.95L6.81 2.36L8.07 2.36L8.07 3.95L6.81 3.95ZM17.06 8.37L17.06 8.37L17.06 13.00L15.80 13.00L15.80 8.42Q15.80 7.33 15.38 6.79Q14.96 6.25 14.11 6.25L14.11 6.25Q13.09 6.25 12.50 6.90Q11.92 7.55 11.92 8.67L11.92 8.67L11.92 13.00L10.65 13.00L10.65 5.34L11.92 5.34L11.92 6.53Q12.37 5.84 12.98 5.50Q13.59 5.15 14.39 5.15L14.39 5.15Q15.71 5.15 16.39 5.97Q17.06 6.79 17.06 8.37ZM19.22 5.58L19.22 2.72L22.71 2.72L22.71 3.37L20.04 3.37L20.04 4.76Q20.23 4.70 20.43 4.68L20.43 4.68Q20.62 4.65 20.81 4.65L20.81 4.65Q21.91 4.65 22.55 5.17L22.55 5.17Q23.19 5.69 23.19 6.59L23.19 6.59Q23.19 7.51 22.53 8.03L22.53 8.03Q21.88 8.53 20.67 8.53L20.67 8.53Q20.26 8.53 19.83 8.47Q19.40 8.41 18.95 8.29L18.95 8.29L18.95 7.51Q19.34 7.70 19.76 7.79L19.76 7.79Q20.19 7.88 20.66 7.88L20.66 7.88Q21.42 7.88 21.86 7.53Q22.31 7.18 22.31 6.59Q22.31 6.00 21.86 5.65Q21.42 5.30 20.66 5.30L20.66 5.30Q20.30 5.30 19.95 5.37Q19.59 5.43 19.22 5.58L19.22 5.58ZM27.45 5.34L27.45 5.34Q28.08 5.46 28.42 5.83Q28.77 6.21 28.77 6.77L28.77 6.77Q28.77 7.62 28.12 8.07Q27.47 8.53 26.26 8.53L26.26 8.53Q25.87 8.53 25.44 8.46Q25.01 8.39 24.53 8.25L24.53 8.25L24.53 7.42Q24.89 7.61 25.30 7.70Q25.70 7.79 26.16 7.79L26.16 7.79Q26.91 7.79 27.32 7.52Q27.73 7.25 27.73 6.77L27.73 6.77Q27.73 6.26 27.35 6.00Q26.97 5.74 26.23 5.74L26.23 5.74L25.64 5.74L25.64 5.00L26.28 5.00Q26.93 5.00 27.26 4.79Q27.59 4.57 27.59 4.16L27.59 4.16Q27.59 3.77 27.25 3.56Q26.91 3.35 26.26 3.35L26.26 3.35Q25.98 3.35 25.63 3.41Q25.29 3.47 24.73 3.63L24.73 3.63L24.73 2.84Q25.23 2.73 25.67 2.67Q26.11 2.60 26.48 2.60L26.48 2.60Q27.47 2.60 28.04 3.01Q28.62 3.41 28.62 4.09L28.62 4.09Q28.62 4.56 28.31 4.89Q28.01 5.22 27.45 5.34Z"></path></svg>