<svg height="16.296875" width="35.0888671875" xmlns="http://www.w3.org/2000/svg" ><path d="M1.30 3.17L2.56 3.17L2.56 5.34L5.15 5.34L5.15 6.32L2.56 6.32L2.56 10.47Q2.56 11.41 2.82 11.68Q3.08 11.94 3.86 11.94L3.86 11.94L5.15 11.94L5.15 13.00L3.86 13.00Q2.41 13.00 1.85 12.45Q1.30 11.91 1.30 10.47L1.30 10.47L1.30 6.32L0.38 6.32L0.38 5.34L1.30 5.34L1.30 3.17ZM6.81 13.00L6.81 5.34L8.07 5.34L8.07 13.00L6.81 13.00ZM6.81 3.95L6.81 2.36L8.07 2.36L8.07 3.95L6.81 3.95ZM17.06 8.37L17.06 8.37L17.06 13.00L15.80 13.00L15.80 8.42Q15.80 7.33 15.38 6.79Q14.96 6.25 14.11 6.25L14.11 6.25Q13.09 6.25 12.50 6.90Q11.92 7.55 11.92 8.67L11.92 8.67L11.92 13.00L10.65 13.00L10.65 5.34L11.92 5.34L11.92 6.53Q12.37 5.84 12.98 5.50Q13.59 5.15 14.39 5.15L14.39 5.15Q15.71 5.15 16.39 5.97Q17.06 6.79 17.06 8.37ZM21.83 5.34L21.83 5.34Q22.46 5.46 22.81 5.83Q23.15 6.21 23.15 6.77L23.15 6.77Q23.15 7.62 22.50 8.07Q21.85 8.53 20.64 8.53L20.64 8.53Q20.25 8.53 19.83 8.46Q19.40 8.39 18.92 8.25L18.92 8.25L18.92 7.42Q19.28 7.61 19.68 7.70Q20.09 7.79 20.55 7.79L20.55 7.79Q21.29 7.79 21.70 7.52Q22.11 7.25 22.11 6.77L22.11 6.77Q22.11 6.26 21.73 6.00Q21.36 5.74 20.62 5.74L20.62 5.74L20.03 5.74L20.03 5.00L20.67 5.00Q21.31 5.00 21.65 4.79Q21.98 4.57 21.98 4.16L21.98 4.16Q21.98 3.77 21.64 3.56Q21.29 3.35 20.64 3.35L20.64 3.35Q20.37 3.35 20.02 3.41Q19.67 3.47 19.12 3.63L19.12 3.63L19.12 2.84Q19.62 2.73 20.06 2.67Q20.49 2.60 20.87 2.60L20.87 2.60Q21.85 2.60 22.43 3.01Q23.01 3.41 23.01 4.09L23.01 4.09Q23.01 4.56 22.70 4.89Q22.39 5.22 21.83 5.34ZM27.45 5.34L27.45 5.34Q28.08 5.46 28.42 5.83Q28.77 6.21 28.77 6.77L28.77 6.77Q28.77 7.62 28.12 8.07Q27.47 8.53 26.26 8.53L26.26 8.53Q25.87 8.53 25.44 8.46Q25.01 8.39 24.53 8.25L24.53 8.25L24.53 7.42Q24.89 7.61 25.30 7.70Q25.70 7.79 26.16 7.79L26.16 7.79Q26.91 7.79 27.32 7.52Q27.73 7.25 27.73 6.77L27.73 6.77Q27.73 6.26 27.35 6.00Q26.97 5.74 26.23 5.74L26.23 5.74L25.64 5.74L25.64 5.00L26.28 5.00Q26.93 5.00 27.26 4.79Q27.59 4.57 27.59 4.16L27.59 4.16Q27.59 3.77 27.25 3.56Q26.91 3.35 26.26 3.35L26.26 3.35Q25.98 3.35 25.63 3.41Q25.29 3.47 24.73 3.63L24.73 3.63L24.73 2.84Q25.23 2.73 25.67 2.67Q26.11 2.60 26.48 2.60L26.48 2.60Q27.47 2.60 28.04 3.01Q28.62 3.41 28.62 4.09L28.62 4.09Q28.62 4.56 28.31 4.89Q28.01 5.22 27.45 5.34ZM32.74 6.41L32.74 3.55L30.63 6.41L32.74 6.41ZM29.91 6.33L32.59 2.72L33.72 2.72L33.72 6.41L34.64 6.41L34.64 7.16L33.72 7.16L33.72 8.43L32.74 8.43L32.74 7.16L29.91 7.16L29.91 6.33Z"></path></svg>