<svg height="16.296875" width="32.94921875" xmlns="http://www.w3.org/2000/svg" ><path d="M1.30 3.17L2.56 3.17L2.56 5.34L5.15 5.34L5.15 6.32L2.56 6.32L2.56 10.47Q2.56 11.41 2.82 11.68Q3.08 11.94 3.86 11.94L3.86 11.94L5.15 11.94L5.15 13.00L3.86 13.00Q2.41 13.00 1.85 12.45Q1.30 11.91 1.30 10.47L1.30 10.47L1.30 6.32L0.38 6.32L0.38 5.34L1.30 5.34L1.30 3.17ZM6.81 13.00L6.81 5.34L8.07 5.34L8.07 13.00L6.81 13.00ZM6.81 3.95L6.81 2.36L8.07 2.36L8.07 3.95L6.81 3.95ZM11.38 6.46L10.17 6.46L10.17 5.34L13.78 5.34L13.78 6.46L12.63 6.46L12.63 11.87L13.78 11.87L13.78 13.00L10.17 13.00L10.17 11.87L11.38 11.87L11.38 6.46ZM16.91 13.00L16.91 7.54L17.34 7.54Q18.65 7.54 19.24 6.76L19.24 6.76Q19.63 6.24 19.63 5.57L19.63 5.57Q19.63 4.66 19.24 4.22L19.24 4.22Q18.56 3.44 17.34 3.44L17.34 3.44Q16.79 3.44 16.25 3.59L16.25 3.59Q15.72 3.73 15.18 4.03L15.18 4.03L15.18 2.85Q15.70 2.61 16.26 2.50L16.26 2.50Q16.81 2.37 17.39 2.37L17.39 2.37Q19.27 2.37 20.21 3.45L20.21 3.45Q20.96 4.30 20.96 5.57L20.96 5.57Q20.96 6.73 20.22 7.52L20.22 7.52Q19.46 8.33 18.29 8.54L18.29 8.54L18.29 13.00L16.91 13.00ZM22.70 5.58L22.70 2.72L26.18 2.72L26.18 3.37L23.51 3.37L23.51 4.76Q23.70 4.70 23.90 4.68L23.90 4.68Q24.09 4.65 24.28 4.65L24.28 4.65Q25.38 4.65 26.02 5.17L26.02 5.17Q26.67 5.69 26.67 6.59L26.67 6.59Q26.67 7.51 26.00 8.03L26.00 8.03Q25.35 8.53 24.14 8.53L24.14 8.53Q23.73 8.53 23.30 8.47Q22.87 8.41 22.42 8.29L22.42 8.29L22.42 7.51Q22.81 7.70 23.24 7.79L23.24 7.79Q23.66 7.88 24.13 7.88L24.13 7.88Q24.89 7.88 25.33 7.53Q25.78 7.18 25.78 6.59Q25.78 6.00 25.33 5.65Q24.89 5.30 24.13 5.30L24.13 5.30Q23.78 5.30 23.42 5.37Q23.06 5.43 22.70 5.58L22.70 5.58ZM28.31 5.58L28.31 2.72L31.79 2.72L31.79 3.37L29.12 3.37L29.12 4.76Q29.31 4.70 29.51 4.68L29.51 4.68Q29.70 4.65 29.89 4.65L29.89 4.65Q30.99 4.65 31.64 5.17L31.64 5.17Q32.28 5.69 32.28 6.59L32.28 6.59Q32.28 7.51 31.62 8.03L31.62 8.03Q30.96 8.53 29.76 8.53L29.76 8.53Q29.35 8.53 28.92 8.47Q28.49 8.41 28.03 8.29L28.03 8.29L28.03 7.51Q28.42 7.70 28.85 7.79L28.85 7.79Q29.27 7.88 29.74 7.88L29.74 7.88Q30.50 7.88 30.95 7.53Q31.39 7.18 31.39 6.59Q31.39 6.00 30.95 5.65Q30.50 5.30 29.74 5.30L29.74 5.30Q29.39 5.30 29.03 5.37Q28.68 5.43 28.31 5.58L28.31 5.58Z"></path></svg>