<svg height="16.296875" width="25.279296875" xmlns="http://www.w3.org/2000/svg" ><path d="M1.30 3.17L2.56 3.17L2.56 5.34L5.15 5.34L5.15 6.32L2.56 6.32L2.56 10.47Q2.56 11.41 2.82 11.68Q3.08 11.94 3.86 11.94L3.86 11.94L5.15 11.94L5.15 13.00L3.86 13.00Q2.41 13.00 1.85 12.45Q1.30 11.91 1.30 10.47L1.30 10.47L1.30 6.32L0.38 6.32L0.38 5.34L1.30 5.34L1.30 3.17ZM11.68 7.52L11.68 7.52L8.35 11.57Q8.63 11.85 8.98 11.99Q9.33 12.13 9.78 12.13L9.78 12.13Q10.78 12.13 11.37 11.33Q11.96 10.54 11.96 9.17L11.96 9.17Q11.96 8.63 11.89 8.23Q11.82 7.83 11.68 7.52ZM7.85 10.83L11.19 6.78Q10.90 6.50 10.55 6.36Q10.20 6.22 9.78 6.22L9.78 6.22Q8.74 6.22 8.17 7.02Q7.59 7.83 7.59 9.27L7.59 9.27Q7.59 9.76 7.65 10.14Q7.72 10.51 7.85 10.83L7.85 10.83ZM5.98 13.10L7 11.86Q6.63 11.33 6.45 10.66Q6.26 9.99 6.26 9.17L6.26 9.17Q6.26 7.29 7.19 6.22Q8.13 5.15 9.78 5.15L9.78 5.15Q10.41 5.15 10.95 5.33Q11.50 5.50 11.96 5.86L11.96 5.86L12.91 4.71L13.56 5.25L12.56 6.47Q12.92 7 13.10 7.68Q13.29 8.35 13.29 9.17L13.29 9.17Q13.29 11.05 12.35 12.12Q11.42 13.19 9.78 13.19L9.78 13.19Q9.12 13.19 8.57 13.02Q8.02 12.84 7.59 12.49L7.59 12.49L6.64 13.64L5.98 13.10ZM15.03 5.58L15.03 2.72L18.51 2.72L18.51 3.37L15.84 3.37L15.84 4.76Q16.03 4.70 16.23 4.68L16.23 4.68Q16.42 4.65 16.61 4.65L16.61 4.65Q17.71 4.65 18.35 5.17L18.35 5.17Q19.00 5.69 19.00 6.59L19.00 6.59Q19.00 7.51 18.33 8.03L18.33 8.03Q17.68 8.53 16.47 8.53L16.47 8.53Q16.06 8.53 15.63 8.47Q15.20 8.41 14.75 8.29L14.75 8.29L14.75 7.51Q15.14 7.70 15.57 7.79L15.57 7.79Q15.99 7.88 16.46 7.88L16.46 7.88Q17.22 7.88 17.66 7.53Q18.11 7.18 18.11 6.59Q18.11 6.00 17.66 5.65Q17.22 5.30 16.46 5.30L16.46 5.30Q16.11 5.30 15.75 5.37Q15.39 5.43 15.03 5.58L15.03 5.58ZM23.25 5.34L23.25 5.34Q23.88 5.46 24.22 5.83Q24.57 6.21 24.57 6.77L24.57 6.77Q24.57 7.62 23.92 8.07Q23.27 8.53 22.06 8.53L22.06 8.53Q21.67 8.53 21.24 8.46Q20.82 8.39 20.34 8.25L20.34 8.25L20.34 7.42Q20.69 7.61 21.10 7.70Q21.51 7.79 21.96 7.79L21.96 7.79Q22.71 7.79 23.12 7.52Q23.53 7.25 23.53 6.77L23.53 6.77Q23.53 6.26 23.15 6.00Q22.77 5.74 22.03 5.74L22.03 5.74L21.44 5.74L21.44 5.00L22.09 5.00Q22.73 5.00 23.06 4.79Q23.39 4.57 23.39 4.16L23.39 4.16Q23.39 3.77 23.05 3.56Q22.71 3.35 22.06 3.35L22.06 3.35Q21.79 3.35 21.44 3.41Q21.09 3.47 20.54 3.63L20.54 3.63L20.54 2.84Q21.03 2.73 21.47 2.67Q21.91 2.60 22.29 2.60L22.29 2.60Q23.27 2.60 23.85 3.01Q24.42 3.41 24.42 4.09L24.42 4.09Q24.42 4.56 24.12 4.89Q23.81 5.22 23.25 5.34Z"></path></svg>