<svg height="16.296875" width="30.8916015625" xmlns="http://www.w3.org/2000/svg" ><path d="M1.30 3.17L2.56 3.17L2.56 5.34L5.15 5.34L5.15 6.32L2.56 6.32L2.56 10.47Q2.56 11.41 2.82 11.68Q3.08 11.94 3.86 11.94L3.86 11.94L5.15 11.94L5.15 13.00L3.86 13.00Q2.41 13.00 1.85 12.45Q1.30 11.91 1.30 10.47L1.30 10.47L1.30 6.32L0.38 6.32L0.38 5.34L1.30 5.34L1.30 3.17ZM11.68 7.52L11.68 7.52L8.35 11.57Q8.63 11.85 8.98 11.99Q9.33 12.13 9.78 12.13L9.78 12.13Q10.78 12.13 11.37 11.33Q11.96 10.54 11.96 9.17L11.96 9.17Q11.96 8.63 11.89 8.23Q11.82 7.83 11.68 7.52ZM7.85 10.83L11.19 6.78Q10.90 6.50 10.55 6.36Q10.20 6.22 9.78 6.22L9.78 6.22Q8.74 6.22 8.17 7.02Q7.59 7.83 7.59 9.27L7.59 9.27Q7.59 9.76 7.65 10.14Q7.72 10.51 7.85 10.83L7.85 10.83ZM5.98 13.10L7 11.86Q6.63 11.33 6.45 10.66Q6.26 9.99 6.26 9.17L6.26 9.17Q6.26 7.29 7.19 6.22Q8.13 5.15 9.78 5.15L9.78 5.15Q10.41 5.15 10.95 5.33Q11.50 5.50 11.96 5.86L11.96 5.86L12.91 4.71L13.56 5.25L12.56 6.47Q12.92 7 13.10 7.68Q13.29 8.35 13.29 9.17L13.29 9.17Q13.29 11.05 12.35 12.12Q11.42 13.19 9.78 13.19L9.78 13.19Q9.12 13.19 8.57 13.02Q8.02 12.84 7.59 12.49L7.59 12.49L6.64 13.64L5.98 13.10ZM17.64 5.34L17.64 5.34Q18.27 5.46 18.61 5.83Q18.96 6.21 18.96 6.77L18.96 6.77Q18.96 7.62 18.31 8.07Q17.66 8.53 16.45 8.53L16.45 8.53Q16.06 8.53 15.63 8.46Q15.20 8.39 14.72 8.25L14.72 8.25L14.72 7.42Q15.08 7.61 15.49 7.70Q15.89 7.79 16.35 7.79L16.35 7.79Q17.10 7.79 17.51 7.52Q17.92 7.25 17.92 6.77L17.92 6.77Q17.92 6.26 17.54 6.00Q17.16 5.74 16.42 5.74L16.42 5.74L15.83 5.74L15.83 5.00L16.47 5.00Q17.12 5.00 17.45 4.79Q17.78 4.57 17.78 4.16L17.78 4.16Q17.78 3.77 17.44 3.56Q17.10 3.35 16.45 3.35L16.45 3.35Q16.17 3.35 15.83 3.41Q15.48 3.47 14.92 3.63L14.92 3.63L14.92 2.84Q15.42 2.73 15.86 2.67Q16.30 2.60 16.67 2.60L16.67 2.60Q17.66 2.60 18.23 3.01Q18.81 3.41 18.81 4.09L18.81 4.09Q18.81 4.56 18.50 4.89Q18.20 5.22 17.64 5.34ZM23.25 5.34L23.25 5.34Q23.88 5.46 24.22 5.83Q24.57 6.21 24.57 6.77L24.57 6.77Q24.57 7.62 23.92 8.07Q23.27 8.53 22.06 8.53L22.06 8.53Q21.67 8.53 21.24 8.46Q20.82 8.39 20.34 8.25L20.34 8.25L20.34 7.42Q20.69 7.61 21.10 7.70Q21.51 7.79 21.96 7.79L21.96 7.79Q22.71 7.79 23.12 7.52Q23.53 7.25 23.53 6.77L23.53 6.77Q23.53 6.26 23.15 6.00Q22.77 5.74 22.03 5.74L22.03 5.74L21.44 5.74L21.44 5.00L22.09 5.00Q22.73 5.00 23.06 4.79Q23.39 4.57 23.39 4.16L23.39 4.16Q23.39 3.77 23.05 3.56Q22.71 3.35 22.06 3.35L22.06 3.35Q21.79 3.35 21.44 3.41Q21.09 3.47 20.54 3.63L20.54 3.63L20.54 2.84Q21.03 2.73 21.47 2.67Q21.91 2.60 22.29 2.60L22.29 2.60Q23.27 2.60 23.85 3.01Q24.42 3.41 24.42 4.09L24.42 4.09Q24.42 4.56 24.12 4.89Q23.81 5.22 23.25 5.34ZM28.54 6.41L28.54 3.55L26.43 6.41L28.54 6.41ZM25.71 6.33L28.39 2.72L29.52 2.72L29.52 6.41L30.45 6.41L30.45 7.16L29.52 7.16L29.52 8.43L28.54 8.43L28.54 7.16L25.71 7.16L25.71 6.33Z"></path></svg>