<svg height="16.296875" width="34.15234375" xmlns="http://www.w3.org/2000/svg" ><path d="M1.30 3.17L2.56 3.17L2.56 5.34L5.15 5.34L5.15 6.32L2.56 6.32L2.56 10.47Q2.56 11.41 2.82 11.68Q3.08 11.94 3.86 11.94L3.86 11.94L5.15 11.94L5.15 13.00L3.86 13.00Q2.41 13.00 1.85 12.45Q1.30 11.91 1.30 10.47L1.30 10.47L1.30 6.32L0.38 6.32L0.38 5.34L1.30 5.34L1.30 3.17ZM9.78 6.22L9.78 6.22Q8.76 6.22 8.18 7.01Q7.59 7.80 7.59 9.17L7.59 9.17Q7.59 10.55 8.17 11.34Q8.76 12.13 9.78 12.13L9.78 12.13Q10.78 12.13 11.37 11.33Q11.96 10.54 11.96 9.17L11.96 9.17Q11.96 7.81 11.37 7.02Q10.78 6.22 9.78 6.22ZM9.78 5.15L9.78 5.15Q11.42 5.15 12.35 6.22Q13.29 7.29 13.29 9.17L13.29 9.17Q13.29 11.05 12.35 12.12Q11.42 13.19 9.78 13.19L9.78 13.19Q8.13 13.19 7.19 12.12Q6.26 11.05 6.26 9.17L6.26 9.17Q6.26 7.29 7.19 6.22Q8.13 5.15 9.78 5.15ZM21.74 8.37L21.74 8.37L21.74 13.13Q21.74 14.59 21.18 15.25L21.18 15.25Q20.62 15.91 19.39 15.91L19.39 15.91L17.65 15.91L17.65 14.84L19.24 14.84Q19.96 14.84 20.22 14.51L20.22 14.51Q20.48 14.18 20.48 13.13L20.48 13.13L20.48 8.42Q20.48 7.33 20.06 6.79Q19.63 6.25 18.79 6.25L18.79 6.25Q17.77 6.25 17.18 6.90Q16.59 7.55 16.59 8.67L16.59 8.67L16.59 13.00L15.33 13.00L15.33 5.34L16.59 5.34L16.59 6.53Q17.04 5.84 17.65 5.50L17.65 5.50Q18.27 5.15 19.07 5.15L19.07 5.15Q20.38 5.15 21.06 5.97L21.06 5.97Q21.74 6.79 21.74 8.37ZM23.90 5.58L23.90 2.72L27.38 2.72L27.38 3.37L24.71 3.37L24.71 4.76Q24.90 4.70 25.10 4.68L25.10 4.68Q25.29 4.65 25.48 4.65L25.48 4.65Q26.58 4.65 27.23 5.17L27.23 5.17Q27.87 5.69 27.87 6.59L27.87 6.59Q27.87 7.51 27.21 8.03L27.21 8.03Q26.55 8.53 25.35 8.53L25.35 8.53Q24.94 8.53 24.51 8.47Q24.08 8.41 23.63 8.29L23.63 8.29L23.63 7.51Q24.01 7.70 24.44 7.79L24.44 7.79Q24.86 7.88 25.33 7.88L25.33 7.88Q26.09 7.88 26.54 7.53Q26.98 7.18 26.98 6.59Q26.98 6.00 26.54 5.65Q26.09 5.30 25.33 5.30L25.33 5.30Q24.98 5.30 24.62 5.37Q24.27 5.43 23.90 5.58L23.90 5.58ZM32.12 5.34L32.12 5.34Q32.75 5.46 33.10 5.83Q33.44 6.21 33.44 6.77L33.44 6.77Q33.44 7.62 32.79 8.07Q32.14 8.53 30.93 8.53L30.93 8.53Q30.54 8.53 30.12 8.46Q29.69 8.39 29.21 8.25L29.21 8.25L29.21 7.42Q29.57 7.61 29.97 7.70Q30.38 7.79 30.84 7.79L30.84 7.79Q31.58 7.79 31.99 7.52Q32.40 7.25 32.40 6.77L32.40 6.77Q32.40 6.26 32.02 6.00Q31.64 5.74 30.91 5.74L30.91 5.74L30.32 5.74L30.32 5.00L30.96 5.00Q31.60 5.00 31.93 4.79Q32.27 4.57 32.27 4.16L32.27 4.16Q32.27 3.77 31.92 3.56Q31.58 3.35 30.93 3.35L30.93 3.35Q30.66 3.35 30.31 3.41Q29.96 3.47 29.41 3.63L29.41 3.63L29.41 2.84Q29.91 2.73 30.34 2.67Q30.78 2.60 31.16 2.60L31.16 2.60Q32.14 2.60 32.72 3.01Q33.30 3.41 33.30 4.09L33.30 4.09Q33.30 4.56 32.99 4.89Q32.68 5.22 32.12 5.34Z"></path></svg>