<svg height="16.296875" width="39.7646484375" xmlns="http://www.w3.org/2000/svg" ><path d="M1.30 3.17L2.56 3.17L2.56 5.34L5.15 5.34L5.15 6.32L2.56 6.32L2.56 10.47Q2.56 11.41 2.82 11.68Q3.08 11.94 3.86 11.94L3.86 11.94L5.15 11.94L5.15 13.00L3.86 13.00Q2.41 13.00 1.85 12.45Q1.30 11.91 1.30 10.47L1.30 10.47L1.30 6.32L0.38 6.32L0.38 5.34L1.30 5.34L1.30 3.17ZM9.78 6.22L9.78 6.22Q8.76 6.22 8.18 7.01Q7.59 7.80 7.59 9.17L7.59 9.17Q7.59 10.55 8.17 11.34Q8.76 12.13 9.78 12.13L9.78 12.13Q10.78 12.13 11.37 11.33Q11.96 10.54 11.96 9.17L11.96 9.17Q11.96 7.81 11.37 7.02Q10.78 6.22 9.78 6.22ZM9.78 5.15L9.78 5.15Q11.42 5.15 12.35 6.22Q13.29 7.29 13.29 9.17L13.29 9.17Q13.29 11.05 12.35 12.12Q11.42 13.19 9.78 13.19L9.78 13.19Q8.13 13.19 7.19 12.12Q6.26 11.05 6.26 9.17L6.26 9.17Q6.26 7.29 7.19 6.22Q8.13 5.15 9.78 5.15ZM21.74 8.37L21.74 8.37L21.74 13.13Q21.74 14.59 21.18 15.25L21.18 15.25Q20.62 15.91 19.39 15.91L19.39 15.91L17.65 15.91L17.65 14.84L19.24 14.84Q19.96 14.84 20.22 14.51L20.22 14.51Q20.48 14.18 20.48 13.13L20.48 13.13L20.48 8.42Q20.48 7.33 20.06 6.79Q19.63 6.25 18.79 6.25L18.79 6.25Q17.77 6.25 17.18 6.90Q16.59 7.55 16.59 8.67L16.59 8.67L16.59 13.00L15.33 13.00L15.33 5.34L16.59 5.34L16.59 6.53Q17.04 5.84 17.65 5.50L17.65 5.50Q18.27 5.15 19.07 5.15L19.07 5.15Q20.38 5.15 21.06 5.97L21.06 5.97Q21.74 6.79 21.74 8.37ZM26.51 5.34L26.51 5.34Q27.14 5.46 27.48 5.83Q27.83 6.21 27.83 6.77L27.83 6.77Q27.83 7.62 27.18 8.07Q26.53 8.53 25.32 8.53L25.32 8.53Q24.93 8.53 24.50 8.46Q24.08 8.39 23.60 8.25L23.60 8.25L23.60 7.42Q23.95 7.61 24.36 7.70Q24.77 7.79 25.22 7.79L25.22 7.79Q25.97 7.79 26.38 7.52Q26.79 7.25 26.79 6.77L26.79 6.77Q26.79 6.26 26.41 6.00Q26.03 5.74 25.29 5.74L25.29 5.74L24.71 5.74L24.71 5.00L25.35 5.00Q25.99 5.00 26.32 4.79Q26.65 4.57 26.65 4.16L26.65 4.16Q26.65 3.77 26.31 3.56Q25.97 3.35 25.32 3.35L25.32 3.35Q25.05 3.35 24.70 3.41Q24.35 3.47 23.80 3.63L23.80 3.63L23.80 2.84Q24.29 2.73 24.73 2.67Q25.17 2.60 25.55 2.60L25.55 2.60Q26.53 2.60 27.11 3.01Q27.69 3.41 27.69 4.09L27.69 4.09Q27.69 4.56 27.38 4.89Q27.07 5.22 26.51 5.34ZM32.12 5.34L32.12 5.34Q32.75 5.46 33.10 5.83Q33.44 6.21 33.44 6.77L33.44 6.77Q33.44 7.62 32.79 8.07Q32.14 8.53 30.93 8.53L30.93 8.53Q30.54 8.53 30.12 8.46Q29.69 8.39 29.21 8.25L29.21 8.25L29.21 7.42Q29.57 7.61 29.97 7.70Q30.38 7.79 30.84 7.79L30.84 7.79Q31.58 7.79 31.99 7.52Q32.40 7.25 32.40 6.77L32.40 6.77Q32.40 6.26 32.02 6.00Q31.64 5.74 30.91 5.74L30.91 5.74L30.32 5.74L30.32 5.00L30.96 5.00Q31.60 5.00 31.93 4.79Q32.27 4.57 32.27 4.16L32.27 4.16Q32.27 3.77 31.92 3.56Q31.58 3.35 30.93 3.35L30.93 3.35Q30.66 3.35 30.31 3.41Q29.96 3.47 29.41 3.63L29.41 3.63L29.41 2.84Q29.91 2.73 30.34 2.67Q30.78 2.60 31.16 2.60L31.16 2.60Q32.14 2.60 32.72 3.01Q33.30 3.41 33.30 4.09L33.30 4.09Q33.30 4.56 32.99 4.89Q32.68 5.22 32.12 5.34ZM37.41 6.41L37.41 3.55L35.30 6.41L37.41 6.41ZM34.58 6.33L37.26 2.72L38.40 2.72L38.40 6.41L39.32 6.41L39.32 7.16L38.40 7.16L38.40 8.43L37.41 8.43L37.41 7.16L34.58 7.16L34.58 6.33Z"></path></svg>