<svg height="16.296875" width="32.4228515625" xmlns="http://www.w3.org/2000/svg" ><path d="M1.30 3.17L2.56 3.17L2.56 5.34L5.15 5.34L5.15 6.32L2.56 6.32L2.56 10.47Q2.56 11.41 2.82 11.68Q3.08 11.94 3.86 11.94L3.86 11.94L5.15 11.94L5.15 13.00L3.86 13.00Q2.41 13.00 1.85 12.45Q1.30 11.91 1.30 10.47L1.30 10.47L1.30 6.32L0.38 6.32L0.38 5.34L1.30 5.34L1.30 3.17ZM9.78 6.22L9.78 6.22Q8.76 6.22 8.18 7.01Q7.59 7.80 7.59 9.17L7.59 9.17Q7.59 10.55 8.17 11.34Q8.76 12.13 9.78 12.13L9.78 12.13Q10.78 12.13 11.37 11.33Q11.96 10.54 11.96 9.17L11.96 9.17Q11.96 7.81 11.37 7.02Q10.78 6.22 9.78 6.22ZM9.78 5.15L9.78 5.15Q11.42 5.15 12.35 6.22Q13.29 7.29 13.29 9.17L13.29 9.17Q13.29 11.05 12.35 12.12Q11.42 13.19 9.78 13.19L9.78 13.19Q8.13 13.19 7.19 12.12Q6.26 11.05 6.26 9.17L6.26 9.17Q6.26 7.29 7.19 6.22Q8.13 5.15 9.78 5.15ZM16.39 13.00L16.38 7.54L16.81 7.54Q18.12 7.54 18.71 6.76L18.71 6.76Q19.11 6.24 19.11 5.57L19.11 5.57Q19.10 4.66 18.71 4.22L18.71 4.22Q18.03 3.44 16.81 3.44L16.81 3.44Q16.26 3.44 15.72 3.59L15.72 3.59Q15.19 3.73 14.66 4.03L14.66 4.03L14.66 2.85Q15.18 2.61 15.73 2.50L15.73 2.50Q16.28 2.37 16.86 2.37L16.86 2.37Q18.74 2.37 19.69 3.45L19.69 3.45Q20.43 4.30 20.43 5.57L20.43 5.57Q20.43 6.73 19.69 7.52L19.69 7.52Q18.93 8.33 17.77 8.54L17.77 8.54L17.77 13.00L16.39 13.00ZM22.17 5.58L22.17 2.72L25.66 2.72L25.66 3.37L22.98 3.37L22.98 4.76Q23.17 4.70 23.37 4.68L23.37 4.68Q23.56 4.65 23.75 4.65L23.75 4.65Q24.86 4.65 25.50 5.17L25.50 5.17Q26.14 5.69 26.14 6.59L26.14 6.59Q26.14 7.51 25.48 8.03L25.48 8.03Q24.82 8.53 23.62 8.53L23.62 8.53Q23.21 8.53 22.78 8.47Q22.35 8.41 21.90 8.29L21.90 8.29L21.90 7.51Q22.29 7.70 22.71 7.79L22.71 7.79Q23.13 7.88 23.60 7.88L23.60 7.88Q24.36 7.88 24.81 7.53Q25.25 7.18 25.25 6.59Q25.25 6.00 24.81 5.65Q24.36 5.30 23.60 5.30L23.60 5.30Q23.25 5.30 22.89 5.37Q22.54 5.43 22.17 5.58L22.17 5.58ZM27.78 5.58L27.78 2.72L31.27 2.72L31.27 3.37L28.59 3.37L28.59 4.76Q28.79 4.70 28.98 4.68L28.98 4.68Q29.18 4.65 29.37 4.65L29.37 4.65Q30.47 4.65 31.11 5.17L31.11 5.17Q31.75 5.69 31.75 6.59L31.75 6.59Q31.75 7.51 31.09 8.03L31.09 8.03Q30.43 8.53 29.23 8.53L29.23 8.53Q28.82 8.53 28.39 8.47Q27.96 8.41 27.51 8.29L27.51 8.29L27.51 7.51Q27.90 7.70 28.32 7.79L28.32 7.79Q28.75 7.88 29.22 7.88L29.22 7.88Q29.98 7.88 30.42 7.53Q30.86 7.18 30.86 6.59Q30.86 6.00 30.42 5.65Q29.98 5.30 29.22 5.30L29.22 5.30Q28.86 5.30 28.51 5.37Q28.15 5.43 27.78 5.58L27.78 5.58Z"></path></svg>