<svg height="16.296875" width="32.29296875" xmlns="http://www.w3.org/2000/svg" ><path d="M1.30 3.17L2.56 3.17L2.56 5.34L5.15 5.34L5.15 6.32L2.56 6.32L2.56 10.47Q2.56 11.41 2.82 11.68Q3.08 11.94 3.86 11.94L3.86 11.94L5.15 11.94L5.15 13.00L3.86 13.00Q2.41 13.00 1.85 12.45Q1.30 11.91 1.30 10.47L1.30 10.47L1.30 6.32L0.38 6.32L0.38 5.34L1.30 5.34L1.30 3.17ZM11.69 5.56L11.69 5.56L11.69 6.75Q11.16 6.48 10.58 6.34Q10.01 6.21 9.39 6.21L9.39 6.21Q8.46 6.21 7.99 6.49Q7.52 6.78 7.52 7.36L7.52 7.36Q7.52 7.79 7.85 8.04Q8.19 8.29 9.20 8.52L9.20 8.52L9.63 8.61Q10.97 8.90 11.54 9.42Q12.10 9.95 12.10 10.88L12.10 10.88Q12.10 11.95 11.26 12.57Q10.41 13.19 8.93 13.19L8.93 13.19Q8.32 13.19 7.65 13.07Q6.99 12.95 6.25 12.71L6.25 12.71L6.25 11.42Q6.95 11.78 7.62 11.96Q8.30 12.14 8.96 12.14L8.96 12.14Q9.85 12.14 10.33 11.84Q10.81 11.53 10.81 10.98L10.81 10.98Q10.81 10.47 10.46 10.19Q10.12 9.92 8.95 9.67L8.95 9.67L8.51 9.56Q7.34 9.32 6.82 8.81Q6.30 8.30 6.30 7.41L6.30 7.41Q6.30 6.33 7.07 5.74Q7.83 5.15 9.24 5.15L9.24 5.15Q9.94 5.15 10.55 5.26Q11.17 5.36 11.69 5.56ZM17.78 5.34L20.65 13.00L19.32 13.00L18.62 11.12L15.23 11.12L14.53 13.00L13.20 13.00L16.07 5.34L17.78 5.34ZM16.93 6.57L15.61 10.10L18.24 10.10L16.93 6.57ZM22.04 5.58L22.04 2.72L25.53 2.72L25.53 3.37L22.85 3.37L22.85 4.76Q23.04 4.70 23.24 4.68L23.24 4.68Q23.43 4.65 23.63 4.65L23.63 4.65Q24.73 4.65 25.37 5.17L25.37 5.17Q26.01 5.69 26.01 6.59L26.01 6.59Q26.01 7.51 25.35 8.03L25.35 8.03Q24.69 8.53 23.49 8.53L23.49 8.53Q23.08 8.53 22.65 8.47Q22.22 8.41 21.77 8.29L21.77 8.29L21.77 7.51Q22.16 7.70 22.58 7.79L22.58 7.79Q23.00 7.88 23.47 7.88L23.47 7.88Q24.23 7.88 24.68 7.53Q25.12 7.18 25.12 6.59Q25.12 6.00 24.68 5.65Q24.23 5.30 23.47 5.30L23.47 5.30Q23.12 5.30 22.76 5.37Q22.41 5.43 22.04 5.58L22.04 5.58ZM30.26 5.34L30.26 5.34Q30.89 5.46 31.24 5.83Q31.58 6.21 31.58 6.77L31.58 6.77Q31.58 7.62 30.93 8.07Q30.28 8.53 29.07 8.53L29.07 8.53Q28.68 8.53 28.26 8.46Q27.83 8.39 27.35 8.25L27.35 8.25L27.35 7.42Q27.71 7.61 28.11 7.70Q28.52 7.79 28.98 7.79L28.98 7.79Q29.72 7.79 30.13 7.52Q30.54 7.25 30.54 6.77L30.54 6.77Q30.54 6.26 30.16 6.00Q29.78 5.74 29.05 5.74L29.05 5.74L28.46 5.74L28.46 5.00L29.10 5.00Q29.74 5.00 30.07 4.79Q30.41 4.57 30.41 4.16L30.41 4.16Q30.41 3.77 30.06 3.56Q29.72 3.35 29.07 3.35L29.07 3.35Q28.80 3.35 28.45 3.41Q28.10 3.47 27.55 3.63L27.55 3.63L27.55 2.84Q28.05 2.73 28.49 2.67Q28.92 2.60 29.30 2.60L29.30 2.60Q30.28 2.60 30.86 3.01Q31.44 3.41 31.44 4.09L31.44 4.09Q31.44 4.56 31.13 4.89Q30.82 5.22 30.26 5.34Z"></path></svg>