<svg height="16.296875" width="37.9052734375" xmlns="http://www.w3.org/2000/svg" ><path d="M1.30 3.17L2.56 3.17L2.56 5.34L5.15 5.34L5.15 6.32L2.56 6.32L2.56 10.47Q2.56 11.41 2.82 11.68Q3.08 11.94 3.86 11.94L3.86 11.94L5.15 11.94L5.15 13.00L3.86 13.00Q2.41 13.00 1.85 12.45Q1.30 11.91 1.30 10.47L1.30 10.47L1.30 6.32L0.38 6.32L0.38 5.34L1.30 5.34L1.30 3.17ZM11.69 5.56L11.69 5.56L11.69 6.75Q11.16 6.48 10.58 6.34Q10.01 6.21 9.39 6.21L9.39 6.21Q8.46 6.21 7.99 6.49Q7.52 6.78 7.52 7.36L7.52 7.36Q7.52 7.79 7.85 8.04Q8.19 8.29 9.20 8.52L9.20 8.52L9.63 8.61Q10.97 8.90 11.54 9.42Q12.10 9.95 12.10 10.88L12.10 10.88Q12.10 11.95 11.26 12.57Q10.41 13.19 8.93 13.19L8.93 13.19Q8.32 13.19 7.65 13.07Q6.99 12.95 6.25 12.71L6.25 12.71L6.25 11.42Q6.95 11.78 7.62 11.96Q8.30 12.14 8.96 12.14L8.96 12.14Q9.85 12.14 10.33 11.84Q10.81 11.53 10.81 10.98L10.81 10.98Q10.81 10.47 10.46 10.19Q10.12 9.92 8.95 9.67L8.95 9.67L8.51 9.56Q7.34 9.32 6.82 8.81Q6.30 8.30 6.30 7.41L6.30 7.41Q6.30 6.33 7.07 5.74Q7.83 5.15 9.24 5.15L9.24 5.15Q9.94 5.15 10.55 5.26Q11.17 5.36 11.69 5.56ZM17.78 5.34L20.65 13.00L19.32 13.00L18.62 11.12L15.23 11.12L14.53 13.00L13.20 13.00L16.07 5.34L17.78 5.34ZM16.93 6.57L15.61 10.10L18.24 10.10L16.93 6.57ZM24.65 5.34L24.65 5.34Q25.28 5.46 25.62 5.83Q25.97 6.21 25.97 6.77L25.97 6.77Q25.97 7.62 25.32 8.07Q24.67 8.53 23.46 8.53L23.46 8.53Q23.07 8.53 22.64 8.46Q22.22 8.39 21.74 8.25L21.74 8.25L21.74 7.42Q22.09 7.61 22.50 7.70Q22.91 7.79 23.37 7.79L23.37 7.79Q24.11 7.79 24.52 7.52Q24.93 7.25 24.93 6.77L24.93 6.77Q24.93 6.26 24.55 6.00Q24.17 5.74 23.43 5.74L23.43 5.74L22.85 5.74L22.85 5.00L23.49 5.00Q24.13 5.00 24.46 4.79Q24.79 4.57 24.79 4.16L24.79 4.16Q24.79 3.77 24.45 3.56Q24.11 3.35 23.46 3.35L23.46 3.35Q23.19 3.35 22.84 3.41Q22.49 3.47 21.94 3.63L21.94 3.63L21.94 2.84Q22.44 2.73 22.87 2.67Q23.31 2.60 23.69 2.60L23.69 2.60Q24.67 2.60 25.25 3.01Q25.83 3.41 25.83 4.09L25.83 4.09Q25.83 4.56 25.52 4.89Q25.21 5.22 24.65 5.34ZM30.26 5.34L30.26 5.34Q30.89 5.46 31.24 5.83Q31.58 6.21 31.58 6.77L31.58 6.77Q31.58 7.62 30.93 8.07Q30.28 8.53 29.07 8.53L29.07 8.53Q28.68 8.53 28.26 8.46Q27.83 8.39 27.35 8.25L27.35 8.25L27.35 7.42Q27.71 7.61 28.11 7.70Q28.52 7.79 28.98 7.79L28.98 7.79Q29.72 7.79 30.13 7.52Q30.54 7.25 30.54 6.77L30.54 6.77Q30.54 6.26 30.16 6.00Q29.78 5.74 29.05 5.74L29.05 5.74L28.46 5.74L28.46 5.00L29.10 5.00Q29.74 5.00 30.07 4.79Q30.41 4.57 30.41 4.16L30.41 4.16Q30.41 3.77 30.06 3.56Q29.72 3.35 29.07 3.35L29.07 3.35Q28.80 3.35 28.45 3.41Q28.10 3.47 27.55 3.63L27.55 3.63L27.55 2.84Q28.05 2.73 28.49 2.67Q28.92 2.60 29.30 2.60L29.30 2.60Q30.28 2.60 30.86 3.01Q31.44 3.41 31.44 4.09L31.44 4.09Q31.44 4.56 31.13 4.89Q30.82 5.22 30.26 5.34ZM35.55 6.41L35.55 3.55L33.44 6.41L35.55 6.41ZM32.72 6.33L35.40 2.72L36.54 2.72L36.54 6.41L37.46 6.41L37.46 7.16L36.54 7.16L36.54 8.43L35.55 8.43L35.55 7.16L32.72 7.16L32.72 6.33Z"></path></svg>