<svg height="16.296875" width="38.19921875" xmlns="http://www.w3.org/2000/svg" ><path d="M1.30 3.17L2.56 3.17L2.56 5.34L5.15 5.34L5.15 6.32L2.56 6.32L2.56 10.47Q2.56 11.41 2.82 11.68Q3.08 11.94 3.86 11.94L3.86 11.94L5.15 11.94L5.15 13.00L3.86 13.00Q2.41 13.00 1.85 12.45Q1.30 11.91 1.30 10.47L1.30 10.47L1.30 6.32L0.38 6.32L0.38 5.34L1.30 5.34L1.30 3.17ZM11.69 5.56L11.69 5.56L11.69 6.75Q11.16 6.48 10.58 6.34Q10.01 6.21 9.39 6.21L9.39 6.21Q8.46 6.21 7.99 6.49Q7.52 6.78 7.52 7.36L7.52 7.36Q7.52 7.79 7.85 8.04Q8.19 8.29 9.20 8.52L9.20 8.52L9.63 8.61Q10.97 8.90 11.54 9.42Q12.10 9.95 12.10 10.88L12.10 10.88Q12.10 11.95 11.26 12.57Q10.41 13.19 8.93 13.19L8.93 13.19Q8.32 13.19 7.65 13.07Q6.99 12.95 6.25 12.71L6.25 12.71L6.25 11.42Q6.95 11.78 7.62 11.96Q8.30 12.14 8.96 12.14L8.96 12.14Q9.85 12.14 10.33 11.84Q10.81 11.53 10.81 10.98L10.81 10.98Q10.81 10.47 10.46 10.19Q10.12 9.92 8.95 9.67L8.95 9.67L8.51 9.56Q7.34 9.32 6.82 8.81Q6.30 8.30 6.30 7.41L6.30 7.41Q6.30 6.33 7.07 5.74Q7.83 5.15 9.24 5.15L9.24 5.15Q9.94 5.15 10.55 5.26Q11.17 5.36 11.69 5.56ZM18.83 9.15L17.58 9.15Q16.06 9.15 15.47 9.50Q14.88 9.84 14.88 10.68L14.88 10.68Q14.88 11.35 15.32 11.75Q15.76 12.14 16.52 12.14L16.52 12.14Q17.57 12.14 18.20 11.40Q18.83 10.66 18.83 9.43L18.83 9.43L18.83 9.15ZM20.09 8.63L20.09 8.63L20.09 13.00L18.83 13.00L18.83 11.83Q18.40 12.53 17.76 12.86Q17.12 13.19 16.19 13.19L16.19 13.19Q15.01 13.19 14.32 12.53Q13.62 11.87 13.62 10.77L13.62 10.77Q13.62 9.47 14.49 8.82Q15.35 8.16 17.07 8.16L17.07 8.16L18.83 8.16L18.83 8.04Q18.83 7.17 18.26 6.70Q17.69 6.22 16.66 6.22L16.66 6.22Q16.00 6.22 15.38 6.38Q14.76 6.54 14.18 6.85L14.18 6.85L14.18 5.69Q14.88 5.42 15.52 5.29Q16.17 5.15 16.79 5.15L16.79 5.15Q18.45 5.15 19.27 6.02Q20.09 6.88 20.09 8.63ZM17.82 3.63L17.82 3.63L17.43 3.25Q17.28 3.12 17.17 3.05Q17.06 2.99 16.97 2.99L16.97 2.99Q16.71 2.99 16.58 3.24Q16.46 3.49 16.45 4.05L16.45 4.05L15.59 4.05Q15.61 3.12 15.96 2.62Q16.30 2.12 16.93 2.12L16.93 2.12Q17.19 2.12 17.40 2.21Q17.62 2.31 17.88 2.54L17.88 2.54L18.27 2.91Q18.42 3.05 18.53 3.11Q18.64 3.18 18.73 3.18L18.73 3.18Q18.99 3.18 19.11 2.93Q19.24 2.68 19.25 2.12L19.25 2.12L20.10 2.12Q20.09 3.04 19.74 3.54Q19.39 4.05 18.77 4.05L18.77 4.05Q18.51 4.05 18.29 3.95Q18.07 3.86 17.82 3.63ZM24.94 5.34L24.94 5.34Q25.57 5.46 25.92 5.83Q26.26 6.21 26.26 6.77L26.26 6.77Q26.26 7.62 25.61 8.07Q24.96 8.53 23.75 8.53L23.75 8.53Q23.37 8.53 22.94 8.46Q22.51 8.39 22.03 8.25L22.03 8.25L22.03 7.42Q22.39 7.61 22.79 7.70Q23.20 7.79 23.66 7.79L23.66 7.79Q24.40 7.79 24.81 7.52Q25.22 7.25 25.22 6.77L25.22 6.77Q25.22 6.26 24.85 6.00Q24.47 5.74 23.73 5.74L23.73 5.74L23.14 5.74L23.14 5.00L23.78 5.00Q24.42 5.00 24.76 4.79Q25.09 4.57 25.09 4.16L25.09 4.16Q25.09 3.77 24.75 3.56Q24.40 3.35 23.75 3.35L23.75 3.35Q23.48 3.35 23.13 3.41Q22.78 3.47 22.23 3.63L22.23 3.63L22.23 2.84Q22.73 2.73 23.17 2.67Q23.60 2.60 23.98 2.60L23.98 2.60Q24.96 2.60 25.54 3.01Q26.12 3.41 26.12 4.09L26.12 4.09Q26.12 4.56 25.81 4.89Q25.50 5.22 24.94 5.34ZM30.56 5.34L30.56 5.34Q31.19 5.46 31.53 5.83Q31.88 6.21 31.88 6.77L31.88 6.77Q31.88 7.62 31.23 8.07Q30.58 8.53 29.37 8.53L29.37 8.53Q28.98 8.53 28.55 8.46Q28.12 8.39 27.64 8.25L27.64 8.25L27.64 7.42Q28 7.61 28.41 7.70Q28.81 7.79 29.27 7.79L29.27 7.79Q30.02 7.79 30.43 7.52Q30.84 7.25 30.84 6.77L30.84 6.77Q30.84 6.26 30.46 6.00Q30.08 5.74 29.34 5.74L29.34 5.74L28.75 5.74L28.75 5.00L29.39 5.00Q30.04 5.00 30.37 4.79Q30.70 4.57 30.70 4.16L30.70 4.16Q30.70 3.77 30.36 3.56Q30.02 3.35 29.37 3.35L29.37 3.35Q29.09 3.35 28.75 3.41Q28.40 3.47 27.84 3.63L27.84 3.63L27.84 2.84Q28.34 2.73 28.78 2.67Q29.22 2.60 29.59 2.60L29.59 2.60Q30.58 2.60 31.15 3.01Q31.73 3.41 31.73 4.09L31.73 4.09Q31.73 4.56 31.42 4.89Q31.12 5.22 30.56 5.34ZM35.85 6.41L35.85 3.55L33.74 6.41L35.85 6.41ZM33.02 6.33L35.70 2.72L36.83 2.72L36.83 6.41L37.75 6.41L37.75 7.16L36.83 7.16L36.83 8.43L35.85 8.43L35.85 7.16L33.02 7.16L33.02 6.33Z"></path></svg>