<svg height="16.296875" width="38.5068359375" xmlns="http://www.w3.org/2000/svg" ><path d="M1.30 3.17L2.56 3.17L2.56 5.34L5.15 5.34L5.15 6.32L2.56 6.32L2.56 10.47Q2.56 11.41 2.82 11.68Q3.08 11.94 3.86 11.94L3.86 11.94L5.15 11.94L5.15 13.00L3.86 13.00Q2.41 13.00 1.85 12.45Q1.30 11.91 1.30 10.47L1.30 10.47L1.30 6.32L0.38 6.32L0.38 5.34L1.30 5.34L1.30 3.17ZM11.69 5.56L11.69 5.56L11.69 6.75Q11.16 6.48 10.58 6.34Q10.01 6.21 9.39 6.21L9.39 6.21Q8.46 6.21 7.99 6.49Q7.52 6.78 7.52 7.36L7.52 7.36Q7.52 7.79 7.85 8.04Q8.19 8.29 9.20 8.52L9.20 8.52L9.63 8.61Q10.97 8.90 11.54 9.42Q12.10 9.95 12.10 10.88L12.10 10.88Q12.10 11.95 11.26 12.57Q10.41 13.19 8.93 13.19L8.93 13.19Q8.32 13.19 7.65 13.07Q6.99 12.95 6.25 12.71L6.25 12.71L6.25 11.42Q6.95 11.78 7.62 11.96Q8.30 12.14 8.96 12.14L8.96 12.14Q9.85 12.14 10.33 11.84Q10.81 11.53 10.81 10.98L10.81 10.98Q10.81 10.47 10.46 10.19Q10.12 9.92 8.95 9.67L8.95 9.67L8.51 9.56Q7.34 9.32 6.82 8.81Q6.30 8.30 6.30 7.41L6.30 7.41Q6.30 6.33 7.07 5.74Q7.83 5.15 9.24 5.15L9.24 5.15Q9.94 5.15 10.55 5.26Q11.17 5.36 11.69 5.56ZM19.14 6.50L19.14 6.50L19.14 5.34L20.40 5.34L20.40 13.00L19.14 13.00L19.14 11.85Q18.74 12.53 18.14 12.86Q17.53 13.19 16.69 13.19L16.69 13.19Q15.30 13.19 14.43 12.09Q13.56 10.98 13.56 9.17L13.56 9.17Q13.56 7.37 14.43 6.26Q15.30 5.15 16.69 5.15L16.69 5.15Q17.53 5.15 18.14 5.49Q18.74 5.82 19.14 6.50ZM14.85 9.17L14.85 9.17Q14.85 10.56 15.43 11.35Q16.00 12.14 16.99 12.14L16.99 12.14Q17.99 12.14 18.57 11.35Q19.14 10.56 19.14 9.17L19.14 9.17Q19.14 7.79 18.57 7.00Q17.99 6.21 16.99 6.21L16.99 6.21Q16.00 6.21 15.43 7.00Q14.85 7.79 14.85 9.17ZM18.13 3.63L18.13 3.63L17.74 3.25Q17.59 3.12 17.48 3.05Q17.36 2.99 17.27 2.99L17.27 2.99Q17.01 2.99 16.89 3.24Q16.77 3.49 16.75 4.05L16.75 4.05L15.90 4.05Q15.91 3.12 16.26 2.62Q16.61 2.12 17.23 2.12L17.23 2.12Q17.49 2.12 17.71 2.21Q17.93 2.31 18.18 2.54L18.18 2.54L18.57 2.91Q18.72 3.05 18.84 3.11Q18.95 3.18 19.04 3.18L19.04 3.18Q19.30 3.18 19.42 2.93Q19.54 2.68 19.56 2.12L19.56 2.12L20.41 2.12Q20.40 3.04 20.05 3.54Q19.70 4.05 19.08 4.05L19.08 4.05Q18.82 4.05 18.60 3.95Q18.38 3.86 18.13 3.63ZM25.25 5.34L25.25 5.34Q25.88 5.46 26.23 5.83Q26.57 6.21 26.57 6.77L26.57 6.77Q26.57 7.62 25.92 8.07Q25.27 8.53 24.06 8.53L24.06 8.53Q23.67 8.53 23.25 8.46Q22.82 8.39 22.34 8.25L22.34 8.25L22.34 7.42Q22.70 7.61 23.10 7.70Q23.51 7.79 23.97 7.79L23.97 7.79Q24.71 7.79 25.12 7.52Q25.53 7.25 25.53 6.77L25.53 6.77Q25.53 6.26 25.15 6.00Q24.77 5.74 24.04 5.74L24.04 5.74L23.45 5.74L23.45 5.00L24.09 5.00Q24.73 5.00 25.06 4.79Q25.40 4.57 25.40 4.16L25.40 4.16Q25.40 3.77 25.05 3.56Q24.71 3.35 24.06 3.35L24.06 3.35Q23.79 3.35 23.44 3.41Q23.09 3.47 22.54 3.63L22.54 3.63L22.54 2.84Q23.04 2.73 23.47 2.67Q23.91 2.60 24.29 2.60L24.29 2.60Q25.27 2.60 25.85 3.01Q26.43 3.41 26.43 4.09L26.43 4.09Q26.43 4.56 26.12 4.89Q25.81 5.22 25.25 5.34ZM30.86 5.34L30.86 5.34Q31.49 5.46 31.84 5.83Q32.18 6.21 32.18 6.77L32.18 6.77Q32.18 7.62 31.53 8.07Q30.88 8.53 29.67 8.53L29.67 8.53Q29.29 8.53 28.86 8.46Q28.43 8.39 27.95 8.25L27.95 8.25L27.95 7.42Q28.31 7.61 28.71 7.70Q29.12 7.79 29.58 7.79L29.58 7.79Q30.32 7.79 30.73 7.52Q31.14 7.25 31.14 6.77L31.14 6.77Q31.14 6.26 30.77 6.00Q30.39 5.74 29.65 5.74L29.65 5.74L29.06 5.74L29.06 5.00L29.70 5.00Q30.34 5.00 30.68 4.79Q31.01 4.57 31.01 4.16L31.01 4.16Q31.01 3.77 30.67 3.56Q30.32 3.35 29.67 3.35L29.67 3.35Q29.40 3.35 29.05 3.41Q28.70 3.47 28.15 3.63L28.15 3.63L28.15 2.84Q28.65 2.73 29.09 2.67Q29.52 2.60 29.90 2.60L29.90 2.60Q30.88 2.60 31.46 3.01Q32.04 3.41 32.04 4.09L32.04 4.09Q32.04 4.56 31.73 4.89Q31.42 5.22 30.86 5.34ZM36.16 6.41L36.16 3.55L34.04 6.41L36.16 6.41ZM33.33 6.33L36.00 2.72L37.14 2.72L37.14 6.41L38.06 6.41L38.06 7.16L37.14 7.16L37.14 8.43L36.16 8.43L36.16 7.16L33.33 7.16L33.33 6.33Z"></path></svg>