<svg height="16.296875" width="39.4365234375" xmlns="http://www.w3.org/2000/svg" ><path d="M1.30 3.17L2.56 3.17L2.56 5.34L5.15 5.34L5.15 6.32L2.56 6.32L2.56 10.47Q2.56 11.41 2.82 11.68Q3.08 11.94 3.86 11.94L3.86 11.94L5.15 11.94L5.15 13.00L3.86 13.00Q2.41 13.00 1.85 12.45Q1.30 11.91 1.30 10.47L1.30 10.47L1.30 6.32L0.38 6.32L0.38 5.34L1.30 5.34L1.30 3.17ZM11.69 5.56L11.69 5.56L11.69 6.75Q11.16 6.48 10.58 6.34Q10.01 6.21 9.39 6.21L9.39 6.21Q8.46 6.21 7.99 6.49Q7.52 6.78 7.52 7.36L7.52 7.36Q7.52 7.79 7.85 8.04Q8.19 8.29 9.20 8.52L9.20 8.52L9.63 8.61Q10.97 8.90 11.54 9.42Q12.10 9.95 12.10 10.88L12.10 10.88Q12.10 11.95 11.26 12.57Q10.41 13.19 8.93 13.19L8.93 13.19Q8.32 13.19 7.65 13.07Q6.99 12.95 6.25 12.71L6.25 12.71L6.25 11.42Q6.95 11.78 7.62 11.96Q8.30 12.14 8.96 12.14L8.96 12.14Q9.85 12.14 10.33 11.84Q10.81 11.53 10.81 10.98L10.81 10.98Q10.81 10.47 10.46 10.19Q10.12 9.92 8.95 9.67L8.95 9.67L8.51 9.56Q7.34 9.32 6.82 8.81Q6.30 8.30 6.30 7.41L6.30 7.41Q6.30 6.33 7.07 5.74Q7.83 5.15 9.24 5.15L9.24 5.15Q9.94 5.15 10.55 5.26Q11.17 5.36 11.69 5.56ZM17.78 5.34L20.65 13.00L19.32 13.00L18.62 11.12L15.23 11.12L14.53 13.00L13.20 13.00L16.07 5.34L17.78 5.34ZM16.93 6.57L15.61 10.10L18.24 10.10L16.93 6.57ZM23.40 13.00L23.39 7.54L23.82 7.54Q25.14 7.54 25.72 6.76L25.72 6.76Q26.12 6.24 26.12 5.57L26.12 5.57Q26.11 4.66 25.72 4.22L25.72 4.22Q25.05 3.44 23.82 3.44L23.82 3.44Q23.28 3.44 22.74 3.59L22.74 3.59Q22.20 3.73 21.67 4.03L21.67 4.03L21.67 2.85Q22.19 2.61 22.74 2.50L22.74 2.50Q23.30 2.37 23.88 2.37L23.88 2.37Q25.76 2.37 26.70 3.45L26.70 3.45Q27.45 4.30 27.45 5.57L27.45 5.57Q27.45 6.73 26.71 7.52L26.71 7.52Q25.94 8.33 24.78 8.54L24.78 8.54L24.78 13.00L23.40 13.00ZM29.18 5.58L29.18 2.72L32.67 2.72L32.67 3.37L30.00 3.37L30.00 4.76Q30.19 4.70 30.39 4.68L30.39 4.68Q30.58 4.65 30.77 4.65L30.77 4.65Q31.87 4.65 32.51 5.17L32.51 5.17Q33.15 5.69 33.15 6.59L33.15 6.59Q33.15 7.51 32.49 8.03L32.49 8.03Q31.83 8.53 30.63 8.53L30.63 8.53Q30.22 8.53 29.79 8.47Q29.36 8.41 28.91 8.29L28.91 8.29L28.91 7.51Q29.30 7.70 29.72 7.79L29.72 7.79Q30.15 7.88 30.62 7.88L30.62 7.88Q31.38 7.88 31.82 7.53Q32.27 7.18 32.27 6.59Q32.27 6.00 31.82 5.65Q31.38 5.30 30.62 5.30L30.62 5.30Q30.26 5.30 29.91 5.37Q29.55 5.43 29.18 5.58L29.18 5.58ZM34.79 5.58L34.79 2.72L38.28 2.72L38.28 3.37L35.61 3.37L35.61 4.76Q35.80 4.70 36.00 4.68L36.00 4.68Q36.19 4.65 36.38 4.65L36.38 4.65Q37.48 4.65 38.12 5.17L38.12 5.17Q38.77 5.69 38.77 6.59L38.77 6.59Q38.77 7.51 38.10 8.03L38.10 8.03Q37.45 8.53 36.24 8.53L36.24 8.53Q35.83 8.53 35.40 8.47Q34.97 8.41 34.52 8.29L34.52 8.29L34.52 7.51Q34.91 7.70 35.33 7.79L35.33 7.79Q35.76 7.88 36.23 7.88L36.23 7.88Q36.99 7.88 37.43 7.53Q37.88 7.18 37.88 6.59Q37.88 6.00 37.43 5.65Q36.99 5.30 36.23 5.30L36.23 5.30Q35.88 5.30 35.52 5.37Q35.16 5.43 34.79 5.58L34.79 5.58Z"></path></svg>