<svg height="16.296875" width="31.6982421875" xmlns="http://www.w3.org/2000/svg" ><path d="M1.30 3.17L2.56 3.17L2.56 5.34L5.15 5.34L5.15 6.32L2.56 6.32L2.56 10.47Q2.56 11.41 2.82 11.68Q3.08 11.94 3.86 11.94L3.86 11.94L5.15 11.94L5.15 13.00L3.86 13.00Q2.41 13.00 1.85 12.45Q1.30 11.91 1.30 10.47L1.30 10.47L1.30 6.32L0.38 6.32L0.38 5.34L1.30 5.34L1.30 3.17ZM11.69 5.56L11.69 5.56L11.69 6.75Q11.16 6.48 10.58 6.34Q10.01 6.21 9.39 6.21L9.39 6.21Q8.46 6.21 7.99 6.49Q7.52 6.78 7.52 7.36L7.52 7.36Q7.52 7.79 7.85 8.04Q8.19 8.29 9.20 8.52L9.20 8.52L9.63 8.61Q10.97 8.90 11.54 9.42Q12.10 9.95 12.10 10.88L12.10 10.88Q12.10 11.95 11.26 12.57Q10.41 13.19 8.93 13.19L8.93 13.19Q8.32 13.19 7.65 13.07Q6.99 12.95 6.25 12.71L6.25 12.71L6.25 11.42Q6.95 11.78 7.62 11.96Q8.30 12.14 8.96 12.14L8.96 12.14Q9.85 12.14 10.33 11.84Q10.81 11.53 10.81 10.98L10.81 10.98Q10.81 10.47 10.46 10.19Q10.12 9.92 8.95 9.67L8.95 9.67L8.51 9.56Q7.34 9.32 6.82 8.81Q6.30 8.30 6.30 7.41L6.30 7.41Q6.30 6.33 7.07 5.74Q7.83 5.15 9.24 5.15L9.24 5.15Q9.94 5.15 10.55 5.26Q11.17 5.36 11.69 5.56ZM13.65 6.81L13.65 5.65Q14.18 5.40 14.74 5.28Q15.31 5.15 15.94 5.15L15.94 5.15Q17.67 5.15 18.69 6.24Q19.71 7.33 19.71 9.17L19.71 9.17Q19.71 11.05 18.68 12.12Q17.65 13.19 15.86 13.19L15.86 13.19Q15.28 13.19 14.72 13.07Q14.17 12.95 13.65 12.71L13.65 12.71L13.65 11.54Q14.18 11.83 14.72 11.98Q15.26 12.13 15.80 12.13L15.80 12.13Q17.03 12.13 17.71 11.35Q18.38 10.58 18.38 9.17L18.38 9.17Q18.38 7.77 17.71 7.00Q17.03 6.22 15.80 6.22L15.80 6.22Q15.26 6.22 14.72 6.37Q14.18 6.51 13.65 6.81L13.65 6.81ZM21.44 5.58L21.44 2.72L24.93 2.72L24.93 3.37L22.26 3.37L22.26 4.76Q22.45 4.70 22.65 4.68L22.65 4.68Q22.84 4.65 23.03 4.65L23.03 4.65Q24.13 4.65 24.77 5.17L24.77 5.17Q25.42 5.69 25.42 6.59L25.42 6.59Q25.42 7.51 24.75 8.03L24.75 8.03Q24.10 8.53 22.89 8.53L22.89 8.53Q22.48 8.53 22.05 8.47Q21.62 8.41 21.17 8.29L21.17 8.29L21.17 7.51Q21.56 7.70 21.98 7.79L21.98 7.79Q22.41 7.88 22.88 7.88L22.88 7.88Q23.64 7.88 24.08 7.53Q24.53 7.18 24.53 6.59Q24.53 6.00 24.08 5.65Q23.64 5.30 22.88 5.30L22.88 5.30Q22.52 5.30 22.17 5.37Q21.81 5.43 21.44 5.58L21.44 5.58ZM29.67 5.34L29.67 5.34Q30.30 5.46 30.64 5.83Q30.99 6.21 30.99 6.77L30.99 6.77Q30.99 7.62 30.34 8.07Q29.69 8.53 28.48 8.53L28.48 8.53Q28.09 8.53 27.66 8.46Q27.23 8.39 26.76 8.25L26.76 8.25L26.76 7.42Q27.11 7.61 27.52 7.70Q27.92 7.79 28.38 7.79L28.38 7.79Q29.13 7.79 29.54 7.52Q29.95 7.25 29.95 6.77L29.95 6.77Q29.95 6.26 29.57 6.00Q29.19 5.74 28.45 5.74L28.45 5.74L27.86 5.74L27.86 5.00L28.51 5.00Q29.15 5.00 29.48 4.79Q29.81 4.57 29.81 4.16L29.81 4.16Q29.81 3.77 29.47 3.56Q29.13 3.35 28.48 3.35L28.48 3.35Q28.21 3.35 27.86 3.41Q27.51 3.47 26.95 3.63L26.95 3.63L26.95 2.84Q27.45 2.73 27.89 2.67Q28.33 2.60 28.70 2.60L28.70 2.60Q29.69 2.60 30.27 3.01Q30.84 3.41 30.84 4.09L30.84 4.09Q30.84 4.56 30.54 4.89Q30.23 5.22 29.67 5.34Z"></path></svg>