<svg height="16.296875" width="30.8779296875" xmlns="http://www.w3.org/2000/svg" ><path d="M1.30 3.17L2.56 3.17L2.56 5.34L5.15 5.34L5.15 6.32L2.56 6.32L2.56 10.47Q2.56 11.41 2.82 11.68Q3.08 11.94 3.86 11.94L3.86 11.94L5.15 11.94L5.15 13.00L3.86 13.00Q2.41 13.00 1.85 12.45Q1.30 11.91 1.30 10.47L1.30 10.47L1.30 6.32L0.38 6.32L0.38 5.34L1.30 5.34L1.30 3.17ZM11.69 5.56L11.69 5.56L11.69 6.75Q11.16 6.48 10.58 6.34Q10.01 6.21 9.39 6.21L9.39 6.21Q8.46 6.21 7.99 6.49Q7.52 6.78 7.52 7.36L7.52 7.36Q7.52 7.79 7.85 8.04Q8.19 8.29 9.20 8.52L9.20 8.52L9.63 8.61Q10.97 8.90 11.54 9.42Q12.10 9.95 12.10 10.88L12.10 10.88Q12.10 11.95 11.26 12.57Q10.41 13.19 8.93 13.19L8.93 13.19Q8.32 13.19 7.65 13.07Q6.99 12.95 6.25 12.71L6.25 12.71L6.25 11.42Q6.95 11.78 7.62 11.96Q8.30 12.14 8.96 12.14L8.96 12.14Q9.85 12.14 10.33 11.84Q10.81 11.53 10.81 10.98L10.81 10.98Q10.81 10.47 10.46 10.19Q10.12 9.92 8.95 9.67L8.95 9.67L8.51 9.56Q7.34 9.32 6.82 8.81Q6.30 8.30 6.30 7.41L6.30 7.41Q6.30 6.33 7.07 5.74Q7.83 5.15 9.24 5.15L9.24 5.15Q9.94 5.15 10.55 5.26Q11.17 5.36 11.69 5.56ZM14.05 13.00L14.05 5.34L18.89 5.34L18.89 6.35L15.33 6.35L15.33 8.41L18.74 8.41L18.74 9.42L15.33 9.42L15.33 11.99L18.98 11.99L18.98 13.00L14.05 13.00ZM20.62 5.58L20.62 2.72L24.11 2.72L24.11 3.37L21.44 3.37L21.44 4.76Q21.63 4.70 21.83 4.68L21.83 4.68Q22.02 4.65 22.21 4.65L22.21 4.65Q23.31 4.65 23.95 5.17L23.95 5.17Q24.60 5.69 24.60 6.59L24.60 6.59Q24.60 7.51 23.93 8.03L23.93 8.03Q23.28 8.53 22.07 8.53L22.07 8.53Q21.66 8.53 21.23 8.47Q20.80 8.41 20.35 8.29L20.35 8.29L20.35 7.51Q20.74 7.70 21.16 7.79L21.16 7.79Q21.59 7.88 22.06 7.88L22.06 7.88Q22.82 7.88 23.26 7.53Q23.71 7.18 23.71 6.59Q23.71 6.00 23.26 5.65Q22.82 5.30 22.06 5.30L22.06 5.30Q21.70 5.30 21.35 5.37Q20.99 5.43 20.62 5.58L20.62 5.58ZM28.85 5.34L28.85 5.34Q29.48 5.46 29.82 5.83Q30.17 6.21 30.17 6.77L30.17 6.77Q30.17 7.62 29.52 8.07Q28.87 8.53 27.66 8.53L27.66 8.53Q27.27 8.53 26.84 8.46Q26.41 8.39 25.94 8.25L25.94 8.25L25.94 7.42Q26.29 7.61 26.70 7.70Q27.10 7.79 27.56 7.79L27.56 7.79Q28.31 7.79 28.72 7.52Q29.13 7.25 29.13 6.77L29.13 6.77Q29.13 6.26 28.75 6.00Q28.37 5.74 27.63 5.74L27.63 5.74L27.04 5.74L27.04 5.00L27.69 5.00Q28.33 5.00 28.66 4.79Q28.99 4.57 28.99 4.16L28.99 4.16Q28.99 3.77 28.65 3.56Q28.31 3.35 27.66 3.35L27.66 3.35Q27.38 3.35 27.04 3.41Q26.69 3.47 26.13 3.63L26.13 3.63L26.13 2.84Q26.63 2.73 27.07 2.67Q27.51 2.60 27.88 2.60L27.88 2.60Q28.87 2.60 29.45 3.01Q30.02 3.41 30.02 4.09L30.02 4.09Q30.02 4.56 29.72 4.89Q29.41 5.22 28.85 5.34Z"></path></svg>