<svg height="16.296875" width="36.490234375" xmlns="http://www.w3.org/2000/svg" ><path d="M1.30 3.17L2.56 3.17L2.56 5.34L5.15 5.34L5.15 6.32L2.56 6.32L2.56 10.47Q2.56 11.41 2.82 11.68Q3.08 11.94 3.86 11.94L3.86 11.94L5.15 11.94L5.15 13.00L3.86 13.00Q2.41 13.00 1.85 12.45Q1.30 11.91 1.30 10.47L1.30 10.47L1.30 6.32L0.38 6.32L0.38 5.34L1.30 5.34L1.30 3.17ZM11.69 5.56L11.69 5.56L11.69 6.75Q11.16 6.48 10.58 6.34Q10.01 6.21 9.39 6.21L9.39 6.21Q8.46 6.21 7.99 6.49Q7.52 6.78 7.52 7.36L7.52 7.36Q7.52 7.79 7.85 8.04Q8.19 8.29 9.20 8.52L9.20 8.52L9.63 8.61Q10.97 8.90 11.54 9.42Q12.10 9.95 12.10 10.88L12.10 10.88Q12.10 11.95 11.26 12.57Q10.41 13.19 8.93 13.19L8.93 13.19Q8.32 13.19 7.65 13.07Q6.99 12.95 6.25 12.71L6.25 12.71L6.25 11.42Q6.95 11.78 7.62 11.96Q8.30 12.14 8.96 12.14L8.96 12.14Q9.85 12.14 10.33 11.84Q10.81 11.53 10.81 10.98L10.81 10.98Q10.81 10.47 10.46 10.19Q10.12 9.92 8.95 9.67L8.95 9.67L8.51 9.56Q7.34 9.32 6.82 8.81Q6.30 8.30 6.30 7.41L6.30 7.41Q6.30 6.33 7.07 5.74Q7.83 5.15 9.24 5.15L9.24 5.15Q9.94 5.15 10.55 5.26Q11.17 5.36 11.69 5.56ZM14.05 13.00L14.05 5.34L18.89 5.34L18.89 6.35L15.33 6.35L15.33 8.41L18.74 8.41L18.74 9.42L15.33 9.42L15.33 11.99L18.98 11.99L18.98 13.00L14.05 13.00ZM23.24 5.34L23.24 5.34Q23.86 5.46 24.21 5.83Q24.55 6.21 24.55 6.77L24.55 6.77Q24.55 7.62 23.91 8.07Q23.26 8.53 22.05 8.53L22.05 8.53Q21.66 8.53 21.23 8.46Q20.80 8.39 20.32 8.25L20.32 8.25L20.32 7.42Q20.68 7.61 21.09 7.70Q21.49 7.79 21.95 7.79L21.95 7.79Q22.70 7.79 23.11 7.52Q23.52 7.25 23.52 6.77L23.52 6.77Q23.52 6.26 23.14 6.00Q22.76 5.74 22.02 5.74L22.02 5.74L21.43 5.74L21.43 5.00L22.07 5.00Q22.72 5.00 23.05 4.79Q23.38 4.57 23.38 4.16L23.38 4.16Q23.38 3.77 23.04 3.56Q22.70 3.35 22.05 3.35L22.05 3.35Q21.77 3.35 21.42 3.41Q21.08 3.47 20.52 3.63L20.52 3.63L20.52 2.84Q21.02 2.73 21.46 2.67Q21.90 2.60 22.27 2.60L22.27 2.60Q23.26 2.60 23.83 3.01Q24.41 3.41 24.41 4.09L24.41 4.09Q24.41 4.56 24.10 4.89Q23.80 5.22 23.24 5.34ZM28.85 5.34L28.85 5.34Q29.48 5.46 29.82 5.83Q30.17 6.21 30.17 6.77L30.17 6.77Q30.17 7.62 29.52 8.07Q28.87 8.53 27.66 8.53L27.66 8.53Q27.27 8.53 26.84 8.46Q26.41 8.39 25.94 8.25L25.94 8.25L25.94 7.42Q26.29 7.61 26.70 7.70Q27.10 7.79 27.56 7.79L27.56 7.79Q28.31 7.79 28.72 7.52Q29.13 7.25 29.13 6.77L29.13 6.77Q29.13 6.26 28.75 6.00Q28.37 5.74 27.63 5.74L27.63 5.74L27.04 5.74L27.04 5.00L27.69 5.00Q28.33 5.00 28.66 4.79Q28.99 4.57 28.99 4.16L28.99 4.16Q28.99 3.77 28.65 3.56Q28.31 3.35 27.66 3.35L27.66 3.35Q27.38 3.35 27.04 3.41Q26.69 3.47 26.13 3.63L26.13 3.63L26.13 2.84Q26.63 2.73 27.07 2.67Q27.51 2.60 27.88 2.60L27.88 2.60Q28.87 2.60 29.45 3.01Q30.02 3.41 30.02 4.09L30.02 4.09Q30.02 4.56 29.72 4.89Q29.41 5.22 28.85 5.34ZM34.14 6.41L34.14 3.55L32.03 6.41L34.14 6.41ZM31.31 6.33L33.99 2.72L35.12 2.72L35.12 6.41L36.05 6.41L36.05 7.16L35.12 7.16L35.12 8.43L34.14 8.43L34.14 7.16L31.31 7.16L31.31 6.33Z"></path></svg>