<svg height="16.296875" width="47.1064453125" xmlns="http://www.w3.org/2000/svg" ><path d="M1.30 3.17L2.56 3.17L2.56 5.34L5.15 5.34L5.15 6.32L2.56 6.32L2.56 10.47Q2.56 11.41 2.82 11.68Q3.08 11.94 3.86 11.94L3.86 11.94L5.15 11.94L5.15 13.00L3.86 13.00Q2.41 13.00 1.85 12.45Q1.30 11.91 1.30 10.47L1.30 10.47L1.30 6.32L0.38 6.32L0.38 5.34L1.30 5.34L1.30 3.17ZM11.69 5.56L11.69 5.56L11.69 6.75Q11.16 6.48 10.58 6.34Q10.01 6.21 9.39 6.21L9.39 6.21Q8.46 6.21 7.99 6.49Q7.52 6.78 7.52 7.36L7.52 7.36Q7.52 7.79 7.85 8.04Q8.19 8.29 9.20 8.52L9.20 8.52L9.63 8.61Q10.97 8.90 11.54 9.42Q12.10 9.95 12.10 10.88L12.10 10.88Q12.10 11.95 11.26 12.57Q10.41 13.19 8.93 13.19L8.93 13.19Q8.32 13.19 7.65 13.07Q6.99 12.95 6.25 12.71L6.25 12.71L6.25 11.42Q6.95 11.78 7.62 11.96Q8.30 12.14 8.96 12.14L8.96 12.14Q9.85 12.14 10.33 11.84Q10.81 11.53 10.81 10.98L10.81 10.98Q10.81 10.47 10.46 10.19Q10.12 9.92 8.95 9.67L8.95 9.67L8.51 9.56Q7.34 9.32 6.82 8.81Q6.30 8.30 6.30 7.41L6.30 7.41Q6.30 6.33 7.07 5.74Q7.83 5.15 9.24 5.15L9.24 5.15Q9.94 5.15 10.55 5.26Q11.17 5.36 11.69 5.56ZM13.56 9.50L13.56 9.50L13.56 8.88L19.34 8.88Q19.26 7.58 18.56 6.90Q17.86 6.22 16.60 6.22L16.60 6.22Q15.88 6.22 15.20 6.40Q14.52 6.58 13.85 6.93L13.85 6.93L13.85 5.74Q14.53 5.46 15.24 5.30Q15.95 5.15 16.68 5.15L16.68 5.15Q18.51 5.15 19.58 6.22Q20.65 7.29 20.65 9.11L20.65 9.11Q20.65 10.99 19.64 12.09Q18.62 13.19 16.90 13.19L16.90 13.19Q15.35 13.19 14.45 12.20Q13.56 11.20 13.56 9.50ZM19.30 9.86L14.81 9.86Q14.83 10.90 15.39 11.51Q15.96 12.13 16.88 12.13L16.88 12.13Q17.94 12.13 18.57 11.53Q19.20 10.94 19.30 9.86L19.30 9.86ZM29.08 8.37L29.08 8.37L29.08 13.00L27.82 13.00L27.82 8.42Q27.82 7.33 27.40 6.79Q26.97 6.25 26.13 6.25L26.13 6.25Q25.11 6.25 24.52 6.90Q23.93 7.55 23.93 8.67L23.93 8.67L23.93 13.00L22.67 13.00L22.67 5.34L23.93 5.34L23.93 6.53Q24.38 5.84 25.00 5.50Q25.61 5.15 26.41 5.15L26.41 5.15Q27.73 5.15 28.40 5.97Q29.08 6.79 29.08 8.37ZM33.85 5.34L33.85 5.34Q34.48 5.46 34.83 5.83Q35.17 6.21 35.17 6.77L35.17 6.77Q35.17 7.62 34.52 8.07Q33.87 8.53 32.66 8.53L32.66 8.53Q32.27 8.53 31.85 8.46Q31.42 8.39 30.94 8.25L30.94 8.25L30.94 7.42Q31.29 7.61 31.70 7.70Q32.11 7.79 32.57 7.79L32.57 7.79Q33.31 7.79 33.72 7.52Q34.13 7.25 34.13 6.77L34.13 6.77Q34.13 6.26 33.75 6.00Q33.37 5.74 32.63 5.74L32.63 5.74L32.05 5.74L32.05 5.00L32.69 5.00Q33.33 5.00 33.66 4.79Q34.00 4.57 34.00 4.16L34.00 4.16Q34.00 3.77 33.65 3.56Q33.31 3.35 32.66 3.35L32.66 3.35Q32.39 3.35 32.04 3.41Q31.69 3.47 31.14 3.63L31.14 3.63L31.14 2.84Q31.64 2.73 32.07 2.67Q32.51 2.60 32.89 2.60L32.89 2.60Q33.87 2.60 34.45 3.01Q35.03 3.41 35.03 4.09L35.03 4.09Q35.03 4.56 34.72 4.89Q34.41 5.22 33.85 5.34ZM39.46 5.34L39.46 5.34Q40.09 5.46 40.44 5.83Q40.78 6.21 40.78 6.77L40.78 6.77Q40.78 7.62 40.13 8.07Q39.48 8.53 38.27 8.53L38.27 8.53Q37.88 8.53 37.46 8.46Q37.03 8.39 36.55 8.25L36.55 8.25L36.55 7.42Q36.91 7.61 37.31 7.70Q37.72 7.79 38.18 7.79L38.18 7.79Q38.92 7.79 39.33 7.52Q39.74 7.25 39.74 6.77L39.74 6.77Q39.74 6.26 39.36 6.00Q38.99 5.74 38.25 5.74L38.25 5.74L37.66 5.74L37.66 5.00L38.30 5.00Q38.94 5.00 39.28 4.79Q39.61 4.57 39.61 4.16L39.61 4.16Q39.61 3.77 39.27 3.56Q38.92 3.35 38.27 3.35L38.27 3.35Q38.00 3.35 37.65 3.41Q37.30 3.47 36.75 3.63L36.75 3.63L36.75 2.84Q37.25 2.73 37.69 2.67Q38.12 2.60 38.50 2.60L38.50 2.60Q39.48 2.60 40.06 3.01Q40.64 3.41 40.64 4.09L40.64 4.09Q40.64 4.56 40.33 4.89Q40.02 5.22 39.46 5.34ZM44.75 6.41L44.75 3.55L42.64 6.41L44.75 6.41ZM41.92 6.33L44.60 2.72L45.74 2.72L45.74 6.41L46.66 6.41L46.66 7.16L45.74 7.16L45.74 8.43L44.75 8.43L44.75 7.16L41.92 7.16L41.92 6.33Z"></path></svg>