<svg height="16.296875" width="39.7646484375" xmlns="http://www.w3.org/2000/svg" ><path d="M1.30 3.17L2.56 3.17L2.56 5.34L5.15 5.34L5.15 6.32L2.56 6.32L2.56 10.47Q2.56 11.41 2.82 11.68Q3.08 11.94 3.86 11.94L3.86 11.94L5.15 11.94L5.15 13.00L3.86 13.00Q2.41 13.00 1.85 12.45Q1.30 11.91 1.30 10.47L1.30 10.47L1.30 6.32L0.38 6.32L0.38 5.34L1.30 5.34L1.30 3.17ZM11.69 5.56L11.69 5.56L11.69 6.75Q11.16 6.48 10.58 6.34Q10.01 6.21 9.39 6.21L9.39 6.21Q8.46 6.21 7.99 6.49Q7.52 6.78 7.52 7.36L7.52 7.36Q7.52 7.79 7.85 8.04Q8.19 8.29 9.20 8.52L9.20 8.52L9.63 8.61Q10.97 8.90 11.54 9.42Q12.10 9.95 12.10 10.88L12.10 10.88Q12.10 11.95 11.26 12.57Q10.41 13.19 8.93 13.19L8.93 13.19Q8.32 13.19 7.65 13.07Q6.99 12.95 6.25 12.71L6.25 12.71L6.25 11.42Q6.95 11.78 7.62 11.96Q8.30 12.14 8.96 12.14L8.96 12.14Q9.85 12.14 10.33 11.84Q10.81 11.53 10.81 10.98L10.81 10.98Q10.81 10.47 10.46 10.19Q10.12 9.92 8.95 9.67L8.95 9.67L8.51 9.56Q7.34 9.32 6.82 8.81Q6.30 8.30 6.30 7.41L6.30 7.41Q6.30 6.33 7.07 5.74Q7.83 5.15 9.24 5.15L9.24 5.15Q9.94 5.15 10.55 5.26Q11.17 5.36 11.69 5.56ZM13.56 9.50L13.56 9.50L13.56 8.88L19.34 8.88Q19.26 7.58 18.56 6.90Q17.86 6.22 16.60 6.22L16.60 6.22Q15.88 6.22 15.20 6.40Q14.52 6.58 13.85 6.93L13.85 6.93L13.85 5.74Q14.53 5.46 15.24 5.30Q15.95 5.15 16.68 5.15L16.68 5.15Q18.51 5.15 19.58 6.22Q20.65 7.29 20.65 9.11L20.65 9.11Q20.65 10.99 19.64 12.09Q18.62 13.19 16.90 13.19L16.90 13.19Q15.35 13.19 14.45 12.20Q13.56 11.20 13.56 9.50ZM19.30 9.86L14.81 9.86Q14.83 10.90 15.39 11.51Q15.96 12.13 16.88 12.13L16.88 12.13Q17.94 12.13 18.57 11.53Q19.20 10.94 19.30 9.86L19.30 9.86ZM23.73 13.00L23.72 7.54L24.15 7.54Q25.46 7.54 26.05 6.76L26.05 6.76Q26.45 6.24 26.45 5.57L26.45 5.57Q26.44 4.66 26.05 4.22L26.05 4.22Q25.38 3.44 24.15 3.44L24.15 3.44Q23.60 3.44 23.06 3.59L23.06 3.59Q22.53 3.73 22.00 4.03L22.00 4.03L22.00 2.85Q22.52 2.61 23.07 2.50L23.07 2.50Q23.63 2.37 24.21 2.37L24.21 2.37Q26.09 2.37 27.03 3.45L27.03 3.45Q27.77 4.30 27.77 5.57L27.77 5.57Q27.77 6.73 27.04 7.52L27.04 7.52Q26.27 8.33 25.11 8.54L25.11 8.54L25.11 13.00L23.73 13.00ZM29.51 5.58L29.51 2.72L33.00 2.72L33.00 3.37L30.32 3.37L30.32 4.76Q30.52 4.70 30.71 4.68L30.71 4.68Q30.91 4.65 31.10 4.65L31.10 4.65Q32.20 4.65 32.84 5.17L32.84 5.17Q33.48 5.69 33.48 6.59L33.48 6.59Q33.48 7.51 32.82 8.03L32.82 8.03Q32.16 8.53 30.96 8.53L30.96 8.53Q30.55 8.53 30.12 8.47Q29.69 8.41 29.24 8.29L29.24 8.29L29.24 7.51Q29.63 7.70 30.05 7.79L30.05 7.79Q30.47 7.88 30.95 7.88L30.95 7.88Q31.71 7.88 32.15 7.53Q32.59 7.18 32.59 6.59Q32.59 6.00 32.15 5.65Q31.71 5.30 30.95 5.30L30.95 5.30Q30.59 5.30 30.24 5.37Q29.88 5.43 29.51 5.58L29.51 5.58ZM35.12 5.58L35.12 2.72L38.61 2.72L38.61 3.37L35.94 3.37L35.94 4.76Q36.13 4.70 36.33 4.68L36.33 4.68Q36.52 4.65 36.71 4.65L36.71 4.65Q37.81 4.65 38.45 5.17L38.45 5.17Q39.09 5.69 39.09 6.59L39.09 6.59Q39.09 7.51 38.43 8.03L38.43 8.03Q37.78 8.53 36.57 8.53L36.57 8.53Q36.16 8.53 35.73 8.47Q35.30 8.41 34.85 8.29L34.85 8.29L34.85 7.51Q35.24 7.70 35.66 7.79L35.66 7.79Q36.09 7.88 36.56 7.88L36.56 7.88Q37.32 7.88 37.76 7.53Q38.21 7.18 38.21 6.59Q38.21 6.00 37.76 5.65Q37.32 5.30 36.56 5.30L36.56 5.30Q36.20 5.30 35.85 5.37Q35.49 5.43 35.12 5.58L35.12 5.58Z"></path></svg>