<svg height="16.296875" width="32.34765625" xmlns="http://www.w3.org/2000/svg" ><path d="M1.30 3.17L2.56 3.17L2.56 5.34L5.15 5.34L5.15 6.32L2.56 6.32L2.56 10.47Q2.56 11.41 2.82 11.68Q3.08 11.94 3.86 11.94L3.86 11.94L5.15 11.94L5.15 13.00L3.86 13.00Q2.41 13.00 1.85 12.45Q1.30 11.91 1.30 10.47L1.30 10.47L1.30 6.32L0.38 6.32L0.38 5.34L1.30 5.34L1.30 3.17ZM11.69 5.56L11.69 5.56L11.69 6.75Q11.16 6.48 10.58 6.34Q10.01 6.21 9.39 6.21L9.39 6.21Q8.46 6.21 7.99 6.49Q7.52 6.78 7.52 7.36L7.52 7.36Q7.52 7.79 7.85 8.04Q8.19 8.29 9.20 8.52L9.20 8.52L9.63 8.61Q10.97 8.90 11.54 9.42Q12.10 9.95 12.10 10.88L12.10 10.88Q12.10 11.95 11.26 12.57Q10.41 13.19 8.93 13.19L8.93 13.19Q8.32 13.19 7.65 13.07Q6.99 12.95 6.25 12.71L6.25 12.71L6.25 11.42Q6.95 11.78 7.62 11.96Q8.30 12.14 8.96 12.14L8.96 12.14Q9.85 12.14 10.33 11.84Q10.81 11.53 10.81 10.98L10.81 10.98Q10.81 10.47 10.46 10.19Q10.12 9.92 8.95 9.67L8.95 9.67L8.51 9.56Q7.34 9.32 6.82 8.81Q6.30 8.30 6.30 7.41L6.30 7.41Q6.30 6.33 7.07 5.74Q7.83 5.15 9.24 5.15L9.24 5.15Q9.94 5.15 10.55 5.26Q11.17 5.36 11.69 5.56ZM14.92 5.34L16.95 8.07L18.98 5.34L20.47 5.34L17.75 8.99Q18.23 9.66 18.53 10.18L18.53 10.18Q19.00 11.00 19.00 11.42L19.00 11.42Q19.00 12.31 18.49 12.75Q17.98 13.19 16.95 13.19L16.95 13.19Q15.93 13.19 15.42 12.75Q14.90 12.31 14.90 11.42L14.90 11.42Q14.90 11.00 15.37 10.18L15.37 10.18Q15.67 9.66 16.16 8.99L16.16 8.99L13.44 5.34L14.92 5.34ZM16.95 12.13L16.95 12.13Q17.41 12.13 17.62 11.94L17.62 11.94Q17.81 11.78 17.81 11.47L17.81 11.47Q17.81 11.25 17.55 10.81L17.55 10.81Q17.34 10.47 16.95 9.99L16.95 9.99Q16.57 10.47 16.36 10.81L16.36 10.81Q16.09 11.25 16.09 11.47L16.09 11.47Q16.09 11.78 16.28 11.94L16.28 11.94Q16.50 12.13 16.95 12.13ZM22.09 5.58L22.09 2.72L25.58 2.72L25.58 3.37L22.91 3.37L22.91 4.76Q23.10 4.70 23.30 4.68L23.30 4.68Q23.49 4.65 23.68 4.65L23.68 4.65Q24.78 4.65 25.42 5.17L25.42 5.17Q26.07 5.69 26.07 6.59L26.07 6.59Q26.07 7.51 25.40 8.03L25.40 8.03Q24.75 8.53 23.54 8.53L23.54 8.53Q23.13 8.53 22.70 8.47Q22.27 8.41 21.82 8.29L21.82 8.29L21.82 7.51Q22.21 7.70 22.63 7.79L22.63 7.79Q23.06 7.88 23.53 7.88L23.53 7.88Q24.29 7.88 24.73 7.53Q25.18 7.18 25.18 6.59Q25.18 6.00 24.73 5.65Q24.29 5.30 23.53 5.30L23.53 5.30Q23.17 5.30 22.82 5.37Q22.46 5.43 22.09 5.58L22.09 5.58ZM30.32 5.34L30.32 5.34Q30.95 5.46 31.29 5.83Q31.64 6.21 31.64 6.77L31.64 6.77Q31.64 7.62 30.99 8.07Q30.34 8.53 29.13 8.53L29.13 8.53Q28.74 8.53 28.31 8.46Q27.88 8.39 27.41 8.25L27.41 8.25L27.41 7.42Q27.76 7.61 28.17 7.70Q28.57 7.79 29.03 7.79L29.03 7.79Q29.78 7.79 30.19 7.52Q30.60 7.25 30.60 6.77L30.60 6.77Q30.60 6.26 30.22 6.00Q29.84 5.74 29.10 5.74L29.10 5.74L28.51 5.74L28.51 5.00L29.16 5.00Q29.80 5.00 30.13 4.79Q30.46 4.57 30.46 4.16L30.46 4.16Q30.46 3.77 30.12 3.56Q29.78 3.35 29.13 3.35L29.13 3.35Q28.85 3.35 28.51 3.41Q28.16 3.47 27.60 3.63L27.60 3.63L27.60 2.84Q28.10 2.73 28.54 2.67Q28.98 2.60 29.35 2.60L29.35 2.60Q30.34 2.60 30.92 3.01Q31.49 3.41 31.49 4.09L31.49 4.09Q31.49 4.56 31.19 4.89Q30.88 5.22 30.32 5.34Z"></path></svg>