<svg height="16.296875" width="44.1669921875" xmlns="http://www.w3.org/2000/svg" ><path d="M1.30 3.17L2.56 3.17L2.56 5.34L5.15 5.34L5.15 6.32L2.56 6.32L2.56 10.47Q2.56 11.41 2.82 11.68Q3.08 11.94 3.86 11.94L3.86 11.94L5.15 11.94L5.15 13.00L3.86 13.00Q2.41 13.00 1.85 12.45Q1.30 11.91 1.30 10.47L1.30 10.47L1.30 6.32L0.38 6.32L0.38 5.34L1.30 5.34L1.30 3.17ZM11.69 5.56L11.69 5.56L11.69 6.75Q11.16 6.48 10.58 6.34Q10.01 6.21 9.39 6.21L9.39 6.21Q8.46 6.21 7.99 6.49Q7.52 6.78 7.52 7.36L7.52 7.36Q7.52 7.79 7.85 8.04Q8.19 8.29 9.20 8.52L9.20 8.52L9.63 8.61Q10.97 8.90 11.54 9.42Q12.10 9.95 12.10 10.88L12.10 10.88Q12.10 11.95 11.26 12.57Q10.41 13.19 8.93 13.19L8.93 13.19Q8.32 13.19 7.65 13.07Q6.99 12.95 6.25 12.71L6.25 12.71L6.25 11.42Q6.95 11.78 7.62 11.96Q8.30 12.14 8.96 12.14L8.96 12.14Q9.85 12.14 10.33 11.84Q10.81 11.53 10.81 10.98L10.81 10.98Q10.81 10.47 10.46 10.19Q10.12 9.92 8.95 9.67L8.95 9.67L8.51 9.56Q7.34 9.32 6.82 8.81Q6.30 8.30 6.30 7.41L6.30 7.41Q6.30 6.33 7.07 5.74Q7.83 5.15 9.24 5.15L9.24 5.15Q9.94 5.15 10.55 5.26Q11.17 5.36 11.69 5.56ZM17.62 5.84L17.62 5.84L17.62 8.43L16.83 8.43L16.83 5.87Q16.83 5.26 16.56 4.95Q16.30 4.65 15.76 4.65L15.76 4.65Q15.12 4.65 14.75 5.01Q14.38 5.38 14.38 6.01L14.38 6.01L14.38 8.43L13.58 8.43L13.58 2.47L14.38 2.47L14.38 4.81Q14.66 4.42 15.05 4.23Q15.44 4.04 15.94 4.04L15.94 4.04Q16.77 4.04 17.20 4.50Q17.62 4.96 17.62 5.84ZM24.80 6.50L24.80 6.50L24.80 5.34L26.06 5.34L26.06 13.00L24.80 13.00L24.80 11.85Q24.40 12.53 23.80 12.86Q23.19 13.19 22.35 13.19L22.35 13.19Q20.96 13.19 20.09 12.09Q19.22 10.98 19.22 9.17L19.22 9.17Q19.22 7.37 20.09 6.26Q20.96 5.15 22.35 5.15L22.35 5.15Q23.19 5.15 23.80 5.49Q24.40 5.82 24.80 6.50ZM20.51 9.17L20.51 9.17Q20.51 10.56 21.09 11.35Q21.66 12.14 22.65 12.14L22.65 12.14Q23.65 12.14 24.23 11.35Q24.80 10.56 24.80 9.17L24.80 9.17Q24.80 7.79 24.23 7.00Q23.65 6.21 22.65 6.21L22.65 6.21Q21.66 6.21 21.09 7.00Q20.51 7.79 20.51 9.17ZM23.79 3.63L23.79 3.63L23.40 3.25Q23.25 3.12 23.14 3.05Q23.02 2.99 22.93 2.99L22.93 2.99Q22.67 2.99 22.55 3.24Q22.43 3.49 22.42 4.05L22.42 4.05L21.56 4.05Q21.57 3.12 21.92 2.62Q22.27 2.12 22.89 2.12L22.89 2.12Q23.15 2.12 23.37 2.21Q23.59 2.31 23.84 2.54L23.84 2.54L24.23 2.91Q24.38 3.05 24.50 3.11Q24.61 3.18 24.70 3.18L24.70 3.18Q24.96 3.18 25.08 2.93Q25.20 2.68 25.22 2.12L25.22 2.12L26.07 2.12Q26.06 3.04 25.71 3.54Q25.36 4.05 24.74 4.05L24.74 4.05Q24.48 4.05 24.26 3.95Q24.04 3.86 23.79 3.63ZM30.91 5.34L30.91 5.34Q31.54 5.46 31.89 5.83Q32.23 6.21 32.23 6.77L32.23 6.77Q32.23 7.62 31.58 8.07Q30.93 8.53 29.72 8.53L29.72 8.53Q29.33 8.53 28.91 8.46Q28.48 8.39 28 8.25L28 8.25L28 7.42Q28.36 7.61 28.76 7.70Q29.17 7.79 29.63 7.79L29.63 7.79Q30.37 7.79 30.78 7.52Q31.19 7.25 31.19 6.77L31.19 6.77Q31.19 6.26 30.81 6.00Q30.43 5.74 29.70 5.74L29.70 5.74L29.11 5.74L29.11 5.00L29.75 5.00Q30.39 5.00 30.72 4.79Q31.06 4.57 31.06 4.16L31.06 4.16Q31.06 3.77 30.71 3.56Q30.37 3.35 29.72 3.35L29.72 3.35Q29.45 3.35 29.10 3.41Q28.75 3.47 28.20 3.63L28.20 3.63L28.20 2.84Q28.70 2.73 29.13 2.67Q29.57 2.60 29.95 2.60L29.95 2.60Q30.93 2.60 31.51 3.01Q32.09 3.41 32.09 4.09L32.09 4.09Q32.09 4.56 31.78 4.89Q31.47 5.22 30.91 5.34ZM36.52 5.34L36.52 5.34Q37.15 5.46 37.50 5.83Q37.84 6.21 37.84 6.77L37.84 6.77Q37.84 7.62 37.19 8.07Q36.54 8.53 35.33 8.53L35.33 8.53Q34.95 8.53 34.52 8.46Q34.09 8.39 33.61 8.25L33.61 8.25L33.61 7.42Q33.97 7.61 34.37 7.70Q34.78 7.79 35.24 7.79L35.24 7.79Q35.98 7.79 36.39 7.52Q36.80 7.25 36.80 6.77L36.80 6.77Q36.80 6.26 36.43 6.00Q36.05 5.74 35.31 5.74L35.31 5.74L34.72 5.74L34.72 5.00L35.36 5.00Q36.00 5.00 36.34 4.79Q36.67 4.57 36.67 4.16L36.67 4.16Q36.67 3.77 36.33 3.56Q35.98 3.35 35.33 3.35L35.33 3.35Q35.06 3.35 34.71 3.41Q34.36 3.47 33.81 3.63L33.81 3.63L33.81 2.84Q34.31 2.73 34.75 2.67Q35.18 2.60 35.56 2.60L35.56 2.60Q36.54 2.60 37.12 3.01Q37.70 3.41 37.70 4.09L37.70 4.09Q37.70 4.56 37.39 4.89Q37.08 5.22 36.52 5.34ZM41.82 6.41L41.82 3.55L39.70 6.41L41.82 6.41ZM38.99 6.33L41.67 2.72L42.80 2.72L42.80 6.41L43.72 6.41L43.72 7.16L42.80 7.16L42.80 8.43L41.82 8.43L41.82 7.16L38.99 7.16L38.99 6.33Z"></path></svg>