<svg height="16.296875" width="45.0966796875" xmlns="http://www.w3.org/2000/svg" ><path d="M1.30 3.17L2.56 3.17L2.56 5.34L5.15 5.34L5.15 6.32L2.56 6.32L2.56 10.47Q2.56 11.41 2.82 11.68Q3.08 11.94 3.86 11.94L3.86 11.94L5.15 11.94L5.15 13.00L3.86 13.00Q2.41 13.00 1.85 12.45Q1.30 11.91 1.30 10.47L1.30 10.47L1.30 6.32L0.38 6.32L0.38 5.34L1.30 5.34L1.30 3.17ZM11.69 5.56L11.69 5.56L11.69 6.75Q11.16 6.48 10.58 6.34Q10.01 6.21 9.39 6.21L9.39 6.21Q8.46 6.21 7.99 6.49Q7.52 6.78 7.52 7.36L7.52 7.36Q7.52 7.79 7.85 8.04Q8.19 8.29 9.20 8.52L9.20 8.52L9.63 8.61Q10.97 8.90 11.54 9.42Q12.10 9.95 12.10 10.88L12.10 10.88Q12.10 11.95 11.26 12.57Q10.41 13.19 8.93 13.19L8.93 13.19Q8.32 13.19 7.65 13.07Q6.99 12.95 6.25 12.71L6.25 12.71L6.25 11.42Q6.95 11.78 7.62 11.96Q8.30 12.14 8.96 12.14L8.96 12.14Q9.85 12.14 10.33 11.84Q10.81 11.53 10.81 10.98L10.81 10.98Q10.81 10.47 10.46 10.19Q10.12 9.92 8.95 9.67L8.95 9.67L8.51 9.56Q7.34 9.32 6.82 8.81Q6.30 8.30 6.30 7.41L6.30 7.41Q6.30 6.33 7.07 5.74Q7.83 5.15 9.24 5.15L9.24 5.15Q9.94 5.15 10.55 5.26Q11.17 5.36 11.69 5.56ZM17.62 5.84L17.62 5.84L17.62 8.43L16.83 8.43L16.83 5.87Q16.83 5.26 16.56 4.95Q16.30 4.65 15.76 4.65L15.76 4.65Q15.12 4.65 14.75 5.01Q14.38 5.38 14.38 6.01L14.38 6.01L14.38 8.43L13.58 8.43L13.58 2.47L14.38 2.47L14.38 4.81Q14.66 4.42 15.05 4.23Q15.44 4.04 15.94 4.04L15.94 4.04Q16.77 4.04 17.20 4.50Q17.62 4.96 17.62 5.84ZM23.44 5.34L26.31 13.00L24.98 13.00L24.28 11.12L20.89 11.12L20.19 13.00L18.86 13.00L21.73 5.34L23.44 5.34ZM22.59 6.57L21.27 10.10L23.90 10.10L22.59 6.57ZM29.06 13.00L29.05 7.54L29.48 7.54Q30.80 7.54 31.38 6.76L31.38 6.76Q31.78 6.24 31.78 5.57L31.78 5.57Q31.77 4.66 31.38 4.22L31.38 4.22Q30.71 3.44 29.48 3.44L29.48 3.44Q28.94 3.44 28.40 3.59L28.40 3.59Q27.86 3.73 27.33 4.03L27.33 4.03L27.33 2.85Q27.85 2.61 28.40 2.50L28.40 2.50Q28.96 2.37 29.54 2.37L29.54 2.37Q31.42 2.37 32.36 3.45L32.36 3.45Q33.11 4.30 33.11 5.57L33.11 5.57Q33.11 6.73 32.37 7.52L32.37 7.52Q31.60 8.33 30.44 8.54L30.44 8.54L30.44 13.00L29.06 13.00ZM34.84 5.58L34.84 2.72L38.33 2.72L38.33 3.37L35.66 3.37L35.66 4.76Q35.85 4.70 36.05 4.68L36.05 4.68Q36.24 4.65 36.43 4.65L36.43 4.65Q37.53 4.65 38.17 5.17L38.17 5.17Q38.81 5.69 38.81 6.59L38.81 6.59Q38.81 7.51 38.15 8.03L38.15 8.03Q37.50 8.53 36.29 8.53L36.29 8.53Q35.88 8.53 35.45 8.47Q35.02 8.41 34.57 8.29L34.57 8.29L34.57 7.51Q34.96 7.70 35.38 7.79L35.38 7.79Q35.81 7.88 36.28 7.88L36.28 7.88Q37.04 7.88 37.48 7.53Q37.93 7.18 37.93 6.59Q37.93 6.00 37.48 5.65Q37.04 5.30 36.28 5.30L36.28 5.30Q35.92 5.30 35.57 5.37Q35.21 5.43 34.84 5.58L34.84 5.58ZM40.46 5.58L40.46 2.72L43.94 2.72L43.94 3.37L41.27 3.37L41.27 4.76Q41.46 4.70 41.66 4.68L41.66 4.68Q41.85 4.65 42.04 4.65L42.04 4.65Q43.14 4.65 43.78 5.17L43.78 5.17Q44.43 5.69 44.43 6.59L44.43 6.59Q44.43 7.51 43.76 8.03L43.76 8.03Q43.11 8.53 41.90 8.53L41.90 8.53Q41.49 8.53 41.06 8.47Q40.63 8.41 40.18 8.29L40.18 8.29L40.18 7.51Q40.57 7.70 41.00 7.79L41.00 7.79Q41.42 7.88 41.89 7.88L41.89 7.88Q42.65 7.88 43.09 7.53Q43.54 7.18 43.54 6.59Q43.54 6.00 43.09 5.65Q42.65 5.30 41.89 5.30L41.89 5.30Q41.54 5.30 41.18 5.37Q40.82 5.43 40.46 5.58L40.46 5.58Z"></path></svg>