<svg height="16.296875" width="43.859375" xmlns="http://www.w3.org/2000/svg" ><path d="M1.30 3.17L2.56 3.17L2.56 5.34L5.15 5.34L5.15 6.32L2.56 6.32L2.56 10.47Q2.56 11.41 2.82 11.68Q3.08 11.94 3.86 11.94L3.86 11.94L5.15 11.94L5.15 13.00L3.86 13.00Q2.41 13.00 1.85 12.45Q1.30 11.91 1.30 10.47L1.30 10.47L1.30 6.32L0.38 6.32L0.38 5.34L1.30 5.34L1.30 3.17ZM11.69 5.56L11.69 5.56L11.69 6.75Q11.16 6.48 10.58 6.34Q10.01 6.21 9.39 6.21L9.39 6.21Q8.46 6.21 7.99 6.49Q7.52 6.78 7.52 7.36L7.52 7.36Q7.52 7.79 7.85 8.04Q8.19 8.29 9.20 8.52L9.20 8.52L9.63 8.61Q10.97 8.90 11.54 9.42Q12.10 9.95 12.10 10.88L12.10 10.88Q12.10 11.95 11.26 12.57Q10.41 13.19 8.93 13.19L8.93 13.19Q8.32 13.19 7.65 13.07Q6.99 12.95 6.25 12.71L6.25 12.71L6.25 11.42Q6.95 11.78 7.62 11.96Q8.30 12.14 8.96 12.14L8.96 12.14Q9.85 12.14 10.33 11.84Q10.81 11.53 10.81 10.98L10.81 10.98Q10.81 10.47 10.46 10.19Q10.12 9.92 8.95 9.67L8.95 9.67L8.51 9.56Q7.34 9.32 6.82 8.81Q6.30 8.30 6.30 7.41L6.30 7.41Q6.30 6.33 7.07 5.74Q7.83 5.15 9.24 5.15L9.24 5.15Q9.94 5.15 10.55 5.26Q11.17 5.36 11.69 5.56ZM17.62 5.84L17.62 5.84L17.62 8.43L16.83 8.43L16.83 5.87Q16.83 5.26 16.56 4.95Q16.30 4.65 15.76 4.65L15.76 4.65Q15.12 4.65 14.75 5.01Q14.38 5.38 14.38 6.01L14.38 6.01L14.38 8.43L13.58 8.43L13.58 2.47L14.38 2.47L14.38 4.81Q14.66 4.42 15.05 4.23Q15.44 4.04 15.94 4.04L15.94 4.04Q16.77 4.04 17.20 4.50Q17.62 4.96 17.62 5.84ZM24.49 9.15L23.24 9.15Q21.72 9.15 21.13 9.50Q20.54 9.84 20.54 10.68L20.54 10.68Q20.54 11.35 20.98 11.75Q21.42 12.14 22.18 12.14L22.18 12.14Q23.23 12.14 23.86 11.40Q24.49 10.66 24.49 9.43L24.49 9.43L24.49 9.15ZM25.75 8.63L25.75 8.63L25.75 13.00L24.49 13.00L24.49 11.83Q24.06 12.53 23.42 12.86Q22.78 13.19 21.85 13.19L21.85 13.19Q20.67 13.19 19.98 12.53Q19.28 11.87 19.28 10.77L19.28 10.77Q19.28 9.47 20.15 8.82Q21.01 8.16 22.73 8.16L22.73 8.16L24.49 8.16L24.49 8.04Q24.49 7.17 23.92 6.70Q23.35 6.22 22.32 6.22L22.32 6.22Q21.66 6.22 21.04 6.38Q20.42 6.54 19.84 6.85L19.84 6.85L19.84 5.69Q20.54 5.42 21.18 5.29Q21.83 5.15 22.45 5.15L22.45 5.15Q24.11 5.15 24.93 6.02Q25.75 6.88 25.75 8.63ZM23.48 3.63L23.48 3.63L23.09 3.25Q22.94 3.12 22.83 3.05Q22.72 2.99 22.63 2.99L22.63 2.99Q22.37 2.99 22.24 3.24Q22.12 3.49 22.11 4.05L22.11 4.05L21.25 4.05Q21.27 3.12 21.62 2.62Q21.96 2.12 22.59 2.12L22.59 2.12Q22.85 2.12 23.06 2.21Q23.28 2.31 23.54 2.54L23.54 2.54L23.93 2.91Q24.08 3.05 24.19 3.11Q24.30 3.18 24.39 3.18L24.39 3.18Q24.65 3.18 24.77 2.93Q24.90 2.68 24.91 2.12L24.91 2.12L25.76 2.12Q25.75 3.04 25.40 3.54Q25.05 4.05 24.43 4.05L24.43 4.05Q24.17 4.05 23.95 3.95Q23.73 3.86 23.48 3.63ZM30.60 5.34L30.60 5.34Q31.23 5.46 31.58 5.83Q31.92 6.21 31.92 6.77L31.92 6.77Q31.92 7.62 31.27 8.07Q30.63 8.53 29.42 8.53L29.42 8.53Q29.03 8.53 28.60 8.46Q28.17 8.39 27.69 8.25L27.69 8.25L27.69 7.42Q28.05 7.61 28.45 7.70Q28.86 7.79 29.32 7.79L29.32 7.79Q30.06 7.79 30.47 7.52Q30.88 7.25 30.88 6.77L30.88 6.77Q30.88 6.26 30.51 6.00Q30.13 5.74 29.39 5.74L29.39 5.74L28.80 5.74L28.80 5.00L29.44 5.00Q30.08 5.00 30.42 4.79Q30.75 4.57 30.75 4.16L30.75 4.16Q30.75 3.77 30.41 3.56Q30.06 3.35 29.42 3.35L29.42 3.35Q29.14 3.35 28.79 3.41Q28.44 3.47 27.89 3.63L27.89 3.63L27.89 2.84Q28.39 2.73 28.83 2.67Q29.26 2.60 29.64 2.60L29.64 2.60Q30.63 2.60 31.20 3.01Q31.78 3.41 31.78 4.09L31.78 4.09Q31.78 4.56 31.47 4.89Q31.17 5.22 30.60 5.34ZM36.22 5.34L36.22 5.34Q36.85 5.46 37.19 5.83Q37.54 6.21 37.54 6.77L37.54 6.77Q37.54 7.62 36.89 8.07Q36.24 8.53 35.03 8.53L35.03 8.53Q34.64 8.53 34.21 8.46Q33.78 8.39 33.30 8.25L33.30 8.25L33.30 7.42Q33.66 7.61 34.07 7.70Q34.47 7.79 34.93 7.79L34.93 7.79Q35.68 7.79 36.09 7.52Q36.50 7.25 36.50 6.77L36.50 6.77Q36.50 6.26 36.12 6.00Q35.74 5.74 35 5.74L35 5.74L34.41 5.74L34.41 5.00L35.05 5.00Q35.70 5.00 36.03 4.79Q36.36 4.57 36.36 4.16L36.36 4.16Q36.36 3.77 36.02 3.56Q35.68 3.35 35.03 3.35L35.03 3.35Q34.75 3.35 34.41 3.41Q34.06 3.47 33.50 3.63L33.50 3.63L33.50 2.84Q34.00 2.73 34.44 2.67Q34.88 2.60 35.25 2.60L35.25 2.60Q36.24 2.60 36.81 3.01Q37.39 3.41 37.39 4.09L37.39 4.09Q37.39 4.56 37.08 4.89Q36.78 5.22 36.22 5.34ZM41.51 6.41L41.51 3.55L39.40 6.41L41.51 6.41ZM38.68 6.33L41.36 2.72L42.49 2.72L42.49 6.41L43.42 6.41L43.42 7.16L42.49 7.16L42.49 8.43L41.51 8.43L41.51 7.16L38.68 7.16L38.68 6.33Z"></path></svg>