<svg height="16.296875" width="37.3583984375" xmlns="http://www.w3.org/2000/svg" ><path d="M1.30 3.17L2.56 3.17L2.56 5.34L5.15 5.34L5.15 6.32L2.56 6.32L2.56 10.47Q2.56 11.41 2.82 11.68Q3.08 11.94 3.86 11.94L3.86 11.94L5.15 11.94L5.15 13.00L3.86 13.00Q2.41 13.00 1.85 12.45Q1.30 11.91 1.30 10.47L1.30 10.47L1.30 6.32L0.38 6.32L0.38 5.34L1.30 5.34L1.30 3.17ZM11.69 5.56L11.69 5.56L11.69 6.75Q11.16 6.48 10.58 6.34Q10.01 6.21 9.39 6.21L9.39 6.21Q8.46 6.21 7.99 6.49Q7.52 6.78 7.52 7.36L7.52 7.36Q7.52 7.79 7.85 8.04Q8.19 8.29 9.20 8.52L9.20 8.52L9.63 8.61Q10.97 8.90 11.54 9.42Q12.10 9.95 12.10 10.88L12.10 10.88Q12.10 11.95 11.26 12.57Q10.41 13.19 8.93 13.19L8.93 13.19Q8.32 13.19 7.65 13.07Q6.99 12.95 6.25 12.71L6.25 12.71L6.25 11.42Q6.95 11.78 7.62 11.96Q8.30 12.14 8.96 12.14L8.96 12.14Q9.85 12.14 10.33 11.84Q10.81 11.53 10.81 10.98L10.81 10.98Q10.81 10.47 10.46 10.19Q10.12 9.92 8.95 9.67L8.95 9.67L8.51 9.56Q7.34 9.32 6.82 8.81Q6.30 8.30 6.30 7.41L6.30 7.41Q6.30 6.33 7.07 5.74Q7.83 5.15 9.24 5.15L9.24 5.15Q9.94 5.15 10.55 5.26Q11.17 5.36 11.69 5.56ZM17.62 5.84L17.62 5.84L17.62 8.43L16.83 8.43L16.83 5.87Q16.83 5.26 16.56 4.95Q16.30 4.65 15.76 4.65L15.76 4.65Q15.12 4.65 14.75 5.01Q14.38 5.38 14.38 6.01L14.38 6.01L14.38 8.43L13.58 8.43L13.58 2.47L14.38 2.47L14.38 4.81Q14.66 4.42 15.05 4.23Q15.44 4.04 15.94 4.04L15.94 4.04Q16.77 4.04 17.20 4.50Q17.62 4.96 17.62 5.84ZM19.31 6.81L19.31 5.65Q19.84 5.40 20.40 5.28Q20.97 5.15 21.60 5.15L21.60 5.15Q23.33 5.15 24.35 6.24Q25.37 7.33 25.37 9.17L25.37 9.17Q25.37 11.05 24.34 12.12Q23.31 13.19 21.52 13.19L21.52 13.19Q20.94 13.19 20.38 13.07Q19.83 12.95 19.31 12.71L19.31 12.71L19.31 11.54Q19.84 11.83 20.38 11.98Q20.92 12.13 21.46 12.13L21.46 12.13Q22.69 12.13 23.37 11.35Q24.04 10.58 24.04 9.17L24.04 9.17Q24.04 7.77 23.37 7.00Q22.69 6.22 21.46 6.22L21.46 6.22Q20.92 6.22 20.38 6.37Q19.84 6.51 19.31 6.81L19.31 6.81ZM27.10 5.58L27.10 2.72L30.59 2.72L30.59 3.37L27.92 3.37L27.92 4.76Q28.11 4.70 28.31 4.68L28.31 4.68Q28.50 4.65 28.69 4.65L28.69 4.65Q29.79 4.65 30.43 5.17L30.43 5.17Q31.08 5.69 31.08 6.59L31.08 6.59Q31.08 7.51 30.41 8.03L30.41 8.03Q29.76 8.53 28.55 8.53L28.55 8.53Q28.14 8.53 27.71 8.47Q27.28 8.41 26.83 8.29L26.83 8.29L26.83 7.51Q27.22 7.70 27.64 7.79L27.64 7.79Q28.07 7.88 28.54 7.88L28.54 7.88Q29.30 7.88 29.74 7.53Q30.19 7.18 30.19 6.59Q30.19 6.00 29.74 5.65Q29.30 5.30 28.54 5.30L28.54 5.30Q28.18 5.30 27.83 5.37Q27.47 5.43 27.10 5.58L27.10 5.58ZM35.33 5.34L35.33 5.34Q35.96 5.46 36.30 5.83Q36.65 6.21 36.65 6.77L36.65 6.77Q36.65 7.62 36.00 8.07Q35.35 8.53 34.14 8.53L34.14 8.53Q33.75 8.53 33.32 8.46Q32.89 8.39 32.42 8.25L32.42 8.25L32.42 7.42Q32.77 7.61 33.18 7.70Q33.58 7.79 34.04 7.79L34.04 7.79Q34.79 7.79 35.20 7.52Q35.61 7.25 35.61 6.77L35.61 6.77Q35.61 6.26 35.23 6.00Q34.85 5.74 34.11 5.74L34.11 5.74L33.52 5.74L33.52 5.00L34.17 5.00Q34.81 5.00 35.14 4.79Q35.47 4.57 35.47 4.16L35.47 4.16Q35.47 3.77 35.13 3.56Q34.79 3.35 34.14 3.35L34.14 3.35Q33.87 3.35 33.52 3.41Q33.17 3.47 32.61 3.63L32.61 3.63L32.61 2.84Q33.11 2.73 33.55 2.67Q33.99 2.60 34.36 2.60L34.36 2.60Q35.35 2.60 35.93 3.01Q36.50 3.41 36.50 4.09L36.50 4.09Q36.50 4.56 36.20 4.89Q35.89 5.22 35.33 5.34Z"></path></svg>