<svg height="16.296875" width="37.953125" xmlns="http://www.w3.org/2000/svg" ><path d="M1.30 3.17L2.56 3.17L2.56 5.34L5.15 5.34L5.15 6.32L2.56 6.32L2.56 10.47Q2.56 11.41 2.82 11.68Q3.08 11.94 3.86 11.94L3.86 11.94L5.15 11.94L5.15 13.00L3.86 13.00Q2.41 13.00 1.85 12.45Q1.30 11.91 1.30 10.47L1.30 10.47L1.30 6.32L0.38 6.32L0.38 5.34L1.30 5.34L1.30 3.17ZM11.69 5.56L11.69 5.56L11.69 6.75Q11.16 6.48 10.58 6.34Q10.01 6.21 9.39 6.21L9.39 6.21Q8.46 6.21 7.99 6.49Q7.52 6.78 7.52 7.36L7.52 7.36Q7.52 7.79 7.85 8.04Q8.19 8.29 9.20 8.52L9.20 8.52L9.63 8.61Q10.97 8.90 11.54 9.42Q12.10 9.95 12.10 10.88L12.10 10.88Q12.10 11.95 11.26 12.57Q10.41 13.19 8.93 13.19L8.93 13.19Q8.32 13.19 7.65 13.07Q6.99 12.95 6.25 12.71L6.25 12.71L6.25 11.42Q6.95 11.78 7.62 11.96Q8.30 12.14 8.96 12.14L8.96 12.14Q9.85 12.14 10.33 11.84Q10.81 11.53 10.81 10.98L10.81 10.98Q10.81 10.47 10.46 10.19Q10.12 9.92 8.95 9.67L8.95 9.67L8.51 9.56Q7.34 9.32 6.82 8.81Q6.30 8.30 6.30 7.41L6.30 7.41Q6.30 6.33 7.07 5.74Q7.83 5.15 9.24 5.15L9.24 5.15Q9.94 5.15 10.55 5.26Q11.17 5.36 11.69 5.56ZM17.62 5.84L17.62 5.84L17.62 8.43L16.83 8.43L16.83 5.87Q16.83 5.26 16.56 4.95Q16.30 4.65 15.76 4.65L15.76 4.65Q15.12 4.65 14.75 5.01Q14.38 5.38 14.38 6.01L14.38 6.01L14.38 8.43L13.58 8.43L13.58 2.47L14.38 2.47L14.38 4.81Q14.66 4.42 15.05 4.23Q15.44 4.04 15.94 4.04L15.94 4.04Q16.77 4.04 17.20 4.50Q17.62 4.96 17.62 5.84ZM23.44 5.34L26.31 13.00L24.98 13.00L24.28 11.12L20.89 11.12L20.19 13.00L18.86 13.00L21.73 5.34L23.44 5.34ZM22.59 6.57L21.27 10.10L23.90 10.10L22.59 6.57ZM27.70 5.58L27.70 2.72L31.19 2.72L31.19 3.37L28.51 3.37L28.51 4.76Q28.70 4.70 28.90 4.68L28.90 4.68Q29.09 4.65 29.29 4.65L29.29 4.65Q30.39 4.65 31.03 5.17L31.03 5.17Q31.67 5.69 31.67 6.59L31.67 6.59Q31.67 7.51 31.01 8.03L31.01 8.03Q30.35 8.53 29.15 8.53L29.15 8.53Q28.74 8.53 28.31 8.47Q27.88 8.41 27.43 8.29L27.43 8.29L27.43 7.51Q27.82 7.70 28.24 7.79L28.24 7.79Q28.66 7.88 29.13 7.88L29.13 7.88Q29.89 7.88 30.34 7.53Q30.78 7.18 30.78 6.59Q30.78 6.00 30.34 5.65Q29.89 5.30 29.13 5.30L29.13 5.30Q28.78 5.30 28.42 5.37Q28.07 5.43 27.70 5.58L27.70 5.58ZM35.92 5.34L35.92 5.34Q36.55 5.46 36.90 5.83Q37.24 6.21 37.24 6.77L37.24 6.77Q37.24 7.62 36.59 8.07Q35.94 8.53 34.73 8.53L34.73 8.53Q34.34 8.53 33.92 8.46Q33.49 8.39 33.01 8.25L33.01 8.25L33.01 7.42Q33.37 7.61 33.77 7.70Q34.18 7.79 34.64 7.79L34.64 7.79Q35.38 7.79 35.79 7.52Q36.20 7.25 36.20 6.77L36.20 6.77Q36.20 6.26 35.82 6.00Q35.44 5.74 34.71 5.74L34.71 5.74L34.12 5.74L34.12 5.00L34.76 5.00Q35.40 5.00 35.73 4.79Q36.07 4.57 36.07 4.16L36.07 4.16Q36.07 3.77 35.72 3.56Q35.38 3.35 34.73 3.35L34.73 3.35Q34.46 3.35 34.11 3.41Q33.76 3.47 33.21 3.63L33.21 3.63L33.21 2.84Q33.71 2.73 34.15 2.67Q34.58 2.60 34.96 2.60L34.96 2.60Q35.94 2.60 36.52 3.01Q37.10 3.41 37.10 4.09L37.10 4.09Q37.10 4.56 36.79 4.89Q36.48 5.22 35.92 5.34Z"></path></svg>