<svg height="16.296875" width="43.5654296875" xmlns="http://www.w3.org/2000/svg" ><path d="M1.30 3.17L2.56 3.17L2.56 5.34L5.15 5.34L5.15 6.32L2.56 6.32L2.56 10.47Q2.56 11.41 2.82 11.68Q3.08 11.94 3.86 11.94L3.86 11.94L5.15 11.94L5.15 13.00L3.86 13.00Q2.41 13.00 1.85 12.45Q1.30 11.91 1.30 10.47L1.30 10.47L1.30 6.32L0.38 6.32L0.38 5.34L1.30 5.34L1.30 3.17ZM11.69 5.56L11.69 5.56L11.69 6.75Q11.16 6.48 10.58 6.34Q10.01 6.21 9.39 6.21L9.39 6.21Q8.46 6.21 7.99 6.49Q7.52 6.78 7.52 7.36L7.52 7.36Q7.52 7.79 7.85 8.04Q8.19 8.29 9.20 8.52L9.20 8.52L9.63 8.61Q10.97 8.90 11.54 9.42Q12.10 9.95 12.10 10.88L12.10 10.88Q12.10 11.95 11.26 12.57Q10.41 13.19 8.93 13.19L8.93 13.19Q8.32 13.19 7.65 13.07Q6.99 12.95 6.25 12.71L6.25 12.71L6.25 11.42Q6.95 11.78 7.62 11.96Q8.30 12.14 8.96 12.14L8.96 12.14Q9.85 12.14 10.33 11.84Q10.81 11.53 10.81 10.98L10.81 10.98Q10.81 10.47 10.46 10.19Q10.12 9.92 8.95 9.67L8.95 9.67L8.51 9.56Q7.34 9.32 6.82 8.81Q6.30 8.30 6.30 7.41L6.30 7.41Q6.30 6.33 7.07 5.74Q7.83 5.15 9.24 5.15L9.24 5.15Q9.94 5.15 10.55 5.26Q11.17 5.36 11.69 5.56ZM17.62 5.84L17.62 5.84L17.62 8.43L16.83 8.43L16.83 5.87Q16.83 5.26 16.56 4.95Q16.30 4.65 15.76 4.65L15.76 4.65Q15.12 4.65 14.75 5.01Q14.38 5.38 14.38 6.01L14.38 6.01L14.38 8.43L13.58 8.43L13.58 2.47L14.38 2.47L14.38 4.81Q14.66 4.42 15.05 4.23Q15.44 4.04 15.94 4.04L15.94 4.04Q16.77 4.04 17.20 4.50Q17.62 4.96 17.62 5.84ZM23.44 5.34L26.31 13.00L24.98 13.00L24.28 11.12L20.89 11.12L20.19 13.00L18.86 13.00L21.73 5.34L23.44 5.34ZM22.59 6.57L21.27 10.10L23.90 10.10L22.59 6.57ZM30.31 5.34L30.31 5.34Q30.94 5.46 31.28 5.83Q31.63 6.21 31.63 6.77L31.63 6.77Q31.63 7.62 30.98 8.07Q30.33 8.53 29.12 8.53L29.12 8.53Q28.73 8.53 28.30 8.46Q27.88 8.39 27.40 8.25L27.40 8.25L27.40 7.42Q27.75 7.61 28.16 7.70Q28.57 7.79 29.03 7.79L29.03 7.79Q29.77 7.79 30.18 7.52Q30.59 7.25 30.59 6.77L30.59 6.77Q30.59 6.26 30.21 6.00Q29.83 5.74 29.09 5.74L29.09 5.74L28.51 5.74L28.51 5.00L29.15 5.00Q29.79 5.00 30.12 4.79Q30.45 4.57 30.45 4.16L30.45 4.16Q30.45 3.77 30.11 3.56Q29.77 3.35 29.12 3.35L29.12 3.35Q28.85 3.35 28.50 3.41Q28.15 3.47 27.60 3.63L27.60 3.63L27.60 2.84Q28.10 2.73 28.53 2.67Q28.97 2.60 29.35 2.60L29.35 2.60Q30.33 2.60 30.91 3.01Q31.49 3.41 31.49 4.09L31.49 4.09Q31.49 4.56 31.18 4.89Q30.87 5.22 30.31 5.34ZM35.92 5.34L35.92 5.34Q36.55 5.46 36.90 5.83Q37.24 6.21 37.24 6.77L37.24 6.77Q37.24 7.62 36.59 8.07Q35.94 8.53 34.73 8.53L34.73 8.53Q34.34 8.53 33.92 8.46Q33.49 8.39 33.01 8.25L33.01 8.25L33.01 7.42Q33.37 7.61 33.77 7.70Q34.18 7.79 34.64 7.79L34.64 7.79Q35.38 7.79 35.79 7.52Q36.20 7.25 36.20 6.77L36.20 6.77Q36.20 6.26 35.82 6.00Q35.44 5.74 34.71 5.74L34.71 5.74L34.12 5.74L34.12 5.00L34.76 5.00Q35.40 5.00 35.73 4.79Q36.07 4.57 36.07 4.16L36.07 4.16Q36.07 3.77 35.72 3.56Q35.38 3.35 34.73 3.35L34.73 3.35Q34.46 3.35 34.11 3.41Q33.76 3.47 33.21 3.63L33.21 3.63L33.21 2.84Q33.71 2.73 34.15 2.67Q34.58 2.60 34.96 2.60L34.96 2.60Q35.94 2.60 36.52 3.01Q37.10 3.41 37.10 4.09L37.10 4.09Q37.10 4.56 36.79 4.89Q36.48 5.22 35.92 5.34ZM41.21 6.41L41.21 3.55L39.10 6.41L41.21 6.41ZM38.38 6.33L41.06 2.72L42.20 2.72L42.20 6.41L43.12 6.41L43.12 7.16L42.20 7.16L42.20 8.43L41.21 8.43L41.21 7.16L38.38 7.16L38.38 6.33Z"></path></svg>