<svg height="16.296875" width="45.4248046875" xmlns="http://www.w3.org/2000/svg" ><path d="M1.30 3.17L2.56 3.17L2.56 5.34L5.15 5.34L5.15 6.32L2.56 6.32L2.56 10.47Q2.56 11.41 2.82 11.68Q3.08 11.94 3.86 11.94L3.86 11.94L5.15 11.94L5.15 13.00L3.86 13.00Q2.41 13.00 1.85 12.45Q1.30 11.91 1.30 10.47L1.30 10.47L1.30 6.32L0.38 6.32L0.38 5.34L1.30 5.34L1.30 3.17ZM11.69 5.56L11.69 5.56L11.69 6.75Q11.16 6.48 10.58 6.34Q10.01 6.21 9.39 6.21L9.39 6.21Q8.46 6.21 7.99 6.49Q7.52 6.78 7.52 7.36L7.52 7.36Q7.52 7.79 7.85 8.04Q8.19 8.29 9.20 8.52L9.20 8.52L9.63 8.61Q10.97 8.90 11.54 9.42Q12.10 9.95 12.10 10.88L12.10 10.88Q12.10 11.95 11.26 12.57Q10.41 13.19 8.93 13.19L8.93 13.19Q8.32 13.19 7.65 13.07Q6.99 12.95 6.25 12.71L6.25 12.71L6.25 11.42Q6.95 11.78 7.62 11.96Q8.30 12.14 8.96 12.14L8.96 12.14Q9.85 12.14 10.33 11.84Q10.81 11.53 10.81 10.98L10.81 10.98Q10.81 10.47 10.46 10.19Q10.12 9.92 8.95 9.67L8.95 9.67L8.51 9.56Q7.34 9.32 6.82 8.81Q6.30 8.30 6.30 7.41L6.30 7.41Q6.30 6.33 7.07 5.74Q7.83 5.15 9.24 5.15L9.24 5.15Q9.94 5.15 10.55 5.26Q11.17 5.36 11.69 5.56ZM17.62 5.84L17.62 5.84L17.62 8.43L16.83 8.43L16.83 5.87Q16.83 5.26 16.56 4.95Q16.30 4.65 15.76 4.65L15.76 4.65Q15.12 4.65 14.75 5.01Q14.38 5.38 14.38 6.01L14.38 6.01L14.38 8.43L13.58 8.43L13.58 2.47L14.38 2.47L14.38 4.81Q14.66 4.42 15.05 4.23Q15.44 4.04 15.94 4.04L15.94 4.04Q16.77 4.04 17.20 4.50Q17.62 4.96 17.62 5.84ZM19.22 9.50L19.22 9.50L19.22 8.88L25.00 8.88Q24.92 7.58 24.22 6.90Q23.52 6.22 22.26 6.22L22.26 6.22Q21.54 6.22 20.86 6.40Q20.18 6.58 19.51 6.93L19.51 6.93L19.51 5.74Q20.19 5.46 20.90 5.30Q21.61 5.15 22.34 5.15L22.34 5.15Q24.17 5.15 25.24 6.22Q26.31 7.29 26.31 9.11L26.31 9.11Q26.31 10.99 25.30 12.09Q24.28 13.19 22.56 13.19L22.56 13.19Q21.01 13.19 20.11 12.20Q19.22 11.20 19.22 9.50ZM24.96 9.86L20.47 9.86Q20.49 10.90 21.05 11.51Q21.62 12.13 22.54 12.13L22.54 12.13Q23.60 12.13 24.23 11.53Q24.86 10.94 24.96 9.86L24.96 9.86ZM29.39 13.00L29.38 7.54L29.81 7.54Q31.12 7.54 31.71 6.76L31.71 6.76Q32.11 6.24 32.11 5.57L32.11 5.57Q32.10 4.66 31.71 4.22L31.71 4.22Q31.04 3.44 29.81 3.44L29.81 3.44Q29.26 3.44 28.72 3.59L28.72 3.59Q28.19 3.73 27.66 4.03L27.66 4.03L27.66 2.85Q28.18 2.61 28.73 2.50L28.73 2.50Q29.29 2.37 29.87 2.37L29.87 2.37Q31.75 2.37 32.69 3.45L32.69 3.45Q33.43 4.30 33.43 5.57L33.43 5.57Q33.43 6.73 32.70 7.52L32.70 7.52Q31.93 8.33 30.77 8.54L30.77 8.54L30.77 13.00L29.39 13.00ZM35.17 5.58L35.17 2.72L38.66 2.72L38.66 3.37L35.98 3.37L35.98 4.76Q36.18 4.70 36.37 4.68L36.37 4.68Q36.57 4.65 36.76 4.65L36.76 4.65Q37.86 4.65 38.50 5.17L38.50 5.17Q39.14 5.69 39.14 6.59L39.14 6.59Q39.14 7.51 38.48 8.03L38.48 8.03Q37.82 8.53 36.62 8.53L36.62 8.53Q36.21 8.53 35.78 8.47Q35.35 8.41 34.90 8.29L34.90 8.29L34.90 7.51Q35.29 7.70 35.71 7.79L35.71 7.79Q36.13 7.88 36.61 7.88L36.61 7.88Q37.37 7.88 37.81 7.53Q38.25 7.18 38.25 6.59Q38.25 6.00 37.81 5.65Q37.37 5.30 36.61 5.30L36.61 5.30Q36.25 5.30 35.90 5.37Q35.54 5.43 35.17 5.58L35.17 5.58ZM40.78 5.58L40.78 2.72L44.27 2.72L44.27 3.37L41.60 3.37L41.60 4.76Q41.79 4.70 41.99 4.68L41.99 4.68Q42.18 4.65 42.37 4.65L42.37 4.65Q43.47 4.65 44.11 5.17L44.11 5.17Q44.75 5.69 44.75 6.59L44.75 6.59Q44.75 7.51 44.09 8.03L44.09 8.03Q43.44 8.53 42.23 8.53L42.23 8.53Q41.82 8.53 41.39 8.47Q40.96 8.41 40.51 8.29L40.51 8.29L40.51 7.51Q40.90 7.70 41.32 7.79L41.32 7.79Q41.75 7.88 42.22 7.88L42.22 7.88Q42.98 7.88 43.42 7.53Q43.87 7.18 43.87 6.59Q43.87 6.00 43.42 5.65Q42.98 5.30 42.22 5.30L42.22 5.30Q41.86 5.30 41.51 5.37Q41.15 5.43 40.78 5.58L40.78 5.58Z"></path></svg>