<svg height="16.296875" width="42.150390625" xmlns="http://www.w3.org/2000/svg" ><path d="M1.30 3.17L2.56 3.17L2.56 5.34L5.15 5.34L5.15 6.32L2.56 6.32L2.56 10.47Q2.56 11.41 2.82 11.68Q3.08 11.94 3.86 11.94L3.86 11.94L5.15 11.94L5.15 13.00L3.86 13.00Q2.41 13.00 1.85 12.45Q1.30 11.91 1.30 10.47L1.30 10.47L1.30 6.32L0.38 6.32L0.38 5.34L1.30 5.34L1.30 3.17ZM11.69 5.56L11.69 5.56L11.69 6.75Q11.16 6.48 10.58 6.34Q10.01 6.21 9.39 6.21L9.39 6.21Q8.46 6.21 7.99 6.49Q7.52 6.78 7.52 7.36L7.52 7.36Q7.52 7.79 7.85 8.04Q8.19 8.29 9.20 8.52L9.20 8.52L9.63 8.61Q10.97 8.90 11.54 9.42Q12.10 9.95 12.10 10.88L12.10 10.88Q12.10 11.95 11.26 12.57Q10.41 13.19 8.93 13.19L8.93 13.19Q8.32 13.19 7.65 13.07Q6.99 12.95 6.25 12.71L6.25 12.71L6.25 11.42Q6.95 11.78 7.62 11.96Q8.30 12.14 8.96 12.14L8.96 12.14Q9.85 12.14 10.33 11.84Q10.81 11.53 10.81 10.98L10.81 10.98Q10.81 10.47 10.46 10.19Q10.12 9.92 8.95 9.67L8.95 9.67L8.51 9.56Q7.34 9.32 6.82 8.81Q6.30 8.30 6.30 7.41L6.30 7.41Q6.30 6.33 7.07 5.74Q7.83 5.15 9.24 5.15L9.24 5.15Q9.94 5.15 10.55 5.26Q11.17 5.36 11.69 5.56ZM17.62 5.84L17.62 5.84L17.62 8.43L16.83 8.43L16.83 5.87Q16.83 5.26 16.56 4.95Q16.30 4.65 15.76 4.65L15.76 4.65Q15.12 4.65 14.75 5.01Q14.38 5.38 14.38 6.01L14.38 6.01L14.38 8.43L13.58 8.43L13.58 2.47L14.38 2.47L14.38 4.81Q14.66 4.42 15.05 4.23Q15.44 4.04 15.94 4.04L15.94 4.04Q16.77 4.04 17.20 4.50Q17.62 4.96 17.62 5.84ZM19.71 13.00L19.71 5.34L24.55 5.34L24.55 6.35L20.99 6.35L20.99 8.41L24.40 8.41L24.40 9.42L20.99 9.42L20.99 11.99L24.64 11.99L24.64 13.00L19.71 13.00ZM28.90 5.34L28.90 5.34Q29.52 5.46 29.87 5.83Q30.21 6.21 30.21 6.77L30.21 6.77Q30.21 7.62 29.57 8.07Q28.92 8.53 27.71 8.53L27.71 8.53Q27.32 8.53 26.89 8.46Q26.46 8.39 25.98 8.25L25.98 8.25L25.98 7.42Q26.34 7.61 26.75 7.70Q27.15 7.79 27.61 7.79L27.61 7.79Q28.36 7.79 28.77 7.52Q29.18 7.25 29.18 6.77L29.18 6.77Q29.18 6.26 28.80 6.00Q28.42 5.74 27.68 5.74L27.68 5.74L27.09 5.74L27.09 5.00L27.73 5.00Q28.38 5.00 28.71 4.79Q29.04 4.57 29.04 4.16L29.04 4.16Q29.04 3.77 28.70 3.56Q28.36 3.35 27.71 3.35L27.71 3.35Q27.43 3.35 27.08 3.41Q26.74 3.47 26.18 3.63L26.18 3.63L26.18 2.84Q26.68 2.73 27.12 2.67Q27.56 2.60 27.93 2.60L27.93 2.60Q28.92 2.60 29.49 3.01Q30.07 3.41 30.07 4.09L30.07 4.09Q30.07 4.56 29.76 4.89Q29.46 5.22 28.90 5.34ZM34.51 5.34L34.51 5.34Q35.14 5.46 35.48 5.83Q35.83 6.21 35.83 6.77L35.83 6.77Q35.83 7.62 35.18 8.07Q34.53 8.53 33.32 8.53L33.32 8.53Q32.93 8.53 32.50 8.46Q32.07 8.39 31.60 8.25L31.60 8.25L31.60 7.42Q31.95 7.61 32.36 7.70Q32.76 7.79 33.22 7.79L33.22 7.79Q33.97 7.79 34.38 7.52Q34.79 7.25 34.79 6.77L34.79 6.77Q34.79 6.26 34.41 6.00Q34.03 5.74 33.29 5.74L33.29 5.74L32.70 5.74L32.70 5.00L33.35 5.00Q33.99 5.00 34.32 4.79Q34.65 4.57 34.65 4.16L34.65 4.16Q34.65 3.77 34.31 3.56Q33.97 3.35 33.32 3.35L33.32 3.35Q33.04 3.35 32.70 3.41Q32.35 3.47 31.79 3.63L31.79 3.63L31.79 2.84Q32.29 2.73 32.73 2.67Q33.17 2.60 33.54 2.60L33.54 2.60Q34.53 2.60 35.11 3.01Q35.68 3.41 35.68 4.09L35.68 4.09Q35.68 4.56 35.38 4.89Q35.07 5.22 34.51 5.34ZM39.80 6.41L39.80 3.55L37.69 6.41L39.80 6.41ZM36.97 6.33L39.65 2.72L40.78 2.72L40.78 6.41L41.71 6.41L41.71 7.16L40.78 7.16L40.78 8.43L39.80 8.43L39.80 7.16L36.97 7.16L36.97 6.33Z"></path></svg>