<svg height="16.296875" width="52.7666015625" xmlns="http://www.w3.org/2000/svg" ><path d="M1.30 3.17L2.56 3.17L2.56 5.34L5.15 5.34L5.15 6.32L2.56 6.32L2.56 10.47Q2.56 11.41 2.82 11.68Q3.08 11.94 3.86 11.94L3.86 11.94L5.15 11.94L5.15 13.00L3.86 13.00Q2.41 13.00 1.85 12.45Q1.30 11.91 1.30 10.47L1.30 10.47L1.30 6.32L0.38 6.32L0.38 5.34L1.30 5.34L1.30 3.17ZM11.69 5.56L11.69 5.56L11.69 6.75Q11.16 6.48 10.58 6.34Q10.01 6.21 9.39 6.21L9.39 6.21Q8.46 6.21 7.99 6.49Q7.52 6.78 7.52 7.36L7.52 7.36Q7.52 7.79 7.85 8.04Q8.19 8.29 9.20 8.52L9.20 8.52L9.63 8.61Q10.97 8.90 11.54 9.42Q12.10 9.95 12.10 10.88L12.10 10.88Q12.10 11.95 11.26 12.57Q10.41 13.19 8.93 13.19L8.93 13.19Q8.32 13.19 7.65 13.07Q6.99 12.95 6.25 12.71L6.25 12.71L6.25 11.42Q6.95 11.78 7.62 11.96Q8.30 12.14 8.96 12.14L8.96 12.14Q9.85 12.14 10.33 11.84Q10.81 11.53 10.81 10.98L10.81 10.98Q10.81 10.47 10.46 10.19Q10.12 9.92 8.95 9.67L8.95 9.67L8.51 9.56Q7.34 9.32 6.82 8.81Q6.30 8.30 6.30 7.41L6.30 7.41Q6.30 6.33 7.07 5.74Q7.83 5.15 9.24 5.15L9.24 5.15Q9.94 5.15 10.55 5.26Q11.17 5.36 11.69 5.56ZM17.62 5.84L17.62 5.84L17.62 8.43L16.83 8.43L16.83 5.87Q16.83 5.26 16.56 4.95Q16.30 4.65 15.76 4.65L15.76 4.65Q15.12 4.65 14.75 5.01Q14.38 5.38 14.38 6.01L14.38 6.01L14.38 8.43L13.58 8.43L13.58 2.47L14.38 2.47L14.38 4.81Q14.66 4.42 15.05 4.23Q15.44 4.04 15.94 4.04L15.94 4.04Q16.77 4.04 17.20 4.50Q17.62 4.96 17.62 5.84ZM19.22 9.50L19.22 9.50L19.22 8.88L25.00 8.88Q24.92 7.58 24.22 6.90Q23.52 6.22 22.26 6.22L22.26 6.22Q21.54 6.22 20.86 6.40Q20.18 6.58 19.51 6.93L19.51 6.93L19.51 5.74Q20.19 5.46 20.90 5.30Q21.61 5.15 22.34 5.15L22.34 5.15Q24.17 5.15 25.24 6.22Q26.31 7.29 26.31 9.11L26.31 9.11Q26.31 10.99 25.30 12.09Q24.28 13.19 22.56 13.19L22.56 13.19Q21.01 13.19 20.11 12.20Q19.22 11.20 19.22 9.50ZM24.96 9.86L20.47 9.86Q20.49 10.90 21.05 11.51Q21.62 12.13 22.54 12.13L22.54 12.13Q23.60 12.13 24.23 11.53Q24.86 10.94 24.96 9.86L24.96 9.86ZM34.74 8.37L34.74 8.37L34.74 13.00L33.48 13.00L33.48 8.42Q33.48 7.33 33.06 6.79Q32.63 6.25 31.79 6.25L31.79 6.25Q30.77 6.25 30.18 6.90Q29.59 7.55 29.59 8.67L29.59 8.67L29.59 13.00L28.33 13.00L28.33 5.34L29.59 5.34L29.59 6.53Q30.04 5.84 30.66 5.50Q31.27 5.15 32.07 5.15L32.07 5.15Q33.39 5.15 34.06 5.97Q34.74 6.79 34.74 8.37ZM39.51 5.34L39.51 5.34Q40.14 5.46 40.49 5.83Q40.83 6.21 40.83 6.77L40.83 6.77Q40.83 7.62 40.18 8.07Q39.53 8.53 38.32 8.53L38.32 8.53Q37.93 8.53 37.51 8.46Q37.08 8.39 36.60 8.25L36.60 8.25L36.60 7.42Q36.96 7.61 37.36 7.70Q37.77 7.79 38.23 7.79L38.23 7.79Q38.97 7.79 39.38 7.52Q39.79 7.25 39.79 6.77L39.79 6.77Q39.79 6.26 39.41 6.00Q39.03 5.74 38.29 5.74L38.29 5.74L37.71 5.74L37.71 5.00L38.35 5.00Q38.99 5.00 39.32 4.79Q39.66 4.57 39.66 4.16L39.66 4.16Q39.66 3.77 39.31 3.56Q38.97 3.35 38.32 3.35L38.32 3.35Q38.05 3.35 37.70 3.41Q37.35 3.47 36.80 3.63L36.80 3.63L36.80 2.84Q37.30 2.73 37.73 2.67Q38.17 2.60 38.55 2.60L38.55 2.60Q39.53 2.60 40.11 3.01Q40.69 3.41 40.69 4.09L40.69 4.09Q40.69 4.56 40.38 4.89Q40.07 5.22 39.51 5.34ZM45.12 5.34L45.12 5.34Q45.75 5.46 46.10 5.83Q46.44 6.21 46.44 6.77L46.44 6.77Q46.44 7.62 45.79 8.07Q45.14 8.53 43.93 8.53L43.93 8.53Q43.54 8.53 43.12 8.46Q42.69 8.39 42.21 8.25L42.21 8.25L42.21 7.42Q42.57 7.61 42.97 7.70Q43.38 7.79 43.84 7.79L43.84 7.79Q44.58 7.79 44.99 7.52Q45.40 7.25 45.40 6.77L45.40 6.77Q45.40 6.26 45.02 6.00Q44.65 5.74 43.91 5.74L43.91 5.74L43.32 5.74L43.32 5.00L43.96 5.00Q44.60 5.00 44.94 4.79Q45.27 4.57 45.27 4.16L45.27 4.16Q45.27 3.77 44.93 3.56Q44.58 3.35 43.93 3.35L43.93 3.35Q43.66 3.35 43.31 3.41Q42.96 3.47 42.41 3.63L42.41 3.63L42.41 2.84Q42.91 2.73 43.35 2.67Q43.78 2.60 44.16 2.60L44.16 2.60Q45.14 2.60 45.72 3.01Q46.30 3.41 46.30 4.09L46.30 4.09Q46.30 4.56 45.99 4.89Q45.68 5.22 45.12 5.34ZM50.42 6.41L50.42 3.55L48.30 6.41L50.42 6.41ZM47.58 6.33L50.26 2.72L51.40 2.72L51.40 6.41L52.32 6.41L52.32 7.16L51.40 7.16L51.40 8.43L50.42 8.43L50.42 7.16L47.58 7.16L47.58 6.33Z"></path></svg>