<svg height="16.296875" width="36.5380859375" xmlns="http://www.w3.org/2000/svg" ><path d="M1.30 3.17L2.56 3.17L2.56 5.34L5.15 5.34L5.15 6.32L2.56 6.32L2.56 10.47Q2.56 11.41 2.82 11.68Q3.08 11.94 3.86 11.94L3.86 11.94L5.15 11.94L5.15 13.00L3.86 13.00Q2.41 13.00 1.85 12.45Q1.30 11.91 1.30 10.47L1.30 10.47L1.30 6.32L0.38 6.32L0.38 5.34L1.30 5.34L1.30 3.17ZM11.69 5.56L11.69 5.56L11.69 6.75Q11.16 6.48 10.58 6.34Q10.01 6.21 9.39 6.21L9.39 6.21Q8.46 6.21 7.99 6.49Q7.52 6.78 7.52 7.36L7.52 7.36Q7.52 7.79 7.85 8.04Q8.19 8.29 9.20 8.52L9.20 8.52L9.63 8.61Q10.97 8.90 11.54 9.42Q12.10 9.95 12.10 10.88L12.10 10.88Q12.10 11.95 11.26 12.57Q10.41 13.19 8.93 13.19L8.93 13.19Q8.32 13.19 7.65 13.07Q6.99 12.95 6.25 12.71L6.25 12.71L6.25 11.42Q6.95 11.78 7.62 11.96Q8.30 12.14 8.96 12.14L8.96 12.14Q9.85 12.14 10.33 11.84Q10.81 11.53 10.81 10.98L10.81 10.98Q10.81 10.47 10.46 10.19Q10.12 9.92 8.95 9.67L8.95 9.67L8.51 9.56Q7.34 9.32 6.82 8.81Q6.30 8.30 6.30 7.41L6.30 7.41Q6.30 6.33 7.07 5.74Q7.83 5.15 9.24 5.15L9.24 5.15Q9.94 5.15 10.55 5.26Q11.17 5.36 11.69 5.56ZM17.62 5.84L17.62 5.84L17.62 8.43L16.83 8.43L16.83 5.87Q16.83 5.26 16.56 4.95Q16.30 4.65 15.76 4.65L15.76 4.65Q15.12 4.65 14.75 5.01Q14.38 5.38 14.38 6.01L14.38 6.01L14.38 8.43L13.58 8.43L13.58 2.47L14.38 2.47L14.38 4.81Q14.66 4.42 15.05 4.23Q15.44 4.04 15.94 4.04L15.94 4.04Q16.77 4.04 17.20 4.50Q17.62 4.96 17.62 5.84ZM19.71 13.00L19.71 5.34L24.55 5.34L24.55 6.35L20.99 6.35L20.99 8.41L24.40 8.41L24.40 9.42L20.99 9.42L20.99 11.99L24.64 11.99L24.64 13.00L19.71 13.00ZM26.28 5.58L26.28 2.72L29.77 2.72L29.77 3.37L27.10 3.37L27.10 4.76Q27.29 4.70 27.49 4.68L27.49 4.68Q27.68 4.65 27.87 4.65L27.87 4.65Q28.97 4.65 29.61 5.17L29.61 5.17Q30.26 5.69 30.26 6.59L30.26 6.59Q30.26 7.51 29.59 8.03L29.59 8.03Q28.94 8.53 27.73 8.53L27.73 8.53Q27.32 8.53 26.89 8.47Q26.46 8.41 26.01 8.29L26.01 8.29L26.01 7.51Q26.40 7.70 26.82 7.79L26.82 7.79Q27.25 7.88 27.72 7.88L27.72 7.88Q28.48 7.88 28.92 7.53Q29.37 7.18 29.37 6.59Q29.37 6.00 28.92 5.65Q28.48 5.30 27.72 5.30L27.72 5.30Q27.36 5.30 27.01 5.37Q26.65 5.43 26.28 5.58L26.28 5.58ZM34.51 5.34L34.51 5.34Q35.14 5.46 35.48 5.83Q35.83 6.21 35.83 6.77L35.83 6.77Q35.83 7.62 35.18 8.07Q34.53 8.53 33.32 8.53L33.32 8.53Q32.93 8.53 32.50 8.46Q32.07 8.39 31.60 8.25L31.60 8.25L31.60 7.42Q31.95 7.61 32.36 7.70Q32.76 7.79 33.22 7.79L33.22 7.79Q33.97 7.79 34.38 7.52Q34.79 7.25 34.79 6.77L34.79 6.77Q34.79 6.26 34.41 6.00Q34.03 5.74 33.29 5.74L33.29 5.74L32.70 5.74L32.70 5.00L33.35 5.00Q33.99 5.00 34.32 4.79Q34.65 4.57 34.65 4.16L34.65 4.16Q34.65 3.77 34.31 3.56Q33.97 3.35 33.32 3.35L33.32 3.35Q33.04 3.35 32.70 3.41Q32.35 3.47 31.79 3.63L31.79 3.63L31.79 2.84Q32.29 2.73 32.73 2.67Q33.17 2.60 33.54 2.60L33.54 2.60Q34.53 2.60 35.11 3.01Q35.68 3.41 35.68 4.09L35.68 4.09Q35.68 4.56 35.38 4.89Q35.07 5.22 34.51 5.34Z"></path></svg>