<svg height="16.296875" width="38.0078125" xmlns="http://www.w3.org/2000/svg" ><path d="M1.30 3.17L2.56 3.17L2.56 5.34L5.15 5.34L5.15 6.32L2.56 6.32L2.56 10.47Q2.56 11.41 2.82 11.68Q3.08 11.94 3.86 11.94L3.86 11.94L5.15 11.94L5.15 13.00L3.86 13.00Q2.41 13.00 1.85 12.45Q1.30 11.91 1.30 10.47L1.30 10.47L1.30 6.32L0.38 6.32L0.38 5.34L1.30 5.34L1.30 3.17ZM11.69 5.56L11.69 5.56L11.69 6.75Q11.16 6.48 10.58 6.34Q10.01 6.21 9.39 6.21L9.39 6.21Q8.46 6.21 7.99 6.49Q7.52 6.78 7.52 7.36L7.52 7.36Q7.52 7.79 7.85 8.04Q8.19 8.29 9.20 8.52L9.20 8.52L9.63 8.61Q10.97 8.90 11.54 9.42Q12.10 9.95 12.10 10.88L12.10 10.88Q12.10 11.95 11.26 12.57Q10.41 13.19 8.93 13.19L8.93 13.19Q8.32 13.19 7.65 13.07Q6.99 12.95 6.25 12.71L6.25 12.71L6.25 11.42Q6.95 11.78 7.62 11.96Q8.30 12.14 8.96 12.14L8.96 12.14Q9.85 12.14 10.33 11.84Q10.81 11.53 10.81 10.98L10.81 10.98Q10.81 10.47 10.46 10.19Q10.12 9.92 8.95 9.67L8.95 9.67L8.51 9.56Q7.34 9.32 6.82 8.81Q6.30 8.30 6.30 7.41L6.30 7.41Q6.30 6.33 7.07 5.74Q7.83 5.15 9.24 5.15L9.24 5.15Q9.94 5.15 10.55 5.26Q11.17 5.36 11.69 5.56ZM17.62 5.84L17.62 5.84L17.62 8.43L16.83 8.43L16.83 5.87Q16.83 5.26 16.56 4.95Q16.30 4.65 15.76 4.65L15.76 4.65Q15.12 4.65 14.75 5.01Q14.38 5.38 14.38 6.01L14.38 6.01L14.38 8.43L13.58 8.43L13.58 2.47L14.38 2.47L14.38 4.81Q14.66 4.42 15.05 4.23Q15.44 4.04 15.94 4.04L15.94 4.04Q16.77 4.04 17.20 4.50Q17.62 4.96 17.62 5.84ZM20.58 5.34L22.61 8.07L24.64 5.34L26.13 5.34L23.41 8.99Q23.89 9.66 24.19 10.18L24.19 10.18Q24.66 11.00 24.66 11.42L24.66 11.42Q24.66 12.31 24.15 12.75Q23.64 13.19 22.61 13.19L22.61 13.19Q21.59 13.19 21.08 12.75Q20.56 12.31 20.56 11.42L20.56 11.42Q20.56 11.00 21.03 10.18L21.03 10.18Q21.33 9.66 21.82 8.99L21.82 8.99L19.10 5.34L20.58 5.34ZM22.61 12.13L22.61 12.13Q23.07 12.13 23.28 11.94L23.28 11.94Q23.47 11.78 23.47 11.47L23.47 11.47Q23.47 11.25 23.21 10.81L23.21 10.81Q23.00 10.47 22.61 9.99L22.61 9.99Q22.23 10.47 22.02 10.81L22.02 10.81Q21.75 11.25 21.75 11.47L21.75 11.47Q21.75 11.78 21.94 11.94L21.94 11.94Q22.16 12.13 22.61 12.13ZM27.75 5.58L27.75 2.72L31.24 2.72L31.24 3.37L28.57 3.37L28.57 4.76Q28.76 4.70 28.96 4.68L28.96 4.68Q29.15 4.65 29.34 4.65L29.34 4.65Q30.44 4.65 31.08 5.17L31.08 5.17Q31.73 5.69 31.73 6.59L31.73 6.59Q31.73 7.51 31.06 8.03L31.06 8.03Q30.41 8.53 29.20 8.53L29.20 8.53Q28.79 8.53 28.36 8.47Q27.93 8.41 27.48 8.29L27.48 8.29L27.48 7.51Q27.87 7.70 28.29 7.79L28.29 7.79Q28.72 7.88 29.19 7.88L29.19 7.88Q29.95 7.88 30.39 7.53Q30.84 7.18 30.84 6.59Q30.84 6.00 30.39 5.65Q29.95 5.30 29.19 5.30L29.19 5.30Q28.83 5.30 28.48 5.37Q28.12 5.43 27.75 5.58L27.75 5.58ZM35.98 5.34L35.98 5.34Q36.61 5.46 36.95 5.83Q37.30 6.21 37.30 6.77L37.30 6.77Q37.30 7.62 36.65 8.07Q36.00 8.53 34.79 8.53L34.79 8.53Q34.40 8.53 33.97 8.46Q33.54 8.39 33.07 8.25L33.07 8.25L33.07 7.42Q33.42 7.61 33.83 7.70Q34.23 7.79 34.69 7.79L34.69 7.79Q35.44 7.79 35.85 7.52Q36.26 7.25 36.26 6.77L36.26 6.77Q36.26 6.26 35.88 6.00Q35.50 5.74 34.76 5.74L34.76 5.74L34.17 5.74L34.17 5.00L34.82 5.00Q35.46 5.00 35.79 4.79Q36.12 4.57 36.12 4.16L36.12 4.16Q36.12 3.77 35.78 3.56Q35.44 3.35 34.79 3.35L34.79 3.35Q34.51 3.35 34.17 3.41Q33.82 3.47 33.26 3.63L33.26 3.63L33.26 2.84Q33.76 2.73 34.20 2.67Q34.64 2.60 35.01 2.60L35.01 2.60Q36.00 2.60 36.58 3.01Q37.15 3.41 37.15 4.09L37.15 4.09Q37.15 4.56 36.85 4.89Q36.54 5.22 35.98 5.34Z"></path></svg>