<svg height="16.296875" width="45.376953125" xmlns="http://www.w3.org/2000/svg" ><path d="M1.30 3.17L2.56 3.17L2.56 5.34L5.15 5.34L5.15 6.32L2.56 6.32L2.56 10.47Q2.56 11.41 2.82 11.68Q3.08 11.94 3.86 11.94L3.86 11.94L5.15 11.94L5.15 13.00L3.86 13.00Q2.41 13.00 1.85 12.45Q1.30 11.91 1.30 10.47L1.30 10.47L1.30 6.32L0.38 6.32L0.38 5.34L1.30 5.34L1.30 3.17ZM11.69 5.56L11.69 5.56L11.69 6.75Q11.16 6.48 10.58 6.34Q10.01 6.21 9.39 6.21L9.39 6.21Q8.46 6.21 7.99 6.49Q7.52 6.78 7.52 7.36L7.52 7.36Q7.52 7.79 7.85 8.04Q8.19 8.29 9.20 8.52L9.20 8.52L9.63 8.61Q10.97 8.90 11.54 9.42Q12.10 9.95 12.10 10.88L12.10 10.88Q12.10 11.95 11.26 12.57Q10.41 13.19 8.93 13.19L8.93 13.19Q8.32 13.19 7.65 13.07Q6.99 12.95 6.25 12.71L6.25 12.71L6.25 11.42Q6.95 11.78 7.62 11.96Q8.30 12.14 8.96 12.14L8.96 12.14Q9.85 12.14 10.33 11.84Q10.81 11.53 10.81 10.98L10.81 10.98Q10.81 10.47 10.46 10.19Q10.12 9.92 8.95 9.67L8.95 9.67L8.51 9.56Q7.34 9.32 6.82 8.81Q6.30 8.30 6.30 7.41L6.30 7.41Q6.30 6.33 7.07 5.74Q7.83 5.15 9.24 5.15L9.24 5.15Q9.94 5.15 10.55 5.26Q11.17 5.36 11.69 5.56ZM17.62 5.84L17.62 5.84L17.62 8.43L16.83 8.43L16.83 5.87Q16.83 5.26 16.56 4.95Q16.30 4.65 15.76 4.65L15.76 4.65Q15.12 4.65 14.75 5.01Q14.38 5.38 14.38 6.01L14.38 6.01L14.38 8.43L13.58 8.43L13.58 2.47L14.38 2.47L14.38 4.81Q14.66 4.42 15.05 4.23Q15.44 4.04 15.94 4.04L15.94 4.04Q16.77 4.04 17.20 4.50Q17.62 4.96 17.62 5.84ZM22.73 6.22L22.73 6.22Q21.72 6.22 21.13 7.01Q20.54 7.80 20.54 9.17L20.54 9.17Q20.54 10.55 21.13 11.34Q21.71 12.13 22.73 12.13L22.73 12.13Q23.73 12.13 24.32 11.33Q24.91 10.54 24.91 9.17L24.91 9.17Q24.91 7.81 24.32 7.02Q23.73 6.22 22.73 6.22ZM22.73 5.15L22.73 5.15Q24.37 5.15 25.31 6.22Q26.24 7.29 26.24 9.17L26.24 9.17Q26.24 11.05 25.31 12.12Q24.37 13.19 22.73 13.19L22.73 13.19Q21.08 13.19 20.15 12.12Q19.22 11.05 19.22 9.17L19.22 9.17Q19.22 7.29 20.15 6.22Q21.08 5.15 22.73 5.15ZM29.34 13.00L29.33 7.54L29.76 7.54Q31.08 7.54 31.66 6.76L31.66 6.76Q32.06 6.24 32.06 5.57L32.06 5.57Q32.05 4.66 31.66 4.22L31.66 4.22Q30.99 3.44 29.76 3.44L29.76 3.44Q29.22 3.44 28.68 3.59L28.68 3.59Q28.14 3.73 27.61 4.03L27.61 4.03L27.61 2.85Q28.13 2.61 28.68 2.50L28.68 2.50Q29.24 2.37 29.82 2.37L29.82 2.37Q31.70 2.37 32.64 3.45L32.64 3.45Q33.39 4.30 33.39 5.57L33.39 5.57Q33.39 6.73 32.65 7.52L32.65 7.52Q31.88 8.33 30.72 8.54L30.72 8.54L30.72 13.00L29.34 13.00ZM35.12 5.58L35.12 2.72L38.61 2.72L38.61 3.37L35.94 3.37L35.94 4.76Q36.13 4.70 36.33 4.68L36.33 4.68Q36.52 4.65 36.71 4.65L36.71 4.65Q37.81 4.65 38.45 5.17L38.45 5.17Q39.09 5.69 39.09 6.59L39.09 6.59Q39.09 7.51 38.43 8.03L38.43 8.03Q37.78 8.53 36.57 8.53L36.57 8.53Q36.16 8.53 35.73 8.47Q35.30 8.41 34.85 8.29L34.85 8.29L34.85 7.51Q35.24 7.70 35.66 7.79L35.66 7.79Q36.09 7.88 36.56 7.88L36.56 7.88Q37.32 7.88 37.76 7.53Q38.21 7.18 38.21 6.59Q38.21 6.00 37.76 5.65Q37.32 5.30 36.56 5.30L36.56 5.30Q36.20 5.30 35.85 5.37Q35.49 5.43 35.12 5.58L35.12 5.58ZM40.74 5.58L40.74 2.72L44.22 2.72L44.22 3.37L41.55 3.37L41.55 4.76Q41.74 4.70 41.94 4.68L41.94 4.68Q42.13 4.65 42.32 4.65L42.32 4.65Q43.42 4.65 44.06 5.17L44.06 5.17Q44.71 5.69 44.71 6.59L44.71 6.59Q44.71 7.51 44.04 8.03L44.04 8.03Q43.39 8.53 42.18 8.53L42.18 8.53Q41.77 8.53 41.34 8.47Q40.91 8.41 40.46 8.29L40.46 8.29L40.46 7.51Q40.85 7.70 41.28 7.79L41.28 7.79Q41.70 7.88 42.17 7.88L42.17 7.88Q42.93 7.88 43.37 7.53Q43.82 7.18 43.82 6.59Q43.82 6.00 43.37 5.65Q42.93 5.30 42.17 5.30L42.17 5.30Q41.82 5.30 41.46 5.37Q41.10 5.43 40.74 5.58L40.74 5.58Z"></path></svg>