<svg height="16.296875" width="43.845703125" xmlns="http://www.w3.org/2000/svg" ><path d="M1.30 3.17L2.56 3.17L2.56 5.34L5.15 5.34L5.15 6.32L2.56 6.32L2.56 10.47Q2.56 11.41 2.82 11.68Q3.08 11.94 3.86 11.94L3.86 11.94L5.15 11.94L5.15 13.00L3.86 13.00Q2.41 13.00 1.85 12.45Q1.30 11.91 1.30 10.47L1.30 10.47L1.30 6.32L0.38 6.32L0.38 5.34L1.30 5.34L1.30 3.17ZM11.69 5.56L11.69 5.56L11.69 6.75Q11.16 6.48 10.58 6.34Q10.01 6.21 9.39 6.21L9.39 6.21Q8.46 6.21 7.99 6.49Q7.52 6.78 7.52 7.36L7.52 7.36Q7.52 7.79 7.85 8.04Q8.19 8.29 9.20 8.52L9.20 8.52L9.63 8.61Q10.97 8.90 11.54 9.42Q12.10 9.95 12.10 10.88L12.10 10.88Q12.10 11.95 11.26 12.57Q10.41 13.19 8.93 13.19L8.93 13.19Q8.32 13.19 7.65 13.07Q6.99 12.95 6.25 12.71L6.25 12.71L6.25 11.42Q6.95 11.78 7.62 11.96Q8.30 12.14 8.96 12.14L8.96 12.14Q9.85 12.14 10.33 11.84Q10.81 11.53 10.81 10.98L10.81 10.98Q10.81 10.47 10.46 10.19Q10.12 9.92 8.95 9.67L8.95 9.67L8.51 9.56Q7.34 9.32 6.82 8.81Q6.30 8.30 6.30 7.41L6.30 7.41Q6.30 6.33 7.07 5.74Q7.83 5.15 9.24 5.15L9.24 5.15Q9.94 5.15 10.55 5.26Q11.17 5.36 11.69 5.56ZM17.62 5.84L17.62 5.84L17.62 8.43L16.83 8.43L16.83 5.87Q16.83 5.26 16.56 4.95Q16.30 4.65 15.76 4.65L15.76 4.65Q15.12 4.65 14.75 5.01Q14.38 5.38 14.38 6.01L14.38 6.01L14.38 8.43L13.58 8.43L13.58 2.47L14.38 2.47L14.38 4.81Q14.66 4.42 15.05 4.23Q15.44 4.04 15.94 4.04L15.94 4.04Q16.77 4.04 17.20 4.50Q17.62 4.96 17.62 5.84ZM24.63 7.52L24.63 7.52L21.30 11.57Q21.58 11.85 21.93 11.99Q22.29 12.13 22.73 12.13L22.73 12.13Q23.73 12.13 24.32 11.33Q24.91 10.54 24.91 9.17L24.91 9.17Q24.91 8.63 24.84 8.23Q24.77 7.83 24.63 7.52ZM20.81 10.83L24.14 6.78Q23.86 6.50 23.51 6.36Q23.15 6.22 22.73 6.22L22.73 6.22Q21.70 6.22 21.12 7.02Q20.54 7.83 20.54 9.27L20.54 9.27Q20.54 9.76 20.61 10.14Q20.67 10.51 20.81 10.83L20.81 10.83ZM18.94 13.10L19.95 11.86Q19.58 11.33 19.40 10.66Q19.22 9.99 19.22 9.17L19.22 9.17Q19.22 7.29 20.15 6.22Q21.08 5.15 22.73 5.15L22.73 5.15Q23.37 5.15 23.91 5.33Q24.45 5.50 24.91 5.86L24.91 5.86L25.86 4.71L26.51 5.25L25.51 6.47Q25.87 7 26.06 7.68Q26.24 8.35 26.24 9.17L26.24 9.17Q26.24 11.05 25.31 12.12Q24.37 13.19 22.73 13.19L22.73 13.19Q22.07 13.19 21.52 13.02Q20.97 12.84 20.54 12.49L20.54 12.49L19.59 13.64L18.94 13.10ZM30.59 5.34L30.59 5.34Q31.22 5.46 31.56 5.83Q31.91 6.21 31.91 6.77L31.91 6.77Q31.91 7.62 31.26 8.07Q30.61 8.53 29.40 8.53L29.40 8.53Q29.01 8.53 28.58 8.46Q28.16 8.39 27.68 8.25L27.68 8.25L27.68 7.42Q28.03 7.61 28.44 7.70Q28.85 7.79 29.31 7.79L29.31 7.79Q30.05 7.79 30.46 7.52Q30.87 7.25 30.87 6.77L30.87 6.77Q30.87 6.26 30.49 6.00Q30.11 5.74 29.37 5.74L29.37 5.74L28.79 5.74L28.79 5.00L29.43 5.00Q30.07 5.00 30.40 4.79Q30.73 4.57 30.73 4.16L30.73 4.16Q30.73 3.77 30.39 3.56Q30.05 3.35 29.40 3.35L29.40 3.35Q29.13 3.35 28.78 3.41Q28.43 3.47 27.88 3.63L27.88 3.63L27.88 2.84Q28.38 2.73 28.81 2.67Q29.25 2.60 29.63 2.60L29.63 2.60Q30.61 2.60 31.19 3.01Q31.77 3.41 31.77 4.09L31.77 4.09Q31.77 4.56 31.46 4.89Q31.15 5.22 30.59 5.34ZM36.20 5.34L36.20 5.34Q36.83 5.46 37.18 5.83Q37.52 6.21 37.52 6.77L37.52 6.77Q37.52 7.62 36.87 8.07Q36.22 8.53 35.01 8.53L35.01 8.53Q34.62 8.53 34.20 8.46Q33.77 8.39 33.29 8.25L33.29 8.25L33.29 7.42Q33.65 7.61 34.05 7.70Q34.46 7.79 34.92 7.79L34.92 7.79Q35.66 7.79 36.07 7.52Q36.48 7.25 36.48 6.77L36.48 6.77Q36.48 6.26 36.10 6.00Q35.72 5.74 34.99 5.74L34.99 5.74L34.40 5.74L34.40 5.00L35.04 5.00Q35.68 5.00 36.02 4.79Q36.35 4.57 36.35 4.16L36.35 4.16Q36.35 3.77 36.00 3.56Q35.66 3.35 35.01 3.35L35.01 3.35Q34.74 3.35 34.39 3.41Q34.04 3.47 33.49 3.63L33.49 3.63L33.49 2.84Q33.99 2.73 34.43 2.67Q34.86 2.60 35.24 2.60L35.24 2.60Q36.22 2.60 36.80 3.01Q37.38 3.41 37.38 4.09L37.38 4.09Q37.38 4.56 37.07 4.89Q36.76 5.22 36.20 5.34ZM41.49 6.41L41.49 3.55L39.38 6.41L41.49 6.41ZM38.66 6.33L41.34 2.72L42.48 2.72L42.48 6.41L43.40 6.41L43.40 7.16L42.48 7.16L42.48 8.43L41.49 8.43L41.49 7.16L38.66 7.16L38.66 6.33Z"></path></svg>