<svg height="16.296875" width="47.1064453125" xmlns="http://www.w3.org/2000/svg" ><path d="M1.30 3.17L2.56 3.17L2.56 5.34L5.15 5.34L5.15 6.32L2.56 6.32L2.56 10.47Q2.56 11.41 2.82 11.68Q3.08 11.94 3.86 11.94L3.86 11.94L5.15 11.94L5.15 13.00L3.86 13.00Q2.41 13.00 1.85 12.45Q1.30 11.91 1.30 10.47L1.30 10.47L1.30 6.32L0.38 6.32L0.38 5.34L1.30 5.34L1.30 3.17ZM11.69 5.56L11.69 5.56L11.69 6.75Q11.16 6.48 10.58 6.34Q10.01 6.21 9.39 6.21L9.39 6.21Q8.46 6.21 7.99 6.49Q7.52 6.78 7.52 7.36L7.52 7.36Q7.52 7.79 7.85 8.04Q8.19 8.29 9.20 8.52L9.20 8.52L9.63 8.61Q10.97 8.90 11.54 9.42Q12.10 9.95 12.10 10.88L12.10 10.88Q12.10 11.95 11.26 12.57Q10.41 13.19 8.93 13.19L8.93 13.19Q8.32 13.19 7.65 13.07Q6.99 12.95 6.25 12.71L6.25 12.71L6.25 11.42Q6.95 11.78 7.62 11.96Q8.30 12.14 8.96 12.14L8.96 12.14Q9.85 12.14 10.33 11.84Q10.81 11.53 10.81 10.98L10.81 10.98Q10.81 10.47 10.46 10.19Q10.12 9.92 8.95 9.67L8.95 9.67L8.51 9.56Q7.34 9.32 6.82 8.81Q6.30 8.30 6.30 7.41L6.30 7.41Q6.30 6.33 7.07 5.74Q7.83 5.15 9.24 5.15L9.24 5.15Q9.94 5.15 10.55 5.26Q11.17 5.36 11.69 5.56ZM17.62 5.84L17.62 5.84L17.62 8.43L16.83 8.43L16.83 5.87Q16.83 5.26 16.56 4.95Q16.30 4.65 15.76 4.65L15.76 4.65Q15.12 4.65 14.75 5.01Q14.38 5.38 14.38 6.01L14.38 6.01L14.38 8.43L13.58 8.43L13.58 2.47L14.38 2.47L14.38 4.81Q14.66 4.42 15.05 4.23Q15.44 4.04 15.94 4.04L15.94 4.04Q16.77 4.04 17.20 4.50Q17.62 4.96 17.62 5.84ZM22.73 6.22L22.73 6.22Q21.72 6.22 21.13 7.01Q20.54 7.80 20.54 9.17L20.54 9.17Q20.54 10.55 21.13 11.34Q21.71 12.13 22.73 12.13L22.73 12.13Q23.73 12.13 24.32 11.33Q24.91 10.54 24.91 9.17L24.91 9.17Q24.91 7.81 24.32 7.02Q23.73 6.22 22.73 6.22ZM22.73 5.15L22.73 5.15Q24.37 5.15 25.31 6.22Q26.24 7.29 26.24 9.17L26.24 9.17Q26.24 11.05 25.31 12.12Q24.37 13.19 22.73 13.19L22.73 13.19Q21.08 13.19 20.15 12.12Q19.22 11.05 19.22 9.17L19.22 9.17Q19.22 7.29 20.15 6.22Q21.08 5.15 22.73 5.15ZM34.69 8.37L34.69 8.37L34.69 13.13Q34.69 14.59 34.13 15.25L34.13 15.25Q33.58 15.91 32.34 15.91L32.34 15.91L30.60 15.91L30.60 14.84L32.20 14.84Q32.92 14.84 33.17 14.51L33.17 14.51Q33.43 14.18 33.43 13.13L33.43 13.13L33.43 8.42Q33.43 7.33 33.01 6.79Q32.59 6.25 31.74 6.25L31.74 6.25Q30.72 6.25 30.13 6.90Q29.54 7.55 29.54 8.67L29.54 8.67L29.54 13.00L28.28 13.00L28.28 5.34L29.54 5.34L29.54 6.53Q30.00 5.84 30.60 5.50L30.60 5.50Q31.22 5.15 32.02 5.15L32.02 5.15Q33.34 5.15 34.02 5.97L34.02 5.97Q34.69 6.79 34.69 8.37ZM36.85 5.58L36.85 2.72L40.34 2.72L40.34 3.37L37.67 3.37L37.67 4.76Q37.86 4.70 38.06 4.68L38.06 4.68Q38.25 4.65 38.44 4.65L38.44 4.65Q39.54 4.65 40.18 5.17L40.18 5.17Q40.82 5.69 40.82 6.59L40.82 6.59Q40.82 7.51 40.16 8.03L40.16 8.03Q39.50 8.53 38.30 8.53L38.30 8.53Q37.89 8.53 37.46 8.47Q37.03 8.41 36.58 8.29L36.58 8.29L36.58 7.51Q36.97 7.70 37.39 7.79L37.39 7.79Q37.82 7.88 38.29 7.88L38.29 7.88Q39.05 7.88 39.49 7.53Q39.94 7.18 39.94 6.59Q39.94 6.00 39.49 5.65Q39.05 5.30 38.29 5.30L38.29 5.30Q37.93 5.30 37.58 5.37Q37.22 5.43 36.85 5.58L36.85 5.58ZM45.08 5.34L45.08 5.34Q45.71 5.46 46.05 5.83Q46.40 6.21 46.40 6.77L46.40 6.77Q46.40 7.62 45.75 8.07Q45.10 8.53 43.89 8.53L43.89 8.53Q43.50 8.53 43.07 8.46Q42.64 8.39 42.16 8.25L42.16 8.25L42.16 7.42Q42.52 7.61 42.93 7.70Q43.33 7.79 43.79 7.79L43.79 7.79Q44.54 7.79 44.95 7.52Q45.36 7.25 45.36 6.77L45.36 6.77Q45.36 6.26 44.98 6.00Q44.60 5.74 43.86 5.74L43.86 5.74L43.27 5.74L43.27 5.00L43.91 5.00Q44.56 5.00 44.89 4.79Q45.22 4.57 45.22 4.16L45.22 4.16Q45.22 3.77 44.88 3.56Q44.54 3.35 43.89 3.35L43.89 3.35Q43.61 3.35 43.26 3.41Q42.92 3.47 42.36 3.63L42.36 3.63L42.36 2.84Q42.86 2.73 43.30 2.67Q43.74 2.60 44.11 2.60L44.11 2.60Q45.10 2.60 45.67 3.01Q46.25 3.41 46.25 4.09L46.25 4.09Q46.25 4.56 45.94 4.89Q45.64 5.22 45.08 5.34Z"></path></svg>