<svg height="16.296875" width="38.2333984375" xmlns="http://www.w3.org/2000/svg" ><path d="M1.30 3.17L2.56 3.17L2.56 5.34L5.15 5.34L5.15 6.32L2.56 6.32L2.56 10.47Q2.56 11.41 2.82 11.68Q3.08 11.94 3.86 11.94L3.86 11.94L5.15 11.94L5.15 13.00L3.86 13.00Q2.41 13.00 1.85 12.45Q1.30 11.91 1.30 10.47L1.30 10.47L1.30 6.32L0.38 6.32L0.38 5.34L1.30 5.34L1.30 3.17ZM11.69 5.56L11.69 5.56L11.69 6.75Q11.16 6.48 10.58 6.34Q10.01 6.21 9.39 6.21L9.39 6.21Q8.46 6.21 7.99 6.49Q7.52 6.78 7.52 7.36L7.52 7.36Q7.52 7.79 7.85 8.04Q8.19 8.29 9.20 8.52L9.20 8.52L9.63 8.61Q10.97 8.90 11.54 9.42Q12.10 9.95 12.10 10.88L12.10 10.88Q12.10 11.95 11.26 12.57Q10.41 13.19 8.93 13.19L8.93 13.19Q8.32 13.19 7.65 13.07Q6.99 12.95 6.25 12.71L6.25 12.71L6.25 11.42Q6.95 11.78 7.62 11.96Q8.30 12.14 8.96 12.14L8.96 12.14Q9.85 12.14 10.33 11.84Q10.81 11.53 10.81 10.98L10.81 10.98Q10.81 10.47 10.46 10.19Q10.12 9.92 8.95 9.67L8.95 9.67L8.51 9.56Q7.34 9.32 6.82 8.81Q6.30 8.30 6.30 7.41L6.30 7.41Q6.30 6.33 7.07 5.74Q7.83 5.15 9.24 5.15L9.24 5.15Q9.94 5.15 10.55 5.26Q11.17 5.36 11.69 5.56ZM17.62 5.84L17.62 5.84L17.62 8.43L16.83 8.43L16.83 5.87Q16.83 5.26 16.56 4.95Q16.30 4.65 15.76 4.65L15.76 4.65Q15.12 4.65 14.75 5.01Q14.38 5.38 14.38 6.01L14.38 6.01L14.38 8.43L13.58 8.43L13.58 2.47L14.38 2.47L14.38 4.81Q14.66 4.42 15.05 4.23Q15.44 4.04 15.94 4.04L15.94 4.04Q16.77 4.04 17.20 4.50Q17.62 4.96 17.62 5.84ZM22.73 6.22L22.73 6.22Q21.72 6.22 21.13 7.01Q20.54 7.80 20.54 9.17L20.54 9.17Q20.54 10.55 21.13 11.34Q21.71 12.13 22.73 12.13L22.73 12.13Q23.73 12.13 24.32 11.33Q24.91 10.54 24.91 9.17L24.91 9.17Q24.91 7.81 24.32 7.02Q23.73 6.22 22.73 6.22ZM22.73 5.15L22.73 5.15Q24.37 5.15 25.31 6.22Q26.24 7.29 26.24 9.17L26.24 9.17Q26.24 11.05 25.31 12.12Q24.37 13.19 22.73 13.19L22.73 13.19Q21.08 13.19 20.15 12.12Q19.22 11.05 19.22 9.17L19.22 9.17Q19.22 7.29 20.15 6.22Q21.08 5.15 22.73 5.15ZM27.98 5.58L27.98 2.72L31.47 2.72L31.47 3.37L28.79 3.37L28.79 4.76Q28.98 4.70 29.18 4.68L29.18 4.68Q29.37 4.65 29.57 4.65L29.57 4.65Q30.67 4.65 31.31 5.17L31.31 5.17Q31.95 5.69 31.95 6.59L31.95 6.59Q31.95 7.51 31.29 8.03L31.29 8.03Q30.63 8.53 29.43 8.53L29.43 8.53Q29.02 8.53 28.59 8.47Q28.16 8.41 27.71 8.29L27.71 8.29L27.71 7.51Q28.10 7.70 28.52 7.79L28.52 7.79Q28.94 7.88 29.42 7.88L29.42 7.88Q30.17 7.88 30.62 7.53Q31.06 7.18 31.06 6.59Q31.06 6.00 30.62 5.65Q30.17 5.30 29.42 5.30L29.42 5.30Q29.06 5.30 28.70 5.37Q28.35 5.43 27.98 5.58L27.98 5.58ZM36.20 5.34L36.20 5.34Q36.83 5.46 37.18 5.83Q37.52 6.21 37.52 6.77L37.52 6.77Q37.52 7.62 36.87 8.07Q36.22 8.53 35.01 8.53L35.01 8.53Q34.62 8.53 34.20 8.46Q33.77 8.39 33.29 8.25L33.29 8.25L33.29 7.42Q33.65 7.61 34.05 7.70Q34.46 7.79 34.92 7.79L34.92 7.79Q35.66 7.79 36.07 7.52Q36.48 7.25 36.48 6.77L36.48 6.77Q36.48 6.26 36.10 6.00Q35.72 5.74 34.99 5.74L34.99 5.74L34.40 5.74L34.40 5.00L35.04 5.00Q35.68 5.00 36.02 4.79Q36.35 4.57 36.35 4.16L36.35 4.16Q36.35 3.77 36.00 3.56Q35.66 3.35 35.01 3.35L35.01 3.35Q34.74 3.35 34.39 3.41Q34.04 3.47 33.49 3.63L33.49 3.63L33.49 2.84Q33.99 2.73 34.43 2.67Q34.86 2.60 35.24 2.60L35.24 2.60Q36.22 2.60 36.80 3.01Q37.38 3.41 37.38 4.09L37.38 4.09Q37.38 4.56 37.07 4.89Q36.76 5.22 36.20 5.34Z"></path></svg>