<svg height="16.296875" width="44.1533203125" xmlns="http://www.w3.org/2000/svg" ><path d="M1.30 3.17L2.56 3.17L2.56 5.34L5.15 5.34L5.15 6.32L2.56 6.32L2.56 10.47Q2.56 11.41 2.82 11.68Q3.08 11.94 3.86 11.94L3.86 11.94L5.15 11.94L5.15 13.00L3.86 13.00Q2.41 13.00 1.85 12.45Q1.30 11.91 1.30 10.47L1.30 10.47L1.30 6.32L0.38 6.32L0.38 5.34L1.30 5.34L1.30 3.17ZM11.69 5.56L11.69 5.56L11.69 6.75Q11.16 6.48 10.58 6.34Q10.01 6.21 9.39 6.21L9.39 6.21Q8.46 6.21 7.99 6.49Q7.52 6.78 7.52 7.36L7.52 7.36Q7.52 7.79 7.85 8.04Q8.19 8.29 9.20 8.52L9.20 8.52L9.63 8.61Q10.97 8.90 11.54 9.42Q12.10 9.95 12.10 10.88L12.10 10.88Q12.10 11.95 11.26 12.57Q10.41 13.19 8.93 13.19L8.93 13.19Q8.32 13.19 7.65 13.07Q6.99 12.95 6.25 12.71L6.25 12.71L6.25 11.42Q6.95 11.78 7.62 11.96Q8.30 12.14 8.96 12.14L8.96 12.14Q9.85 12.14 10.33 11.84Q10.81 11.53 10.81 10.98L10.81 10.98Q10.81 10.47 10.46 10.19Q10.12 9.92 8.95 9.67L8.95 9.67L8.51 9.56Q7.34 9.32 6.82 8.81Q6.30 8.30 6.30 7.41L6.30 7.41Q6.30 6.33 7.07 5.74Q7.83 5.15 9.24 5.15L9.24 5.15Q9.94 5.15 10.55 5.26Q11.17 5.36 11.69 5.56ZM17.62 5.84L17.62 5.84L17.62 8.43L16.83 8.43L16.83 5.87Q16.83 5.26 16.56 4.95Q16.30 4.65 15.76 4.65L15.76 4.65Q15.12 4.65 14.75 5.01Q14.38 5.38 14.38 6.01L14.38 6.01L14.38 8.43L13.58 8.43L13.58 2.47L14.38 2.47L14.38 4.81Q14.66 4.42 15.05 4.23Q15.44 4.04 15.94 4.04L15.94 4.04Q16.77 4.04 17.20 4.50Q17.62 4.96 17.62 5.84ZM19.63 9.97L19.63 9.97L19.63 5.34L20.89 5.34L20.89 9.93Q20.89 11.01 21.31 11.56Q21.74 12.10 22.59 12.10L22.59 12.10Q23.60 12.10 24.20 11.45Q24.79 10.80 24.79 9.68L24.79 9.68L24.79 5.34L26.04 5.34L26.04 13.00L24.79 13.00L24.79 11.82Q24.33 12.52 23.72 12.85Q23.12 13.19 22.32 13.19L22.32 13.19Q21 13.19 20.32 12.37Q19.63 11.55 19.63 9.97ZM22.80 5.15L22.80 5.15ZM30.90 5.34L30.90 5.34Q31.53 5.46 31.87 5.83Q32.22 6.21 32.22 6.77L32.22 6.77Q32.22 7.62 31.57 8.07Q30.92 8.53 29.71 8.53L29.71 8.53Q29.32 8.53 28.89 8.46Q28.46 8.39 27.99 8.25L27.99 8.25L27.99 7.42Q28.34 7.61 28.75 7.70Q29.16 7.79 29.61 7.79L29.61 7.79Q30.36 7.79 30.77 7.52Q31.18 7.25 31.18 6.77L31.18 6.77Q31.18 6.26 30.80 6.00Q30.42 5.74 29.68 5.74L29.68 5.74L29.09 5.74L29.09 5.00L29.74 5.00Q30.38 5.00 30.71 4.79Q31.04 4.57 31.04 4.16L31.04 4.16Q31.04 3.77 30.70 3.56Q30.36 3.35 29.71 3.35L29.71 3.35Q29.44 3.35 29.09 3.41Q28.74 3.47 28.18 3.63L28.18 3.63L28.18 2.84Q28.68 2.73 29.12 2.67Q29.56 2.60 29.93 2.60L29.93 2.60Q30.92 2.60 31.50 3.01Q32.07 3.41 32.07 4.09L32.07 4.09Q32.07 4.56 31.77 4.89Q31.46 5.22 30.90 5.34ZM36.51 5.34L36.51 5.34Q37.14 5.46 37.48 5.83Q37.83 6.21 37.83 6.77L37.83 6.77Q37.83 7.62 37.18 8.07Q36.53 8.53 35.32 8.53L35.32 8.53Q34.93 8.53 34.50 8.46Q34.08 8.39 33.60 8.25L33.60 8.25L33.60 7.42Q33.95 7.61 34.36 7.70Q34.77 7.79 35.23 7.79L35.23 7.79Q35.97 7.79 36.38 7.52Q36.79 7.25 36.79 6.77L36.79 6.77Q36.79 6.26 36.41 6.00Q36.03 5.74 35.29 5.74L35.29 5.74L34.71 5.74L34.71 5.00L35.35 5.00Q35.99 5.00 36.32 4.79Q36.65 4.57 36.65 4.16L36.65 4.16Q36.65 3.77 36.31 3.56Q35.97 3.35 35.32 3.35L35.32 3.35Q35.05 3.35 34.70 3.41Q34.35 3.47 33.80 3.63L33.80 3.63L33.80 2.84Q34.30 2.73 34.73 2.67Q35.17 2.60 35.55 2.60L35.55 2.60Q36.53 2.60 37.11 3.01Q37.69 3.41 37.69 4.09L37.69 4.09Q37.69 4.56 37.38 4.89Q37.07 5.22 36.51 5.34ZM41.80 6.41L41.80 3.55L39.69 6.41L41.80 6.41ZM38.97 6.33L41.65 2.72L42.79 2.72L42.79 6.41L43.71 6.41L43.71 7.16L42.79 7.16L42.79 8.43L41.80 8.43L41.80 7.16L38.97 7.16L38.97 6.33Z"></path></svg>