<svg height="16.296875" width="42.7041015625" xmlns="http://www.w3.org/2000/svg" ><path d="M1.30 3.17L2.56 3.17L2.56 5.34L5.15 5.34L5.15 6.32L2.56 6.32L2.56 10.47Q2.56 11.41 2.82 11.68Q3.08 11.94 3.86 11.94L3.86 11.94L5.15 11.94L5.15 13.00L3.86 13.00Q2.41 13.00 1.85 12.45Q1.30 11.91 1.30 10.47L1.30 10.47L1.30 6.32L0.38 6.32L0.38 5.34L1.30 5.34L1.30 3.17ZM11.69 5.56L11.69 5.56L11.69 6.75Q11.16 6.48 10.58 6.34Q10.01 6.21 9.39 6.21L9.39 6.21Q8.46 6.21 7.99 6.49Q7.52 6.78 7.52 7.36L7.52 7.36Q7.52 7.79 7.85 8.04Q8.19 8.29 9.20 8.52L9.20 8.52L9.63 8.61Q10.97 8.90 11.54 9.42Q12.10 9.95 12.10 10.88L12.10 10.88Q12.10 11.95 11.26 12.57Q10.41 13.19 8.93 13.19L8.93 13.19Q8.32 13.19 7.65 13.07Q6.99 12.95 6.25 12.71L6.25 12.71L6.25 11.42Q6.95 11.78 7.62 11.96Q8.30 12.14 8.96 12.14L8.96 12.14Q9.85 12.14 10.33 11.84Q10.81 11.53 10.81 10.98L10.81 10.98Q10.81 10.47 10.46 10.19Q10.12 9.92 8.95 9.67L8.95 9.67L8.51 9.56Q7.34 9.32 6.82 8.81Q6.30 8.30 6.30 7.41L6.30 7.41Q6.30 6.33 7.07 5.74Q7.83 5.15 9.24 5.15L9.24 5.15Q9.94 5.15 10.55 5.26Q11.17 5.36 11.69 5.56ZM17.62 5.84L17.62 5.84L17.62 8.43L16.83 8.43L16.83 5.87Q16.83 5.26 16.56 4.95Q16.30 4.65 15.76 4.65L15.76 4.65Q15.12 4.65 14.75 5.01Q14.38 5.38 14.38 6.01L14.38 6.01L14.38 8.43L13.58 8.43L13.58 2.47L14.38 2.47L14.38 4.81Q14.66 4.42 15.05 4.23Q15.44 4.04 15.94 4.04L15.94 4.04Q16.77 4.04 17.20 4.50Q17.62 4.96 17.62 5.84ZM23.32 7.93L23.32 7.93L23.32 11.87L24.55 11.87L24.55 13.00L20.95 13.00L20.95 11.87L22.07 11.87L22.07 7.93Q22.07 6.88 21.81 6.55Q21.55 6.22 20.83 6.22L20.83 6.22L19.24 6.22L19.24 5.15L20.97 5.15Q22.21 5.15 22.77 5.81Q23.32 6.47 23.32 7.93ZM29.45 5.34L29.45 5.34Q30.08 5.46 30.42 5.83Q30.77 6.21 30.77 6.77L30.77 6.77Q30.77 7.62 30.12 8.07Q29.47 8.53 28.26 8.53L28.26 8.53Q27.87 8.53 27.44 8.46Q27.02 8.39 26.54 8.25L26.54 8.25L26.54 7.42Q26.89 7.61 27.30 7.70Q27.71 7.79 28.16 7.79L28.16 7.79Q28.91 7.79 29.32 7.52Q29.73 7.25 29.73 6.77L29.73 6.77Q29.73 6.26 29.35 6.00Q28.97 5.74 28.23 5.74L28.23 5.74L27.64 5.74L27.64 5.00L28.29 5.00Q28.93 5.00 29.26 4.79Q29.59 4.57 29.59 4.16L29.59 4.16Q29.59 3.77 29.25 3.56Q28.91 3.35 28.26 3.35L28.26 3.35Q27.99 3.35 27.64 3.41Q27.29 3.47 26.74 3.63L26.74 3.63L26.74 2.84Q27.23 2.73 27.67 2.67Q28.11 2.60 28.49 2.60L28.49 2.60Q29.47 2.60 30.05 3.01Q30.63 3.41 30.63 4.09L30.63 4.09Q30.63 4.56 30.32 4.89Q30.01 5.22 29.45 5.34ZM35.06 5.34L35.06 5.34Q35.69 5.46 36.04 5.83Q36.38 6.21 36.38 6.77L36.38 6.77Q36.38 7.62 35.73 8.07Q35.08 8.53 33.87 8.53L33.87 8.53Q33.48 8.53 33.06 8.46Q32.63 8.39 32.15 8.25L32.15 8.25L32.15 7.42Q32.50 7.61 32.91 7.70Q33.32 7.79 33.78 7.79L33.78 7.79Q34.52 7.79 34.93 7.52Q35.34 7.25 35.34 6.77L35.34 6.77Q35.34 6.26 34.96 6.00Q34.58 5.74 33.84 5.74L33.84 5.74L33.26 5.74L33.26 5.00L33.90 5.00Q34.54 5.00 34.87 4.79Q35.21 4.57 35.21 4.16L35.21 4.16Q35.21 3.77 34.86 3.56Q34.52 3.35 33.87 3.35L33.87 3.35Q33.60 3.35 33.25 3.41Q32.90 3.47 32.35 3.63L32.35 3.63L32.35 2.84Q32.85 2.73 33.28 2.67Q33.72 2.60 34.10 2.60L34.10 2.60Q35.08 2.60 35.66 3.01Q36.24 3.41 36.24 4.09L36.24 4.09Q36.24 4.56 35.93 4.89Q35.62 5.22 35.06 5.34ZM40.35 6.41L40.35 3.55L38.24 6.41L40.35 6.41ZM37.52 6.33L40.20 2.72L41.34 2.72L41.34 6.41L42.26 6.41L42.26 7.16L41.34 7.16L41.34 8.43L40.35 8.43L40.35 7.16L37.52 7.16L37.52 6.33Z"></path></svg>