<svg height="16.296875" width="32.5732421875" xmlns="http://www.w3.org/2000/svg" ><path d="M1.30 3.17L2.56 3.17L2.56 5.34L5.15 5.34L5.15 6.32L2.56 6.32L2.56 10.47Q2.56 11.41 2.82 11.68Q3.08 11.94 3.86 11.94L3.86 11.94L5.15 11.94L5.15 13.00L3.86 13.00Q2.41 13.00 1.85 12.45Q1.30 11.91 1.30 10.47L1.30 10.47L1.30 6.32L0.38 6.32L0.38 5.34L1.30 5.34L1.30 3.17ZM11.69 5.56L11.69 5.56L11.69 6.75Q11.16 6.48 10.58 6.34Q10.01 6.21 9.39 6.21L9.39 6.21Q8.46 6.21 7.99 6.49Q7.52 6.78 7.52 7.36L7.52 7.36Q7.52 7.79 7.85 8.04Q8.19 8.29 9.20 8.52L9.20 8.52L9.63 8.61Q10.97 8.90 11.54 9.42Q12.10 9.95 12.10 10.88L12.10 10.88Q12.10 11.95 11.26 12.57Q10.41 13.19 8.93 13.19L8.93 13.19Q8.32 13.19 7.65 13.07Q6.99 12.95 6.25 12.71L6.25 12.71L6.25 11.42Q6.95 11.78 7.62 11.96Q8.30 12.14 8.96 12.14L8.96 12.14Q9.85 12.14 10.33 11.84Q10.81 11.53 10.81 10.98L10.81 10.98Q10.81 10.47 10.46 10.19Q10.12 9.92 8.95 9.67L8.95 9.67L8.51 9.56Q7.34 9.32 6.82 8.81Q6.30 8.30 6.30 7.41L6.30 7.41Q6.30 6.33 7.07 5.74Q7.83 5.15 9.24 5.15L9.24 5.15Q9.94 5.15 10.55 5.26Q11.17 5.36 11.69 5.56ZM17.07 6.22L17.07 6.22Q16.06 6.22 15.47 7.01Q14.88 7.80 14.88 9.17L14.88 9.17Q14.88 10.55 15.47 11.34Q16.05 12.13 17.07 12.13L17.07 12.13Q18.07 12.13 18.66 11.33Q19.25 10.54 19.25 9.17L19.25 9.17Q19.25 7.81 18.66 7.02Q18.07 6.22 17.07 6.22ZM17.07 5.15L17.07 5.15Q18.71 5.15 19.65 6.22Q20.58 7.29 20.58 9.17L20.58 9.17Q20.58 11.05 19.65 12.12Q18.71 13.19 17.07 13.19L17.07 13.19Q15.42 13.19 14.49 12.12Q13.56 11.05 13.56 9.17L13.56 9.17Q13.56 7.29 14.49 6.22Q15.42 5.15 17.07 5.15ZM22.32 5.58L22.32 2.72L25.81 2.72L25.81 3.37L23.13 3.37L23.13 4.76Q23.32 4.70 23.52 4.68L23.52 4.68Q23.71 4.65 23.91 4.65L23.91 4.65Q25.01 4.65 25.65 5.17L25.65 5.17Q26.29 5.69 26.29 6.59L26.29 6.59Q26.29 7.51 25.63 8.03L25.63 8.03Q24.97 8.53 23.77 8.53L23.77 8.53Q23.36 8.53 22.93 8.47Q22.50 8.41 22.05 8.29L22.05 8.29L22.05 7.51Q22.44 7.70 22.86 7.79L22.86 7.79Q23.28 7.88 23.75 7.88L23.75 7.88Q24.51 7.88 24.96 7.53Q25.40 7.18 25.40 6.59Q25.40 6.00 24.96 5.65Q24.51 5.30 23.75 5.30L23.75 5.30Q23.40 5.30 23.04 5.37Q22.69 5.43 22.32 5.58L22.32 5.58ZM30.54 5.34L30.54 5.34Q31.17 5.46 31.52 5.83Q31.86 6.21 31.86 6.77L31.86 6.77Q31.86 7.62 31.21 8.07Q30.56 8.53 29.35 8.53L29.35 8.53Q28.96 8.53 28.54 8.46Q28.11 8.39 27.63 8.25L27.63 8.25L27.63 7.42Q27.99 7.61 28.39 7.70Q28.80 7.79 29.26 7.79L29.26 7.79Q30.00 7.79 30.41 7.52Q30.82 7.25 30.82 6.77L30.82 6.77Q30.82 6.26 30.44 6.00Q30.06 5.74 29.33 5.74L29.33 5.74L28.74 5.74L28.74 5.00L29.38 5.00Q30.02 5.00 30.35 4.79Q30.69 4.57 30.69 4.16L30.69 4.16Q30.69 3.77 30.34 3.56Q30.00 3.35 29.35 3.35L29.35 3.35Q29.08 3.35 28.73 3.41Q28.38 3.47 27.83 3.63L27.83 3.63L27.83 2.84Q28.33 2.73 28.77 2.67Q29.20 2.60 29.58 2.60L29.58 2.60Q30.56 2.60 31.14 3.01Q31.72 3.41 31.72 4.09L31.72 4.09Q31.72 4.56 31.41 4.89Q31.10 5.22 30.54 5.34Z"></path></svg>