<svg height="16.296875" width="38.185546875" xmlns="http://www.w3.org/2000/svg" ><path d="M1.30 3.17L2.56 3.17L2.56 5.34L5.15 5.34L5.15 6.32L2.56 6.32L2.56 10.47Q2.56 11.41 2.82 11.68Q3.08 11.94 3.86 11.94L3.86 11.94L5.15 11.94L5.15 13.00L3.86 13.00Q2.41 13.00 1.85 12.45Q1.30 11.91 1.30 10.47L1.30 10.47L1.30 6.32L0.38 6.32L0.38 5.34L1.30 5.34L1.30 3.17ZM11.69 5.56L11.69 5.56L11.69 6.75Q11.16 6.48 10.58 6.34Q10.01 6.21 9.39 6.21L9.39 6.21Q8.46 6.21 7.99 6.49Q7.52 6.78 7.52 7.36L7.52 7.36Q7.52 7.79 7.85 8.04Q8.19 8.29 9.20 8.52L9.20 8.52L9.63 8.61Q10.97 8.90 11.54 9.42Q12.10 9.95 12.10 10.88L12.10 10.88Q12.10 11.95 11.26 12.57Q10.41 13.19 8.93 13.19L8.93 13.19Q8.32 13.19 7.65 13.07Q6.99 12.95 6.25 12.71L6.25 12.71L6.25 11.42Q6.95 11.78 7.62 11.96Q8.30 12.14 8.96 12.14L8.96 12.14Q9.85 12.14 10.33 11.84Q10.81 11.53 10.81 10.98L10.81 10.98Q10.81 10.47 10.46 10.19Q10.12 9.92 8.95 9.67L8.95 9.67L8.51 9.56Q7.34 9.32 6.82 8.81Q6.30 8.30 6.30 7.41L6.30 7.41Q6.30 6.33 7.07 5.74Q7.83 5.15 9.24 5.15L9.24 5.15Q9.94 5.15 10.55 5.26Q11.17 5.36 11.69 5.56ZM18.97 7.52L18.97 7.52L15.64 11.57Q15.92 11.85 16.27 11.99Q16.63 12.13 17.07 12.13L17.07 12.13Q18.07 12.13 18.66 11.33Q19.25 10.54 19.25 9.17L19.25 9.17Q19.25 8.63 19.18 8.23Q19.11 7.83 18.97 7.52ZM15.15 10.83L18.48 6.78Q18.20 6.50 17.85 6.36Q17.49 6.22 17.07 6.22L17.07 6.22Q16.04 6.22 15.46 7.02Q14.88 7.83 14.88 9.27L14.88 9.27Q14.88 9.76 14.95 10.14Q15.01 10.51 15.15 10.83L15.15 10.83ZM13.28 13.10L14.29 11.86Q13.92 11.33 13.74 10.66Q13.56 9.99 13.56 9.17L13.56 9.17Q13.56 7.29 14.49 6.22Q15.42 5.15 17.07 5.15L17.07 5.15Q17.71 5.15 18.25 5.33Q18.79 5.50 19.25 5.86L19.25 5.86L20.20 4.71L20.85 5.25L19.85 6.47Q20.21 7 20.40 7.68Q20.58 8.35 20.58 9.17L20.58 9.17Q20.58 11.05 19.65 12.12Q18.71 13.19 17.07 13.19L17.07 13.19Q16.41 13.19 15.86 13.02Q15.31 12.84 14.88 12.49L14.88 12.49L13.93 13.64L13.28 13.10ZM24.93 5.34L24.93 5.34Q25.56 5.46 25.90 5.83Q26.25 6.21 26.25 6.77L26.25 6.77Q26.25 7.62 25.60 8.07Q24.95 8.53 23.74 8.53L23.74 8.53Q23.35 8.53 22.92 8.46Q22.50 8.39 22.02 8.25L22.02 8.25L22.02 7.42Q22.37 7.61 22.78 7.70Q23.19 7.79 23.65 7.79L23.65 7.79Q24.39 7.79 24.80 7.52Q25.21 7.25 25.21 6.77L25.21 6.77Q25.21 6.26 24.83 6.00Q24.45 5.74 23.71 5.74L23.71 5.74L23.13 5.74L23.13 5.00L23.77 5.00Q24.41 5.00 24.74 4.79Q25.07 4.57 25.07 4.16L25.07 4.16Q25.07 3.77 24.73 3.56Q24.39 3.35 23.74 3.35L23.74 3.35Q23.47 3.35 23.12 3.41Q22.77 3.47 22.22 3.63L22.22 3.63L22.22 2.84Q22.72 2.73 23.15 2.67Q23.59 2.60 23.97 2.60L23.97 2.60Q24.95 2.60 25.53 3.01Q26.11 3.41 26.11 4.09L26.11 4.09Q26.11 4.56 25.80 4.89Q25.49 5.22 24.93 5.34ZM30.54 5.34L30.54 5.34Q31.17 5.46 31.52 5.83Q31.86 6.21 31.86 6.77L31.86 6.77Q31.86 7.62 31.21 8.07Q30.56 8.53 29.35 8.53L29.35 8.53Q28.96 8.53 28.54 8.46Q28.11 8.39 27.63 8.25L27.63 8.25L27.63 7.42Q27.99 7.61 28.39 7.70Q28.80 7.79 29.26 7.79L29.26 7.79Q30.00 7.79 30.41 7.52Q30.82 7.25 30.82 6.77L30.82 6.77Q30.82 6.26 30.44 6.00Q30.06 5.74 29.33 5.74L29.33 5.74L28.74 5.74L28.74 5.00L29.38 5.00Q30.02 5.00 30.35 4.79Q30.69 4.57 30.69 4.16L30.69 4.16Q30.69 3.77 30.34 3.56Q30.00 3.35 29.35 3.35L29.35 3.35Q29.08 3.35 28.73 3.41Q28.38 3.47 27.83 3.63L27.83 3.63L27.83 2.84Q28.33 2.73 28.77 2.67Q29.20 2.60 29.58 2.60L29.58 2.60Q30.56 2.60 31.14 3.01Q31.72 3.41 31.72 4.09L31.72 4.09Q31.72 4.56 31.41 4.89Q31.10 5.22 30.54 5.34ZM35.83 6.41L35.83 3.55L33.72 6.41L35.83 6.41ZM33.00 6.33L35.68 2.72L36.82 2.72L36.82 6.41L37.74 6.41L37.74 7.16L36.82 7.16L36.82 8.43L35.83 8.43L35.83 7.16L33.00 7.16L33.00 6.33Z"></path></svg>