<svg height="16.296875" width="41.4462890625" xmlns="http://www.w3.org/2000/svg" ><path d="M1.30 3.17L2.56 3.17L2.56 5.34L5.15 5.34L5.15 6.32L2.56 6.32L2.56 10.47Q2.56 11.41 2.82 11.68Q3.08 11.94 3.86 11.94L3.86 11.94L5.15 11.94L5.15 13.00L3.86 13.00Q2.41 13.00 1.85 12.45Q1.30 11.91 1.30 10.47L1.30 10.47L1.30 6.32L0.38 6.32L0.38 5.34L1.30 5.34L1.30 3.17ZM11.69 5.56L11.69 5.56L11.69 6.75Q11.16 6.48 10.58 6.34Q10.01 6.21 9.39 6.21L9.39 6.21Q8.46 6.21 7.99 6.49Q7.52 6.78 7.52 7.36L7.52 7.36Q7.52 7.79 7.85 8.04Q8.19 8.29 9.20 8.52L9.20 8.52L9.63 8.61Q10.97 8.90 11.54 9.42Q12.10 9.95 12.10 10.88L12.10 10.88Q12.10 11.95 11.26 12.57Q10.41 13.19 8.93 13.19L8.93 13.19Q8.32 13.19 7.65 13.07Q6.99 12.95 6.25 12.71L6.25 12.71L6.25 11.42Q6.95 11.78 7.62 11.96Q8.30 12.14 8.96 12.14L8.96 12.14Q9.85 12.14 10.33 11.84Q10.81 11.53 10.81 10.98L10.81 10.98Q10.81 10.47 10.46 10.19Q10.12 9.92 8.95 9.67L8.95 9.67L8.51 9.56Q7.34 9.32 6.82 8.81Q6.30 8.30 6.30 7.41L6.30 7.41Q6.30 6.33 7.07 5.74Q7.83 5.15 9.24 5.15L9.24 5.15Q9.94 5.15 10.55 5.26Q11.17 5.36 11.69 5.56ZM17.07 6.22L17.07 6.22Q16.06 6.22 15.47 7.01Q14.88 7.80 14.88 9.17L14.88 9.17Q14.88 10.55 15.47 11.34Q16.05 12.13 17.07 12.13L17.07 12.13Q18.07 12.13 18.66 11.33Q19.25 10.54 19.25 9.17L19.25 9.17Q19.25 7.81 18.66 7.02Q18.07 6.22 17.07 6.22ZM17.07 5.15L17.07 5.15Q18.71 5.15 19.65 6.22Q20.58 7.29 20.58 9.17L20.58 9.17Q20.58 11.05 19.65 12.12Q18.71 13.19 17.07 13.19L17.07 13.19Q15.42 13.19 14.49 12.12Q13.56 11.05 13.56 9.17L13.56 9.17Q13.56 7.29 14.49 6.22Q15.42 5.15 17.07 5.15ZM29.03 8.37L29.03 8.37L29.03 13.13Q29.03 14.59 28.47 15.25L28.47 15.25Q27.92 15.91 26.68 15.91L26.68 15.91L24.94 15.91L24.94 14.84L26.54 14.84Q27.25 14.84 27.51 14.51L27.51 14.51Q27.77 14.18 27.77 13.13L27.77 13.13L27.77 8.42Q27.77 7.33 27.35 6.79Q26.93 6.25 26.08 6.25L26.08 6.25Q25.06 6.25 24.47 6.90Q23.88 7.55 23.88 8.67L23.88 8.67L23.88 13.00L22.62 13.00L22.62 5.34L23.88 5.34L23.88 6.53Q24.34 5.84 24.94 5.50L24.94 5.50Q25.56 5.15 26.36 5.15L26.36 5.15Q27.68 5.15 28.36 5.97L28.36 5.97Q29.03 6.79 29.03 8.37ZM31.19 5.58L31.19 2.72L34.68 2.72L34.68 3.37L32.01 3.37L32.01 4.76Q32.20 4.70 32.40 4.68L32.40 4.68Q32.59 4.65 32.78 4.65L32.78 4.65Q33.88 4.65 34.52 5.17L34.52 5.17Q35.16 5.69 35.16 6.59L35.16 6.59Q35.16 7.51 34.50 8.03L34.50 8.03Q33.84 8.53 32.64 8.53L32.64 8.53Q32.23 8.53 31.80 8.47Q31.37 8.41 30.92 8.29L30.92 8.29L30.92 7.51Q31.31 7.70 31.73 7.79L31.73 7.79Q32.16 7.88 32.63 7.88L32.63 7.88Q33.39 7.88 33.83 7.53Q34.28 7.18 34.28 6.59Q34.28 6.00 33.83 5.65Q33.39 5.30 32.63 5.30L32.63 5.30Q32.27 5.30 31.92 5.37Q31.56 5.43 31.19 5.58L31.19 5.58ZM39.42 5.34L39.42 5.34Q40.04 5.46 40.39 5.83Q40.74 6.21 40.74 6.77L40.74 6.77Q40.74 7.62 40.09 8.07Q39.44 8.53 38.23 8.53L38.23 8.53Q37.84 8.53 37.41 8.46Q36.98 8.39 36.50 8.25L36.50 8.25L36.50 7.42Q36.86 7.61 37.27 7.70Q37.67 7.79 38.13 7.79L38.13 7.79Q38.88 7.79 39.29 7.52Q39.70 7.25 39.70 6.77L39.70 6.77Q39.70 6.26 39.32 6.00Q38.94 5.74 38.20 5.74L38.20 5.74L37.61 5.74L37.61 5.00L38.25 5.00Q38.90 5.00 39.23 4.79Q39.56 4.57 39.56 4.16L39.56 4.16Q39.56 3.77 39.22 3.56Q38.88 3.35 38.23 3.35L38.23 3.35Q37.95 3.35 37.60 3.41Q37.26 3.47 36.70 3.63L36.70 3.63L36.70 2.84Q37.20 2.73 37.64 2.67Q38.08 2.60 38.45 2.60L38.45 2.60Q39.44 2.60 40.01 3.01Q40.59 3.41 40.59 4.09L40.59 4.09Q40.59 4.56 40.28 4.89Q39.98 5.22 39.42 5.34Z"></path></svg>