<svg height="16.296875" width="39.716796875" xmlns="http://www.w3.org/2000/svg" ><path d="M1.30 3.17L2.56 3.17L2.56 5.34L5.15 5.34L5.15 6.32L2.56 6.32L2.56 10.47Q2.56 11.41 2.82 11.68Q3.08 11.94 3.86 11.94L3.86 11.94L5.15 11.94L5.15 13.00L3.86 13.00Q2.41 13.00 1.85 12.45Q1.30 11.91 1.30 10.47L1.30 10.47L1.30 6.32L0.38 6.32L0.38 5.34L1.30 5.34L1.30 3.17ZM11.69 5.56L11.69 5.56L11.69 6.75Q11.16 6.48 10.58 6.34Q10.01 6.21 9.39 6.21L9.39 6.21Q8.46 6.21 7.99 6.49Q7.52 6.78 7.52 7.36L7.52 7.36Q7.52 7.79 7.85 8.04Q8.19 8.29 9.20 8.52L9.20 8.52L9.63 8.61Q10.97 8.90 11.54 9.42Q12.10 9.95 12.10 10.88L12.10 10.88Q12.10 11.95 11.26 12.57Q10.41 13.19 8.93 13.19L8.93 13.19Q8.32 13.19 7.65 13.07Q6.99 12.95 6.25 12.71L6.25 12.71L6.25 11.42Q6.95 11.78 7.62 11.96Q8.30 12.14 8.96 12.14L8.96 12.14Q9.85 12.14 10.33 11.84Q10.81 11.53 10.81 10.98L10.81 10.98Q10.81 10.47 10.46 10.19Q10.12 9.92 8.95 9.67L8.95 9.67L8.51 9.56Q7.34 9.32 6.82 8.81Q6.30 8.30 6.30 7.41L6.30 7.41Q6.30 6.33 7.07 5.74Q7.83 5.15 9.24 5.15L9.24 5.15Q9.94 5.15 10.55 5.26Q11.17 5.36 11.69 5.56ZM17.07 6.22L17.07 6.22Q16.06 6.22 15.47 7.01Q14.88 7.80 14.88 9.17L14.88 9.17Q14.88 10.55 15.47 11.34Q16.05 12.13 17.07 12.13L17.07 12.13Q18.07 12.13 18.66 11.33Q19.25 10.54 19.25 9.17L19.25 9.17Q19.25 7.81 18.66 7.02Q18.07 6.22 17.07 6.22ZM17.07 5.15L17.07 5.15Q18.71 5.15 19.65 6.22Q20.58 7.29 20.58 9.17L20.58 9.17Q20.58 11.05 19.65 12.12Q18.71 13.19 17.07 13.19L17.07 13.19Q15.42 13.19 14.49 12.12Q13.56 11.05 13.56 9.17L13.56 9.17Q13.56 7.29 14.49 6.22Q15.42 5.15 17.07 5.15ZM23.68 13.00L23.67 7.54L24.10 7.54Q25.42 7.54 26.00 6.76L26.00 6.76Q26.40 6.24 26.40 5.57L26.40 5.57Q26.39 4.66 26.00 4.22L26.00 4.22Q25.33 3.44 24.10 3.44L24.10 3.44Q23.56 3.44 23.02 3.59L23.02 3.59Q22.48 3.73 21.95 4.03L21.95 4.03L21.95 2.85Q22.47 2.61 23.02 2.50L23.02 2.50Q23.58 2.37 24.16 2.37L24.16 2.37Q26.04 2.37 26.98 3.45L26.98 3.45Q27.73 4.30 27.73 5.57L27.73 5.57Q27.73 6.73 26.99 7.52L26.99 7.52Q26.22 8.33 25.06 8.54L25.06 8.54L25.06 13.00L23.68 13.00ZM29.46 5.58L29.46 2.72L32.95 2.72L32.95 3.37L30.28 3.37L30.28 4.76Q30.47 4.70 30.67 4.68L30.67 4.68Q30.86 4.65 31.05 4.65L31.05 4.65Q32.15 4.65 32.79 5.17L32.79 5.17Q33.43 5.69 33.43 6.59L33.43 6.59Q33.43 7.51 32.77 8.03L32.77 8.03Q32.12 8.53 30.91 8.53L30.91 8.53Q30.50 8.53 30.07 8.47Q29.64 8.41 29.19 8.29L29.19 8.29L29.19 7.51Q29.58 7.70 30.00 7.79L30.00 7.79Q30.43 7.88 30.90 7.88L30.90 7.88Q31.66 7.88 32.10 7.53Q32.55 7.18 32.55 6.59Q32.55 6.00 32.10 5.65Q31.66 5.30 30.90 5.30L30.90 5.30Q30.54 5.30 30.19 5.37Q29.83 5.43 29.46 5.58L29.46 5.58ZM35.08 5.58L35.08 2.72L38.56 2.72L38.56 3.37L35.89 3.37L35.89 4.76Q36.08 4.70 36.28 4.68L36.28 4.68Q36.47 4.65 36.66 4.65L36.66 4.65Q37.76 4.65 38.40 5.17L38.40 5.17Q39.05 5.69 39.05 6.59L39.05 6.59Q39.05 7.51 38.38 8.03L38.38 8.03Q37.73 8.53 36.52 8.53L36.52 8.53Q36.11 8.53 35.68 8.47Q35.25 8.41 34.80 8.29L34.80 8.29L34.80 7.51Q35.19 7.70 35.62 7.79L35.62 7.79Q36.04 7.88 36.51 7.88L36.51 7.88Q37.27 7.88 37.71 7.53Q38.16 7.18 38.16 6.59Q38.16 6.00 37.71 5.65Q37.27 5.30 36.51 5.30L36.51 5.30Q36.16 5.30 35.80 5.37Q35.44 5.43 35.08 5.58L35.08 5.58Z"></path></svg>