<svg height="16.296875" width="32.880859375" xmlns="http://www.w3.org/2000/svg" ><path d="M1.30 3.17L2.56 3.17L2.56 5.34L5.15 5.34L5.15 6.32L2.56 6.32L2.56 10.47Q2.56 11.41 2.82 11.68Q3.08 11.94 3.86 11.94L3.86 11.94L5.15 11.94L5.15 13.00L3.86 13.00Q2.41 13.00 1.85 12.45Q1.30 11.91 1.30 10.47L1.30 10.47L1.30 6.32L0.38 6.32L0.38 5.34L1.30 5.34L1.30 3.17ZM11.69 5.56L11.69 5.56L11.69 6.75Q11.16 6.48 10.58 6.34Q10.01 6.21 9.39 6.21L9.39 6.21Q8.46 6.21 7.99 6.49Q7.52 6.78 7.52 7.36L7.52 7.36Q7.52 7.79 7.85 8.04Q8.19 8.29 9.20 8.52L9.20 8.52L9.63 8.61Q10.97 8.90 11.54 9.42Q12.10 9.95 12.10 10.88L12.10 10.88Q12.10 11.95 11.26 12.57Q10.41 13.19 8.93 13.19L8.93 13.19Q8.32 13.19 7.65 13.07Q6.99 12.95 6.25 12.71L6.25 12.71L6.25 11.42Q6.95 11.78 7.62 11.96Q8.30 12.14 8.96 12.14L8.96 12.14Q9.85 12.14 10.33 11.84Q10.81 11.53 10.81 10.98L10.81 10.98Q10.81 10.47 10.46 10.19Q10.12 9.92 8.95 9.67L8.95 9.67L8.51 9.56Q7.34 9.32 6.82 8.81Q6.30 8.30 6.30 7.41L6.30 7.41Q6.30 6.33 7.07 5.74Q7.83 5.15 9.24 5.15L9.24 5.15Q9.94 5.15 10.55 5.26Q11.17 5.36 11.69 5.56ZM13.97 9.97L13.97 9.97L13.97 5.34L15.23 5.34L15.23 9.93Q15.23 11.01 15.65 11.56Q16.08 12.10 16.93 12.10L16.93 12.10Q17.94 12.10 18.54 11.45Q19.13 10.80 19.13 9.68L19.13 9.68L19.13 5.34L20.38 5.34L20.38 13.00L19.13 13.00L19.13 11.82Q18.67 12.52 18.06 12.85Q17.46 13.19 16.66 13.19L16.66 13.19Q15.34 13.19 14.66 12.37Q13.97 11.55 13.97 9.97ZM17.14 5.15L17.14 5.15ZM22.63 5.58L22.63 2.72L26.11 2.72L26.11 3.37L23.44 3.37L23.44 4.76Q23.63 4.70 23.83 4.68L23.83 4.68Q24.02 4.65 24.21 4.65L24.21 4.65Q25.31 4.65 25.96 5.17L25.96 5.17Q26.60 5.69 26.60 6.59L26.60 6.59Q26.60 7.51 25.94 8.03L25.94 8.03Q25.28 8.53 24.08 8.53L24.08 8.53Q23.67 8.53 23.24 8.47Q22.80 8.41 22.35 8.29L22.35 8.29L22.35 7.51Q22.74 7.70 23.17 7.79L23.17 7.79Q23.59 7.88 24.06 7.88L24.06 7.88Q24.82 7.88 25.27 7.53Q25.71 7.18 25.71 6.59Q25.71 6.00 25.27 5.65Q24.82 5.30 24.06 5.30L24.06 5.30Q23.71 5.30 23.35 5.37Q23.00 5.43 22.63 5.58L22.63 5.58ZM30.85 5.34L30.85 5.34Q31.48 5.46 31.82 5.83Q32.17 6.21 32.17 6.77L32.17 6.77Q32.17 7.62 31.52 8.07Q30.87 8.53 29.66 8.53L29.66 8.53Q29.27 8.53 28.84 8.46Q28.42 8.39 27.94 8.25L27.94 8.25L27.94 7.42Q28.29 7.61 28.70 7.70Q29.11 7.79 29.57 7.79L29.57 7.79Q30.31 7.79 30.72 7.52Q31.13 7.25 31.13 6.77L31.13 6.77Q31.13 6.26 30.75 6.00Q30.37 5.74 29.63 5.74L29.63 5.74L29.05 5.74L29.05 5.00L29.69 5.00Q30.33 5.00 30.66 4.79Q30.99 4.57 30.99 4.16L30.99 4.16Q30.99 3.77 30.65 3.56Q30.31 3.35 29.66 3.35L29.66 3.35Q29.39 3.35 29.04 3.41Q28.69 3.47 28.14 3.63L28.14 3.63L28.14 2.84Q28.64 2.73 29.07 2.67Q29.51 2.60 29.89 2.60L29.89 2.60Q30.87 2.60 31.45 3.01Q32.03 3.41 32.03 4.09L32.03 4.09Q32.03 4.56 31.72 4.89Q31.41 5.22 30.85 5.34Z"></path></svg>