<svg height="16.296875" width="31.431640625" xmlns="http://www.w3.org/2000/svg" ><path d="M1.30 3.17L2.56 3.17L2.56 5.34L5.15 5.34L5.15 6.32L2.56 6.32L2.56 10.47Q2.56 11.41 2.82 11.68Q3.08 11.94 3.86 11.94L3.86 11.94L5.15 11.94L5.15 13.00L3.86 13.00Q2.41 13.00 1.85 12.45Q1.30 11.91 1.30 10.47L1.30 10.47L1.30 6.32L0.38 6.32L0.38 5.34L1.30 5.34L1.30 3.17ZM11.69 5.56L11.69 5.56L11.69 6.75Q11.16 6.48 10.58 6.34Q10.01 6.21 9.39 6.21L9.39 6.21Q8.46 6.21 7.99 6.49Q7.52 6.78 7.52 7.36L7.52 7.36Q7.52 7.79 7.85 8.04Q8.19 8.29 9.20 8.52L9.20 8.52L9.63 8.61Q10.97 8.90 11.54 9.42Q12.10 9.95 12.10 10.88L12.10 10.88Q12.10 11.95 11.26 12.57Q10.41 13.19 8.93 13.19L8.93 13.19Q8.32 13.19 7.65 13.07Q6.99 12.95 6.25 12.71L6.25 12.71L6.25 11.42Q6.95 11.78 7.62 11.96Q8.30 12.14 8.96 12.14L8.96 12.14Q9.85 12.14 10.33 11.84Q10.81 11.53 10.81 10.98L10.81 10.98Q10.81 10.47 10.46 10.19Q10.12 9.92 8.95 9.67L8.95 9.67L8.51 9.56Q7.34 9.32 6.82 8.81Q6.30 8.30 6.30 7.41L6.30 7.41Q6.30 6.33 7.07 5.74Q7.83 5.15 9.24 5.15L9.24 5.15Q9.94 5.15 10.55 5.26Q11.17 5.36 11.69 5.56ZM17.66 7.93L17.66 7.93L17.66 11.87L18.89 11.87L18.89 13.00L15.29 13.00L15.29 11.87L16.41 11.87L16.41 7.93Q16.41 6.88 16.15 6.55Q15.89 6.22 15.17 6.22L15.17 6.22L13.58 6.22L13.58 5.15L15.31 5.15Q16.55 5.15 17.11 5.81Q17.66 6.47 17.66 7.93ZM21.18 5.58L21.18 2.72L24.66 2.72L24.66 3.37L21.99 3.37L21.99 4.76Q22.18 4.70 22.38 4.68L22.38 4.68Q22.57 4.65 22.76 4.65L22.76 4.65Q23.86 4.65 24.51 5.17L24.51 5.17Q25.15 5.69 25.15 6.59L25.15 6.59Q25.15 7.51 24.49 8.03L24.49 8.03Q23.83 8.53 22.63 8.53L22.63 8.53Q22.22 8.53 21.79 8.47Q21.36 8.41 20.90 8.29L20.90 8.29L20.90 7.51Q21.29 7.70 21.72 7.79L21.72 7.79Q22.14 7.88 22.61 7.88L22.61 7.88Q23.37 7.88 23.82 7.53Q24.26 7.18 24.26 6.59Q24.26 6.00 23.82 5.65Q23.37 5.30 22.61 5.30L22.61 5.30Q22.26 5.30 21.90 5.37Q21.55 5.43 21.18 5.58L21.18 5.58ZM29.40 5.34L29.40 5.34Q30.03 5.46 30.38 5.83Q30.72 6.21 30.72 6.77L30.72 6.77Q30.72 7.62 30.07 8.07Q29.42 8.53 28.21 8.53L28.21 8.53Q27.82 8.53 27.40 8.46Q26.97 8.39 26.49 8.25L26.49 8.25L26.49 7.42Q26.84 7.61 27.25 7.70Q27.66 7.79 28.12 7.79L28.12 7.79Q28.86 7.79 29.27 7.52Q29.68 7.25 29.68 6.77L29.68 6.77Q29.68 6.26 29.30 6.00Q28.92 5.74 28.18 5.74L28.18 5.74L27.60 5.74L27.60 5.00L28.24 5.00Q28.88 5.00 29.21 4.79Q29.54 4.57 29.54 4.16L29.54 4.16Q29.54 3.77 29.20 3.56Q28.86 3.35 28.21 3.35L28.21 3.35Q27.94 3.35 27.59 3.41Q27.24 3.47 26.69 3.63L26.69 3.63L26.69 2.84Q27.19 2.73 27.62 2.67Q28.06 2.60 28.44 2.60L28.44 2.60Q29.42 2.60 30.00 3.01Q30.58 3.41 30.58 4.09L30.58 4.09Q30.58 4.56 30.27 4.89Q29.96 5.22 29.40 5.34Z"></path></svg>