<svg height="16.296875" width="25.5869140625" xmlns="http://www.w3.org/2000/svg" ><path d="M1.30 3.17L2.56 3.17L2.56 5.34L5.15 5.34L5.15 6.32L2.56 6.32L2.56 10.47Q2.56 11.41 2.82 11.68Q3.08 11.94 3.86 11.94L3.86 11.94L5.15 11.94L5.15 13.00L3.86 13.00Q2.41 13.00 1.85 12.45Q1.30 11.91 1.30 10.47L1.30 10.47L1.30 6.32L0.38 6.32L0.38 5.34L1.30 5.34L1.30 3.17ZM6.68 9.97L6.68 9.97L6.68 5.34L7.94 5.34L7.94 9.93Q7.94 11.01 8.36 11.56Q8.78 12.10 9.63 12.10L9.63 12.10Q10.65 12.10 11.24 11.45Q11.83 10.80 11.83 9.68L11.83 9.68L11.83 5.34L13.09 5.34L13.09 13.00L11.83 13.00L11.83 11.82Q11.38 12.52 10.77 12.85Q10.17 13.19 9.37 13.19L9.37 13.19Q8.05 13.19 7.36 12.37Q6.68 11.55 6.68 9.97ZM9.84 5.15L9.84 5.15ZM15.33 5.58L15.33 2.72L18.82 2.72L18.82 3.37L16.15 3.37L16.15 4.76Q16.34 4.70 16.54 4.68L16.54 4.68Q16.73 4.65 16.92 4.65L16.92 4.65Q18.02 4.65 18.66 5.17L18.66 5.17Q19.30 5.69 19.30 6.59L19.30 6.59Q19.30 7.51 18.64 8.03L18.64 8.03Q17.99 8.53 16.78 8.53L16.78 8.53Q16.37 8.53 15.94 8.47Q15.51 8.41 15.06 8.29L15.06 8.29L15.06 7.51Q15.45 7.70 15.87 7.79L15.87 7.79Q16.30 7.88 16.77 7.88L16.77 7.88Q17.53 7.88 17.97 7.53Q18.42 7.18 18.42 6.59Q18.42 6.00 17.97 5.65Q17.53 5.30 16.77 5.30L16.77 5.30Q16.41 5.30 16.06 5.37Q15.70 5.43 15.33 5.58L15.33 5.58ZM23.56 5.34L23.56 5.34Q24.19 5.46 24.53 5.83Q24.88 6.21 24.88 6.77L24.88 6.77Q24.88 7.62 24.23 8.07Q23.58 8.53 22.37 8.53L22.37 8.53Q21.98 8.53 21.55 8.46Q21.12 8.39 20.64 8.25L20.64 8.25L20.64 7.42Q21 7.61 21.41 7.70Q21.81 7.79 22.27 7.79L22.27 7.79Q23.02 7.79 23.43 7.52Q23.84 7.25 23.84 6.77L23.84 6.77Q23.84 6.26 23.46 6.00Q23.08 5.74 22.34 5.74L22.34 5.74L21.75 5.74L21.75 5.00L22.39 5.00Q23.04 5.00 23.37 4.79Q23.70 4.57 23.70 4.16L23.70 4.16Q23.70 3.77 23.36 3.56Q23.02 3.35 22.37 3.35L22.37 3.35Q22.09 3.35 21.75 3.41Q21.40 3.47 20.84 3.63L20.84 3.63L20.84 2.84Q21.34 2.73 21.78 2.67Q22.22 2.60 22.59 2.60L22.59 2.60Q23.58 2.60 24.15 3.01Q24.73 3.41 24.73 4.09L24.73 4.09Q24.73 4.56 24.42 4.89Q24.12 5.22 23.56 5.34Z"></path></svg>