<svg height="16.296875" width="31.19921875" xmlns="http://www.w3.org/2000/svg" ><path d="M1.30 3.17L2.56 3.17L2.56 5.34L5.15 5.34L5.15 6.32L2.56 6.32L2.56 10.47Q2.56 11.41 2.82 11.68Q3.08 11.94 3.86 11.94L3.86 11.94L5.15 11.94L5.15 13.00L3.86 13.00Q2.41 13.00 1.85 12.45Q1.30 11.91 1.30 10.47L1.30 10.47L1.30 6.32L0.38 6.32L0.38 5.34L1.30 5.34L1.30 3.17ZM6.68 9.97L6.68 9.97L6.68 5.34L7.94 5.34L7.94 9.93Q7.94 11.01 8.36 11.56Q8.78 12.10 9.63 12.10L9.63 12.10Q10.65 12.10 11.24 11.45Q11.83 10.80 11.83 9.68L11.83 9.68L11.83 5.34L13.09 5.34L13.09 13.00L11.83 13.00L11.83 11.82Q11.38 12.52 10.77 12.85Q10.17 13.19 9.37 13.19L9.37 13.19Q8.05 13.19 7.36 12.37Q6.68 11.55 6.68 9.97ZM9.84 5.15L9.84 5.15ZM17.94 5.34L17.94 5.34Q18.57 5.46 18.92 5.83Q19.26 6.21 19.26 6.77L19.26 6.77Q19.26 7.62 18.61 8.07Q17.96 8.53 16.75 8.53L16.75 8.53Q16.37 8.53 15.94 8.46Q15.51 8.39 15.03 8.25L15.03 8.25L15.03 7.42Q15.39 7.61 15.79 7.70Q16.20 7.79 16.66 7.79L16.66 7.79Q17.40 7.79 17.81 7.52Q18.22 7.25 18.22 6.77L18.22 6.77Q18.22 6.26 17.85 6.00Q17.47 5.74 16.73 5.74L16.73 5.74L16.14 5.74L16.14 5.00L16.78 5.00Q17.42 5.00 17.76 4.79Q18.09 4.57 18.09 4.16L18.09 4.16Q18.09 3.77 17.75 3.56Q17.40 3.35 16.75 3.35L16.75 3.35Q16.48 3.35 16.13 3.41Q15.78 3.47 15.23 3.63L15.23 3.63L15.23 2.84Q15.73 2.73 16.17 2.67Q16.60 2.60 16.98 2.60L16.98 2.60Q17.96 2.60 18.54 3.01Q19.12 3.41 19.12 4.09L19.12 4.09Q19.12 4.56 18.81 4.89Q18.50 5.22 17.94 5.34ZM23.56 5.34L23.56 5.34Q24.19 5.46 24.53 5.83Q24.88 6.21 24.88 6.77L24.88 6.77Q24.88 7.62 24.23 8.07Q23.58 8.53 22.37 8.53L22.37 8.53Q21.98 8.53 21.55 8.46Q21.12 8.39 20.64 8.25L20.64 8.25L20.64 7.42Q21 7.61 21.41 7.70Q21.81 7.79 22.27 7.79L22.27 7.79Q23.02 7.79 23.43 7.52Q23.84 7.25 23.84 6.77L23.84 6.77Q23.84 6.26 23.46 6.00Q23.08 5.74 22.34 5.74L22.34 5.74L21.75 5.74L21.75 5.00L22.39 5.00Q23.04 5.00 23.37 4.79Q23.70 4.57 23.70 4.16L23.70 4.16Q23.70 3.77 23.36 3.56Q23.02 3.35 22.37 3.35L22.37 3.35Q22.09 3.35 21.75 3.41Q21.40 3.47 20.84 3.63L20.84 3.63L20.84 2.84Q21.34 2.73 21.78 2.67Q22.22 2.60 22.59 2.60L22.59 2.60Q23.58 2.60 24.15 3.01Q24.73 3.41 24.73 4.09L24.73 4.09Q24.73 4.56 24.42 4.89Q24.12 5.22 23.56 5.34ZM28.85 6.41L28.85 3.55L26.74 6.41L28.85 6.41ZM26.02 6.33L28.70 2.72L29.83 2.72L29.83 6.41L30.75 6.41L30.75 7.16L29.83 7.16L29.83 8.43L28.85 8.43L28.85 7.16L26.02 7.16L26.02 6.33Z"></path></svg>