<svg height="16.296875" width="20.09765625" xmlns="http://www.w3.org/2000/svg" ><path d="M1.19 9.97L1.19 9.97L1.19 5.34L2.45 5.34L2.45 9.93Q2.45 11.01 2.87 11.56Q3.29 12.10 4.14 12.10L4.14 12.10Q5.16 12.10 5.75 11.45Q6.34 10.80 6.34 9.68L6.34 9.68L6.34 5.34L7.60 5.34L7.60 13.00L6.34 13.00L6.34 11.82Q5.89 12.52 5.28 12.85Q4.68 13.19 3.88 13.19L3.88 13.19Q2.56 13.19 1.87 12.37Q1.19 11.55 1.19 9.97ZM4.35 5.15L4.35 5.15ZM9.84 5.58L9.84 2.72L13.33 2.72L13.33 3.37L10.66 3.37L10.66 4.76Q10.85 4.70 11.05 4.68L11.05 4.68Q11.24 4.65 11.43 4.65L11.43 4.65Q12.53 4.65 13.17 5.17L13.17 5.17Q13.82 5.69 13.82 6.59L13.82 6.59Q13.82 7.51 13.15 8.03L13.15 8.03Q12.50 8.53 11.29 8.53L11.29 8.53Q10.88 8.53 10.45 8.47Q10.02 8.41 9.57 8.29L9.57 8.29L9.57 7.51Q9.96 7.70 10.38 7.79L10.38 7.79Q10.81 7.88 11.28 7.88L11.28 7.88Q12.04 7.88 12.48 7.53Q12.93 7.18 12.93 6.59Q12.93 6.00 12.48 5.65Q12.04 5.30 11.28 5.30L11.28 5.30Q10.92 5.30 10.57 5.37Q10.21 5.43 9.84 5.58L9.84 5.58ZM18.07 5.34L18.07 5.34Q18.70 5.46 19.04 5.83Q19.39 6.21 19.39 6.77L19.39 6.77Q19.39 7.62 18.74 8.07Q18.09 8.53 16.88 8.53L16.88 8.53Q16.49 8.53 16.06 8.46Q15.63 8.39 15.16 8.25L15.16 8.25L15.16 7.42Q15.51 7.61 15.92 7.70Q16.32 7.79 16.78 7.79L16.78 7.79Q17.53 7.79 17.94 7.52Q18.35 7.25 18.35 6.77L18.35 6.77Q18.35 6.26 17.97 6.00Q17.59 5.74 16.85 5.74L16.85 5.74L16.26 5.74L16.26 5.00L16.91 5.00Q17.55 5.00 17.88 4.79Q18.21 4.57 18.21 4.16L18.21 4.16Q18.21 3.77 17.87 3.56Q17.53 3.35 16.88 3.35L16.88 3.35Q16.60 3.35 16.26 3.41Q15.91 3.47 15.35 3.63L15.35 3.63L15.35 2.84Q15.85 2.73 16.29 2.67Q16.73 2.60 17.10 2.60L17.10 2.60Q18.09 2.60 18.67 3.01Q19.24 3.41 19.24 4.09L19.24 4.09Q19.24 4.56 18.94 4.89Q18.63 5.22 18.07 5.34Z"></path></svg>