<svg height="16.296875" width="25.7099609375" xmlns="http://www.w3.org/2000/svg" ><path d="M1.19 9.97L1.19 9.97L1.19 5.34L2.45 5.34L2.45 9.93Q2.45 11.01 2.87 11.56Q3.29 12.10 4.14 12.10L4.14 12.10Q5.16 12.10 5.75 11.45Q6.34 10.80 6.34 9.68L6.34 9.68L6.34 5.34L7.60 5.34L7.60 13.00L6.34 13.00L6.34 11.82Q5.89 12.52 5.28 12.85Q4.68 13.19 3.88 13.19L3.88 13.19Q2.56 13.19 1.87 12.37Q1.19 11.55 1.19 9.97ZM4.35 5.15L4.35 5.15ZM12.46 5.34L12.46 5.34Q13.08 5.46 13.43 5.83Q13.77 6.21 13.77 6.77L13.77 6.77Q13.77 7.62 13.13 8.07Q12.48 8.53 11.27 8.53L11.27 8.53Q10.88 8.53 10.45 8.46Q10.02 8.39 9.54 8.25L9.54 8.25L9.54 7.42Q9.90 7.61 10.31 7.70Q10.71 7.79 11.17 7.79L11.17 7.79Q11.92 7.79 12.33 7.52Q12.74 7.25 12.74 6.77L12.74 6.77Q12.74 6.26 12.36 6.00Q11.98 5.74 11.24 5.74L11.24 5.74L10.65 5.74L10.65 5.00L11.29 5.00Q11.94 5.00 12.27 4.79Q12.60 4.57 12.60 4.16L12.60 4.16Q12.60 3.77 12.26 3.56Q11.92 3.35 11.27 3.35L11.27 3.35Q10.99 3.35 10.64 3.41Q10.29 3.47 9.74 3.63L9.74 3.63L9.74 2.84Q10.24 2.73 10.68 2.67Q11.12 2.60 11.49 2.60L11.49 2.60Q12.48 2.60 13.05 3.01Q13.63 3.41 13.63 4.09L13.63 4.09Q13.63 4.56 13.32 4.89Q13.02 5.22 12.46 5.34ZM18.07 5.34L18.07 5.34Q18.70 5.46 19.04 5.83Q19.39 6.21 19.39 6.77L19.39 6.77Q19.39 7.62 18.74 8.07Q18.09 8.53 16.88 8.53L16.88 8.53Q16.49 8.53 16.06 8.46Q15.63 8.39 15.16 8.25L15.16 8.25L15.16 7.42Q15.51 7.61 15.92 7.70Q16.32 7.79 16.78 7.79L16.78 7.79Q17.53 7.79 17.94 7.52Q18.35 7.25 18.35 6.77L18.35 6.77Q18.35 6.26 17.97 6.00Q17.59 5.74 16.85 5.74L16.85 5.74L16.26 5.74L16.26 5.00L16.91 5.00Q17.55 5.00 17.88 4.79Q18.21 4.57 18.21 4.16L18.21 4.16Q18.21 3.77 17.87 3.56Q17.53 3.35 16.88 3.35L16.88 3.35Q16.60 3.35 16.26 3.41Q15.91 3.47 15.35 3.63L15.35 3.63L15.35 2.84Q15.85 2.73 16.29 2.67Q16.73 2.60 17.10 2.60L17.10 2.60Q18.09 2.60 18.67 3.01Q19.24 3.41 19.24 4.09L19.24 4.09Q19.24 4.56 18.94 4.89Q18.63 5.22 18.07 5.34ZM23.36 6.41L23.36 3.55L21.25 6.41L23.36 6.41ZM20.53 6.33L23.21 2.72L24.34 2.72L24.34 6.41L25.27 6.41L25.27 7.16L24.34 7.16L24.34 8.43L23.36 8.43L23.36 7.16L20.53 7.16L20.53 6.33Z"></path></svg>