<svg height="16.296875" width="28.6767578125" xmlns="http://www.w3.org/2000/svg" ><path d="M1.19 9.97L1.19 9.97L1.19 5.34L2.45 5.34L2.45 9.93Q2.45 11.01 2.87 11.56Q3.29 12.10 4.14 12.10L4.14 12.10Q5.16 12.10 5.75 11.45Q6.34 10.80 6.34 9.68L6.34 9.68L6.34 5.34L7.60 5.34L7.60 13.00L6.34 13.00L6.34 11.82Q5.89 12.52 5.28 12.85Q4.68 13.19 3.88 13.19L3.88 13.19Q2.56 13.19 1.87 12.37Q1.19 11.55 1.19 9.97ZM4.35 5.15L4.35 5.15ZM14.92 9.15L13.67 9.15Q12.15 9.15 11.56 9.50Q10.97 9.84 10.97 10.68L10.97 10.68Q10.97 11.35 11.41 11.75Q11.85 12.14 12.61 12.14L12.61 12.14Q13.66 12.14 14.29 11.40Q14.92 10.66 14.92 9.43L14.92 9.43L14.92 9.15ZM16.18 8.63L16.18 8.63L16.18 13.00L14.92 13.00L14.92 11.83Q14.49 12.53 13.85 12.86Q13.21 13.19 12.28 13.19L12.28 13.19Q11.10 13.19 10.41 12.53Q9.71 11.87 9.71 10.77L9.71 10.77Q9.71 9.47 10.58 8.82Q11.44 8.16 13.16 8.16L13.16 8.16L14.92 8.16L14.92 8.04Q14.92 7.17 14.35 6.70Q13.78 6.22 12.75 6.22L12.75 6.22Q12.09 6.22 11.47 6.38Q10.85 6.54 10.27 6.85L10.27 6.85L10.27 5.69Q10.96 5.42 11.61 5.29Q12.26 5.15 12.88 5.15L12.88 5.15Q14.54 5.15 15.36 6.02Q16.18 6.88 16.18 8.63ZM13.91 3.63L13.91 3.63L13.52 3.25Q13.37 3.12 13.26 3.05Q13.15 2.99 13.06 2.99L13.06 2.99Q12.80 2.99 12.67 3.24Q12.55 3.49 12.54 4.05L12.54 4.05L11.68 4.05Q11.70 3.12 12.04 2.62Q12.39 2.12 13.02 2.12L13.02 2.12Q13.28 2.12 13.49 2.21Q13.71 2.31 13.97 2.54L13.97 2.54L14.36 2.91Q14.51 3.05 14.62 3.11Q14.73 3.18 14.82 3.18L14.82 3.18Q15.08 3.18 15.20 2.93Q15.33 2.68 15.34 2.12L15.34 2.12L16.19 2.12Q16.18 3.04 15.83 3.54Q15.48 4.05 14.86 4.05L14.86 4.05Q14.60 4.05 14.38 3.95Q14.16 3.86 13.91 3.63ZM18.42 5.58L18.42 2.72L21.91 2.72L21.91 3.37L19.24 3.37L19.24 4.76Q19.43 4.70 19.63 4.68L19.63 4.68Q19.82 4.65 20.01 4.65L20.01 4.65Q21.11 4.65 21.75 5.17L21.75 5.17Q22.39 5.69 22.39 6.59L22.39 6.59Q22.39 7.51 21.73 8.03L21.73 8.03Q21.08 8.53 19.87 8.53L19.87 8.53Q19.46 8.53 19.03 8.47Q18.60 8.41 18.15 8.29L18.15 8.29L18.15 7.51Q18.54 7.70 18.96 7.79L18.96 7.79Q19.39 7.88 19.86 7.88L19.86 7.88Q20.62 7.88 21.06 7.53Q21.51 7.18 21.51 6.59Q21.51 6.00 21.06 5.65Q20.62 5.30 19.86 5.30L19.86 5.30Q19.50 5.30 19.15 5.37Q18.79 5.43 18.42 5.58L18.42 5.58ZM26.65 5.34L26.65 5.34Q27.28 5.46 27.62 5.83Q27.97 6.21 27.97 6.77L27.97 6.77Q27.97 7.62 27.32 8.07Q26.67 8.53 25.46 8.53L25.46 8.53Q25.07 8.53 24.64 8.46Q24.21 8.39 23.73 8.25L23.73 8.25L23.73 7.42Q24.09 7.61 24.50 7.70Q24.90 7.79 25.36 7.79L25.36 7.79Q26.11 7.79 26.52 7.52Q26.93 7.25 26.93 6.77L26.93 6.77Q26.93 6.26 26.55 6.00Q26.17 5.74 25.43 5.74L25.43 5.74L24.84 5.74L24.84 5.00L25.48 5.00Q26.13 5.00 26.46 4.79Q26.79 4.57 26.79 4.16L26.79 4.16Q26.79 3.77 26.45 3.56Q26.11 3.35 25.46 3.35L25.46 3.35Q25.18 3.35 24.83 3.41Q24.49 3.47 23.93 3.63L23.93 3.63L23.93 2.84Q24.43 2.73 24.87 2.67Q25.31 2.60 25.68 2.60L25.68 2.60Q26.67 2.60 27.24 3.01Q27.82 3.41 27.82 4.09L27.82 4.09Q27.82 4.56 27.51 4.89Q27.21 5.22 26.65 5.34Z"></path></svg>