<svg height="16.296875" width="34.5966796875" xmlns="http://www.w3.org/2000/svg" ><path d="M1.19 9.97L1.19 9.97L1.19 5.34L2.45 5.34L2.45 9.93Q2.45 11.01 2.87 11.56Q3.29 12.10 4.14 12.10L4.14 12.10Q5.16 12.10 5.75 11.45Q6.34 10.80 6.34 9.68L6.34 9.68L6.34 5.34L7.60 5.34L7.60 13.00L6.34 13.00L6.34 11.82Q5.89 12.52 5.28 12.85Q4.68 13.19 3.88 13.19L3.88 13.19Q2.56 13.19 1.87 12.37Q1.19 11.55 1.19 9.97ZM4.35 5.15L4.35 5.15ZM15.23 6.50L15.23 6.50L15.23 5.34L16.49 5.34L16.49 13.00L15.23 13.00L15.23 11.85Q14.83 12.53 14.23 12.86Q13.62 13.19 12.78 13.19L12.78 13.19Q11.39 13.19 10.52 12.09Q9.65 10.98 9.65 9.17L9.65 9.17Q9.65 7.37 10.52 6.26Q11.39 5.15 12.78 5.15L12.78 5.15Q13.62 5.15 14.23 5.49Q14.83 5.82 15.23 6.50ZM10.94 9.17L10.94 9.17Q10.94 10.56 11.52 11.35Q12.09 12.14 13.08 12.14L13.08 12.14Q14.08 12.14 14.66 11.35Q15.23 10.56 15.23 9.17L15.23 9.17Q15.23 7.79 14.66 7.00Q14.08 6.21 13.08 6.21L13.08 6.21Q12.09 6.21 11.52 7.00Q10.94 7.79 10.94 9.17ZM14.22 3.63L14.22 3.63L13.83 3.25Q13.68 3.12 13.57 3.05Q13.45 2.99 13.36 2.99L13.36 2.99Q13.10 2.99 12.98 3.24Q12.86 3.49 12.84 4.05L12.84 4.05L11.99 4.05Q12.00 3.12 12.35 2.62Q12.70 2.12 13.32 2.12L13.32 2.12Q13.58 2.12 13.80 2.21Q14.02 2.31 14.27 2.54L14.27 2.54L14.66 2.91Q14.81 3.05 14.93 3.11Q15.04 3.18 15.13 3.18L15.13 3.18Q15.39 3.18 15.51 2.93Q15.63 2.68 15.65 2.12L15.65 2.12L16.50 2.12Q16.49 3.04 16.14 3.54Q15.79 4.05 15.17 4.05L15.17 4.05Q14.91 4.05 14.69 3.95Q14.47 3.86 14.22 3.63ZM21.34 5.34L21.34 5.34Q21.97 5.46 22.32 5.83Q22.66 6.21 22.66 6.77L22.66 6.77Q22.66 7.62 22.01 8.07Q21.36 8.53 20.15 8.53L20.15 8.53Q19.76 8.53 19.34 8.46Q18.91 8.39 18.43 8.25L18.43 8.25L18.43 7.42Q18.79 7.61 19.19 7.70Q19.60 7.79 20.06 7.79L20.06 7.79Q20.80 7.79 21.21 7.52Q21.62 7.25 21.62 6.77L21.62 6.77Q21.62 6.26 21.24 6.00Q20.86 5.74 20.13 5.74L20.13 5.74L19.54 5.74L19.54 5.00L20.18 5.00Q20.82 5.00 21.15 4.79Q21.49 4.57 21.49 4.16L21.49 4.16Q21.49 3.77 21.14 3.56Q20.80 3.35 20.15 3.35L20.15 3.35Q19.88 3.35 19.53 3.41Q19.18 3.47 18.63 3.63L18.63 3.63L18.63 2.84Q19.13 2.73 19.56 2.67Q20.00 2.60 20.38 2.60L20.38 2.60Q21.36 2.60 21.94 3.01Q22.52 3.41 22.52 4.09L22.52 4.09Q22.52 4.56 22.21 4.89Q21.90 5.22 21.34 5.34ZM26.95 5.34L26.95 5.34Q27.58 5.46 27.93 5.83Q28.27 6.21 28.27 6.77L28.27 6.77Q28.27 7.62 27.62 8.07Q26.97 8.53 25.76 8.53L25.76 8.53Q25.38 8.53 24.95 8.46Q24.52 8.39 24.04 8.25L24.04 8.25L24.04 7.42Q24.40 7.61 24.80 7.70Q25.21 7.79 25.67 7.79L25.67 7.79Q26.41 7.79 26.82 7.52Q27.23 7.25 27.23 6.77L27.23 6.77Q27.23 6.26 26.85 6.00Q26.48 5.74 25.74 5.74L25.74 5.74L25.15 5.74L25.15 5.00L25.79 5.00Q26.43 5.00 26.77 4.79Q27.10 4.57 27.10 4.16L27.10 4.16Q27.10 3.77 26.76 3.56Q26.41 3.35 25.76 3.35L25.76 3.35Q25.49 3.35 25.14 3.41Q24.79 3.47 24.24 3.63L24.24 3.63L24.24 2.84Q24.74 2.73 25.18 2.67Q25.61 2.60 25.99 2.60L25.99 2.60Q26.97 2.60 27.55 3.01Q28.13 3.41 28.13 4.09L28.13 4.09Q28.13 4.56 27.82 4.89Q27.51 5.22 26.95 5.34ZM32.25 6.41L32.25 3.55L30.13 6.41L32.25 6.41ZM29.42 6.33L32.09 2.72L33.23 2.72L33.23 6.41L34.15 6.41L34.15 7.16L33.23 7.16L33.23 8.43L32.25 8.43L32.25 7.16L29.42 7.16L29.42 6.33Z"></path></svg>