<svg height="16.296875" width="32.580078125" xmlns="http://www.w3.org/2000/svg" ><path d="M1.19 9.97L1.19 9.97L1.19 5.34L2.45 5.34L2.45 9.93Q2.45 11.01 2.87 11.56Q3.29 12.10 4.14 12.10L4.14 12.10Q5.16 12.10 5.75 11.45Q6.34 10.80 6.34 9.68L6.34 9.68L6.34 5.34L7.60 5.34L7.60 13.00L6.34 13.00L6.34 11.82Q5.89 12.52 5.28 12.85Q4.68 13.19 3.88 13.19L3.88 13.19Q2.56 13.19 1.87 12.37Q1.19 11.55 1.19 9.97ZM4.35 5.15L4.35 5.15ZM10.14 13.00L10.14 5.34L14.98 5.34L14.98 6.35L11.42 6.35L11.42 8.41L14.83 8.41L14.83 9.42L11.42 9.42L11.42 11.99L15.07 11.99L15.07 13.00L10.14 13.00ZM19.33 5.34L19.33 5.34Q19.95 5.46 20.30 5.83Q20.64 6.21 20.64 6.77L20.64 6.77Q20.64 7.62 20.00 8.07Q19.35 8.53 18.14 8.53L18.14 8.53Q17.75 8.53 17.32 8.46Q16.89 8.39 16.41 8.25L16.41 8.25L16.41 7.42Q16.77 7.61 17.18 7.70Q17.58 7.79 18.04 7.79L18.04 7.79Q18.79 7.79 19.20 7.52Q19.61 7.25 19.61 6.77L19.61 6.77Q19.61 6.26 19.23 6.00Q18.85 5.74 18.11 5.74L18.11 5.74L17.52 5.74L17.52 5.00L18.16 5.00Q18.81 5.00 19.14 4.79Q19.47 4.57 19.47 4.16L19.47 4.16Q19.47 3.77 19.13 3.56Q18.79 3.35 18.14 3.35L18.14 3.35Q17.86 3.35 17.51 3.41Q17.17 3.47 16.61 3.63L16.61 3.63L16.61 2.84Q17.11 2.73 17.55 2.67Q17.99 2.60 18.36 2.60L18.36 2.60Q19.35 2.60 19.92 3.01Q20.50 3.41 20.50 4.09L20.50 4.09Q20.50 4.56 20.19 4.89Q19.89 5.22 19.33 5.34ZM24.94 5.34L24.94 5.34Q25.57 5.46 25.91 5.83Q26.26 6.21 26.26 6.77L26.26 6.77Q26.26 7.62 25.61 8.07Q24.96 8.53 23.75 8.53L23.75 8.53Q23.36 8.53 22.93 8.46Q22.50 8.39 22.03 8.25L22.03 8.25L22.03 7.42Q22.38 7.61 22.79 7.70Q23.19 7.79 23.65 7.79L23.65 7.79Q24.40 7.79 24.81 7.52Q25.22 7.25 25.22 6.77L25.22 6.77Q25.22 6.26 24.84 6.00Q24.46 5.74 23.72 5.74L23.72 5.74L23.13 5.74L23.13 5.00L23.78 5.00Q24.42 5.00 24.75 4.79Q25.08 4.57 25.08 4.16L25.08 4.16Q25.08 3.77 24.74 3.56Q24.40 3.35 23.75 3.35L23.75 3.35Q23.47 3.35 23.13 3.41Q22.78 3.47 22.22 3.63L22.22 3.63L22.22 2.84Q22.72 2.73 23.16 2.67Q23.60 2.60 23.97 2.60L23.97 2.60Q24.96 2.60 25.54 3.01Q26.11 3.41 26.11 4.09L26.11 4.09Q26.11 4.56 25.81 4.89Q25.50 5.22 24.94 5.34ZM30.23 6.41L30.23 3.55L28.12 6.41L30.23 6.41ZM27.40 6.33L30.08 2.72L31.21 2.72L31.21 6.41L32.14 6.41L32.14 7.16L31.21 7.16L31.21 8.43L30.23 8.43L30.23 7.16L27.40 7.16L27.40 6.33Z"></path></svg>