<svg height="16.296875" width="43.1962890625" xmlns="http://www.w3.org/2000/svg" ><path d="M1.19 9.97L1.19 9.97L1.19 5.34L2.45 5.34L2.45 9.93Q2.45 11.01 2.87 11.56Q3.29 12.10 4.14 12.10L4.14 12.10Q5.16 12.10 5.75 11.45Q6.34 10.80 6.34 9.68L6.34 9.68L6.34 5.34L7.60 5.34L7.60 13.00L6.34 13.00L6.34 11.82Q5.89 12.52 5.28 12.85Q4.68 13.19 3.88 13.19L3.88 13.19Q2.56 13.19 1.87 12.37Q1.19 11.55 1.19 9.97ZM4.35 5.15L4.35 5.15ZM9.65 9.50L9.65 9.50L9.65 8.88L15.43 8.88Q15.35 7.58 14.65 6.90Q13.95 6.22 12.69 6.22L12.69 6.22Q11.97 6.22 11.29 6.40Q10.61 6.58 9.94 6.93L9.94 6.93L9.94 5.74Q10.62 5.46 11.33 5.30Q12.04 5.15 12.77 5.15L12.77 5.15Q14.60 5.15 15.67 6.22Q16.74 7.29 16.74 9.11L16.74 9.11Q16.74 10.99 15.73 12.09Q14.71 13.19 12.99 13.19L12.99 13.19Q11.44 13.19 10.54 12.20Q9.65 11.20 9.65 9.50ZM15.39 9.86L10.90 9.86Q10.92 10.90 11.48 11.51Q12.04 12.13 12.97 12.13L12.97 12.13Q14.03 12.13 14.66 11.53Q15.29 10.94 15.39 9.86L15.39 9.86ZM25.17 8.37L25.17 8.37L25.17 13.00L23.91 13.00L23.91 8.42Q23.91 7.33 23.49 6.79Q23.06 6.25 22.22 6.25L22.22 6.25Q21.20 6.25 20.61 6.90Q20.02 7.55 20.02 8.67L20.02 8.67L20.02 13.00L18.76 13.00L18.76 5.34L20.02 5.34L20.02 6.53Q20.47 5.84 21.09 5.50Q21.70 5.15 22.50 5.15L22.50 5.15Q23.82 5.15 24.49 5.97Q25.17 6.79 25.17 8.37ZM29.94 5.34L29.94 5.34Q30.57 5.46 30.92 5.83Q31.26 6.21 31.26 6.77L31.26 6.77Q31.26 7.62 30.61 8.07Q29.96 8.53 28.75 8.53L28.75 8.53Q28.36 8.53 27.94 8.46Q27.51 8.39 27.03 8.25L27.03 8.25L27.03 7.42Q27.38 7.61 27.79 7.70Q28.20 7.79 28.66 7.79L28.66 7.79Q29.40 7.79 29.81 7.52Q30.22 7.25 30.22 6.77L30.22 6.77Q30.22 6.26 29.84 6.00Q29.46 5.74 28.72 5.74L28.72 5.74L28.14 5.74L28.14 5.00L28.78 5.00Q29.42 5.00 29.75 4.79Q30.08 4.57 30.08 4.16L30.08 4.16Q30.08 3.77 29.74 3.56Q29.40 3.35 28.75 3.35L28.75 3.35Q28.48 3.35 28.13 3.41Q27.78 3.47 27.23 3.63L27.23 3.63L27.23 2.84Q27.73 2.73 28.16 2.67Q28.60 2.60 28.98 2.60L28.98 2.60Q29.96 2.60 30.54 3.01Q31.12 3.41 31.12 4.09L31.12 4.09Q31.12 4.56 30.81 4.89Q30.50 5.22 29.94 5.34ZM35.55 5.34L35.55 5.34Q36.18 5.46 36.53 5.83Q36.87 6.21 36.87 6.77L36.87 6.77Q36.87 7.62 36.22 8.07Q35.57 8.53 34.36 8.53L34.36 8.53Q33.97 8.53 33.55 8.46Q33.12 8.39 32.64 8.25L32.64 8.25L32.64 7.42Q33.00 7.61 33.40 7.70Q33.81 7.79 34.27 7.79L34.27 7.79Q35.01 7.79 35.42 7.52Q35.83 7.25 35.83 6.77L35.83 6.77Q35.83 6.26 35.45 6.00Q35.08 5.74 34.34 5.74L34.34 5.74L33.75 5.74L33.75 5.00L34.39 5.00Q35.03 5.00 35.37 4.79Q35.70 4.57 35.70 4.16L35.70 4.16Q35.70 3.77 35.36 3.56Q35.01 3.35 34.36 3.35L34.36 3.35Q34.09 3.35 33.74 3.41Q33.39 3.47 32.84 3.63L32.84 3.63L32.84 2.84Q33.34 2.73 33.78 2.67Q34.21 2.60 34.59 2.60L34.59 2.60Q35.57 2.60 36.15 3.01Q36.73 3.41 36.73 4.09L36.73 4.09Q36.73 4.56 36.42 4.89Q36.11 5.22 35.55 5.34ZM40.84 6.41L40.84 3.55L38.73 6.41L40.84 6.41ZM38.01 6.33L40.69 2.72L41.83 2.72L41.83 6.41L42.75 6.41L42.75 7.16L41.83 7.16L41.83 8.43L40.84 8.43L40.84 7.16L38.01 7.16L38.01 6.33Z"></path></svg>