<svg height="16.296875" width="35.8544921875" xmlns="http://www.w3.org/2000/svg" ><path d="M1.19 9.97L1.19 9.97L1.19 5.34L2.45 5.34L2.45 9.93Q2.45 11.01 2.87 11.56Q3.29 12.10 4.14 12.10L4.14 12.10Q5.16 12.10 5.75 11.45Q6.34 10.80 6.34 9.68L6.34 9.68L6.34 5.34L7.60 5.34L7.60 13.00L6.34 13.00L6.34 11.82Q5.89 12.52 5.28 12.85Q4.68 13.19 3.88 13.19L3.88 13.19Q2.56 13.19 1.87 12.37Q1.19 11.55 1.19 9.97ZM4.35 5.15L4.35 5.15ZM9.65 9.50L9.65 9.50L9.65 8.88L15.43 8.88Q15.35 7.58 14.65 6.90Q13.95 6.22 12.69 6.22L12.69 6.22Q11.97 6.22 11.29 6.40Q10.61 6.58 9.94 6.93L9.94 6.93L9.94 5.74Q10.62 5.46 11.33 5.30Q12.04 5.15 12.77 5.15L12.77 5.15Q14.60 5.15 15.67 6.22Q16.74 7.29 16.74 9.11L16.74 9.11Q16.74 10.99 15.73 12.09Q14.71 13.19 12.99 13.19L12.99 13.19Q11.44 13.19 10.54 12.20Q9.65 11.20 9.65 9.50ZM15.39 9.86L10.90 9.86Q10.92 10.90 11.48 11.51Q12.04 12.13 12.97 12.13L12.97 12.13Q14.03 12.13 14.66 11.53Q15.29 10.94 15.39 9.86L15.39 9.86ZM19.82 13.00L19.81 7.54L20.24 7.54Q21.55 7.54 22.14 6.76L22.14 6.76Q22.54 6.24 22.54 5.57L22.54 5.57Q22.53 4.66 22.14 4.22L22.14 4.22Q21.46 3.44 20.24 3.44L20.24 3.44Q19.69 3.44 19.15 3.59L19.15 3.59Q18.62 3.73 18.09 4.03L18.09 4.03L18.09 2.85Q18.61 2.61 19.16 2.50L19.16 2.50Q19.71 2.37 20.30 2.37L20.30 2.37Q22.18 2.37 23.12 3.45L23.12 3.45Q23.86 4.30 23.86 5.57L23.86 5.57Q23.86 6.73 23.13 7.52L23.13 7.52Q22.36 8.33 21.20 8.54L21.20 8.54L21.20 13.00L19.82 13.00ZM25.60 5.58L25.60 2.72L29.09 2.72L29.09 3.37L26.41 3.37L26.41 4.76Q26.61 4.70 26.80 4.68L26.80 4.68Q27.00 4.65 27.19 4.65L27.19 4.65Q28.29 4.65 28.93 5.17L28.93 5.17Q29.57 5.69 29.57 6.59L29.57 6.59Q29.57 7.51 28.91 8.03L28.91 8.03Q28.25 8.53 27.05 8.53L27.05 8.53Q26.64 8.53 26.21 8.47Q25.78 8.41 25.33 8.29L25.33 8.29L25.33 7.51Q25.72 7.70 26.14 7.79L26.14 7.79Q26.56 7.88 27.04 7.88L27.04 7.88Q27.79 7.88 28.24 7.53Q28.68 7.18 28.68 6.59Q28.68 6.00 28.24 5.65Q27.79 5.30 27.04 5.30L27.04 5.30Q26.68 5.30 26.33 5.37Q25.97 5.43 25.60 5.58L25.60 5.58ZM31.21 5.58L31.21 2.72L34.70 2.72L34.70 3.37L32.03 3.37L32.03 4.76Q32.22 4.70 32.42 4.68L32.42 4.68Q32.61 4.65 32.80 4.65L32.80 4.65Q33.90 4.65 34.54 5.17L34.54 5.17Q35.18 5.69 35.18 6.59L35.18 6.59Q35.18 7.51 34.52 8.03L34.52 8.03Q33.87 8.53 32.66 8.53L32.66 8.53Q32.25 8.53 31.82 8.47Q31.39 8.41 30.94 8.29L30.94 8.29L30.94 7.51Q31.33 7.70 31.75 7.79L31.75 7.79Q32.18 7.88 32.65 7.88L32.65 7.88Q33.41 7.88 33.85 7.53Q34.30 7.18 34.30 6.59Q34.30 6.00 33.85 5.65Q33.41 5.30 32.65 5.30L32.65 5.30Q32.29 5.30 31.94 5.37Q31.58 5.43 31.21 5.58L31.21 5.58Z"></path></svg>