<svg height="16.296875" width="33.4072265625" xmlns="http://www.w3.org/2000/svg" ><path d="M3.29 13.00L0.42 5.34L1.75 5.34L4.14 11.76L6.54 5.34L7.87 5.34L5.00 13.00L3.29 13.00ZM13.28 5.34L16.15 13.00L14.82 13.00L14.12 11.12L10.73 11.12L10.04 13.00L8.70 13.00L11.57 5.34L13.28 5.34ZM12.43 6.57L11.12 10.10L13.74 10.10L12.43 6.57ZM17.64 8.43L17.64 7.68L19.03 7.68L19.03 3.50L17.51 3.78L17.51 2.99L19.08 2.72L20.02 2.72L20.02 7.68L21.42 7.68L21.42 8.43L17.64 8.43ZM23.25 8.43L23.25 7.68L24.64 7.68L24.64 3.50L23.12 3.78L23.12 2.99L24.69 2.72L25.63 2.72L25.63 7.68L27.03 7.68L27.03 8.43L23.25 8.43ZM31.38 5.34L31.38 5.34Q32.01 5.46 32.35 5.83Q32.70 6.21 32.70 6.77L32.70 6.77Q32.70 7.62 32.05 8.07Q31.40 8.53 30.19 8.53L30.19 8.53Q29.80 8.53 29.37 8.46Q28.94 8.39 28.46 8.25L28.46 8.25L28.46 7.42Q28.82 7.61 29.23 7.70Q29.63 7.79 30.09 7.79L30.09 7.79Q30.84 7.79 31.25 7.52Q31.66 7.25 31.66 6.77L31.66 6.77Q31.66 6.26 31.28 6.00Q30.90 5.74 30.16 5.74L30.16 5.74L29.57 5.74L29.57 5.00L30.21 5.00Q30.86 5.00 31.19 4.79Q31.52 4.57 31.52 4.16L31.52 4.16Q31.52 3.77 31.18 3.56Q30.84 3.35 30.19 3.35L30.19 3.35Q29.91 3.35 29.57 3.41Q29.22 3.47 28.66 3.63L28.66 3.63L28.66 2.84Q29.16 2.73 29.60 2.67Q30.04 2.60 30.41 2.60L30.41 2.60Q31.40 2.60 31.98 3.01Q32.55 3.41 32.55 4.09L32.55 4.09Q32.55 4.56 32.25 4.89Q31.94 5.22 31.38 5.34Z"></path></svg>