<svg height="16.296875" width="34.0087890625" xmlns="http://www.w3.org/2000/svg" ><path d="M3.29 13.00L0.42 5.34L1.75 5.34L4.14 11.76L6.54 5.34L7.87 5.34L5.00 13.00L3.29 13.00ZM14.64 6.50L14.64 6.50L14.64 5.34L15.90 5.34L15.90 13.00L14.64 13.00L14.64 11.85Q14.25 12.53 13.64 12.86Q13.04 13.19 12.19 13.19L12.19 13.19Q10.80 13.19 9.93 12.09Q9.06 10.98 9.06 9.17L9.06 9.17Q9.06 7.37 9.93 6.26Q10.80 5.15 12.19 5.15L12.19 5.15Q13.04 5.15 13.64 5.49Q14.25 5.82 14.64 6.50ZM10.36 9.17L10.36 9.17Q10.36 10.56 10.93 11.35Q11.50 12.14 12.50 12.14L12.50 12.14Q13.49 12.14 14.07 11.35Q14.64 10.56 14.64 9.17L14.64 9.17Q14.64 7.79 14.07 7.00Q13.49 6.21 12.50 6.21L12.50 6.21Q11.50 6.21 10.93 7.00Q10.36 7.79 10.36 9.17ZM13.63 3.63L13.63 3.63L13.24 3.25Q13.09 3.12 12.98 3.05Q12.87 2.99 12.78 2.99L12.78 2.99Q12.52 2.99 12.39 3.24Q12.27 3.49 12.26 4.05L12.26 4.05L11.40 4.05Q11.42 3.12 11.76 2.62Q12.11 2.12 12.74 2.12L12.74 2.12Q13.00 2.12 13.21 2.21Q13.43 2.31 13.69 2.54L13.69 2.54L14.08 2.91Q14.23 3.05 14.34 3.11Q14.45 3.18 14.54 3.18L14.54 3.18Q14.80 3.18 14.92 2.93Q15.05 2.68 15.06 2.12L15.06 2.12L15.91 2.12Q15.90 3.04 15.55 3.54Q15.20 4.05 14.58 4.05L14.58 4.05Q14.32 4.05 14.10 3.95Q13.88 3.86 13.63 3.63ZM18.24 8.43L18.24 7.68L19.63 7.68L19.63 3.50L18.11 3.78L18.11 2.99L19.68 2.72L20.62 2.72L20.62 7.68L22.02 7.68L22.02 8.43L18.24 8.43ZM23.85 8.43L23.85 7.68L25.25 7.68L25.25 3.50L23.72 3.78L23.72 2.99L25.29 2.72L26.23 2.72L26.23 7.68L27.63 7.68L27.63 8.43L23.85 8.43ZM31.98 5.34L31.98 5.34Q32.61 5.46 32.95 5.83Q33.30 6.21 33.30 6.77L33.30 6.77Q33.30 7.62 32.65 8.07Q32.00 8.53 30.79 8.53L30.79 8.53Q30.40 8.53 29.97 8.46Q29.54 8.39 29.07 8.25L29.07 8.25L29.07 7.42Q29.42 7.61 29.83 7.70Q30.24 7.79 30.69 7.79L30.69 7.79Q31.44 7.79 31.85 7.52Q32.26 7.25 32.26 6.77L32.26 6.77Q32.26 6.26 31.88 6.00Q31.50 5.74 30.76 5.74L30.76 5.74L30.17 5.74L30.17 5.00L30.82 5.00Q31.46 5.00 31.79 4.79Q32.12 4.57 32.12 4.16L32.12 4.16Q32.12 3.77 31.78 3.56Q31.44 3.35 30.79 3.35L30.79 3.35Q30.52 3.35 30.17 3.41Q29.82 3.47 29.26 3.63L29.26 3.63L29.26 2.84Q29.76 2.73 30.20 2.67Q30.64 2.60 31.01 2.60L31.01 2.60Q32.00 2.60 32.58 3.01Q33.15 3.41 33.15 4.09L33.15 4.09Q33.15 4.56 32.85 4.89Q32.54 5.22 31.98 5.34Z"></path></svg>