<svg height="16.296875" width="34.9384765625" xmlns="http://www.w3.org/2000/svg" ><path d="M3.29 13.00L0.42 5.34L1.75 5.34L4.14 11.76L6.54 5.34L7.87 5.34L5.00 13.00L3.29 13.00ZM13.28 5.34L16.15 13.00L14.82 13.00L14.12 11.12L10.73 11.12L10.04 13.00L8.70 13.00L11.57 5.34L13.28 5.34ZM12.43 6.57L11.12 10.10L13.74 10.10L12.43 6.57ZM18.90 13.00L18.89 7.54L19.33 7.54Q20.64 7.54 21.23 6.76L21.23 6.76Q21.62 6.24 21.62 5.57L21.62 5.57Q21.62 4.66 21.23 4.22L21.23 4.22Q20.55 3.44 19.33 3.44L19.33 3.44Q18.78 3.44 18.24 3.59L18.24 3.59Q17.71 3.73 17.17 4.03L17.17 4.03L17.17 2.85Q17.69 2.61 18.25 2.50L18.25 2.50Q18.80 2.37 19.38 2.37L19.38 2.37Q21.26 2.37 22.20 3.45L22.20 3.45Q22.95 4.30 22.95 5.57L22.95 5.57Q22.95 6.73 22.21 7.52L22.21 7.52Q21.44 8.33 20.28 8.54L20.28 8.54L20.28 13.00L18.90 13.00ZM24.78 8.43L24.78 7.68L26.17 7.68L26.17 3.50L24.65 3.78L24.65 2.99L26.22 2.72L27.16 2.72L27.16 7.68L28.56 7.68L28.56 8.43L24.78 8.43ZM31.16 7.65L31.16 7.65L34.06 7.65L34.06 8.43L29.97 8.43L29.97 7.68Q30.20 7.46 30.63 7.08L30.63 7.08Q32.98 5.00 32.98 4.35L32.98 4.35Q32.98 3.90 32.63 3.63Q32.27 3.35 31.69 3.35L31.69 3.35Q31.34 3.35 30.92 3.47Q30.50 3.59 30.01 3.83L30.01 3.83L30.01 2.99Q30.54 2.80 30.99 2.70Q31.45 2.60 31.83 2.60L31.83 2.60Q32.83 2.60 33.42 3.06Q34.02 3.51 34.02 4.25L34.02 4.25Q34.02 5.20 31.75 7.14L31.75 7.14Q31.37 7.46 31.16 7.65Z"></path></svg>