<svg height="16.296875" width="31.9921875" xmlns="http://www.w3.org/2000/svg" ><path d="M3.29 13.00L0.42 5.34L1.75 5.34L4.14 11.76L6.54 5.34L7.87 5.34L5.00 13.00L3.29 13.00ZM9.56 13.00L9.56 5.34L14.40 5.34L14.40 6.35L10.83 6.35L10.83 8.41L14.24 8.41L14.24 9.42L10.83 9.42L10.83 11.99L14.49 11.99L14.49 13.00L9.56 13.00ZM16.22 8.43L16.22 7.68L17.62 7.68L17.62 3.50L16.09 3.78L16.09 2.99L17.66 2.72L18.60 2.72L18.60 7.68L20.00 7.68L20.00 8.43L16.22 8.43ZM21.83 8.43L21.83 7.68L23.23 7.68L23.23 3.50L21.70 3.78L21.70 2.99L23.28 2.72L24.21 2.72L24.21 7.68L25.61 7.68L25.61 8.43L21.83 8.43ZM29.96 5.34L29.96 5.34Q30.59 5.46 30.94 5.83Q31.28 6.21 31.28 6.77L31.28 6.77Q31.28 7.62 30.63 8.07Q29.98 8.53 28.77 8.53L28.77 8.53Q28.38 8.53 27.96 8.46Q27.53 8.39 27.05 8.25L27.05 8.25L27.05 7.42Q27.41 7.61 27.81 7.70Q28.22 7.79 28.68 7.79L28.68 7.79Q29.42 7.79 29.83 7.52Q30.24 7.25 30.24 6.77L30.24 6.77Q30.24 6.26 29.86 6.00Q29.48 5.74 28.75 5.74L28.75 5.74L28.16 5.74L28.16 5.00L28.80 5.00Q29.44 5.00 29.77 4.79Q30.11 4.57 30.11 4.16L30.11 4.16Q30.11 3.77 29.76 3.56Q29.42 3.35 28.77 3.35L28.77 3.35Q28.50 3.35 28.15 3.41Q27.80 3.47 27.25 3.63L27.25 3.63L27.25 2.84Q27.75 2.73 28.18 2.67Q28.62 2.60 29.00 2.60L29.00 2.60Q29.98 2.60 30.56 3.01Q31.14 3.41 31.14 4.09L31.14 4.09Q31.14 4.56 30.83 4.89Q30.52 5.22 29.96 5.34Z"></path></svg>