<svg height="16.296875" width="42.6083984375" xmlns="http://www.w3.org/2000/svg" ><path d="M3.29 13.00L0.42 5.34L1.75 5.34L4.14 11.76L6.54 5.34L7.87 5.34L5.00 13.00L3.29 13.00ZM9.06 9.50L9.06 9.50L9.06 8.88L14.84 8.88Q14.76 7.58 14.06 6.90Q13.36 6.22 12.11 6.22L12.11 6.22Q11.38 6.22 10.70 6.40Q10.02 6.58 9.35 6.93L9.35 6.93L9.35 5.74Q10.03 5.46 10.74 5.30Q11.45 5.15 12.18 5.15L12.18 5.15Q14.01 5.15 15.08 6.22Q16.15 7.29 16.15 9.11L16.15 9.11Q16.15 10.99 15.14 12.09Q14.12 13.19 12.40 13.19L12.40 13.19Q10.86 13.19 9.96 12.20Q9.06 11.20 9.06 9.50ZM14.80 9.86L10.32 9.86Q10.33 10.90 10.89 11.51Q11.46 12.13 12.39 12.13L12.39 12.13Q13.44 12.13 14.07 11.53Q14.70 10.94 14.80 9.86L14.80 9.86ZM24.58 8.37L24.58 8.37L24.58 13.00L23.32 13.00L23.32 8.42Q23.32 7.33 22.90 6.79Q22.48 6.25 21.63 6.25L21.63 6.25Q20.61 6.25 20.02 6.90Q19.43 7.55 19.43 8.67L19.43 8.67L19.43 13.00L18.17 13.00L18.17 5.34L19.43 5.34L19.43 6.53Q19.89 5.84 20.50 5.50Q21.11 5.15 21.91 5.15L21.91 5.15Q23.23 5.15 23.91 5.97Q24.58 6.79 24.58 8.37ZM26.84 8.43L26.84 7.68L28.23 7.68L28.23 3.50L26.71 3.78L26.71 2.99L28.28 2.72L29.22 2.72L29.22 7.68L30.62 7.68L30.62 8.43L26.84 8.43ZM32.45 8.43L32.45 7.68L33.84 7.68L33.84 3.50L32.32 3.78L32.32 2.99L33.89 2.72L34.83 2.72L34.83 7.68L36.23 7.68L36.23 8.43L32.45 8.43ZM40.58 5.34L40.58 5.34Q41.21 5.46 41.55 5.83Q41.90 6.21 41.90 6.77L41.90 6.77Q41.90 7.62 41.25 8.07Q40.60 8.53 39.39 8.53L39.39 8.53Q39.00 8.53 38.57 8.46Q38.14 8.39 37.67 8.25L37.67 8.25L37.67 7.42Q38.02 7.61 38.43 7.70Q38.83 7.79 39.29 7.79L39.29 7.79Q40.04 7.79 40.45 7.52Q40.86 7.25 40.86 6.77L40.86 6.77Q40.86 6.26 40.48 6.00Q40.10 5.74 39.36 5.74L39.36 5.74L38.77 5.74L38.77 5.00L39.42 5.00Q40.06 5.00 40.39 4.79Q40.72 4.57 40.72 4.16L40.72 4.16Q40.72 3.77 40.38 3.56Q40.04 3.35 39.39 3.35L39.39 3.35Q39.12 3.35 38.77 3.41Q38.42 3.47 37.86 3.63L37.86 3.63L37.86 2.84Q38.36 2.73 38.80 2.67Q39.24 2.60 39.61 2.60L39.61 2.60Q40.60 2.60 41.18 3.01Q41.75 3.41 41.75 4.09L41.75 4.09Q41.75 4.56 41.45 4.89Q41.14 5.22 40.58 5.34Z"></path></svg>