<svg height="16.296875" width="35.2666015625" xmlns="http://www.w3.org/2000/svg" ><path d="M3.29 13.00L0.42 5.34L1.75 5.34L4.14 11.76L6.54 5.34L7.87 5.34L5.00 13.00L3.29 13.00ZM9.06 9.50L9.06 9.50L9.06 8.88L14.84 8.88Q14.76 7.58 14.06 6.90Q13.36 6.22 12.11 6.22L12.11 6.22Q11.38 6.22 10.70 6.40Q10.02 6.58 9.35 6.93L9.35 6.93L9.35 5.74Q10.03 5.46 10.74 5.30Q11.45 5.15 12.18 5.15L12.18 5.15Q14.01 5.15 15.08 6.22Q16.15 7.29 16.15 9.11L16.15 9.11Q16.15 10.99 15.14 12.09Q14.12 13.19 12.40 13.19L12.40 13.19Q10.86 13.19 9.96 12.20Q9.06 11.20 9.06 9.50ZM14.80 9.86L10.32 9.86Q10.33 10.90 10.89 11.51Q11.46 12.13 12.39 12.13L12.39 12.13Q13.44 12.13 14.07 11.53Q14.70 10.94 14.80 9.86L14.80 9.86ZM19.23 13.00L19.22 7.54L19.65 7.54Q20.97 7.54 21.55 6.76L21.55 6.76Q21.95 6.24 21.95 5.57L21.95 5.57Q21.94 4.66 21.55 4.22L21.55 4.22Q20.88 3.44 19.65 3.44L19.65 3.44Q19.11 3.44 18.57 3.59L18.57 3.59Q18.03 3.73 17.50 4.03L17.50 4.03L17.50 2.85Q18.02 2.61 18.57 2.50L18.57 2.50Q19.13 2.37 19.71 2.37L19.71 2.37Q21.59 2.37 22.53 3.45L22.53 3.45Q23.28 4.30 23.28 5.57L23.28 5.57Q23.28 6.73 22.54 7.52L22.54 7.52Q21.77 8.33 20.61 8.54L20.61 8.54L20.61 13.00L19.23 13.00ZM25.11 8.43L25.11 7.68L26.50 7.68L26.50 3.50L24.98 3.78L24.98 2.99L26.55 2.72L27.49 2.72L27.49 7.68L28.89 7.68L28.89 8.43L25.11 8.43ZM31.49 7.65L31.49 7.65L34.38 7.65L34.38 8.43L30.30 8.43L30.30 7.68Q30.53 7.46 30.96 7.08L30.96 7.08Q33.31 5.00 33.31 4.35L33.31 4.35Q33.31 3.90 32.96 3.63Q32.60 3.35 32.02 3.35L32.02 3.35Q31.66 3.35 31.25 3.47Q30.83 3.59 30.34 3.83L30.34 3.83L30.34 2.99Q30.86 2.80 31.32 2.70Q31.77 2.60 32.16 2.60L32.16 2.60Q33.15 2.60 33.75 3.06Q34.34 3.51 34.34 4.25L34.34 4.25Q34.34 5.20 32.08 7.14L32.08 7.14Q31.70 7.46 31.49 7.65Z"></path></svg>