<svg height="16.296875" width="33.4619140625" xmlns="http://www.w3.org/2000/svg" ><path d="M3.29 13.00L0.42 5.34L1.75 5.34L4.14 11.76L6.54 5.34L7.87 5.34L5.00 13.00L3.29 13.00ZM10.42 5.34L12.46 8.07L14.49 5.34L15.97 5.34L13.25 8.99Q13.73 9.66 14.03 10.18L14.03 10.18Q14.51 11.00 14.51 11.42L14.51 11.42Q14.51 12.31 13.99 12.75Q13.48 13.19 12.46 13.19L12.46 13.19Q11.43 13.19 10.92 12.75Q10.40 12.31 10.40 11.42L10.40 11.42Q10.40 11.00 10.88 10.18L10.88 10.18Q11.18 9.66 11.66 8.99L11.66 8.99L8.94 5.34L10.42 5.34ZM12.46 12.13L12.46 12.13Q12.91 12.13 13.13 11.94L13.13 11.94Q13.32 11.78 13.32 11.47L13.32 11.47Q13.32 11.25 13.05 10.81L13.05 10.81Q12.84 10.47 12.46 9.99L12.46 9.99Q12.07 10.47 11.86 10.81L11.86 10.81Q11.59 11.25 11.59 11.47L11.59 11.47Q11.59 11.78 11.79 11.94L11.79 11.94Q12.00 12.13 12.46 12.13ZM17.69 8.43L17.69 7.68L19.09 7.68L19.09 3.50L17.56 3.78L17.56 2.99L19.13 2.72L20.07 2.72L20.07 7.68L21.47 7.68L21.47 8.43L17.69 8.43ZM23.30 8.43L23.30 7.68L24.70 7.68L24.70 3.50L23.17 3.78L23.17 2.99L24.75 2.72L25.68 2.72L25.68 7.68L27.08 7.68L27.08 8.43L23.30 8.43ZM31.43 5.34L31.43 5.34Q32.06 5.46 32.41 5.83Q32.75 6.21 32.75 6.77L32.75 6.77Q32.75 7.62 32.10 8.07Q31.45 8.53 30.24 8.53L30.24 8.53Q29.85 8.53 29.43 8.46Q29.00 8.39 28.52 8.25L28.52 8.25L28.52 7.42Q28.88 7.61 29.28 7.70Q29.69 7.79 30.15 7.79L30.15 7.79Q30.89 7.79 31.30 7.52Q31.71 7.25 31.71 6.77L31.71 6.77Q31.71 6.26 31.33 6.00Q30.95 5.74 30.21 5.74L30.21 5.74L29.63 5.74L29.63 5.00L30.27 5.00Q30.91 5.00 31.24 4.79Q31.58 4.57 31.58 4.16L31.58 4.16Q31.58 3.77 31.23 3.56Q30.89 3.35 30.24 3.35L30.24 3.35Q29.97 3.35 29.62 3.41Q29.27 3.47 28.72 3.63L28.72 3.63L28.72 2.84Q29.22 2.73 29.65 2.67Q30.09 2.60 30.47 2.60L30.47 2.60Q31.45 2.60 32.03 3.01Q32.61 3.41 32.61 4.09L32.61 4.09Q32.61 4.56 32.30 4.89Q31.99 5.22 31.43 5.34Z"></path></svg>