<svg height="16.296875" width="29.01171875" xmlns="http://www.w3.org/2000/svg" ><path d="M3.29 13.00L0.42 5.34L1.75 5.34L4.14 11.76L6.54 5.34L7.87 5.34L5.00 13.00L3.29 13.00ZM9.60 13.00L9.60 5.34L10.86 5.34L10.86 13.00L9.60 13.00ZM9.60 3.95L9.60 2.36L10.86 2.36L10.86 3.95L9.60 3.95ZM13.24 8.43L13.24 7.68L14.64 7.68L14.64 3.50L13.11 3.78L13.11 2.99L14.68 2.72L15.62 2.72L15.62 7.68L17.02 7.68L17.02 8.43L13.24 8.43ZM18.85 8.43L18.85 7.68L20.25 7.68L20.25 3.50L18.72 3.78L18.72 2.99L20.30 2.72L21.23 2.72L21.23 7.68L22.63 7.68L22.63 8.43L18.85 8.43ZM26.98 5.34L26.98 5.34Q27.61 5.46 27.96 5.83Q28.30 6.21 28.30 6.77L28.30 6.77Q28.30 7.62 27.65 8.07Q27.00 8.53 25.79 8.53L25.79 8.53Q25.40 8.53 24.98 8.46Q24.55 8.39 24.07 8.25L24.07 8.25L24.07 7.42Q24.42 7.61 24.83 7.70Q25.24 7.79 25.70 7.79L25.70 7.79Q26.44 7.79 26.85 7.52Q27.26 7.25 27.26 6.77L27.26 6.77Q27.26 6.26 26.88 6.00Q26.50 5.74 25.76 5.74L25.76 5.74L25.18 5.74L25.18 5.00L25.82 5.00Q26.46 5.00 26.79 4.79Q27.13 4.57 27.13 4.16L27.13 4.16Q27.13 3.77 26.78 3.56Q26.44 3.35 25.79 3.35L25.79 3.35Q25.52 3.35 25.17 3.41Q24.82 3.47 24.27 3.63L24.27 3.63L24.27 2.84Q24.77 2.73 25.20 2.67Q25.64 2.60 26.02 2.60L26.02 2.60Q27.00 2.60 27.58 3.01Q28.16 3.41 28.16 4.09L28.16 4.09Q28.16 4.56 27.85 4.89Q27.54 5.22 26.98 5.34Z"></path></svg>