<svg height="16.296875" width="36.7021484375" xmlns="http://www.w3.org/2000/svg" ><path d="M3.29 13.00L0.42 5.34L1.75 5.34L4.14 11.76L6.54 5.34L7.87 5.34L5.00 13.00L3.29 13.00ZM9.60 13.00L9.60 5.34L10.86 5.34L10.86 13.00L9.60 13.00ZM9.60 3.95L9.60 2.36L10.86 2.36L10.86 3.95L9.60 3.95ZM13.04 6.81L13.04 5.65Q13.57 5.40 14.13 5.28Q14.70 5.15 15.33 5.15L15.33 5.15Q17.06 5.15 18.08 6.24Q19.10 7.33 19.10 9.17L19.10 9.17Q19.10 11.05 18.07 12.12Q17.04 13.19 15.25 13.19L15.25 13.19Q14.67 13.19 14.12 13.07Q13.56 12.95 13.04 12.71L13.04 12.71L13.04 11.54Q13.58 11.83 14.11 11.98Q14.65 12.13 15.20 12.13L15.20 12.13Q16.42 12.13 17.10 11.35Q17.77 10.58 17.77 9.17L17.77 9.17Q17.77 7.77 17.10 7.00Q16.42 6.22 15.20 6.22L15.20 6.22Q14.65 6.22 14.11 6.37Q13.58 6.51 13.04 6.81L13.04 6.81ZM20.93 8.43L20.93 7.68L22.33 7.68L22.33 3.50L20.80 3.78L20.80 2.99L22.37 2.72L23.31 2.72L23.31 7.68L24.71 7.68L24.71 8.43L20.93 8.43ZM26.54 8.43L26.54 7.68L27.94 7.68L27.94 3.50L26.41 3.78L26.41 2.99L27.99 2.72L28.92 2.72L28.92 7.68L30.32 7.68L30.32 8.43L26.54 8.43ZM34.67 5.34L34.67 5.34Q35.30 5.46 35.65 5.83Q35.99 6.21 35.99 6.77L35.99 6.77Q35.99 7.62 35.34 8.07Q34.69 8.53 33.48 8.53L33.48 8.53Q33.09 8.53 32.67 8.46Q32.24 8.39 31.76 8.25L31.76 8.25L31.76 7.42Q32.12 7.61 32.52 7.70Q32.93 7.79 33.39 7.79L33.39 7.79Q34.13 7.79 34.54 7.52Q34.95 7.25 34.95 6.77L34.95 6.77Q34.95 6.26 34.57 6.00Q34.19 5.74 33.46 5.74L33.46 5.74L32.87 5.74L32.87 5.00L33.51 5.00Q34.15 5.00 34.48 4.79Q34.82 4.57 34.82 4.16L34.82 4.16Q34.82 3.77 34.47 3.56Q34.13 3.35 33.48 3.35L33.48 3.35Q33.21 3.35 32.86 3.41Q32.51 3.47 31.96 3.63L31.96 3.63L31.96 2.84Q32.46 2.73 32.89 2.67Q33.33 2.60 33.71 2.60L33.71 2.60Q34.69 2.60 35.27 3.01Q35.85 3.41 35.85 4.09L35.85 4.09Q35.85 4.56 35.54 4.89Q35.23 5.22 34.67 5.34Z"></path></svg>