<svg height="16.296875" width="42.560546875" xmlns="http://www.w3.org/2000/svg" ><path d="M3.29 13.00L0.42 5.34L1.75 5.34L4.14 11.76L6.54 5.34L7.87 5.34L5.00 13.00L3.29 13.00ZM12.57 6.22L12.57 6.22Q11.56 6.22 10.97 7.01Q10.38 7.80 10.38 9.17L10.38 9.17Q10.38 10.55 10.97 11.34Q11.55 12.13 12.57 12.13L12.57 12.13Q13.58 12.13 14.16 11.33Q14.75 10.54 14.75 9.17L14.75 9.17Q14.75 7.81 14.16 7.02Q13.58 6.22 12.57 6.22ZM12.57 5.15L12.57 5.15Q14.21 5.15 15.15 6.22Q16.08 7.29 16.08 9.17L16.08 9.17Q16.08 11.05 15.15 12.12Q14.21 13.19 12.57 13.19L12.57 13.19Q10.92 13.19 9.99 12.12Q9.06 11.05 9.06 9.17L9.06 9.17Q9.06 7.29 9.99 6.22Q10.92 5.15 12.57 5.15ZM24.53 8.37L24.53 8.37L24.53 13.13Q24.53 14.59 23.97 15.25L23.97 15.25Q23.42 15.91 22.18 15.91L22.18 15.91L20.45 15.91L20.45 14.84L22.04 14.84Q22.76 14.84 23.02 14.51L23.02 14.51Q23.28 14.18 23.28 13.13L23.28 13.13L23.28 8.42Q23.28 7.33 22.85 6.79Q22.43 6.25 21.58 6.25L21.58 6.25Q20.56 6.25 19.97 6.90Q19.39 7.55 19.39 8.67L19.39 8.67L19.39 13.00L18.12 13.00L18.12 5.34L19.39 5.34L19.39 6.53Q19.84 5.84 20.45 5.50L20.45 5.50Q21.06 5.15 21.86 5.15L21.86 5.15Q23.18 5.15 23.86 5.97L23.86 5.97Q24.53 6.79 24.53 8.37ZM26.79 8.43L26.79 7.68L28.18 7.68L28.18 3.50L26.66 3.78L26.66 2.99L28.23 2.72L29.17 2.72L29.17 7.68L30.57 7.68L30.57 8.43L26.79 8.43ZM32.40 8.43L32.40 7.68L33.80 7.68L33.80 3.50L32.27 3.78L32.27 2.99L33.84 2.72L34.78 2.72L34.78 7.68L36.18 7.68L36.18 8.43L32.40 8.43ZM40.53 5.34L40.53 5.34Q41.16 5.46 41.50 5.83Q41.85 6.21 41.85 6.77L41.85 6.77Q41.85 7.62 41.20 8.07Q40.55 8.53 39.34 8.53L39.34 8.53Q38.95 8.53 38.52 8.46Q38.10 8.39 37.62 8.25L37.62 8.25L37.62 7.42Q37.97 7.61 38.38 7.70Q38.79 7.79 39.25 7.79L39.25 7.79Q39.99 7.79 40.40 7.52Q40.81 7.25 40.81 6.77L40.81 6.77Q40.81 6.26 40.43 6.00Q40.05 5.74 39.31 5.74L39.31 5.74L38.73 5.74L38.73 5.00L39.37 5.00Q40.01 5.00 40.34 4.79Q40.67 4.57 40.67 4.16L40.67 4.16Q40.67 3.77 40.33 3.56Q39.99 3.35 39.34 3.35L39.34 3.35Q39.07 3.35 38.72 3.41Q38.37 3.47 37.82 3.63L37.82 3.63L37.82 2.84Q38.32 2.73 38.75 2.67Q39.19 2.60 39.57 2.60L39.57 2.60Q40.55 2.60 41.13 3.01Q41.71 3.41 41.71 4.09L41.71 4.09Q41.71 4.56 41.40 4.89Q41.09 5.22 40.53 5.34Z"></path></svg>