<svg height="16.296875" width="35.21875" xmlns="http://www.w3.org/2000/svg" ><path d="M3.29 13.00L0.42 5.34L1.75 5.34L4.14 11.76L6.54 5.34L7.87 5.34L5.00 13.00L3.29 13.00ZM12.57 6.22L12.57 6.22Q11.56 6.22 10.97 7.01Q10.38 7.80 10.38 9.17L10.38 9.17Q10.38 10.55 10.97 11.34Q11.55 12.13 12.57 12.13L12.57 12.13Q13.58 12.13 14.16 11.33Q14.75 10.54 14.75 9.17L14.75 9.17Q14.75 7.81 14.16 7.02Q13.58 6.22 12.57 6.22ZM12.57 5.15L12.57 5.15Q14.21 5.15 15.15 6.22Q16.08 7.29 16.08 9.17L16.08 9.17Q16.08 11.05 15.15 12.12Q14.21 13.19 12.57 13.19L12.57 13.19Q10.92 13.19 9.99 12.12Q9.06 11.05 9.06 9.17L9.06 9.17Q9.06 7.29 9.99 6.22Q10.92 5.15 12.57 5.15ZM19.18 13.00L19.17 7.54L19.61 7.54Q20.92 7.54 21.51 6.76L21.51 6.76Q21.90 6.24 21.90 5.57L21.90 5.57Q21.90 4.66 21.51 4.22L21.51 4.22Q20.83 3.44 19.61 3.44L19.61 3.44Q19.06 3.44 18.52 3.59L18.52 3.59Q17.99 3.73 17.45 4.03L17.45 4.03L17.45 2.85Q17.97 2.61 18.53 2.50L18.53 2.50Q19.08 2.37 19.66 2.37L19.66 2.37Q21.54 2.37 22.48 3.45L22.48 3.45Q23.23 4.30 23.23 5.57L23.23 5.57Q23.23 6.73 22.49 7.52L22.49 7.52Q21.72 8.33 20.56 8.54L20.56 8.54L20.56 13.00L19.18 13.00ZM25.06 8.43L25.06 7.68L26.46 7.68L26.46 3.50L24.93 3.78L24.93 2.99L26.50 2.72L27.44 2.72L27.44 7.68L28.84 7.68L28.84 8.43L25.06 8.43ZM31.44 7.65L31.44 7.65L34.34 7.65L34.34 8.43L30.25 8.43L30.25 7.68Q30.48 7.46 30.91 7.08L30.91 7.08Q33.26 5.00 33.26 4.35L33.26 4.35Q33.26 3.90 32.91 3.63Q32.55 3.35 31.97 3.35L31.97 3.35Q31.62 3.35 31.20 3.47Q30.78 3.59 30.29 3.83L30.29 3.83L30.29 2.99Q30.82 2.80 31.27 2.70Q31.73 2.60 32.12 2.60L32.12 2.60Q33.11 2.60 33.70 3.06Q34.30 3.51 34.30 4.25L34.30 4.25Q34.30 5.20 32.03 7.14L32.03 7.14Q31.65 7.46 31.44 7.65Z"></path></svg>