<svg height="16.296875" width="33.9951171875" xmlns="http://www.w3.org/2000/svg" ><path d="M3.29 13.00L0.42 5.34L1.75 5.34L4.14 11.76L6.54 5.34L7.87 5.34L5.00 13.00L3.29 13.00ZM9.47 9.97L9.47 9.97L9.47 5.34L10.73 5.34L10.73 9.93Q10.73 11.01 11.16 11.56Q11.58 12.10 12.43 12.10L12.43 12.10Q13.45 12.10 14.04 11.45Q14.63 10.80 14.63 9.68L14.63 9.68L14.63 5.34L15.89 5.34L15.89 13.00L14.63 13.00L14.63 11.82Q14.17 12.52 13.57 12.85Q12.96 13.19 12.16 13.19L12.16 13.19Q10.84 13.19 10.16 12.37Q9.47 11.55 9.47 9.97ZM12.64 5.15L12.64 5.15ZM18.22 8.43L18.22 7.68L19.62 7.68L19.62 3.50L18.09 3.78L18.09 2.99L19.67 2.72L20.60 2.72L20.60 7.68L22.00 7.68L22.00 8.43L18.22 8.43ZM23.84 8.43L23.84 7.68L25.23 7.68L25.23 3.50L23.71 3.78L23.71 2.99L25.28 2.72L26.22 2.72L26.22 7.68L27.62 7.68L27.62 8.43L23.84 8.43ZM31.96 5.34L31.96 5.34Q32.59 5.46 32.94 5.83Q33.28 6.21 33.28 6.77L33.28 6.77Q33.28 7.62 32.63 8.07Q31.99 8.53 30.78 8.53L30.78 8.53Q30.39 8.53 29.96 8.46Q29.53 8.39 29.05 8.25L29.05 8.25L29.05 7.42Q29.41 7.61 29.81 7.70Q30.22 7.79 30.68 7.79L30.68 7.79Q31.42 7.79 31.83 7.52Q32.25 7.25 32.25 6.77L32.25 6.77Q32.25 6.26 31.87 6.00Q31.49 5.74 30.75 5.74L30.75 5.74L30.16 5.74L30.16 5.00L30.80 5.00Q31.45 5.00 31.78 4.79Q32.11 4.57 32.11 4.16L32.11 4.16Q32.11 3.77 31.77 3.56Q31.42 3.35 30.78 3.35L30.78 3.35Q30.50 3.35 30.15 3.41Q29.80 3.47 29.25 3.63L29.25 3.63L29.25 2.84Q29.75 2.73 30.19 2.67Q30.63 2.60 31.00 2.60L31.00 2.60Q31.99 2.60 32.56 3.01Q33.14 3.41 33.14 4.09L33.14 4.09Q33.14 4.56 32.83 4.89Q32.53 5.22 31.96 5.34Z"></path></svg>