<svg height="16.296875" width="42.8681640625" xmlns="http://www.w3.org/2000/svg" ><path d="M7.68 8.37L7.68 8.37L7.68 13.00L6.43 13.00L6.43 8.42Q6.43 7.33 6.00 6.79Q5.58 6.25 4.73 6.25L4.73 6.25Q3.71 6.25 3.12 6.90Q2.54 7.55 2.54 8.67L2.54 8.67L2.54 13.00L1.27 13.00L1.27 5.13Q1.27 3.67 1.83 3.01Q2.39 2.36 3.62 2.36L3.62 2.36L5.36 2.36L5.36 3.42L3.78 3.42Q3.06 3.42 2.80 3.76Q2.54 4.09 2.54 5.13L2.54 5.13L2.54 6.53Q2.99 5.84 3.60 5.50Q4.21 5.15 5.01 5.15L5.01 5.15Q6.33 5.15 7.01 5.97Q7.68 6.79 7.68 8.37ZM10.06 9.97L10.06 9.97L10.06 5.34L11.32 5.34L11.32 9.93Q11.32 11.01 11.74 11.56Q12.17 12.10 13.02 12.10L13.02 12.10Q14.03 12.10 14.63 11.45Q15.22 10.80 15.22 9.68L15.22 9.68L15.22 5.34L16.47 5.34L16.47 13.00L15.22 13.00L15.22 11.82Q14.76 12.52 14.15 12.85Q13.55 13.19 12.75 13.19L12.75 13.19Q11.43 13.19 10.75 12.37Q10.06 11.55 10.06 9.97ZM13.23 5.15L13.23 5.15ZM22.74 5.34L25.61 13.00L24.28 13.00L23.58 11.12L20.19 11.12L19.50 13.00L18.16 13.00L21.03 5.34L22.74 5.34ZM21.89 6.57L20.58 10.10L23.20 10.10L21.89 6.57ZM27.10 8.43L27.10 7.68L28.49 7.68L28.49 3.50L26.97 3.78L26.97 2.99L28.54 2.72L29.48 2.72L29.48 7.68L30.88 7.68L30.88 8.43L27.10 8.43ZM32.71 8.43L32.71 7.68L34.10 7.68L34.10 3.50L32.58 3.78L32.58 2.99L34.15 2.72L35.09 2.72L35.09 7.68L36.49 7.68L36.49 8.43L32.71 8.43ZM40.84 5.34L40.84 5.34Q41.47 5.46 41.81 5.83Q42.16 6.21 42.16 6.77L42.16 6.77Q42.16 7.62 41.51 8.07Q40.86 8.53 39.65 8.53L39.65 8.53Q39.26 8.53 38.83 8.46Q38.40 8.39 37.93 8.25L37.93 8.25L37.93 7.42Q38.28 7.61 38.69 7.70Q39.09 7.79 39.55 7.79L39.55 7.79Q40.30 7.79 40.71 7.52Q41.12 7.25 41.12 6.77L41.12 6.77Q41.12 6.26 40.74 6.00Q40.36 5.74 39.62 5.74L39.62 5.74L39.03 5.74L39.03 5.00L39.68 5.00Q40.32 5.00 40.65 4.79Q40.98 4.57 40.98 4.16L40.98 4.16Q40.98 3.77 40.64 3.56Q40.30 3.35 39.65 3.35L39.65 3.35Q39.38 3.35 39.03 3.41Q38.68 3.47 38.12 3.63L38.12 3.63L38.12 2.84Q38.62 2.73 39.06 2.67Q39.50 2.60 39.87 2.60L39.87 2.60Q40.86 2.60 41.44 3.01Q42.01 3.41 42.01 4.09L42.01 4.09Q42.01 4.56 41.71 4.89Q41.40 5.22 40.84 5.34Z"></path></svg>