<svg height="16.296875" width="43.162109375" xmlns="http://www.w3.org/2000/svg" ><path d="M7.68 8.37L7.68 8.37L7.68 13.00L6.43 13.00L6.43 8.42Q6.43 7.33 6.00 6.79Q5.58 6.25 4.73 6.25L4.73 6.25Q3.71 6.25 3.12 6.90Q2.54 7.55 2.54 8.67L2.54 8.67L2.54 13.00L1.27 13.00L1.27 5.13Q1.27 3.67 1.83 3.01Q2.39 2.36 3.62 2.36L3.62 2.36L5.36 2.36L5.36 3.42L3.78 3.42Q3.06 3.42 2.80 3.76Q2.54 4.09 2.54 5.13L2.54 5.13L2.54 6.53Q2.99 5.84 3.60 5.50Q4.21 5.15 5.01 5.15L5.01 5.15Q6.33 5.15 7.01 5.97Q7.68 6.79 7.68 8.37ZM10.06 9.97L10.06 9.97L10.06 5.34L11.32 5.34L11.32 9.93Q11.32 11.01 11.74 11.56Q12.17 12.10 13.02 12.10L13.02 12.10Q14.03 12.10 14.63 11.45Q15.22 10.80 15.22 9.68L15.22 9.68L15.22 5.34L16.47 5.34L16.47 13.00L15.22 13.00L15.22 11.82Q14.76 12.52 14.15 12.85Q13.55 13.19 12.75 13.19L12.75 13.19Q11.43 13.19 10.75 12.37Q10.06 11.55 10.06 9.97ZM13.23 5.15L13.23 5.15ZM23.80 9.15L22.54 9.15Q21.02 9.15 20.43 9.50Q19.84 9.84 19.84 10.68L19.84 10.68Q19.84 11.35 20.29 11.75Q20.73 12.14 21.49 12.14L21.49 12.14Q22.53 12.14 23.16 11.40Q23.80 10.66 23.80 9.43L23.80 9.43L23.80 9.15ZM25.05 8.63L25.05 8.63L25.05 13.00L23.80 13.00L23.80 11.83Q23.37 12.53 22.72 12.86Q22.08 13.19 21.15 13.19L21.15 13.19Q19.97 13.19 19.28 12.53Q18.59 11.87 18.59 10.77L18.59 10.77Q18.59 9.47 19.45 8.82Q20.32 8.16 22.03 8.16L22.03 8.16L23.80 8.16L23.80 8.04Q23.80 7.17 23.23 6.70Q22.65 6.22 21.62 6.22L21.62 6.22Q20.97 6.22 20.34 6.38Q19.72 6.54 19.15 6.85L19.15 6.85L19.15 5.69Q19.84 5.42 20.49 5.29Q21.14 5.15 21.75 5.15L21.75 5.15Q23.41 5.15 24.23 6.02Q25.05 6.88 25.05 8.63ZM22.78 3.63L22.78 3.63L22.39 3.25Q22.24 3.12 22.13 3.05Q22.02 2.99 21.93 2.99L21.93 2.99Q21.67 2.99 21.55 3.24Q21.42 3.49 21.41 4.05L21.41 4.05L20.56 4.05Q20.57 3.12 20.92 2.62Q21.27 2.12 21.89 2.12L21.89 2.12Q22.15 2.12 22.37 2.21Q22.59 2.31 22.84 2.54L22.84 2.54L23.23 2.91Q23.38 3.05 23.49 3.11Q23.60 3.18 23.69 3.18L23.69 3.18Q23.95 3.18 24.08 2.93Q24.20 2.68 24.21 2.12L24.21 2.12L25.07 2.12Q25.05 3.04 24.71 3.54Q24.36 4.05 23.73 4.05L23.73 4.05Q23.47 4.05 23.26 3.95Q23.04 3.86 22.78 3.63ZM27.39 8.43L27.39 7.68L28.79 7.68L28.79 3.50L27.26 3.78L27.26 2.99L28.83 2.72L29.77 2.72L29.77 7.68L31.17 7.68L31.17 8.43L27.39 8.43ZM33.00 8.43L33.00 7.68L34.40 7.68L34.40 3.50L32.87 3.78L32.87 2.99L34.45 2.72L35.38 2.72L35.38 7.68L36.78 7.68L36.78 8.43L33.00 8.43ZM41.13 5.34L41.13 5.34Q41.76 5.46 42.11 5.83Q42.45 6.21 42.45 6.77L42.45 6.77Q42.45 7.62 41.80 8.07Q41.15 8.53 39.94 8.53L39.94 8.53Q39.55 8.53 39.13 8.46Q38.70 8.39 38.22 8.25L38.22 8.25L38.22 7.42Q38.58 7.61 38.98 7.70Q39.39 7.79 39.85 7.79L39.85 7.79Q40.59 7.79 41.00 7.52Q41.41 7.25 41.41 6.77L41.41 6.77Q41.41 6.26 41.03 6.00Q40.65 5.74 39.92 5.74L39.92 5.74L39.33 5.74L39.33 5.00L39.97 5.00Q40.61 5.00 40.94 4.79Q41.28 4.57 41.28 4.16L41.28 4.16Q41.28 3.77 40.93 3.56Q40.59 3.35 39.94 3.35L39.94 3.35Q39.67 3.35 39.32 3.41Q38.97 3.47 38.42 3.63L38.42 3.63L38.42 2.84Q38.92 2.73 39.35 2.67Q39.79 2.60 40.17 2.60L40.17 2.60Q41.15 2.60 41.73 3.01Q42.31 3.41 42.31 4.09L42.31 4.09Q42.31 4.56 42 4.89Q41.69 5.22 41.13 5.34Z"></path></svg>