<svg height="16.296875" width="43.4697265625" xmlns="http://www.w3.org/2000/svg" ><path d="M7.68 8.37L7.68 8.37L7.68 13.00L6.43 13.00L6.43 8.42Q6.43 7.33 6.00 6.79Q5.58 6.25 4.73 6.25L4.73 6.25Q3.71 6.25 3.12 6.90Q2.54 7.55 2.54 8.67L2.54 8.67L2.54 13.00L1.27 13.00L1.27 5.13Q1.27 3.67 1.83 3.01Q2.39 2.36 3.62 2.36L3.62 2.36L5.36 2.36L5.36 3.42L3.78 3.42Q3.06 3.42 2.80 3.76Q2.54 4.09 2.54 5.13L2.54 5.13L2.54 6.53Q2.99 5.84 3.60 5.50Q4.21 5.15 5.01 5.15L5.01 5.15Q6.33 5.15 7.01 5.97Q7.68 6.79 7.68 8.37ZM10.06 9.97L10.06 9.97L10.06 5.34L11.32 5.34L11.32 9.93Q11.32 11.01 11.74 11.56Q12.17 12.10 13.02 12.10L13.02 12.10Q14.03 12.10 14.63 11.45Q15.22 10.80 15.22 9.68L15.22 9.68L15.22 5.34L16.47 5.34L16.47 13.00L15.22 13.00L15.22 11.82Q14.76 12.52 14.15 12.85Q13.55 13.19 12.75 13.19L12.75 13.19Q11.43 13.19 10.75 12.37Q10.06 11.55 10.06 9.97ZM13.23 5.15L13.23 5.15ZM24.10 6.50L24.10 6.50L24.10 5.34L25.36 5.34L25.36 13.00L24.10 13.00L24.10 11.85Q23.71 12.53 23.10 12.86Q22.50 13.19 21.65 13.19L21.65 13.19Q20.26 13.19 19.39 12.09Q18.52 10.98 18.52 9.17L18.52 9.17Q18.52 7.37 19.39 6.26Q20.26 5.15 21.65 5.15L21.65 5.15Q22.50 5.15 23.10 5.49Q23.71 5.82 24.10 6.50ZM19.82 9.17L19.82 9.17Q19.82 10.56 20.39 11.35Q20.96 12.14 21.96 12.14L21.96 12.14Q22.96 12.14 23.53 11.35Q24.10 10.56 24.10 9.17L24.10 9.17Q24.10 7.79 23.53 7.00Q22.96 6.21 21.96 6.21L21.96 6.21Q20.96 6.21 20.39 7.00Q19.82 7.79 19.82 9.17ZM23.09 3.63L23.09 3.63L22.70 3.25Q22.55 3.12 22.44 3.05Q22.33 2.99 22.24 2.99L22.24 2.99Q21.98 2.99 21.85 3.24Q21.73 3.49 21.72 4.05L21.72 4.05L20.86 4.05Q20.88 3.12 21.23 2.62Q21.57 2.12 22.20 2.12L22.20 2.12Q22.46 2.12 22.67 2.21Q22.89 2.31 23.15 2.54L23.15 2.54L23.54 2.91Q23.69 3.05 23.80 3.11Q23.91 3.18 24.00 3.18L24.00 3.18Q24.26 3.18 24.38 2.93Q24.51 2.68 24.52 2.12L24.52 2.12L25.38 2.12Q25.36 3.04 25.01 3.54Q24.66 4.05 24.04 4.05L24.04 4.05Q23.78 4.05 23.56 3.95Q23.34 3.86 23.09 3.63ZM27.70 8.43L27.70 7.68L29.09 7.68L29.09 3.50L27.57 3.78L27.57 2.99L29.14 2.72L30.08 2.72L30.08 7.68L31.48 7.68L31.48 8.43L27.70 8.43ZM33.31 8.43L33.31 7.68L34.71 7.68L34.71 3.50L33.18 3.78L33.18 2.99L34.75 2.72L35.69 2.72L35.69 7.68L37.09 7.68L37.09 8.43L33.31 8.43ZM41.44 5.34L41.44 5.34Q42.07 5.46 42.41 5.83Q42.76 6.21 42.76 6.77L42.76 6.77Q42.76 7.62 42.11 8.07Q41.46 8.53 40.25 8.53L40.25 8.53Q39.86 8.53 39.43 8.46Q39.01 8.39 38.53 8.25L38.53 8.25L38.53 7.42Q38.88 7.61 39.29 7.70Q39.70 7.79 40.15 7.79L40.15 7.79Q40.90 7.79 41.31 7.52Q41.72 7.25 41.72 6.77L41.72 6.77Q41.72 6.26 41.34 6.00Q40.96 5.74 40.22 5.74L40.22 5.74L39.63 5.74L39.63 5.00L40.28 5.00Q40.92 5.00 41.25 4.79Q41.58 4.57 41.58 4.16L41.58 4.16Q41.58 3.77 41.24 3.56Q40.90 3.35 40.25 3.35L40.25 3.35Q39.98 3.35 39.63 3.41Q39.28 3.47 38.73 3.63L38.73 3.63L38.73 2.84Q39.22 2.73 39.66 2.67Q40.10 2.60 40.48 2.60L40.48 2.60Q41.46 2.60 42.04 3.01Q42.62 3.41 42.62 4.09L42.62 4.09Q42.62 4.56 42.31 4.89Q42 5.22 41.44 5.34Z"></path></svg>