<svg height="16.296875" width="44.3994140625" xmlns="http://www.w3.org/2000/svg" ><path d="M7.68 8.37L7.68 8.37L7.68 13.00L6.43 13.00L6.43 8.42Q6.43 7.33 6.00 6.79Q5.58 6.25 4.73 6.25L4.73 6.25Q3.71 6.25 3.12 6.90Q2.54 7.55 2.54 8.67L2.54 8.67L2.54 13.00L1.27 13.00L1.27 5.13Q1.27 3.67 1.83 3.01Q2.39 2.36 3.62 2.36L3.62 2.36L5.36 2.36L5.36 3.42L3.78 3.42Q3.06 3.42 2.80 3.76Q2.54 4.09 2.54 5.13L2.54 5.13L2.54 6.53Q2.99 5.84 3.60 5.50Q4.21 5.15 5.01 5.15L5.01 5.15Q6.33 5.15 7.01 5.97Q7.68 6.79 7.68 8.37ZM10.06 9.97L10.06 9.97L10.06 5.34L11.32 5.34L11.32 9.93Q11.32 11.01 11.74 11.56Q12.17 12.10 13.02 12.10L13.02 12.10Q14.03 12.10 14.63 11.45Q15.22 10.80 15.22 9.68L15.22 9.68L15.22 5.34L16.47 5.34L16.47 13.00L15.22 13.00L15.22 11.82Q14.76 12.52 14.15 12.85Q13.55 13.19 12.75 13.19L12.75 13.19Q11.43 13.19 10.75 12.37Q10.06 11.55 10.06 9.97ZM13.23 5.15L13.23 5.15ZM22.74 5.34L25.61 13.00L24.28 13.00L23.58 11.12L20.19 11.12L19.50 13.00L18.16 13.00L21.03 5.34L22.74 5.34ZM21.89 6.57L20.58 10.10L23.20 10.10L21.89 6.57ZM28.36 13.00L28.36 7.54L28.79 7.54Q30.10 7.54 30.69 6.76L30.69 6.76Q31.08 6.24 31.08 5.57L31.08 5.57Q31.08 4.66 30.69 4.22L30.69 4.22Q30.01 3.44 28.79 3.44L28.79 3.44Q28.24 3.44 27.70 3.59L27.70 3.59Q27.17 3.73 26.63 4.03L26.63 4.03L26.63 2.85Q27.15 2.61 27.71 2.50L27.71 2.50Q28.26 2.37 28.84 2.37L28.84 2.37Q30.72 2.37 31.66 3.45L31.66 3.45Q32.41 4.30 32.41 5.57L32.41 5.57Q32.41 6.73 31.67 7.52L31.67 7.52Q30.91 8.33 29.74 8.54L29.74 8.54L29.74 13.00L28.36 13.00ZM34.24 8.43L34.24 7.68L35.64 7.68L35.64 3.50L34.11 3.78L34.11 2.99L35.68 2.72L36.62 2.72L36.62 7.68L38.02 7.68L38.02 8.43L34.24 8.43ZM40.62 7.65L40.62 7.65L43.52 7.65L43.52 8.43L39.43 8.43L39.43 7.68Q39.66 7.46 40.09 7.08L40.09 7.08Q42.44 5.00 42.44 4.35L42.44 4.35Q42.44 3.90 42.09 3.63Q41.73 3.35 41.15 3.35L41.15 3.35Q40.80 3.35 40.38 3.47Q39.96 3.59 39.47 3.83L39.47 3.83L39.47 2.99Q40.00 2.80 40.45 2.70Q40.91 2.60 41.30 2.60L41.30 2.60Q42.29 2.60 42.88 3.06Q43.48 3.51 43.48 4.25L43.48 4.25Q43.48 5.20 41.21 7.14L41.21 7.14Q40.83 7.46 40.62 7.65Z"></path></svg>