<svg height="16.296875" width="41.453125" xmlns="http://www.w3.org/2000/svg" ><path d="M7.68 8.37L7.68 8.37L7.68 13.00L6.43 13.00L6.43 8.42Q6.43 7.33 6.00 6.79Q5.58 6.25 4.73 6.25L4.73 6.25Q3.71 6.25 3.12 6.90Q2.54 7.55 2.54 8.67L2.54 8.67L2.54 13.00L1.27 13.00L1.27 5.13Q1.27 3.67 1.83 3.01Q2.39 2.36 3.62 2.36L3.62 2.36L5.36 2.36L5.36 3.42L3.78 3.42Q3.06 3.42 2.80 3.76Q2.54 4.09 2.54 5.13L2.54 5.13L2.54 6.53Q2.99 5.84 3.60 5.50Q4.21 5.15 5.01 5.15L5.01 5.15Q6.33 5.15 7.01 5.97Q7.68 6.79 7.68 8.37ZM10.06 9.97L10.06 9.97L10.06 5.34L11.32 5.34L11.32 9.93Q11.32 11.01 11.74 11.56Q12.17 12.10 13.02 12.10L13.02 12.10Q14.03 12.10 14.63 11.45Q15.22 10.80 15.22 9.68L15.22 9.68L15.22 5.34L16.47 5.34L16.47 13.00L15.22 13.00L15.22 11.82Q14.76 12.52 14.15 12.85Q13.55 13.19 12.75 13.19L12.75 13.19Q11.43 13.19 10.75 12.37Q10.06 11.55 10.06 9.97ZM13.23 5.15L13.23 5.15ZM19.02 13.00L19.02 5.34L23.86 5.34L23.86 6.35L20.29 6.35L20.29 8.41L23.70 8.41L23.70 9.42L20.29 9.42L20.29 11.99L23.95 11.99L23.95 13.00L19.02 13.00ZM25.68 8.43L25.68 7.68L27.08 7.68L27.08 3.50L25.55 3.78L25.55 2.99L27.13 2.72L28.06 2.72L28.06 7.68L29.46 7.68L29.46 8.43L25.68 8.43ZM31.29 8.43L31.29 7.68L32.69 7.68L32.69 3.50L31.17 3.78L31.17 2.99L32.74 2.72L33.67 2.72L33.67 7.68L35.08 7.68L35.08 8.43L31.29 8.43ZM39.42 5.34L39.42 5.34Q40.05 5.46 40.40 5.83Q40.74 6.21 40.74 6.77L40.74 6.77Q40.74 7.62 40.09 8.07Q39.44 8.53 38.23 8.53L38.23 8.53Q37.84 8.53 37.42 8.46Q36.99 8.39 36.51 8.25L36.51 8.25L36.51 7.42Q36.87 7.61 37.27 7.70Q37.68 7.79 38.14 7.79L38.14 7.79Q38.88 7.79 39.29 7.52Q39.70 7.25 39.70 6.77L39.70 6.77Q39.70 6.26 39.32 6.00Q38.94 5.74 38.21 5.74L38.21 5.74L37.62 5.74L37.62 5.00L38.26 5.00Q38.90 5.00 39.23 4.79Q39.57 4.57 39.57 4.16L39.57 4.16Q39.57 3.77 39.22 3.56Q38.88 3.35 38.23 3.35L38.23 3.35Q37.96 3.35 37.61 3.41Q37.26 3.47 36.71 3.63L36.71 3.63L36.71 2.84Q37.21 2.73 37.65 2.67Q38.08 2.60 38.46 2.60L38.46 2.60Q39.44 2.60 40.02 3.01Q40.60 3.41 40.60 4.09L40.60 4.09Q40.60 4.56 40.29 4.89Q39.98 5.22 39.42 5.34Z"></path></svg>