<svg height="16.296875" width="52.0693359375" xmlns="http://www.w3.org/2000/svg" ><path d="M7.68 8.37L7.68 8.37L7.68 13.00L6.43 13.00L6.43 8.42Q6.43 7.33 6.00 6.79Q5.58 6.25 4.73 6.25L4.73 6.25Q3.71 6.25 3.12 6.90Q2.54 7.55 2.54 8.67L2.54 8.67L2.54 13.00L1.27 13.00L1.27 5.13Q1.27 3.67 1.83 3.01Q2.39 2.36 3.62 2.36L3.62 2.36L5.36 2.36L5.36 3.42L3.78 3.42Q3.06 3.42 2.80 3.76Q2.54 4.09 2.54 5.13L2.54 5.13L2.54 6.53Q2.99 5.84 3.60 5.50Q4.21 5.15 5.01 5.15L5.01 5.15Q6.33 5.15 7.01 5.97Q7.68 6.79 7.68 8.37ZM10.06 9.97L10.06 9.97L10.06 5.34L11.32 5.34L11.32 9.93Q11.32 11.01 11.74 11.56Q12.17 12.10 13.02 12.10L13.02 12.10Q14.03 12.10 14.63 11.45Q15.22 10.80 15.22 9.68L15.22 9.68L15.22 5.34L16.47 5.34L16.47 13.00L15.22 13.00L15.22 11.82Q14.76 12.52 14.15 12.85Q13.55 13.19 12.75 13.19L12.75 13.19Q11.43 13.19 10.75 12.37Q10.06 11.55 10.06 9.97ZM13.23 5.15L13.23 5.15ZM18.52 9.50L18.52 9.50L18.52 8.88L24.30 8.88Q24.22 7.58 23.52 6.90Q22.82 6.22 21.57 6.22L21.57 6.22Q20.84 6.22 20.16 6.40Q19.48 6.58 18.81 6.93L18.81 6.93L18.81 5.74Q19.49 5.46 20.20 5.30Q20.91 5.15 21.64 5.15L21.64 5.15Q23.47 5.15 24.54 6.22Q25.61 7.29 25.61 9.11L25.61 9.11Q25.61 10.99 24.60 12.09Q23.58 13.19 21.86 13.19L21.86 13.19Q20.32 13.19 19.42 12.20Q18.52 11.20 18.52 9.50ZM24.26 9.86L19.78 9.86Q19.79 10.90 20.35 11.51Q20.92 12.13 21.85 12.13L21.85 12.13Q22.90 12.13 23.53 11.53Q24.17 10.94 24.26 9.86L24.26 9.86ZM34.04 8.37L34.04 8.37L34.04 13.00L32.79 13.00L32.79 8.42Q32.79 7.33 32.36 6.79Q31.94 6.25 31.09 6.25L31.09 6.25Q30.07 6.25 29.48 6.90Q28.90 7.55 28.90 8.67L28.90 8.67L28.90 13.00L27.63 13.00L27.63 5.34L28.90 5.34L28.90 6.53Q29.35 5.84 29.96 5.50Q30.57 5.15 31.37 5.15L31.37 5.15Q32.69 5.15 33.37 5.97Q34.04 6.79 34.04 8.37ZM36.30 8.43L36.30 7.68L37.69 7.68L37.69 3.50L36.17 3.78L36.17 2.99L37.74 2.72L38.68 2.72L38.68 7.68L40.08 7.68L40.08 8.43L36.30 8.43ZM41.91 8.43L41.91 7.68L43.31 7.68L43.31 3.50L41.78 3.78L41.78 2.99L43.35 2.72L44.29 2.72L44.29 7.68L45.69 7.68L45.69 8.43L41.91 8.43ZM50.04 5.34L50.04 5.34Q50.67 5.46 51.01 5.83Q51.36 6.21 51.36 6.77L51.36 6.77Q51.36 7.62 50.71 8.07Q50.06 8.53 48.85 8.53L48.85 8.53Q48.46 8.53 48.03 8.46Q47.61 8.39 47.13 8.25L47.13 8.25L47.13 7.42Q47.48 7.61 47.89 7.70Q48.30 7.79 48.75 7.79L48.75 7.79Q49.50 7.79 49.91 7.52Q50.32 7.25 50.32 6.77L50.32 6.77Q50.32 6.26 49.94 6.00Q49.56 5.74 48.82 5.74L48.82 5.74L48.23 5.74L48.23 5.00L48.88 5.00Q49.52 5.00 49.85 4.79Q50.18 4.57 50.18 4.16L50.18 4.16Q50.18 3.77 49.84 3.56Q49.50 3.35 48.85 3.35L48.85 3.35Q48.58 3.35 48.23 3.41Q47.88 3.47 47.33 3.63L47.33 3.63L47.33 2.84Q47.82 2.73 48.26 2.67Q48.70 2.60 49.08 2.60L49.08 2.60Q50.06 2.60 50.64 3.01Q51.21 3.41 51.21 4.09L51.21 4.09Q51.21 4.56 50.91 4.89Q50.60 5.22 50.04 5.34Z"></path></svg>