<svg height="16.296875" width="43.1484375" xmlns="http://www.w3.org/2000/svg" ><path d="M7.68 8.37L7.68 8.37L7.68 13.00L6.43 13.00L6.43 8.42Q6.43 7.33 6.00 6.79Q5.58 6.25 4.73 6.25L4.73 6.25Q3.71 6.25 3.12 6.90Q2.54 7.55 2.54 8.67L2.54 8.67L2.54 13.00L1.27 13.00L1.27 5.13Q1.27 3.67 1.83 3.01Q2.39 2.36 3.62 2.36L3.62 2.36L5.36 2.36L5.36 3.42L3.78 3.42Q3.06 3.42 2.80 3.76Q2.54 4.09 2.54 5.13L2.54 5.13L2.54 6.53Q2.99 5.84 3.60 5.50Q4.21 5.15 5.01 5.15L5.01 5.15Q6.33 5.15 7.01 5.97Q7.68 6.79 7.68 8.37ZM10.06 9.97L10.06 9.97L10.06 5.34L11.32 5.34L11.32 9.93Q11.32 11.01 11.74 11.56Q12.17 12.10 13.02 12.10L13.02 12.10Q14.03 12.10 14.63 11.45Q15.22 10.80 15.22 9.68L15.22 9.68L15.22 5.34L16.47 5.34L16.47 13.00L15.22 13.00L15.22 11.82Q14.76 12.52 14.15 12.85Q13.55 13.19 12.75 13.19L12.75 13.19Q11.43 13.19 10.75 12.37Q10.06 11.55 10.06 9.97ZM13.23 5.15L13.23 5.15ZM23.93 7.52L23.93 7.52L20.60 11.57Q20.88 11.85 21.24 11.99Q21.59 12.13 22.03 12.13L22.03 12.13Q23.04 12.13 23.63 11.33Q24.21 10.54 24.21 9.17L24.21 9.17Q24.21 8.63 24.14 8.23Q24.08 7.83 23.93 7.52ZM20.11 10.83L23.45 6.78Q23.16 6.50 22.81 6.36Q22.46 6.22 22.03 6.22L22.03 6.22Q21 6.22 20.42 7.02Q19.84 7.83 19.84 9.27L19.84 9.27Q19.84 9.76 19.91 10.14Q19.97 10.51 20.11 10.83L20.11 10.83ZM18.24 13.10L19.26 11.86Q18.89 11.33 18.70 10.66Q18.52 9.99 18.52 9.17L18.52 9.17Q18.52 7.29 19.45 6.22Q20.38 5.15 22.03 5.15L22.03 5.15Q22.67 5.15 23.21 5.33Q23.75 5.50 24.21 5.86L24.21 5.86L25.16 4.71L25.81 5.25L24.81 6.47Q25.18 7 25.36 7.68Q25.55 8.35 25.55 9.17L25.55 9.17Q25.55 11.05 24.61 12.12Q23.67 13.19 22.03 13.19L22.03 13.19Q21.38 13.19 20.83 13.02Q20.28 12.84 19.84 12.49L19.84 12.49L18.89 13.64L18.24 13.10ZM27.38 8.43L27.38 7.68L28.77 7.68L28.77 3.50L27.25 3.78L27.25 2.99L28.82 2.72L29.76 2.72L29.76 7.68L31.16 7.68L31.16 8.43L27.38 8.43ZM32.99 8.43L32.99 7.68L34.38 7.68L34.38 3.50L32.86 3.78L32.86 2.99L34.43 2.72L35.37 2.72L35.37 7.68L36.77 7.68L36.77 8.43L32.99 8.43ZM41.12 5.34L41.12 5.34Q41.75 5.46 42.09 5.83Q42.44 6.21 42.44 6.77L42.44 6.77Q42.44 7.62 41.79 8.07Q41.14 8.53 39.93 8.53L39.93 8.53Q39.54 8.53 39.11 8.46Q38.68 8.39 38.21 8.25L38.21 8.25L38.21 7.42Q38.56 7.61 38.97 7.70Q39.38 7.79 39.83 7.79L39.83 7.79Q40.58 7.79 40.99 7.52Q41.40 7.25 41.40 6.77L41.40 6.77Q41.40 6.26 41.02 6.00Q40.64 5.74 39.90 5.74L39.90 5.74L39.31 5.74L39.31 5.00L39.96 5.00Q40.60 5.00 40.93 4.79Q41.26 4.57 41.26 4.16L41.26 4.16Q41.26 3.77 40.92 3.56Q40.58 3.35 39.93 3.35L39.93 3.35Q39.66 3.35 39.31 3.41Q38.96 3.47 38.40 3.63L38.40 3.63L38.40 2.84Q38.90 2.73 39.34 2.67Q39.78 2.60 40.15 2.60L40.15 2.60Q41.14 2.60 41.72 3.01Q42.29 3.41 42.29 4.09L42.29 4.09Q42.29 4.56 41.99 4.89Q41.68 5.22 41.12 5.34Z"></path></svg>