<svg height="16.296875" width="34.5830078125" xmlns="http://www.w3.org/2000/svg" ><path d="M7.68 8.37L7.68 8.37L7.68 13.00L6.43 13.00L6.43 8.42Q6.43 7.33 6.00 6.79Q5.58 6.25 4.73 6.25L4.73 6.25Q3.71 6.25 3.12 6.90Q2.54 7.55 2.54 8.67L2.54 8.67L2.54 13.00L1.27 13.00L1.27 5.13Q1.27 3.67 1.83 3.01Q2.39 2.36 3.62 2.36L3.62 2.36L5.36 2.36L5.36 3.42L3.78 3.42Q3.06 3.42 2.80 3.76Q2.54 4.09 2.54 5.13L2.54 5.13L2.54 6.53Q2.99 5.84 3.60 5.50Q4.21 5.15 5.01 5.15L5.01 5.15Q6.33 5.15 7.01 5.97Q7.68 6.79 7.68 8.37ZM10.06 9.97L10.06 9.97L10.06 5.34L11.32 5.34L11.32 9.93Q11.32 11.01 11.74 11.56Q12.17 12.10 13.02 12.10L13.02 12.10Q14.03 12.10 14.63 11.45Q15.22 10.80 15.22 9.68L15.22 9.68L15.22 5.34L16.47 5.34L16.47 13.00L15.22 13.00L15.22 11.82Q14.76 12.52 14.15 12.85Q13.55 13.19 12.75 13.19L12.75 13.19Q11.43 13.19 10.75 12.37Q10.06 11.55 10.06 9.97ZM13.23 5.15L13.23 5.15ZM18.81 8.43L18.81 7.68L20.21 7.68L20.21 3.50L18.68 3.78L18.68 2.99L20.25 2.72L21.19 2.72L21.19 7.68L22.59 7.68L22.59 8.43L18.81 8.43ZM24.42 8.43L24.42 7.68L25.82 7.68L25.82 3.50L24.29 3.78L24.29 2.99L25.87 2.72L26.80 2.72L26.80 7.68L28.21 7.68L28.21 8.43L24.42 8.43ZM32.55 5.34L32.55 5.34Q33.18 5.46 33.53 5.83Q33.87 6.21 33.87 6.77L33.87 6.77Q33.87 7.62 33.22 8.07Q32.57 8.53 31.36 8.53L31.36 8.53Q30.97 8.53 30.55 8.46Q30.12 8.39 29.64 8.25L29.64 8.25L29.64 7.42Q30.00 7.61 30.40 7.70Q30.81 7.79 31.27 7.79L31.27 7.79Q32.01 7.79 32.42 7.52Q32.83 7.25 32.83 6.77L32.83 6.77Q32.83 6.26 32.45 6.00Q32.07 5.74 31.34 5.74L31.34 5.74L30.75 5.74L30.75 5.00L31.39 5.00Q32.03 5.00 32.36 4.79Q32.70 4.57 32.70 4.16L32.70 4.16Q32.70 3.77 32.35 3.56Q32.01 3.35 31.36 3.35L31.36 3.35Q31.09 3.35 30.74 3.41Q30.39 3.47 29.84 3.63L29.84 3.63L29.84 2.84Q30.34 2.73 30.78 2.67Q31.21 2.60 31.59 2.60L31.59 2.60Q32.57 2.60 33.15 3.01Q33.73 3.41 33.73 4.09L33.73 4.09Q33.73 4.56 33.42 4.89Q33.11 5.22 32.55 5.34Z"></path></svg>