<svg height="16.296875" width="37.884765625" xmlns="http://www.w3.org/2000/svg" ><path d="M7.68 8.37L7.68 8.37L7.68 13.00L6.43 13.00L6.43 8.42Q6.43 7.33 6.00 6.79Q5.58 6.25 4.73 6.25L4.73 6.25Q3.71 6.25 3.12 6.90Q2.54 7.55 2.54 8.67L2.54 8.67L2.54 13.00L1.27 13.00L1.27 5.13Q1.27 3.67 1.83 3.01Q2.39 2.36 3.62 2.36L3.62 2.36L5.36 2.36L5.36 3.42L3.78 3.42Q3.06 3.42 2.80 3.76Q2.54 4.09 2.54 5.13L2.54 5.13L2.54 6.53Q2.99 5.84 3.60 5.50Q4.21 5.15 5.01 5.15L5.01 5.15Q6.33 5.15 7.01 5.97Q7.68 6.79 7.68 8.37ZM10.19 13.00L10.19 5.34L11.45 5.34L11.45 13.00L10.19 13.00ZM10.19 3.95L10.19 2.36L11.45 2.36L11.45 3.95L10.19 3.95ZM17.76 5.34L20.63 13.00L19.30 13.00L18.60 11.12L15.21 11.12L14.51 13.00L13.18 13.00L16.05 5.34L17.76 5.34ZM16.91 6.57L15.59 10.10L18.22 10.10L16.91 6.57ZM22.11 8.43L22.11 7.68L23.51 7.68L23.51 3.50L21.98 3.78L21.98 2.99L23.56 2.72L24.49 2.72L24.49 7.68L25.89 7.68L25.89 8.43L22.11 8.43ZM27.73 8.43L27.73 7.68L29.12 7.68L29.12 3.50L27.60 3.78L27.60 2.99L29.17 2.72L30.11 2.72L30.11 7.68L31.51 7.68L31.51 8.43L27.73 8.43ZM35.85 5.34L35.85 5.34Q36.48 5.46 36.83 5.83Q37.17 6.21 37.17 6.77L37.17 6.77Q37.17 7.62 36.52 8.07Q35.88 8.53 34.67 8.53L34.67 8.53Q34.28 8.53 33.85 8.46Q33.42 8.39 32.94 8.25L32.94 8.25L32.94 7.42Q33.30 7.61 33.70 7.70Q34.11 7.79 34.57 7.79L34.57 7.79Q35.31 7.79 35.72 7.52Q36.13 7.25 36.13 6.77L36.13 6.77Q36.13 6.26 35.76 6.00Q35.38 5.74 34.64 5.74L34.64 5.74L34.05 5.74L34.05 5.00L34.69 5.00Q35.33 5.00 35.67 4.79Q36.00 4.57 36.00 4.16L36.00 4.16Q36.00 3.77 35.66 3.56Q35.31 3.35 34.67 3.35L34.67 3.35Q34.39 3.35 34.04 3.41Q33.69 3.47 33.14 3.63L33.14 3.63L33.14 2.84Q33.64 2.73 34.08 2.67Q34.51 2.60 34.89 2.60L34.89 2.60Q35.88 2.60 36.45 3.01Q37.03 3.41 37.03 4.09L37.03 4.09Q37.03 4.56 36.72 4.89Q36.42 5.22 35.85 5.34Z"></path></svg>