<svg height="16.296875" width="38.1787109375" xmlns="http://www.w3.org/2000/svg" ><path d="M7.68 8.37L7.68 8.37L7.68 13.00L6.43 13.00L6.43 8.42Q6.43 7.33 6.00 6.79Q5.58 6.25 4.73 6.25L4.73 6.25Q3.71 6.25 3.12 6.90Q2.54 7.55 2.54 8.67L2.54 8.67L2.54 13.00L1.27 13.00L1.27 5.13Q1.27 3.67 1.83 3.01Q2.39 2.36 3.62 2.36L3.62 2.36L5.36 2.36L5.36 3.42L3.78 3.42Q3.06 3.42 2.80 3.76Q2.54 4.09 2.54 5.13L2.54 5.13L2.54 6.53Q2.99 5.84 3.60 5.50Q4.21 5.15 5.01 5.15L5.01 5.15Q6.33 5.15 7.01 5.97Q7.68 6.79 7.68 8.37ZM10.19 13.00L10.19 5.34L11.45 5.34L11.45 13.00L10.19 13.00ZM10.19 3.95L10.19 2.36L11.45 2.36L11.45 3.95L10.19 3.95ZM18.81 9.15L17.56 9.15Q16.04 9.15 15.45 9.50Q14.86 9.84 14.86 10.68L14.86 10.68Q14.86 11.35 15.30 11.75Q15.74 12.14 16.50 12.14L16.50 12.14Q17.55 12.14 18.18 11.40Q18.81 10.66 18.81 9.43L18.81 9.43L18.81 9.15ZM20.07 8.63L20.07 8.63L20.07 13.00L18.81 13.00L18.81 11.83Q18.38 12.53 17.74 12.86Q17.10 13.19 16.17 13.19L16.17 13.19Q14.99 13.19 14.30 12.53Q13.60 11.87 13.60 10.77L13.60 10.77Q13.60 9.47 14.47 8.82Q15.33 8.16 17.05 8.16L17.05 8.16L18.81 8.16L18.81 8.04Q18.81 7.17 18.24 6.70Q17.67 6.22 16.64 6.22L16.64 6.22Q15.98 6.22 15.36 6.38Q14.74 6.54 14.16 6.85L14.16 6.85L14.16 5.69Q14.85 5.42 15.50 5.29Q16.15 5.15 16.77 5.15L16.77 5.15Q18.43 5.15 19.25 6.02Q20.07 6.88 20.07 8.63ZM17.80 3.63L17.80 3.63L17.41 3.25Q17.26 3.12 17.15 3.05Q17.04 2.99 16.95 2.99L16.95 2.99Q16.69 2.99 16.56 3.24Q16.44 3.49 16.43 4.05L16.43 4.05L15.57 4.05Q15.59 3.12 15.93 2.62Q16.28 2.12 16.91 2.12L16.91 2.12Q17.17 2.12 17.38 2.21Q17.60 2.31 17.86 2.54L17.86 2.54L18.25 2.91Q18.40 3.05 18.51 3.11Q18.62 3.18 18.71 3.18L18.71 3.18Q18.97 3.18 19.09 2.93Q19.22 2.68 19.23 2.12L19.23 2.12L20.08 2.12Q20.07 3.04 19.72 3.54Q19.37 4.05 18.75 4.05L18.75 4.05Q18.49 4.05 18.27 3.95Q18.05 3.86 17.80 3.63ZM22.41 8.43L22.41 7.68L23.80 7.68L23.80 3.50L22.28 3.78L22.28 2.99L23.85 2.72L24.79 2.72L24.79 7.68L26.19 7.68L26.19 8.43L22.41 8.43ZM28.02 8.43L28.02 7.68L29.42 7.68L29.42 3.50L27.89 3.78L27.89 2.99L29.46 2.72L30.40 2.72L30.40 7.68L31.80 7.68L31.80 8.43L28.02 8.43ZM36.15 5.34L36.15 5.34Q36.78 5.46 37.12 5.83Q37.47 6.21 37.47 6.77L37.47 6.77Q37.47 7.62 36.82 8.07Q36.17 8.53 34.96 8.53L34.96 8.53Q34.57 8.53 34.14 8.46Q33.71 8.39 33.24 8.25L33.24 8.25L33.24 7.42Q33.59 7.61 34.00 7.70Q34.41 7.79 34.86 7.79L34.86 7.79Q35.61 7.79 36.02 7.52Q36.43 7.25 36.43 6.77L36.43 6.77Q36.43 6.26 36.05 6.00Q35.67 5.74 34.93 5.74L34.93 5.74L34.34 5.74L34.34 5.00L34.99 5.00Q35.63 5.00 35.96 4.79Q36.29 4.57 36.29 4.16L36.29 4.16Q36.29 3.77 35.95 3.56Q35.61 3.35 34.96 3.35L34.96 3.35Q34.69 3.35 34.34 3.41Q33.99 3.47 33.43 3.63L33.43 3.63L33.43 2.84Q33.93 2.73 34.37 2.67Q34.81 2.60 35.18 2.60L35.18 2.60Q36.17 2.60 36.75 3.01Q37.32 3.41 37.32 4.09L37.32 4.09Q37.32 4.56 37.02 4.89Q36.71 5.22 36.15 5.34Z"></path></svg>