<svg height="16.296875" width="38.486328125" xmlns="http://www.w3.org/2000/svg" ><path d="M7.68 8.37L7.68 8.37L7.68 13.00L6.43 13.00L6.43 8.42Q6.43 7.33 6.00 6.79Q5.58 6.25 4.73 6.25L4.73 6.25Q3.71 6.25 3.12 6.90Q2.54 7.55 2.54 8.67L2.54 8.67L2.54 13.00L1.27 13.00L1.27 5.13Q1.27 3.67 1.83 3.01Q2.39 2.36 3.62 2.36L3.62 2.36L5.36 2.36L5.36 3.42L3.78 3.42Q3.06 3.42 2.80 3.76Q2.54 4.09 2.54 5.13L2.54 5.13L2.54 6.53Q2.99 5.84 3.60 5.50Q4.21 5.15 5.01 5.15L5.01 5.15Q6.33 5.15 7.01 5.97Q7.68 6.79 7.68 8.37ZM10.19 13.00L10.19 5.34L11.45 5.34L11.45 13.00L10.19 13.00ZM10.19 3.95L10.19 2.36L11.45 2.36L11.45 3.95L10.19 3.95ZM19.12 6.50L19.12 6.50L19.12 5.34L20.38 5.34L20.38 13.00L19.12 13.00L19.12 11.85Q18.72 12.53 18.12 12.86Q17.51 13.19 16.67 13.19L16.67 13.19Q15.28 13.19 14.41 12.09Q13.54 10.98 13.54 9.17L13.54 9.17Q13.54 7.37 14.41 6.26Q15.28 5.15 16.67 5.15L16.67 5.15Q17.51 5.15 18.12 5.49Q18.72 5.82 19.12 6.50ZM14.83 9.17L14.83 9.17Q14.83 10.56 15.40 11.35Q15.98 12.14 16.97 12.14L16.97 12.14Q17.97 12.14 18.55 11.35Q19.12 10.56 19.12 9.17L19.12 9.17Q19.12 7.79 18.55 7.00Q17.97 6.21 16.97 6.21L16.97 6.21Q15.98 6.21 15.40 7.00Q14.83 7.79 14.83 9.17ZM18.11 3.63L18.11 3.63L17.72 3.25Q17.57 3.12 17.46 3.05Q17.34 2.99 17.25 2.99L17.25 2.99Q16.99 2.99 16.87 3.24Q16.75 3.49 16.73 4.05L16.73 4.05L15.88 4.05Q15.89 3.12 16.24 2.62Q16.59 2.12 17.21 2.12L17.21 2.12Q17.47 2.12 17.69 2.21Q17.91 2.31 18.16 2.54L18.16 2.54L18.55 2.91Q18.70 3.05 18.82 3.11Q18.93 3.18 19.02 3.18L19.02 3.18Q19.28 3.18 19.40 2.93Q19.52 2.68 19.54 2.12L19.54 2.12L20.39 2.12Q20.38 3.04 20.03 3.54Q19.68 4.05 19.06 4.05L19.06 4.05Q18.80 4.05 18.58 3.95Q18.36 3.86 18.11 3.63ZM22.72 8.43L22.72 7.68L24.11 7.68L24.11 3.50L22.59 3.78L22.59 2.99L24.16 2.72L25.09 2.72L25.09 7.68L26.50 7.68L26.50 8.43L22.72 8.43ZM28.33 8.43L28.33 7.68L29.72 7.68L29.72 3.50L28.20 3.78L28.20 2.99L29.77 2.72L30.71 2.72L30.71 7.68L32.11 7.68L32.11 8.43L28.33 8.43ZM36.46 5.34L36.46 5.34Q37.08 5.46 37.43 5.83Q37.78 6.21 37.78 6.77L37.78 6.77Q37.78 7.62 37.13 8.07Q36.48 8.53 35.27 8.53L35.27 8.53Q34.88 8.53 34.45 8.46Q34.02 8.39 33.54 8.25L33.54 8.25L33.54 7.42Q33.90 7.61 34.31 7.70Q34.71 7.79 35.17 7.79L35.17 7.79Q35.92 7.79 36.33 7.52Q36.74 7.25 36.74 6.77L36.74 6.77Q36.74 6.26 36.36 6.00Q35.98 5.74 35.24 5.74L35.24 5.74L34.65 5.74L34.65 5.00L35.29 5.00Q35.94 5.00 36.27 4.79Q36.60 4.57 36.60 4.16L36.60 4.16Q36.60 3.77 36.26 3.56Q35.92 3.35 35.27 3.35L35.27 3.35Q34.99 3.35 34.64 3.41Q34.30 3.47 33.74 3.63L33.74 3.63L33.74 2.84Q34.24 2.73 34.68 2.67Q35.12 2.60 35.49 2.60L35.49 2.60Q36.48 2.60 37.05 3.01Q37.63 3.41 37.63 4.09L37.63 4.09Q37.63 4.56 37.32 4.89Q37.02 5.22 36.46 5.34Z"></path></svg>