<svg height="16.296875" width="39.416015625" xmlns="http://www.w3.org/2000/svg" ><path d="M7.68 8.37L7.68 8.37L7.68 13.00L6.43 13.00L6.43 8.42Q6.43 7.33 6.00 6.79Q5.58 6.25 4.73 6.25L4.73 6.25Q3.71 6.25 3.12 6.90Q2.54 7.55 2.54 8.67L2.54 8.67L2.54 13.00L1.27 13.00L1.27 5.13Q1.27 3.67 1.83 3.01Q2.39 2.36 3.62 2.36L3.62 2.36L5.36 2.36L5.36 3.42L3.78 3.42Q3.06 3.42 2.80 3.76Q2.54 4.09 2.54 5.13L2.54 5.13L2.54 6.53Q2.99 5.84 3.60 5.50Q4.21 5.15 5.01 5.15L5.01 5.15Q6.33 5.15 7.01 5.97Q7.68 6.79 7.68 8.37ZM10.19 13.00L10.19 5.34L11.45 5.34L11.45 13.00L10.19 13.00ZM10.19 3.95L10.19 2.36L11.45 2.36L11.45 3.95L10.19 3.95ZM17.76 5.34L20.63 13.00L19.30 13.00L18.60 11.12L15.21 11.12L14.51 13.00L13.18 13.00L16.05 5.34L17.76 5.34ZM16.91 6.57L15.59 10.10L18.22 10.10L16.91 6.57ZM23.38 13.00L23.37 7.54L23.80 7.54Q25.12 7.54 25.70 6.76L25.70 6.76Q26.10 6.24 26.10 5.57L26.10 5.57Q26.09 4.66 25.70 4.22L25.70 4.22Q25.03 3.44 23.80 3.44L23.80 3.44Q23.26 3.44 22.72 3.59L22.72 3.59Q22.18 3.73 21.65 4.03L21.65 4.03L21.65 2.85Q22.17 2.61 22.72 2.50L22.72 2.50Q23.28 2.37 23.86 2.37L23.86 2.37Q25.74 2.37 26.68 3.45L26.68 3.45Q27.43 4.30 27.43 5.57L27.43 5.57Q27.43 6.73 26.69 7.52L26.69 7.52Q25.92 8.33 24.76 8.54L24.76 8.54L24.76 13.00L23.38 13.00ZM29.26 8.43L29.26 7.68L30.65 7.68L30.65 3.50L29.13 3.78L29.13 2.99L30.70 2.72L31.64 2.72L31.64 7.68L33.04 7.68L33.04 8.43L29.26 8.43ZM35.64 7.65L35.64 7.65L38.53 7.65L38.53 8.43L34.45 8.43L34.45 7.68Q34.68 7.46 35.11 7.08L35.11 7.08Q37.46 5.00 37.46 4.35L37.46 4.35Q37.46 3.90 37.11 3.63Q36.75 3.35 36.17 3.35L36.17 3.35Q35.81 3.35 35.40 3.47Q34.98 3.59 34.49 3.83L34.49 3.83L34.49 2.99Q35.01 2.80 35.47 2.70Q35.92 2.60 36.31 2.60L36.31 2.60Q37.30 2.60 37.90 3.06Q38.49 3.51 38.49 4.25L38.49 4.25Q38.49 5.20 36.23 7.14L36.23 7.14Q35.85 7.46 35.64 7.65Z"></path></svg>