<svg height="16.296875" width="37.2900390625" xmlns="http://www.w3.org/2000/svg" ><path d="M7.68 8.37L7.68 8.37L7.68 13.00L6.43 13.00L6.43 8.42Q6.43 7.33 6.00 6.79Q5.58 6.25 4.73 6.25L4.73 6.25Q3.71 6.25 3.12 6.90Q2.54 7.55 2.54 8.67L2.54 8.67L2.54 13.00L1.27 13.00L1.27 5.13Q1.27 3.67 1.83 3.01Q2.39 2.36 3.62 2.36L3.62 2.36L5.36 2.36L5.36 3.42L3.78 3.42Q3.06 3.42 2.80 3.76Q2.54 4.09 2.54 5.13L2.54 5.13L2.54 6.53Q2.99 5.84 3.60 5.50Q4.21 5.15 5.01 5.15L5.01 5.15Q6.33 5.15 7.01 5.97Q7.68 6.79 7.68 8.37ZM10.19 13.00L10.19 5.34L11.45 5.34L11.45 13.00L10.19 13.00ZM10.19 3.95L10.19 2.36L11.45 2.36L11.45 3.95L10.19 3.95ZM13.63 6.81L13.63 5.65Q14.16 5.40 14.72 5.28Q15.29 5.15 15.92 5.15L15.92 5.15Q17.65 5.15 18.67 6.24Q19.69 7.33 19.69 9.17L19.69 9.17Q19.69 11.05 18.66 12.12Q17.63 13.19 15.84 13.19L15.84 13.19Q15.26 13.19 14.70 13.07Q14.15 12.95 13.63 12.71L13.63 12.71L13.63 11.54Q14.16 11.83 14.70 11.98Q15.24 12.13 15.78 12.13L15.78 12.13Q17.01 12.13 17.68 11.35Q18.36 10.58 18.36 9.17L18.36 9.17Q18.36 7.77 17.68 7.00Q17.01 6.22 15.78 6.22L15.78 6.22Q15.24 6.22 14.70 6.37Q14.16 6.51 13.63 6.81L13.63 6.81ZM21.52 8.43L21.52 7.68L22.91 7.68L22.91 3.50L21.39 3.78L21.39 2.99L22.96 2.72L23.90 2.72L23.90 7.68L25.30 7.68L25.30 8.43L21.52 8.43ZM27.13 8.43L27.13 7.68L28.53 7.68L28.53 3.50L27.00 3.78L27.00 2.99L28.57 2.72L29.51 2.72L29.51 7.68L30.91 7.68L30.91 8.43L27.13 8.43ZM35.26 5.34L35.26 5.34Q35.89 5.46 36.23 5.83Q36.58 6.21 36.58 6.77L36.58 6.77Q36.58 7.62 35.93 8.07Q35.28 8.53 34.07 8.53L34.07 8.53Q33.68 8.53 33.25 8.46Q32.83 8.39 32.35 8.25L32.35 8.25L32.35 7.42Q32.70 7.61 33.11 7.70Q33.52 7.79 33.97 7.79L33.97 7.79Q34.72 7.79 35.13 7.52Q35.54 7.25 35.54 6.77L35.54 6.77Q35.54 6.26 35.16 6.00Q34.78 5.74 34.04 5.74L34.04 5.74L33.46 5.74L33.46 5.00L34.10 5.00Q34.74 5.00 35.07 4.79Q35.40 4.57 35.40 4.16L35.40 4.16Q35.40 3.77 35.06 3.56Q34.72 3.35 34.07 3.35L34.07 3.35Q33.80 3.35 33.45 3.41Q33.10 3.47 32.55 3.63L32.55 3.63L32.55 2.84Q33.04 2.73 33.48 2.67Q33.92 2.60 34.30 2.60L34.30 2.60Q35.28 2.60 35.86 3.01Q36.44 3.41 36.44 4.09L36.44 4.09Q36.44 4.56 36.13 4.89Q35.82 5.22 35.26 5.34Z"></path></svg>