<svg height="16.296875" width="36.4697265625" xmlns="http://www.w3.org/2000/svg" ><path d="M7.68 8.37L7.68 8.37L7.68 13.00L6.43 13.00L6.43 8.42Q6.43 7.33 6.00 6.79Q5.58 6.25 4.73 6.25L4.73 6.25Q3.71 6.25 3.12 6.90Q2.54 7.55 2.54 8.67L2.54 8.67L2.54 13.00L1.27 13.00L1.27 5.13Q1.27 3.67 1.83 3.01Q2.39 2.36 3.62 2.36L3.62 2.36L5.36 2.36L5.36 3.42L3.78 3.42Q3.06 3.42 2.80 3.76Q2.54 4.09 2.54 5.13L2.54 5.13L2.54 6.53Q2.99 5.84 3.60 5.50Q4.21 5.15 5.01 5.15L5.01 5.15Q6.33 5.15 7.01 5.97Q7.68 6.79 7.68 8.37ZM10.19 13.00L10.19 5.34L11.45 5.34L11.45 13.00L10.19 13.00ZM10.19 3.95L10.19 2.36L11.45 2.36L11.45 3.95L10.19 3.95ZM14.03 13.00L14.03 5.34L18.87 5.34L18.87 6.35L15.31 6.35L15.31 8.41L18.72 8.41L18.72 9.42L15.31 9.42L15.31 11.99L18.96 11.99L18.96 13.00L14.03 13.00ZM20.70 8.43L20.70 7.68L22.09 7.68L22.09 3.50L20.57 3.78L20.57 2.99L22.14 2.72L23.08 2.72L23.08 7.68L24.48 7.68L24.48 8.43L20.70 8.43ZM26.31 8.43L26.31 7.68L27.71 7.68L27.71 3.50L26.18 3.78L26.18 2.99L27.75 2.72L28.69 2.72L28.69 7.68L30.09 7.68L30.09 8.43L26.31 8.43ZM34.44 5.34L34.44 5.34Q35.07 5.46 35.41 5.83Q35.76 6.21 35.76 6.77L35.76 6.77Q35.76 7.62 35.11 8.07Q34.46 8.53 33.25 8.53L33.25 8.53Q32.86 8.53 32.43 8.46Q32.01 8.39 31.53 8.25L31.53 8.25L31.53 7.42Q31.88 7.61 32.29 7.70Q32.70 7.79 33.15 7.79L33.15 7.79Q33.90 7.79 34.31 7.52Q34.72 7.25 34.72 6.77L34.72 6.77Q34.72 6.26 34.34 6.00Q33.96 5.74 33.22 5.74L33.22 5.74L32.63 5.74L32.63 5.00L33.28 5.00Q33.92 5.00 34.25 4.79Q34.58 4.57 34.58 4.16L34.58 4.16Q34.58 3.77 34.24 3.56Q33.90 3.35 33.25 3.35L33.25 3.35Q32.98 3.35 32.63 3.41Q32.28 3.47 31.73 3.63L31.73 3.63L31.73 2.84Q32.22 2.73 32.66 2.67Q33.10 2.60 33.48 2.60L33.48 2.60Q34.46 2.60 35.04 3.01Q35.62 3.41 35.62 4.09L35.62 4.09Q35.62 4.56 35.31 4.89Q35 5.22 34.44 5.34Z"></path></svg>