<svg height="16.296875" width="37.939453125" xmlns="http://www.w3.org/2000/svg" ><path d="M7.68 8.37L7.68 8.37L7.68 13.00L6.43 13.00L6.43 8.42Q6.43 7.33 6.00 6.79Q5.58 6.25 4.73 6.25L4.73 6.25Q3.71 6.25 3.12 6.90Q2.54 7.55 2.54 8.67L2.54 8.67L2.54 13.00L1.27 13.00L1.27 5.13Q1.27 3.67 1.83 3.01Q2.39 2.36 3.62 2.36L3.62 2.36L5.36 2.36L5.36 3.42L3.78 3.42Q3.06 3.42 2.80 3.76Q2.54 4.09 2.54 5.13L2.54 5.13L2.54 6.53Q2.99 5.84 3.60 5.50Q4.21 5.15 5.01 5.15L5.01 5.15Q6.33 5.15 7.01 5.97Q7.68 6.79 7.68 8.37ZM10.19 13.00L10.19 5.34L11.45 5.34L11.45 13.00L10.19 13.00ZM10.19 3.95L10.19 2.36L11.45 2.36L11.45 3.95L10.19 3.95ZM14.90 5.34L16.93 8.07L18.96 5.34L20.45 5.34L17.73 8.99Q18.21 9.66 18.51 10.18L18.51 10.18Q18.98 11.00 18.98 11.42L18.98 11.42Q18.98 12.31 18.47 12.75Q17.96 13.19 16.93 13.19L16.93 13.19Q15.91 13.19 15.39 12.75Q14.88 12.31 14.88 11.42L14.88 11.42Q14.88 11.00 15.35 10.18L15.35 10.18Q15.65 9.66 16.14 8.99L16.14 8.99L13.42 5.34L14.90 5.34ZM16.93 12.13L16.93 12.13Q17.39 12.13 17.60 11.94L17.60 11.94Q17.79 11.78 17.79 11.47L17.79 11.47Q17.79 11.25 17.53 10.81L17.53 10.81Q17.32 10.47 16.93 9.99L16.93 9.99Q16.55 10.47 16.34 10.81L16.34 10.81Q16.07 11.25 16.07 11.47L16.07 11.47Q16.07 11.78 16.26 11.94L16.26 11.94Q16.47 12.13 16.93 12.13ZM22.17 8.43L22.17 7.68L23.56 7.68L23.56 3.50L22.04 3.78L22.04 2.99L23.61 2.72L24.55 2.72L24.55 7.68L25.95 7.68L25.95 8.43L22.17 8.43ZM27.78 8.43L27.78 7.68L29.18 7.68L29.18 3.50L27.65 3.78L27.65 2.99L29.22 2.72L30.16 2.72L30.16 7.68L31.56 7.68L31.56 8.43L27.78 8.43ZM35.91 5.34L35.91 5.34Q36.54 5.46 36.88 5.83Q37.23 6.21 37.23 6.77L37.23 6.77Q37.23 7.62 36.58 8.07Q35.93 8.53 34.72 8.53L34.72 8.53Q34.33 8.53 33.90 8.46Q33.48 8.39 33.00 8.25L33.00 8.25L33.00 7.42Q33.35 7.61 33.76 7.70Q34.17 7.79 34.62 7.79L34.62 7.79Q35.37 7.79 35.78 7.52Q36.19 7.25 36.19 6.77L36.19 6.77Q36.19 6.26 35.81 6.00Q35.43 5.74 34.69 5.74L34.69 5.74L34.10 5.74L34.10 5.00L34.75 5.00Q35.39 5.00 35.72 4.79Q36.05 4.57 36.05 4.16L36.05 4.16Q36.05 3.77 35.71 3.56Q35.37 3.35 34.72 3.35L34.72 3.35Q34.45 3.35 34.10 3.41Q33.75 3.47 33.20 3.63L33.20 3.63L33.20 2.84Q33.69 2.73 34.13 2.67Q34.57 2.60 34.95 2.60L34.95 2.60Q35.93 2.60 36.51 3.01Q37.08 3.41 37.08 4.09L37.08 4.09Q37.08 4.56 36.78 4.89Q36.47 5.22 35.91 5.34Z"></path></svg>