<svg height="16.296875" width="29.599609375" xmlns="http://www.w3.org/2000/svg" ><path d="M7.68 8.37L7.68 8.37L7.68 13.00L6.43 13.00L6.43 8.42Q6.43 7.33 6.00 6.79Q5.58 6.25 4.73 6.25L4.73 6.25Q3.71 6.25 3.12 6.90Q2.54 7.55 2.54 8.67L2.54 8.67L2.54 13.00L1.27 13.00L1.27 5.13Q1.27 3.67 1.83 3.01Q2.39 2.36 3.62 2.36L3.62 2.36L5.36 2.36L5.36 3.42L3.78 3.42Q3.06 3.42 2.80 3.76Q2.54 4.09 2.54 5.13L2.54 5.13L2.54 6.53Q2.99 5.84 3.60 5.50Q4.21 5.15 5.01 5.15L5.01 5.15Q6.33 5.15 7.01 5.97Q7.68 6.79 7.68 8.37ZM10.19 13.00L10.19 5.34L11.45 5.34L11.45 13.00L10.19 13.00ZM10.19 3.95L10.19 2.36L11.45 2.36L11.45 3.95L10.19 3.95ZM13.83 8.43L13.83 7.68L15.22 7.68L15.22 3.50L13.70 3.78L13.70 2.99L15.27 2.72L16.21 2.72L16.21 7.68L17.61 7.68L17.61 8.43L13.83 8.43ZM19.44 8.43L19.44 7.68L20.84 7.68L20.84 3.50L19.31 3.78L19.31 2.99L20.88 2.72L21.82 2.72L21.82 7.68L23.22 7.68L23.22 8.43L19.44 8.43ZM27.57 5.34L27.57 5.34Q28.20 5.46 28.54 5.83Q28.89 6.21 28.89 6.77L28.89 6.77Q28.89 7.62 28.24 8.07Q27.59 8.53 26.38 8.53L26.38 8.53Q25.99 8.53 25.56 8.46Q25.14 8.39 24.66 8.25L24.66 8.25L24.66 7.42Q25.01 7.61 25.42 7.70Q25.83 7.79 26.28 7.79L26.28 7.79Q27.03 7.79 27.44 7.52Q27.85 7.25 27.85 6.77L27.85 6.77Q27.85 6.26 27.47 6.00Q27.09 5.74 26.35 5.74L26.35 5.74L25.76 5.74L25.76 5.00L26.41 5.00Q27.05 5.00 27.38 4.79Q27.71 4.57 27.71 4.16L27.71 4.16Q27.71 3.77 27.37 3.56Q27.03 3.35 26.38 3.35L26.38 3.35Q26.11 3.35 25.76 3.41Q25.41 3.47 24.86 3.63L24.86 3.63L24.86 2.84Q25.35 2.73 25.79 2.67Q26.23 2.60 26.61 2.60L26.61 2.60Q27.59 2.60 28.17 3.01Q28.75 3.41 28.75 4.09L28.75 4.09Q28.75 4.56 28.44 4.89Q28.13 5.22 27.57 5.34Z"></path></svg>