<svg height="16.296875" width="38.47265625" xmlns="http://www.w3.org/2000/svg" ><path d="M7.68 8.37L7.68 8.37L7.68 13.00L6.43 13.00L6.43 8.42Q6.43 7.33 6.00 6.79Q5.58 6.25 4.73 6.25L4.73 6.25Q3.71 6.25 3.12 6.90Q2.54 7.55 2.54 8.67L2.54 8.67L2.54 13.00L1.27 13.00L1.27 5.13Q1.27 3.67 1.83 3.01Q2.39 2.36 3.62 2.36L3.62 2.36L5.36 2.36L5.36 3.42L3.78 3.42Q3.06 3.42 2.80 3.76Q2.54 4.09 2.54 5.13L2.54 5.13L2.54 6.53Q2.99 5.84 3.60 5.50Q4.21 5.15 5.01 5.15L5.01 5.15Q6.33 5.15 7.01 5.97Q7.68 6.79 7.68 8.37ZM10.19 13.00L10.19 5.34L11.45 5.34L11.45 13.00L10.19 13.00ZM10.19 3.95L10.19 2.36L11.45 2.36L11.45 3.95L10.19 3.95ZM20.45 8.37L20.45 8.37L20.45 13.00L19.19 13.00L19.19 8.42Q19.19 7.33 18.76 6.79Q18.34 6.25 17.49 6.25L17.49 6.25Q16.47 6.25 15.89 6.90Q15.30 7.55 15.30 8.67L15.30 8.67L15.30 13.00L14.03 13.00L14.03 5.34L15.30 5.34L15.30 6.53Q15.75 5.84 16.36 5.50Q16.97 5.15 17.77 5.15L17.77 5.15Q19.09 5.15 19.77 5.97Q20.45 6.79 20.45 8.37ZM22.70 8.43L22.70 7.68L24.10 7.68L24.10 3.50L22.57 3.78L22.57 2.99L24.14 2.72L25.08 2.72L25.08 7.68L26.48 7.68L26.48 8.43L22.70 8.43ZM28.31 8.43L28.31 7.68L29.71 7.68L29.71 3.50L28.18 3.78L28.18 2.99L29.76 2.72L30.69 2.72L30.69 7.68L32.09 7.68L32.09 8.43L28.31 8.43ZM36.44 5.34L36.44 5.34Q37.07 5.46 37.42 5.83Q37.76 6.21 37.76 6.77L37.76 6.77Q37.76 7.62 37.11 8.07Q36.46 8.53 35.25 8.53L35.25 8.53Q34.86 8.53 34.44 8.46Q34.01 8.39 33.53 8.25L33.53 8.25L33.53 7.42Q33.89 7.61 34.29 7.70Q34.70 7.79 35.16 7.79L35.16 7.79Q35.90 7.79 36.31 7.52Q36.72 7.25 36.72 6.77L36.72 6.77Q36.72 6.26 36.34 6.00Q35.96 5.74 35.23 5.74L35.23 5.74L34.64 5.74L34.64 5.00L35.28 5.00Q35.92 5.00 36.25 4.79Q36.59 4.57 36.59 4.16L36.59 4.16Q36.59 3.77 36.24 3.56Q35.90 3.35 35.25 3.35L35.25 3.35Q34.98 3.35 34.63 3.41Q34.28 3.47 33.73 3.63L33.73 3.63L33.73 2.84Q34.23 2.73 34.67 2.67Q35.10 2.60 35.48 2.60L35.48 2.60Q36.46 2.60 37.04 3.01Q37.62 3.41 37.62 4.09L37.62 4.09Q37.62 4.56 37.31 4.89Q37.00 5.22 36.44 5.34Z"></path></svg>