<svg height="16.296875" width="36.3330078125" xmlns="http://www.w3.org/2000/svg" ><path d="M7.68 8.37L7.68 8.37L7.68 13.00L6.43 13.00L6.43 8.42Q6.43 7.33 6.00 6.79Q5.58 6.25 4.73 6.25L4.73 6.25Q3.71 6.25 3.12 6.90Q2.54 7.55 2.54 8.67L2.54 8.67L2.54 13.00L1.27 13.00L1.27 5.13Q1.27 3.67 1.83 3.01Q2.39 2.36 3.62 2.36L3.62 2.36L5.36 2.36L5.36 3.42L3.78 3.42Q3.06 3.42 2.80 3.76Q2.54 4.09 2.54 5.13L2.54 5.13L2.54 6.53Q2.99 5.84 3.60 5.50Q4.21 5.15 5.01 5.15L5.01 5.15Q6.33 5.15 7.01 5.97Q7.68 6.79 7.68 8.37ZM10.19 13.00L10.19 5.34L11.45 5.34L11.45 13.00L10.19 13.00ZM10.19 3.95L10.19 2.36L11.45 2.36L11.45 3.95L10.19 3.95ZM14.76 6.46L13.56 6.46L13.56 5.34L17.17 5.34L17.17 6.46L16.02 6.46L16.02 11.87L17.17 11.87L17.17 13.00L13.56 13.00L13.56 11.87L14.76 11.87L14.76 6.46ZM20.30 13.00L20.29 7.54L20.72 7.54Q22.03 7.54 22.62 6.76L22.62 6.76Q23.02 6.24 23.02 5.57L23.02 5.57Q23.01 4.66 22.62 4.22L22.62 4.22Q21.94 3.44 20.72 3.44L20.72 3.44Q20.17 3.44 19.63 3.59L19.63 3.59Q19.10 3.73 18.57 4.03L18.57 4.03L18.57 2.85Q19.09 2.61 19.64 2.50L19.64 2.50Q20.19 2.37 20.77 2.37L20.77 2.37Q22.65 2.37 23.60 3.45L23.60 3.45Q24.34 4.30 24.34 5.57L24.34 5.57Q24.34 6.73 23.60 7.52L23.60 7.52Q22.84 8.33 21.68 8.54L21.68 8.54L21.68 13.00L20.30 13.00ZM26.17 8.43L26.17 7.68L27.57 7.68L27.57 3.50L26.04 3.78L26.04 2.99L27.62 2.72L28.55 2.72L28.55 7.68L29.96 7.68L29.96 8.43L26.17 8.43ZM32.55 7.65L32.55 7.65L35.45 7.65L35.45 8.43L31.36 8.43L31.36 7.68Q31.60 7.46 32.03 7.08L32.03 7.08Q34.38 5.00 34.38 4.35L34.38 4.35Q34.38 3.90 34.02 3.63Q33.67 3.35 33.09 3.35L33.09 3.35Q32.73 3.35 32.31 3.47Q31.90 3.59 31.40 3.83L31.40 3.83L31.40 2.99Q31.93 2.80 32.39 2.70Q32.84 2.60 33.23 2.60L33.23 2.60Q34.22 2.60 34.82 3.06Q35.41 3.51 35.41 4.25L35.41 4.25Q35.41 5.20 33.15 7.14L33.15 7.14Q32.76 7.46 32.55 7.65Z"></path></svg>