<svg height="16.296875" width="42.560546875" xmlns="http://www.w3.org/2000/svg" ><path d="M7.68 8.37L7.68 8.37L7.68 13.00L6.43 13.00L6.43 8.42Q6.43 7.33 6.00 6.79Q5.58 6.25 4.73 6.25L4.73 6.25Q3.71 6.25 3.12 6.90Q2.54 7.55 2.54 8.67L2.54 8.67L2.54 13.00L1.27 13.00L1.27 5.13Q1.27 3.67 1.83 3.01Q2.39 2.36 3.62 2.36L3.62 2.36L5.36 2.36L5.36 3.42L3.78 3.42Q3.06 3.42 2.80 3.76Q2.54 4.09 2.54 5.13L2.54 5.13L2.54 6.53Q2.99 5.84 3.60 5.50Q4.21 5.15 5.01 5.15L5.01 5.15Q6.33 5.15 7.01 5.97Q7.68 6.79 7.68 8.37ZM16.74 5.34L13.38 13.71Q12.84 15.07 12.34 15.49Q11.83 15.91 10.99 15.91L10.99 15.91L9.98 15.91L9.98 14.85L10.72 14.85Q11.24 14.85 11.53 14.61Q11.81 14.36 12.16 13.45L12.16 13.45L12.39 12.87L9.29 5.34L10.62 5.34L13.02 11.33L15.41 5.34L16.74 5.34ZM23.34 7.52L23.34 7.52L20.02 11.57Q20.30 11.85 20.65 11.99Q21 12.13 21.44 12.13L21.44 12.13Q22.45 12.13 23.04 11.33Q23.63 10.54 23.63 9.17L23.63 9.17Q23.63 8.63 23.56 8.23Q23.49 7.83 23.34 7.52ZM19.52 10.83L22.86 6.78Q22.57 6.50 22.22 6.36Q21.87 6.22 21.44 6.22L21.44 6.22Q20.41 6.22 19.83 7.02Q19.26 7.83 19.26 9.27L19.26 9.27Q19.26 9.76 19.32 10.14Q19.39 10.51 19.52 10.83L19.52 10.83ZM17.65 13.10L18.67 11.86Q18.30 11.33 18.12 10.66Q17.93 9.99 17.93 9.17L17.93 9.17Q17.93 7.29 18.86 6.22Q19.80 5.15 21.44 5.15L21.44 5.15Q22.08 5.15 22.62 5.33Q23.17 5.50 23.63 5.86L23.63 5.86L24.58 4.71L25.22 5.25L24.23 6.47Q24.59 7 24.77 7.68Q24.96 8.35 24.96 9.17L24.96 9.17Q24.96 11.05 24.02 12.12Q23.08 13.19 21.44 13.19L21.44 13.19Q20.79 13.19 20.24 13.02Q19.69 12.84 19.26 12.49L19.26 12.49L18.31 13.64L17.65 13.10ZM26.79 8.43L26.79 7.68L28.18 7.68L28.18 3.50L26.66 3.78L26.66 2.99L28.23 2.72L29.17 2.72L29.17 7.68L30.57 7.68L30.57 8.43L26.79 8.43ZM32.40 8.43L32.40 7.68L33.80 7.68L33.80 3.50L32.27 3.78L32.27 2.99L33.84 2.72L34.78 2.72L34.78 7.68L36.18 7.68L36.18 8.43L32.40 8.43ZM40.53 5.34L40.53 5.34Q41.16 5.46 41.50 5.83Q41.85 6.21 41.85 6.77L41.85 6.77Q41.85 7.62 41.20 8.07Q40.55 8.53 39.34 8.53L39.34 8.53Q38.95 8.53 38.52 8.46Q38.10 8.39 37.62 8.25L37.62 8.25L37.62 7.42Q37.97 7.61 38.38 7.70Q38.79 7.79 39.25 7.79L39.25 7.79Q39.99 7.79 40.40 7.52Q40.81 7.25 40.81 6.77L40.81 6.77Q40.81 6.26 40.43 6.00Q40.05 5.74 39.31 5.74L39.31 5.74L38.73 5.74L38.73 5.00L39.37 5.00Q40.01 5.00 40.34 4.79Q40.67 4.57 40.67 4.16L40.67 4.16Q40.67 3.77 40.33 3.56Q39.99 3.35 39.34 3.35L39.34 3.35Q39.07 3.35 38.72 3.41Q38.37 3.47 37.82 3.63L37.82 3.63L37.82 2.84Q38.32 2.73 38.75 2.67Q39.19 2.60 39.57 2.60L39.57 2.60Q40.55 2.60 41.13 3.01Q41.71 3.41 41.71 4.09L41.71 4.09Q41.71 4.56 41.40 4.89Q41.09 5.22 40.53 5.34Z"></path></svg>