<svg height="16.296875" width="47.0380859375" xmlns="http://www.w3.org/2000/svg" ><path d="M7.68 8.37L7.68 8.37L7.68 13.00L6.43 13.00L6.43 8.42Q6.43 7.33 6.00 6.79Q5.58 6.25 4.73 6.25L4.73 6.25Q3.71 6.25 3.12 6.90Q2.54 7.55 2.54 8.67L2.54 8.67L2.54 13.00L1.27 13.00L1.27 5.13Q1.27 3.67 1.83 3.01Q2.39 2.36 3.62 2.36L3.62 2.36L5.36 2.36L5.36 3.42L3.78 3.42Q3.06 3.42 2.80 3.76Q2.54 4.09 2.54 5.13L2.54 5.13L2.54 6.53Q2.99 5.84 3.60 5.50Q4.21 5.15 5.01 5.15L5.01 5.15Q6.33 5.15 7.01 5.97Q7.68 6.79 7.68 8.37ZM10.19 13.00L10.19 5.34L11.45 5.34L11.45 13.00L10.19 13.00ZM10.19 3.95L10.19 2.36L11.45 2.36L11.45 3.95L10.19 3.95ZM17.05 6.22L17.05 6.22Q16.04 6.22 15.45 7.01Q14.86 7.80 14.86 9.17L14.86 9.17Q14.86 10.55 15.45 11.34Q16.03 12.13 17.05 12.13L17.05 12.13Q18.05 12.13 18.64 11.33Q19.23 10.54 19.23 9.17L19.23 9.17Q19.23 7.81 18.64 7.02Q18.05 6.22 17.05 6.22ZM17.05 5.15L17.05 5.15Q18.69 5.15 19.63 6.22Q20.56 7.29 20.56 9.17L20.56 9.17Q20.56 11.05 19.63 12.12Q18.69 13.19 17.05 13.19L17.05 13.19Q15.40 13.19 14.47 12.12Q13.54 11.05 13.54 9.17L13.54 9.17Q13.54 7.29 14.47 6.22Q15.40 5.15 17.05 5.15ZM29.01 8.37L29.01 8.37L29.01 13.13Q29.01 14.59 28.45 15.25L28.45 15.25Q27.90 15.91 26.66 15.91L26.66 15.91L24.92 15.91L24.92 14.84L26.52 14.84Q27.23 14.84 27.49 14.51L27.49 14.51Q27.75 14.18 27.75 13.13L27.75 13.13L27.75 8.42Q27.75 7.33 27.33 6.79Q26.91 6.25 26.06 6.25L26.06 6.25Q25.04 6.25 24.45 6.90Q23.86 7.55 23.86 8.67L23.86 8.67L23.86 13.00L22.60 13.00L22.60 5.34L23.86 5.34L23.86 6.53Q24.32 5.84 24.92 5.50L24.92 5.50Q25.54 5.15 26.34 5.15L26.34 5.15Q27.66 5.15 28.33 5.97L28.33 5.97Q29.01 6.79 29.01 8.37ZM31.27 8.43L31.27 7.68L32.66 7.68L32.66 3.50L31.14 3.78L31.14 2.99L32.71 2.72L33.65 2.72L33.65 7.68L35.05 7.68L35.05 8.43L31.27 8.43ZM36.88 8.43L36.88 7.68L38.27 7.68L38.27 3.50L36.75 3.78L36.75 2.99L38.32 2.72L39.26 2.72L39.26 7.68L40.66 7.68L40.66 8.43L36.88 8.43ZM45.01 5.34L45.01 5.34Q45.64 5.46 45.98 5.83Q46.33 6.21 46.33 6.77L46.33 6.77Q46.33 7.62 45.68 8.07Q45.03 8.53 43.82 8.53L43.82 8.53Q43.43 8.53 43.00 8.46Q42.57 8.39 42.10 8.25L42.10 8.25L42.10 7.42Q42.45 7.61 42.86 7.70Q43.26 7.79 43.72 7.79L43.72 7.79Q44.47 7.79 44.88 7.52Q45.29 7.25 45.29 6.77L45.29 6.77Q45.29 6.26 44.91 6.00Q44.53 5.74 43.79 5.74L43.79 5.74L43.20 5.74L43.20 5.00L43.85 5.00Q44.49 5.00 44.82 4.79Q45.15 4.57 45.15 4.16L45.15 4.16Q45.15 3.77 44.81 3.56Q44.47 3.35 43.82 3.35L43.82 3.35Q43.54 3.35 43.20 3.41Q42.85 3.47 42.29 3.63L42.29 3.63L42.29 2.84Q42.79 2.73 43.23 2.67Q43.67 2.60 44.04 2.60L44.04 2.60Q45.03 2.60 45.61 3.01Q46.18 3.41 46.18 4.09L46.18 4.09Q46.18 4.56 45.88 4.89Q45.57 5.22 45.01 5.34Z"></path></svg>