<svg height="16.296875" width="39.6962890625" xmlns="http://www.w3.org/2000/svg" ><path d="M7.68 8.37L7.68 8.37L7.68 13.00L6.43 13.00L6.43 8.42Q6.43 7.33 6.00 6.79Q5.58 6.25 4.73 6.25L4.73 6.25Q3.71 6.25 3.12 6.90Q2.54 7.55 2.54 8.67L2.54 8.67L2.54 13.00L1.27 13.00L1.27 5.13Q1.27 3.67 1.83 3.01Q2.39 2.36 3.62 2.36L3.62 2.36L5.36 2.36L5.36 3.42L3.78 3.42Q3.06 3.42 2.80 3.76Q2.54 4.09 2.54 5.13L2.54 5.13L2.54 6.53Q2.99 5.84 3.60 5.50Q4.21 5.15 5.01 5.15L5.01 5.15Q6.33 5.15 7.01 5.97Q7.68 6.79 7.68 8.37ZM10.19 13.00L10.19 5.34L11.45 5.34L11.45 13.00L10.19 13.00ZM10.19 3.95L10.19 2.36L11.45 2.36L11.45 3.95L10.19 3.95ZM17.05 6.22L17.05 6.22Q16.04 6.22 15.45 7.01Q14.86 7.80 14.86 9.17L14.86 9.17Q14.86 10.55 15.45 11.34Q16.03 12.13 17.05 12.13L17.05 12.13Q18.05 12.13 18.64 11.33Q19.23 10.54 19.23 9.17L19.23 9.17Q19.23 7.81 18.64 7.02Q18.05 6.22 17.05 6.22ZM17.05 5.15L17.05 5.15Q18.69 5.15 19.63 6.22Q20.56 7.29 20.56 9.17L20.56 9.17Q20.56 11.05 19.63 12.12Q18.69 13.19 17.05 13.19L17.05 13.19Q15.40 13.19 14.47 12.12Q13.54 11.05 13.54 9.17L13.54 9.17Q13.54 7.29 14.47 6.22Q15.40 5.15 17.05 5.15ZM23.66 13.00L23.65 7.54L24.08 7.54Q25.40 7.54 25.98 6.76L25.98 6.76Q26.38 6.24 26.38 5.57L26.38 5.57Q26.37 4.66 25.98 4.22L25.98 4.22Q25.31 3.44 24.08 3.44L24.08 3.44Q23.54 3.44 23.00 3.59L23.00 3.59Q22.46 3.73 21.93 4.03L21.93 4.03L21.93 2.85Q22.45 2.61 23.00 2.50L23.00 2.50Q23.56 2.37 24.14 2.37L24.14 2.37Q26.02 2.37 26.96 3.45L26.96 3.45Q27.71 4.30 27.71 5.57L27.71 5.57Q27.71 6.73 26.97 7.52L26.97 7.52Q26.20 8.33 25.04 8.54L25.04 8.54L25.04 13.00L23.66 13.00ZM29.54 8.43L29.54 7.68L30.93 7.68L30.93 3.50L29.41 3.78L29.41 2.99L30.98 2.72L31.92 2.72L31.92 7.68L33.32 7.68L33.32 8.43L29.54 8.43ZM35.92 7.65L35.92 7.65L38.81 7.65L38.81 8.43L34.73 8.43L34.73 7.68Q34.96 7.46 35.39 7.08L35.39 7.08Q37.74 5.00 37.74 4.35L37.74 4.35Q37.74 3.90 37.39 3.63Q37.03 3.35 36.45 3.35L36.45 3.35Q36.09 3.35 35.68 3.47Q35.26 3.59 34.77 3.83L34.77 3.83L34.77 2.99Q35.29 2.80 35.75 2.70Q36.20 2.60 36.59 2.60L36.59 2.60Q37.58 2.60 38.18 3.06Q38.77 3.51 38.77 4.25L38.77 4.25Q38.77 5.20 36.51 7.14L36.51 7.14Q36.13 7.46 35.92 7.65Z"></path></svg>