<svg height="16.296875" width="42.8681640625" xmlns="http://www.w3.org/2000/svg" ><path d="M7.68 8.37L7.68 8.37L7.68 13.00L6.43 13.00L6.43 8.42Q6.43 7.33 6.00 6.79Q5.58 6.25 4.73 6.25L4.73 6.25Q3.71 6.25 3.12 6.90Q2.54 7.55 2.54 8.67L2.54 8.67L2.54 13.00L1.27 13.00L1.27 5.13Q1.27 3.67 1.83 3.01Q2.39 2.36 3.62 2.36L3.62 2.36L5.36 2.36L5.36 3.42L3.78 3.42Q3.06 3.42 2.80 3.76Q2.54 4.09 2.54 5.13L2.54 5.13L2.54 6.53Q2.99 5.84 3.60 5.50Q4.21 5.15 5.01 5.15L5.01 5.15Q6.33 5.15 7.01 5.97Q7.68 6.79 7.68 8.37ZM16.74 5.34L13.38 13.71Q12.84 15.07 12.34 15.49Q11.83 15.91 10.99 15.91L10.99 15.91L9.98 15.91L9.98 14.85L10.72 14.85Q11.24 14.85 11.53 14.61Q11.81 14.36 12.16 13.45L12.16 13.45L12.39 12.87L9.29 5.34L10.62 5.34L13.02 11.33L15.41 5.34L16.74 5.34ZM24.84 8.37L24.84 8.37L24.84 13.00L23.58 13.00L23.58 8.42Q23.58 7.33 23.16 6.79Q22.74 6.25 21.89 6.25L21.89 6.25Q20.87 6.25 20.28 6.90Q19.69 7.55 19.69 8.67L19.69 8.67L19.69 13.00L18.43 13.00L18.43 5.34L19.69 5.34L19.69 6.53Q20.15 5.84 20.76 5.50Q21.37 5.15 22.17 5.15L22.17 5.15Q23.49 5.15 24.17 5.97Q24.84 6.79 24.84 8.37ZM27.10 8.43L27.10 7.68L28.49 7.68L28.49 3.50L26.97 3.78L26.97 2.99L28.54 2.72L29.48 2.72L29.48 7.68L30.88 7.68L30.88 8.43L27.10 8.43ZM32.71 8.43L32.71 7.68L34.10 7.68L34.10 3.50L32.58 3.78L32.58 2.99L34.15 2.72L35.09 2.72L35.09 7.68L36.49 7.68L36.49 8.43L32.71 8.43ZM40.84 5.34L40.84 5.34Q41.47 5.46 41.81 5.83Q42.16 6.21 42.16 6.77L42.16 6.77Q42.16 7.62 41.51 8.07Q40.86 8.53 39.65 8.53L39.65 8.53Q39.26 8.53 38.83 8.46Q38.40 8.39 37.93 8.25L37.93 8.25L37.93 7.42Q38.28 7.61 38.69 7.70Q39.09 7.79 39.55 7.79L39.55 7.79Q40.30 7.79 40.71 7.52Q41.12 7.25 41.12 6.77L41.12 6.77Q41.12 6.26 40.74 6.00Q40.36 5.74 39.62 5.74L39.62 5.74L39.03 5.74L39.03 5.00L39.68 5.00Q40.32 5.00 40.65 4.79Q40.98 4.57 40.98 4.16L40.98 4.16Q40.98 3.77 40.64 3.56Q40.30 3.35 39.65 3.35L39.65 3.35Q39.38 3.35 39.03 3.41Q38.68 3.47 38.12 3.63L38.12 3.63L38.12 2.84Q38.62 2.73 39.06 2.67Q39.50 2.60 39.87 2.60L39.87 2.60Q40.86 2.60 41.44 3.01Q42.01 3.41 42.01 4.09L42.01 4.09Q42.01 4.56 41.71 4.89Q41.40 5.22 40.84 5.34Z"></path></svg>