<svg height="16.296875" width="40.728515625" xmlns="http://www.w3.org/2000/svg" ><path d="M7.68 8.37L7.68 8.37L7.68 13.00L6.43 13.00L6.43 8.42Q6.43 7.33 6.00 6.79Q5.58 6.25 4.73 6.25L4.73 6.25Q3.71 6.25 3.12 6.90Q2.54 7.55 2.54 8.67L2.54 8.67L2.54 13.00L1.27 13.00L1.27 5.13Q1.27 3.67 1.83 3.01Q2.39 2.36 3.62 2.36L3.62 2.36L5.36 2.36L5.36 3.42L3.78 3.42Q3.06 3.42 2.80 3.76Q2.54 4.09 2.54 5.13L2.54 5.13L2.54 6.53Q2.99 5.84 3.60 5.50Q4.21 5.15 5.01 5.15L5.01 5.15Q6.33 5.15 7.01 5.97Q7.68 6.79 7.68 8.37ZM16.74 5.34L13.38 13.71Q12.84 15.07 12.34 15.49Q11.83 15.91 10.99 15.91L10.99 15.91L9.98 15.91L9.98 14.85L10.72 14.85Q11.24 14.85 11.53 14.61Q11.81 14.36 12.16 13.45L12.16 13.45L12.39 12.87L9.29 5.34L10.62 5.34L13.02 11.33L15.41 5.34L16.74 5.34ZM19.15 6.46L17.95 6.46L17.95 5.34L21.56 5.34L21.56 6.46L20.41 6.46L20.41 11.87L21.56 11.87L21.56 13.00L17.95 13.00L17.95 11.87L19.15 11.87L19.15 6.46ZM24.69 13.00L24.68 7.54L25.12 7.54Q26.43 7.54 27.02 6.76L27.02 6.76Q27.41 6.24 27.41 5.57L27.41 5.57Q27.41 4.66 27.02 4.22L27.02 4.22Q26.34 3.44 25.12 3.44L25.12 3.44Q24.57 3.44 24.03 3.59L24.03 3.59Q23.50 3.73 22.96 4.03L22.96 4.03L22.96 2.85Q23.48 2.61 24.04 2.50L24.04 2.50Q24.59 2.37 25.17 2.37L25.17 2.37Q27.05 2.37 27.99 3.45L27.99 3.45Q28.74 4.30 28.74 5.57L28.74 5.57Q28.74 6.73 28 7.52L28 7.52Q27.23 8.33 26.07 8.54L26.07 8.54L26.07 13.00L24.69 13.00ZM30.57 8.43L30.57 7.68L31.96 7.68L31.96 3.50L30.44 3.78L30.44 2.99L32.01 2.72L32.95 2.72L32.95 7.68L34.35 7.68L34.35 8.43L30.57 8.43ZM36.95 7.65L36.95 7.65L39.85 7.65L39.85 8.43L35.76 8.43L35.76 7.68Q35.99 7.46 36.42 7.08L36.42 7.08Q38.77 5.00 38.77 4.35L38.77 4.35Q38.77 3.90 38.42 3.63Q38.06 3.35 37.48 3.35L37.48 3.35Q37.13 3.35 36.71 3.47Q36.29 3.59 35.80 3.83L35.80 3.83L35.80 2.99Q36.33 2.80 36.78 2.70Q37.24 2.60 37.63 2.60L37.63 2.60Q38.62 2.60 39.21 3.06Q39.81 3.51 39.81 4.25L39.81 4.25Q39.81 5.20 37.54 7.14L37.54 7.14Q37.16 7.46 36.95 7.65Z"></path></svg>