<svg height="16.296875" width="32.470703125" xmlns="http://www.w3.org/2000/svg" ><path d="M0.77 6.34L0.77 5.34L6.75 5.34L6.75 6.49L2.02 11.99L6.75 11.99L6.75 13.00L0.60 13.00L0.60 11.85L5.33 6.34L0.77 6.34ZM12.35 5.34L15.22 13.00L13.88 13.00L13.19 11.12L9.80 11.12L9.10 13.00L7.77 13.00L10.64 5.34L12.35 5.34ZM11.49 6.57L10.18 10.10L12.80 10.10L11.49 6.57ZM16.70 8.43L16.70 7.68L18.09 7.68L18.09 3.50L16.57 3.78L16.57 2.99L18.14 2.72L19.08 2.72L19.08 7.68L20.48 7.68L20.48 8.43L16.70 8.43ZM22.31 8.43L22.31 7.68L23.71 7.68L23.71 3.50L22.18 3.78L22.18 2.99L23.75 2.72L24.69 2.72L24.69 7.68L26.09 7.68L26.09 8.43L22.31 8.43ZM30.44 5.34L30.44 5.34Q31.07 5.46 31.41 5.83Q31.76 6.21 31.76 6.77L31.76 6.77Q31.76 7.62 31.11 8.07Q30.46 8.53 29.25 8.53L29.25 8.53Q28.86 8.53 28.43 8.46Q28.01 8.39 27.53 8.25L27.53 8.25L27.53 7.42Q27.88 7.61 28.29 7.70Q28.70 7.79 29.16 7.79L29.16 7.79Q29.90 7.79 30.31 7.52Q30.72 7.25 30.72 6.77L30.72 6.77Q30.72 6.26 30.34 6.00Q29.96 5.74 29.22 5.74L29.22 5.74L28.64 5.74L28.64 5.00L29.28 5.00Q29.92 5.00 30.25 4.79Q30.58 4.57 30.58 4.16L30.58 4.16Q30.58 3.77 30.24 3.56Q29.90 3.35 29.25 3.35L29.25 3.35Q28.98 3.35 28.63 3.41Q28.28 3.47 27.73 3.63L27.73 3.63L27.73 2.84Q28.23 2.73 28.66 2.67Q29.10 2.60 29.48 2.60L29.48 2.60Q30.46 2.60 31.04 3.01Q31.62 3.41 31.62 4.09L31.62 4.09Q31.62 4.56 31.31 4.89Q31.00 5.22 30.44 5.34Z"></path></svg>