<svg height="16.296875" width="32.7646484375" xmlns="http://www.w3.org/2000/svg" ><path d="M0.77 6.34L0.77 5.34L6.75 5.34L6.75 6.49L2.02 11.99L6.75 11.99L6.75 13.00L0.60 13.00L0.60 11.85L5.33 6.34L0.77 6.34ZM13.40 9.15L12.15 9.15Q10.62 9.15 10.04 9.50Q9.45 9.84 9.45 10.68L9.45 10.68Q9.45 11.35 9.89 11.75Q10.33 12.14 11.09 12.14L11.09 12.14Q12.13 12.14 12.77 11.40Q13.40 10.66 13.40 9.43L13.40 9.43L13.40 9.15ZM14.66 8.63L14.66 8.63L14.66 13.00L13.40 13.00L13.40 11.83Q12.97 12.53 12.33 12.86Q11.68 13.19 10.75 13.19L10.75 13.19Q9.58 13.19 8.88 12.53Q8.19 11.87 8.19 10.77L8.19 10.77Q8.19 9.47 9.05 8.82Q9.92 8.16 11.63 8.16L11.63 8.16L13.40 8.16L13.40 8.04Q13.40 7.17 12.83 6.70Q12.26 6.22 11.22 6.22L11.22 6.22Q10.57 6.22 9.95 6.38Q9.32 6.54 8.75 6.85L8.75 6.85L8.75 5.69Q9.44 5.42 10.09 5.29Q10.74 5.15 11.35 5.15L11.35 5.15Q13.02 5.15 13.84 6.02Q14.66 6.88 14.66 8.63ZM12.39 3.63L12.39 3.63L12.00 3.25Q11.85 3.12 11.73 3.05Q11.62 2.99 11.53 2.99L11.53 2.99Q11.27 2.99 11.15 3.24Q11.03 3.49 11.01 4.05L11.01 4.05L10.16 4.05Q10.17 3.12 10.52 2.62Q10.87 2.12 11.49 2.12L11.49 2.12Q11.75 2.12 11.97 2.21Q12.19 2.31 12.44 2.54L12.44 2.54L12.83 2.91Q12.98 3.05 13.09 3.11Q13.21 3.18 13.30 3.18L13.30 3.18Q13.56 3.18 13.68 2.93Q13.80 2.68 13.82 2.12L13.82 2.12L14.67 2.12Q14.66 3.04 14.31 3.54Q13.96 4.05 13.34 4.05L13.34 4.05Q13.08 4.05 12.86 3.95Q12.64 3.86 12.39 3.63ZM16.99 8.43L16.99 7.68L18.39 7.68L18.39 3.50L16.86 3.78L16.86 2.99L18.44 2.72L19.37 2.72L19.37 7.68L20.77 7.68L20.77 8.43L16.99 8.43ZM22.61 8.43L22.61 7.68L24.00 7.68L24.00 3.50L22.48 3.78L22.48 2.99L24.05 2.72L24.99 2.72L24.99 7.68L26.39 7.68L26.39 8.43L22.61 8.43ZM30.73 5.34L30.73 5.34Q31.36 5.46 31.71 5.83Q32.05 6.21 32.05 6.77L32.05 6.77Q32.05 7.62 31.40 8.07Q30.75 8.53 29.54 8.53L29.54 8.53Q29.16 8.53 28.73 8.46Q28.30 8.39 27.82 8.25L27.82 8.25L27.82 7.42Q28.18 7.61 28.58 7.70Q28.99 7.79 29.45 7.79L29.45 7.79Q30.19 7.79 30.60 7.52Q31.01 7.25 31.01 6.77L31.01 6.77Q31.01 6.26 30.64 6.00Q30.26 5.74 29.52 5.74L29.52 5.74L28.93 5.74L28.93 5.00L29.57 5.00Q30.21 5.00 30.55 4.79Q30.88 4.57 30.88 4.16L30.88 4.16Q30.88 3.77 30.54 3.56Q30.19 3.35 29.54 3.35L29.54 3.35Q29.27 3.35 28.92 3.41Q28.57 3.47 28.02 3.63L28.02 3.63L28.02 2.84Q28.52 2.73 28.96 2.67Q29.39 2.60 29.77 2.60L29.77 2.60Q30.75 2.60 31.33 3.01Q31.91 3.41 31.91 4.09L31.91 4.09Q31.91 4.56 31.60 4.89Q31.29 5.22 30.73 5.34Z"></path></svg>