<svg height="16.296875" width="33.072265625" xmlns="http://www.w3.org/2000/svg" ><path d="M0.77 6.34L0.77 5.34L6.75 5.34L6.75 6.49L2.02 11.99L6.75 11.99L6.75 13.00L0.60 13.00L0.60 11.85L5.33 6.34L0.77 6.34ZM13.71 6.50L13.71 6.50L13.71 5.34L14.96 5.34L14.96 13.00L13.71 13.00L13.71 11.85Q13.31 12.53 12.70 12.86Q12.10 13.19 11.25 13.19L11.25 13.19Q9.86 13.19 8.99 12.09Q8.12 10.98 8.12 9.17L8.12 9.17Q8.12 7.37 8.99 6.26Q9.86 5.15 11.25 5.15L11.25 5.15Q12.10 5.15 12.70 5.49Q13.31 5.82 13.71 6.50ZM9.42 9.17L9.42 9.17Q9.42 10.56 9.99 11.35Q10.56 12.14 11.56 12.14L11.56 12.14Q12.56 12.14 13.13 11.35Q13.71 10.56 13.71 9.17L13.71 9.17Q13.71 7.79 13.13 7.00Q12.56 6.21 11.56 6.21L11.56 6.21Q10.56 6.21 9.99 7.00Q9.42 7.79 9.42 9.17ZM12.69 3.63L12.69 3.63L12.30 3.25Q12.15 3.12 12.04 3.05Q11.93 2.99 11.84 2.99L11.84 2.99Q11.58 2.99 11.46 3.24Q11.33 3.49 11.32 4.05L11.32 4.05L10.47 4.05Q10.48 3.12 10.83 2.62Q11.18 2.12 11.80 2.12L11.80 2.12Q12.06 2.12 12.28 2.21Q12.50 2.31 12.75 2.54L12.75 2.54L13.14 2.91Q13.29 3.05 13.40 3.11Q13.51 3.18 13.60 3.18L13.60 3.18Q13.86 3.18 13.99 2.93Q14.11 2.68 14.12 2.12L14.12 2.12L14.98 2.12Q14.96 3.04 14.62 3.54Q14.27 4.05 13.64 4.05L13.64 4.05Q13.38 4.05 13.17 3.95Q12.95 3.86 12.69 3.63ZM17.30 8.43L17.30 7.68L18.70 7.68L18.70 3.50L17.17 3.78L17.17 2.99L18.74 2.72L19.68 2.72L19.68 7.68L21.08 7.68L21.08 8.43L17.30 8.43ZM22.91 8.43L22.91 7.68L24.31 7.68L24.31 3.50L22.78 3.78L22.78 2.99L24.36 2.72L25.29 2.72L25.29 7.68L26.69 7.68L26.69 8.43L22.91 8.43ZM31.04 5.34L31.04 5.34Q31.67 5.46 32.02 5.83Q32.36 6.21 32.36 6.77L32.36 6.77Q32.36 7.62 31.71 8.07Q31.06 8.53 29.85 8.53L29.85 8.53Q29.46 8.53 29.04 8.46Q28.61 8.39 28.13 8.25L28.13 8.25L28.13 7.42Q28.49 7.61 28.89 7.70Q29.30 7.79 29.76 7.79L29.76 7.79Q30.50 7.79 30.91 7.52Q31.32 7.25 31.32 6.77L31.32 6.77Q31.32 6.26 30.94 6.00Q30.56 5.74 29.83 5.74L29.83 5.74L29.24 5.74L29.24 5.00L29.88 5.00Q30.52 5.00 30.85 4.79Q31.19 4.57 31.19 4.16L31.19 4.16Q31.19 3.77 30.84 3.56Q30.50 3.35 29.85 3.35L29.85 3.35Q29.58 3.35 29.23 3.41Q28.88 3.47 28.33 3.63L28.33 3.63L28.33 2.84Q28.83 2.73 29.26 2.67Q29.70 2.60 30.08 2.60L30.08 2.60Q31.06 2.60 31.64 3.01Q32.22 3.41 32.22 4.09L32.22 4.09Q32.22 4.56 31.91 4.89Q31.60 5.22 31.04 5.34Z"></path></svg>