<svg height="16.296875" width="34.001953125" xmlns="http://www.w3.org/2000/svg" ><path d="M0.77 6.34L0.77 5.34L6.75 5.34L6.75 6.49L2.02 11.99L6.75 11.99L6.75 13.00L0.60 13.00L0.60 11.85L5.33 6.34L0.77 6.34ZM12.35 5.34L15.22 13.00L13.88 13.00L13.19 11.12L9.80 11.12L9.10 13.00L7.77 13.00L10.64 5.34L12.35 5.34ZM11.49 6.57L10.18 10.10L12.80 10.10L11.49 6.57ZM17.96 13.00L17.96 7.54L18.39 7.54Q19.70 7.54 20.29 6.76L20.29 6.76Q20.69 6.24 20.69 5.57L20.69 5.57Q20.68 4.66 20.29 4.22L20.29 4.22Q19.61 3.44 18.39 3.44L18.39 3.44Q17.84 3.44 17.30 3.59L17.30 3.59Q16.77 3.73 16.24 4.03L16.24 4.03L16.24 2.85Q16.75 2.61 17.31 2.50L17.31 2.50Q17.86 2.37 18.44 2.37L18.44 2.37Q20.32 2.37 21.27 3.45L21.27 3.45Q22.01 4.30 22.01 5.57L22.01 5.57Q22.01 6.73 21.27 7.52L21.27 7.52Q20.51 8.33 19.35 8.54L19.35 8.54L19.35 13.00L17.96 13.00ZM23.84 8.43L23.84 7.68L25.24 7.68L25.24 3.50L23.71 3.78L23.71 2.99L25.29 2.72L26.22 2.72L26.22 7.68L27.62 7.68L27.62 8.43L23.84 8.43ZM30.22 7.65L30.22 7.65L33.12 7.65L33.12 8.43L29.03 8.43L29.03 7.68Q29.26 7.46 29.70 7.08L29.70 7.08Q32.05 5.00 32.05 4.35L32.05 4.35Q32.05 3.90 31.69 3.63Q31.34 3.35 30.75 3.35L30.75 3.35Q30.40 3.35 29.98 3.47Q29.57 3.59 29.07 3.83L29.07 3.83L29.07 2.99Q29.60 2.80 30.05 2.70Q30.51 2.60 30.90 2.60L30.90 2.60Q31.89 2.60 32.48 3.06Q33.08 3.51 33.08 4.25L33.08 4.25Q33.08 5.20 30.82 7.14L30.82 7.14Q30.43 7.46 30.22 7.65Z"></path></svg>