<svg height="16.296875" width="31.8759765625" xmlns="http://www.w3.org/2000/svg" ><path d="M0.77 6.34L0.77 5.34L6.75 5.34L6.75 6.49L2.02 11.99L6.75 11.99L6.75 13.00L0.60 13.00L0.60 11.85L5.33 6.34L0.77 6.34ZM8.22 6.81L8.22 5.65Q8.74 5.40 9.31 5.28Q9.87 5.15 10.51 5.15L10.51 5.15Q12.24 5.15 13.25 6.24Q14.27 7.33 14.27 9.17L14.27 9.17Q14.27 11.05 13.24 12.12Q12.22 13.19 10.42 13.19L10.42 13.19Q9.84 13.19 9.29 13.07Q8.74 12.95 8.22 12.71L8.22 12.71L8.22 11.54Q8.75 11.83 9.29 11.98Q9.82 12.13 10.37 12.13L10.37 12.13Q11.59 12.13 12.27 11.35Q12.95 10.58 12.95 9.17L12.95 9.17Q12.95 7.77 12.27 7.00Q11.59 6.22 10.37 6.22L10.37 6.22Q9.82 6.22 9.29 6.37Q8.75 6.51 8.22 6.81L8.22 6.81ZM16.11 8.43L16.11 7.68L17.50 7.68L17.50 3.50L15.98 3.78L15.98 2.99L17.55 2.72L18.48 2.72L18.48 7.68L19.89 7.68L19.89 8.43L16.11 8.43ZM21.72 8.43L21.72 7.68L23.11 7.68L23.11 3.50L21.59 3.78L21.59 2.99L23.16 2.72L24.10 2.72L24.10 7.68L25.50 7.68L25.50 8.43L21.72 8.43ZM29.85 5.34L29.85 5.34Q30.47 5.46 30.82 5.83Q31.17 6.21 31.17 6.77L31.17 6.77Q31.17 7.62 30.52 8.07Q29.87 8.53 28.66 8.53L28.66 8.53Q28.27 8.53 27.84 8.46Q27.41 8.39 26.93 8.25L26.93 8.25L26.93 7.42Q27.29 7.61 27.70 7.70Q28.10 7.79 28.56 7.79L28.56 7.79Q29.31 7.79 29.72 7.52Q30.13 7.25 30.13 6.77L30.13 6.77Q30.13 6.26 29.75 6.00Q29.37 5.74 28.63 5.74L28.63 5.74L28.04 5.74L28.04 5.00L28.68 5.00Q29.33 5.00 29.66 4.79Q29.99 4.57 29.99 4.16L29.99 4.16Q29.99 3.77 29.65 3.56Q29.31 3.35 28.66 3.35L28.66 3.35Q28.38 3.35 28.03 3.41Q27.69 3.47 27.13 3.63L27.13 3.63L27.13 2.84Q27.63 2.73 28.07 2.67Q28.51 2.60 28.88 2.60L28.88 2.60Q29.87 2.60 30.44 3.01Q31.02 3.41 31.02 4.09L31.02 4.09Q31.02 4.56 30.71 4.89Q30.41 5.22 29.85 5.34Z"></path></svg>