<svg height="16.296875" width="31.0556640625" xmlns="http://www.w3.org/2000/svg" ><path d="M0.77 6.34L0.77 5.34L6.75 5.34L6.75 6.49L2.02 11.99L6.75 11.99L6.75 13.00L0.60 13.00L0.60 11.85L5.33 6.34L0.77 6.34ZM8.62 13.00L8.62 5.34L13.46 5.34L13.46 6.35L9.89 6.35L9.89 8.41L13.30 8.41L13.30 9.42L9.89 9.42L9.89 11.99L13.55 11.99L13.55 13.00L8.62 13.00ZM15.29 8.43L15.29 7.68L16.68 7.68L16.68 3.50L15.16 3.78L15.16 2.99L16.73 2.72L17.66 2.72L17.66 7.68L19.07 7.68L19.07 8.43L15.29 8.43ZM20.90 8.43L20.90 7.68L22.29 7.68L22.29 3.50L20.77 3.78L20.77 2.99L22.34 2.72L23.28 2.72L23.28 7.68L24.68 7.68L24.68 8.43L20.90 8.43ZM29.03 5.34L29.03 5.34Q29.65 5.46 30.00 5.83Q30.34 6.21 30.34 6.77L30.34 6.77Q30.34 7.62 29.70 8.07Q29.05 8.53 27.84 8.53L27.84 8.53Q27.45 8.53 27.02 8.46Q26.59 8.39 26.11 8.25L26.11 8.25L26.11 7.42Q26.47 7.61 26.88 7.70Q27.28 7.79 27.74 7.79L27.74 7.79Q28.49 7.79 28.90 7.52Q29.31 7.25 29.31 6.77L29.31 6.77Q29.31 6.26 28.93 6.00Q28.55 5.74 27.81 5.74L27.81 5.74L27.22 5.74L27.22 5.00L27.86 5.00Q28.51 5.00 28.84 4.79Q29.17 4.57 29.17 4.16L29.17 4.16Q29.17 3.77 28.83 3.56Q28.49 3.35 27.84 3.35L27.84 3.35Q27.56 3.35 27.21 3.41Q26.87 3.47 26.31 3.63L26.31 3.63L26.31 2.84Q26.81 2.73 27.25 2.67Q27.69 2.60 28.06 2.60L28.06 2.60Q29.05 2.60 29.62 3.01Q30.20 3.41 30.20 4.09L30.20 4.09Q30.20 4.56 29.89 4.89Q29.59 5.22 29.03 5.34Z"></path></svg>