<svg height="16.296875" width="41.671875" xmlns="http://www.w3.org/2000/svg" ><path d="M0.77 6.34L0.77 5.34L6.75 5.34L6.75 6.49L2.02 11.99L6.75 11.99L6.75 13.00L0.60 13.00L0.60 11.85L5.33 6.34L0.77 6.34ZM8.12 9.50L8.12 9.50L8.12 8.88L13.90 8.88Q13.82 7.58 13.12 6.90Q12.42 6.22 11.17 6.22L11.17 6.22Q10.45 6.22 9.77 6.40Q9.08 6.58 8.42 6.93L8.42 6.93L8.42 5.74Q9.09 5.46 9.80 5.30Q10.51 5.15 11.25 5.15L11.25 5.15Q13.08 5.15 14.15 6.22Q15.22 7.29 15.22 9.11L15.22 9.11Q15.22 10.99 14.20 12.09Q13.19 13.19 11.46 13.19L11.46 13.19Q9.92 13.19 9.02 12.20Q8.12 11.20 8.12 9.50ZM13.86 9.86L9.38 9.86Q9.39 10.90 9.96 11.51Q10.52 12.13 11.45 12.13L11.45 12.13Q12.50 12.13 13.14 11.53Q13.77 10.94 13.86 9.86L13.86 9.86ZM23.65 8.37L23.65 8.37L23.65 13.00L22.39 13.00L22.39 8.42Q22.39 7.33 21.96 6.79Q21.54 6.25 20.69 6.25L20.69 6.25Q19.67 6.25 19.09 6.90Q18.50 7.55 18.50 8.67L18.50 8.67L18.50 13.00L17.23 13.00L17.23 5.34L18.50 5.34L18.50 6.53Q18.95 5.84 19.56 5.50Q20.17 5.15 20.97 5.15L20.97 5.15Q22.29 5.15 22.97 5.97Q23.65 6.79 23.65 8.37ZM25.90 8.43L25.90 7.68L27.30 7.68L27.30 3.50L25.77 3.78L25.77 2.99L27.34 2.72L28.28 2.72L28.28 7.68L29.68 7.68L29.68 8.43L25.90 8.43ZM31.51 8.43L31.51 7.68L32.91 7.68L32.91 3.50L31.38 3.78L31.38 2.99L32.96 2.72L33.89 2.72L33.89 7.68L35.29 7.68L35.29 8.43L31.51 8.43ZM39.64 5.34L39.64 5.34Q40.27 5.46 40.62 5.83Q40.96 6.21 40.96 6.77L40.96 6.77Q40.96 7.62 40.31 8.07Q39.66 8.53 38.45 8.53L38.45 8.53Q38.06 8.53 37.64 8.46Q37.21 8.39 36.73 8.25L36.73 8.25L36.73 7.42Q37.08 7.61 37.49 7.70Q37.90 7.79 38.36 7.79L38.36 7.79Q39.10 7.79 39.51 7.52Q39.92 7.25 39.92 6.77L39.92 6.77Q39.92 6.26 39.54 6.00Q39.16 5.74 38.42 5.74L38.42 5.74L37.84 5.74L37.84 5.00L38.48 5.00Q39.12 5.00 39.45 4.79Q39.79 4.57 39.79 4.16L39.79 4.16Q39.79 3.77 39.44 3.56Q39.10 3.35 38.45 3.35L38.45 3.35Q38.18 3.35 37.83 3.41Q37.48 3.47 36.93 3.63L36.93 3.63L36.93 2.84Q37.43 2.73 37.86 2.67Q38.30 2.60 38.68 2.60L38.68 2.60Q39.66 2.60 40.24 3.01Q40.82 3.41 40.82 4.09L40.82 4.09Q40.82 4.56 40.51 4.89Q40.20 5.22 39.64 5.34Z"></path></svg>