<svg height="16.296875" width="34.330078125" xmlns="http://www.w3.org/2000/svg" ><path d="M0.77 6.34L0.77 5.34L6.75 5.34L6.75 6.49L2.02 11.99L6.75 11.99L6.75 13.00L0.60 13.00L0.60 11.85L5.33 6.34L0.77 6.34ZM8.12 9.50L8.12 9.50L8.12 8.88L13.90 8.88Q13.82 7.58 13.12 6.90Q12.42 6.22 11.17 6.22L11.17 6.22Q10.45 6.22 9.77 6.40Q9.08 6.58 8.42 6.93L8.42 6.93L8.42 5.74Q9.09 5.46 9.80 5.30Q10.51 5.15 11.25 5.15L11.25 5.15Q13.08 5.15 14.15 6.22Q15.22 7.29 15.22 9.11L15.22 9.11Q15.22 10.99 14.20 12.09Q13.19 13.19 11.46 13.19L11.46 13.19Q9.92 13.19 9.02 12.20Q8.12 11.20 8.12 9.50ZM13.86 9.86L9.38 9.86Q9.39 10.90 9.96 11.51Q10.52 12.13 11.45 12.13L11.45 12.13Q12.50 12.13 13.14 11.53Q13.77 10.94 13.86 9.86L13.86 9.86ZM18.29 13.00L18.29 7.54L18.72 7.54Q20.03 7.54 20.62 6.76L20.62 6.76Q21.01 6.24 21.01 5.57L21.01 5.57Q21.01 4.66 20.62 4.22L20.62 4.22Q19.94 3.44 18.72 3.44L18.72 3.44Q18.17 3.44 17.63 3.59L17.63 3.59Q17.10 3.73 16.56 4.03L16.56 4.03L16.56 2.85Q17.08 2.61 17.64 2.50L17.64 2.50Q18.19 2.37 18.77 2.37L18.77 2.37Q20.65 2.37 21.59 3.45L21.59 3.45Q22.34 4.30 22.34 5.57L22.34 5.57Q22.34 6.73 21.60 7.52L21.60 7.52Q20.84 8.33 19.67 8.54L19.67 8.54L19.67 13.00L18.29 13.00ZM24.17 8.43L24.17 7.68L25.57 7.68L25.57 3.50L24.04 3.78L24.04 2.99L25.61 2.72L26.55 2.72L26.55 7.68L27.95 7.68L27.95 8.43L24.17 8.43ZM30.55 7.65L30.55 7.65L33.45 7.65L33.45 8.43L29.36 8.43L29.36 7.68Q29.59 7.46 30.02 7.08L30.02 7.08Q32.38 5.00 32.38 4.35L32.38 4.35Q32.38 3.90 32.02 3.63Q31.66 3.35 31.08 3.35L31.08 3.35Q30.73 3.35 30.31 3.47Q29.89 3.59 29.40 3.83L29.40 3.83L29.40 2.99Q29.93 2.80 30.38 2.70Q30.84 2.60 31.23 2.60L31.23 2.60Q32.22 2.60 32.81 3.06Q33.41 3.51 33.41 4.25L33.41 4.25Q33.41 5.20 31.14 7.14L31.14 7.14Q30.76 7.46 30.55 7.65Z"></path></svg>