<svg height="16.296875" width="32.525390625" xmlns="http://www.w3.org/2000/svg" ><path d="M0.77 6.34L0.77 5.34L6.75 5.34L6.75 6.49L2.02 11.99L6.75 11.99L6.75 13.00L0.60 13.00L0.60 11.85L5.33 6.34L0.77 6.34ZM9.49 5.34L11.52 8.07L13.55 5.34L15.03 5.34L12.31 8.99Q12.80 9.66 13.10 10.18L13.10 10.18Q13.57 11.00 13.57 11.42L13.57 11.42Q13.57 12.31 13.06 12.75Q12.54 13.19 11.52 13.19L11.52 13.19Q10.49 13.19 9.98 12.75Q9.47 12.31 9.47 11.42L9.47 11.42Q9.47 11.00 9.94 10.18L9.94 10.18Q10.24 9.66 10.73 8.99L10.73 8.99L8.00 5.34L9.49 5.34ZM11.52 12.13L11.52 12.13Q11.98 12.13 12.19 11.94L12.19 11.94Q12.38 11.78 12.38 11.47L12.38 11.47Q12.38 11.25 12.11 10.81L12.11 10.81Q11.90 10.47 11.52 9.99L11.52 9.99Q11.14 10.47 10.92 10.81L10.92 10.81Q10.66 11.25 10.66 11.47L10.66 11.47Q10.66 11.78 10.85 11.94L10.85 11.94Q11.06 12.13 11.52 12.13ZM16.75 8.43L16.75 7.68L18.15 7.68L18.15 3.50L16.63 3.78L16.63 2.99L18.20 2.72L19.13 2.72L19.13 7.68L20.54 7.68L20.54 8.43L16.75 8.43ZM22.37 8.43L22.37 7.68L23.76 7.68L23.76 3.50L22.24 3.78L22.24 2.99L23.81 2.72L24.75 2.72L24.75 7.68L26.15 7.68L26.15 8.43L22.37 8.43ZM30.50 5.34L30.50 5.34Q31.12 5.46 31.47 5.83Q31.81 6.21 31.81 6.77L31.81 6.77Q31.81 7.62 31.17 8.07Q30.52 8.53 29.31 8.53L29.31 8.53Q28.92 8.53 28.49 8.46Q28.06 8.39 27.58 8.25L27.58 8.25L27.58 7.42Q27.94 7.61 28.35 7.70Q28.75 7.79 29.21 7.79L29.21 7.79Q29.96 7.79 30.37 7.52Q30.78 7.25 30.78 6.77L30.78 6.77Q30.78 6.26 30.40 6.00Q30.02 5.74 29.28 5.74L29.28 5.74L28.69 5.74L28.69 5.00L29.33 5.00Q29.98 5.00 30.31 4.79Q30.64 4.57 30.64 4.16L30.64 4.16Q30.64 3.77 30.30 3.56Q29.96 3.35 29.31 3.35L29.31 3.35Q29.03 3.35 28.68 3.41Q28.33 3.47 27.78 3.63L27.78 3.63L27.78 2.84Q28.28 2.73 28.72 2.67Q29.16 2.60 29.53 2.60L29.53 2.60Q30.52 2.60 31.09 3.01Q31.67 3.41 31.67 4.09L31.67 4.09Q31.67 4.56 31.36 4.89Q31.06 5.22 30.50 5.34Z"></path></svg>