<svg height="16.296875" width="28.0751953125" xmlns="http://www.w3.org/2000/svg" ><path d="M0.77 6.34L0.77 5.34L6.75 5.34L6.75 6.49L2.02 11.99L3.21 11.99Q3.45 10.88 4.02 10.40L4.02 10.40Q4.46 10.02 5.12 10.02L5.12 10.02Q6.02 10.02 6.42 10.62L6.42 10.62Q6.68 11.01 6.68 11.60L6.68 11.60Q6.69 12.26 6.26 12.58L6.26 12.58Q5.70 13.00 4.84 13.00L4.84 13.00L4.12 13.00Q4.10 13.34 4.10 13.75L4.10 13.75L3.06 13.75Q3.06 13.35 3.08 13.00L3.08 13.00L0.60 13.00L0.60 11.85L5.33 6.34L0.77 6.34ZM4.27 11.99L4.27 11.99L4.65 11.99Q5.59 11.99 5.59 11.62L5.59 11.62Q5.59 10.99 5.11 11.00L5.11 11.00Q4.51 11.01 4.27 11.99ZM8.67 13.00L8.67 5.34L9.93 5.34L9.93 13.00L8.67 13.00ZM8.67 3.95L8.67 2.36L9.93 2.36L9.93 3.95L8.67 3.95ZM12.30 8.43L12.30 7.68L13.70 7.68L13.70 3.50L12.17 3.78L12.17 2.99L13.75 2.72L14.68 2.72L14.68 7.68L16.08 7.68L16.08 8.43L12.30 8.43ZM17.92 8.43L17.92 7.68L19.31 7.68L19.31 3.50L17.79 3.78L17.79 2.99L19.36 2.72L20.30 2.72L20.30 7.68L21.70 7.68L21.70 8.43L17.92 8.43ZM26.04 5.34L26.04 5.34Q26.67 5.46 27.02 5.83Q27.36 6.21 27.36 6.77L27.36 6.77Q27.36 7.62 26.71 8.07Q26.07 8.53 24.86 8.53L24.86 8.53Q24.47 8.53 24.04 8.46Q23.61 8.39 23.13 8.25L23.13 8.25L23.13 7.42Q23.49 7.61 23.90 7.70Q24.30 7.79 24.76 7.79L24.76 7.79Q25.50 7.79 25.92 7.52Q26.33 7.25 26.33 6.77L26.33 6.77Q26.33 6.26 25.95 6.00Q25.57 5.74 24.83 5.74L24.83 5.74L24.24 5.74L24.24 5.00L24.88 5.00Q25.53 5.00 25.86 4.79Q26.19 4.57 26.19 4.16L26.19 4.16Q26.19 3.77 25.85 3.56Q25.50 3.35 24.86 3.35L24.86 3.35Q24.58 3.35 24.23 3.41Q23.88 3.47 23.33 3.63L23.33 3.63L23.33 2.84Q23.83 2.73 24.27 2.67Q24.71 2.60 25.08 2.60L25.08 2.60Q26.07 2.60 26.64 3.01Q27.22 3.41 27.22 4.09L27.22 4.09Q27.22 4.56 26.91 4.89Q26.61 5.22 26.04 5.34Z"></path></svg>