<svg height="16.296875" width="36.3603515625" xmlns="http://www.w3.org/2000/svg" ><path d="M0.77 6.34L0.77 5.34L6.75 5.34L6.75 6.49L2.02 11.99L3.21 11.99Q3.45 10.88 4.02 10.40L4.02 10.40Q4.46 10.02 5.12 10.02L5.12 10.02Q6.02 10.02 6.42 10.62L6.42 10.62Q6.68 11.01 6.68 11.60L6.68 11.60Q6.69 12.26 6.26 12.58L6.26 12.58Q5.70 13.00 4.84 13.00L4.84 13.00L4.12 13.00Q4.10 13.34 4.10 13.75L4.10 13.75L3.06 13.75Q3.06 13.35 3.08 13.00L3.08 13.00L0.60 13.00L0.60 11.85L5.33 6.34L0.77 6.34ZM4.27 11.99L4.27 11.99L4.65 11.99Q5.59 11.99 5.59 11.62L5.59 11.62Q5.59 10.99 5.11 11.00L5.11 11.00Q4.51 11.01 4.27 11.99ZM8.67 13.00L8.67 5.34L9.93 5.34L9.93 13.00L8.67 13.00ZM8.67 3.95L8.67 2.36L9.93 2.36L9.93 3.95L8.67 3.95ZM16.24 5.34L19.11 13.00L17.77 13.00L17.08 11.12L13.69 11.12L12.99 13.00L11.66 13.00L14.53 5.34L16.24 5.34ZM15.38 6.57L14.07 10.10L16.69 10.10L15.38 6.57ZM20.59 8.43L20.59 7.68L21.98 7.68L21.98 3.50L20.46 3.78L20.46 2.99L22.03 2.72L22.97 2.72L22.97 7.68L24.37 7.68L24.37 8.43L20.59 8.43ZM26.20 8.43L26.20 7.68L27.60 7.68L27.60 3.50L26.07 3.78L26.07 2.99L27.64 2.72L28.58 2.72L28.58 7.68L29.98 7.68L29.98 8.43L26.20 8.43ZM34.33 5.34L34.33 5.34Q34.96 5.46 35.30 5.83Q35.65 6.21 35.65 6.77L35.65 6.77Q35.65 7.62 35 8.07Q34.35 8.53 33.14 8.53L33.14 8.53Q32.75 8.53 32.32 8.46Q31.90 8.39 31.42 8.25L31.42 8.25L31.42 7.42Q31.77 7.61 32.18 7.70Q32.59 7.79 33.04 7.79L33.04 7.79Q33.79 7.79 34.20 7.52Q34.61 7.25 34.61 6.77L34.61 6.77Q34.61 6.26 34.23 6.00Q33.85 5.74 33.11 5.74L33.11 5.74L32.53 5.74L32.53 5.00L33.17 5.00Q33.81 5.00 34.14 4.79Q34.47 4.57 34.47 4.16L34.47 4.16Q34.47 3.77 34.13 3.56Q33.79 3.35 33.14 3.35L33.14 3.35Q32.87 3.35 32.52 3.41Q32.17 3.47 31.62 3.63L31.62 3.63L31.62 2.84Q32.12 2.73 32.55 2.67Q32.99 2.60 33.37 2.60L33.37 2.60Q34.35 2.60 34.93 3.01Q35.51 3.41 35.51 4.09L35.51 4.09Q35.51 4.56 35.20 4.89Q34.89 5.22 34.33 5.34Z"></path></svg>