<svg height="16.296875" width="37.8916015625" xmlns="http://www.w3.org/2000/svg" ><path d="M0.77 6.34L0.77 5.34L6.75 5.34L6.75 6.49L2.02 11.99L3.21 11.99Q3.45 10.88 4.02 10.40L4.02 10.40Q4.46 10.02 5.12 10.02L5.12 10.02Q6.02 10.02 6.42 10.62L6.42 10.62Q6.68 11.01 6.68 11.60L6.68 11.60Q6.69 12.26 6.26 12.58L6.26 12.58Q5.70 13.00 4.84 13.00L4.84 13.00L4.12 13.00Q4.10 13.34 4.10 13.75L4.10 13.75L3.06 13.75Q3.06 13.35 3.08 13.00L3.08 13.00L0.60 13.00L0.60 11.85L5.33 6.34L0.77 6.34ZM4.27 11.99L4.27 11.99L4.65 11.99Q5.59 11.99 5.59 11.62L5.59 11.62Q5.59 10.99 5.11 11.00L5.11 11.00Q4.51 11.01 4.27 11.99ZM8.67 13.00L8.67 5.34L9.93 5.34L9.93 13.00L8.67 13.00ZM8.67 3.95L8.67 2.36L9.93 2.36L9.93 3.95L8.67 3.95ZM16.24 5.34L19.11 13.00L17.77 13.00L17.08 11.12L13.69 11.12L12.99 13.00L11.66 13.00L14.53 5.34L16.24 5.34ZM15.38 6.57L14.07 10.10L16.69 10.10L15.38 6.57ZM21.85 13.00L21.85 7.54L22.28 7.54Q23.59 7.54 24.18 6.76L24.18 6.76Q24.58 6.24 24.58 5.57L24.58 5.57Q24.57 4.66 24.18 4.22L24.18 4.22Q23.50 3.44 22.28 3.44L22.28 3.44Q21.73 3.44 21.19 3.59L21.19 3.59Q20.66 3.73 20.13 4.03L20.13 4.03L20.13 2.85Q20.64 2.61 21.20 2.50L21.20 2.50Q21.75 2.37 22.33 2.37L22.33 2.37Q24.21 2.37 25.16 3.45L25.16 3.45Q25.90 4.30 25.90 5.57L25.90 5.57Q25.90 6.73 25.16 7.52L25.16 7.52Q24.40 8.33 23.24 8.54L23.24 8.54L23.24 13.00L21.85 13.00ZM27.73 8.43L27.73 7.68L29.13 7.68L29.13 3.50L27.60 3.78L27.60 2.99L29.18 2.72L30.11 2.72L30.11 7.68L31.51 7.68L31.51 8.43L27.73 8.43ZM34.11 7.65L34.11 7.65L37.01 7.65L37.01 8.43L32.92 8.43L32.92 7.68Q33.15 7.46 33.58 7.08L33.58 7.08Q35.94 5.00 35.94 4.35L35.94 4.35Q35.94 3.90 35.58 3.63Q35.23 3.35 34.64 3.35L34.64 3.35Q34.29 3.35 33.87 3.47Q33.46 3.59 32.96 3.83L32.96 3.83L32.96 2.99Q33.49 2.80 33.94 2.70Q34.40 2.60 34.79 2.60L34.79 2.60Q35.78 2.60 36.37 3.06Q36.97 3.51 36.97 4.25L36.97 4.25Q36.97 5.20 34.71 7.14L34.71 7.14Q34.32 7.46 34.11 7.65Z"></path></svg>