<svg height="16.296875" width="36.654296875" xmlns="http://www.w3.org/2000/svg" ><path d="M0.77 6.34L0.77 5.34L6.75 5.34L6.75 6.49L2.02 11.99L3.21 11.99Q3.45 10.88 4.02 10.40L4.02 10.40Q4.46 10.02 5.12 10.02L5.12 10.02Q6.02 10.02 6.42 10.62L6.42 10.62Q6.68 11.01 6.68 11.60L6.68 11.60Q6.69 12.26 6.26 12.58L6.26 12.58Q5.70 13.00 4.84 13.00L4.84 13.00L4.12 13.00Q4.10 13.34 4.10 13.75L4.10 13.75L3.06 13.75Q3.06 13.35 3.08 13.00L3.08 13.00L0.60 13.00L0.60 11.85L5.33 6.34L0.77 6.34ZM4.27 11.99L4.27 11.99L4.65 11.99Q5.59 11.99 5.59 11.62L5.59 11.62Q5.59 10.99 5.11 11.00L5.11 11.00Q4.51 11.01 4.27 11.99ZM8.67 13.00L8.67 5.34L9.93 5.34L9.93 13.00L8.67 13.00ZM8.67 3.95L8.67 2.36L9.93 2.36L9.93 3.95L8.67 3.95ZM17.29 9.15L16.04 9.15Q14.51 9.15 13.92 9.50Q13.34 9.84 13.34 10.68L13.34 10.68Q13.34 11.35 13.78 11.75Q14.22 12.14 14.98 12.14L14.98 12.14Q16.02 12.14 16.66 11.40Q17.29 10.66 17.29 9.43L17.29 9.43L17.29 9.15ZM18.55 8.63L18.55 8.63L18.55 13.00L17.29 13.00L17.29 11.83Q16.86 12.53 16.21 12.86Q15.57 13.19 14.64 13.19L14.64 13.19Q13.47 13.19 12.77 12.53Q12.08 11.87 12.08 10.77L12.08 10.77Q12.08 9.47 12.94 8.82Q13.81 8.16 15.52 8.16L15.52 8.16L17.29 8.16L17.29 8.04Q17.29 7.17 16.72 6.70Q16.15 6.22 15.11 6.22L15.11 6.22Q14.46 6.22 13.84 6.38Q13.21 6.54 12.64 6.85L12.64 6.85L12.64 5.69Q13.33 5.42 13.98 5.29Q14.63 5.15 15.24 5.15L15.24 5.15Q16.91 5.15 17.73 6.02Q18.55 6.88 18.55 8.63ZM16.28 3.63L16.28 3.63L15.89 3.25Q15.74 3.12 15.62 3.05Q15.51 2.99 15.42 2.99L15.42 2.99Q15.16 2.99 15.04 3.24Q14.92 3.49 14.90 4.05L14.90 4.05L14.05 4.05Q14.06 3.12 14.41 2.62Q14.76 2.12 15.38 2.12L15.38 2.12Q15.64 2.12 15.86 2.21Q16.08 2.31 16.33 2.54L16.33 2.54L16.72 2.91Q16.87 3.05 16.98 3.11Q17.10 3.18 17.19 3.18L17.19 3.18Q17.45 3.18 17.57 2.93Q17.69 2.68 17.71 2.12L17.71 2.12L18.56 2.12Q18.55 3.04 18.20 3.54Q17.85 4.05 17.23 4.05L17.23 4.05Q16.97 4.05 16.75 3.95Q16.53 3.86 16.28 3.63ZM20.88 8.43L20.88 7.68L22.28 7.68L22.28 3.50L20.75 3.78L20.75 2.99L22.33 2.72L23.26 2.72L23.26 7.68L24.66 7.68L24.66 8.43L20.88 8.43ZM26.50 8.43L26.50 7.68L27.89 7.68L27.89 3.50L26.37 3.78L26.37 2.99L27.94 2.72L28.88 2.72L28.88 7.68L30.28 7.68L30.28 8.43L26.50 8.43ZM34.62 5.34L34.62 5.34Q35.25 5.46 35.60 5.83Q35.94 6.21 35.94 6.77L35.94 6.77Q35.94 7.62 35.29 8.07Q34.64 8.53 33.43 8.53L33.43 8.53Q33.04 8.53 32.62 8.46Q32.19 8.39 31.71 8.25L31.71 8.25L31.71 7.42Q32.07 7.61 32.47 7.70Q32.88 7.79 33.34 7.79L33.34 7.79Q34.08 7.79 34.49 7.52Q34.90 7.25 34.90 6.77L34.90 6.77Q34.90 6.26 34.52 6.00Q34.15 5.74 33.41 5.74L33.41 5.74L32.82 5.74L32.82 5.00L33.46 5.00Q34.10 5.00 34.44 4.79Q34.77 4.57 34.77 4.16L34.77 4.16Q34.77 3.77 34.43 3.56Q34.08 3.35 33.43 3.35L33.43 3.35Q33.16 3.35 32.81 3.41Q32.46 3.47 31.91 3.63L31.91 3.63L31.91 2.84Q32.41 2.73 32.85 2.67Q33.28 2.60 33.66 2.60L33.66 2.60Q34.64 2.60 35.22 3.01Q35.80 3.41 35.80 4.09L35.80 4.09Q35.80 4.56 35.49 4.89Q35.18 5.22 34.62 5.34Z"></path></svg>