<svg height="16.296875" width="35.765625" xmlns="http://www.w3.org/2000/svg" ><path d="M0.77 6.34L0.77 5.34L6.75 5.34L6.75 6.49L2.02 11.99L3.21 11.99Q3.45 10.88 4.02 10.40L4.02 10.40Q4.46 10.02 5.12 10.02L5.12 10.02Q6.02 10.02 6.42 10.62L6.42 10.62Q6.68 11.01 6.68 11.60L6.68 11.60Q6.69 12.26 6.26 12.58L6.26 12.58Q5.70 13.00 4.84 13.00L4.84 13.00L4.12 13.00Q4.10 13.34 4.10 13.75L4.10 13.75L3.06 13.75Q3.06 13.35 3.08 13.00L3.08 13.00L0.60 13.00L0.60 11.85L5.33 6.34L0.77 6.34ZM4.27 11.99L4.27 11.99L4.65 11.99Q5.59 11.99 5.59 11.62L5.59 11.62Q5.59 10.99 5.11 11.00L5.11 11.00Q4.51 11.01 4.27 11.99ZM8.67 13.00L8.67 5.34L9.93 5.34L9.93 13.00L8.67 13.00ZM8.67 3.95L8.67 2.36L9.93 2.36L9.93 3.95L8.67 3.95ZM12.11 6.81L12.11 5.65Q12.63 5.40 13.20 5.28Q13.76 5.15 14.40 5.15L14.40 5.15Q16.13 5.15 17.14 6.24Q18.16 7.33 18.16 9.17L18.16 9.17Q18.16 11.05 17.13 12.12Q16.11 13.19 14.31 13.19L14.31 13.19Q13.73 13.19 13.18 13.07Q12.63 12.95 12.11 12.71L12.11 12.71L12.11 11.54Q12.64 11.83 13.18 11.98Q13.71 12.13 14.26 12.13L14.26 12.13Q15.48 12.13 16.16 11.35Q16.84 10.58 16.84 9.17L16.84 9.17Q16.84 7.77 16.16 7.00Q15.48 6.22 14.26 6.22L14.26 6.22Q13.71 6.22 13.18 6.37Q12.64 6.51 12.11 6.81L12.11 6.81ZM20.00 8.43L20.00 7.68L21.39 7.68L21.39 3.50L19.87 3.78L19.87 2.99L21.44 2.72L22.37 2.72L22.37 7.68L23.78 7.68L23.78 8.43L20.00 8.43ZM25.61 8.43L25.61 7.68L27.00 7.68L27.00 3.50L25.48 3.78L25.48 2.99L27.05 2.72L27.99 2.72L27.99 7.68L29.39 7.68L29.39 8.43L25.61 8.43ZM33.74 5.34L33.74 5.34Q34.36 5.46 34.71 5.83Q35.05 6.21 35.05 6.77L35.05 6.77Q35.05 7.62 34.41 8.07Q33.76 8.53 32.55 8.53L32.55 8.53Q32.16 8.53 31.73 8.46Q31.30 8.39 30.82 8.25L30.82 8.25L30.82 7.42Q31.18 7.61 31.59 7.70Q31.99 7.79 32.45 7.79L32.45 7.79Q33.20 7.79 33.61 7.52Q34.02 7.25 34.02 6.77L34.02 6.77Q34.02 6.26 33.64 6.00Q33.26 5.74 32.52 5.74L32.52 5.74L31.93 5.74L31.93 5.00L32.57 5.00Q33.22 5.00 33.55 4.79Q33.88 4.57 33.88 4.16L33.88 4.16Q33.88 3.77 33.54 3.56Q33.20 3.35 32.55 3.35L32.55 3.35Q32.27 3.35 31.92 3.41Q31.58 3.47 31.02 3.63L31.02 3.63L31.02 2.84Q31.52 2.73 31.96 2.67Q32.40 2.60 32.77 2.60L32.77 2.60Q33.76 2.60 34.33 3.01Q34.91 3.41 34.91 4.09L34.91 4.09Q34.91 4.56 34.60 4.89Q34.30 5.22 33.74 5.34Z"></path></svg>