<svg height="16.296875" width="36.4150390625" xmlns="http://www.w3.org/2000/svg" ><path d="M0.77 6.34L0.77 5.34L6.75 5.34L6.75 6.49L2.02 11.99L3.21 11.99Q3.45 10.88 4.02 10.40L4.02 10.40Q4.46 10.02 5.12 10.02L5.12 10.02Q6.02 10.02 6.42 10.62L6.42 10.62Q6.68 11.01 6.68 11.60L6.68 11.60Q6.69 12.26 6.26 12.58L6.26 12.58Q5.70 13.00 4.84 13.00L4.84 13.00L4.12 13.00Q4.10 13.34 4.10 13.75L4.10 13.75L3.06 13.75Q3.06 13.35 3.08 13.00L3.08 13.00L0.60 13.00L0.60 11.85L5.33 6.34L0.77 6.34ZM4.27 11.99L4.27 11.99L4.65 11.99Q5.59 11.99 5.59 11.62L5.59 11.62Q5.59 10.99 5.11 11.00L5.11 11.00Q4.51 11.01 4.27 11.99ZM8.67 13.00L8.67 5.34L9.93 5.34L9.93 13.00L8.67 13.00ZM8.67 3.95L8.67 2.36L9.93 2.36L9.93 3.95L8.67 3.95ZM13.38 5.34L15.41 8.07L17.44 5.34L18.92 5.34L16.20 8.99Q16.69 9.66 16.99 10.18L16.99 10.18Q17.46 11.00 17.46 11.42L17.46 11.42Q17.46 12.31 16.95 12.75Q16.43 13.19 15.41 13.19L15.41 13.19Q14.38 13.19 13.87 12.75Q13.36 12.31 13.36 11.42L13.36 11.42Q13.36 11.00 13.83 10.18L13.83 10.18Q14.13 9.66 14.62 8.99L14.62 8.99L11.89 5.34L13.38 5.34ZM15.41 12.13L15.41 12.13Q15.87 12.13 16.08 11.94L16.08 11.94Q16.27 11.78 16.27 11.47L16.27 11.47Q16.27 11.25 16.00 10.81L16.00 10.81Q15.79 10.47 15.41 9.99L15.41 9.99Q15.03 10.47 14.81 10.81L14.81 10.81Q14.55 11.25 14.55 11.47L14.55 11.47Q14.55 11.78 14.74 11.94L14.74 11.94Q14.95 12.13 15.41 12.13ZM20.64 8.43L20.64 7.68L22.04 7.68L22.04 3.50L20.51 3.78L20.51 2.99L22.09 2.72L23.02 2.72L23.02 7.68L24.42 7.68L24.42 8.43L20.64 8.43ZM26.26 8.43L26.26 7.68L27.65 7.68L27.65 3.50L26.13 3.78L26.13 2.99L27.70 2.72L28.64 2.72L28.64 7.68L30.04 7.68L30.04 8.43L26.26 8.43ZM34.38 5.34L34.38 5.34Q35.01 5.46 35.36 5.83Q35.70 6.21 35.70 6.77L35.70 6.77Q35.70 7.62 35.05 8.07Q34.41 8.53 33.20 8.53L33.20 8.53Q32.81 8.53 32.38 8.46Q31.95 8.39 31.47 8.25L31.47 8.25L31.47 7.42Q31.83 7.61 32.23 7.70Q32.64 7.79 33.10 7.79L33.10 7.79Q33.84 7.79 34.25 7.52Q34.67 7.25 34.67 6.77L34.67 6.77Q34.67 6.26 34.29 6.00Q33.91 5.74 33.17 5.74L33.17 5.74L32.58 5.74L32.58 5.00L33.22 5.00Q33.87 5.00 34.20 4.79Q34.53 4.57 34.53 4.16L34.53 4.16Q34.53 3.77 34.19 3.56Q33.84 3.35 33.20 3.35L33.20 3.35Q32.92 3.35 32.57 3.41Q32.22 3.47 31.67 3.63L31.67 3.63L31.67 2.84Q32.17 2.73 32.61 2.67Q33.04 2.60 33.42 2.60L33.42 2.60Q34.41 2.60 34.98 3.01Q35.56 3.41 35.56 4.09L35.56 4.09Q35.56 4.56 35.25 4.89Q34.95 5.22 34.38 5.34Z"></path></svg>