<svg height="16.296875" width="36.9482421875" xmlns="http://www.w3.org/2000/svg" ><path d="M0.77 6.34L0.77 5.34L6.75 5.34L6.75 6.49L2.02 11.99L3.21 11.99Q3.45 10.88 4.02 10.40L4.02 10.40Q4.46 10.02 5.12 10.02L5.12 10.02Q6.02 10.02 6.42 10.62L6.42 10.62Q6.68 11.01 6.68 11.60L6.68 11.60Q6.69 12.26 6.26 12.58L6.26 12.58Q5.70 13.00 4.84 13.00L4.84 13.00L4.12 13.00Q4.10 13.34 4.10 13.75L4.10 13.75L3.06 13.75Q3.06 13.35 3.08 13.00L3.08 13.00L0.60 13.00L0.60 11.85L5.33 6.34L0.77 6.34ZM4.27 11.99L4.27 11.99L4.65 11.99Q5.59 11.99 5.59 11.62L5.59 11.62Q5.59 10.99 5.11 11.00L5.11 11.00Q4.51 11.01 4.27 11.99ZM8.67 13.00L8.67 5.34L9.93 5.34L9.93 13.00L8.67 13.00ZM8.67 3.95L8.67 2.36L9.93 2.36L9.93 3.95L8.67 3.95ZM18.92 8.37L18.92 8.37L18.92 13.00L17.66 13.00L17.66 8.42Q17.66 7.33 17.24 6.79Q16.82 6.25 15.97 6.25L15.97 6.25Q14.95 6.25 14.36 6.90Q13.77 7.55 13.77 8.67L13.77 8.67L13.77 13.00L12.51 13.00L12.51 5.34L13.77 5.34L13.77 6.53Q14.23 5.84 14.84 5.50Q15.45 5.15 16.25 5.15L16.25 5.15Q17.57 5.15 18.25 5.97Q18.92 6.79 18.92 8.37ZM21.18 8.43L21.18 7.68L22.57 7.68L22.57 3.50L21.05 3.78L21.05 2.99L22.62 2.72L23.56 2.72L23.56 7.68L24.96 7.68L24.96 8.43L21.18 8.43ZM26.79 8.43L26.79 7.68L28.18 7.68L28.18 3.50L26.66 3.78L26.66 2.99L28.23 2.72L29.17 2.72L29.17 7.68L30.57 7.68L30.57 8.43L26.79 8.43ZM34.92 5.34L34.92 5.34Q35.55 5.46 35.89 5.83Q36.24 6.21 36.24 6.77L36.24 6.77Q36.24 7.62 35.59 8.07Q34.94 8.53 33.73 8.53L33.73 8.53Q33.34 8.53 32.91 8.46Q32.48 8.39 32.01 8.25L32.01 8.25L32.01 7.42Q32.36 7.61 32.77 7.70Q33.17 7.79 33.63 7.79L33.63 7.79Q34.38 7.79 34.79 7.52Q35.20 7.25 35.20 6.77L35.20 6.77Q35.20 6.26 34.82 6.00Q34.44 5.74 33.70 5.74L33.70 5.74L33.11 5.74L33.11 5.00L33.76 5.00Q34.40 5.00 34.73 4.79Q35.06 4.57 35.06 4.16L35.06 4.16Q35.06 3.77 34.72 3.56Q34.38 3.35 33.73 3.35L33.73 3.35Q33.46 3.35 33.11 3.41Q32.76 3.47 32.20 3.63L32.20 3.63L32.20 2.84Q32.70 2.73 33.14 2.67Q33.58 2.60 33.95 2.60L33.95 2.60Q34.94 2.60 35.52 3.01Q36.09 3.41 36.09 4.09L36.09 4.09Q36.09 4.56 35.79 4.89Q35.48 5.22 34.92 5.34Z"></path></svg>