<svg height="16.296875" width="45.513671875" xmlns="http://www.w3.org/2000/svg" ><path d="M0.77 6.34L0.77 5.34L6.75 5.34L6.75 6.49L2.02 11.99L3.21 11.99Q3.45 10.88 4.02 10.40L4.02 10.40Q4.46 10.02 5.12 10.02L5.12 10.02Q6.02 10.02 6.42 10.62L6.42 10.62Q6.68 11.01 6.68 11.60L6.68 11.60Q6.69 12.26 6.26 12.58L6.26 12.58Q5.70 13.00 4.84 13.00L4.84 13.00L4.12 13.00Q4.10 13.34 4.10 13.75L4.10 13.75L3.06 13.75Q3.06 13.35 3.08 13.00L3.08 13.00L0.60 13.00L0.60 11.85L5.33 6.34L0.77 6.34ZM4.27 11.99L4.27 11.99L4.65 11.99Q5.59 11.99 5.59 11.62L5.59 11.62Q5.59 10.99 5.11 11.00L5.11 11.00Q4.51 11.01 4.27 11.99ZM8.67 13.00L8.67 5.34L9.93 5.34L9.93 13.00L8.67 13.00ZM8.67 3.95L8.67 2.36L9.93 2.36L9.93 3.95L8.67 3.95ZM15.52 6.22L15.52 6.22Q14.51 6.22 13.92 7.01Q13.34 7.80 13.34 9.17L13.34 9.17Q13.34 10.55 13.92 11.34Q14.51 12.13 15.52 12.13L15.52 12.13Q16.53 12.13 17.12 11.33Q17.71 10.54 17.71 9.17L17.71 9.17Q17.71 7.81 17.12 7.02Q16.53 6.22 15.52 6.22ZM15.52 5.15L15.52 5.15Q17.17 5.15 18.10 6.22Q19.04 7.29 19.04 9.17L19.04 9.17Q19.04 11.05 18.10 12.12Q17.17 13.19 15.52 13.19L15.52 13.19Q13.88 13.19 12.94 12.12Q12.01 11.05 12.01 9.17L12.01 9.17Q12.01 7.29 12.94 6.22Q13.88 5.15 15.52 5.15ZM27.49 8.37L27.49 8.37L27.49 13.13Q27.49 14.59 26.93 15.25L26.93 15.25Q26.37 15.91 25.14 15.91L25.14 15.91L23.40 15.91L23.40 14.84L24.99 14.84Q25.71 14.84 25.97 14.51L25.97 14.51Q26.23 14.18 26.23 13.13L26.23 13.13L26.23 8.42Q26.23 7.33 25.81 6.79Q25.38 6.25 24.53 6.25L24.53 6.25Q23.52 6.25 22.93 6.90Q22.34 7.55 22.34 8.67L22.34 8.67L22.34 13.00L21.08 13.00L21.08 5.34L22.34 5.34L22.34 6.53Q22.79 5.84 23.40 5.50L23.40 5.50Q24.01 5.15 24.81 5.15L24.81 5.15Q26.13 5.15 26.81 5.97L26.81 5.97Q27.49 6.79 27.49 8.37ZM29.74 8.43L29.74 7.68L31.14 7.68L31.14 3.50L29.61 3.78L29.61 2.99L31.19 2.72L32.12 2.72L32.12 7.68L33.52 7.68L33.52 8.43L29.74 8.43ZM35.36 8.43L35.36 7.68L36.75 7.68L36.75 3.50L35.23 3.78L35.23 2.99L36.80 2.72L37.73 2.72L37.73 7.68L39.14 7.68L39.14 8.43L35.36 8.43ZM43.48 5.34L43.48 5.34Q44.11 5.46 44.46 5.83Q44.80 6.21 44.80 6.77L44.80 6.77Q44.80 7.62 44.15 8.07Q43.50 8.53 42.29 8.53L42.29 8.53Q41.90 8.53 41.48 8.46Q41.05 8.39 40.57 8.25L40.57 8.25L40.57 7.42Q40.93 7.61 41.33 7.70Q41.74 7.79 42.20 7.79L42.20 7.79Q42.94 7.79 43.35 7.52Q43.76 7.25 43.76 6.77L43.76 6.77Q43.76 6.26 43.38 6.00Q43.00 5.74 42.27 5.74L42.27 5.74L41.68 5.74L41.68 5.00L42.32 5.00Q42.96 5.00 43.30 4.79Q43.63 4.57 43.63 4.16L43.63 4.16Q43.63 3.77 43.29 3.56Q42.94 3.35 42.29 3.35L42.29 3.35Q42.02 3.35 41.67 3.41Q41.32 3.47 40.77 3.63L40.77 3.63L40.77 2.84Q41.27 2.73 41.71 2.67Q42.14 2.60 42.52 2.60L42.52 2.60Q43.50 2.60 44.08 3.01Q44.66 3.41 44.66 4.09L44.66 4.09Q44.66 4.56 44.35 4.89Q44.04 5.22 43.48 5.34Z"></path></svg>