<svg height="16.296875" width="34.80859375" xmlns="http://www.w3.org/2000/svg" ><path d="M0.77 6.34L0.77 5.34L6.75 5.34L6.75 6.49L2.02 11.99L3.21 11.99Q3.45 10.88 4.02 10.40L4.02 10.40Q4.46 10.02 5.12 10.02L5.12 10.02Q6.02 10.02 6.42 10.62L6.42 10.62Q6.68 11.01 6.68 11.60L6.68 11.60Q6.69 12.26 6.26 12.58L6.26 12.58Q5.70 13.00 4.84 13.00L4.84 13.00L4.12 13.00Q4.10 13.34 4.10 13.75L4.10 13.75L3.06 13.75Q3.06 13.35 3.08 13.00L3.08 13.00L0.60 13.00L0.60 11.85L5.33 6.34L0.77 6.34ZM4.27 11.99L4.27 11.99L4.65 11.99Q5.59 11.99 5.59 11.62L5.59 11.62Q5.59 10.99 5.11 11.00L5.11 11.00Q4.51 11.01 4.27 11.99ZM8.67 13.00L8.67 5.34L9.93 5.34L9.93 13.00L8.67 13.00ZM8.67 3.95L8.67 2.36L9.93 2.36L9.93 3.95L8.67 3.95ZM13.23 6.46L12.03 6.46L12.03 5.34L15.64 5.34L15.64 6.46L14.49 6.46L14.49 11.87L15.64 11.87L15.64 13.00L12.03 13.00L12.03 11.87L13.23 11.87L13.23 6.46ZM18.77 13.00L18.76 7.54L19.20 7.54Q20.51 7.54 21.10 6.76L21.10 6.76Q21.49 6.24 21.49 5.57L21.49 5.57Q21.49 4.66 21.10 4.22L21.10 4.22Q20.42 3.44 19.20 3.44L19.20 3.44Q18.65 3.44 18.11 3.59L18.11 3.59Q17.58 3.73 17.04 4.03L17.04 4.03L17.04 2.85Q17.56 2.61 18.12 2.50L18.12 2.50Q18.67 2.37 19.25 2.37L19.25 2.37Q21.13 2.37 22.07 3.45L22.07 3.45Q22.82 4.30 22.82 5.57L22.82 5.57Q22.82 6.73 22.08 7.52L22.08 7.52Q21.31 8.33 20.15 8.54L20.15 8.54L20.15 13.00L18.77 13.00ZM24.65 8.43L24.65 7.68L26.04 7.68L26.04 3.50L24.52 3.78L24.52 2.99L26.09 2.72L27.03 2.72L27.03 7.68L28.43 7.68L28.43 8.43L24.65 8.43ZM31.03 7.65L31.03 7.65L33.93 7.65L33.93 8.43L29.84 8.43L29.84 7.68Q30.07 7.46 30.50 7.08L30.50 7.08Q32.85 5.00 32.85 4.35L32.85 4.35Q32.85 3.90 32.50 3.63Q32.14 3.35 31.56 3.35L31.56 3.35Q31.21 3.35 30.79 3.47Q30.37 3.59 29.88 3.83L29.88 3.83L29.88 2.99Q30.41 2.80 30.86 2.70Q31.32 2.60 31.71 2.60L31.71 2.60Q32.70 2.60 33.29 3.06Q33.89 3.51 33.89 4.25L33.89 4.25Q33.89 5.20 31.62 7.14L31.62 7.14Q31.24 7.46 31.03 7.65Z"></path></svg>