<svg height="16.296875" width="41.34375" xmlns="http://www.w3.org/2000/svg" ><path d="M0.77 6.34L0.77 5.34L6.75 5.34L6.75 6.49L2.02 11.99L3.21 11.99Q3.45 10.88 4.02 10.40L4.02 10.40Q4.46 10.02 5.12 10.02L5.12 10.02Q6.02 10.02 6.42 10.62L6.42 10.62Q6.68 11.01 6.68 11.60L6.68 11.60Q6.69 12.26 6.26 12.58L6.26 12.58Q5.70 13.00 4.84 13.00L4.84 13.00L4.12 13.00Q4.10 13.34 4.10 13.75L4.10 13.75L3.06 13.75Q3.06 13.35 3.08 13.00L3.08 13.00L0.60 13.00L0.60 11.85L5.33 6.34L0.77 6.34ZM4.27 11.99L4.27 11.99L4.65 11.99Q5.59 11.99 5.59 11.62L5.59 11.62Q5.59 10.99 5.11 11.00L5.11 11.00Q4.51 11.01 4.27 11.99ZM15.22 5.34L11.85 13.71Q11.32 15.07 10.81 15.49Q10.31 15.91 9.46 15.91L9.46 15.91L8.46 15.91L8.46 14.85L9.19 14.85Q9.71 14.85 10.00 14.61Q10.29 14.36 10.64 13.45L10.64 13.45L10.86 12.87L7.77 5.34L9.10 5.34L11.49 11.33L13.88 5.34L15.22 5.34ZM23.32 8.37L23.32 8.37L23.32 13.00L22.06 13.00L22.06 8.42Q22.06 7.33 21.64 6.79Q21.21 6.25 20.36 6.25L20.36 6.25Q19.35 6.25 18.76 6.90Q18.17 7.55 18.17 8.67L18.17 8.67L18.17 13.00L16.91 13.00L16.91 5.34L18.17 5.34L18.17 6.53Q18.62 5.84 19.23 5.50Q19.84 5.15 20.64 5.15L20.64 5.15Q21.96 5.15 22.64 5.97Q23.32 6.79 23.32 8.37ZM25.57 8.43L25.57 7.68L26.97 7.68L26.97 3.50L25.44 3.78L25.44 2.99L27.02 2.72L27.95 2.72L27.95 7.68L29.35 7.68L29.35 8.43L25.57 8.43ZM31.19 8.43L31.19 7.68L32.58 7.68L32.58 3.50L31.06 3.78L31.06 2.99L32.63 2.72L33.56 2.72L33.56 7.68L34.97 7.68L34.97 8.43L31.19 8.43ZM39.31 5.34L39.31 5.34Q39.94 5.46 40.29 5.83Q40.63 6.21 40.63 6.77L40.63 6.77Q40.63 7.62 39.98 8.07Q39.33 8.53 38.12 8.53L38.12 8.53Q37.73 8.53 37.31 8.46Q36.88 8.39 36.40 8.25L36.40 8.25L36.40 7.42Q36.76 7.61 37.16 7.70Q37.57 7.79 38.03 7.79L38.03 7.79Q38.77 7.79 39.18 7.52Q39.59 7.25 39.59 6.77L39.59 6.77Q39.59 6.26 39.21 6.00Q38.83 5.74 38.10 5.74L38.10 5.74L37.51 5.74L37.51 5.00L38.15 5.00Q38.79 5.00 39.13 4.79Q39.46 4.57 39.46 4.16L39.46 4.16Q39.46 3.77 39.12 3.56Q38.77 3.35 38.12 3.35L38.12 3.35Q37.85 3.35 37.50 3.41Q37.15 3.47 36.60 3.63L36.60 3.63L36.60 2.84Q37.10 2.73 37.54 2.67Q37.97 2.60 38.35 2.60L38.35 2.60Q39.33 2.60 39.91 3.01Q40.49 3.41 40.49 4.09L40.49 4.09Q40.49 4.56 40.18 4.89Q39.87 5.22 39.31 5.34Z"></path></svg>