<svg height="16.296875" width="32.470703125" xmlns="http://www.w3.org/2000/svg" ><path d="M0.77 6.34L0.77 5.34L6.75 5.34L6.75 6.49L2.02 11.99L3.21 11.99Q3.45 10.88 4.02 10.40L4.02 10.40Q4.46 10.02 5.12 10.02L5.12 10.02Q6.02 10.02 6.42 10.62L6.42 10.62Q6.68 11.01 6.68 11.60L6.68 11.60Q6.69 12.26 6.26 12.58L6.26 12.58Q5.70 13.00 4.84 13.00L4.84 13.00L4.12 13.00Q4.10 13.34 4.10 13.75L4.10 13.75L3.06 13.75Q3.06 13.35 3.08 13.00L3.08 13.00L0.60 13.00L0.60 11.85L5.33 6.34L0.77 6.34ZM4.27 11.99L4.27 11.99L4.65 11.99Q5.59 11.99 5.59 11.62L5.59 11.62Q5.59 10.99 5.11 11.00L5.11 11.00Q4.51 11.01 4.27 11.99ZM15.22 5.34L11.85 13.71Q11.32 15.07 10.81 15.49Q10.31 15.91 9.46 15.91L9.46 15.91L8.46 15.91L8.46 14.85L9.19 14.85Q9.71 14.85 10.00 14.61Q10.29 14.36 10.64 13.45L10.64 13.45L10.86 12.87L7.77 5.34L9.10 5.34L11.49 11.33L13.88 5.34L15.22 5.34ZM16.70 8.43L16.70 7.68L18.09 7.68L18.09 3.50L16.57 3.78L16.57 2.99L18.14 2.72L19.08 2.72L19.08 7.68L20.48 7.68L20.48 8.43L16.70 8.43ZM22.31 8.43L22.31 7.68L23.71 7.68L23.71 3.50L22.18 3.78L22.18 2.99L23.75 2.72L24.69 2.72L24.69 7.68L26.09 7.68L26.09 8.43L22.31 8.43ZM30.44 5.34L30.44 5.34Q31.07 5.46 31.41 5.83Q31.76 6.21 31.76 6.77L31.76 6.77Q31.76 7.62 31.11 8.07Q30.46 8.53 29.25 8.53L29.25 8.53Q28.86 8.53 28.43 8.46Q28.01 8.39 27.53 8.25L27.53 8.25L27.53 7.42Q27.88 7.61 28.29 7.70Q28.70 7.79 29.16 7.79L29.16 7.79Q29.90 7.79 30.31 7.52Q30.72 7.25 30.72 6.77L30.72 6.77Q30.72 6.26 30.34 6.00Q29.96 5.74 29.22 5.74L29.22 5.74L28.64 5.74L28.64 5.00L29.28 5.00Q29.92 5.00 30.25 4.79Q30.58 4.57 30.58 4.16L30.58 4.16Q30.58 3.77 30.24 3.56Q29.90 3.35 29.25 3.35L29.25 3.35Q28.98 3.35 28.63 3.41Q28.28 3.47 27.73 3.63L27.73 3.63L27.73 2.84Q28.23 2.73 28.66 2.67Q29.10 2.60 29.48 2.60L29.48 2.60Q30.46 2.60 31.04 3.01Q31.62 3.41 31.62 4.09L31.62 4.09Q31.62 4.56 31.31 4.89Q31.00 5.22 30.44 5.34Z"></path></svg>