<svg height="16.296875" width="32.7509765625" xmlns="http://www.w3.org/2000/svg" ><path d="M0.77 6.34L0.77 5.34L6.75 5.34L6.75 6.49L2.02 11.99L6.75 11.99L6.75 13.00L0.60 13.00L0.60 11.85L5.33 6.34L0.77 6.34ZM11.63 6.22L11.63 6.22Q10.62 6.22 10.04 7.01Q9.45 7.80 9.45 9.17L9.45 9.17Q9.45 10.55 10.03 11.34Q10.62 12.13 11.63 12.13L11.63 12.13Q12.64 12.13 13.23 11.33Q13.82 10.54 13.82 9.17L13.82 9.17Q13.82 7.81 13.23 7.02Q12.64 6.22 11.63 6.22ZM11.63 5.15L11.63 5.15Q13.28 5.15 14.21 6.22Q15.15 7.29 15.15 9.17L15.15 9.17Q15.15 11.05 14.21 12.12Q13.28 13.19 11.63 13.19L11.63 13.19Q9.99 13.19 9.05 12.12Q8.12 11.05 8.12 9.17L8.12 9.17Q8.12 7.29 9.05 6.22Q9.99 5.15 11.63 5.15ZM16.98 8.43L16.98 7.68L18.38 7.68L18.38 3.50L16.85 3.78L16.85 2.99L18.42 2.72L19.36 2.72L19.36 7.68L20.76 7.68L20.76 8.43L16.98 8.43ZM22.59 8.43L22.59 7.68L23.99 7.68L23.99 3.50L22.46 3.78L22.46 2.99L24.04 2.72L24.97 2.72L24.97 7.68L26.37 7.68L26.37 8.43L22.59 8.43ZM30.72 5.34L30.72 5.34Q31.35 5.46 31.69 5.83Q32.04 6.21 32.04 6.77L32.04 6.77Q32.04 7.62 31.39 8.07Q30.74 8.53 29.53 8.53L29.53 8.53Q29.14 8.53 28.71 8.46Q28.29 8.39 27.81 8.25L27.81 8.25L27.81 7.42Q28.16 7.61 28.57 7.70Q28.98 7.79 29.44 7.79L29.44 7.79Q30.18 7.79 30.59 7.52Q31.00 7.25 31.00 6.77L31.00 6.77Q31.00 6.26 30.62 6.00Q30.24 5.74 29.50 5.74L29.50 5.74L28.92 5.74L28.92 5.00L29.56 5.00Q30.20 5.00 30.53 4.79Q30.86 4.57 30.86 4.16L30.86 4.16Q30.86 3.77 30.52 3.56Q30.18 3.35 29.53 3.35L29.53 3.35Q29.26 3.35 28.91 3.41Q28.56 3.47 28.01 3.63L28.01 3.63L28.01 2.84Q28.51 2.73 28.94 2.67Q29.38 2.60 29.76 2.60L29.76 2.60Q30.74 2.60 31.32 3.01Q31.90 3.41 31.90 4.09L31.90 4.09Q31.90 4.56 31.59 4.89Q31.28 5.22 30.72 5.34Z"></path></svg>