<svg height="16.296875" width="41.6240234375" xmlns="http://www.w3.org/2000/svg" ><path d="M0.77 6.34L0.77 5.34L6.75 5.34L6.75 6.49L2.02 11.99L6.75 11.99L6.75 13.00L0.60 13.00L0.60 11.85L5.33 6.34L0.77 6.34ZM11.63 6.22L11.63 6.22Q10.62 6.22 10.04 7.01Q9.45 7.80 9.45 9.17L9.45 9.17Q9.45 10.55 10.03 11.34Q10.62 12.13 11.63 12.13L11.63 12.13Q12.64 12.13 13.23 11.33Q13.82 10.54 13.82 9.17L13.82 9.17Q13.82 7.81 13.23 7.02Q12.64 6.22 11.63 6.22ZM11.63 5.15L11.63 5.15Q13.28 5.15 14.21 6.22Q15.15 7.29 15.15 9.17L15.15 9.17Q15.15 11.05 14.21 12.12Q13.28 13.19 11.63 13.19L11.63 13.19Q9.99 13.19 9.05 12.12Q8.12 11.05 8.12 9.17L8.12 9.17Q8.12 7.29 9.05 6.22Q9.99 5.15 11.63 5.15ZM23.60 8.37L23.60 8.37L23.60 13.13Q23.60 14.59 23.04 15.25L23.04 15.25Q22.48 15.91 21.25 15.91L21.25 15.91L19.51 15.91L19.51 14.84L21.10 14.84Q21.82 14.84 22.08 14.51L22.08 14.51Q22.34 14.18 22.34 13.13L22.34 13.13L22.34 8.42Q22.34 7.33 21.92 6.79Q21.49 6.25 20.64 6.25L20.64 6.25Q19.63 6.25 19.04 6.90Q18.45 7.55 18.45 8.67L18.45 8.67L18.45 13.00L17.19 13.00L17.19 5.34L18.45 5.34L18.45 6.53Q18.90 5.84 19.51 5.50L19.51 5.50Q20.13 5.15 20.92 5.15L20.92 5.15Q22.24 5.15 22.92 5.97L22.92 5.97Q23.60 6.79 23.60 8.37ZM25.85 8.43L25.85 7.68L27.25 7.68L27.25 3.50L25.72 3.78L25.72 2.99L27.30 2.72L28.23 2.72L28.23 7.68L29.63 7.68L29.63 8.43L25.85 8.43ZM31.47 8.43L31.47 7.68L32.86 7.68L32.86 3.50L31.34 3.78L31.34 2.99L32.91 2.72L33.84 2.72L33.84 7.68L35.25 7.68L35.25 8.43L31.47 8.43ZM39.59 5.34L39.59 5.34Q40.22 5.46 40.57 5.83Q40.91 6.21 40.91 6.77L40.91 6.77Q40.91 7.62 40.26 8.07Q39.61 8.53 38.40 8.53L38.40 8.53Q38.01 8.53 37.59 8.46Q37.16 8.39 36.68 8.25L36.68 8.25L36.68 7.42Q37.04 7.61 37.44 7.70Q37.85 7.79 38.31 7.79L38.31 7.79Q39.05 7.79 39.46 7.52Q39.87 7.25 39.87 6.77L39.87 6.77Q39.87 6.26 39.49 6.00Q39.12 5.74 38.38 5.74L38.38 5.74L37.79 5.74L37.79 5.00L38.43 5.00Q39.07 5.00 39.41 4.79Q39.74 4.57 39.74 4.16L39.74 4.16Q39.74 3.77 39.40 3.56Q39.05 3.35 38.40 3.35L38.40 3.35Q38.13 3.35 37.78 3.41Q37.43 3.47 36.88 3.63L36.88 3.63L36.88 2.84Q37.38 2.73 37.82 2.67Q38.25 2.60 38.63 2.60L38.63 2.60Q39.61 2.60 40.19 3.01Q40.77 3.41 40.77 4.09L40.77 4.09Q40.77 4.56 40.46 4.89Q40.15 5.22 39.59 5.34Z"></path></svg>