<svg height="16.296875" width="34.2822265625" xmlns="http://www.w3.org/2000/svg" ><path d="M0.77 6.34L0.77 5.34L6.75 5.34L6.75 6.49L2.02 11.99L6.75 11.99L6.75 13.00L0.60 13.00L0.60 11.85L5.33 6.34L0.77 6.34ZM11.63 6.22L11.63 6.22Q10.62 6.22 10.04 7.01Q9.45 7.80 9.45 9.17L9.45 9.17Q9.45 10.55 10.03 11.34Q10.62 12.13 11.63 12.13L11.63 12.13Q12.64 12.13 13.23 11.33Q13.82 10.54 13.82 9.17L13.82 9.17Q13.82 7.81 13.23 7.02Q12.64 6.22 11.63 6.22ZM11.63 5.15L11.63 5.15Q13.28 5.15 14.21 6.22Q15.15 7.29 15.15 9.17L15.15 9.17Q15.15 11.05 14.21 12.12Q13.28 13.19 11.63 13.19L11.63 13.19Q9.99 13.19 9.05 12.12Q8.12 11.05 8.12 9.17L8.12 9.17Q8.12 7.29 9.05 6.22Q9.99 5.15 11.63 5.15ZM18.25 13.00L18.24 7.54L18.67 7.54Q19.98 7.54 20.57 6.76L20.57 6.76Q20.97 6.24 20.97 5.57L20.97 5.57Q20.96 4.66 20.57 4.22L20.57 4.22Q19.89 3.44 18.67 3.44L18.67 3.44Q18.12 3.44 17.58 3.59L17.58 3.59Q17.05 3.73 16.52 4.03L16.52 4.03L16.52 2.85Q17.04 2.61 17.59 2.50L17.59 2.50Q18.14 2.37 18.72 2.37L18.72 2.37Q20.60 2.37 21.55 3.45L21.55 3.45Q22.29 4.30 22.29 5.57L22.29 5.57Q22.29 6.73 21.55 7.52L21.55 7.52Q20.79 8.33 19.63 8.54L19.63 8.54L19.63 13.00L18.25 13.00ZM24.12 8.43L24.12 7.68L25.52 7.68L25.52 3.50L23.99 3.78L23.99 2.99L25.57 2.72L26.50 2.72L26.50 7.68L27.90 7.68L27.90 8.43L24.12 8.43ZM30.50 7.65L30.50 7.65L33.40 7.65L33.40 8.43L29.31 8.43L29.31 7.68Q29.54 7.46 29.98 7.08L29.98 7.08Q32.33 5.00 32.33 4.35L32.33 4.35Q32.33 3.90 31.97 3.63Q31.62 3.35 31.04 3.35L31.04 3.35Q30.68 3.35 30.26 3.47Q29.85 3.59 29.35 3.83L29.35 3.83L29.35 2.99Q29.88 2.80 30.33 2.70Q30.79 2.60 31.18 2.60L31.18 2.60Q32.17 2.60 32.76 3.06Q33.36 3.51 33.36 4.25L33.36 4.25Q33.36 5.20 31.10 7.14L31.10 7.14Q30.71 7.46 30.50 7.65Z"></path></svg>