<svg height="16.296875" width="33.05859375" xmlns="http://www.w3.org/2000/svg" ><path d="M0.77 6.34L0.77 5.34L6.75 5.34L6.75 6.49L2.02 11.99L6.75 11.99L6.75 13.00L0.60 13.00L0.60 11.85L5.33 6.34L0.77 6.34ZM8.54 9.97L8.54 9.97L8.54 5.34L9.80 5.34L9.80 9.93Q9.80 11.01 10.22 11.56Q10.64 12.10 11.49 12.10L11.49 12.10Q12.51 12.10 13.10 11.45Q13.69 10.80 13.69 9.68L13.69 9.68L13.69 5.34L14.95 5.34L14.95 13.00L13.69 13.00L13.69 11.82Q13.23 12.52 12.63 12.85Q12.02 13.19 11.22 13.19L11.22 13.19Q9.91 13.19 9.22 12.37Q8.54 11.55 8.54 9.97ZM11.70 5.15L11.70 5.15ZM17.29 8.43L17.29 7.68L18.68 7.68L18.68 3.50L17.16 3.78L17.16 2.99L18.73 2.72L19.67 2.72L19.67 7.68L21.07 7.68L21.07 8.43L17.29 8.43ZM22.90 8.43L22.90 7.68L24.29 7.68L24.29 3.50L22.77 3.78L22.77 2.99L24.34 2.72L25.28 2.72L25.28 7.68L26.68 7.68L26.68 8.43L22.90 8.43ZM31.03 5.34L31.03 5.34Q31.66 5.46 32.00 5.83Q32.35 6.21 32.35 6.77L32.35 6.77Q32.35 7.62 31.70 8.07Q31.05 8.53 29.84 8.53L29.84 8.53Q29.45 8.53 29.02 8.46Q28.59 8.39 28.12 8.25L28.12 8.25L28.12 7.42Q28.47 7.61 28.88 7.70Q29.29 7.79 29.74 7.79L29.74 7.79Q30.49 7.79 30.90 7.52Q31.31 7.25 31.31 6.77L31.31 6.77Q31.31 6.26 30.93 6.00Q30.55 5.74 29.81 5.74L29.81 5.74L29.22 5.74L29.22 5.00L29.87 5.00Q30.51 5.00 30.84 4.79Q31.17 4.57 31.17 4.16L31.17 4.16Q31.17 3.77 30.83 3.56Q30.49 3.35 29.84 3.35L29.84 3.35Q29.57 3.35 29.22 3.41Q28.87 3.47 28.31 3.63L28.31 3.63L28.31 2.84Q28.81 2.73 29.25 2.67Q29.69 2.60 30.06 2.60L30.06 2.60Q31.05 2.60 31.63 3.01Q32.20 3.41 32.20 4.09L32.20 4.09Q32.20 4.56 31.90 4.89Q31.59 5.22 31.03 5.34Z"></path></svg>