<svg height="16.296875" width="31.609375" xmlns="http://www.w3.org/2000/svg" ><path d="M0.77 6.34L0.77 5.34L6.75 5.34L6.75 6.49L2.02 11.99L6.75 11.99L6.75 13.00L0.60 13.00L0.60 11.85L5.33 6.34L0.77 6.34ZM12.23 7.93L12.23 7.93L12.23 11.87L13.46 11.87L13.46 13.00L9.85 13.00L9.85 11.87L10.97 11.87L10.97 7.93Q10.97 6.88 10.71 6.55Q10.45 6.22 9.73 6.22L9.73 6.22L8.14 6.22L8.14 5.15L9.88 5.15Q11.12 5.15 11.67 5.81Q12.23 6.47 12.23 7.93ZM15.84 8.43L15.84 7.68L17.23 7.68L17.23 3.50L15.71 3.78L15.71 2.99L17.28 2.72L18.22 2.72L18.22 7.68L19.62 7.68L19.62 8.43L15.84 8.43ZM21.45 8.43L21.45 7.68L22.85 7.68L22.85 3.50L21.32 3.78L21.32 2.99L22.89 2.72L23.83 2.72L23.83 7.68L25.23 7.68L25.23 8.43L21.45 8.43ZM29.58 5.34L29.58 5.34Q30.21 5.46 30.55 5.83Q30.90 6.21 30.90 6.77L30.90 6.77Q30.90 7.62 30.25 8.07Q29.60 8.53 28.39 8.53L28.39 8.53Q28 8.53 27.57 8.46Q27.15 8.39 26.67 8.25L26.67 8.25L26.67 7.42Q27.02 7.61 27.43 7.70Q27.84 7.79 28.29 7.79L28.29 7.79Q29.04 7.79 29.45 7.52Q29.86 7.25 29.86 6.77L29.86 6.77Q29.86 6.26 29.48 6.00Q29.10 5.74 28.36 5.74L28.36 5.74L27.77 5.74L27.77 5.00L28.42 5.00Q29.06 5.00 29.39 4.79Q29.72 4.57 29.72 4.16L29.72 4.16Q29.72 3.77 29.38 3.56Q29.04 3.35 28.39 3.35L28.39 3.35Q28.12 3.35 27.77 3.41Q27.42 3.47 26.87 3.63L26.87 3.63L26.87 2.84Q27.36 2.73 27.80 2.67Q28.24 2.60 28.62 2.60L28.62 2.60Q29.60 2.60 30.18 3.01Q30.75 3.41 30.75 4.09L30.75 4.09Q30.75 4.56 30.45 4.89Q30.14 5.22 29.58 5.34Z"></path></svg>